<svg viewBox="0 0 900 600" xmlns="http://www.w3.org/2000/svg">
<circle cx="69.44523" cy="306.10107" fill="red" r="4.5"/>
<circle cx="47.436905" cy="302.98236" fill="red" r="4.5"/>
<circle cx="43.336605" cy="317.7312" fill="red" r="4.5"/>
<circle cx="23.28896" cy="310.92136" fill="red" r="4.5"/>
<circle cx="18.03644" cy="325.50687" fill="red" r="4.5"/>
<circle cx="37.52201" cy="333.0069" fill="red" r="4.5"/>
<circle cx="33.42171" cy="347.75574" fill="red" r="4.5"/>
<circle cx="49.331615" cy="358.36234" fill="red" r="4.5"/>
<circle cx="33.843636" cy="369.24295" fill="red" r="4.5"/>
<circle cx="53.32921" cy="376.74292" fill="red" r="4.5"/>
<circle cx="71.17966" cy="367.6115" fill="red" r="4.5"/>
<circle cx="87.08956" cy="378.2181" fill="red" r="4.5"/>
<circle cx="94.60022" cy="364.07846" fill="red" r="4.5"/>
<circle cx="117.10022" cy="364.07846" fill="red" r="4.5"/>
<circle cx="137.40839" cy="357.62082" fill="red" r="4.5"/>
<circle cx="159.63138" cy="359.96732" fill="red" r="4.5"/>
<circle cx="178.17421" cy="351.47122" fill="red" r="4.5"/>
<circle cx="200.55095" cy="353.03918" fill="red" r="4.5"/>
<circle cx="222.6742" cy="355.7727" fill="red" r="4.5"/>
<circle cx="242.72183" cy="348.96283" fill="red" r="4.5"/>
<circle cx="236.3315" cy="334.58054" fill="red" r="4.5"/>
<circle cx="229.3786" cy="320.3147" fill="red" r="4.5"/>
<circle cx="209.07043" cy="326.77237" fill="red" r="4.5"/>
<circle cx="190.20035" cy="318.6028" fill="red" r="4.5"/>
<circle cx="167.70805" cy="318.2101" fill="red" r="4.5"/>
<circle cx="145.69974" cy="321.32883" fill="red" r="4.5"/>
<circle cx="124.12629" cy="317.06857" fill="red" r="4.5"/>
<circle cx="102.39297" cy="320.95087" fill="red" r="4.5"/>
<circle cx="82.61958" cy="328.10822" fill="red" r="4.5"/>
<circle cx="154.4829" cy="306.0749" fill="red" r="4.5"/>
<circle cx="149.23038" cy="291.48932" fill="red" r="4.5"/>
<circle cx="128.22481" cy="286.1138" fill="red" r="4.5"/>
<circle cx="113.61223" cy="274.7077" fill="red" r="4.5"/>
<circle cx="102.36223" cy="287.6981" fill="red" r="4.5"/>
<circle cx="80.054726" cy="289.65598" fill="red" r="4.5"/>
<circle cx="139.98103" cy="273.3242" fill="red" r="4.5"/>
<circle cx="158.18391" cy="264.50742" fill="red" r="4.5"/>
<circle cx="180.06223" cy="261.00574" fill="red" r="4.5"/>
<circle cx="200.10988" cy="254.19588" fill="red" r="4.5"/>
<circle cx="217.21902" cy="244.45416" fill="red" r="4.5"/>
<circle cx="199.01614" cy="235.63739" fill="red" r="4.5"/>
<circle cx="177.13782" cy="239.13907" fill="red" r="4.5"/>
<circle cx="156.13226" cy="233.76355" fill="red" r="4.5"/>
<circle cx="133.63997" cy="233.3709" fill="red" r="4.5"/>
<circle cx="140.59283" cy="219.10504" fill="red" r="4.5"/>
<circle cx="173.61804" cy="224.32375" fill="red" r="4.5"/>
<circle cx="213.62872" cy="224.2313" fill="red" r="4.5"/>
<circle cx="223.8435" cy="210.86621" fill="red" r="4.5"/>
<circle cx="240.16443" cy="221.19151" fill="red" r="4.5"/>
<circle cx="247.11731" cy="206.92566" fill="red" r="4.5"/>
<circle cx="237.4308" cy="193.3869" fill="red" r="4.5"/>
<circle cx="245.4941" cy="179.3832" fill="red" r="4.5"/>
<circle cx="223.18657" cy="177.42531" fill="red" r="4.5"/>
<circle cx="200.80984" cy="175.85738" fill="red" r="4.5"/>
<circle cx="179.23639" cy="171.59712" fill="red" r="4.5"/>
<circle cx="158.23083" cy="166.22162" fill="red" r="4.5"/>
<circle cx="149.62045" cy="152.36342" fill="red" r="4.5"/>
<circle cx="134.56502" cy="163.51059" fill="red" r="4.5"/>
<circle cx="128.17467" cy="177.8929" fill="red" r="4.5"/>
<circle cx="115.92029" cy="190.47295" fill="red" r="4.5"/>
<circle cx="98.81116" cy="200.21468" fill="red" r="4.5"/>
<circle cx="78.256386" cy="206.31572" fill="red" r="4.5"/>
<circle cx="83.50891" cy="220.90126" fill="red" r="4.5"/>
<circle cx="71.254524" cy="233.48132" fill="red" r="4.5"/>
<circle cx="59.49831" cy="246.27094" fill="red" r="4.5"/>
<circle cx="46.27314" cy="258.4062" fill="red" r="4.5"/>
<circle cx="39.882793" cy="272.78848" fill="red" r="4.5"/>
<circle cx="31.819519" cy="286.7922" fill="red" r="4.5"/>
<circle cx="14.710382" cy="296.5339" fill="red" r="4.5"/>
<circle cx="10.032371" cy="281.8617" fill="red" r="4.5"/>
<circle cx="19.83515" cy="265.97864" fill="red" r="4.5"/>
<circle cx="20.424131" cy="250.98375" fill="red" r="4.5"/>
<circle cx="49.376205" cy="229.97964" fill="red" r="4.5"/>
<circle cx="49.376205" cy="214.97964" fill="red" r="4.5"/>
<circle cx="28.821432" cy="236.0807" fill="red" r="4.5"/>
<circle cx="62.768406" cy="195.4351" fill="red" r="4.5"/>
<circle cx="72.98319" cy="182.07" fill="red" r="4.5"/>
<circle cx="93.770485" cy="176.32976" fill="red" r="4.5"/>
<circle cx="93.770485" cy="161.32976" fill="red" r="4.5"/>
<circle cx="111.62093" cy="152.19833" fill="red" r="4.5"/>
<circle cx="123.87531" cy="139.61827" fill="red" r="4.5"/>
<circle cx="140.98444" cy="129.87656" fill="red" r="4.5"/>
<circle cx="161.53922" cy="123.775505" fill="red" r="4.5"/>
<circle cx="170.1496" cy="109.91731" fill="red" r="4.5"/>
<circle cx="190.19724" cy="116.72717" fill="red" r="4.5"/>
<circle cx="190.78622" cy="101.73231" fill="red" r="4.5"/>
<circle cx="212.185" cy="97.09705" fill="red" r="4.5"/>
<circle cx="222.92107" cy="83.914795" fill="red" r="4.5"/>
<circle cx="242.9687" cy="77.10494" fill="red" r="4.5"/>
<circle cx="262.7421" cy="69.947556" fill="red" r="4.5"/>
<circle cx="282.22766" cy="62.447563" fill="red" r="4.5"/>
<circle cx="304.71997" cy="62.05491" fill="red" r="4.5"/>
<circle cx="323.59003" cy="53.88532" fill="red" r="4.5"/>
<circle cx="338.20264" cy="65.29141" fill="red" r="4.5"/>
<circle cx="349.4526" cy="52.30103" fill="red" r="4.5"/>
<circle cx="358.063" cy="38.442837" fill="red" r="4.5"/>
<circle cx="378.11066" cy="31.632978" fill="red" r="4.5"/>
<circle cx="399.68408" cy="27.372747" fill="red" r="4.5"/>
<circle cx="422.06085" cy="25.804823" fill="red" r="4.5"/>
<circle cx="442.36902" cy="19.347157" fill="red" r="4.5"/>
<circle cx="463.37457" cy="24.722673" fill="red" r="4.5"/>
<circle cx="480.48367" cy="14.980953" fill="red" r="4.5"/>
<circle cx="485.1617" cy="29.653168" fill="red" r="4.5"/>
<circle cx="503.01215" cy="20.521746" fill="red" r="4.5"/>
<circle cx="517.1719" cy="8.864556" fill="red" r="4.5"/>
<circle cx="539.60254" cy="7.68767" fill="red" r="4.5"/>
<circle cx="561.61084" cy="4.568995" fill="red" r="4.5"/>
<circle cx="584.04144" cy="5.745881" fill="red" r="4.5"/>
<circle cx="605.77484" cy="1.8635956" fill="red" r="4.5"/>
<circle cx="620.3874" cy="13.269685" fill="red" r="4.5"/>
<circle cx="635.4428" cy="2.1225128" fill="red" r="4.5"/>
<circle cx="657.8735" cy="3.2993994" fill="red" r="4.5"/>
<circle cx="680.34265" cy="2.5143597" fill="red" r="4.5"/>
<circle cx="702.83496" cy="2.9070141" fill="red" r="4.5"/>
<circle cx="725.3349" cy="2.9070141" fill="red" r="4.5"/>
<circle cx="747.4581" cy="5.640547" fill="red" r="4.5"/>
<circle cx="767.5058" cy="12.450404" fill="red" r="4.5"/>
<circle cx="788.2931" cy="6.710153" fill="red" r="4.5"/>
<circle cx="795.246" cy="20.976002" fill="red" r="4.5"/>
<circle cx="814.4304" cy="13.138522" fill="red" r="4.5"/>
<circle cx="836.6534" cy="10.792006" fill="red" r="4.5"/>
<circle cx="856.96155" cy="17.249672" fill="red" r="4.5"/>
<circle cx="872.01697" cy="28.396845" fill="red" r="4.5"/>
<circle cx="890.5598" cy="36.892937" fill="red" r="4.5"/>
<circle cx="894.0796" cy="51.708263" fill="red" r="4.5"/>
<circle cx="882.32336" cy="64.49786" fill="red" r="4.5"/>
<circle cx="865.6026" cy="74.53483" fill="red" r="4.5"/>
<circle cx="843.7243" cy="78.0365" fill="red" r="4.5"/>
<circle cx="821.5013" cy="80.383026" fill="red" r="4.5"/>
<circle cx="806.0133" cy="91.26363" fill="red" r="4.5"/>
<circle cx="812.9662" cy="105.52949" fill="red" r="4.5"/>
<circle cx="790.84296" cy="102.79595" fill="red" r="4.5"/>
<circle cx="792.02057" cy="117.7754" fill="red" r="4.5"/>
<circle cx="813.89886" cy="121.27708" fill="red" r="4.5"/>
<circle cx="784.5099" cy="131.91502" fill="red" r="4.5"/>
<circle cx="762.5015" cy="135.03369" fill="red" r="4.5"/>
<circle cx="761.9126" cy="120.03883" fill="red" r="4.5"/>
<circle cx="741.8649" cy="126.848694" fill="red" r="4.5"/>
<circle cx="736.61237" cy="141.43423" fill="red" r="4.5"/>
<circle cx="716.0576" cy="147.5353" fill="red" r="4.5"/>
<circle cx="733.16675" cy="157.27701" fill="red" r="4.5"/>
<circle cx="725.1035" cy="171.28072" fill="red" r="4.5"/>
<circle cx="702.9803" cy="174.01425" fill="red" r="4.5"/>
<circle cx="693.8287" cy="160.31107" fill="red" r="4.5"/>
<circle cx="679.2161" cy="171.71715" fill="red" r="4.5"/>
<circle cx="666.96173" cy="184.29721" fill="red" r="4.5"/>
<circle cx="647.18835" cy="191.45459" fill="red" r="4.5"/>
<circle cx="654.14124" cy="205.72044" fill="red" r="4.5"/>
<circle cx="631.6489" cy="206.1131" fill="red" r="4.5"/>
<circle cx="641.8637" cy="219.4782" fill="red" r="4.5"/>
<circle cx="664.356" cy="219.87085" fill="red" r="4.5"/>
<circle cx="659.678" cy="234.54306" fill="red" r="4.5"/>
<circle cx="638.46857" cy="239.55016" fill="red" r="4.5"/>
<circle cx="619.5985" cy="247.71976" fill="red" r="4.5"/>
<circle cx="597.16785" cy="248.89664" fill="red" r="4.5"/>
<circle cx="575.1595" cy="252.01532" fill="red" r="4.5"/>
<circle cx="553.58606" cy="247.7551" fill="red" r="4.5"/>
<circle cx="532.5805" cy="242.37958" fill="red" r="4.5"/>
<circle cx="518.88336" cy="254.27988" fill="red" r="4.5"/>
<circle cx="518.88336" cy="269.27988" fill="red" r="4.5"/>
<circle cx="517.11804" cy="284.2336" fill="red" r="4.5"/>
<circle cx="538.1236" cy="278.85812" fill="red" r="4.5"/>
<circle cx="557.308" cy="286.6956" fill="red" r="4.5"/>
<circle cx="576.7936" cy="294.1956" fill="red" r="4.5"/>
<circle cx="590.4907" cy="306.0959" fill="red" r="4.5"/>
<circle cx="596.31415" cy="320.58478" fill="red" r="4.5"/>
<circle cx="598.07947" cy="335.5385" fill="red" r="4.5"/>
<circle cx="586.82947" cy="348.52893" fill="red" r="4.5"/>
<circle cx="589.7663" cy="363.4006" fill="red" r="4.5"/>
<circle cx="575.6066" cy="375.0578" fill="red" r="4.5"/>
<circle cx="597.4849" cy="378.55948" fill="red" r="4.5"/>
<circle cx="614.2057" cy="388.5964" fill="red" r="4.5"/>
<circle cx="619.4582" cy="403.18198" fill="red" r="4.5"/>
<circle cx="618.28064" cy="418.16138" fill="red" r="4.5"/>
<circle cx="604.5835" cy="430.0617" fill="red" r="4.5"/>
<circle cx="583.1847" cy="434.69696" fill="red" r="4.5"/>
<circle cx="566.8638" cy="445.02228" fill="red" r="4.5"/>
<circle cx="570.3836" cy="459.8376" fill="red" r="4.5"/>
<circle cx="554.8956" cy="470.7182" fill="red" r="4.5"/>
<circle cx="575.4504" cy="476.81927" fill="red" r="4.5"/>
<circle cx="590.93835" cy="487.6999" fill="red" r="4.5"/>
<circle cx="603.19275" cy="500.27994" fill="red" r="4.5"/>
<circle cx="607.293" cy="515.02875" fill="red" r="4.5"/>
<circle cx="614.2459" cy="529.2946" fill="red" r="4.5"/>
<circle cx="612.4806" cy="544.2484" fill="red" r="4.5"/>
<circle cx="604.4173" cy="558.2521" fill="red" r="4.5"/>
<circle cx="594.73083" cy="571.79083" fill="red" r="4.5"/>
<circle cx="572.7225" cy="574.90955" fill="red" r="4.5"/>
<circle cx="550.2919" cy="573.73267" fill="red" r="4.5"/>
<circle cx="529.2863" cy="568.3571" fill="red" r="4.5"/>
<circle cx="508.499" cy="574.09735" fill="red" r="4.5"/>
<circle cx="499.34744" cy="560.3942" fill="red" r="4.5"/>
<circle cx="483.02652" cy="570.7195" fill="red" r="4.5"/>
<circle cx="460.55734" cy="569.93445" fill="red" r="4.5"/>
<circle cx="449.82126" cy="556.75226" fill="red" r="4.5"/>
<circle cx="471.8296" cy="553.63354" fill="red" r="4.5"/>
<circle cx="433.1005" cy="566.7892" fill="red" r="4.5"/>
<circle cx="411.52707" cy="562.529" fill="red" r="4.5"/>
<circle cx="389.79373" cy="558.64667" fill="red" r="4.5"/>
<circle cx="373.4728" cy="548.32135" fill="red" r="4.5"/>
<circle cx="358.41736" cy="559.4685" fill="red" r="4.5"/>
<circle cx="336.10986" cy="561.4264" fill="red" r="4.5"/>
<circle cx="317.23978" cy="569.596" fill="red" r="4.5"/>
<circle cx="295.11655" cy="572.3295" fill="red" r="4.5"/>
<circle cx="272.61655" cy="572.3295" fill="red" r="4.5"/>
<circle cx="251.04309" cy="568.0693" fill="red" r="4.5"/>
<circle cx="230.03754" cy="562.6938" fill="red" r="4.5"/>
<circle cx="207.54524" cy="562.30115" fill="red" r="4.5"/>
<circle cx="200.59236" cy="548.0353" fill="red" r="4.5"/>
<circle cx="184.27145" cy="558.3606" fill="red" r="4.5"/>
<circle cx="166.78566" cy="548.9208" fill="red" r="4.5"/>
<circle cx="144.90733" cy="545.4191" fill="red" r="4.5"/>
<circle cx="137.95445" cy="531.15326" fill="red" r="4.5"/>
<circle cx="115.83122" cy="528.41974" fill="red" r="4.5"/>
<circle cx="105.61643" cy="515.0546" fill="red" r="4.5"/>
<circle cx="91.00385" cy="503.64853" fill="red" r="4.5"/>
<circle cx="86.325836" cy="488.97632" fill="red" r="4.5"/>
<circle cx="90.42614" cy="474.2275" fill="red" r="4.5"/>
<circle cx="67.95697" cy="475.01257" fill="red" r="4.5"/>
<circle cx="51.636047" cy="464.68723" fill="red" r="4.5"/>
<circle cx="42.484474" cy="450.98404" fill="red" r="4.5"/>
<circle cx="32.797974" cy="437.44525" fill="red" r="4.5"/>
<circle cx="18.638266" cy="425.7881" fill="red" r="4.5"/>
<circle cx="2.3173413" cy="415.46277" fill="red" r="4.5"/>
<circle cx="2.3173413" cy="400.46274" fill="red" r="4.5"/>
<circle cx="8.707686" cy="386.08044" fill="red" r="4.5"/>
<circle cx="31.176851" cy="385.29544" fill="red" r="4.5"/>
<circle cx="39.787228" cy="399.15363" fill="red" r="4.5"/>
<circle cx="46.740112" cy="413.41946" fill="red" r="4.5"/>
<circle cx="56.42661" cy="426.95825" fill="red" r="4.5"/>
<circle cx="62.250042" cy="441.4471" fill="red" r="4.5"/>
<circle cx="80.100494" cy="450.57858" fill="red" r="4.5"/>
<circle cx="23.06647" cy="409.19058" fill="red" r="4.5"/>
<circle cx="112.8953" cy="473.44247" fill="red" r="4.5"/>
<circle cx="134.77362" cy="476.94415" fill="red" r="4.5"/>
<circle cx="157.15038" cy="478.51205" fill="red" r="4.5"/>
<circle cx="179.58101" cy="479.68896" fill="red" r="4.5"/>
<circle cx="201.80399" cy="482.0355" fill="red" r="4.5"/>
<circle cx="218.12492" cy="492.3608" fill="red" r="4.5"/>
<circle cx="225.0778" cy="478.09497" fill="red" r="4.5"/>
<circle cx="231.46814" cy="463.71268" fill="red" r="4.5"/>
<circle cx="241.68294" cy="450.34753" fill="red" r="4.5"/>
<circle cx="230.94685" cy="437.1653" fill="red" r="4.5"/>
<circle cx="252.34563" cy="432.53006" fill="red" r="4.5"/>
<circle cx="238.6485" cy="420.62973" fill="red" r="4.5"/>
<circle cx="216.4255" cy="422.9763" fill="red" r="4.5"/>
<circle cx="201.81293" cy="411.57016" fill="red" r="4.5"/>
<circle cx="180.41417" cy="406.9349" fill="red" r="4.5"/>
<circle cx="193.15831" cy="394.573" fill="red" r="4.5"/>
<circle cx="170.93532" cy="392.2265" fill="red" r="4.5"/>
<circle cx="150.14803" cy="397.96677" fill="red" r="4.5"/>
<circle cx="129.59325" cy="391.8657" fill="red" r="4.5"/>
<circle cx="109.81986" cy="384.70834" fill="red" r="4.5"/>
<circle cx="150.14803" cy="382.96677" fill="red" r="4.5"/>
<circle cx="266.04276" cy="444.43033" fill="red" r="4.5"/>
<circle cx="287.0483" cy="449.80588" fill="red" r="4.5"/>
<circle cx="279.5377" cy="463.9455" fill="red" r="4.5"/>
<circle cx="288.68924" cy="477.64868" fill="red" r="4.5"/>
<circle cx="303.30185" cy="466.24255" fill="red" r="4.5"/>
<circle cx="323.34946" cy="473.05243" fill="red" r="4.5"/>
<circle cx="341.8923" cy="464.55634" fill="red" r="4.5"/>
<circle cx="341.8923" cy="449.55634" fill="red" r="4.5"/>
<circle cx="364.3846" cy="449.1637" fill="red" r="4.5"/>
<circle cx="354.16983" cy="435.79858" fill="red" r="4.5"/>
<circle cx="331.67752" cy="435.4059" fill="red" r="4.5"/>
<circle cx="309.30078" cy="436.97388" fill="red" r="4.5"/>
<circle cx="373.9432" cy="428.6412" fill="red" r="4.5"/>
<circle cx="376.2951" cy="413.7234" fill="red" r="4.5"/>
<circle cx="373.35825" cy="398.8517" fill="red" r="4.5"/>
<circle cx="381.4215" cy="384.848" fill="red" r="4.5"/>
<circle cx="358.92923" cy="384.45535" fill="red" r="4.5"/>
<circle cx="340.72635" cy="375.63858" fill="red" r="4.5"/>
<circle cx="322.1835" cy="367.1425" fill="red" r="4.5"/>
<circle cx="301.17795" cy="361.76694" fill="red" r="4.5"/>
<circle cx="284.85703" cy="351.44162" fill="red" r="4.5"/>
<circle cx="265.37146" cy="358.94165" fill="red" r="4.5"/>
<circle cx="266.65414" cy="342.62485" fill="red" r="4.5"/>
<circle cx="268.4195" cy="327.6711" fill="red" r="4.5"/>
<circle cx="289.42505" cy="333.0466" fill="red" r="4.5"/>
<circle cx="305.74597" cy="343.37192" fill="red" r="4.5"/>
<circle cx="326.30072" cy="349.473" fill="red" r="4.5"/>
<circle cx="346.0741" cy="356.63037" fill="red" r="4.5"/>
<circle cx="367.07968" cy="362.0059" fill="red" r="4.5"/>
<circle cx="391.10803" cy="371.3092" fill="red" r="4.5"/>
<circle cx="413.60803" cy="371.3092" fill="red" r="4.5"/>
<circle cx="434.39532" cy="377.04947" fill="red" r="4.5"/>
<circle cx="454.44296" cy="383.85934" fill="red" r="4.5"/>
<circle cx="474.75116" cy="390.317" fill="red" r="4.5"/>
<circle cx="483.90268" cy="404.02017" fill="red" r="4.5"/>
<circle cx="504.68997" cy="409.76044" fill="red" r="4.5"/>
<circle cx="494.47522" cy="423.12552" fill="red" r="4.5"/>
<circle cx="516.9675" cy="423.5182" fill="red" r="4.5"/>
<circle cx="537.5223" cy="429.6192" fill="red" r="4.5"/>
<circle cx="540.4591" cy="444.49094" fill="red" r="4.5"/>
<circle cx="539.28156" cy="459.47034" fill="red" r="4.5"/>
<circle cx="531.7709" cy="473.61" fill="red" r="4.5"/>
<circle cx="543.0209" cy="486.60034" fill="red" r="4.5"/>
<circle cx="564.5943" cy="490.8606" fill="red" r="4.5"/>
<circle cx="578.754" cy="502.51776" fill="red" r="4.5"/>
<circle cx="558.98065" cy="509.67514" fill="red" r="4.5"/>
<circle cx="577.18353" cy="518.49194" fill="red" r="4.5"/>
<circle cx="588.93976" cy="531.2815" fill="red" r="4.5"/>
<circle cx="590.1173" cy="546.261" fill="red" r="4.5"/>
<circle cx="576.42017" cy="558.1613" fill="red" r="4.5"/>
<circle cx="553.9202" cy="558.1613" fill="red" r="4.5"/>
<circle cx="560.3105" cy="543.779" fill="red" r="4.5"/>
<circle cx="559.133" cy="528.79956" fill="red" r="4.5"/>
<circle cx="533.13293" cy="552.421" fill="red" r="4.5"/>
<circle cx="512.1274" cy="547.04553" fill="red" r="4.5"/>
<circle cx="516.8509" cy="460.64722" fill="red" r="4.5"/>
<circle cx="512.1729" cy="445.975" fill="red" r="4.5"/>
<circle cx="489.86542" cy="447.93292" fill="red" r="4.5"/>
<circle cx="468.13205" cy="444.05066" fill="red" r="4.5"/>
<circle cx="445.70142" cy="445.22754" fill="red" r="4.5"/>
<circle cx="423.20145" cy="445.22754" fill="red" r="4.5"/>
<circle cx="400.70914" cy="445.62018" fill="red" r="4.5"/>
<circle cx="388.45474" cy="458.20023" fill="red" r="4.5"/>
<circle cx="399.5316" cy="430.64072" fill="red" r="4.5"/>
<circle cx="407.04224" cy="416.5011" fill="red" r="4.5"/>
<circle cx="395.79224" cy="403.51074" fill="red" r="4.5"/>
<circle cx="429.59177" cy="430.8452" fill="red" r="4.5"/>
<circle cx="471.15854" cy="416.38208" fill="red" r="4.5"/>
<circle cx="455.24866" cy="405.77548" fill="red" r="4.5"/>
<circle cx="436.06427" cy="397.938" fill="red" r="4.5"/>
<circle cx="415.5095" cy="391.83694" fill="red" r="4.5"/>
<circle cx="364.3923" cy="464.55634" fill="red" r="4.5"/>
<circle cx="353.65622" cy="477.7386" fill="red" r="4.5"/>
<circle cx="352.4787" cy="492.71805" fill="red" r="4.5"/>
<circle cx="363.21475" cy="505.9003" fill="red" r="4.5"/>
<circle cx="363.21475" cy="520.90027" fill="red" r="4.5"/>
<circle cx="356.8244" cy="535.2826" fill="red" r="4.5"/>
<circle cx="342.6647" cy="546.9398" fill="red" r="4.5"/>
<circle cx="320.54147" cy="549.67334" fill="red" r="4.5"/>
<circle cx="299.1427" cy="554.3086" fill="red" r="4.5"/>
<circle cx="276.6504" cy="554.70123" fill="red" r="4.5"/>
<circle cx="254.4274" cy="552.3547" fill="red" r="4.5"/>
<circle cx="337.9543" cy="527.11304" fill="red" r="4.5"/>
<circle cx="333.85403" cy="512.3642" fill="red" r="4.5"/>
<circle cx="315.65112" cy="503.5474" fill="red" r="4.5"/>
<circle cx="301.954" cy="491.64713" fill="red" r="4.5"/>
<circle cx="326.3872" cy="490.36514" fill="red" r="4.5"/>
<circle cx="385.33798" cy="523.63385" fill="red" r="4.5"/>
<circle cx="402.8238" cy="533.0736" fill="red" r="4.5"/>
<circle cx="424.0332" cy="538.08075" fill="red" r="4.5"/>
<circle cx="446.40994" cy="539.6487" fill="red" r="4.5"/>
<circle cx="261.33478" cy="472.76227" fill="red" r="4.5"/>
<circle cx="248.59065" cy="485.12418" fill="red" r="4.5"/>
<circle cx="171.51773" cy="493.6927" fill="red" r="4.5"/>
<circle cx="149.3945" cy="496.4262" fill="red" r="4.5"/>
<circle cx="156.34737" cy="510.69205" fill="red" r="4.5"/>
<circle cx="134.46906" cy="514.1937" fill="red" r="4.5"/>
<circle cx="120.30935" cy="502.53653" fill="red" r="4.5"/>
<circle cx="109.573265" cy="489.3543" fill="red" r="4.5"/>
<circle cx="159.83278" cy="527.6516" fill="red" r="4.5"/>
<circle cx="179.88042" cy="534.4614" fill="red" r="4.5"/>
<circle cx="221.8018" cy="543.02814" fill="red" r="4.5"/>
<circle cx="405.70364" cy="548.04004" fill="red" r="4.5"/>
<circle cx="563.4114" cy="427.53958" fill="red" r="4.5"/>
<circle cx="575.6657" cy="414.9595" fill="red" r="4.5"/>
<circle cx="580.9183" cy="400.374" fill="red" r="4.5"/>
<circle cx="597.2392" cy="410.6993" fill="red" r="4.5"/>
<circle cx="557.75616" cy="365.92633" fill="red" r="4.5"/>
<circle cx="562.4342" cy="351.25415" fill="red" r="4.5"/>
<circle cx="564.1995" cy="336.30038" fill="red" r="4.5"/>
<circle cx="560.6797" cy="321.48508" fill="red" r="4.5"/>
<circle cx="554.28937" cy="307.10278" fill="red" r="4.5"/>
<circle cx="534.6038" cy="293.67343" fill="red" r="4.5"/>
<circle cx="494.89502" cy="281.88712" fill="red" r="4.5"/>
<circle cx="477.04462" cy="272.7557" fill="red" r="4.5"/>
<circle cx="455.64584" cy="268.12042" fill="red" r="4.5"/>
<circle cx="437.103" cy="259.62433" fill="red" r="4.5"/>
<circle cx="414.63385" cy="258.8393" fill="red" r="4.5"/>
<circle cx="398.3129" cy="248.51398" fill="red" r="4.5"/>
<circle cx="378.82733" cy="256.01398" fill="red" r="4.5"/>
<circle cx="378.23834" cy="241.01912" fill="red" r="4.5"/>
<circle cx="357.2328" cy="246.39464" fill="red" r="4.5"/>
<circle cx="334.9253" cy="244.43675" fill="red" r="4.5"/>
<circle cx="314.3705" cy="250.5378" fill="red" r="4.5"/>
<circle cx="292.4922" cy="254.03947" fill="red" r="4.5"/>
<circle cx="271.48663" cy="248.66396" fill="red" r="4.5"/>
<circle cx="254.37749" cy="258.40567" fill="red" r="4.5"/>
<circle cx="249.69946" cy="243.73346" fill="red" r="4.5"/>
<circle cx="260.43555" cy="230.55121" fill="red" r="4.5"/>
<circle cx="277.92133" cy="221.1114" fill="red" r="4.5"/>
<circle cx="291.61847" cy="209.2111" fill="red" r="4.5"/>
<circle cx="313.62677" cy="206.09242" fill="red" r="4.5"/>
<circle cx="306.11615" cy="191.9528" fill="red" r="4.5"/>
<circle cx="323.60193" cy="182.513" fill="red" r="4.5"/>
<circle cx="331.11255" cy="168.37338" fill="red" r="4.5"/>
<circle cx="324.1597" cy="154.10753" fill="red" r="4.5"/>
<circle cx="325.92505" cy="139.15378" fill="red" r="4.5"/>
<circle cx="308.43924" cy="129.71396" fill="red" r="4.5"/>
<circle cx="323.92722" cy="118.83335" fill="red" r="4.5"/>
<circle cx="302.52844" cy="114.19809" fill="red" r="4.5"/>
<circle cx="286.20752" cy="124.523415" fill="red" r="4.5"/>
<circle cx="272.04782" cy="112.86622" fill="red" r="4.5"/>
<circle cx="260.2916" cy="125.65582" fill="red" r="4.5"/>
<circle cx="238.28326" cy="128.7745" fill="red" r="4.5"/>
<circle cx="215.79099" cy="129.16716" fill="red" r="4.5"/>
<circle cx="226.00577" cy="115.802055" fill="red" r="4.5"/>
<circle cx="235.69228" cy="102.263275" fill="red" r="4.5"/>
<circle cx="257.09103" cy="97.62802" fill="red" r="4.5"/>
<circle cx="273.41196" cy="87.302704" fill="red" r="4.5"/>
<circle cx="292.28207" cy="95.47229" fill="red" r="4.5"/>
<circle cx="305.9792" cy="83.57199" fill="red" r="4.5"/>
<circle cx="327.37796" cy="78.93673" fill="red" r="4.5"/>
<circle cx="194.78543" cy="134.54266" fill="red" r="4.5"/>
<circle cx="176.24258" cy="143.03876" fill="red" r="4.5"/>
<circle cx="341.83493" cy="128.54716" fill="red" r="4.5"/>
<circle cx="358.15585" cy="138.87248" fill="red" r="4.5"/>
<circle cx="373.21127" cy="150.01965" fill="red" r="4.5"/>
<circle cx="394.78473" cy="154.27989" fill="red" r="4.5"/>
<circle cx="417.2539" cy="153.49484" fill="red" r="4.5"/>
<circle cx="439.37714" cy="150.76132" fill="red" r="4.5"/>
<circle cx="461.87714" cy="150.76132" fill="red" r="4.5"/>
<circle cx="484.18463" cy="148.80342" fill="red" r="4.5"/>
<circle cx="506.65378" cy="148.01839" fill="red" r="4.5"/>
<circle cx="529.0845" cy="146.84149" fill="red" r="4.5"/>
<circle cx="551.0928" cy="149.96017" fill="red" r="4.5"/>
<circle cx="573.5234" cy="151.13705" fill="red" r="4.5"/>
<circle cx="591.0092" cy="160.57686" fill="red" r="4.5"/>
<circle cx="613.13245" cy="157.84334" fill="red" r="4.5"/>
<circle cx="622.284" cy="171.54651" fill="red" r="4.5"/>
<circle cx="636.8966" cy="160.14043" fill="red" r="4.5"/>
<circle cx="654.3823" cy="150.7006" fill="red" r="4.5"/>
<circle cx="675.1697" cy="144.96037" fill="red" r="4.5"/>
<circle cx="658.48267" cy="165.44943" fill="red" r="4.5"/>
<circle cx="620.5187" cy="186.50027" fill="red" r="4.5"/>
<circle cx="599.61957" cy="174.43504" fill="red" r="4.5"/>
<circle cx="567.7" cy="165.62595" fill="red" r="4.5"/>
<circle cx="536.48016" cy="161.36626" fill="red" r="4.5"/>
<circle cx="376.14813" cy="164.89134" fill="red" r="4.5"/>
<circle cx="354.0269" cy="157.85713" fill="red" r="4.5"/>
<circle cx="288.6574" cy="234.29366" fill="red" r="4.5"/>
<circle cx="232.97871" cy="263.04092" fill="red" r="4.5"/>
<circle cx="405.2658" cy="234.24814" fill="red" r="4.5"/>
<circle cx="427.38904" cy="236.98166" fill="red" r="4.5"/>
<circle cx="449.61203" cy="234.63516" fill="red" r="4.5"/>
<circle cx="471.73523" cy="231.90161" fill="red" r="4.5"/>
<circle cx="494.23526" cy="231.90161" fill="red" r="4.5"/>
<circle cx="499.48776" cy="246.48715" fill="red" r="4.5"/>
<circle cx="495.96796" cy="261.3025" fill="red" r="4.5"/>
<circle cx="474.08966" cy="257.8008" fill="red" r="4.5"/>
<circle cx="454.58878" cy="250.18452" fill="red" r="4.5"/>
<circle cx="548.0685" cy="231.49896" fill="red" r="4.5"/>
<circle cx="570.44525" cy="229.93103" fill="red" r="4.5"/>
<circle cx="589.62964" cy="222.09354" fill="red" r="4.5"/>
<circle cx="609.67725" cy="215.28368" fill="red" r="4.5"/>
<circle cx="618.28766" cy="229.14189" fill="red" r="4.5"/>
<circle cx="674.4494" cy="199.26277" fill="red" r="4.5"/>
<circle cx="697.5148" cy="139.0392" fill="red" r="4.5"/>
<circle cx="709.76917" cy="126.45914" fill="red" r="4.5"/>
<circle cx="708.00385" cy="111.50537" fill="red" r="4.5"/>
<circle cx="726.2067" cy="102.6886" fill="red" r="4.5"/>
<circle cx="740.81934" cy="91.28251" fill="red" r="4.5"/>
<circle cx="748.88257" cy="77.27881" fill="red" r="4.5"/>
<circle cx="756.39325" cy="63.13918" fill="red" r="4.5"/>
<circle cx="778.89325" cy="63.13918" fill="red" r="4.5"/>
<circle cx="799.2014" cy="56.681515" fill="red" r="4.5"/>
<circle cx="820.207" cy="62.057034" fill="red" r="4.5"/>
<circle cx="827.71765" cy="47.917408" fill="red" r="4.5"/>
<circle cx="810.9968" cy="37.880455" fill="red" r="4.5"/>
<circle cx="788.5046" cy="38.273106" fill="red" r="4.5"/>
<circle cx="768.4569" cy="31.46325" fill="red" r="4.5"/>
<circle cx="746.0263" cy="32.640133" fill="red" r="4.5"/>
<circle cx="723.64954" cy="31.072206" fill="red" r="4.5"/>
<circle cx="702.0761" cy="26.811977" fill="red" r="4.5"/>
<circle cx="681.07056" cy="21.436459" fill="red" r="4.5"/>
<circle cx="660.28326" cy="27.17671" fill="red" r="4.5"/>
<circle cx="637.78326" cy="27.17671" fill="red" r="4.5"/>
<circle cx="616.5738" cy="32.18381" fill="red" r="4.5"/>
<circle cx="594.1046" cy="31.398773" fill="red" r="4.5"/>
<circle cx="571.7971" cy="29.44088" fill="red" r="4.5"/>
<circle cx="551.2424" cy="35.54193" fill="red" r="4.5"/>
<circle cx="528.8117" cy="34.365044" fill="red" r="4.5"/>
<circle cx="508.7641" cy="41.1749" fill="red" r="4.5"/>
<circle cx="734.3856" cy="17.889952" fill="red" r="4.5"/>
<circle cx="848.2724" cy="41.816364" fill="red" r="4.5"/>
<circle cx="870.3956" cy="44.549892" fill="red" r="4.5"/>
<circle cx="858.14124" cy="57.12995" fill="red" r="4.5"/>
<circle cx="800.37897" cy="71.66096" fill="red" r="4.5"/>
<circle cx="786.6818" cy="83.56126" fill="red" r="4.5"/>
<circle cx="771.6264" cy="94.70843" fill="red" r="4.5"/>
<circle cx="751.03406" cy="104.647606" fill="red" r="4.5"/>
<circle cx="836.0644" cy="25.786865" fill="red" r="4.5"/>
<circle cx="555.22046" cy="18.95129" fill="red" r="4.5"/>
<circle cx="478.77136" cy="44.03546" fill="red" r="4.5"/>
<circle cx="457.03806" cy="47.917747" fill="red" r="4.5"/>
<circle cx="434.9148" cy="50.651283" fill="red" r="4.5"/>
<circle cx="414.36005" cy="56.752335" fill="red" r="4.5"/>
<circle cx="392.05252" cy="58.710224" fill="red" r="4.5"/>
<circle cx="373.18243" cy="50.54064" fill="red" r="4.5"/>
<circle cx="365.67178" cy="64.68026" fill="red" r="4.5"/>
<circle cx="400.11578" cy="44.70652" fill="red" r="4.5"/>
<circle cx="444.29388" cy="35.555855" fill="red" r="4.5"/>
<circle cx="187.29967" cy="157.59343" fill="red" r="4.5"/>
<circle cx="209.60718" cy="159.55133" fill="red" r="4.5"/>
<circle cx="201.87521" cy="269.14966" fill="red" r="4.5"/>
<circle cx="171.88104" cy="276.4077" fill="red" r="4.5"/>
<circle cx="172.33334" cy="296.94345" fill="red" r="4.5"/>
<circle cx="193.33891" cy="302.31897" fill="red" r="4.5"/>
<circle cx="211.18936" cy="311.45038" fill="red" r="4.5"/>
<circle cx="11.466893" cy="367.675" fill="red" r="4.5"/>
<circle cx="1.780394" cy="354.13623" fill="red" r="4.5"/>
<circle cx="0.60283494" cy="339.15677" fill="red" r="4.5"/>
<circle cx="59.82952" cy="331.049" fill="red" r="4.5"/>
<circle cx="1.1657246" cy="313.65488" fill="red" r="4.5"/>
</svg>