<?xml version="1.0" encoding="ISO-8859-1" standalone="no"?><svg xmlns="http://www.w3.org/2000/svg" xmlns:xlink="http://www.w3.org/1999/xlink" version="1.1"  >
<circle cx="567" cy="405" r="5" style="fill:rgb(0, 128, 0); stroke-width:1; stroke:black; "  />
<circle cx="570" cy="388" r="5" style="fill:rgb(0, 128, 0); stroke-width:1; stroke:black; "  />
<circle cx="567" cy="421" r="5" style="fill:rgb(0, 128, 0); stroke-width:1; stroke:black; "  />
<circle cx="566" cy="438" r="5" style="fill:rgb(0, 0, 255); stroke-width:1; stroke:black; "  />
<circle cx="566" cy="454" r="5" style="fill:rgb(0, 0, 255); stroke-width:1; stroke:black; "  />
<circle cx="584" cy="445" r="5" style="fill:rgb(0, 0, 255); stroke-width:1; stroke:black; "  />
<circle cx="579" cy="459" r="5" style="fill:rgb(0, 0, 255); stroke-width:1; stroke:black; "  />
<circle cx="600" cy="459" r="5" style="fill:rgb(0, 0, 255); stroke-width:1; stroke:black; "  />
<circle cx="615" cy="447" r="5" style="fill:rgb(0, 0, 255); stroke-width:1; stroke:black; "  />
<circle cx="622" cy="464" r="5" style="fill:rgb(0, 0, 255); stroke-width:1; stroke:black; "  />
<circle cx="628" cy="485" r="5" style="fill:rgb(0, 0, 255); stroke-width:1; stroke:black; "  />
<circle cx="645" cy="479" r="5" style="fill:rgb(0, 0, 255); stroke-width:1; stroke:black; "  />
<circle cx="655" cy="497" r="5" style="fill:rgb(0, 0, 255); stroke-width:1; stroke:black; "  />
<circle cx="668" cy="512" r="5" style="fill:rgb(0, 0, 255); stroke-width:1; stroke:black; "  />
<circle cx="681" cy="531" r="5" style="fill:rgb(0, 0, 255); stroke-width:1; stroke:black; "  />
<circle cx="683" cy="549" r="5" style="fill:rgb(0, 0, 255); stroke-width:1; stroke:black; "  />
<circle cx="681" cy="564" r="5" style="fill:rgb(128, 0, 128); stroke-width:1; stroke:black; "  />
<circle cx="676" cy="581" r="5" style="fill:rgb(128, 0, 128); stroke-width:1; stroke:black; "  />
<circle cx="662" cy="592" r="5" style="fill:rgb(128, 0, 128); stroke-width:1; stroke:black; "  />
<circle cx="647" cy="594" r="5" style="fill:rgb(128, 0, 128); stroke-width:1; stroke:black; "  />
<circle cx="630" cy="591" r="5" style="fill:rgb(128, 0, 128); stroke-width:1; stroke:black; "  />
<circle cx="613" cy="587" r="5" style="fill:rgb(128, 0, 128); stroke-width:1; stroke:black; "  />
<circle cx="601" cy="573" r="5" style="fill:rgb(128, 0, 128); stroke-width:1; stroke:black; "  />
<circle cx="590" cy="558" r="5" style="fill:rgb(128, 0, 128); stroke-width:1; stroke:black; "  />
<circle cx="584" cy="544" r="5" style="fill:rgb(128, 0, 128); stroke-width:1; stroke:black; "  />
<circle cx="579" cy="527" r="5" style="fill:rgb(0, 0, 255); stroke-width:1; stroke:black; "  />
<circle cx="597" cy="521" r="5" style="fill:rgb(0, 0, 255); stroke-width:1; stroke:black; "  />
<circle cx="599" cy="589" r="5" style="fill:rgb(128, 0, 128); stroke-width:1; stroke:black; "  />
<circle cx="607" cy="606" r="5" style="fill:rgb(128, 0, 128); stroke-width:1; stroke:black; "  />
<circle cx="624" cy="612" r="5" style="fill:rgb(128, 0, 128); stroke-width:1; stroke:black; "  />
<circle cx="614" cy="626" r="5" style="fill:rgb(128, 0, 128); stroke-width:1; stroke:black; "  />
<circle cx="632" cy="635" r="5" style="fill:rgb(128, 0, 128); stroke-width:1; stroke:black; "  />
<circle cx="625" cy="647" r="5" style="fill:rgb(128, 0, 128); stroke-width:1; stroke:black; "  />
<circle cx="644" cy="653" r="5" style="fill:rgb(128, 0, 128); stroke-width:1; stroke:black; "  />
<circle cx="639" cy="667" r="5" style="fill:rgb(128, 0, 128); stroke-width:1; stroke:black; "  />
<circle cx="658" cy="665" r="5" style="fill:rgb(128, 0, 128); stroke-width:1; stroke:black; "  />
<circle cx="663" cy="681" r="5" style="fill:rgb(128, 0, 128); stroke-width:1; stroke:black; "  />
<circle cx="682" cy="678" r="5" style="fill:rgb(128, 0, 128); stroke-width:1; stroke:black; "  />
<circle cx="688" cy="694" r="5" style="fill:rgb(128, 0, 128); stroke-width:1; stroke:black; "  />
<circle cx="705" cy="681" r="5" style="fill:rgb(128, 0, 128); stroke-width:1; stroke:black; "  />
<circle cx="711" cy="694" r="5" style="fill:rgb(128, 0, 128); stroke-width:1; stroke:black; "  />
<circle cx="722" cy="678" r="5" style="fill:rgb(128, 0, 128); stroke-width:1; stroke:black; "  />
<circle cx="740" cy="680" r="5" style="fill:rgb(128, 0, 128); stroke-width:1; stroke:black; "  />
<circle cx="740" cy="664" r="5" style="fill:rgb(128, 0, 128); stroke-width:1; stroke:black; "  />
<circle cx="754" cy="656" r="5" style="fill:rgb(128, 0, 128); stroke-width:1; stroke:black; "  />
<circle cx="756" cy="677" r="5" style="fill:rgb(128, 0, 128); stroke-width:1; stroke:black; "  />
<circle cx="769" cy="670" r="5" style="fill:rgb(128, 0, 128); stroke-width:1; stroke:black; "  />
<circle cx="788" cy="671" r="5" style="fill:rgb(128, 0, 128); stroke-width:1; stroke:black; "  />
<circle cx="779" cy="687" r="5" style="fill:rgb(128, 0, 128); stroke-width:1; stroke:black; "  />
<circle cx="801" cy="693" r="5" style="fill:rgb(128, 0, 128); stroke-width:1; stroke:black; "  />
<circle cx="807" cy="677" r="5" style="fill:rgb(128, 0, 128); stroke-width:1; stroke:black; "  />
<circle cx="816" cy="698" r="5" style="fill:rgb(0, 0, 0); stroke-width:1; stroke:black; "  />
<circle cx="822" cy="683" r="5" style="fill:rgb(128, 0, 128); stroke-width:1; stroke:black; "  />
<circle cx="839" cy="699" r="5" style="fill:rgb(0, 0, 0); stroke-width:1; stroke:black; "  />
<circle cx="839" cy="679" r="5" style="fill:rgb(128, 0, 128); stroke-width:1; stroke:black; "  />
<circle cx="856" cy="689" r="5" style="fill:rgb(128, 0, 128); stroke-width:1; stroke:black; "  />
<circle cx="857" cy="670" r="5" style="fill:rgb(128, 0, 128); stroke-width:1; stroke:black; "  />
<circle cx="847" cy="658" r="5" style="fill:rgb(128, 0, 128); stroke-width:1; stroke:black; "  />
<circle cx="859" cy="645" r="5" style="fill:rgb(128, 0, 128); stroke-width:1; stroke:black; "  />
<circle cx="846" cy="634" r="5" style="fill:rgb(128, 0, 128); stroke-width:1; stroke:black; "  />
<circle cx="855" cy="621" r="5" style="fill:rgb(128, 0, 128); stroke-width:1; stroke:black; "  />
<circle cx="841" cy="613" r="5" style="fill:rgb(128, 0, 128); stroke-width:1; stroke:black; "  />
<circle cx="849" cy="599" r="5" style="fill:rgb(128, 0, 128); stroke-width:1; stroke:black; "  />
<circle cx="835" cy="593" r="5" style="fill:rgb(0, 0, 255); stroke-width:1; stroke:black; "  />
<circle cx="843" cy="579" r="5" style="fill:rgb(0, 0, 255); stroke-width:1; stroke:black; "  />
<circle cx="830" cy="570" r="5" style="fill:rgb(0, 0, 255); stroke-width:1; stroke:black; "  />
<circle cx="835" cy="557" r="5" style="fill:rgb(0, 0, 255); stroke-width:1; stroke:black; "  />
<circle cx="821" cy="551" r="5" style="fill:rgb(0, 0, 255); stroke-width:1; stroke:black; "  />
<circle cx="834" cy="541" r="5" style="fill:rgb(0, 0, 255); stroke-width:1; stroke:black; "  />
<circle cx="818" cy="536" r="5" style="fill:rgb(0, 0, 255); stroke-width:1; stroke:black; "  />
<circle cx="803" cy="542" r="5" style="fill:rgb(0, 0, 255); stroke-width:1; stroke:black; "  />
<circle cx="787" cy="537" r="5" style="fill:rgb(0, 0, 255); stroke-width:1; stroke:black; "  />
<circle cx="773" cy="539" r="5" style="fill:rgb(0, 0, 255); stroke-width:1; stroke:black; "  />
<circle cx="758" cy="535" r="5" style="fill:rgb(0, 0, 255); stroke-width:1; stroke:black; "  />
<circle cx="746" cy="548" r="5" style="fill:rgb(0, 0, 255); stroke-width:1; stroke:black; "  />
<circle cx="741" cy="533" r="5" style="fill:rgb(0, 0, 255); stroke-width:1; stroke:black; "  />
<circle cx="722" cy="530" r="5" style="fill:rgb(0, 0, 255); stroke-width:1; stroke:black; "  />
<circle cx="738" cy="561" r="5" style="fill:rgb(0, 0, 255); stroke-width:1; stroke:black; "  />
<circle cx="734" cy="575" r="5" style="fill:rgb(64, 0, 191); stroke-width:1; stroke:black; "  />
<circle cx="728" cy="591" r="5" style="fill:rgb(128, 0, 128); stroke-width:1; stroke:black; "  />
<circle cx="728" cy="608" r="5" style="fill:rgb(128, 0, 128); stroke-width:1; stroke:black; "  />
<circle cx="734" cy="625" r="5" style="fill:rgb(128, 0, 128); stroke-width:1; stroke:black; "  />
<circle cx="742" cy="644" r="5" style="fill:rgb(128, 0, 128); stroke-width:1; stroke:black; "  />
<circle cx="711" cy="590" r="5" style="fill:rgb(128, 0, 128); stroke-width:1; stroke:black; "  />
<circle cx="705" cy="576" r="5" style="fill:rgb(128, 0, 128); stroke-width:1; stroke:black; "  />
<circle cx="699" cy="562" r="5" style="fill:rgb(0, 0, 255); stroke-width:1; stroke:black; "  />
<circle cx="631" cy="441" r="5" style="fill:rgb(0, 128, 0); stroke-width:1; stroke:black; "  />
<circle cx="649" cy="434" r="5" style="fill:rgb(0, 128, 0); stroke-width:1; stroke:black; "  />
<circle cx="667" cy="431" r="5" style="fill:rgb(0, 128, 0); stroke-width:1; stroke:black; "  />
<circle cx="688" cy="429" r="5" style="fill:rgb(0, 128, 0); stroke-width:1; stroke:black; "  />
<circle cx="707" cy="431" r="5" style="fill:rgb(0, 128, 0); stroke-width:1; stroke:black; "  />
<circle cx="728" cy="442" r="5" style="fill:rgb(0, 128, 0); stroke-width:1; stroke:black; "  />
<circle cx="742" cy="460" r="5" style="fill:rgb(0, 128, 0); stroke-width:1; stroke:black; "  />
<circle cx="751" cy="476" r="5" style="fill:rgb(0, 128, 0); stroke-width:1; stroke:black; "  />
<circle cx="752" cy="493" r="5" style="fill:rgb(0, 0, 255); stroke-width:1; stroke:black; "  />
<circle cx="753" cy="514" r="5" style="fill:rgb(0, 0, 255); stroke-width:1; stroke:black; "  />
<circle cx="762" cy="462" r="5" style="fill:rgb(0, 128, 0); stroke-width:1; stroke:black; "  />
<circle cx="779" cy="474" r="5" style="fill:rgb(0, 128, 0); stroke-width:1; stroke:black; "  />
<circle cx="793" cy="490" r="5" style="fill:rgb(0, 0, 255); stroke-width:1; stroke:black; "  />
<circle cx="806" cy="507" r="5" style="fill:rgb(0, 0, 255); stroke-width:1; stroke:black; "  />
<circle cx="818" cy="522" r="5" style="fill:rgb(0, 0, 255); stroke-width:1; stroke:black; "  />
<circle cx="838" cy="525" r="5" style="fill:rgb(0, 0, 255); stroke-width:1; stroke:black; "  />
<circle cx="854" cy="517" r="5" style="fill:rgb(0, 0, 255); stroke-width:1; stroke:black; "  />
<circle cx="854" cy="501" r="5" style="fill:rgb(0, 0, 255); stroke-width:1; stroke:black; "  />
<circle cx="863" cy="487" r="5" style="fill:rgb(0, 128, 0); stroke-width:1; stroke:black; "  />
<circle cx="855" cy="472" r="5" style="fill:rgb(0, 128, 0); stroke-width:1; stroke:black; "  />
<circle cx="857" cy="459" r="5" style="fill:rgb(0, 128, 0); stroke-width:1; stroke:black; "  />
<circle cx="846" cy="447" r="5" style="fill:rgb(0, 128, 0); stroke-width:1; stroke:black; "  />
<circle cx="843" cy="434" r="5" style="fill:rgb(0, 128, 0); stroke-width:1; stroke:black; "  />
<circle cx="849" cy="418" r="5" style="fill:rgb(0, 128, 0); stroke-width:1; stroke:black; "  />
<circle cx="848" cy="401" r="5" style="fill:rgb(0, 128, 0); stroke-width:1; stroke:black; "  />
<circle cx="852" cy="384" r="5" style="fill:rgb(255, 255, 0); stroke-width:1; stroke:black; "  />
<circle cx="840" cy="371" r="5" style="fill:rgb(255, 255, 0); stroke-width:1; stroke:black; "  />
<circle cx="837" cy="357" r="5" style="fill:rgb(255, 255, 0); stroke-width:1; stroke:black; "  />
<circle cx="820" cy="344" r="5" style="fill:rgb(255, 255, 0); stroke-width:1; stroke:black; "  />
<circle cx="810" cy="331" r="5" style="fill:rgb(255, 255, 0); stroke-width:1; stroke:black; "  />
<circle cx="797" cy="320" r="5" style="fill:rgb(255, 255, 0); stroke-width:1; stroke:black; "  />
<circle cx="746" cy="299" r="5" style="fill:rgb(255, 255, 0); stroke-width:1; stroke:black; "  />
<circle cx="728" cy="290" r="5" style="fill:rgb(255, 255, 0); stroke-width:1; stroke:black; "  />
<circle cx="715" cy="302" r="5" style="fill:rgb(255, 255, 0); stroke-width:1; stroke:black; "  />
<circle cx="703" cy="289" r="5" style="fill:rgb(255, 255, 0); stroke-width:1; stroke:black; "  />
<circle cx="692" cy="304" r="5" style="fill:rgb(255, 255, 0); stroke-width:1; stroke:black; "  />
<circle cx="681" cy="289" r="5" style="fill:rgb(255, 255, 0); stroke-width:1; stroke:black; "  />
<circle cx="675" cy="302" r="5" style="fill:rgb(255, 255, 0); stroke-width:1; stroke:black; "  />
<circle cx="664" cy="316" r="5" style="fill:rgb(255, 255, 0); stroke-width:1; stroke:black; "  />
<circle cx="647" cy="323" r="5" style="fill:rgb(255, 255, 0); stroke-width:1; stroke:black; "  />
<circle cx="641" cy="337" r="5" style="fill:rgb(255, 255, 0); stroke-width:1; stroke:black; "  />
<circle cx="626" cy="332" r="5" style="fill:rgb(255, 255, 0); stroke-width:1; stroke:black; "  />
<circle cx="588" cy="367" r="5" style="fill:rgb(0, 128, 0); stroke-width:1; stroke:black; "  />
<circle cx="584" cy="398" r="5" style="fill:rgb(0, 128, 0); stroke-width:1; stroke:black; "  />
<circle cx="601" cy="391" r="5" style="fill:rgb(0, 128, 0); stroke-width:1; stroke:black; "  />
<circle cx="667" cy="391" r="5" style="fill:rgb(0, 128, 0); stroke-width:1; stroke:black; "  />
<circle cx="683" cy="401" r="5" style="fill:rgb(0, 128, 0); stroke-width:1; stroke:black; "  />
<circle cx="701" cy="415" r="5" style="fill:rgb(0, 128, 0); stroke-width:1; stroke:black; "  />
<circle cx="639" cy="353" r="5" style="fill:rgb(0, 128, 0); stroke-width:1; stroke:black; "  />
<circle cx="665" cy="283" r="5" style="fill:rgb(255, 255, 0); stroke-width:1; stroke:black; "  />
<circle cx="649" cy="282" r="5" style="fill:rgb(255, 255, 0); stroke-width:1; stroke:black; "  />
<circle cx="634" cy="276" r="5" style="fill:rgb(255, 255, 0); stroke-width:1; stroke:black; "  />
<circle cx="677" cy="270" r="5" style="fill:rgb(255, 255, 0); stroke-width:1; stroke:black; "  />
<circle cx="696" cy="267" r="5" style="fill:rgb(255, 255, 0); stroke-width:1; stroke:black; "  />
<circle cx="679" cy="251" r="5" style="fill:rgb(255, 165, 0); stroke-width:1; stroke:black; "  />
<circle cx="676" cy="234" r="5" style="fill:rgb(255, 165, 0); stroke-width:1; stroke:black; "  />
<circle cx="670" cy="217" r="5" style="fill:rgb(255, 165, 0); stroke-width:1; stroke:black; "  />
<circle cx="658" cy="201" r="5" style="fill:rgb(255, 165, 0); stroke-width:1; stroke:black; "  />
<circle cx="642" cy="193" r="5" style="fill:rgb(255, 165, 0); stroke-width:1; stroke:black; "  />
<circle cx="623" cy="200" r="5" style="fill:rgb(255, 165, 0); stroke-width:1; stroke:black; "  />
<circle cx="606" cy="211" r="5" style="fill:rgb(255, 165, 0); stroke-width:1; stroke:black; "  />
<circle cx="608" cy="228" r="5" style="fill:rgb(255, 165, 0); stroke-width:1; stroke:black; "  />
<circle cx="594" cy="239" r="5" style="fill:rgb(255, 255, 0); stroke-width:1; stroke:black; "  />
<circle cx="595" cy="256" r="5" style="fill:rgb(255, 255, 0); stroke-width:1; stroke:black; "  />
<circle cx="582" cy="270" r="5" style="fill:rgb(255, 255, 0); stroke-width:1; stroke:black; "  />
<circle cx="585" cy="286" r="5" style="fill:rgb(255, 255, 0); stroke-width:1; stroke:black; "  />
<circle cx="575" cy="303" r="5" style="fill:rgb(255, 255, 0); stroke-width:1; stroke:black; "  />
<circle cx="573" cy="320" r="5" style="fill:rgb(255, 255, 0); stroke-width:1; stroke:black; "  />
<circle cx="568" cy="337" r="5" style="fill:rgb(0, 128, 0); stroke-width:1; stroke:black; "  />
<circle cx="566" cy="355" r="5" style="fill:rgb(0, 128, 0); stroke-width:1; stroke:black; "  />
<circle cx="622" cy="181" r="5" style="fill:rgb(255, 165, 0); stroke-width:1; stroke:black; "  />
<circle cx="640" cy="175" r="5" style="fill:rgb(255, 165, 0); stroke-width:1; stroke:black; "  />
<circle cx="633" cy="161" r="5" style="fill:rgb(255, 165, 0); stroke-width:1; stroke:black; "  />
<circle cx="655" cy="155" r="5" style="fill:rgb(255, 165, 0); stroke-width:1; stroke:black; "  />
<circle cx="644" cy="141" r="5" style="fill:rgb(255, 0, 0); stroke-width:1; stroke:black; "  />
<circle cx="662" cy="139" r="5" style="fill:rgb(255, 0, 0); stroke-width:1; stroke:black; "  />
<circle cx="679" cy="142" r="5" style="fill:rgb(255, 0, 0); stroke-width:1; stroke:black; "  />
<circle cx="680" cy="127" r="5" style="fill:rgb(255, 0, 0); stroke-width:1; stroke:black; "  />
<circle cx="658" cy="121" r="5" style="fill:rgb(255, 0, 0); stroke-width:1; stroke:black; "  />
<circle cx="675" cy="108" r="5" style="fill:rgb(255, 0, 0); stroke-width:1; stroke:black; "  />
<circle cx="694" cy="114" r="5" style="fill:rgb(255, 0, 0); stroke-width:1; stroke:black; "  />
<circle cx="689" cy="89" r="5" style="fill:rgb(255, 0, 0); stroke-width:1; stroke:black; "  />
<circle cx="706" cy="93" r="5" style="fill:rgb(255, 0, 0); stroke-width:1; stroke:black; "  />
<circle cx="706" cy="73" r="5" style="fill:rgb(255, 0, 0); stroke-width:1; stroke:black; "  />
<circle cx="724" cy="78" r="5" style="fill:rgb(255, 0, 0); stroke-width:1; stroke:black; "  />
<circle cx="728" cy="55" r="5" style="fill:rgb(255, 0, 0); stroke-width:1; stroke:black; "  />
<circle cx="748" cy="63" r="5" style="fill:rgb(255, 0, 0); stroke-width:1; stroke:black; "  />
<circle cx="749" cy="45" r="5" style="fill:rgb(255, 0, 0); stroke-width:1; stroke:black; "  />
<circle cx="765" cy="31" r="5" style="fill:rgb(255, 0, 0); stroke-width:1; stroke:black; "  />
<circle cx="771" cy="48" r="5" style="fill:rgb(255, 0, 0); stroke-width:1; stroke:black; "  />
<circle cx="784" cy="22" r="5" style="fill:rgb(255, 0, 0); stroke-width:1; stroke:black; "  />
<circle cx="792" cy="40" r="5" style="fill:rgb(255, 0, 0); stroke-width:1; stroke:black; "  />
<circle cx="800" cy="13" r="5" style="fill:rgb(255, 0, 0); stroke-width:1; stroke:black; "  />
<circle cx="810" cy="32" r="5" style="fill:rgb(255, 0, 0); stroke-width:1; stroke:black; "  />
<circle cx="822" cy="9" r="5" style="fill:rgb(255, 0, 0); stroke-width:1; stroke:black; "  />
<circle cx="828" cy="25" r="5" style="fill:rgb(255, 0, 0); stroke-width:1; stroke:black; "  />
<circle cx="846" cy="22" r="5" style="fill:rgb(255, 0, 0); stroke-width:1; stroke:black; "  />
<circle cx="842" cy="5" r="5" style="fill:rgb(255, 0, 0); stroke-width:1; stroke:black; "  />
<circle cx="857" cy="0" r="5" style="fill:rgb(0, 0, 0); stroke-width:1; stroke:black; "  />
<circle cx="864" cy="17" r="5" style="fill:rgb(255, 0, 0); stroke-width:1; stroke:black; "  />
<circle cx="872" cy="1" r="5" style="fill:rgb(255, 0, 0); stroke-width:1; stroke:black; "  />
<circle cx="985" cy="43" r="5" style="fill:rgb(255, 0, 0); stroke-width:1; stroke:black; "  />
<circle cx="987" cy="19" r="5" style="fill:rgb(255, 0, 0); stroke-width:1; stroke:black; "  />
<circle cx="973" cy="54" r="5" style="fill:rgb(255, 0, 0); stroke-width:1; stroke:black; "  />
<circle cx="999" cy="47" r="5" style="fill:rgb(0, 0, 0); stroke-width:1; stroke:black; "  />
<circle cx="997" cy="61" r="5" style="fill:rgb(255, 0, 0); stroke-width:1; stroke:black; "  />
<circle cx="989" cy="75" r="5" style="fill:rgb(255, 0, 0); stroke-width:1; stroke:black; "  />
<circle cx="972" cy="68" r="5" style="fill:rgb(255, 0, 0); stroke-width:1; stroke:black; "  />
<circle cx="959" cy="69" r="5" style="fill:rgb(255, 0, 0); stroke-width:1; stroke:black; "  />
<circle cx="970" cy="84" r="5" style="fill:rgb(255, 0, 0); stroke-width:1; stroke:black; "  />
<circle cx="944" cy="77" r="5" style="fill:rgb(255, 0, 0); stroke-width:1; stroke:black; "  />
<circle cx="940" cy="91" r="5" style="fill:rgb(255, 0, 0); stroke-width:1; stroke:black; "  />
<circle cx="935" cy="104" r="5" style="fill:rgb(255, 0, 0); stroke-width:1; stroke:black; "  />
<circle cx="955" cy="97" r="5" style="fill:rgb(255, 0, 0); stroke-width:1; stroke:black; "  />
<circle cx="957" cy="111" r="5" style="fill:rgb(255, 0, 0); stroke-width:1; stroke:black; "  />
<circle cx="958" cy="125" r="5" style="fill:rgb(255, 0, 0); stroke-width:1; stroke:black; "  />
<circle cx="928" cy="120" r="5" style="fill:rgb(255, 0, 0); stroke-width:1; stroke:black; "  />
<circle cx="923" cy="135" r="5" style="fill:rgb(255, 0, 0); stroke-width:1; stroke:black; "  />
<circle cx="941" cy="132" r="5" style="fill:rgb(255, 0, 0); stroke-width:1; stroke:black; "  />
<circle cx="955" cy="140" r="5" style="fill:rgb(255, 0, 0); stroke-width:1; stroke:black; "  />
<circle cx="942" cy="150" r="5" style="fill:rgb(255, 0, 0); stroke-width:1; stroke:black; "  />
<circle cx="921" cy="153" r="5" style="fill:rgb(255, 0, 0); stroke-width:1; stroke:black; "  />
<circle cx="915" cy="164" r="5" style="fill:rgb(255, 0, 0); stroke-width:1; stroke:black; "  />
<circle cx="923" cy="175" r="5" style="fill:rgb(255, 0, 0); stroke-width:1; stroke:black; "  />
<circle cx="920" cy="192" r="5" style="fill:rgb(255, 0, 0); stroke-width:1; stroke:black; "  />
<circle cx="898" cy="179" r="5" style="fill:rgb(255, 0, 0); stroke-width:1; stroke:black; "  />
<circle cx="898" cy="191" r="5" style="fill:rgb(255, 0, 0); stroke-width:1; stroke:black; "  />
<circle cx="906" cy="201" r="5" style="fill:rgb(255, 165, 0); stroke-width:1; stroke:black; "  />
<circle cx="882" cy="188" r="5" style="fill:rgb(255, 0, 0); stroke-width:1; stroke:black; "  />
<circle cx="893" cy="204" r="5" style="fill:rgb(255, 165, 0); stroke-width:1; stroke:black; "  />
<circle cx="880" cy="212" r="5" style="fill:rgb(255, 165, 0); stroke-width:1; stroke:black; "  />
<circle cx="867" cy="204" r="5" style="fill:rgb(255, 165, 0); stroke-width:1; stroke:black; "  />
<circle cx="864" cy="191" r="5" style="fill:rgb(255, 0, 0); stroke-width:1; stroke:black; "  />
<circle cx="848" cy="187" r="5" style="fill:rgb(255, 0, 0); stroke-width:1; stroke:black; "  />
<circle cx="833" cy="183" r="5" style="fill:rgb(255, 0, 0); stroke-width:1; stroke:black; "  />
<circle cx="818" cy="181" r="5" style="fill:rgb(255, 0, 0); stroke-width:1; stroke:black; "  />
<circle cx="804" cy="179" r="5" style="fill:rgb(255, 0, 0); stroke-width:1; stroke:black; "  />
<circle cx="790" cy="182" r="5" style="fill:rgb(255, 0, 0); stroke-width:1; stroke:black; "  />
<circle cx="775" cy="183" r="5" style="fill:rgb(255, 0, 0); stroke-width:1; stroke:black; "  />
<circle cx="762" cy="185" r="5" style="fill:rgb(255, 165, 0); stroke-width:1; stroke:black; "  />
<circle cx="745" cy="186" r="5" style="fill:rgb(255, 165, 0); stroke-width:1; stroke:black; "  />
<circle cx="730" cy="170" r="5" style="fill:rgb(255, 0, 0); stroke-width:1; stroke:black; "  />
<circle cx="728" cy="158" r="5" style="fill:rgb(255, 0, 0); stroke-width:1; stroke:black; "  />
<circle cx="711" cy="150" r="5" style="fill:rgb(255, 0, 0); stroke-width:1; stroke:black; "  />
<circle cx="700" cy="136" r="5" style="fill:rgb(255, 0, 0); stroke-width:1; stroke:black; "  />
<circle cx="728" cy="191" r="5" style="fill:rgb(255, 165, 0); stroke-width:1; stroke:black; "  />
<circle cx="724" cy="209" r="5" style="fill:rgb(255, 165, 0); stroke-width:1; stroke:black; "  />
<circle cx="718" cy="227" r="5" style="fill:rgb(255, 165, 0); stroke-width:1; stroke:black; "  />
<circle cx="708" cy="248" r="5" style="fill:rgb(255, 165, 0); stroke-width:1; stroke:black; "  />
<circle cx="759" cy="289" r="5" style="fill:rgb(255, 255, 0); stroke-width:1; stroke:black; "  />
<circle cx="769" cy="307" r="5" style="fill:rgb(255, 255, 0); stroke-width:1; stroke:black; "  />
<circle cx="777" cy="289" r="5" style="fill:rgb(255, 255, 0); stroke-width:1; stroke:black; "  />
<circle cx="785" cy="308" r="5" style="fill:rgb(255, 255, 0); stroke-width:1; stroke:black; "  />
<circle cx="795" cy="288" r="5" style="fill:rgb(255, 165, 0); stroke-width:1; stroke:black; "  />
<circle cx="812" cy="301" r="5" style="fill:rgb(255, 255, 0); stroke-width:1; stroke:black; "  />
<circle cx="819" cy="287" r="5" style="fill:rgb(255, 165, 0); stroke-width:1; stroke:black; "  />
<circle cx="833" cy="300" r="5" style="fill:rgb(255, 255, 0); stroke-width:1; stroke:black; "  />
<circle cx="838" cy="285" r="5" style="fill:rgb(255, 165, 0); stroke-width:1; stroke:black; "  />
<circle cx="848" cy="297" r="5" style="fill:rgb(255, 210, 0); stroke-width:1; stroke:black; "  />
<circle cx="867" cy="282" r="5" style="fill:rgb(255, 165, 0); stroke-width:1; stroke:black; "  />
<circle cx="853" cy="282" r="5" style="fill:rgb(255, 165, 0); stroke-width:1; stroke:black; "  />
<circle cx="869" cy="268" r="5" style="fill:rgb(255, 165, 0); stroke-width:1; stroke:black; "  />
<circle cx="879" cy="279" r="5" style="fill:rgb(255, 165, 0); stroke-width:1; stroke:black; "  />
<circle cx="886" cy="268" r="5" style="fill:rgb(255, 165, 0); stroke-width:1; stroke:black; "  />
<circle cx="888" cy="256" r="5" style="fill:rgb(255, 165, 0); stroke-width:1; stroke:black; "  />
<circle cx="876" cy="255" r="5" style="fill:rgb(255, 165, 0); stroke-width:1; stroke:black; "  />
<circle cx="877" cy="242" r="5" style="fill:rgb(255, 165, 0); stroke-width:1; stroke:black; "  />
<circle cx="890" cy="241" r="5" style="fill:rgb(255, 165, 0); stroke-width:1; stroke:black; "  />
<circle cx="888" cy="229" r="5" style="fill:rgb(255, 165, 0); stroke-width:1; stroke:black; "  />
<circle cx="876" cy="226" r="5" style="fill:rgb(255, 165, 0); stroke-width:1; stroke:black; "  />
<circle cx="431" cy="405" r="5" style="fill:rgb(0, 0, 255); stroke-width:1; stroke:black; "  />
<circle cx="428" cy="388" r="5" style="fill:rgb(0, 0, 0); stroke-width:1; stroke:black; "  />
<circle cx="431" cy="421" r="5" style="fill:rgb(0, 0, 255); stroke-width:1; stroke:black; "  />
<circle cx="432" cy="438" r="5" style="fill:rgb(0, 0, 255); stroke-width:1; stroke:black; "  />
<circle cx="432" cy="454" r="5" style="fill:rgb(0, 0, 255); stroke-width:1; stroke:black; "  />
<circle cx="414" cy="445" r="5" style="fill:rgb(0, 0, 255); stroke-width:1; stroke:black; "  />
<circle cx="419" cy="459" r="5" style="fill:rgb(0, 0, 255); stroke-width:1; stroke:black; "  />
<circle cx="398" cy="459" r="5" style="fill:rgb(0, 0, 255); stroke-width:1; stroke:black; "  />
<circle cx="383" cy="447" r="5" style="fill:rgb(0, 0, 223); stroke-width:1; stroke:black; "  />
<circle cx="376" cy="464" r="5" style="fill:rgb(0, 0, 255); stroke-width:1; stroke:black; "  />
<circle cx="370" cy="485" r="5" style="fill:rgb(0, 0, 255); stroke-width:1; stroke:black; "  />
<circle cx="353" cy="479" r="5" style="fill:rgb(0, 0, 0); stroke-width:1; stroke:black; "  />
<circle cx="343" cy="497" r="5" style="fill:rgb(0, 0, 0); stroke-width:1; stroke:black; "  />
<circle cx="330" cy="512" r="5" style="fill:rgb(0, 0, 0); stroke-width:1; stroke:black; "  />
<circle cx="317" cy="531" r="5" style="fill:rgb(0, 0, 0); stroke-width:1; stroke:black; "  />
<circle cx="315" cy="549" r="5" style="fill:rgb(128, 0, 128); stroke-width:1; stroke:black; "  />
<circle cx="317" cy="564" r="5" style="fill:rgb(128, 0, 128); stroke-width:1; stroke:black; "  />
<circle cx="322" cy="581" r="5" style="fill:rgb(128, 0, 128); stroke-width:1; stroke:black; "  />
<circle cx="336" cy="592" r="5" style="fill:rgb(128, 0, 128); stroke-width:1; stroke:black; "  />
<circle cx="351" cy="594" r="5" style="fill:rgb(128, 0, 128); stroke-width:1; stroke:black; "  />
<circle cx="368" cy="591" r="5" style="fill:rgb(128, 0, 128); stroke-width:1; stroke:black; "  />
<circle cx="385" cy="587" r="5" style="fill:rgb(128, 0, 128); stroke-width:1; stroke:black; "  />
<circle cx="397" cy="573" r="5" style="fill:rgb(128, 0, 128); stroke-width:1; stroke:black; "  />
<circle cx="408" cy="558" r="5" style="fill:rgb(128, 0, 128); stroke-width:1; stroke:black; "  />
<circle cx="414" cy="544" r="5" style="fill:rgb(128, 0, 128); stroke-width:1; stroke:black; "  />
<circle cx="419" cy="527" r="5" style="fill:rgb(128, 0, 128); stroke-width:1; stroke:black; "  />
<circle cx="401" cy="521" r="5" style="fill:rgb(128, 0, 128); stroke-width:1; stroke:black; "  />
<circle cx="399" cy="589" r="5" style="fill:rgb(128, 0, 128); stroke-width:1; stroke:black; "  />
<circle cx="391" cy="606" r="5" style="fill:rgb(128, 0, 128); stroke-width:1; stroke:black; "  />
<circle cx="374" cy="612" r="5" style="fill:rgb(128, 0, 128); stroke-width:1; stroke:black; "  />
<circle cx="384" cy="626" r="5" style="fill:rgb(128, 0, 128); stroke-width:1; stroke:black; "  />
<circle cx="366" cy="635" r="5" style="fill:rgb(128, 0, 128); stroke-width:1; stroke:black; "  />
<circle cx="373" cy="647" r="5" style="fill:rgb(128, 0, 128); stroke-width:1; stroke:black; "  />
<circle cx="354" cy="653" r="5" style="fill:rgb(128, 0, 128); stroke-width:1; stroke:black; "  />
<circle cx="359" cy="667" r="5" style="fill:rgb(128, 0, 128); stroke-width:1; stroke:black; "  />
<circle cx="340" cy="665" r="5" style="fill:rgb(128, 0, 128); stroke-width:1; stroke:black; "  />
<circle cx="335" cy="681" r="5" style="fill:rgb(128, 0, 128); stroke-width:1; stroke:black; "  />
<circle cx="319" cy="679" r="5" style="fill:rgb(128, 0, 128); stroke-width:1; stroke:black; "  />
<circle cx="310" cy="694" r="5" style="fill:rgb(128, 0, 128); stroke-width:1; stroke:black; "  />
<circle cx="293" cy="681" r="5" style="fill:rgb(128, 0, 128); stroke-width:1; stroke:black; "  />
<circle cx="287" cy="694" r="5" style="fill:rgb(128, 0, 128); stroke-width:1; stroke:black; "  />
<circle cx="276" cy="678" r="5" style="fill:rgb(128, 0, 128); stroke-width:1; stroke:black; "  />
<circle cx="258" cy="680" r="5" style="fill:rgb(0, 0, 0); stroke-width:1; stroke:black; "  />
<circle cx="258" cy="664" r="5" style="fill:rgb(0, 0, 0); stroke-width:1; stroke:black; "  />
<circle cx="244" cy="656" r="5" style="fill:rgb(0, 0, 0); stroke-width:1; stroke:black; "  />
<circle cx="242" cy="677" r="5" style="fill:rgb(0, 0, 0); stroke-width:1; stroke:black; "  />
<circle cx="229" cy="670" r="5" style="fill:rgb(0, 0, 0); stroke-width:1; stroke:black; "  />
<circle cx="210" cy="671" r="5" style="fill:rgb(0, 0, 0); stroke-width:1; stroke:black; "  />
<circle cx="219" cy="687" r="5" style="fill:rgb(0, 0, 0); stroke-width:1; stroke:black; "  />
<circle cx="197" cy="693" r="5" style="fill:rgb(0, 0, 0); stroke-width:1; stroke:black; "  />
<circle cx="191" cy="677" r="5" style="fill:rgb(0, 0, 0); stroke-width:1; stroke:black; "  />
<circle cx="182" cy="698" r="5" style="fill:rgb(0, 0, 0); stroke-width:1; stroke:black; "  />
<circle cx="176" cy="683" r="5" style="fill:rgb(0, 0, 0); stroke-width:1; stroke:black; "  />
<circle cx="159" cy="699" r="5" style="fill:rgb(0, 0, 0); stroke-width:1; stroke:black; "  />
<circle cx="159" cy="679" r="5" style="fill:rgb(160, 82, 45); stroke-width:1; stroke:black; "  />
<circle cx="142" cy="689" r="5" style="fill:rgb(160, 82, 45); stroke-width:1; stroke:black; "  />
<circle cx="141" cy="670" r="5" style="fill:rgb(160, 82, 45); stroke-width:1; stroke:black; "  />
<circle cx="151" cy="658" r="5" style="fill:rgb(160, 82, 45); stroke-width:1; stroke:black; "  />
<circle cx="139" cy="645" r="5" style="fill:rgb(160, 82, 45); stroke-width:1; stroke:black; "  />
<circle cx="152" cy="634" r="5" style="fill:rgb(160, 82, 45); stroke-width:1; stroke:black; "  />
<circle cx="143" cy="621" r="5" style="fill:rgb(160, 82, 45); stroke-width:1; stroke:black; "  />
<circle cx="157" cy="613" r="5" style="fill:rgb(160, 82, 45); stroke-width:1; stroke:black; "  />
<circle cx="149" cy="599" r="5" style="fill:rgb(160, 82, 45); stroke-width:1; stroke:black; "  />
<circle cx="163" cy="593" r="5" style="fill:rgb(160, 82, 45); stroke-width:1; stroke:black; "  />
<circle cx="155" cy="579" r="5" style="fill:rgb(160, 82, 45); stroke-width:1; stroke:black; "  />
<circle cx="168" cy="570" r="5" style="fill:rgb(160, 82, 45); stroke-width:1; stroke:black; "  />
<circle cx="163" cy="557" r="5" style="fill:rgb(160, 82, 45); stroke-width:1; stroke:black; "  />
<circle cx="177" cy="551" r="5" style="fill:rgb(160, 82, 45); stroke-width:1; stroke:black; "  />
<circle cx="164" cy="541" r="5" style="fill:rgb(160, 82, 45); stroke-width:1; stroke:black; "  />
<circle cx="180" cy="536" r="5" style="fill:rgb(160, 82, 45); stroke-width:1; stroke:black; "  />
<circle cx="195" cy="542" r="5" style="fill:rgb(160, 82, 45); stroke-width:1; stroke:black; "  />
<circle cx="211" cy="537" r="5" style="fill:rgb(160, 82, 45); stroke-width:1; stroke:black; "  />
<circle cx="225" cy="539" r="5" style="fill:rgb(160, 82, 45); stroke-width:1; stroke:black; "  />
<circle cx="240" cy="535" r="5" style="fill:rgb(160, 82, 45); stroke-width:1; stroke:black; "  />
<circle cx="252" cy="548" r="5" style="fill:rgb(160, 82, 45); stroke-width:1; stroke:black; "  />
<circle cx="257" cy="533" r="5" style="fill:rgb(160, 82, 45); stroke-width:1; stroke:black; "  />
<circle cx="276" cy="530" r="5" style="fill:rgb(160, 82, 45); stroke-width:1; stroke:black; "  />
<circle cx="260" cy="561" r="5" style="fill:rgb(160, 82, 45); stroke-width:1; stroke:black; "  />
<circle cx="264" cy="575" r="5" style="fill:rgb(0, 0, 0); stroke-width:1; stroke:black; "  />
<circle cx="270" cy="591" r="5" style="fill:rgb(8, 0, 8); stroke-width:1; stroke:black; "  />
<circle cx="270" cy="608" r="5" style="fill:rgb(128, 0, 128); stroke-width:1; stroke:black; "  />
<circle cx="264" cy="625" r="5" style="fill:rgb(44, 0, 44); stroke-width:1; stroke:black; "  />
<circle cx="256" cy="644" r="5" style="fill:rgb(0, 0, 0); stroke-width:1; stroke:black; "  />
<circle cx="287" cy="590" r="5" style="fill:rgb(128, 0, 128); stroke-width:1; stroke:black; "  />
<circle cx="293" cy="576" r="5" style="fill:rgb(128, 0, 128); stroke-width:1; stroke:black; "  />
<circle cx="299" cy="562" r="5" style="fill:rgb(128, 0, 128); stroke-width:1; stroke:black; "  />
<circle cx="367" cy="441" r="5" style="fill:rgb(20, 10, 6); stroke-width:1; stroke:black; "  />
<circle cx="349" cy="434" r="5" style="fill:rgb(160, 82, 45); stroke-width:1; stroke:black; "  />
<circle cx="331" cy="431" r="5" style="fill:rgb(160, 82, 45); stroke-width:1; stroke:black; "  />
<circle cx="310" cy="429" r="5" style="fill:rgb(160, 82, 45); stroke-width:1; stroke:black; "  />
<circle cx="291" cy="431" r="5" style="fill:rgb(160, 82, 45); stroke-width:1; stroke:black; "  />
<circle cx="270" cy="442" r="5" style="fill:rgb(160, 82, 45); stroke-width:1; stroke:black; "  />
<circle cx="256" cy="460" r="5" style="fill:rgb(160, 82, 45); stroke-width:1; stroke:black; "  />
<circle cx="247" cy="476" r="5" style="fill:rgb(160, 82, 45); stroke-width:1; stroke:black; "  />
<circle cx="246" cy="493" r="5" style="fill:rgb(160, 82, 45); stroke-width:1; stroke:black; "  />
<circle cx="245" cy="514" r="5" style="fill:rgb(160, 82, 45); stroke-width:1; stroke:black; "  />
<circle cx="236" cy="462" r="5" style="fill:rgb(160, 82, 45); stroke-width:1; stroke:black; "  />
<circle cx="219" cy="474" r="5" style="fill:rgb(160, 82, 45); stroke-width:1; stroke:black; "  />
<circle cx="205" cy="490" r="5" style="fill:rgb(160, 82, 45); stroke-width:1; stroke:black; "  />
<circle cx="192" cy="507" r="5" style="fill:rgb(160, 82, 45); stroke-width:1; stroke:black; "  />
<circle cx="180" cy="522" r="5" style="fill:rgb(160, 82, 45); stroke-width:1; stroke:black; "  />
<circle cx="160" cy="525" r="5" style="fill:rgb(160, 82, 45); stroke-width:1; stroke:black; "  />
<circle cx="144" cy="517" r="5" style="fill:rgb(135, 206, 235); stroke-width:1; stroke:black; "  />
<circle cx="144" cy="501" r="5" style="fill:rgb(135, 206, 235); stroke-width:1; stroke:black; "  />
<circle cx="135" cy="487" r="5" style="fill:rgb(135, 206, 235); stroke-width:1; stroke:black; "  />
<circle cx="143" cy="472" r="5" style="fill:rgb(135, 206, 235); stroke-width:1; stroke:black; "  />
<circle cx="141" cy="459" r="5" style="fill:rgb(135, 206, 235); stroke-width:1; stroke:black; "  />
<circle cx="152" cy="447" r="5" style="fill:rgb(135, 206, 235); stroke-width:1; stroke:black; "  />
<circle cx="155" cy="434" r="5" style="fill:rgb(135, 206, 235); stroke-width:1; stroke:black; "  />
<circle cx="150" cy="420" r="5" style="fill:rgb(135, 206, 235); stroke-width:1; stroke:black; "  />
<circle cx="149" cy="406" r="5" style="fill:rgb(255, 192, 203); stroke-width:1; stroke:black; "  />
<circle cx="148" cy="390" r="5" style="fill:rgb(255, 192, 203); stroke-width:1; stroke:black; "  />
<circle cx="154" cy="378" r="5" style="fill:rgb(255, 192, 203); stroke-width:1; stroke:black; "  />
<circle cx="159" cy="365" r="5" style="fill:rgb(255, 192, 203); stroke-width:1; stroke:black; "  />
<circle cx="171" cy="351" r="5" style="fill:rgb(255, 192, 203); stroke-width:1; stroke:black; "  />
<circle cx="177" cy="339" r="5" style="fill:rgb(255, 192, 203); stroke-width:1; stroke:black; "  />
<circle cx="190" cy="329" r="5" style="fill:rgb(255, 192, 203); stroke-width:1; stroke:black; "  />
<circle cx="252" cy="299" r="5" style="fill:rgb(135, 206, 235); stroke-width:1; stroke:black; "  />
<circle cx="270" cy="290" r="5" style="fill:rgb(135, 206, 235); stroke-width:1; stroke:black; "  />
<circle cx="283" cy="302" r="5" style="fill:rgb(135, 206, 235); stroke-width:1; stroke:black; "  />
<circle cx="295" cy="289" r="5" style="fill:rgb(160, 82, 45); stroke-width:1; stroke:black; "  />
<circle cx="306" cy="304" r="5" style="fill:rgb(160, 82, 45); stroke-width:1; stroke:black; "  />
<circle cx="317" cy="289" r="5" style="fill:rgb(160, 82, 45); stroke-width:1; stroke:black; "  />
<circle cx="323" cy="302" r="5" style="fill:rgb(160, 82, 45); stroke-width:1; stroke:black; "  />
<circle cx="334" cy="316" r="5" style="fill:rgb(160, 82, 45); stroke-width:1; stroke:black; "  />
<circle cx="351" cy="323" r="5" style="fill:rgb(160, 82, 45); stroke-width:1; stroke:black; "  />
<circle cx="357" cy="337" r="5" style="fill:rgb(160, 82, 45); stroke-width:1; stroke:black; "  />
<circle cx="372" cy="332" r="5" style="fill:rgb(160, 82, 45); stroke-width:1; stroke:black; "  />
<circle cx="410" cy="367" r="5" style="fill:rgb(0, 0, 0); stroke-width:1; stroke:black; "  />
<circle cx="414" cy="398" r="5" style="fill:rgb(0, 0, 0); stroke-width:1; stroke:black; "  />
<circle cx="397" cy="391" r="5" style="fill:rgb(160, 82, 45); stroke-width:1; stroke:black; "  />
<circle cx="331" cy="391" r="5" style="fill:rgb(20, 10, 6); stroke-width:1; stroke:black; "  />
<circle cx="315" cy="401" r="5" style="fill:rgb(160, 82, 45); stroke-width:1; stroke:black; "  />
<circle cx="297" cy="415" r="5" style="fill:rgb(160, 82, 45); stroke-width:1; stroke:black; "  />
<circle cx="358" cy="355" r="5" style="fill:rgb(160, 82, 45); stroke-width:1; stroke:black; "  />
<circle cx="333" cy="283" r="5" style="fill:rgb(160, 82, 45); stroke-width:1; stroke:black; "  />
<circle cx="349" cy="282" r="5" style="fill:rgb(160, 82, 45); stroke-width:1; stroke:black; "  />
<circle cx="364" cy="276" r="5" style="fill:rgb(160, 82, 45); stroke-width:1; stroke:black; "  />
<circle cx="321" cy="270" r="5" style="fill:rgb(160, 82, 45); stroke-width:1; stroke:black; "  />
<circle cx="302" cy="267" r="5" style="fill:rgb(160, 82, 45); stroke-width:1; stroke:black; "  />
<circle cx="319" cy="251" r="5" style="fill:rgb(160, 82, 45); stroke-width:1; stroke:black; "  />
<circle cx="322" cy="234" r="5" style="fill:rgb(160, 82, 45); stroke-width:1; stroke:black; "  />
<circle cx="328" cy="217" r="5" style="fill:rgb(160, 82, 45); stroke-width:1; stroke:black; "  />
<circle cx="340" cy="201" r="5" style="fill:rgb(0, 0, 0); stroke-width:1; stroke:black; "  />
<circle cx="356" cy="193" r="5" style="fill:rgb(255, 165, 0); stroke-width:1; stroke:black; "  />
<circle cx="375" cy="200" r="5" style="fill:rgb(247, 160, 0); stroke-width:1; stroke:black; "  />
<circle cx="392" cy="211" r="5" style="fill:rgb(255, 165, 0); stroke-width:1; stroke:black; "  />
<circle cx="390" cy="228" r="5" style="fill:rgb(255, 165, 0); stroke-width:1; stroke:black; "  />
<circle cx="404" cy="239" r="5" style="fill:rgb(255, 165, 0); stroke-width:1; stroke:black; "  />
<circle cx="403" cy="256" r="5" style="fill:rgb(247, 160, 0); stroke-width:1; stroke:black; "  />
<circle cx="416" cy="270" r="5" style="fill:rgb(143, 93, 0); stroke-width:1; stroke:black; "  />
<circle cx="413" cy="286" r="5" style="fill:rgb(255, 165, 0); stroke-width:1; stroke:black; "  />
<circle cx="423" cy="303" r="5" style="fill:rgb(88, 88, 0); stroke-width:1; stroke:black; "  />
<circle cx="425" cy="320" r="5" style="fill:rgb(0, 0, 0); stroke-width:1; stroke:black; "  />
<circle cx="430" cy="337" r="5" style="fill:rgb(0, 0, 0); stroke-width:1; stroke:black; "  />
<circle cx="432" cy="355" r="5" style="fill:rgb(0, 0, 0); stroke-width:1; stroke:black; "  />
<circle cx="376" cy="181" r="5" style="fill:rgb(255, 165, 0); stroke-width:1; stroke:black; "  />
<circle cx="358" cy="175" r="5" style="fill:rgb(255, 165, 0); stroke-width:1; stroke:black; "  />
<circle cx="365" cy="161" r="5" style="fill:rgb(191, 124, 0); stroke-width:1; stroke:black; "  />
<circle cx="343" cy="155" r="5" style="fill:rgb(247, 160, 0); stroke-width:1; stroke:black; "  />
<circle cx="354" cy="141" r="5" style="fill:rgb(255, 165, 0); stroke-width:1; stroke:black; "  />
<circle cx="336" cy="139" r="5" style="fill:rgb(255, 0, 0); stroke-width:1; stroke:black; "  />
<circle cx="319" cy="142" r="5" style="fill:rgb(255, 0, 0); stroke-width:1; stroke:black; "  />
<circle cx="318" cy="127" r="5" style="fill:rgb(255, 0, 0); stroke-width:1; stroke:black; "  />
<circle cx="340" cy="121" r="5" style="fill:rgb(255, 0, 0); stroke-width:1; stroke:black; "  />
<circle cx="323" cy="108" r="5" style="fill:rgb(255, 0, 0); stroke-width:1; stroke:black; "  />
<circle cx="304" cy="114" r="5" style="fill:rgb(255, 0, 0); stroke-width:1; stroke:black; "  />
<circle cx="309" cy="89" r="5" style="fill:rgb(255, 0, 0); stroke-width:1; stroke:black; "  />
<circle cx="292" cy="93" r="5" style="fill:rgb(255, 0, 0); stroke-width:1; stroke:black; "  />
<circle cx="292" cy="73" r="5" style="fill:rgb(255, 0, 0); stroke-width:1; stroke:black; "  />
<circle cx="274" cy="78" r="5" style="fill:rgb(255, 0, 0); stroke-width:1; stroke:black; "  />
<circle cx="270" cy="55" r="5" style="fill:rgb(223, 0, 0); stroke-width:1; stroke:black; "  />
<circle cx="250" cy="63" r="5" style="fill:rgb(0, 0, 0); stroke-width:1; stroke:black; "  />
<circle cx="249" cy="45" r="5" style="fill:rgb(0, 0, 0); stroke-width:1; stroke:black; "  />
<circle cx="233" cy="31" r="5" style="fill:rgb(0, 0, 0); stroke-width:1; stroke:black; "  />
<circle cx="227" cy="48" r="5" style="fill:rgb(0, 0, 0); stroke-width:1; stroke:black; "  />
<circle cx="214" cy="22" r="5" style="fill:rgb(0, 0, 0); stroke-width:1; stroke:black; "  />
<circle cx="206" cy="40" r="5" style="fill:rgb(0, 0, 0); stroke-width:1; stroke:black; "  />
<circle cx="198" cy="13" r="5" style="fill:rgb(0, 0, 0); stroke-width:1; stroke:black; "  />
<circle cx="188" cy="32" r="5" style="fill:rgb(0, 0, 0); stroke-width:1; stroke:black; "  />
<circle cx="176" cy="9" r="5" style="fill:rgb(0, 0, 0); stroke-width:1; stroke:black; "  />
<circle cx="170" cy="25" r="5" style="fill:rgb(20, 10, 6); stroke-width:1; stroke:black; "  />
<circle cx="152" cy="22" r="5" style="fill:rgb(160, 82, 45); stroke-width:1; stroke:black; "  />
<circle cx="156" cy="5" r="5" style="fill:rgb(160, 82, 45); stroke-width:1; stroke:black; "  />
<circle cx="141" cy="4" r="5" style="fill:rgb(160, 82, 45); stroke-width:1; stroke:black; "  />
<circle cx="134" cy="17" r="5" style="fill:rgb(160, 82, 45); stroke-width:1; stroke:black; "  />
<circle cx="126" cy="1" r="5" style="fill:rgb(160, 82, 45); stroke-width:1; stroke:black; "  />
<circle cx="19" cy="35" r="5" style="fill:rgb(135, 206, 235); stroke-width:1; stroke:black; "  />
<circle cx="11" cy="19" r="5" style="fill:rgb(135, 206, 235); stroke-width:1; stroke:black; "  />
<circle cx="17" cy="52" r="5" style="fill:rgb(135, 206, 235); stroke-width:1; stroke:black; "  />
<circle cx="0" cy="47" r="5" style="fill:rgb(0, 0, 0); stroke-width:1; stroke:black; "  />
<circle cx="1" cy="61" r="5" style="fill:rgb(135, 206, 235); stroke-width:1; stroke:black; "  />
<circle cx="9" cy="75" r="5" style="fill:rgb(135, 206, 235); stroke-width:1; stroke:black; "  />
<circle cx="26" cy="68" r="5" style="fill:rgb(135, 206, 235); stroke-width:1; stroke:black; "  />
<circle cx="39" cy="69" r="5" style="fill:rgb(135, 206, 235); stroke-width:1; stroke:black; "  />
<circle cx="28" cy="84" r="5" style="fill:rgb(135, 206, 235); stroke-width:1; stroke:black; "  />
<circle cx="54" cy="77" r="5" style="fill:rgb(135, 206, 235); stroke-width:1; stroke:black; "  />
<circle cx="58" cy="91" r="5" style="fill:rgb(135, 206, 235); stroke-width:1; stroke:black; "  />
<circle cx="63" cy="104" r="5" style="fill:rgb(135, 206, 235); stroke-width:1; stroke:black; "  />
<circle cx="43" cy="97" r="5" style="fill:rgb(135, 206, 235); stroke-width:1; stroke:black; "  />
<circle cx="41" cy="111" r="5" style="fill:rgb(135, 206, 235); stroke-width:1; stroke:black; "  />
<circle cx="40" cy="125" r="5" style="fill:rgb(135, 206, 235); stroke-width:1; stroke:black; "  />
<circle cx="62" cy="119" r="5" style="fill:rgb(135, 206, 235); stroke-width:1; stroke:black; "  />
<circle cx="77" cy="125" r="5" style="fill:rgb(135, 206, 235); stroke-width:1; stroke:black; "  />
<circle cx="57" cy="132" r="5" style="fill:rgb(135, 206, 235); stroke-width:1; stroke:black; "  />
<circle cx="43" cy="140" r="5" style="fill:rgb(135, 206, 235); stroke-width:1; stroke:black; "  />
<circle cx="56" cy="150" r="5" style="fill:rgb(135, 206, 235); stroke-width:1; stroke:black; "  />
<circle cx="76" cy="146" r="5" style="fill:rgb(135, 206, 235); stroke-width:1; stroke:black; "  />
<circle cx="83" cy="164" r="5" style="fill:rgb(135, 206, 235); stroke-width:1; stroke:black; "  />
<circle cx="75" cy="175" r="5" style="fill:rgb(135, 206, 235); stroke-width:1; stroke:black; "  />
<circle cx="78" cy="192" r="5" style="fill:rgb(135, 206, 235); stroke-width:1; stroke:black; "  />
<circle cx="91" cy="179" r="5" style="fill:rgb(135, 206, 235); stroke-width:1; stroke:black; "  />
<circle cx="100" cy="191" r="5" style="fill:rgb(135, 206, 235); stroke-width:1; stroke:black; "  />
<circle cx="92" cy="201" r="5" style="fill:rgb(135, 206, 235); stroke-width:1; stroke:black; "  />
<circle cx="116" cy="188" r="5" style="fill:rgb(135, 206, 235); stroke-width:1; stroke:black; "  />
<circle cx="105" cy="204" r="5" style="fill:rgb(135, 206, 235); stroke-width:1; stroke:black; "  />
<circle cx="118" cy="212" r="5" style="fill:rgb(135, 206, 235); stroke-width:1; stroke:black; "  />
<circle cx="131" cy="204" r="5" style="fill:rgb(135, 206, 235); stroke-width:1; stroke:black; "  />
<circle cx="134" cy="191" r="5" style="fill:rgb(135, 206, 235); stroke-width:1; stroke:black; "  />
<circle cx="150" cy="187" r="5" style="fill:rgb(135, 206, 235); stroke-width:1; stroke:black; "  />
<circle cx="165" cy="183" r="5" style="fill:rgb(135, 206, 235); stroke-width:1; stroke:black; "  />
<circle cx="180" cy="181" r="5" style="fill:rgb(160, 82, 45); stroke-width:1; stroke:black; "  />
<circle cx="194" cy="179" r="5" style="fill:rgb(160, 82, 45); stroke-width:1; stroke:black; "  />
<circle cx="208" cy="182" r="5" style="fill:rgb(160, 82, 45); stroke-width:1; stroke:black; "  />
<circle cx="223" cy="183" r="5" style="fill:rgb(160, 82, 45); stroke-width:1; stroke:black; "  />
<circle cx="236" cy="185" r="5" style="fill:rgb(160, 82, 45); stroke-width:1; stroke:black; "  />
<circle cx="253" cy="186" r="5" style="fill:rgb(160, 82, 45); stroke-width:1; stroke:black; "  />
<circle cx="268" cy="170" r="5" style="fill:rgb(160, 82, 45); stroke-width:1; stroke:black; "  />
<circle cx="270" cy="158" r="5" style="fill:rgb(160, 82, 45); stroke-width:1; stroke:black; "  />
<circle cx="287" cy="150" r="5" style="fill:rgb(0, 0, 0); stroke-width:1; stroke:black; "  />
<circle cx="298" cy="136" r="5" style="fill:rgb(255, 0, 0); stroke-width:1; stroke:black; "  />
<circle cx="270" cy="191" r="5" style="fill:rgb(160, 82, 45); stroke-width:1; stroke:black; "  />
<circle cx="274" cy="209" r="5" style="fill:rgb(160, 82, 45); stroke-width:1; stroke:black; "  />
<circle cx="280" cy="227" r="5" style="fill:rgb(160, 82, 45); stroke-width:1; stroke:black; "  />
<circle cx="290" cy="248" r="5" style="fill:rgb(160, 82, 45); stroke-width:1; stroke:black; "  />
<circle cx="239" cy="289" r="5" style="fill:rgb(135, 206, 235); stroke-width:1; stroke:black; "  />
<circle cx="229" cy="307" r="5" style="fill:rgb(135, 206, 235); stroke-width:1; stroke:black; "  />
<circle cx="221" cy="289" r="5" style="fill:rgb(135, 206, 235); stroke-width:1; stroke:black; "  />
<circle cx="205" cy="316" r="5" style="fill:rgb(135, 206, 235); stroke-width:1; stroke:black; "  />
<circle cx="206" cy="301" r="5" style="fill:rgb(135, 206, 235); stroke-width:1; stroke:black; "  />
<circle cx="199" cy="288" r="5" style="fill:rgb(135, 206, 235); stroke-width:1; stroke:black; "  />
<circle cx="188" cy="300" r="5" style="fill:rgb(135, 206, 235); stroke-width:1; stroke:black; "  />
<circle cx="180" cy="286" r="5" style="fill:rgb(135, 206, 235); stroke-width:1; stroke:black; "  />
<circle cx="169" cy="298" r="5" style="fill:rgb(135, 206, 235); stroke-width:1; stroke:black; "  />
<circle cx="161" cy="285" r="5" style="fill:rgb(135, 206, 235); stroke-width:1; stroke:black; "  />
<circle cx="144" cy="282" r="5" style="fill:rgb(255, 192, 203); stroke-width:1; stroke:black; "  />
<circle cx="152" cy="297" r="5" style="fill:rgb(255, 192, 203); stroke-width:1; stroke:black; "  />
<circle cx="134" cy="269" r="5" style="fill:rgb(135, 206, 235); stroke-width:1; stroke:black; "  />
<circle cx="121" cy="284" r="5" style="fill:rgb(255, 192, 203); stroke-width:1; stroke:black; "  />
<circle cx="112" cy="272" r="5" style="fill:rgb(255, 192, 203); stroke-width:1; stroke:black; "  />
<circle cx="107" cy="257" r="5" style="fill:rgb(255, 192, 203); stroke-width:1; stroke:black; "  />
<circle cx="120" cy="258" r="5" style="fill:rgb(135, 206, 235); stroke-width:1; stroke:black; "  />
<circle cx="121" cy="242" r="5" style="fill:rgb(135, 206, 235); stroke-width:1; stroke:black; "  />
<circle cx="108" cy="241" r="5" style="fill:rgb(135, 206, 235); stroke-width:1; stroke:black; "  />
<circle cx="110" cy="229" r="5" style="fill:rgb(135, 206, 235); stroke-width:1; stroke:black; "  />
<circle cx="123" cy="223" r="5" style="fill:rgb(135, 206, 235); stroke-width:1; stroke:black; "  />
</svg>
