<?xml version="1.0" encoding="UTF-8" standalone="no"?>
<svg
   width="147.77112mm"
   height="204.25597mm"
   viewBox="0 0 147.77112 204.25596"
   version="1.1"
   id="svg1096"
   sodipodi:docname="portWingShape-simplified.svg"
   inkscape:version="1.2.1 (9c6d41e410, 2022-07-14, custom)"
   xmlns:inkscape="http://www.inkscape.org/namespaces/inkscape"
   xmlns:sodipodi="http://sodipodi.sourceforge.net/DTD/sodipodi-0.dtd"
   xmlns="http://www.w3.org/2000/svg"
   xmlns:svg="http://www.w3.org/2000/svg">
  <sodipodi:namedview
     id="namedview21"
     pagecolor="#ffffff"
     bordercolor="#666666"
     borderopacity="1.0"
     inkscape:showpageshadow="2"
     inkscape:pageopacity="0.0"
     inkscape:pagecheckerboard="0"
     inkscape:deskcolor="#d1d1d1"
     inkscape:document-units="mm"
     showgrid="false"
     inkscape:zoom="1.7293175"
     inkscape:cx="312.84019"
     inkscape:cy="312.26193"
     inkscape:window-width="1716"
     inkscape:window-height="1393"
     inkscape:window-x="1080"
     inkscape:window-y="262"
     inkscape:window-maximized="1"
     inkscape:current-layer="PCB_Sketch_1785" />
  <defs
     id="defs1100" />
  <g
     id="PCB_Sketch_1785"
     transform="rotate(180,158.36107,0.40745893)">
    <g
       id="g328">
      <path
         id="PCB_Sketch_1785_w0000"
         d="m 260.24897,-147.87101 c 3.81486,3.57424 4.09824,9.25858 2.188,13.87852 -0.4031,2.65995 -2.62348,4.39548 -3.78787,6.56163 0.73126,3.07363 2.5765,5.93117 1.90962,9.27504 0.44721,4.96603 -1.25545,9.93164 -5.1302,13.17548 -4.2753,4.11434 -7.70574,9.486428 -13.57431,11.419013 -5.55974,2.576624 -11.55804,4.587696 -17.79823,3.816435 -7.0273,-0.34189 -14.35556,-0.954944 -20.42263,-4.85778 -5.10248,-0.454436 -6.43604,-7.556458 -2.98985,-10.778278 2.46624,-2.23051 5.10389,-4.39573 7.6191,-6.50842 5.04611,-2.17753 10.29452,-4.66072 13.57244,-9.31339 5.33919,-5.8731 14.11316,-6.01258 19.92748,-11.28443 4.84131,-3.1504 8.70994,-7.54231 11.67772,-12.402 1.84962,-1.69302 4.02118,-5.94198 6.80857,-2.98215"
         stroke="#000000"
         stroke-width="0.35 px"
         style="fill:none;fill-opacity:1;fill-rule:evenodd;stroke-width:0.35;stroke-linecap:square;stroke-miterlimit:4;stroke-dasharray:none" />
      <path
         id="PCB_Sketch_1785_w0001"
         d="m 257.8846,-203.13714 c -10.46954,-0.27992 -20.81816,7.82923 -30.77572,4.80002 -10.96119,-6.72512 -24.62752,-1.9736 -33.87701,5.48144 -7.27194,6.82574 -10.00368,16.90192 -15.47717,25.03627 -0.19384,10.01947 -9.6542,17.11574 -8.60017,26.96735 0.22341,14.92249 -0.68891,29.96458 0.70678,44.808344 1.65831,10.666724 5.84162,20.552514 9.81738,30.463554 3.43776,8.928401 9.11077,16.919239 14.58025,24.731902 17.74392,22.615925 44.60772,38.9359018 73.50503,41.29385755 14.31166,0.19977635 29.66153,1.27254465 42.80301,-5.37762585 6.62604,-3.6225711 7.37696,-12.6519667 3.73838,-18.5905137 -3.24263,-6.406643 -16.24224,-1.274818 -11.21415,-10.692498 3.00918,-8.669051 -4.5204,-13.833944 -12.24417,-13.800209 3.67093,-8.508828 -3.01846,-14.807722 -11.12323,-15.088478 -0.85374,-6.199927 3.18204,-14.228701 -2.54795,-19.818501 -7.5709,-7.209507 -19.04175,-6.590756 -28.78153,-7.095965 8.74752,-5.832318 20.23937,-13.427957 19.62034,-25.315277 -3.60751,-8.67298 1.04125,-15.34387 3.39998,-23.68723 2.90317,-8.92405 -6.63192,-14.65173 -9.24998,-20.42914 5.11001,-12.22622 10.59502,-25.77172 6.84319,-39.13365 -1.80404,-4.20478 -7.09836,-4.98475 -11.12411,-4.55444"
         stroke="#000000"
         stroke-width="0.35 px"
         style="fill:none;fill-opacity:1;fill-rule:evenodd;stroke-width:0.35;stroke-linecap:square;stroke-miterlimit:4;stroke-dasharray:none" />
      <path
         id="PCB_Sketch_1785_w0002"
         d="m 177.66878,-104.26917 c 4.17204,3.59727 8.23858,7.460851 12.65808,10.783319 4.09026,1.882336 8.37265,3.687022 12.12152,6.123491 1.23646,1.999288 -1.27097,2.94303 -2.87437,2.647821 -3.60195,0.280471 -9.22632,0.726927 -10.12902,5.016315 -0.0386,1.995082 2.09578,4.486807 4.12726,2.998795 3.47183,-1.413842 9.21531,-3.558668 11.51703,0.693034 1.36256,5.926233 -0.86863,13.119738 -6.81715,15.686646 -2.10306,1.222945 -5.15831,1.287637 -6.18187,-1.367482 -8.5144,-13.041829 -14.95406,-27.64775 -18.12435,-42.917519 0.17002,-1.40941 3.29428,-0.86922 3.70212,0.33412"
         stroke="#000000"
         stroke-width="0.35 px"
         style="fill:none;fill-opacity:1;fill-rule:evenodd;stroke-width:0.35;stroke-linecap:square;stroke-miterlimit:4;stroke-dasharray:none" />
      <path
         id="PCB_Sketch_1785_w0003"
         d="m 215.3728,-72.425099 c 3.53737,3.780438 4.21984,9.207282 6.08389,13.860113 0.65832,4.414412 0.2845,9.823121 -4.19191,12.16803 -6.08744,4.125597 -14.34593,-0.04866 -17.93654,-5.530374 0.4615,-2.80856 4.49153,-2.409668 6.13666,-4.286192 5.10618,-3.176962 4.55735,-9.849393 6.27567,-14.903167 0.4317,-1.825969 2.27506,-3.442295 3.6315,-1.308465"
         stroke="#000000"
         stroke-width="0.35 px"
         style="fill:none;fill-opacity:1;fill-rule:evenodd;stroke-width:0.35;stroke-linecap:square;stroke-miterlimit:4;stroke-dasharray:none" />
      <path
         id="PCB_Sketch_1785_w0004"
         d="m 230.65015,-81.957738 c 5.74893,0.01018 11.37898,0.786046 17.09376,1.195356 7.26516,0.23172 15.83827,0.165532 20.8271,6.436478 4.51856,4.428441 0.88819,11.277439 -3.52851,14.225127 -1.70454,1.107406 -3.84795,3.035084 -5.87644,2.783321 -1.32845,-0.236993 -3.08411,1.410679 -4.67017,1.161756 -5.74745,1.151491 -11.26747,-0.932447 -16.96421,-1.278462 -3.22118,-0.991118 -6.83435,-0.26274 -9.88388,-1.621966 -3.70386,-4.542351 -3.2277,-11.417746 -7.69403,-15.594984 -1.38242,-1.766709 -2.29822,-3.847103 -3.11317,-5.83 -0.15638,-3.093356 3.95875,-1.751633 5.75903,-1.930106 2.68529,0.125068 5.36819,0.29475 8.05161,0.453763"
         stroke="#000000"
         stroke-width="0.35 px"
         style="fill:none;fill-opacity:1;fill-rule:evenodd;stroke-width:0.35;stroke-linecap:square;stroke-miterlimit:4;stroke-dasharray:none" />
      <path
         id="PCB_Sketch_1785_w0005"
         d="m 223.1128,-164.31285 c 1.78407,1.1985 1.78167,3.96747 2.95945,5.68705 -3.90016,1.47199 -9.12771,5.26411 -7.11457,9.95273 2.78066,0.1207 5.05396,-2.05151 7.53238,-2.65597 1.46648,0.63667 4.32748,0.36468 3.97679,2.77639 -0.0837,3.4488 -0.37245,7.02157 -1.32533,10.27781 -2.44575,3.76467 -5.25651,8.00237 -9.49688,9.84037 -4.89048,1.50094 -10.04541,2.9537 -15.12583,1.43934 -3.20472,-0.45217 -8.03698,-0.17414 -9.68436,-3.59112 -0.94401,-2.81534 3.29491,-3.86553 4.71911,-5.53265 4.023,-2.90902 6.36133,-7.4877 9.91709,-10.91805 3.50723,-3.75446 4.94819,-8.87595 8.45064,-12.68007 1.82337,-1.22267 1.89871,-4.78625 4.3499,-4.88689 0.28924,0.0708 0.5723,0.16835 0.8431,0.2923"
         stroke="#000000"
         stroke-width="0.35 px"
         style="fill:none;fill-opacity:1;fill-rule:evenodd;stroke-width:0.35;stroke-linecap:square;stroke-miterlimit:4;stroke-dasharray:none" />
      <path
         id="PCB_Sketch_1785_w0006"
         d="m 271.37472,-53.860093 c 2.17326,1.603301 4.54404,2.798344 7.15273,3.365741 3.15717,2.000239 6.40471,4.737661 6.12624,8.895702 0.72375,2.431098 -2.03193,5.219235 -0.50984,7.365259 2.90209,0.80731 4.36583,3.873963 5.8343,6.025094 -0.41356,2.941873 0.28899,6.46103 3.68917,7.208078 2.19496,1.372028 6.36593,1.326667 7.10334,4.313716 -1.10505,4.69854 -7.13691,4.60717 -10.91649,5.392509 -15.16059,2.4833685 -30.63285,-0.532727 -45.09449,-5.119332 -9.82976,-3.783307 -19.37054,-8.966871 -27.06128,-16.206364 -0.90985,-2.856337 0.0165,-6.156803 3.15586,-7.05361 2.794,-0.890481 4.96516,-3.572279 6.37742,-6.042075 1.45498,-2.257069 1.35711,-5.863426 4.41234,-6.721561 2.97798,-0.48569 5.80048,1.270964 8.85453,1.042452 6.91913,0.562734 14.22757,2.323544 20.89353,-0.443746 2.68916,-0.149034 4.99262,-1.363589 7.34895,-2.435891 0.89236,-0.152268 1.82757,0.0024 2.63211,0.413975"
         stroke="#000000"
         stroke-width="0.35 px"
         style="fill:none;fill-opacity:1;fill-rule:evenodd;stroke-width:0.35;stroke-linecap:square;stroke-miterlimit:4;stroke-dasharray:none" />
      <path
         id="PCB_Sketch_1785_w0007"
         d="m 214.28383,-167.46097 c -1.64992,1.54047 -3.73066,-0.61747 -3.79096,-2.41258 -2.33499,-5.31862 -9.09132,-3.23747 -13.60784,-4.05041 -1.86871,0.30104 -3.20808,-1.23039 -3.24932,-2.79841 4.08777,-7.25999 10.28032,-14.37521 18.61499,-16.54242 3.72305,-0.64176 7.39813,-0.10821 10.46769,2.18955 2.06866,0.91723 3.89646,2.94425 1.87832,5.00758 -3.13233,6.36603 -6.51759,12.61458 -10.31284,18.60676"
         stroke="#000000"
         stroke-width="0.35 px"
         style="fill:none;fill-opacity:1;fill-rule:evenodd;stroke-width:0.35;stroke-linecap:square;stroke-miterlimit:4;stroke-dasharray:none" />
      <path
         id="PCB_Sketch_1785_w0008"
         d="m 179.70342,-112.0523 c 4.09081,0.73702 7.77975,3.17858 12.01541,3.4337 3.06711,1.41006 0.36676,5.02932 0.10428,7.292 0.14423,0.59727 0.61634,1.10003 0.66698,1.720076"
         stroke="#000000"
         stroke-width="0.35 px"
         style="fill:none;fill-opacity:1;fill-rule:evenodd;stroke-width:0.35;stroke-linecap:square;stroke-miterlimit:4;stroke-dasharray:none" />
      <path
         id="PCB_Sketch_1785_w0009"
         d="m 203.74591,-166.60667 c 2.83718,0.96253 1.34472,4.86371 2.28955,7.0623 2.40555,4.46818 -1.34478,8.62541 -4.20416,11.74519 -1.95832,2.57927 -5.59371,5.6641 -8.52558,2.57054 -1.68314,-2.19644 -1.65749,-5.59132 -4.85208,-6.65846 -2.20822,-1.29845 -7.52685,-0.51838 -6.80878,-4.25883 1.93377,-3.69345 3.91128,-7.86357 7.19466,-10.44984 4.95442,-0.39532 9.95894,-0.66271 14.90604,-0.0105"
         stroke="#000000"
         stroke-width="0.35 px"
         style="fill:none;fill-opacity:1;fill-rule:evenodd;stroke-width:0.35;stroke-linecap:square;stroke-miterlimit:4;stroke-dasharray:none" />
      <path
         id="PCB_Sketch_1785_w0010"
         d="m 235.8945,-137.88141 c 1.05945,-4.42644 0.27568,-9.19093 0.34978,-13.55367 4.87121,1.29928 9.99176,0.22734 14.48557,-1.89245 0.79565,0.91079 -1.68507,2.40303 -1.98913,3.31399 -3.83428,4.46766 -7.75039,9.05617 -12.81468,12.15943"
         stroke="#000000"
         stroke-width="0.35 px"
         style="fill:none;fill-opacity:1;fill-rule:evenodd;stroke-width:0.35;stroke-linecap:square;stroke-miterlimit:4;stroke-dasharray:none" />
      <path
         id="PCB_Sketch_1785_w0011"
         d="m 259.35052,-191.64195 c 1.82374,2.05663 0.28484,5.65492 0.78854,8.31675 -0.22103,4.54188 -3.61048,8.3636 -3.89664,12.97268 -1.33766,4.99155 -3.00721,11.82676 -9.07555,12.67606 -5.45173,1.46605 -11.35935,-0.32899 -15.08261,-4.57271 -5.11209,-4.01465 -5.79088,-11.75396 -2.38072,-17.10725 2.74339,-5.23674 7.77171,-9.43409 13.73771,-10.17273 4.60269,-1.91991 9.771,-2.69407 14.74813,-2.7005 0.44336,0.0569 0.83582,0.29133 1.16184,0.58727"
         stroke="#000000"
         stroke-width="0.35 px"
         style="fill:none;fill-opacity:1;fill-rule:evenodd;stroke-width:0.35;stroke-linecap:square;stroke-miterlimit:4;stroke-dasharray:none" />
      <path
         id="PCB_Sketch_1785_w0012"
         d="m 192.47949,-99.589772 c -5.08402,-2.661168 -9.49826,-6.643168 -14.17696,-9.973358 -0.36573,-0.92387 -0.69939,-1.8993 -1.24199,-2.69279 0.74049,-0.28226 1.82975,0.39488 2.64557,0.20442"
         stroke="#000000"
         stroke-width="0.35 px"
         style="fill:none;fill-opacity:1;fill-rule:evenodd;stroke-width:0.35;stroke-linecap:square;stroke-miterlimit:4;stroke-dasharray:none" />
      <path
         id="PCB_Sketch_1785_w0013"
         d="m 190.13456,-125.71426 c 6.78067,3.15118 14.1673,4.31422 21.57274,4.68114 1.66676,0.62353 -3.22833,2.45803 -4.53717,3.50419 -3.56612,2.42343 -7.37312,4.99567 -11.94318,4.35484 -6.34485,0.0436 -13.54943,-1.45204 -17.32825,-7.07528 -1.51302,-1.41389 -1.7649,-3.70625 -3.55187,-4.85779 3.81694,-0.2897 7.51222,-1.28357 11.24675,-1.968 1.60616,0.0364 3.08225,0.76663 4.54098,1.36097"
         stroke="#000000"
         stroke-width="0.35 px"
         style="fill:none;fill-opacity:1;fill-rule:evenodd;stroke-width:0.35;stroke-linecap:square;stroke-miterlimit:4;stroke-dasharray:none" />
      <path
         id="PCB_Sketch_1785_w0014"
         d="m 172.54832,-135.40069 c 5.53241,0 11.06482,0 16.59723,0 0.0331,-3.76221 0.0663,-7.52441 0.0994,-11.28662 -5.92995,0 -11.8599,0 -17.78985,0 0,3.76221 0,7.52441 0,11.28662 0.36441,0 0.72883,0 1.09324,0"
         stroke="#000000"
         stroke-width="0.35 px"
         style="fill:none;fill-opacity:1;fill-rule:evenodd;stroke-width:0.459783;stroke-linecap:square;stroke-miterlimit:4;stroke-dasharray:none" />
    </g>
    <title
       id="title1093">b'PCB_Sketch_1785'</title>
  </g>
</svg>
