<?xml version="1.0" encoding="UTF-8" standalone="no"?>
<svg
   width="147.77112mm"
   height="204.25597mm"
   viewBox="0 0 147.77112 204.25596"
   version="1.1"
   id="svg1096"
   xmlns="http://www.w3.org/2000/svg"
   xmlns:svg="http://www.w3.org/2000/svg">
  <defs
     id="defs1100" />
  <g
     id="PCB_Sketch_1785"
     transform="rotate(180,158.36107,0.40745893)">
    <path
       id="PCB_Sketch_1785_w0000"
       d="m 260.24897,-147.87101 0.11719,0.1114 0.12477,0.12897 0.13124,0.14497 0.13661,0.15944 0.14085,0.17234 0.14401,0.1837 0.14604,0.19352 0.14696,0.20178 0.14678,0.20849 0.14549,0.21365 0.14309,0.21727 0.13958,0.21933 0.13495,0.21985 0.12923,0.21882 0.12239,0.21623 0.11444,0.2121 0.25788,0.51294 0.22725,0.50122 0.19689,0.49315 0.16675,0.48873 0.13687,0.48798 0.10722,0.49089 0.0778,0.49743 0.0487,0.50765 0.0197,0.52152 -0.009,0.53904 -0.0374,0.56022 -0.0655,0.58505 -0.0935,0.61355 -0.12118,0.64569 -0.14863,0.68149 -0.17585,0.72096 -0.37507,1.38253 -0.18855,0.62662 -0.19086,0.58684 -0.1944,0.54953 -0.19916,0.51472 -0.20514,0.48239 -0.21236,0.45254 -0.2208,0.42517 -0.23047,0.4003 -0.24136,0.3779 -0.25348,0.35799 -0.26682,0.34057 -0.28139,0.32562 -0.29718,0.31317 -0.31421,0.30319 -0.16864,0.1621 -0.0756,0.0783 -0.0697,0.0771 -0.0638,0.0763 -0.0578,0.0762 -0.0519,0.0765 -0.0458,0.0772 -0.0398,0.0785 -0.0337,0.0803 -0.0276,0.0826 -0.0215,0.0854 -0.0154,0.0887 -0.009,0.0925 -0.003,0.0968 0.003,0.10154 0.01,0.10681 0.0159,0.11259 0.0223,0.11886 0.0286,0.12564 0.035,0.1329 0.0415,0.14067 0.0479,0.14894 0.0544,0.1577 0.061,0.16696 0.0675,0.17672 0.15487,0.38472 0.18147,0.42973 0.20833,0.47873 0.32487,0.74772 0.13154,0.31926 0.11283,0.29519 0.0956,0.28038 0.0797,0.27482 0.0652,0.27852 0.0522,0.29147 0.0406,0.31367 0.0304,0.34512 0.0217,0.38584 0.0143,0.43581 0.008,0.49502 0.004,0.56349 -9e-5,1.36942 -0.0291,1.84287 -0.0357,0.82649 -0.0514,0.76973 -0.0682,0.71785 -0.0862,0.67089 -0.10532,0.6288 -0.12561,0.59162 -0.14708,0.55934 -0.1697,0.53195 -0.19348,0.50945 -0.21842,0.49186 -0.24452,0.47915 -0.27178,0.47134 -0.3002,0.46843 -0.32978,0.47042 -0.36004,0.45682 -0.53945,0.63398 -0.69249,0.78242 -0.81919,0.90212 -0.91951,0.99308 -0.99347,1.05531 -1.04106,1.08879 -1.0623,1.09355 -5.15943,5.267148 -3.83,1.858963 -1.52182,0.721797 -1.3123,0.591093 -0.5338,0.22747 -0.42889,0.171918 -0.30646,0.108743 -0.10184,0.0283 -0.0647,0.0096 -0.0527,0.0036 -0.0666,0.01054 -0.0796,0.01713 -0.0915,0.02336 -0.10247,0.02925 -0.1124,0.03477 -0.25063,0.08471 -0.27836,0.102553 -0.29809,0.117562 -0.30978,0.12973 -0.31346,0.139061 -0.68381,0.296769 -0.6911,0.267943 -0.7032,0.239642 -0.72007,0.211861 -0.74173,0.184603 -0.76819,0.157868 -0.79943,0.131654 -0.83545,0.105964 -0.87626,0.08079 -0.92187,0.05615 -0.97225,0.03202 -1.02743,0.0084 -1.08739,-0.01466 -1.15214,-0.03721 -1.22167,-0.05925 -1.29601,-0.08076 -3.04506,-0.241167 -2.67532,-0.285835 -2.34726,-0.339963 -1.06363,-0.193235 -0.99724,-0.210316 -0.93607,-0.228578 -0.88009,-0.248022 -0.82933,-0.26865 -0.78378,-0.29046 -0.74345,-0.313452 -0.7083,-0.337628 -0.67839,-0.362985 -0.65367,-0.389525 -0.18305,-0.11168 -0.19264,-0.111706 -0.40755,-0.220634 -0.42639,-0.21218 -0.43223,-0.198021 -0.42509,-0.178157 -0.40493,-0.152591 -0.19085,-0.06493 -0.18093,-0.05639 -0.1694,-0.04715 -0.15624,-0.03719 -0.20863,-0.04698 -0.19394,-0.04865 -0.18058,-0.05113 -0.16857,-0.05443 -0.15791,-0.05854 -0.1486,-0.06347 -0.14063,-0.06921 -0.13401,-0.07576 -0.12873,-0.08313 -0.12481,-0.09132 -0.12224,-0.10032 -0.121,-0.110136 -0.12112,-0.120765 -0.12258,-0.132209 -0.12539,-0.144468 -0.12954,-0.157542 -0.20998,-0.266918 -0.18965,-0.253944 -0.17025,-0.243733 -0.15179,-0.23628 -0.13427,-0.23159 -0.11769,-0.22966 -0.10204,-0.230491 -0.0873,-0.234083 -0.0735,-0.240436 -0.0607,-0.24955 -0.0488,-0.261424 -0.0378,-0.27606 -0.0278,-0.293456 -0.0187,-0.313613 -0.0105,-0.336529 -0.003,-0.36221 0.0157,-0.5313 0.0486,-0.51084 0.0835,-0.49337 0.0555,-0.24108 0.065,-0.23783 0.0748,-0.23497 0.0848,-0.23248 0.0951,-0.23035 0.10562,-0.22862 0.11644,-0.22724 0.1275,-0.22626 0.13883,-0.22563 0.15042,-0.2254 0.33664,-0.45155 0.3861,-0.45507 0.43766,-0.46159 0.49128,-0.47111 0.54698,-0.48363 0.60478,-0.49914 0.66463,-0.51766 0.72658,-0.53916 0.3866,-0.28942 0.39796,-0.31357 0.39794,-0.32773 0.38654,-0.33193 0.36376,-0.32614 0.3296,-0.31038 0.28408,-0.28463 0.12141,-0.12955 0.10577,-0.11937 0.0985,-0.11247 0.1001,-0.10932 0.10099,-0.1056 0.10118,-0.10132 0.10066,-0.0965 0.0995,-0.091 0.0975,-0.0851 0.0949,-0.0785 0.0916,-0.0714 0.0875,-0.0637 0.0828,-0.0555 0.0773,-0.0466 0.0712,-0.0373 0.0644,-0.0273 0.0568,-0.0168 0.0254,-0.004 0.0232,-0.001 0.0475,-0.003 0.0538,-0.008 0.0595,-0.0128 0.0646,-0.0175 0.0691,-0.0219 0.0729,-0.0261 0.0762,-0.03 0.0789,-0.0336 0.081,-0.0369 0.0824,-0.04 0.0833,-0.0428 0.0835,-0.0454 0.0832,-0.0476 0.0822,-0.0497 0.0807,-0.0514 0.0785,-0.0529 0.0851,-0.0564 0.0999,-0.0617 0.23944,-0.13687 0.28382,-0.15071 0.31818,-0.15966 0.34253,-0.16371 0.35684,-0.16285 0.36116,-0.15708 0.35544,-0.14642 0.60906,-0.25473 0.6116,-0.27815 0.61089,-0.29937 0.60695,-0.31837 0.59978,-0.33514 0.58937,-0.34971 0.57573,-0.36205 0.55885,-0.37218 0.53874,-0.38008 0.51539,-0.38579 0.4888,-0.38925 0.45899,-0.39052 0.42593,-0.38955 0.38964,-0.38638 0.35012,-0.38098 0.30736,-0.37338 0.43048,-0.53725 0.45592,-0.53129 0.47786,-0.52254 0.49633,-0.51104 0.51131,-0.49678 0.5228,-0.47975 0.53081,-0.45996 0.53533,-0.43741 0.53638,-0.4121 0.53392,-0.38402 0.52799,-0.35318 0.51857,-0.31957 0.50567,-0.28321 0.48928,-0.24408 0.46941,-0.20219 0.44605,-0.15754 0.17585,-0.0593 0.23095,-0.0854 0.27623,-0.1075 0.31167,-0.12555 0.33725,-0.13959 0.35301,-0.14959 0.35893,-0.15559 0.355,-0.15756 0.76979,-0.33608 0.84238,-0.35165 0.81303,-0.32551 0.68172,-0.25767 0.50983,-0.18998 0.50349,-0.20039 0.4993,-0.21203 0.49722,-0.2249 0.49729,-0.23901 0.49949,-0.25435 0.50381,-0.27093 0.51026,-0.28875 0.51886,-0.3078 0.52958,-0.32809 0.54243,-0.34961 0.55742,-0.37236 1.16831,-0.81796 1.25383,-0.92382 1.53537,-1.17136 1.32917,-1.05051 1.1456,-0.9505 0.98471,-0.87134 0.4391,-0.41248 0.40736,-0.40051 0.37847,-0.39113 0.3524,-0.38437 0.32917,-0.3802 0.30876,-0.37863 0.29119,-0.37969 0.27645,-0.38333 0.49957,-0.69965 0.5257,-0.71201 0.48931,-0.64103 0.21148,-0.26785 0.17895,-0.21887 0.0791,-0.0961 0.0768,-0.097 0.14545,-0.19404 0.1318,-0.18974 0.0598,-0.0916 0.0552,-0.0886 0.0502,-0.0849 0.0448,-0.0805 0.039,-0.0755 0.0328,-0.0699 0.0262,-0.0635 0.0192,-0.0566 0.0118,-0.0489 0.004,-0.0406 0.002,-0.02 0.006,-0.0237 0.009,-0.0273 0.0131,-0.0307 0.0367,-0.0712 0.05,-0.0835 0.0626,-0.0949 0.0744,-0.10529 0.0855,-0.11472 0.0958,-0.1232 0.10536,-0.13071 0.11414,-0.13728 0.12218,-0.14287 0.12945,-0.14752 0.13595,-0.1512 0.14171,-0.15392 0.14671,-0.15569 0.15093,-0.1565 0.63512,-0.65614 0.634,-0.66413 0.55938,-0.59462 0.41128,-0.44758 0.10303,-0.11028 0.10436,-0.10287 0.10565,-0.0954 0.10693,-0.088 0.1082,-0.0806 0.10945,-0.0732 0.11068,-0.0658 0.11189,-0.0584 0.11309,-0.051 0.11427,-0.0436 0.11542,-0.0362 0.11657,-0.0287 0.1177,-0.0213 0.1188,-0.0139 0.11989,-0.007 0.12097,8.8e-4 0.12202,0.008 0.12306,0.0157 0.12408,0.0231 0.12508,0.0305 0.12607,0.0379 0.12704,0.0453 0.12799,0.0527 0.12892,0.0601 0.12984,0.0675 0.13073,0.0749 0.13162,0.0823 0.13248,0.0897 0.13333,0.0971 0.13415,0.10451 0.13497,0.11191 0.13576,0.1193"
       stroke="#000000"
       stroke-width="0.35 px"
       style="fill:none;fill-opacity:1;fill-rule:evenodd;stroke-width:0.35;stroke-linecap:square;stroke-miterlimit:4;stroke-dasharray:none" />
    <path
       id="PCB_Sketch_1785_w0001"
       d="m 257.8846,-203.13714 -1.26856,0.13109 -1.3629,0.18053 -1.44808,0.22822 -1.52409,0.27416 -1.59092,0.31836 -1.64859,0.36083 -1.69709,0.40154 -1.73643,0.4405 -3.97757,1.02216 -1.43581,0.35438 -0.79552,0.18172 -0.37134,0.0806 -0.4355,0.11031 -0.4876,0.1363 -0.52766,0.15857 -0.55565,0.17709 -0.57161,0.19188 -0.5755,0.20294 -0.56736,0.21027 -0.41444,0.14297 -0.51754,0.15591 -0.58814,0.16095 -0.62622,0.15809 -0.63179,0.14734 -0.60484,0.1287 -0.54537,0.10215 -0.45341,0.0677 -0.14742,0.0141 -0.14519,0.006 -0.14477,-0.003 -0.14614,-0.0124 -0.14935,-0.0225 -0.15435,-0.0333 -0.16116,-0.0448 -0.1698,-0.0569 -0.18023,-0.0696 -0.19248,-0.083 -0.20655,-0.0971 -0.22241,-0.11184 -0.2401,-0.12721 -0.25959,-0.14324 -0.28089,-0.15993 -0.30401,-0.17727 -0.46117,-0.26186 -0.5026,-0.26822 -0.52788,-0.267 -0.53696,-0.25819 -0.52987,-0.24181 -0.50661,-0.21785 -0.46717,-0.18629 -0.41155,-0.14717 -1.65604,-0.54632 -1.27953,-0.40668 -0.53638,-0.15741 -0.48764,-0.13021 -0.45401,-0.1056 -0.43552,-0.0836 -0.43215,-0.0641 -0.44391,-0.0472 -0.4708,-0.0329 -0.51281,-0.0211 -1.21217,-0.0173 -1.56175,-0.001 -1.06767,0.005 -0.95136,0.0163 -0.8339,0.027 -0.71532,0.0377 -0.59561,0.0483 -0.47477,0.0588 -0.35279,0.0693 -0.1303,0.0385 -0.0994,0.0411 -0.19078,0.0898 -0.28376,0.12428 -0.79138,0.32967 -0.99802,0.40034 -1.09447,0.42607 -1.50201,0.59086 -1.39179,0.58036 -1.30182,0.57991 -1.23207,0.5895 -1.18257,0.60913 -1.15329,0.63882 -1.14426,0.67854 -1.15546,0.72832 -0.83498,0.55155 -0.36951,0.25413 -0.34269,0.24436 -0.31971,0.23807 -0.30061,0.23526 -0.28537,0.23595 -0.27399,0.24012 -0.26646,0.24778 -0.26281,0.25893 -0.26302,0.27355 -0.26709,0.29168 -0.27502,0.31328 -0.28682,0.33837 -0.62447,0.76598 -0.92371,1.18831 -0.87639,1.19475 -0.81962,1.1861 -0.75338,1.16233 -0.67767,1.12344 -0.59252,1.06944 -0.26136,0.50975 -0.23653,0.49059 -0.21051,0.46953 -0.1833,0.44658 -0.15134,0.37184 -0.1775,0.40813 -0.19719,0.43112 -0.2104,0.4408 -0.21711,0.43715 -0.21736,0.42021 -0.21111,0.38994 -0.19838,0.34637 -0.44216,0.75859 -0.52339,0.91799 -0.5392,0.96165 -0.48955,0.88954 -0.50842,0.91183 -0.59057,1.02228 -0.59944,1.00773 -0.53501,0.86816 -0.32202,0.51907 -0.30196,0.50667 -0.2818,0.49401 -0.26155,0.48113 -0.2412,0.46798 -0.22074,0.45459 -0.20019,0.44097 -0.17954,0.42708 -0.15879,0.41296 -0.13793,0.39858 -0.11699,0.38397 -0.0959,0.3691 -0.0748,0.35399 -0.0536,0.33864 -0.0322,0.32303 -0.0108,0.30719 -0.004,0.15719 -0.0129,0.17891 -0.021,0.19871 -0.0286,0.21663 -0.0787,0.47938 -0.10463,0.52825 -0.12729,0.56193 -0.14672,0.58041 -0.16292,0.5837 -0.1759,0.57182 -0.20561,0.58741 -0.26461,0.67865 -0.67489,1.56949 -0.81685,1.7499 -0.8961,1.80727 -0.91265,1.74159 -0.86648,1.55289 -0.75761,1.24114 -0.31838,0.46522 -0.26765,0.34115 -0.77611,0.88724 v 24.86885 l 0.0713,18.17527 0.0834,4.960643 0.052,1.292263 0.0582,0.440678 0.0138,0.0018 0.0141,0.0052 0.0144,0.0086 0.0146,0.01184 0.0148,0.01503 0.015,0.01814 0.0152,0.02116 0.0153,0.02409 0.0154,0.02694 0.0155,0.0297 0.031,0.06734 0.0309,0.07735 0.0306,0.08668 0.0301,0.09532 0.0293,0.103275 0.0283,0.110541 0.0271,0.117119 0.0256,0.12301 0.024,0.128215 0.022,0.132731 0.0199,0.13656 0.25309,1.431408 0.4418,2.074209 0.5766,2.499805 0.65751,2.708192 0.68451,2.699372 0.65761,2.473344 0.57679,2.030111 0.44207,1.369669 0.22959,0.59906 0.27392,0.67579 0.30799,0.729368 0.33179,0.759795 0.34533,0.767072 0.34859,0.751197 0.3416,0.712171 0.32434,0.649994 0.319,0.646902 0.32631,0.703308 0.32444,0.737184 0.31337,0.748531 0.29309,0.737349 0.26363,0.703636 0.22497,0.647395 0.17711,0.568623 0.16325,0.546966 0.18524,0.585323 0.20082,0.605504 0.20998,0.607508 0.21275,0.591333 0.2091,0.556982 0.19903,0.504453 0.18257,0.433747 0.17117,0.39937 0.16634,0.405932 0.15743,0.401225 0.14437,0.385249 0.12721,0.358002 0.10592,0.319487 0.0805,0.269701 0.051,0.208646 0.0194,0.08656 0.023,0.085 0.0264,0.08296 0.0294,0.08044 0.0322,0.07745 0.0346,0.07398 0.0368,0.07003 0.0386,0.06561 0.0402,0.06071 0.0415,0.05533 0.0424,0.04948 0.0431,0.04314 0.0435,0.03634 0.0435,0.02905 0.0433,0.02129 0.0215,0.0076 0.0213,0.0055 0.0238,0.0094 0.0288,0.01925 0.0723,0.06706 0.0906,0.103458 0.1076,0.137835 0.12338,0.170193 0.13789,0.200532 0.15111,0.228854 0.16307,0.255155 0.35692,0.581142 0.38949,0.662125 0.41188,0.726957 0.4241,0.77564 1.61033,2.892249 1.69424,2.838143 1.77615,2.781823 1.85609,2.723294 1.93403,2.662553 2.00997,2.599602 2.08393,2.534439 2.1559,2.467067 2.22586,2.397481 2.29385,2.325687 2.35983,2.251681 2.42384,2.175463 2.48584,2.097036 2.54585,2.016397 2.60388,1.933547 2.65991,1.848486 1.70599,1.118827 1.8788,1.184637 1.98103,1.209245 2.01269,1.19265 1.97378,1.13485 1.8643,1.035848 1.68424,0.895642 1.43362,0.714232 2.98594,1.352742 3.14153,1.303558 3.23373,1.23318 3.26254,1.141607 3.22797,1.028838 3.13003,0.894876 2.9687,0.739718 2.744,0.563366 1.30561,0.239012 1.25997,0.239247 1.07079,0.211711 0.73807,0.156403 0.50095,0.079923 0.75728,0.073669 2.1729,0.127063 2.86624,0.097521 3.3383,0.064963 3.58905,0.029391 3.6185,-0.009194 3.42664,-0.050795 3.01347,-0.095409 2.3384,-0.123394 2.21299,-0.162581 2.10349,-0.203949 2.00991,-0.247499 1.93222,-0.293233 1.87045,-0.341147 1.82458,-0.391244 1.79463,-0.443523 0.7512,-0.192229 0.79357,-0.193516 0.74143,-0.172277 0.59474,-0.12851 0.13421,-0.031298 0.15639,-0.0438 0.37167,-0.121924 0.43743,-0.162373 0.48786,-0.196445 0.52295,-0.224139 0.54273,-0.245457 0.54717,-0.260398 0.5363,-0.268961 0.61891,-0.329656 0.58671,-0.3344 0.55568,-0.340289 0.52584,-0.347321 0.49718,-0.355498 0.4697,-0.364818 0.44341,-0.375283 0.41829,-0.386893 0.39436,-0.399645 0.37162,-0.413543 0.35004,-0.428584 0.32967,-0.444769 0.31045,-0.462099 0.29244,-0.480572 0.2756,-0.50019 0.25994,-0.520952 1.03225,-2.173612 -0.34902,-4.107769 -0.0783,-0.844785 -0.0889,-0.826043 -0.0964,-0.786508 -0.10085,-0.726182 -0.10222,-0.645064 -0.1005,-0.543155 -0.0957,-0.420455 -0.0451,-0.157717 -0.0427,-0.119245 -0.06,-0.131406 -0.073,-0.138865 -0.18247,-0.297729 -0.22693,-0.320433 -0.26638,-0.338384 -0.30078,-0.35158 -0.33015,-0.360024 -0.35449,-0.363713 -0.37379,-0.362649 -0.38806,-0.356831 -0.3973,-0.346259 -0.4015,-0.330934 -0.40067,-0.310855 -0.39481,-0.286021 -0.38391,-0.256436 -0.36797,-0.222095 -0.34701,-0.183001 -0.3158,-0.143844 -0.33818,-0.137407 -0.35862,-0.130583 -0.37709,-0.123373 -0.39361,-0.115776 -0.40817,-0.107792 -0.42077,-0.09942 -0.43142,-0.09066 -0.44012,-0.08152 -0.44685,-0.07199 -0.45163,-0.06208 -0.45445,-0.05177 -0.45531,-0.04109 -0.45423,-0.03001 -0.45118,-0.01855 -0.44617,-0.0067 -0.29736,-0.0054 -0.28332,-0.01459 -0.26268,-0.02282 -0.2354,-0.03004 -0.2015,-0.03626 -0.086,-0.02014 -0.075,-0.02132 -0.0632,-0.02237 -0.0506,-0.02329 -0.0372,-0.02408 -0.0229,-0.02475 -0.007,-0.01701 -0.004,-0.02583 -0.002,-0.07714 0.007,-0.109537 0.0156,-0.140016 0.0551,-0.36382 0.0844,-0.462787 0.11069,-0.546451 0.13406,-0.614811 0.15448,-0.66787 0.17193,-0.705626 0.24969,-1.022922 0.19437,-0.860457 0.14372,-0.73585 0.0543,-0.333027 0.0434,-0.316072 0.0331,-0.303847 0.0233,-0.296357 0.0142,-0.293596 0.006,-0.295569 -0.0122,-0.615985 -0.0395,-0.680659 -0.0903,-1.097162 -0.10812,-1.004902 -0.12515,-0.908891 -0.14146,-0.809129 -0.15703,-0.705617 -0.0841,-0.31282 -0.0877,-0.285536 -0.0913,-0.257783 -0.0947,-0.22956 -0.098,-0.200871 -0.10126,-0.171711 -0.11564,-0.163569 -0.13171,-0.162651 -0.14723,-0.16151 -0.16221,-0.160147 -0.17666,-0.158563 -0.19055,-0.156757 -0.42062,-0.307204 -0.46971,-0.297314 -0.51446,-0.285647 -0.55487,-0.272205 -0.59093,-0.256984 -0.62268,-0.23999 -0.65007,-0.221218 -0.67313,-0.200671 -0.69185,-0.178346 -0.70624,-0.154247 -0.71629,-0.128371 -0.722,-0.100718 -0.72337,-0.07129 -0.52168,-0.04622 -0.45673,-0.0528 -0.39187,-0.05941 -0.17165,-0.03219 -0.15547,-0.03385 -0.1393,-0.03551 -0.12315,-0.03718 -0.10701,-0.03884 -0.0909,-0.04052 -0.0748,-0.04219 -0.0587,-0.04387 -0.0426,-0.04555 -0.0265,-0.04723 -0.0126,-0.05083 -0.008,-0.0724 -0.003,-0.09262 0.002,-0.111478 0.006,-0.128985 0.0107,-0.145136 0.0339,-0.333308 0.0494,-0.381653 0.0637,-0.419159 0.0767,-0.445823 0.0884,-0.461648 0.11458,-0.59855 0.0978,-0.575664 0.0811,-0.553173 0.0644,-0.53108 0.0476,-0.509381 0.0308,-0.488078 0.014,-0.467172 -0.003,-0.44666 -0.0195,-0.426546 -0.0363,-0.406826 -0.0532,-0.387503 -0.07,-0.368576 -0.0868,-0.350043 -0.10368,-0.331908 -0.12053,-0.314168 -0.13741,-0.296823 -0.11186,-0.208427 -0.12302,-0.205333 -0.134,-0.202123 -0.14477,-0.198799 -0.15532,-0.195363 -0.16568,-0.19181 -0.17584,-0.188144 -0.1858,-0.184364 -0.19554,-0.180469 -0.20509,-0.176461 -0.21444,-0.172338 -0.22357,-0.168101 -0.23252,-0.163749 -0.24125,-0.159284 -0.50791,-0.304715 -0.54041,-0.285482 -0.5713,-0.265336 -0.60057,-0.244277 -0.6282,-0.222303 -0.65423,-0.199416 -0.67862,-0.175616 -0.70139,-0.150901 -0.72255,-0.125274 -1.4806,-0.232502 -0.5944,-0.09731 -0.38931,-0.06731 -0.0692,-0.01614 -0.0691,-0.02272 -0.0689,-0.02906 -0.0686,-0.03515 -0.0681,-0.04099 -0.0675,-0.04659 -0.0667,-0.05194 -0.0658,-0.05705 -0.0647,-0.06191 -0.0635,-0.06653 -0.0622,-0.0709 -0.0607,-0.07503 -0.0591,-0.07891 -0.0573,-0.08255 -0.0554,-0.08594 -0.0534,-0.08908 -0.0512,-0.09199 -0.0489,-0.09464 -0.0464,-0.09705 -0.0438,-0.09922 -0.041,-0.101134 -0.0381,-0.102808 -0.0351,-0.104237 -0.0319,-0.10542 -0.0286,-0.106358 -0.0251,-0.107051 -0.0215,-0.107499 -0.0178,-0.107701 -0.0139,-0.107658 -0.01,-0.10737 -0.006,-0.106836 -10e-4,-0.106057 0.004,-0.08696 0.009,-0.09723 0.0146,-0.106447 0.0197,-0.114621 0.0245,-0.121752 0.0289,-0.127836 0.0331,-0.132877 0.0371,-0.136872 0.0846,-0.281551 0.0967,-0.284993 0.0522,-0.141175 0.0543,-0.138902 0.0562,-0.135582 0.0577,-0.131219 0.15273,-0.360563 0.13948,-0.378904 0.12617,-0.396669 0.11281,-0.413857 0.0994,-0.430469 0.0859,-0.446503 0.0723,-0.46196 0.0587,-0.476841 0.045,-0.491145 0.0313,-0.504871 0.0175,-0.518022 0.004,-0.530595 -0.0103,-0.542591 -0.0243,-0.554011 -0.0384,-0.564853 -0.0525,-0.575119 -0.16265,-1.421916 -0.0872,-0.6193 -0.0945,-0.566962 -0.10433,-0.521199 -0.11667,-0.482012 -0.13154,-0.449401 -0.14893,-0.423364 -0.16886,-0.403903 -0.19131,-0.391019 -0.21629,-0.384709 -0.24378,-0.384974 -0.27382,-0.391816 -0.30636,-0.405232 -0.34145,-0.425225 -0.37904,-0.451792 -0.35977,-0.413444 -0.34732,-0.379941 -0.34161,-0.350526 -0.34259,-0.325204 -0.35032,-0.303971 -0.36476,-0.286829 -0.38592,-0.273777 -0.41381,-0.264816 -0.4484,-0.259945 -0.48973,-0.259165 -0.53778,-0.262475 -0.59254,-0.269875 -0.65402,-0.281367 -0.72224,-0.296948 -0.79716,-0.31662 -0.87881,-0.340382 -0.72442,-0.261209 -0.76982,-0.24477 -0.81823,-0.228717 -0.86962,-0.213053 -0.924,-0.197775 -0.98137,-0.182885 -1.04174,-0.168383 -1.1051,-0.154267 -1.17145,-0.140539 -1.24078,-0.127199 -2.70157,-0.215927 -3.01484,-0.167213 -3.35204,-0.121601 -2.20498,-0.06239 3.04016,-1.970856 1.23472,-0.825917 1.2208,-0.866624 1.20167,-0.902135 1.17736,-0.932447 1.14784,-0.957561 1.11315,-0.977479 1.07325,-0.992198 1.02816,-1.001721 0.97788,-1.006049 0.9224,-1.00517 0.86174,-0.9991 0.79587,-0.98783 0.72482,-0.97136 0.64857,-0.9497 0.56714,-0.92284 0.48049,-0.89078 0.35491,-0.79022 0.30407,-0.84257 0.25333,-0.89043 0.2027,-0.93384 0.15216,-0.97278 0.10171,-1.00724 0.0514,-1.03724 0.001,-1.06278 -0.049,-1.08384 -0.099,-1.10044 -0.14898,-1.11258 -0.19882,-1.12024 -0.24857,-1.12344 -0.2982,-1.12217 -0.34775,-1.11643 -0.39719,-1.10623 -0.17593,-0.46453 -0.069,-0.19288 -0.0563,-0.17148 -0.0435,-0.15369 -0.0307,-0.13957 -0.0105,-0.0656 -0.007,-0.0634 -0.004,-0.0617 -8.3e-4,-0.0605 0.002,-0.0597 0.006,-0.0593 0.009,-0.0594 0.0122,-0.06 0.0341,-0.12341 0.0472,-0.13108 0.0604,-0.14239 0.0736,-0.15734 0.18696,-0.37406 0.13099,-0.25025 0.15257,-0.278 0.16862,-0.29649 0.17918,-0.3057 0.18421,-0.30564 0.18374,-0.29632 0.17777,-0.27771 0.16627,-0.24986 0.22792,-0.3407 0.21355,-0.33253 0.19973,-0.32569 0.1865,-0.3202 0.17385,-0.31604 0.16177,-0.31322 0.15027,-0.31176 0.13934,-0.31163 0.12899,-0.31284 0.11922,-0.31539 0.11003,-0.31929 0.10141,-0.32453 0.0934,-0.3311 0.0859,-0.33902 0.079,-0.34829 0.0727,-0.35888 0.085,-0.40307 0.10751,-0.44283 0.12563,-0.46814 0.13936,-0.47896 0.14874,-0.47533 0.15373,-0.45722 0.15437,-0.42464 0.15064,-0.3776 0.11838,-0.28411 0.10412,-0.2602 0.0905,-0.24238 0.0776,-0.23062 0.0653,-0.22495 0.0538,-0.22535 0.0428,-0.23182 0.0325,-0.24438 0.0229,-0.26301 0.014,-0.28772 0.006,-0.31851 -0.002,-0.35536 -0.009,-0.3983 -0.0151,-0.44731 -0.0465,-1.06598 -0.0862,-1.4402 -0.0545,-0.64774 -0.0629,-0.60282 -0.0719,-0.5604 -0.0816,-0.52046 -0.0919,-0.48301 -0.10278,-0.44807 -0.11431,-0.4156 -0.12649,-0.38564 -0.13927,-0.35817 -0.1527,-0.33318 -0.16674,-0.31069 -0.18142,-0.29069 -0.19671,-0.27318 -0.21264,-0.25817 -0.1794,-0.20982 -0.16737,-0.20636 -0.15166,-0.19762 -0.13231,-0.18361 -0.10928,-0.16432 -0.0449,-0.0733 -0.0377,-0.0665 -0.0301,-0.059 -0.0221,-0.0509 -0.0136,-0.0421 -0.005,-0.0327 -0.007,-0.0827 -0.0194,-0.093 -0.0317,-0.10266 -0.0435,-0.11168 -0.12007,-0.24792 -0.16075,-0.27652 -0.19721,-0.30013 -0.22943,-0.31875 -0.25742,-0.33238 -0.28117,-0.34102 -0.3007,-0.34468 -0.31597,-0.34334 -0.32704,-0.33702 -0.33385,-0.3257 -0.33643,-0.3094 -0.33479,-0.28811 -0.32891,-0.26183 -0.3188,-0.23055 -0.77038,-0.53184 -0.73599,-0.51837 -0.61819,-0.44555 -0.41702,-0.31336 -0.6997,-0.55145 0.66175,-1.50221 0.79736,-1.91082 0.92834,-2.38863 1.00504,-2.7115 1.02742,-2.87939 0.99548,-2.89234 0.90923,-2.75032 0.76868,-2.45335 0.57382,-2.00141 0.25151,-0.96973 0.1027,-0.42916 0.0887,-0.40889 0.0757,-0.40126 0.0638,-0.40627 0.0528,-0.42395 0.0429,-0.45426 0.0341,-0.49723 0.0262,-0.55283 0.0194,-0.62109 0.0135,-0.702 0.0137,-1.6973 0.003,-2.1727 -0.0193,-3.48319 -0.0282,-1.27436 -0.0443,-1.0254 -0.063,-0.82336 -0.0845,-0.66821 -0.10864,-0.55997 -0.13553,-0.49864 -0.0942,-0.28562 -0.10371,-0.27934 -0.11305,-0.27299 -0.12229,-0.26656 -0.13144,-0.26003 -0.14048,-0.25345 -0.14943,-0.24676 -0.15825,-0.24001 -0.167,-0.23318 -0.17563,-0.22626 -0.18416,-0.21927 -0.19259,-0.21219 -0.20091,-0.20504 -0.20915,-0.19781 -0.21727,-0.19049 -0.22528,-0.1831 -0.23321,-0.17562 -0.24103,-0.16808 -0.24874,-0.16043 -0.25635,-0.15273 -0.26387,-0.14493 -0.27128,-0.13706 -0.27858,-0.12911 -0.28579,-0.12108 -0.59279,-0.21774 -0.62038,-0.18465 -0.64717,-0.15093 -0.67313,-0.11656 -0.64868,-0.0908 -0.54518,-0.0666 -0.24585,-0.0245 -0.23447,-0.0187 -0.22791,-0.0131 -0.22619,-0.008 -0.22928,-0.002 -0.2372,0.003 -0.51752,0.0219 -0.60716,0.042 -0.73544,0.0612"
       stroke="#000000"
       stroke-width="0.35 px"
       style="fill:none;fill-opacity:1;fill-rule:evenodd;stroke-width:0.35;stroke-linecap:square;stroke-miterlimit:4;stroke-dasharray:none" />
    <path
       id="PCB_Sketch_1785_w0002"
       d="m 177.66878,-104.26917 0.19822,0.22659 0.19314,0.21139 0.18327,0.19155 0.16857,0.16711 0.14907,0.13802 0.0657,0.0567 0.059,0.0477 0.0517,0.0381 0.0439,0.0279 0.0354,0.0172 0.0143,0.004 0.012,0.001 0.0273,0.009 0.0468,0.0269 0.1504,0.10571 0.51542,0.40864 0.77821,0.65134 1.01291,0.86971 1.2195,1.06373 1.398,1.233438 1.54842,1.378807 1.67074,1.499847 0.77931,0.685425 0.36408,0.306122 0.35014,0.283694 0.3385,0.262743 0.32919,0.243266 0.3222,0.225264 0.31752,0.208737 0.31517,0.193686 0.31513,0.18011 0.31741,0.168008 0.32202,0.157381 0.32893,0.148231 0.33818,0.140554 0.34974,0.134353 0.36361,0.129628 0.37792,0.139875 0.43725,0.17867 0.48096,0.210109 0.50904,0.234193 0.5215,0.25092 0.51832,0.260294 0.49954,0.26231 0.46512,0.256971 0.46284,0.258473 0.49304,0.266601 0.50807,0.267075 0.50791,0.259891 0.4926,0.245053 0.4621,0.222559 0.41645,0.192408 0.35561,0.154601 0.36717,0.155972 0.33197,0.148448 0.29835,0.142458 0.26632,0.138003 0.23588,0.135081 0.20704,0.133692 0.17977,0.133839 0.15411,0.135518 0.13002,0.138732 0.0565,0.07105 0.0511,0.07243 0.0458,0.074 0.0408,0.07576 0.036,0.07771 0.0314,0.07986 0.0496,0.166924 0.0335,0.177807 0.0189,0.190223 0.006,0.204173 -0.002,0.114432 -0.005,0.108565 -0.009,0.102877 -0.0128,0.09737 -0.0173,0.09203 -0.0223,0.08688 -0.0276,0.0819 -0.0334,0.07709 -0.0396,0.07247 -0.0461,0.06802 -0.0531,0.06375 -0.0605,0.05966 -0.0682,0.05575 -0.0764,0.05201 -0.085,0.04845 -0.094,0.04507 -0.10336,0.04186 -0.11314,0.03883 -0.12333,0.03598 -0.13393,0.03331 -0.14491,0.03081 -0.15631,0.02849 -0.16812,0.02635 -0.18031,0.02439 -0.19291,0.0226 -0.20593,0.02099 -0.45248,0.03787 -0.50934,0.03356 -0.56941,0.03067 -1.02329,0.07245 -0.98322,0.113058 -0.93958,0.151795 -0.89236,0.188663 -0.84156,0.223664 -0.78717,0.256795 -0.72921,0.28806 -0.66765,0.317455 -0.60252,0.344983 -0.53381,0.370642 -0.46151,0.394433 -0.38563,0.416356 -0.16324,0.215816 -0.14293,0.220595 -0.12217,0.225143 -0.10096,0.229455 -0.0793,0.233535 -0.0572,0.237381 -0.0346,0.240993 -0.0117,0.244373 0.01,0.166648 0.0283,0.189287 0.0446,0.207318 0.059,0.220743 0.0713,0.229559 0.0816,0.23377 0.0899,0.233372 0.0961,0.228367 0.10034,0.218755 0.10254,0.204535 0.10271,0.185709 0.10086,0.162276 0.097,0.134234 0.0911,0.101585 0.0427,0.03711 0.0405,0.02722 0.038,0.01675 0.0352,0.0057 0.0148,5.87e-4 0.0159,0.0017 0.0349,0.0068 0.0387,0.01111 0.0421,0.01516 0.0451,0.01897 0.0477,0.02256 0.0499,0.02591 0.0517,0.02904 0.0531,0.03194 0.0542,0.0346 0.0548,0.03703 0.055,0.03924 0.0549,0.04121 0.0543,0.04295 0.0533,0.04447 0.052,0.04575 0.0422,0.03744 0.0413,0.03468 0.0407,0.03184 0.0405,0.02892 0.0408,0.02592 0.0414,0.02285 0.0424,0.01969 0.0438,0.01646 0.0457,0.01315 0.0479,0.0098 0.0505,0.0063 0.0535,0.0027 0.0569,-8.88e-4 0.0608,-0.0046 0.065,-0.0084 0.0696,-0.01224 0.0746,-0.01618 0.08,-0.0202 0.0858,-0.0243 0.092,-0.02848 0.0986,-0.03273 0.10565,-0.03707 0.11307,-0.04148 0.12087,-0.04597 0.26675,-0.105736 0.30277,-0.124646 0.34197,-0.144187 0.38436,-0.164356 0.53785,-0.220325 0.54962,-0.204639 0.55788,-0.188377 0.56262,-0.171537 0.56385,-0.15412 0.56156,-0.136128 0.55575,-0.117557 0.54643,-0.09841 0.53358,-0.07869 0.51722,-0.05839 0.49735,-0.03751 0.47395,-0.01606 0.44705,0.006 0.41661,0.02858 0.38267,0.05176 0.34521,0.07552 0.25797,0.07854 0.25108,0.09454 0.24351,0.109889 0.23529,0.124599 0.22639,0.138667 0.21683,0.152095 0.20661,0.16488 0.19571,0.177024 0.18414,0.188525 0.17192,0.199386 0.15902,0.209605 0.14546,0.219182 0.13124,0.228117 0.11633,0.236411 0.10078,0.244063 0.0846,0.251074 0.0836,0.364573 0.0587,0.443175 0.035,0.511038 0.0125,0.56816 -0.009,0.614543 -0.0291,0.650185 -0.0482,0.675088 -0.0661,0.68925 -0.0829,0.692673 -0.0985,0.685356 -0.1129,0.667298 -0.12619,0.638502 -0.13831,0.598964 -0.14926,0.548687 -0.15908,0.48767 -0.16771,0.415914 -0.28299,0.56588 -0.32892,0.560727 -0.37087,0.552237 -0.40885,0.54041 -0.44287,0.525246 -0.47292,0.506746 -0.49898,0.484908 -0.52109,0.459734 -0.53922,0.431224 -0.55338,0.399375 -0.56357,0.364192 -0.56978,0.32567 -0.57203,0.283813 -0.57031,0.238618 -0.56461,0.190086 -0.27893,0.0758 -0.27601,0.06242 -0.43211,0.08356 -0.38956,0.06447 -0.3522,0.04264 -0.16372,0.01228 -0.15631,0.0058 -0.14956,-10e-4 -0.14346,-0.0082 -0.13801,-0.01569 -0.1332,-0.02353 -0.12904,-0.03172 -0.12552,-0.04025 -0.12266,-0.04912 -0.12044,-0.05833 -0.11887,-0.06788 -0.11795,-0.07778 -0.11767,-0.08801 -0.11804,-0.09859 -0.11907,-0.109509 -0.12072,-0.12077 -0.12305,-0.132372 -0.126,-0.144315 -0.26348,-0.325825 -0.2831,-0.377696 -0.30788,-0.432298 -0.33786,-0.489631 -1.30467,-1.97915 -1.30519,-2.113613 -1.29889,-2.232512 -1.28579,-2.335845 -1.26587,-2.423612 -1.23912,-2.495813 -1.20555,-2.552449 -1.16518,-2.593518 -1.11798,-2.619023 -1.06396,-2.628961 -1.00313,-2.623334 -0.93547,-2.60214 -0.86101,-2.565383 -0.77971,-2.513057 -0.69162,-2.445168 -0.59668,-2.36172 -0.31839,-1.35328 -0.22038,-1.00885 -0.0707,-0.3914 -0.043,-0.32467 -0.0142,-0.26439 0.004,-0.11161 0.0117,-0.099 0.0194,-0.0871 0.0273,-0.0761 0.0353,-0.0659 0.0434,-0.0565 0.0517,-0.0478 0.0601,-0.04 0.0687,-0.033 0.0774,-0.0268 0.18133,-0.0384 0.21768,-0.0233 0.54876,-0.0272 0.2312,-0.009 0.20692,-0.005 0.18546,6.3e-4 0.16679,0.007 0.15092,0.0153 0.0704,0.0111 0.0675,0.0135 0.0649,0.0161 0.0627,0.0189 0.0608,0.0219 0.0593,0.025 0.0581,0.0282 0.0573,0.0317 0.0569,0.0352 0.0567,0.039 0.11455,0.0898 0.11829,0.10669 0.12484,0.12483 0.13418,0.14423 0.14633,0.16491 0.16127,0.18684"
       stroke="#000000"
       stroke-width="0.35 px"
       style="fill:none;fill-opacity:1;fill-rule:evenodd;stroke-width:0.35;stroke-linecap:square;stroke-miterlimit:4;stroke-dasharray:none" />
    <path
       id="PCB_Sketch_1785_w0003"
       d="m 215.3728,-72.425099 0.33838,0.364409 0.31299,0.352924 0.28999,0.345918 0.26937,0.34339 0.25113,0.345342 0.23527,0.351772 0.22179,0.362683 0.2107,0.378071 0.20199,0.397939 0.19566,0.422287 0.19171,0.451112 0.19014,0.484418 0.19096,0.522202 0.19416,0.564466 0.19974,0.611208 0.20771,0.66243 0.12526,0.391997 0.1564,0.465916 0.38119,1.08413 0.43072,1.171444 0.43024,1.11985 0.31566,0.814095 0.12945,0.3518 0.11218,0.324762 0.0962,0.305067 0.0814,0.292718 0.0679,0.287712 0.0556,0.290051 0.0446,0.299735 0.0348,0.316762 0.0263,0.341135 0.019,0.372851 0.013,0.411912 0.008,0.458317 0.007,1.085228 -3.8e-4,1.087662 -0.0136,0.856858 -0.0145,0.358117 -0.021,0.319906 -0.0287,0.28819 -0.0374,0.26297 -0.0472,0.244247 -0.0581,0.232021 -0.0701,0.22629 -0.0831,0.227055 -0.0973,0.234318 -0.11247,0.248077 -0.27494,0.563413 -0.18474,0.351953 -0.19614,0.338811 -0.20822,0.326307 -0.22099,0.314442 -0.23444,0.303217 -0.24856,0.292629 -0.26337,0.282681 -0.27886,0.273371 -0.29503,0.264699 -0.31189,0.256666 -0.32942,0.249273 -0.34763,0.242517 -0.36653,0.2364 -0.3861,0.230923 -0.40637,0.226083 -0.4273,0.221882 -0.72314,0.329257 -0.73406,0.26682 -0.745,0.204379 -0.75598,0.141933 -0.76699,0.07948 -0.77801,0.01703 -0.78908,-0.04543 -0.80017,-0.1079 -0.81128,-0.17037 -0.82242,-0.232845 -0.8336,-0.295326 -0.8448,-0.357811 -0.85603,-0.4203 -0.86729,-0.482795 -0.87857,-0.545295 -0.88989,-0.607799 -0.37995,-0.278209 -0.37154,-0.285862 -0.3609,-0.291162 -0.34805,-0.294109 -0.33298,-0.294703 -0.31567,-0.292943 -0.29616,-0.288831 -0.27442,-0.282364 -0.25045,-0.273546 -0.22426,-0.262373 -0.19586,-0.248848 -0.16524,-0.232969 -0.13238,-0.214736 -0.0973,-0.194152 -0.06,-0.171213 -0.0153,-0.07627 -0.005,-0.06965 0.002,-0.08302 0.007,-0.08246 0.0117,-0.08185 0.0163,-0.0812 0.0208,-0.08051 0.0253,-0.07976 0.0298,-0.07898 0.0342,-0.07815 0.0386,-0.07727 0.0429,-0.07635 0.0472,-0.07538 0.0514,-0.07437 0.0556,-0.07331 0.0597,-0.07221 0.0638,-0.07106 0.0678,-0.06986 0.0718,-0.06862 0.0758,-0.06734 0.0797,-0.06601 0.0836,-0.06463 0.17852,-0.124952 0.19343,-0.118905 0.20796,-0.112494 0.22213,-0.10572 0.23593,-0.09858 0.24937,-0.09109 0.58311,-0.214927 0.58467,-0.246768 0.58208,-0.275447 0.57533,-0.300962 0.56446,-0.323316 0.54942,-0.342506 0.53025,-0.358535 0.50692,-0.3714 0.47947,-0.381104 0.44785,-0.387644 0.41209,-0.391022 0.37219,-0.391238 0.32814,-0.388291 0.27995,-0.382182 0.22761,-0.37291 0.17113,-0.360475 0.38804,-0.984637 0.32048,-0.855391 0.26367,-0.763874 0.21761,-0.710084 0.18227,-0.694022 0.1577,-0.715687 0.14386,-0.775079 0.14077,-0.872198 0.0944,-0.579188 0.10401,-0.57112 0.11018,-0.54835 0.11293,-0.510879 0.11228,-0.458706 0.10821,-0.391833 0.10071,-0.310257 0.0465,-0.119943 0.0433,-0.09404 0.0411,-0.08334 0.04,-0.08855 0.0386,-0.09297 0.037,-0.09662 0.0353,-0.09949 0.0333,-0.101581 0.0311,-0.10289 0.0287,-0.103418 0.0261,-0.103167 0.0233,-0.102134 0.0203,-0.100323 0.017,-0.09773 0.0136,-0.09436 0.01,-0.09021 0.006,-0.08527 0.002,-0.07956 0.004,-0.08082 0.0117,-0.08457 0.0191,-0.0879 0.026,-0.09082 0.0326,-0.09332 0.0389,-0.09541 0.095,-0.195437 0.11558,-0.19883 0.13319,-0.198912 0.14786,-0.195683 0.15957,-0.189143 0.16833,-0.179291 0.17416,-0.166129 0.17703,-0.149654 0.17696,-0.12987 0.17394,-0.106774 0.0849,-0.04369 0.0831,-0.03667 0.0808,-0.02925 0.0782,-0.0214 0.0753,-0.01314 0.0719,-0.0045 0.0259,0.0014 0.0282,0.0042 0.0304,0.0069 0.0325,0.0096 0.0711,0.02679 0.0785,0.03655 0.0851,0.04574 0.0909,0.05439 0.096,0.06248 0.10029,0.07001 0.10382,0.07699 0.10657,0.08341 0.10855,0.08928 0.10977,0.0946 0.11021,0.09935 0.10988,0.103556 0.10878,0.107205 0.10691,0.110297"
       stroke="#000000"
       stroke-width="0.35 px"
       style="fill:none;fill-opacity:1;fill-rule:evenodd;stroke-width:0.35;stroke-linecap:square;stroke-miterlimit:4;stroke-dasharray:none" />
    <path
       id="PCB_Sketch_1785_w0004"
       d="m 230.65015,-81.957738 2.09593,0.113802 2.05576,0.08764 1.77939,0.05284 1.26685,0.0094 0.47105,-4.49e-4 0.4728,0.01306 0.46182,0.02533 0.43811,0.03634 0.40167,0.0461 0.35249,0.05461 0.29057,0.06188 0.1181,0.03327 0.0978,0.03462 0.11174,0.03603 0.15888,0.03741 0.20307,0.03851 0.24427,0.0393 0.60032,0.0798 0.72958,0.07943 0.83512,0.07669 0.91693,0.07158 0.97501,0.06411 1.00937,0.05427 5.4756,0.27066 3.27575,0.203163 1.09423,0.09817 0.88182,0.107577 0.78194,0.125744 0.79455,0.152671 0.61196,0.132861 0.59554,0.148653 0.57998,0.164886 0.56529,0.181558 0.55144,0.19867 0.53845,0.216222 0.52632,0.234214 0.51504,0.252645 0.50462,0.271516 0.49506,0.290828 0.48635,0.310578 0.47848,0.33077 0.47149,0.3514 0.46535,0.37247 0.46006,0.39398 0.45563,0.415931 0.65066,0.637956 0.57862,0.623138 0.50735,0.611996 0.22719,0.302968 0.20967,0.30156 0.19223,0.300612 0.1749,0.300122 0.15765,0.300093 0.14052,0.300522 0.12347,0.301411 0.10652,0.30276 0.0897,0.304567 0.0729,0.306833 0.0562,0.30956 0.0397,0.312746 0.0232,0.31639 0.007,0.320495 -0.009,0.325058 -0.0256,0.330081 -0.0417,0.335563 -0.0577,0.341504 -0.0736,0.347906 -0.0894,0.354765 -0.10508,0.362085 -0.12068,0.369864 -0.28778,0.764901 -0.34904,0.801528 -0.20899,0.403394 -0.26332,0.427168 -0.31287,0.446424 -0.35764,0.46116 -0.39759,0.471376 -0.43278,0.477073 -0.46317,0.47825 -0.48877,0.474909 -0.50958,0.467048 -0.52559,0.454667 -0.53683,0.437768 -0.54326,0.416348 -0.54492,0.390409 -0.54178,0.359952 -0.53384,0.324974 -0.52113,0.285477 -0.79041,0.396852 -0.66919,0.313458 -0.29067,0.125893 -0.26219,0.105568 -0.23433,0.08542 -0.20708,0.06544 -0.18043,0.04565 -0.15439,0.02602 -0.12897,0.0066 -0.10415,-0.01271 -0.043,-0.01353 -0.037,-0.01828 -0.0311,-0.02301 -0.0253,-0.02772 -0.0195,-0.03241 -0.0138,-0.03708 -0.011,-0.08806 -0.002,-0.01271 -0.006,-0.01066 -0.0102,-0.0086 -0.0141,-0.0066 -0.0179,-0.0047 -0.0216,-0.0027 -0.0252,-8.38e-4 -0.0287,10e-4 -0.0321,0.0029 -0.0354,0.0047 -0.0802,0.01472 -0.0921,0.02162 -0.1032,0.02829 -0.11348,0.03472 -0.12296,0.04091 -0.13161,0.04686 -0.13943,0.05257 -0.14646,0.05805 -0.15264,0.06329 -0.15803,0.06829 -0.16258,0.07305 -0.24629,0.109604 -0.24021,0.09974 -0.2383,0.09063 -0.24057,0.08225 -0.24701,0.07461 -0.25762,0.06772 -0.2724,0.06156 -0.29136,0.05615 -0.31448,0.05148 -0.34179,0.04755 -0.37325,0.04436 -0.4089,0.04191 -0.44872,0.04021 -0.49271,0.03924 -1.13407,0.07855 -0.97632,0.05724 -0.87459,0.03897 -0.77797,0.02064 -0.68644,0.0023 -0.60002,-0.01618 -0.51869,-0.03467 -0.44248,-0.05322 -0.37135,-0.07182 -2.4251,-0.575985 -0.28726,-0.0585 -0.38489,-0.06501 -0.46577,-0.06935 -0.52984,-0.07152 -0.57714,-0.07153 -0.60764,-0.06936 -0.62137,-0.06503 -0.61832,-0.05852 -0.63847,-0.06216 -0.67915,-0.07546 -1.397,-0.179207 -0.67618,-0.09795 -0.63351,-0.09964 -0.57001,-0.09843 -0.48567,-0.09433 -0.45976,-0.08897 -0.49572,-0.08307 -0.51606,-0.07535 -0.52078,-0.0658 -0.50986,-0.05444 -0.48332,-0.04125 -0.44115,-0.02623 -0.38335,-0.0094 -0.49049,-0.0054 -0.45258,-0.01571 -0.41708,-0.02701 -0.384,-0.03927 -0.35333,-0.0525 -0.32506,-0.0667 -0.29923,-0.08188 -0.27579,-0.09802 -0.25478,-0.115133 -0.23618,-0.133216 -0.21999,-0.152267 -0.20621,-0.172289 -0.19484,-0.19328 -0.1859,-0.21524 -0.17936,-0.238171 -0.17525,-0.262071 -0.0866,-0.144161 -0.0933,-0.169395 -0.20306,-0.405989 -0.21929,-0.481423 -0.22855,-0.539859 -0.23085,-0.581293 -0.22618,-0.605729 -0.21455,-0.613165 -0.19594,-0.603601 -0.64843,-2.053197 -0.55693,-1.666316 -0.25514,-0.711501 -0.24545,-0.64289 -0.24017,-0.583646 -0.23928,-0.533772 -0.24279,-0.493267 -0.2507,-0.462132 -0.263,-0.440366 -0.27971,-0.427969 -0.3008,-0.42494 -0.32631,-0.431283 -0.74669,-0.919065 -0.22645,-0.278209 -0.2323,-0.300765 -0.47084,-0.650508 -0.46034,-0.684674 -0.42727,-0.681468 -0.37162,-0.640893 -0.15789,-0.293551 -0.1355,-0.269394 -0.11031,-0.240565 -0.0823,-0.207063 -0.0514,-0.168892 -0.0178,-0.126049 -0.002,-0.04958 -0.006,-0.05177 -0.0105,-0.05353 -0.0143,-0.05488 -0.0179,-0.0558 -0.0213,-0.05631 -0.0244,-0.05639 -0.0274,-0.05606 -0.0301,-0.0553 -0.0326,-0.05412 -0.0349,-0.05252 -0.037,-0.0505 -0.0388,-0.04806 -0.0405,-0.0452 -0.0419,-0.04192 -0.0431,-0.03822 -0.052,-0.04754 -0.0485,-0.05304 -0.0449,-0.05822 -0.0413,-0.06306 -0.0377,-0.06758 -0.0342,-0.07177 -0.0306,-0.07563 -0.0271,-0.07916 -0.0236,-0.08237 -0.0201,-0.08524 -0.0296,-0.177802 -0.0156,-0.185371 -0.002,-0.190316 0.0121,-0.192636 0.0258,-0.192332 0.0395,-0.189404 0.0531,-0.18385 0.0316,-0.08902 0.035,-0.08665 0.0384,-0.08395 0.0417,-0.08092 0.0451,-0.07757 0.0484,-0.07388 0.0518,-0.06987 0.0551,-0.06553 0.0537,-0.05507 0.0601,-0.05145 0.0683,-0.04781 0.0781,-0.04416 0.0896,-0.04049 0.10284,-0.03681 0.11777,-0.03312 0.13439,-0.02942 0.15272,-0.0257 0.17275,-0.02197 0.19447,-0.01823 0.21788,-0.01448 0.24301,-0.01071 0.26983,-0.0069 0.29835,-0.0031 0.32856,6.62e-4 0.75457,0.01279 0.89582,0.02816 1.05067,0.04363 1.2191,0.0592 1.40112,0.07488 1.59673,0.09065 3.83466,0.229033"
       stroke="#000000"
       stroke-width="0.35 px"
       style="fill:none;fill-opacity:1;fill-rule:evenodd;stroke-width:0.35;stroke-linecap:square;stroke-miterlimit:4;stroke-dasharray:none" />
    <path
       id="PCB_Sketch_1785_w0005"
       d="m 223.1128,-164.31285 0.0774,0.0375 0.0752,0.0395 0.0727,0.0411 0.0698,0.0424 0.0665,0.0434 0.0627,0.044 0.0587,0.0443 0.0542,0.0443 0.0493,0.0439 0.044,0.0433 0.0383,0.0422 0.0323,0.0409 0.0259,0.0392 0.019,0.0371 0.007,0.0177 0.005,0.0171 0.003,0.0164 0.001,0.0157 0.006,0.0425 0.0175,0.0652 0.0283,0.0866 0.0386,0.10665 0.10555,0.26798 0.13951,0.33181 0.16878,0.38479 0.19338,0.42689 0.21329,0.45814 0.22853,0.47852 0.43538,0.91606 0.34467,0.75557 0.12746,0.29312 0.0918,0.22361 0.0517,0.14431 0.009,0.0394 -0.002,0.0159 -0.73823,0.34527 -0.69968,0.34733 -0.66098,0.34929 -0.62213,0.35113 -0.58313,0.35283 -0.54398,0.35444 -0.50469,0.35591 -0.46525,0.35727 -0.42566,0.35852 -0.38593,0.35963 -0.34604,0.36064 -0.30601,0.36152 -0.26583,0.36229 -0.2255,0.36294 -0.18502,0.36346 -0.1444,0.36388 -0.10601,0.33663 -0.092,0.34423 -0.078,0.34815 -0.064,0.34841 -0.05,0.34502 -0.036,0.33797 -0.0219,0.32724 -0.008,0.31286 0.006,0.29483 0.0203,0.27312 0.0343,0.24775 0.0484,0.21873 0.0625,0.18605 0.0766,0.14969 0.0436,0.0601 0.0472,0.0496 0.0507,0.0387 0.0542,0.0273 0.0669,0.0172 0.0862,0.008 0.22568,-0.009 0.28895,-0.0411 0.343,-0.0696 0.38782,-0.095 0.4234,-0.11727 0.44976,-0.13643 0.46688,-0.15248 0.47478,-0.1654 0.47344,-0.17522 0.46287,-0.18191 0.44307,-0.18549 0.41404,-0.18596 0.37578,-0.1833 0.32828,-0.17753 0.27157,-0.16866 0.39786,-0.26852 0.16442,-0.10688 0.14588,-0.0894 0.1307,-0.0725 0.0607,-0.0301 0.0582,-0.0261 0.056,-0.0221 0.0543,-0.0183 0.0531,-0.0145 0.0522,-0.0108 0.0518,-0.007 0.0517,-0.004 0.0521,-2e-5 0.053,0.003 0.0542,0.007 0.0559,0.0101 0.0579,0.0133 0.0604,0.0165 0.12998,0.042 0.14499,0.0538 0.34839,0.14039 0.084,0.0328 0.0876,0.0313 0.0905,0.0297 0.0927,0.0279 0.0942,0.026 0.095,0.024 0.0951,0.0218 0.0944,0.0195 0.0931,0.017 0.091,0.0144 0.0883,0.0117 0.0848,0.009 0.0806,0.006 0.0758,0.003 0.0702,-6.5e-4 0.0639,-0.004 0.0633,-0.003 0.0685,0.003 0.073,0.008 0.0769,0.0136 0.0801,0.0186 0.0827,0.0233 0.0846,0.0277 0.0859,0.0319 0.0865,0.0359 0.0865,0.0396 0.0858,0.043 0.0845,0.0462 0.0825,0.0491 0.0799,0.0518 0.0766,0.0542 0.0727,0.0564 0.11413,0.0952 0.0519,0.0458 0.0486,0.0453 0.0454,0.0453 0.0423,0.0457 0.0393,0.0467 0.0364,0.0482 0.0336,0.0502 0.0308,0.0527 0.0282,0.0557 0.0256,0.0591 0.0232,0.0631 0.0209,0.0676 0.0186,0.0726 0.0165,0.0781 0.0144,0.0841 0.0124,0.0907 0.0106,0.0977 0.009,0.10519 0.007,0.1132 0.006,0.12173 0.004,0.13075 0.003,0.14028 0.002,0.31115 -0.003,0.35529 -0.007,0.40345 -0.009,0.45564 -0.0208,0.58185 -0.0366,0.60967 -0.0503,0.61936 -0.0619,0.61092 -0.0716,0.58438 -0.0792,0.53969 -0.0848,0.4769 -0.0884,0.39596 -0.0839,0.35362 -0.0718,0.35551 -0.0586,0.3478 -0.0444,0.33046 -0.029,0.30353 -0.0125,0.26697 3.1e-4,0.11677 0.005,0.10403 0.01,0.0901 0.0144,0.0749 0.0229,0.13844 0.004,0.15499 -0.0147,0.17093 -0.0329,0.18622 -0.0506,0.20088 -0.0679,0.21491 -0.18594,0.46941 -0.24992,0.51795 -0.31041,0.56146 -0.36744,0.5999 -0.42097,0.6333 -0.47102,0.66164 -0.5176,0.68494 -0.5607,0.70319 -0.60032,0.71637 -0.63646,0.72451 -0.66911,0.72759 -0.69829,0.72563 -0.724,0.71862 -0.54582,0.51866 -0.24752,0.22575 -0.23339,0.20522 -0.22136,0.18608 -0.21142,0.16836 -0.2036,0.15201 -0.19787,0.13707 -0.19424,0.12352 -0.19271,0.11137 -0.19329,0.10061 -0.19596,0.0913 -0.20073,0.0833 -0.2076,0.0767 -0.21658,0.0716 -0.22765,0.0678 -2.73206,0.76198 -2.21858,0.58021 -0.94806,0.22615 -0.85728,0.18578 -0.77904,0.14708 -0.71331,0.11006 -0.66013,0.0748 -0.61948,0.0411 -0.59135,0.009 -0.57575,-0.0211 -0.57269,-0.0497 -0.58216,-0.0766 -1.24285,-0.22712 -0.4764,-0.0917 -0.5081,-0.0855 -0.52412,-0.0775 -0.52447,-0.0676 -0.50915,-0.0559 -0.47816,-0.0422 -0.43149,-0.0267 -0.36916,-0.009 -0.3949,-0.0136 -0.43719,-0.0392 -0.4716,-0.0626 -0.49811,-0.0837 -0.51676,-0.10248 -0.52753,-0.11901 -0.5304,-0.13325 -0.52541,-0.14522 -0.51252,-0.15492 -0.49176,-0.16232 -0.46312,-0.16746 -0.42659,-0.17031 -0.38219,-0.17088 -0.3299,-0.16918 -0.26974,-0.16519 -0.20168,-0.15894 -0.0672,-0.0664 -0.0684,-0.0741 -0.0692,-0.0809 -0.0695,-0.087 -0.0692,-0.0922 -0.0686,-0.0967 -0.0673,-0.10039 -0.0657,-0.1033 -0.0635,-0.10541 -0.0609,-0.10673 -0.0577,-0.10727 -0.0541,-0.10702 -0.05,-0.10597 -0.0454,-0.10415 -0.0403,-0.10152 -0.0347,-0.0981 -0.0852,-0.27017 -0.0348,-0.12557 -0.0286,-0.12042 -0.0216,-0.11617 -0.0138,-0.11281 -0.005,-0.11035 0.004,-0.10878 0.0142,-0.10812 0.0251,-0.10834 0.0368,-0.10946 0.0493,-0.11148 0.0626,-0.1144 0.0766,-0.1182 0.0914,-0.12291 0.10705,-0.12851 0.12344,-0.13501 0.14063,-0.1424 0.15859,-0.15069 0.17734,-0.15987 0.19688,-0.16995 0.21719,-0.18093 0.23829,-0.1928 0.26018,-0.20556 0.58913,-0.45302 0.68607,-0.51484 0.78927,-0.58382 0.89875,-0.65997 0.62358,-0.46704 0.57089,-0.44756 0.51192,-0.4224 0.44664,-0.3915 0.3751,-0.35492 0.15876,-0.16194 0.1385,-0.15066 0.11748,-0.13866 0.0957,-0.12593 0.0731,-0.11251 0.0497,-0.0984 0.0563,-0.10644 0.0992,-0.15324 0.13964,-0.19711 0.17772,-0.23807 0.46007,-0.58736 0.58348,-0.71622 0.68762,-0.82176 0.77251,-0.90399 0.8381,-0.96289 0.88442,-0.99847 0.8865,-1.00238 0.84402,-0.97411 0.78185,-0.92174 0.70001,-0.84524 0.59847,-0.74465 0.47724,-0.61995 0.33632,-0.47114 0.10917,-0.17223 0.0666,-0.126 0.19756,-0.44422 0.20508,-0.44392 0.21314,-0.44468 0.22171,-0.44646 0.23084,-0.44932 0.24047,-0.45321 0.25065,-0.45815 0.26135,-0.46415 0.3753,-0.6044 0.56649,-0.84796 0.69601,-1.0055 0.76387,-1.07703 0.77006,-1.06255 0.71459,-0.96206 0.59747,-0.77555 0.41866,-0.50304 0.0666,-0.0752 0.0667,-0.0796 0.0664,-0.0832 0.0656,-0.0862 0.0644,-0.0885 0.0628,-0.0902 0.0607,-0.0911 0.0582,-0.0913 0.0553,-0.0909 0.052,-0.0897 0.0482,-0.0879 0.044,-0.0854 0.0394,-0.0822 0.0343,-0.0783 0.0289,-0.0738 0.0229,-0.0685 0.0638,-0.1797 0.0842,-0.18784 0.10221,-0.19324 0.11772,-0.19593 0.13079,-0.19589 0.14139,-0.19314 0.14955,-0.18766 0.15524,-0.17947 0.15849,-0.16854 0.15929,-0.1549 0.15762,-0.13854 0.15351,-0.11945 0.14694,-0.0976 0.13792,-0.0731 0.0648,-0.0265 0.0616,-0.0194 0.0581,-0.0119 0.0544,-0.004 0.0531,0.002 0.0594,0.005 0.065,0.009 0.07,0.0119 0.0743,0.0149 0.078,0.0177 0.0811,0.0204 0.0835,0.0228 0.0853,0.0251 0.0864,0.0272 0.0869,0.0291 0.0868,0.0308 0.086,0.0324 0.0846,0.0337 0.0826,0.0349 0.0799,0.0359"
       stroke="#000000"
       stroke-width="0.35 px"
       style="fill:none;fill-opacity:1;fill-rule:evenodd;stroke-width:0.35;stroke-linecap:square;stroke-miterlimit:4;stroke-dasharray:none" />
    <path
       id="PCB_Sketch_1785_w0006"
       d="m 271.37472,-53.860093 0.20155,0.106892 0.22692,0.129028 0.24453,0.146244 0.2544,0.15854 0.25652,0.165917 0.2509,0.168375 0.23753,0.165913 0.21641,0.158531 0.24882,0.181467 0.2561,0.175182 0.26171,0.168152 0.26563,0.16038 0.26787,0.151862 0.26842,0.142599 0.26731,0.132592 0.2645,0.121842 0.26001,0.110345 0.25385,0.09811 0.246,0.08512 0.23646,0.07139 0.22525,0.05692 0.21236,0.0417 0.19779,0.02574 0.18152,0.009 0.13162,0.0058 0.13672,0.01663 0.1416,0.02738 0.14628,0.03803 0.15074,0.04857 0.15499,0.059 0.15905,0.06932 0.16287,0.07953 0.1665,0.08964 0.16993,0.09963 0.17312,0.109523 0.17612,0.119303 0.17892,0.128976 0.18148,0.138539 0.18386,0.147996 0.18602,0.157343 0.1068,0.08915 0.1495,0.11988 0.39978,0.310961 0.48853,0.370901 0.52259,0.38885 0.35858,0.276065 0.3333,0.282232 0.30879,0.289896 0.28507,0.299055 0.26215,0.309709 0.12271,0.159316 0.11728,0.162541 0.11193,0.165953 0.10669,0.16955 0.10154,0.173335 0.0965,0.177307 0.0915,0.181466 0.0867,0.185812 0.15923,0.385409 0.14099,0.405034 0.12355,0.426157 0.10688,0.448773 0.091,0.472885 0.0759,0.498492 0.0616,0.525596 0.0677,0.720067 0.0415,0.601019 0.0102,0.264769 0.003,0.245691 -0.005,0.230174 -0.0127,0.218218 -0.0209,0.209823 -0.0294,0.204989 -0.0382,0.203717 -0.0473,0.206005 -0.0566,0.211855 -0.0662,0.221266 -0.16238,0.485009 -0.11288,0.345043 -0.1053,0.368092 -0.0954,0.379782 -0.0832,0.380112 -0.0688,0.369083 -0.052,0.346693 -0.0329,0.312944 -0.009,0.140266 -0.003,0.12757 8.2e-4,0.199498 0.004,0.176604 0.008,0.155877 0.0141,0.13732 0.01,0.06238 0.012,0.05855 0.0144,0.055 0.0169,0.05172 0.0197,0.0487 0.0227,0.04596 0.0259,0.04349 0.0293,0.04129 0.0329,0.03936 0.0367,0.03771 0.0407,0.03632 0.045,0.03521 0.0494,0.03436 0.0541,0.03379 0.0589,0.03349 0.064,0.03346 0.14411,0.06792 0.16692,0.07105 0.19139,0.07636 0.21754,0.08383 0.17269,0.0698 0.1686,0.07616 0.16525,0.08314 0.16266,0.09073 0.1608,0.09894 0.15969,0.107767 0.15933,0.117213 0.15972,0.127275 0.16085,0.137955 0.16273,0.149253 0.16535,0.161168 0.16873,0.173699 0.17284,0.18685 0.1777,0.200616 0.18331,0.215 0.18966,0.230003 0.28679,0.361925 0.27398,0.362699 0.25471,0.353742 0.22898,0.335056 0.1968,0.30664 0.15817,0.268494 0.0626,0.116902 0.0505,0.103717 0.0376,0.08932 0.0239,0.0737 0.0183,0.06469 0.0212,0.06287 0.0239,0.06073 0.0263,0.05827 0.0284,0.05548 0.0303,0.05236 0.0319,0.04892 0.0333,0.04515 0.0344,0.04106 0.0353,0.03664 0.0358,0.0319 0.0362,0.02683 0.0363,0.02143 0.0181,0.0086 0.018,0.0071 0.0179,0.0056 0.0178,0.0041 0.0176,0.0025 0.0174,8.3e-4 0.0217,0.0016 0.0207,0.0047 0.0197,0.0079 0.0187,0.01119 0.0177,0.01447 0.0167,0.01779 0.0157,0.02114 0.0148,0.02453 0.0138,0.02796 0.0128,0.03143 0.0119,0.03493 0.0109,0.03847 0.01,0.04205 0.009,0.04567 0.008,0.04932 0.007,0.05301 0.006,0.05673 0.005,0.0605 0.004,0.0643 0.003,0.06814 0.004,0.147944 6e-4,0.163745 -0.003,0.179844 -0.007,0.196241 -0.01,0.212936 -0.0135,0.229928 -0.0195,0.393807 -0.007,0.37532 0.006,0.357532 0.0184,0.340444 0.0315,0.324054 0.0447,0.308364 0.0582,0.293373 0.0718,0.279081 0.0857,0.265488 0.0998,0.252596 0.11402,0.240401 0.1285,0.228906 0.14316,0.218111 0.15803,0.208014 0.17311,0.198618 0.18839,0.189919 0.18225,0.149686 0.25015,0.170775 0.30986,0.188211 0.36135,0.201994 0.40464,0.212125 0.43973,0.218603 0.95189,0.442031 0.99378,0.424115 0.97003,0.376979 0.45559,0.161682 0.42505,0.138941 0.38628,0.112546 0.33933,0.0825 0.0979,0.02485 0.10691,0.03473 0.11485,0.04398 0.12173,0.0526 0.12755,0.06059 0.13233,0.06795 0.13605,0.07467 0.13872,0.08077 0.14032,0.08624 0.14089,0.09107 0.14039,0.09528 0.13885,0.09885 0.13624,0.101797 0.13259,0.104111 0.12787,0.105793 0.12212,0.106844 0.1924,0.174449 0.16902,0.156378 0.1467,0.140752 0.12546,0.127568 0.10528,0.116828 0.0454,0.05515 0.0408,0.05338 0.0363,0.05192 0.0319,0.05076 0.0276,0.04991 0.0235,0.04936 0.0195,0.04912 0.0157,0.04918 0.012,0.04955 0.008,0.05023 0.005,0.0512 0.002,0.05249 -10e-4,0.05408 -0.005,0.05598 -0.007,0.05818 -0.0102,0.06068 -0.0282,0.13011 -0.0377,0.143801 -0.0461,0.159936 -0.0651,0.208027 -0.0701,0.200635 -0.0755,0.193498 -0.0813,0.186613 -0.0876,0.179983 -0.0942,0.173607 -0.10114,0.167484 -0.10852,0.161614 -0.11628,0.156 -0.12443,0.150637 -0.13297,0.14553 -0.1419,0.140675 -0.15122,0.136075 -0.16093,0.131729 -0.17101,0.127635 -0.18151,0.123796 -0.19237,0.12021 -0.20364,0.116879 -0.21528,0.1138 -0.22733,0.110976 -0.23975,0.108405 -0.25257,0.106088 -0.26577,0.104025 -0.27937,0.102215 -0.60107,0.200017 -0.66012,0.195824 -0.72226,0.19366 -0.78752,0.193526 -1.11551,0.226501 -1.45874,0.239737 -1.71948,0.243261 -1.89776,0.237071 -1.99354,0.22117 -2.00686,0.195556 -1.93769,0.160229 -1.78606,0.115189 -1.69316,0.04678 -1.86491,-0.02723 -2.01481,-0.09753 -2.1429,-0.164096 -4.58268,-0.513014 -4.83297,-0.73462 -4.90857,-0.926441 -4.80951,-1.088476 -2.31301,-0.595694 -2.22274,-0.625034 -2.11063,-0.650649 -1.97669,-0.672543 -2.48782,-0.952658 -2.58471,-1.103304 -2.63557,-1.229853 -2.6404,-1.332304 -2.5992,-1.410659 -2.51196,-1.464916 -2.3787,-1.495077 -2.19942,-1.501141 -1.3724,-0.994871 -1.29269,-0.964884 -1.18219,-0.909845 -1.04092,-0.829755 -0.86886,-0.724613 -0.66604,-0.594422 -0.24733,-0.24056 -0.18508,-0.198618 -0.11899,-0.153544 -0.049,-0.10534 -0.12739,-0.888346 -0.0473,-0.40972 -0.0363,-0.387628 -0.0254,-0.366191 -0.0144,-0.345412 -0.003,-0.325289 0.008,-0.305823 0.0189,-0.287015 0.03,-0.268862 0.0412,-0.251367 0.0524,-0.234529 0.0636,-0.218346 0.0749,-0.202822 0.0861,-0.187954 0.0975,-0.173742 0.0598,-0.09013 0.0696,-0.09304 0.16616,-0.193308 0.19817,-0.200414 0.22546,-0.20449 0.24801,-0.205536 0.26582,-0.203555 0.27891,-0.198544 0.28726,-0.190505 0.29088,-0.179435 0.28975,-0.165339 0.28391,-0.148211 0.27332,-0.128057 0.258,-0.104872 0.23796,-0.07866 0.10997,-0.02855 0.10319,-0.02086 0.0958,-0.0128 0.0878,-0.0043 0.0275,-0.0031 0.0332,-0.0091 0.0388,-0.01492 0.0441,-0.02062 0.10368,-0.05777 0.123,-0.0788 0.14089,-0.09864 0.15731,-0.117277 0.17229,-0.13472 0.18583,-0.150965 0.19791,-0.166013 0.20854,-0.179863 0.21773,-0.192518 0.22546,-0.203975 0.23175,-0.214235 0.23659,-0.223298 0.23997,-0.231164 0.24191,-0.237833 0.60038,-0.606841 0.51117,-0.540536 0.2241,-0.247966 0.20417,-0.234464 0.18502,-0.221986 0.16665,-0.210532 0.14908,-0.200105 0.13229,-0.1907 0.1163,-0.18232 0.10108,-0.174966 0.0867,-0.168636 0.073,-0.16333 0.0602,-0.159048 0.0481,-0.155792 0.0343,-0.11874 0.0391,-0.124029 0.0907,-0.259886 0.10452,-0.268928 0.11476,-0.269893 0.12139,-0.262782 0.12445,-0.247593 0.12394,-0.224328 0.0607,-0.100916 0.0592,-0.09207 0.0576,-0.08918 0.056,-0.09242 0.0541,-0.09494 0.052,-0.09674 0.0495,-0.09782 0.0468,-0.09817 0.0437,-0.0978 0.0404,-0.0967 0.0368,-0.09488 0.0328,-0.09234 0.0286,-0.08907 0.0241,-0.08508 0.0193,-0.08037 0.0143,-0.07493 0.009,-0.06877 0.003,-0.06189 0.003,-0.08295 0.009,-0.08625 0.0147,-0.08928 0.02,-0.09204 0.0555,-0.191316 0.0748,-0.199168 0.0926,-0.20488 0.10899,-0.208453 0.12388,-0.209889 0.13729,-0.209184 0.14922,-0.20634 0.15969,-0.201359 0.16866,-0.194238 0.17617,-0.184977 0.18221,-0.173579 0.18677,-0.160041 0.18985,-0.144364 0.19147,-0.126549 0.20601,-0.112988 0.22518,-0.100511 0.24146,-0.08787 0.25483,-0.07507 0.2653,-0.06212 0.27287,-0.049 0.27753,-0.03571 0.2793,-0.02227 0.27816,-0.0087 0.27413,0.0051 0.26719,0.01902 0.25734,0.03311 0.2446,0.04736 0.22896,0.06177 0.21042,0.07634 0.18896,0.09107 0.13458,0.06669 0.16061,0.06383 0.19093,0.06155 0.22552,0.05986 0.26438,0.05876 0.30752,0.05824 0.35493,0.05831 0.40663,0.05896 0.46259,0.0602 0.52283,0.06202 1.24349,0.131864 1.53576,0.146198 1.86224,0.165221 1.41519,0.135351 1.3497,0.151845 1.13143,0.149767 0.43611,0.0683 0.32424,0.06081 0.15218,0.02787 0.19266,0.02721 0.49517,0.05187 0.62226,0.04749 0.72609,0.04194 0.8067,0.03522 0.86405,0.02733 0.89818,0.01827 0.90905,0.008 1.36698,2.28e-4 1.08395,-0.01214 0.85717,-0.03094 0.36112,-0.02453 0.32552,-0.03164 0.29696,-0.03956 0.27542,-0.04828 0.26091,-0.05781 0.25344,-0.06814 0.253,-0.07928 0.25959,-0.09122 0.56707,-0.221478 0.40462,-0.151497 0.47433,-0.155731 0.52673,-0.155528 0.56184,-0.150887 0.57963,-0.141807 0.58011,-0.128289 0.5633,-0.110333 0.52916,-0.08794 0.68154,-0.108535 0.5841,-0.110717 0.2609,-0.05801 0.24298,-0.06076 0.22724,-0.06425 0.21365,-0.06846 0.2022,-0.07342 0.19291,-0.0791 0.18577,-0.08553 0.18079,-0.09268 0.17796,-0.100573 0.17727,-0.109199 0.17875,-0.118559 0.18238,-0.128653 0.27038,-0.183399 0.27608,-0.162893 0.28107,-0.142322 0.28539,-0.121686 0.28899,-0.100983 0.29191,-0.08022 0.29412,-0.05938 0.29565,-0.03848 0.29647,-0.01751 0.29661,0.0035 0.29604,0.02462 0.29477,0.04578 0.29282,0.06701 0.29016,0.0883 0.28682,0.109664 0.28277,0.131091"
       stroke="#000000"
       stroke-width="0.35 px"
       style="fill:none;fill-opacity:1;fill-rule:evenodd;stroke-width:0.35;stroke-linecap:square;stroke-miterlimit:4;stroke-dasharray:none" />
    <path
       id="PCB_Sketch_1785_w0007"
       d="m 214.28383,-167.46097 -0.0338,0.0392 -0.0345,0.0372 -0.0353,0.0353 -0.0362,0.0334 -0.0371,0.0316 -0.0381,0.0298 -0.0392,0.028 -0.0404,0.0264 -0.0416,0.0247 -0.0429,0.0231 -0.0443,0.0216 -0.0457,0.0201 -0.0472,0.0186 -0.0488,0.0173 -0.0504,0.0159 -0.10615,0.028 -0.11363,0.0232 -0.12171,0.0188 -0.13034,0.0148 -0.1126,0.009 -0.10937,0.005 -0.10622,2.5e-4 -0.10316,-0.004 -0.10021,-0.009 -0.0973,-0.0133 -0.0946,-0.018 -0.0919,-0.0227 -0.0893,-0.0276 -0.0868,-0.0325 -0.0844,-0.0375 -0.0821,-0.0426 -0.0799,-0.0478 -0.0777,-0.0531 -0.0757,-0.0585 -0.0738,-0.0639 -0.0719,-0.0694 -0.0702,-0.075 -0.0685,-0.0808 -0.0669,-0.0865 -0.0655,-0.0924 -0.0641,-0.0984 -0.0628,-0.1044 -0.0616,-0.11052 -0.11994,-0.23976 -0.11626,-0.26527 -0.11332,-0.29146 -0.11112,-0.31834 -0.118,-0.33261 -0.12843,-0.31847 -0.139,-0.30452 -0.14972,-0.29072 -0.16059,-0.27711 -0.17161,-0.26367 -0.18278,-0.25039 -0.19409,-0.23728 -0.20557,-0.22436 -0.21717,-0.21161 -0.22895,-0.19901 -0.24085,-0.18661 -0.25292,-0.17436 -0.26513,-0.1623 -0.27749,-0.15039 -0.29,-0.13868 -0.20207,-0.0863 -0.20605,-0.0784 -0.21502,-0.071 -0.22896,-0.0642 -0.2479,-0.058 -0.2718,-0.0523 -0.30068,-0.0473 -0.33456,-0.0428 -0.3734,-0.0388 -0.41724,-0.0355 -0.46604,-0.0327 -0.51984,-0.0305 -1.22097,-0.0567 -1.4959,-0.0548 -1.93995,-0.0776 -1.54963,-0.0951 -0.64196,-0.0574 -0.5606,-0.0657 -0.48465,-0.0753 -0.41412,-0.0863 -0.34898,-0.0985 -0.28926,-0.11206 -0.23495,-0.12692 -0.18605,-0.14309 -0.14255,-0.16058 -0.10446,-0.17936 -0.0718,-0.19946 -0.0445,-0.22087 -0.0116,-0.0726 -0.0143,-0.0724 -0.0169,-0.0718 -0.0192,-0.0708 -0.0213,-0.0693 -0.0232,-0.0673 -0.0249,-0.0649 -0.0264,-0.062 -0.0277,-0.0587 -0.0288,-0.0549 -0.0296,-0.0506 -0.0303,-0.0459 -0.0308,-0.0408 -0.031,-0.0352 -0.0311,-0.0291 -0.031,-0.0226 -0.029,-0.0315 -0.0148,-0.0492 -10e-4,-0.0662 0.0123,-0.0826 0.0253,-0.0984 0.0379,-0.11347 0.11187,-0.26968 0.15736,-0.32243 0.19967,-0.37003 0.23876,-0.41251 0.27466,-0.44988 0.30736,-0.48211 0.33686,-0.50923 0.36316,-0.53122 0.38625,-0.54808 0.40616,-0.55982 0.42286,-0.56645 0.43636,-0.56793 0.44665,-0.56431 0.59517,-0.72366 0.608,-0.70634 0.61957,-0.68793 0.62986,-0.66842 0.63887,-0.64782 0.6466,-0.62611 0.65306,-0.60332 0.65823,-0.57942 0.66215,-0.55443 0.66476,-0.52835 0.66612,-0.50116 0.66619,-0.47287 0.66498,-0.44351 0.66251,-0.41302 0.65874,-0.38146 0.65371,-0.34879 0.4851,-0.24319 0.45761,-0.21955 0.43482,-0.19704 0.41674,-0.17564 0.40337,-0.15536 0.39469,-0.13617 0.39073,-0.11812 0.39147,-0.10116 0.39691,-0.0853 0.40705,-0.0706 0.42192,-0.057 0.44146,-0.0445 0.46573,-0.0331 0.4947,-0.0229 0.52837,-0.0137 0.56675,-0.006 3.0052,-0.0102 2.6063,1.30474 0.51824,0.26606 0.49672,0.26826 0.47355,0.26915 0.44875,0.26874 0.4223,0.26703 0.39421,0.264 0.36446,0.25969 0.33309,0.25408 0.30005,0.24715 0.26539,0.23892 0.22906,0.22941 0.19111,0.21857 0.1515,0.20645 0.11025,0.19302 0.0673,0.17829 0.0171,0.0832 0.006,0.079 -0.0857,0.32084 -0.24428,0.59912 -0.88797,1.88877 -1.29318,2.56906 -1.54559,2.96081 -1.64518,3.06402 -1.59197,2.87871 -1.38596,2.40485 -1.02712,1.64247 -0.18319,0.27239 -0.18775,0.28753 -0.18701,0.29398 -0.18095,0.29174 -0.16957,0.28083 -0.15289,0.26124 -0.13088,0.23296 -0.10355,0.19599 -0.0612,0.11612 -0.0617,0.1066 -0.0629,0.0975 -0.0646,0.0888 -0.0332,0.0412"
       stroke="#000000"
       stroke-width="0.35 px"
       style="fill:none;fill-opacity:1;fill-rule:evenodd;stroke-width:0.35;stroke-linecap:square;stroke-miterlimit:4;stroke-dasharray:none" />
    <path
       id="PCB_Sketch_1785_w0008"
       d="m 179.70342,-112.0523 0.17325,0.008 0.17753,0.0146 0.18149,0.0209 0.18515,0.0272 0.18848,0.0333 0.19151,0.0394 0.19422,0.0454 0.19663,0.0513 0.19871,0.0571 0.20048,0.0628 0.20194,0.0685 0.20309,0.074 0.20393,0.0795 0.20445,0.0849 0.20465,0.0902 0.20456,0.0954 0.43916,0.2013 0.48532,0.20591 1.07684,0.41592 1.16451,0.40521 1.18751,0.37507 1.14586,0.32553 1.03952,0.25656 0.45968,0.0963 0.40884,0.0718 0.34992,0.0449 0.28292,0.0155 0.11178,0.003 0.1111,0.008 0.11026,0.0136 0.10923,0.0188 0.10801,0.0238 0.1066,0.0287 0.10503,0.0334 0.10325,0.0379 0.1013,0.0423 0.0992,0.0465 0.0968,0.0506 0.0943,0.0545 0.18042,0.12003 0.16819,0.13371 0.079,0.0716 0.0754,0.0745 0.0716,0.0773 0.0677,0.0799 0.0635,0.0824 0.0591,0.0847 0.0546,0.0868 0.0499,0.0888 0.045,0.0906 0.0399,0.0923 0.0347,0.0938 0.0292,0.0952 0.0236,0.0964 0.0178,0.0974 0.0118,0.0982 0.006,0.099 -0.003,0.17927 -0.0171,0.21085 -0.0298,0.23832 -0.0414,0.2617 -0.11368,0.57712 -0.14773,0.62142 -0.1734,0.63291 -0.19066,0.61161 -0.0992,0.28756 -0.10035,0.26993 -0.10046,0.2482 -0.0995,0.22237 -0.0659,0.14154 -0.0569,0.12913 -0.0479,0.11853 -0.0388,0.10973 -0.0297,0.10277 -0.0114,0.0493 -0.009,0.0483 -0.007,0.0474 -0.004,0.0468 -0.002,0.0464 1.5e-4,0.0463 0.002,0.0463 0.005,0.0466 0.007,0.0472 0.01,0.0479 0.0119,0.0489 0.0143,0.0501 0.0356,0.10468 0.0452,0.11222 0.0548,0.12155 0.0644,0.1327 0.0741,0.14567 0.092,0.18471 0.0814,0.17676 0.0694,0.1646 0.0558,0.148276 0.0224,0.0667 0.0185,0.06105 0.0143,0.05488 0.01,0.04818 0.006,0.04095 8.8e-4,0.03321 -0.004,0.02494"
       stroke="#000000"
       stroke-width="0.35 px"
       style="fill:none;fill-opacity:1;fill-rule:evenodd;stroke-width:0.35;stroke-linecap:square;stroke-miterlimit:4;stroke-dasharray:none" />
    <path
       id="PCB_Sketch_1785_w0009"
       d="m 203.74591,-166.60667 0.24491,0.0814 0.1131,0.0425 0.10711,0.0443 0.10133,0.0465 0.0957,0.049 0.0903,0.052 0.0851,0.0554 0.0801,0.0591 0.0753,0.0633 0.0707,0.0678 0.0662,0.0728 0.062,0.0782 0.058,0.0839 0.0541,0.0901 0.0505,0.0967 0.047,0.10361 0.0438,0.11096 0.0407,0.11872 0.0378,0.12687 0.0352,0.13542 0.0327,0.14438 0.0304,0.15373 0.0283,0.16347 0.0511,0.3578 0.045,0.4016 0.0405,0.44857 0.0376,0.49876 0.046,0.54765 0.0623,0.57215 0.0758,0.57975 0.0865,0.57046 0.0946,0.54425 0.0998,0.50115 0.10235,0.44114 0.10212,0.36424 0.28205,0.92582 0.10986,0.39753 0.0889,0.36114 0.0677,0.33016 0.0465,0.30458 0.025,0.2844 0.003,0.26964 -0.0183,0.26026 -0.0402,0.2563 -0.0623,0.25774 -0.0845,0.26458 -0.10684,0.27683 -0.12934,0.29448 -0.152,0.31753 -0.17481,0.34599 -0.23782,0.45148 -0.24194,0.43668 -0.24904,0.42566 -0.2591,0.41841 -0.27215,0.41491 -0.28815,0.41519 -0.30714,0.41923 -0.3291,0.42705 -0.35404,0.43862 -0.38193,0.45396 -0.41281,0.47308 -0.44666,0.49596 -0.48347,0.5226 -0.52328,0.55301 -1.17781,1.21233 -1.24513,1.22951 -2.08543,1.0043 -2.3,-0.5 -1.8,-1.4 -0.7,-2 -0.7,-2.1 -3,-2.2 -2.3,-0.7 -2.6,-0.5 -1.6,-1 -0.36747,-1.48878 0.54596,-1.17344 0.52595,-1.06174 0.52767,-0.98921 0.5511,-0.95583 0.59623,-0.96159 0.66309,-1.00651 0.75165,-1.09057 0.86534,-1.23034 0.66845,-0.92336 0.27612,-0.36048 0.24579,-0.30043 0.22173,-0.24596 0.20399,-0.19705 0.19252,-0.15371 0.18736,-0.11594 0.18848,-0.0837 0.19591,-0.0571 0.20962,-0.036 0.22963,-0.0205 0.54445,-0.0168 0.32428,-0.009 0.36376,-0.0161 0.79664,-0.0487 0.80649,-0.065 0.3761,-0.0364 0.34153,-0.0378 1.03899,-0.0755 1.41609,-0.0369 1.65108,-0.002 1.744,0.0296 1.69483,0.0574 1.50356,0.0816 1.17021,0.10227 0.4157,0.0577 0.27908,0.0616"
       stroke="#000000"
       stroke-width="0.35 px"
       style="fill:none;fill-opacity:1;fill-rule:evenodd;stroke-width:0.35;stroke-linecap:square;stroke-miterlimit:4;stroke-dasharray:none" />
    <path
       id="PCB_Sketch_1785_w0010"
       d="m 235.8945,-137.88141 -0.004,-0.0115 -0.003,-0.0134 -0.003,-0.0153 -0.002,-0.0171 -0.001,-0.0188 -6.2e-4,-0.0427 0.002,-0.0491 0.005,-0.055 0.007,-0.0605 0.01,-0.0655 0.0123,-0.0701 0.0147,-0.0743 0.0171,-0.078 0.0195,-0.0813 0.0218,-0.0842 0.024,-0.0866 0.084,-0.34378 0.0764,-0.41421 0.0686,-0.47672 0.0605,-0.53134 0.0957,-1.19489 0.0603,-1.31848 0.0231,-1.37885 -0.0162,-1.37598 -0.0573,-1.30988 -0.0447,-0.61039 -0.0558,-0.57015 -0.062,-0.58692 -0.0518,-0.55745 -0.0408,-0.51508 -0.0291,-0.45981 -0.0167,-0.39161 -0.004,-0.31052 0.0101,-0.21651 0.0104,-0.069 0.0141,-0.0406 0.01,-0.0125 0.013,-0.0114 0.0161,-0.0102 0.0191,-0.009 0.0221,-0.008 0.0249,-0.007 0.0277,-0.006 0.0304,-0.004 0.0685,-0.005 0.0782,-10e-4 0.0872,0.003 0.0955,0.008 0.10307,0.0119 0.10995,0.016 0.11614,0.0201 0.12161,0.0242 0.1264,0.0281 0.13047,0.032 0.13384,0.0358 0.13652,0.0396 0.54861,0.14268 0.58746,0.11074 0.62201,0.0793 0.65221,0.0483 0.67809,0.0179 0.69965,-0.0121 0.71687,-0.0415 0.72976,-0.0705 0.73834,-0.0989 0.74257,-0.12687 0.74248,-0.15432 0.73807,-0.18127 0.72933,-0.20773 0.71625,-0.23368 0.69885,-0.25914 0.67712,-0.2841 0.73372,-0.32468 0.5626,-0.23988 0.22419,-0.0896 0.18987,-0.0702 0.1584,-0.0513 0.12973,-0.033 0.10389,-0.0153 0.0809,0.002 0.0327,0.007 0.028,0.0112 0.0236,0.0152 0.0197,0.0191 0.016,0.0229 0.0127,0.0267 0.0171,0.0644 0.008,0.0786 0.002,0.0922 -0.0191,0.0747 -0.0559,0.11367 -0.21447,0.33531 -0.33834,0.46428 -0.4466,0.57525 -1.15542,1.41148 -1.40088,1.63954 -1.52132,1.72371 -1.51674,1.66399 -1.38713,1.46038 -0.60589,0.60886 -0.52661,0.504 -0.82177,0.73778 -0.90016,0.77079 -0.92655,0.76332 -0.9009,0.71534 -0.82323,0.62687 -0.69355,0.49791 -0.28188,0.18793 -0.22996,0.14051 -0.17152,0.088 -0.10659,0.0305"
       stroke="#000000"
       stroke-width="0.35 px"
       style="fill:none;fill-opacity:1;fill-rule:evenodd;stroke-width:0.35;stroke-linecap:square;stroke-miterlimit:4;stroke-dasharray:none" />
    <path
       id="PCB_Sketch_1785_w0011"
       d="m 259.35052,-191.64195 0.79185,0.68147 -0.002,4.6102 -0.002,4.61022 -1.17414,2.96333 -0.50176,1.25081 -0.4982,1.2151 -0.43706,1.04048 -0.31831,0.72695 -0.0592,0.13434 -0.0576,0.14034 -0.10927,0.29407 -0.0993,0.30433 -0.0869,0.30544 -0.072,0.29741 -0.0297,0.14284 -0.0251,0.1374 -0.0202,0.13083 -0.015,0.1231 -0.009,0.11425 -0.004,0.10424 -0.005,0.11136 -0.0135,0.13515 -0.0215,0.15708 -0.0291,0.17717 -0.0794,0.40723 -0.10452,0.46543 -0.12619,0.50886 -0.14435,0.53751 -0.15903,0.5514 -0.17021,0.55051 -0.32875,1.05151 -0.26921,0.90913 -0.1819,0.66954 -0.0495,0.21455 -0.0173,0.11819 -0.006,0.0783 -0.0172,0.0946 -0.0662,0.23438 -0.10504,0.28788 -0.13947,0.33341 -0.16955,0.37094 -0.19525,0.40049 -0.45015,0.8577 -0.50056,0.8801 -0.25826,0.42848 -0.25775,0.41012 -0.25289,0.38379 -0.24365,0.34947 -0.23004,0.30715 -0.21207,0.25687 -0.18171,0.20301 -0.17299,0.18518 -0.16714,0.16909 -0.16418,0.15472 -0.1641,0.14205 -0.16692,0.13113 -0.17262,0.12192 -0.18121,0.11442 -0.19268,0.10867 -0.20703,0.10461 -0.22429,0.1023 -0.24441,0.1017 -0.26743,0.10282 -0.29334,0.10567 -0.32212,0.11023 -0.3538,0.11653 -0.68591,0.20455 -0.69958,0.17361 -0.71073,0.14274 -0.71936,0.11197 -0.72544,0.0813 -0.72901,0.0507 -0.73005,0.0202 -0.72855,-0.0102 -0.72454,-0.0406 -0.71799,-0.0708 -0.70892,-0.10096 -0.69732,-0.13103 -0.68318,-0.161 -0.66653,-0.1909 -0.64735,-0.22069 -0.62563,-0.2504 -0.3704,-0.18716 -0.44397,-0.26948 -0.5048,-0.34067 -0.55289,-0.40074 -0.58822,-0.44969 -0.6108,-0.48753 -1.23837,-1.04406 -1.17573,-1.06192 -0.5325,-0.50986 -0.4786,-0.48097 -0.41194,-0.44094 -0.33254,-0.38981 -0.24039,-0.32754 -0.0816,-0.13695 -0.0538,-0.11722 -0.0832,-0.21476 -0.11018,-0.26716 -0.13238,-0.30895 -0.14984,-0.34009 -0.33312,-0.73116 -0.17381,-0.36981 -0.17232,-0.35846 -0.24911,-0.57048 -0.20443,-0.59361 -0.16068,-0.61483 -0.11783,-0.63416 -0.0759,-0.65155 -0.0349,-0.66706 0.005,-0.68064 0.0445,-0.69232 0.0828,-0.70209 0.12014,-0.70996 0.1566,-0.7159 0.19217,-0.71995 0.48738,-1.44439 0.6187,-1.43766 0.74272,-1.41566 0.85947,-1.37837 0.96893,-1.32583 1.0711,-1.25801 1.16598,-1.17491 0.61629,-0.55153 0.63728,-0.52503 0.65736,-0.49661 0.67653,-0.4663 0.69478,-0.43408 0.71213,-0.39993 0.21765,-0.11252 0.22037,-0.10815 0.22256,-0.10359 0.22417,-0.0989 0.22525,-0.0939 0.22576,-0.0888 0.22572,-0.0835 0.22512,-0.078 0.22398,-0.0724 0.22228,-0.0665 0.22003,-0.0605 0.21721,-0.0543 0.21385,-0.0479 0.20994,-0.0412 0.20546,-0.0345 0.20045,-0.0275 0.17706,-0.0242 0.18383,-0.0304 0.18918,-0.0361 0.19308,-0.0414 0.3922,-0.097 0.39069,-0.1129 0.37777,-0.12524 0.3534,-0.13403 0.16399,-0.0692 0.15362,-0.0701 0.14181,-0.0705 0.12857,-0.0705 0.13038,-0.071 0.14775,-0.0723 0.16347,-0.0731 0.17754,-0.0734 0.18995,-0.0732 0.20072,-0.0725 0.42713,-0.14069 0.45035,-0.13163 0.46037,-0.11847 0.45716,-0.10121 0.22325,-0.0428 0.21748,-0.037 0.99406,-0.16556 1.17443,-0.20818 1.20806,-0.22418 1.09499,-0.21355 0.52333,-0.0979 0.56832,-0.0928 0.59516,-0.0857 0.60383,-0.0763 0.59432,-0.0649 0.56666,-0.0513 0.52082,-0.0356 0.45683,-0.0177 0.6015,-0.007 0.25752,0.002 0.23209,0.007 0.20922,0.0118 0.18891,0.0174 0.17114,0.0236 0.15592,0.0304 0.14327,0.0377 0.13315,0.0457 0.12559,0.0542 0.12059,0.0633 0.11813,0.073 0.11823,0.0833 0.12088,0.0941 0.12608,0.10557"
       stroke="#000000"
       stroke-width="0.35 px"
       style="fill:none;fill-opacity:1;fill-rule:evenodd;stroke-width:0.35;stroke-linecap:square;stroke-miterlimit:4;stroke-dasharray:none" />
    <path
       id="PCB_Sketch_1785_w0012"
       d="m 192.47949,-99.589772 -0.0268,0.01239 -0.0429,1.57e-4 -0.0583,-0.01171 -0.0732,-0.02322 -0.1889,-0.07952 -0.2418,-0.121228 -0.29021,-0.160046 -0.33414,-0.195981 -0.37358,-0.22903 -0.40855,-0.25919 -0.90406,-0.59732 -0.99013,-0.68334 -1.04034,-0.74627 -1.05469,-0.78612 -3.74469,-2.8441 -0.23134,-0.17222 -0.26593,-0.19294 -0.59801,-0.42191 -0.62352,-0.42642 -0.29782,-0.19857 -0.27599,-0.18011 -0.33729,-0.22045 -0.30978,-0.20942 -0.28308,-0.19921 -0.25716,-0.18984 -0.23203,-0.1813 -0.2077,-0.17359 -0.18416,-0.16672 -0.16141,-0.16067 -0.13945,-0.15546 -0.11829,-0.15109 -0.0979,-0.14754 -0.0783,-0.14483 -0.0596,-0.14294 -0.0416,-0.1419 -0.0243,-0.14169 -0.008,-0.1423 -0.002,-0.0712 -0.006,-0.0728 -0.0105,-0.0738 -0.0143,-0.0744 -0.0179,-0.0743 -0.0213,-0.0738 -0.0244,-0.0727 -0.0274,-0.0711 -0.0301,-0.069 -0.0326,-0.0664 -0.0349,-0.0632 -0.037,-0.0595 -0.0388,-0.0552 -0.0405,-0.0505 -0.0419,-0.0451 -0.0431,-0.0393 -0.0569,-0.0486 -0.0525,-0.0478 -0.0482,-0.0468 -0.0439,-0.0457 -0.0396,-0.0446 -0.0354,-0.0434 -0.0312,-0.0421 -0.027,-0.0407 -0.0228,-0.0392 -0.0187,-0.0376 -0.0146,-0.0359 -0.0105,-0.0342 -0.006,-0.0324 -0.002,-0.0304 0.002,-0.0284 0.006,-0.0263 0.01,-0.0241 0.0135,-0.0218 0.0174,-0.0194 0.0213,-0.0169 0.0251,-0.0144 0.0289,-0.0117 0.0327,-0.009 0.0365,-0.006 0.0402,-0.003 0.0439,-2.8e-4 0.0476,0.003 0.0512,0.006 0.0549,0.009 0.0585,0.0126 0.0621,0.0161 0.0656,0.0196 0.0715,0.0206 0.0839,0.0204 0.20082,0.0398 0.23791,0.0377 0.26659,0.0346 0.28689,0.0305 0.29881,0.0254 0.30231,0.0193 0.29744,0.0123"
       stroke="#000000"
       stroke-width="0.35 px"
       style="fill:none;fill-opacity:1;fill-rule:evenodd;stroke-width:0.35;stroke-linecap:square;stroke-miterlimit:4;stroke-dasharray:none" />
    <path
       id="PCB_Sketch_1785_w0013"
       d="m 190.13456,-125.71426 1.34256,0.5522 1.44995,0.55375 1.5112,0.54034 1.52634,0.51195 1.49537,0.46861 1.41827,0.41029 1.29506,0.33701 1.12573,0.24877 0.39246,0.0669 0.52201,0.0743 0.62901,0.0793 0.71342,0.0818 1.58981,0.16106 0.83125,0.0743 0.82538,0.0669 1.6094,0.12934 1.46125,0.12865 1.15215,0.11307 0.68212,0.0826 0.95382,0.15128 -1.02038,0.69337 -0.25319,0.16649 -0.3294,0.20792 -0.83194,0.50688 -0.97032,0.57284 -0.9977,0.57233 -0.51871,0.29765 -0.56935,0.33543 -1.21635,0.73827 -1.19607,0.75171 -0.544,0.35221 -0.48323,0.32117 -0.52673,0.34437 -0.51414,0.3129 -0.50008,0.28072 -0.24433,0.12808 -0.24027,0.11976 -0.23604,0.11138 -0.23162,0.1029 -0.22703,0.0943 -0.22225,0.0857 -0.2173,0.0769 -0.21216,0.0681 -0.20685,0.0592 -0.20134,0.0502 -0.44107,0.0844 -0.53128,0.0734 -1.27631,0.11366 -1.4665,0.0693 -1.54293,0.0248 -1.50559,-0.0199 -1.35448,-0.0648 -0.58501,-0.0493 -0.50458,-0.0606 -0.40991,-0.0719 -0.30103,-0.0832 -0.22981,-0.077 -0.28343,-0.0829 -0.3259,-0.0862 -0.35723,-0.0868 -0.37743,-0.0849 -0.38649,-0.0803 -0.38439,-0.0732 -0.37118,-0.0634 -0.43132,-0.0771 -0.43291,-0.0935 -0.43334,-0.10934 -0.4326,-0.12468 -0.43069,-0.13948 -0.42761,-0.15376 -0.42336,-0.16752 -0.41795,-0.18075 -0.41135,-0.19345 -0.40361,-0.20561 -0.39468,-0.21726 -0.38458,-0.22838 -0.37333,-0.23897 -0.36089,-0.24902 -0.34729,-0.25857 -0.33253,-0.26757 -0.32849,-0.28874 -0.35274,-0.33491 -0.37113,-0.37378 -0.38367,-0.40537 -0.39037,-0.42968 -0.39119,-0.4467 -0.76146,-0.91533 -0.35855,-0.45406 -0.33597,-0.44195 -0.30753,-0.42256 -0.27322,-0.39588 -0.23308,-0.36191 -0.18707,-0.32066 -0.1352,-0.27214 -0.0775,-0.21631 -0.022,-0.0756 -0.0288,-0.0799 -0.0352,-0.0835 -0.0411,-0.0865 -0.0465,-0.0887 -0.0515,-0.0903 -0.056,-0.0911 -0.06,-0.0913 -0.0636,-0.0908 -0.0667,-0.0896 -0.0694,-0.0877 -0.0715,-0.0851 -0.0733,-0.0819 -0.0745,-0.0779 -0.0753,-0.0733 -0.0756,-0.068 -0.73275,-0.63112 0.70555,-0.14731 0.18493,-0.0328 0.25604,-0.0367 0.31557,-0.0394 0.36353,-0.0409 0.39991,-0.0411 0.42471,-0.04 0.43794,-0.0378 0.43959,-0.0342 0.47128,-0.0454 0.52874,-0.0697 0.56826,-0.0905 0.58984,-0.10789 0.59348,-0.12176 0.57918,-0.13215 0.54693,-0.13905 0.49674,-0.14248 0.59056,-0.17732 0.53933,-0.15125 0.49628,-0.12449 0.46142,-0.097 0.43474,-0.0688 0.41625,-0.0398 0.40595,-0.0102 0.40384,0.0202 0.40992,0.0512 0.42417,0.0831 0.44663,0.11558 0.47726,0.14882 0.51609,0.18278 0.56309,0.21746 0.6183,0.25286 0.68168,0.28897"
       stroke="#000000"
       stroke-width="0.35 px"
       style="fill:none;fill-opacity:1;fill-rule:evenodd;stroke-width:0.35;stroke-linecap:square;stroke-miterlimit:4;stroke-dasharray:none" />
    <path
       id="PCB_Sketch_1785_w0014"
       d="m 172.5,-138.1 h 16.7 l 0.1,-6.5 h -16.8 -1.1 v 6.5 h 1.1"
       stroke="#000000"
       stroke-width="0.35 px"
       style="fill:none;fill-opacity:1;fill-rule:evenodd;stroke-width:0.35;stroke-linecap:square;stroke-miterlimit:4;stroke-dasharray:none" />
    <title
       id="title1093">b'PCB_Sketch_1785'</title>
  </g>
</svg>
