<?xml version="1.0" encoding="UTF-8" standalone="no"?>
<!-- Created with Inkscape (http://www.inkscape.org/) -->

<svg
   version="1.1"
   id="svg48"
   width="556.79999"
   height="800"
   viewBox="0 0 556.79999 800"
   sodipodi:docname="wingOutline.svg"
   inkscape:version="1.2.1 (9c6d41e410, 2022-07-14, custom)"
   xmlns:inkscape="http://www.inkscape.org/namespaces/inkscape"
   xmlns:sodipodi="http://sodipodi.sourceforge.net/DTD/sodipodi-0.dtd"
   xmlns="http://www.w3.org/2000/svg"
   xmlns:svg="http://www.w3.org/2000/svg">
  <sodipodi:namedview
     id="namedview526"
     pagecolor="#ffffff"
     bordercolor="#666666"
     borderopacity="1.0"
     inkscape:showpageshadow="2"
     inkscape:pageopacity="0.0"
     inkscape:pagecheckerboard="0"
     inkscape:deskcolor="#d1d1d1"
     showgrid="false"
     inkscape:zoom="1.668772"
     inkscape:cx="287.63666"
     inkscape:cy="432.65347"
     inkscape:window-width="1716"
     inkscape:window-height="1393"
     inkscape:window-x="1080"
     inkscape:window-y="262"
     inkscape:window-maximized="1"
     inkscape:current-layer="g54" />
  <defs
     id="defs52" />
  <g
     id="g54">
    <path
       style="fill:none;stroke-width:1;stroke:#000000;stroke-dasharray:none"
       d="m 337.16158,781.48782 c -12.27928,-1.0663 -28.73154,-4.19582 -46.4,-8.82611 -10.85333,-2.84429 -21.41333,-5.49454 -23.46667,-5.88945 -3.37891,-0.64986 -9.83,-2.64868 -15.46666,-4.79225 -3.54815,-1.34933 -12.56396,-3.53827 -16.56093,-4.02082 -3.0065,-0.36296 -5.36016,0.48758 -11.73333,4.24007 -4.38483,2.58175 -11.09241,5.72549 -14.90574,6.98609 -18.99481,6.2792 -17.93146,6.09827 -35.84015,6.09827 -11.34321,0 -18.04254,-0.43933 -19.73333,-1.29408 -1.40792,-0.71174 -7.11985,-3.04202 -12.69319,-5.17838 -15.76172,-6.04175 -26.26446,-11.25534 -38.03439,-18.88035 -9.138072,-5.91999 -12.080602,-8.5764 -18.793902,-16.9664 -9.51651,-11.89333 -17.50686,-24.65601 -20.91965,-33.41412 -1.37165,-3.52 -4.05956,-9.04 -5.97315,-12.26667 -1.91358,-3.22667 -5.30545,-9.22667 -7.53749,-13.33333 -2.23204,-4.10667 -6.03065,-10.58667 -8.44136,-14.4 -6.69253,-10.58644 -10.16672,-19.21261 -10.16672,-25.24329 0,-2.93713 -1.43468,-9.68101 -3.26196,-15.33328 C 23.735738,608.1559 9.4593779,580.14486 4.6282479,574.622 l -2.93333,-3.35335 v -93.99252 c 0,-57.86049 0.38491,-93.99251 1.00131,-93.99251 0.55072,0 1.3106,-2.28 1.68863,-5.06667 1.41867,-10.45777 12.6185301,-55.58672 16.2140801,-65.33333 2.05602,-5.57333 6.31333,-15.17333 9.46071,-21.33333 3.14737,-6.16 6.96041,-15.50231 8.47342,-20.76068 1.51301,-5.25836 4.1709,-12.79594 5.90642,-16.75017 1.73552,-3.95422 3.44306,-8.62733 3.79453,-10.38468 0.35147,-1.75736 1.3389,-3.33978 2.19428,-3.51651 0.85538,-0.17671 5.07487,-6.87372 9.37664,-14.88226 31.60098,-58.83095 77.054872,-109.29303 131.223312,-145.681703 16.0863,-10.80628 41.98437,-25.926863 54.93333,-32.072809 29.09765,-13.810586 67.02265,-26.4928 93.33333,-31.210905 6.45333,-1.157229 13.89333,-2.59673 16.53333,-3.19889 7.32857,-1.671578 60.45348,-2.395171 88,-1.198612 24.25351,1.053517 42.80989,3.598853 60.8,8.339794 3.52,0.927627 8.41987,2.095272 10.88861,2.594766 2.46874,0.499496 8.82407,3.14387 14.12296,5.87639 12.80822,6.604901 20.23231,13.790374 25.32228,24.508391 l 3.90138,8.215224 -1.31912,15.525431 c -0.72553,8.53898 -2.00233,17.16054 -2.83735,19.15901 -2.14732,5.139293 -13.08971,15.473043 -19.83943,18.735923 -6.12693,2.96183 -16.17948,4.9479 -25.10971,4.9609 -3.04537,0.004 -5.79235,0.42114 -6.10439,0.92603 -0.31203,0.50488 0.91429,6.85035 2.72518,14.10104 2.81114,11.25566 3.20347,14.4354 2.68352,21.74869 -0.81835,11.51036 -2.38335,19.4524 -4.45663,22.61663 -4.33091,6.60982 -19.37493,12.77035 -33.94098,13.89885 -5.58549,0.43274 -8.54863,1.12994 -8.92047,2.09892 -0.30623,0.79802 0.21743,5.29326 1.16368,9.98941 2.47812,12.29857 2.26028,20.84275 -0.67953,26.65379 -4.28174,8.46361 -15.8997,15.00446 -30.66666,17.2652 -3.81334,0.5838 -8.00461,1.25922 -9.31393,1.50093 -2.78931,0.51492 -5.62937,5.43223 -5.59598,9.68893 0.0129,1.64246 0.9863,5.10869 2.16315,7.70272 3.21172,7.07931 4.29722,17.20941 3.09703,28.90195 -1.61106,15.69539 -3.17621,19.76969 -11.21288,29.18862 -7.42254,8.69917 -11.75474,11.33585 -30.33739,18.46407 -14.16496,5.43361 -35.16978,8.15369 -70.7338,9.15983 l -8.3338,0.23578 11.4904,7.4489 c 24.99445,16.20319 48.58006,39.80907 57.3576,57.40689 7.66709,15.37148 7.12013,39.90322 -1.38387,62.06923 -2.02734,5.28436 -2.02638,5.35769 0.12623,9.6 1.19305,2.35124 3.4778,6.19498 5.07724,8.54164 4.74323,6.9592 7.07395,12.38322 8.47949,19.73334 0.7292,3.81333 2.54057,9.81333 4.02526,13.33333 2.53442,6.0087 2.66275,7.18258 2.09906,19.2 -0.72885,15.53809 -2.51071,22.62709 -6.96171,27.69649 -1.85649,2.11442 -3.37544,4.30199 -3.37544,4.86126 0,3.12046 -8.6095,13.2664 -14.90517,17.56513 -3.82882,2.61435 -8.15152,5.69126 -9.60599,6.83759 l -2.64452,2.08423 2.5011,5.67765 c 7.19371,16.33015 21.85809,58.17066 26.47698,75.54432 2.8652,10.7772 2.9776,12.16637 2.9776,36.8 0,21.1653 -0.31653,26.62124 -1.82726,31.4953 -3.60793,11.64024 -13.37718,19.2836 -27.20207,21.28262 -7.1891,1.03951 -8.64881,1.07068 -16.83733,0.35961 z M 196.92867,739.95239 c 10.65212,-5.33247 18.09958,-11.22824 18.09958,-14.3285 0,-3.42044 -28.65712,-57.53092 -36.68758,-69.2736 -1.8054,-2.64 -4.00928,-6.24 -4.89749,-8 -1.23089,-2.43901 -2.46306,-3.28126 -5.18137,-3.54169 -4.60614,-0.4413 -7.06342,1.80799 -9.28622,8.50024 -2.27461,6.84819 -6.20604,11.3894 -12.17878,14.06773 -4.06652,1.82354 -7.97242,2.27375 -24.56856,2.83187 -21.6647,0.72857 -25.848792,1.7417 -26.507542,6.41851 -0.20581,1.46116 -0.88292,2.97266 -1.5047,3.35887 -1.46014,0.90694 6.480592,13.62243 15.566402,24.92647 11.859,14.75427 25.99471,26.89308 39.11251,33.5872 10.08708,5.14752 14.98229,6.30553 26.8249,6.34564 l 11.35824,0.0385 z m 145.77343,-1.91102 2.99281,-2.5756 -0.009,-17.4244 -0.009,-17.42442 -4.4377,-11.2 c -2.44075,-6.16 -5.42618,-13.36 -6.63431,-16 -1.20812,-2.64 -2.20713,-6.43035 -2.22002,-8.42301 -0.0129,-1.99266 -1.46342,-8.1184 -3.22342,-13.61275 -1.76,-5.49436 -3.2,-10.53365 -3.2,-11.1984 0,-2.81178 -7.66721,-16.82665 -11.73145,-21.44386 -3.77031,-4.28331 -5.6671,-5.41509 -13.13753,-7.83895 -13.67134,-4.43578 -29.95567,-3.86645 -42.33102,1.48 -6.63899,2.8682 -27.19909,20.8042 -28.78731,25.11315 -0.68732,1.86477 -2.65155,6.27049 -4.36493,9.79049 -10.95541,22.50689 7.49069,61.16683 36.5375,76.57647 4.35596,2.31088 9.24156,3.94719 13.22758,4.43024 3.49131,0.42309 8.30482,1.91478 10.75355,3.33248 2.44181,1.41369 7.95179,3.12368 12.26667,3.80687 4.30849,0.68217 11.91361,2.06231 16.90027,3.06695 4.98667,1.00465 12.51991,1.89272 16.74053,1.97347 6.69484,0.12812 8.05565,-0.18173 10.66666,-2.42873 z M 132.54293,643.41985 c 5.19631,-1.60646 6.15773,-3.58081 6.89617,-14.16163 0.37263,-5.33936 1.51119,-12.34793 2.53014,-15.5746 3.25856,-10.31877 3.20683,-12.1558 -0.54787,-19.45317 -4.77225,-9.27501 -9.72992,-15.5574 -22.54275,-28.56632 -12.18277,-12.36923 -27.695002,-25.24974 -37.013032,-30.73363 -3.32054,-1.95422 -7.7938,-4.74932 -9.94058,-6.21135 -5.12572,-3.49076 -36.66581,-13.3344 -40.02417,-12.49151 -5.57836,1.40009 -7.06153,8.04114 -4.01762,17.98931 0.89753,2.93334 2.52931,10.62859 3.62619,17.10058 2.39573,14.13579 6.95917,28.58188 14.47833,45.83276 6.20622,14.23865 9.85524,20.81793 17.95024,32.36471 9.88281,14.09694 9.79835,14.02223 15.98509,14.14078 3.02785,0.058 8.14518,0.42108 11.37185,0.80679 8.09406,0.96757 37.118802,0.23384 41.248012,-1.04272 z m 73.19767,-8.66956 c 1.57905,-0.73334 2.87475,-1.83872 2.87933,-2.45643 0.004,-0.6177 1.94276,-5.12326 4.30707,-10.01235 2.36431,-4.8891 4.16431,-8.95037 4,-9.02503 -15.26853,-6.93799 -24.34361,-14.2292 -26.84396,-21.56735 -2.27768,-6.68463 -2.3012,-15.18333 -0.0444,-16.04934 2.29462,-0.88053 17.77062,4.34373 22.61097,7.63283 4.54127,3.08588 4.4711,3.07383 8.44254,1.44961 1.65153,-0.67542 4.00049,-1.13186 5.21993,-1.01429 1.21943,0.11757 3.37943,-0.7321 4.8,-1.88814 2.44256,-1.98772 2.5706,-2.66118 2.35744,-12.39871 -0.12397,-5.66325 -0.96367,-13.17858 -1.86601,-16.70073 -0.90233,-3.52215 -1.36342,-7.5083 -1.02464,-8.8581 1.31488,-5.23892 -9.93155,-21.56585 -24.76103,-35.94666 -5.88488,-5.70684 -8.47498,-7.42818 -13.18958,-8.76563 -30.46019,-8.64104 -36.17784,-9.4104 -49.48439,-6.65855 -4.58913,0.94904 -11.08791,1.72553 -14.44177,1.72553 -7.48105,0 -23.05217,4.50266 -26.37883,7.6279 -1.33823,1.25719 -2.956542,3.87172 -3.596252,5.81005 -1.89363,5.73776 -1.29605,6.42096 17.965882,20.54003 6.52931,4.78601 11.18786,9.01751 11.94805,10.85276 0.68531,1.65447 8.67725,11.32439 17.75989,21.4887 9.08263,10.16431 17.24664,20.16056 18.14224,22.2139 1.95502,4.4823 4.19196,8.91014 6.88178,13.62191 2.61193,4.57534 15.41752,22.437 18.52893,25.84475 1.33912,1.46667 2.76185,3.74926 3.16164,5.07243 1.06417,3.52212 5.81715,8.79424 7.92829,8.79424 1.00422,0 3.1178,-0.6 4.69685,-1.33333 z M 311.02825,591.95 c 0,-2.19502 -25.01665,-30.98746 -34.72763,-39.96912 -7.7126,-7.13336 -20.68289,-17.23059 -22.13337,-17.23059 -0.32455,0 -0.17527,1.44637 0.33173,3.21418 1.76867,6.167 2.34986,24.96463 1.11302,35.99875 -0.67485,6.02045 -0.96287,11.37365 -0.64003,11.896 0.32758,0.53004 2.78365,0.28863 5.55781,-0.54627 10.63767,-3.20146 28.24063,-1.17057 41.64158,4.80428 8.33324,3.71539 8.85689,3.82375 8.85689,1.83277 z m 35.06955,-19.34209 c 2.27831,-2.05832 5.95817,-7.19785 8.17746,-11.4212 5.50828,-10.48227 6.04023,-18.48455 2.22287,-33.43942 -3.79136,-14.85301 -7.36211,-22.08847 -13.87559,-28.11627 -3.63352,-3.36258 -3.53278,-4.98885 0.93904,-15.15959 3.71806,-8.45639 3.73322,-8.55532 3.70822,-24.17281 -0.0319,-19.94823 -2.02823,-28.37404 -8.98173,-37.90936 -2.63602,-3.61477 -13.56786,-15.5306 -24.29297,-26.47964 l -19.50019,-19.90732 -14.4756,-7.02601 c -7.96158,-3.8643 -15.22358,-7.026 -16.13776,-7.026 -0.9142,0 -4.24017,-1.17738 -7.39107,-2.6164 -13.74233,-6.27614 -27.89017,-7.81975 -54.79557,-5.97853 -32.69361,2.23734 -48.80125,5.89404 -61.76348,14.02134 -3.58241,2.24616 -8.97273,4.61135 -11.97846,5.25596 -4.36282,0.93566 -6.13753,2.00893 -8.79981,5.32181 -4.4438,5.52969 -5.45824,8.52211 -5.45824,16.10071 0,10.93603 4.9602,18.08906 20.24441,29.19414 3.8011,2.76177 8.5185,6.89929 10.48312,9.19451 1.96461,2.29521 4.30053,4.17312 5.19092,4.17312 0.89039,0 2.89299,0.88313 4.45022,1.9625 1.55722,1.07937 5.71132,3.11251 9.23132,4.51808 12.22985,4.88353 25.38982,13.90311 31.13271,21.33777 8.39765,10.87146 21.45892,21.2247 30.19129,23.93168 1.46154,0.45307 5.54154,2.12007 9.06667,3.70447 3.52513,1.58439 8.80933,3.74596 11.74267,4.80348 10.35499,3.73313 19.34512,8.94438 32.47041,18.82193 16.58988,12.48486 23.95317,19.25769 29.39625,27.03896 2.34667,3.35473 5.58667,7.67374 7.2,9.5978 1.61334,1.92407 2.93334,4.09686 2.93334,4.82842 0,0.73156 2.52,3.91243 5.6,7.06859 3.08,3.15616 6.88938,7.17424 8.46531,8.92906 4.12705,4.59559 9.11532,4.40712 14.60424,-0.55178 z M 81.098428,488.86588 c 12.83534,-5.50746 31.858802,-11.68065 42.196492,-13.69293 3.22666,-0.62807 12.58666,-1.65624 20.8,-2.28481 8.21333,-0.62856 16.55556,-1.40015 18.5383,-1.71463 l 3.60496,-0.57178 -3.85655,-2.62059 c -2.12109,-1.44133 -7.8741,-4.8879 -12.78444,-7.65906 -4.91036,-2.77115 -12.61101,-7.5273 -17.11258,-10.56923 -5.3675,-3.62709 -10.28514,-6.01354 -14.28718,-6.93334 -7.886,-1.81247 -32.612952,-1.85208 -37.487942,-0.06 -2.00865,0.73837 -6.62776,1.81786 -10.26468,2.39885 -8.67034,1.3851 -17.78657,5.49844 -24.33275,10.97921 -6.33774,5.30626 -17.53024,19.23055 -18.47116,22.9795 -0.37053,1.47628 -1.91995,3.75758 -3.44317,5.06953 l -2.76948,2.38536 2.66667,0.55672 c 1.46666,0.3062 6.26666,0.82114 10.66666,1.14432 4.4,0.32317 11.84,1.76706 16.53334,3.20864 12.47572,3.83198 15.36866,3.57808 29.80351,-2.61571 z m -39.42478,-51.6358 c 3.44713,-0.0991 7.63447,-1.24709 11.7546,-3.22251 8.33267,-3.99516 25.41435,-9.12395 30.38773,-9.12395 4.51699,0 8.72406,-3.6485 8.82118,-7.65001 0.0793,-3.2678 -2.23027,-12.28895 -4.22008,-16.48349 -1.4186,-2.99045 -1.39868,-3.68672 0.19357,-6.7658 0.9762,-1.88775 1.58393,-3.62326 1.35052,-3.85667 -0.75072,-0.75072 -12.19967,6.61986 -22.78146,14.66622 -5.65849,4.3027 -12.0274,9.1399 -14.15314,10.74934 -2.12574,1.60945 -6.02499,4.31738 -8.66499,6.01763 -7.08141,4.56066 -9.6,7.20711 -9.6,10.08739 0,1.41579 -0.72,3.17172 -1.6,3.90206 -2.38128,1.97628 -1.93769,3.45094 0.77874,2.58877 1.3083,-0.41524 4.7883,-0.82427 7.73333,-0.90898 z m -7.68995,-29.41653 c 2.00706,-2.34479 4.00415,-4.26326 4.43797,-4.26326 0.70295,0 14.26519,-11.74598 31.62617,-27.39077 8.2447,-7.42967 13.11768,-10.52914 20.60269,-13.10436 3.45743,-1.18954 9.936822,-4.23964 14.398652,-6.778 4.46182,-2.53838 10.7524,-5.71318 13.97907,-7.05512 7.7667,-3.2301 9.6,-4.99966 9.6,-9.26621 0,-4.73392 -1.89735,-5.56971 -14.00254,-6.16827 -21.006442,-1.03869 -36.130792,-8.92655 -36.130792,-18.84343 0,-3.10006 3.29254,-10.59384 4.65462,-10.59384 0.57423,0 1.88809,-0.76384 2.91969,-1.69742 1.72841,-1.56419 2.57372,-1.39758 10.77027,2.12291 10.699272,4.59542 23.864832,6.7543 30.422182,4.9886 5.26504,-1.41773 9.52583,-5.51804 11.06201,-10.64538 1.94282,-6.48452 -0.30977,-27.37633 -3.76993,-34.96472 -5.21472,-11.43624 -18.47607,-22.57951 -29.53825,-24.82046 -9.173612,-1.85837 -10.652292,-1.07851 -17.799602,9.38744 -26.24757,38.43484 -53.67966,101.0635 -64.70483,147.72394 -3.67395,15.54879 -3.74411,15.12831 2.57029,15.40306 4.92376,0.21423 5.48193,-0.0387 8.90233,-4.03471 z M 234.22825,323.48686 c 10.26666,-0.62485 22.50881,-1.07328 27.20475,-0.99649 4.69595,0.0768 9.97595,-0.44153 11.73334,-1.15181 1.75738,-0.71027 11.59524,-1.69186 21.86191,-2.18129 34.64849,-1.65177 38.05314,-1.91686 46.50291,-3.62072 12.50655,-2.52191 22.22869,-7.51961 31.37409,-16.12793 13.84676,-13.03362 15.95286,-23.08519 8.30485,-39.63584 -3.63275,-7.86143 -16.80058,-20.28554 -27.14474,-25.6116 -8.59357,-4.42472 -12.10378,-5.43102 -12.10378,-3.4699 0,0.55421 -2.71451,-0.2351 -6.03223,-1.754 -5.05383,-2.31371 -8.45466,-2.91788 -20.9676,-3.72496 -10.36989,-0.66884 -16.43293,-0.60326 -19.83443,0.21454 -2.6945,0.64781 -6.81907,1.62745 -9.16574,2.17696 -2.34667,0.54952 -9.30667,1.44894 -15.46667,1.99871 -6.16,0.54978 -14.8,1.75253 -19.2,2.6728 -4.4,0.92027 -10.88,1.67628 -14.4,1.68003 -10.28536,0.011 -14.06796,1.53061 -17.57504,7.0607 -1.67255,2.63733 -4.56098,9.68644 -6.41873,15.66469 -7.1147,22.89509 -9.1219,27.17136 -17.36843,37.00287 -4.48692,5.34928 -10.37113,15.0891 -10.37113,17.16675 0,0.97463 -0.72,2.36958 -1.6,3.09992 -2.17058,1.80141 -2.02097,7.3628 0.26667,9.9126 2.05746,2.29325 7.16914,2.25511 50.4,-0.37603 z m -57.74118,-36.02888 c 7.09272,-7.49144 9.7076,-12.40842 13.99061,-26.30769 1.08467,-3.52 3.67636,-10.72 5.75929,-16 3.58815,-9.09552 3.78903,-10.27771 3.82256,-22.4963 0.0337,-12.29997 -0.11631,-13.19986 -3.24517,-19.46126 -3.61348,-7.23122 -8.95591,-12.24017 -17.78489,-16.67471 -14.46676,-7.26624 -30.68988,-4.46478 -48.74196,8.41691 -7.72864,5.51504 -14.45926,12.64373 -14.45926,15.31442 0,3.35743 3.05192,6.38327 8.21147,8.14131 11.71065,3.99022 24.34012,13.62509 27.19246,20.74479 4.2875,10.70196 5.41827,14.67244 6.85758,24.07924 0.89185,5.82876 2.30786,11.92493 3.14668,13.54703 0.83883,1.62211 1.52514,4.21005 1.52514,5.75098 0,3.17732 5.21563,9.03759 8.04344,9.03759 0.99415,0 3.55107,-1.84155 5.68205,-4.09231 z m 211.66081,-70.16695 c 1.87754,-0.94926 5.08992,-2.98926 7.13864,-4.53333 4.93078,-3.71625 11.30763,-6.53908 14.79154,-6.54778 2.60046,-0.006 6.05612,-1.78118 9.82609,-5.0463 0.83825,-0.726 3.67381,-2.90257 6.30123,-4.83683 7.4882,-5.51265 10.77246,-11.77879 11.87504,-22.65669 0.80612,-7.95301 0.64851,-9.95805 -1.19513,-15.20354 -1.16804,-3.32328 -2.12371,-8.03376 -2.12371,-10.46772 0,-4.26673 0.17329,-4.49157 4.83322,-6.27121 3.52724,-1.34707 6.27436,-3.61997 10.16659,-8.41158 2.93336,-3.61117 5.61045,-7.64576 5.94908,-8.96576 0.33865,-1.32 1.18642,-2.4 1.88396,-2.4 0.89309,0 1.13964,-2.01978 0.83349,-6.82783 -0.51763,-8.12919 0.93895,-13.16438 4.89165,-16.909713 2.93416,-2.78022 18.14178,-9.55013 24.45328,-10.88575 1.87621,-0.39704 5.37187,-2.48922 7.76815,-4.6493 4.1212,-3.71498 4.29928,-4.12201 3.29231,-7.52496 -2.52679,-8.53899 -8.05443,-12.146533 -24.60761,-16.059826 -9.23621,-2.183509 -35.63461,-5.2922 -52.59451,-6.19356 -32.25218,-1.714093 -95.72123,9.108212 -134.06961,22.860626 -24.43124,8.76148 -54.62418,24.567693 -75.73333,39.646913 -14.13041,10.094 -26.28796,19.989 -26.54569,21.60548 -1.50346,9.42964 -1.25395,14.97883 0.82475,18.34223 2.20629,3.56986 11.10236,9.26235 14.47493,9.26235 0.98925,0 5.79641,3.97087 10.68257,8.82415 6.52173,6.47785 9.19314,9.95223 10.0468,13.06667 0.63957,2.33339 2.1243,5.68252 3.29939,7.44252 1.17509,1.76 2.14148,4.16 2.14754,5.33333 0.017,3.27396 3.86087,8.84878 7.72662,11.20576 3.93993,2.4022 11.43976,2.81843 15.01321,0.83323 2.479,-1.3772 8.4674,-2.19809 28.99654,-3.97493 7.04,-0.60932 14.96,-1.57209 17.6,-2.13951 2.64,-0.5674 12.27725,-1.05255 21.4161,-1.0781 15.3927,-0.043 17.1072,0.1531 23.28616,2.66384 3.66854,1.49066 10.84538,3.33093 15.94855,4.08949 7.41801,1.10264 10.21328,2.05636 13.94054,4.75637 5.38805,3.90308 11.80713,4.51011 17.46162,1.65126 z"
       id="path925" />
  </g>
</svg>
