%TF.GenerationSoftware,KiCad,Pcbnew,(6.99.0-3809-g2741d0eb4b)*%
%TF.CreationDate,2022-10-21T00:44:09-04:00*%
%TF.ProjectId,PortWing,506f7274-5769-46e6-972e-6b696361645f,rev?*%
%TF.SameCoordinates,Original*%
%TF.FileFunction,AssemblyDrawing,Top*%
%FSLAX46Y46*%
G04 Gerber Fmt 4.6, Leading zero omitted, Abs format (unit mm)*
G04 Created by KiCad (PCBNEW (6.99.0-3809-g2741d0eb4b)) date 2022-10-21 00:44:09*
%MOMM*%
%LPD*%
G01*
G04 APERTURE LIST*
%ADD10C,0.100000*%
G04 APERTURE END LIST*
D10*
%TO.C,D187*%
X-269950000Y-3900000D02*
X-273450000Y-3900000D01*
X-269950000Y-1100000D02*
X-269950000Y-3900000D01*
X-272450000Y-1150000D02*
X-273400000Y-2250000D01*
X-273400000Y-2250000D02*
X-273400000Y-1100000D01*
X-273400000Y-1100000D02*
X-269950000Y-1100000D01*
X-273450000Y-3900000D02*
X-273400000Y-1150000D01*
X-273450000Y-600000D02*
G75*
G03*
X-273450000Y-600000I-450000J0D01*
G01*
%TO.C,D213*%
X-278408893Y-57826393D02*
X-281908893Y-57826393D01*
X-278408893Y-55026393D02*
X-278408893Y-57826393D01*
X-280908893Y-55076393D02*
X-281858893Y-56176393D01*
X-281858893Y-56176393D02*
X-281858893Y-55026393D01*
X-281858893Y-55026393D02*
X-278408893Y-55026393D01*
X-281908893Y-57826393D02*
X-281858893Y-55076393D01*
X-281908893Y-54526393D02*
G75*
G03*
X-281908893Y-54526393I-450000J0D01*
G01*
%TO.C,D37*%
X-201908893Y-196926393D02*
X-205408893Y-196926393D01*
X-201908893Y-194126393D02*
X-201908893Y-196926393D01*
X-204408893Y-194176393D02*
X-205358893Y-195276393D01*
X-205358893Y-195276393D02*
X-205358893Y-194126393D01*
X-205358893Y-194126393D02*
X-201908893Y-194126393D01*
X-205408893Y-196926393D02*
X-205358893Y-194176393D01*
X-205408893Y-193626393D02*
G75*
G03*
X-205408893Y-193626393I-450000J0D01*
G01*
%TO.C,D94*%
X-230608893Y-138726393D02*
X-234108893Y-138726393D01*
X-230608893Y-135926393D02*
X-230608893Y-138726393D01*
X-233108893Y-135976393D02*
X-234058893Y-137076393D01*
X-234058893Y-137076393D02*
X-234058893Y-135926393D01*
X-234058893Y-135926393D02*
X-230608893Y-135926393D01*
X-234108893Y-138726393D02*
X-234058893Y-135976393D01*
X-234108893Y-135426393D02*
G75*
G03*
X-234108893Y-135426393I-450000J0D01*
G01*
%TO.C,D241*%
X-246050000Y-85300000D02*
X-249550000Y-85300000D01*
X-246050000Y-82500000D02*
X-246050000Y-85300000D01*
X-248550000Y-82550000D02*
X-249500000Y-83650000D01*
X-249500000Y-83650000D02*
X-249500000Y-82500000D01*
X-249500000Y-82500000D02*
X-246050000Y-82500000D01*
X-249550000Y-85300000D02*
X-249500000Y-82550000D01*
X-249550000Y-82000000D02*
G75*
G03*
X-249550000Y-82000000I-450000J0D01*
G01*
%TO.C,D199*%
X-290700000Y-33250000D02*
X-294200000Y-33250000D01*
X-290700000Y-30450000D02*
X-290700000Y-33250000D01*
X-293200000Y-30500000D02*
X-294150000Y-31600000D01*
X-294150000Y-31600000D02*
X-294150000Y-30450000D01*
X-294150000Y-30450000D02*
X-290700000Y-30450000D01*
X-294200000Y-33250000D02*
X-294150000Y-30500000D01*
X-294200000Y-29950000D02*
G75*
G03*
X-294200000Y-29950000I-450000J0D01*
G01*
%TO.C,D102*%
X-258950000Y-152700000D02*
X-262450000Y-152700000D01*
X-258950000Y-149900000D02*
X-258950000Y-152700000D01*
X-261450000Y-149950000D02*
X-262400000Y-151050000D01*
X-262400000Y-151050000D02*
X-262400000Y-149900000D01*
X-262400000Y-149900000D02*
X-258950000Y-149900000D01*
X-262450000Y-152700000D02*
X-262400000Y-149950000D01*
X-262450000Y-149400000D02*
G75*
G03*
X-262450000Y-149400000I-450000J0D01*
G01*
%TO.C,D78*%
X-226150000Y-162800000D02*
X-229650000Y-162800000D01*
X-226150000Y-160000000D02*
X-226150000Y-162800000D01*
X-228650000Y-160050000D02*
X-229600000Y-161150000D01*
X-229600000Y-161150000D02*
X-229600000Y-160000000D01*
X-229600000Y-160000000D02*
X-226150000Y-160000000D01*
X-229650000Y-162800000D02*
X-229600000Y-160050000D01*
X-229650000Y-159500000D02*
G75*
G03*
X-229650000Y-159500000I-450000J0D01*
G01*
%TO.C,D216*%
X-277008893Y-61600000D02*
X-280508893Y-61600000D01*
X-277008893Y-58800000D02*
X-277008893Y-61600000D01*
X-279508893Y-58850000D02*
X-280458893Y-59950000D01*
X-280458893Y-59950000D02*
X-280458893Y-58800000D01*
X-280458893Y-58800000D02*
X-277008893Y-58800000D01*
X-280508893Y-61600000D02*
X-280458893Y-58850000D01*
X-280508893Y-58300000D02*
G75*
G03*
X-280508893Y-58300000I-450000J0D01*
G01*
%TO.C,D30*%
X-189050000Y-177300000D02*
X-192550000Y-177300000D01*
X-189050000Y-174500000D02*
X-189050000Y-177300000D01*
X-191550000Y-174550000D02*
X-192500000Y-175650000D01*
X-192500000Y-175650000D02*
X-192500000Y-174500000D01*
X-192500000Y-174500000D02*
X-189050000Y-174500000D01*
X-192550000Y-177300000D02*
X-192500000Y-174550000D01*
X-192550000Y-174000000D02*
G75*
G03*
X-192550000Y-174000000I-450000J0D01*
G01*
%TO.C,D82*%
X-225000000Y-181050000D02*
X-228500000Y-181050000D01*
X-225000000Y-178250000D02*
X-225000000Y-181050000D01*
X-227500000Y-178300000D02*
X-228450000Y-179400000D01*
X-228450000Y-179400000D02*
X-228450000Y-178250000D01*
X-228450000Y-178250000D02*
X-225000000Y-178250000D01*
X-228500000Y-181050000D02*
X-228450000Y-178300000D01*
X-228500000Y-177750000D02*
G75*
G03*
X-228500000Y-177750000I-450000J0D01*
G01*
%TO.C,D153*%
X-173108893Y-89626393D02*
X-176608893Y-89626393D01*
X-173108893Y-86826393D02*
X-173108893Y-89626393D01*
X-175608893Y-86876393D02*
X-176558893Y-87976393D01*
X-176558893Y-87976393D02*
X-176558893Y-86826393D01*
X-176558893Y-86826393D02*
X-173108893Y-86826393D01*
X-176608893Y-89626393D02*
X-176558893Y-86876393D01*
X-176608893Y-86326393D02*
G75*
G03*
X-176608893Y-86326393I-450000J0D01*
G01*
%TO.C,D12*%
X-195900000Y-139650000D02*
X-199400000Y-139650000D01*
X-195900000Y-136850000D02*
X-195900000Y-139650000D01*
X-198400000Y-136900000D02*
X-199350000Y-138000000D01*
X-199350000Y-138000000D02*
X-199350000Y-136850000D01*
X-199350000Y-136850000D02*
X-195900000Y-136850000D01*
X-199400000Y-139650000D02*
X-199350000Y-136900000D01*
X-199400000Y-136350000D02*
G75*
G03*
X-199400000Y-136350000I-450000J0D01*
G01*
%TO.C,D47*%
X-236450000Y-193750000D02*
X-239950000Y-193750000D01*
X-236450000Y-190950000D02*
X-236450000Y-193750000D01*
X-238950000Y-191000000D02*
X-239900000Y-192100000D01*
X-239900000Y-192100000D02*
X-239900000Y-190950000D01*
X-239900000Y-190950000D02*
X-236450000Y-190950000D01*
X-239950000Y-193750000D02*
X-239900000Y-191000000D01*
X-239950000Y-190450000D02*
G75*
G03*
X-239950000Y-190450000I-450000J0D01*
G01*
%TO.C,D45*%
X-231600000Y-189950000D02*
X-235100000Y-189950000D01*
X-231600000Y-187150000D02*
X-231600000Y-189950000D01*
X-234100000Y-187200000D02*
X-235050000Y-188300000D01*
X-235050000Y-188300000D02*
X-235050000Y-187150000D01*
X-235050000Y-187150000D02*
X-231600000Y-187150000D01*
X-235100000Y-189950000D02*
X-235050000Y-187200000D01*
X-235100000Y-186650000D02*
G75*
G03*
X-235100000Y-186650000I-450000J0D01*
G01*
%TO.C,D233*%
X-221550000Y-62900000D02*
X-225050000Y-62900000D01*
X-221550000Y-60100000D02*
X-221550000Y-62900000D01*
X-224050000Y-60150000D02*
X-225000000Y-61250000D01*
X-225000000Y-61250000D02*
X-225000000Y-60100000D01*
X-225000000Y-60100000D02*
X-221550000Y-60100000D01*
X-225050000Y-62900000D02*
X-225000000Y-60150000D01*
X-225050000Y-59600000D02*
G75*
G03*
X-225050000Y-59600000I-450000J0D01*
G01*
%TO.C,D253*%
X-271508893Y-72226393D02*
X-275008893Y-72226393D01*
X-271508893Y-69426393D02*
X-271508893Y-72226393D01*
X-274008893Y-69476393D02*
X-274958893Y-70576393D01*
X-274958893Y-70576393D02*
X-274958893Y-69426393D01*
X-274958893Y-69426393D02*
X-271508893Y-69426393D01*
X-275008893Y-72226393D02*
X-274958893Y-69476393D01*
X-275008893Y-68926393D02*
G75*
G03*
X-275008893Y-68926393I-450000J0D01*
G01*
%TO.C,D107*%
X-265150000Y-133900000D02*
X-268650000Y-133900000D01*
X-265150000Y-131100000D02*
X-265150000Y-133900000D01*
X-267650000Y-131150000D02*
X-268600000Y-132250000D01*
X-268600000Y-132250000D02*
X-268600000Y-131100000D01*
X-268600000Y-131100000D02*
X-265150000Y-131100000D01*
X-268650000Y-133900000D02*
X-268600000Y-131150000D01*
X-268650000Y-130600000D02*
G75*
G03*
X-268650000Y-130600000I-450000J0D01*
G01*
%TO.C,D152*%
X-176250000Y-84800000D02*
X-179750000Y-84800000D01*
X-176250000Y-82000000D02*
X-176250000Y-84800000D01*
X-178750000Y-82050000D02*
X-179700000Y-83150000D01*
X-179700000Y-83150000D02*
X-179700000Y-82000000D01*
X-179700000Y-82000000D02*
X-176250000Y-82000000D01*
X-179750000Y-84800000D02*
X-179700000Y-82050000D01*
X-179750000Y-81500000D02*
G75*
G03*
X-179750000Y-81500000I-450000J0D01*
G01*
%TO.C,D196*%
X-302100000Y-27350000D02*
X-305600000Y-27350000D01*
X-302100000Y-24550000D02*
X-302100000Y-27350000D01*
X-304600000Y-24600000D02*
X-305550000Y-25700000D01*
X-305550000Y-25700000D02*
X-305550000Y-24550000D01*
X-305550000Y-24550000D02*
X-302100000Y-24550000D01*
X-305600000Y-27350000D02*
X-305550000Y-24600000D01*
X-305600000Y-24050000D02*
G75*
G03*
X-305600000Y-24050000I-450000J0D01*
G01*
%TO.C,D159*%
X-191950000Y-49300000D02*
X-195450000Y-49300000D01*
X-191950000Y-46500000D02*
X-191950000Y-49300000D01*
X-194450000Y-46550000D02*
X-195400000Y-47650000D01*
X-195400000Y-47650000D02*
X-195400000Y-46500000D01*
X-195400000Y-46500000D02*
X-191950000Y-46500000D01*
X-195450000Y-49300000D02*
X-195400000Y-46550000D01*
X-195450000Y-46000000D02*
G75*
G03*
X-195450000Y-46000000I-450000J0D01*
G01*
%TO.C,D85*%
X-215350000Y-167000000D02*
X-218850000Y-167000000D01*
X-215350000Y-164200000D02*
X-215350000Y-167000000D01*
X-217850000Y-164250000D02*
X-218800000Y-165350000D01*
X-218800000Y-165350000D02*
X-218800000Y-164200000D01*
X-218800000Y-164200000D02*
X-215350000Y-164200000D01*
X-218850000Y-167000000D02*
X-218800000Y-164250000D01*
X-218850000Y-163700000D02*
G75*
G03*
X-218850000Y-163700000I-450000J0D01*
G01*
%TO.C,D53*%
X-253650000Y-197400000D02*
X-257150000Y-197400000D01*
X-253650000Y-194600000D02*
X-253650000Y-197400000D01*
X-256150000Y-194650000D02*
X-257100000Y-195750000D01*
X-257100000Y-195750000D02*
X-257100000Y-194600000D01*
X-257100000Y-194600000D02*
X-253650000Y-194600000D01*
X-257150000Y-197400000D02*
X-257100000Y-194650000D01*
X-257150000Y-194100000D02*
G75*
G03*
X-257150000Y-194100000I-450000J0D01*
G01*
%TO.C,D20*%
X-196450000Y-172300000D02*
X-199950000Y-172300000D01*
X-196450000Y-169500000D02*
X-196450000Y-172300000D01*
X-198950000Y-169550000D02*
X-199900000Y-170650000D01*
X-199900000Y-170650000D02*
X-199900000Y-169500000D01*
X-199900000Y-169500000D02*
X-196450000Y-169500000D01*
X-199950000Y-172300000D02*
X-199900000Y-169550000D01*
X-199950000Y-169000000D02*
G75*
G03*
X-199950000Y-169000000I-450000J0D01*
G01*
%TO.C,D206*%
X-297000000Y-43250000D02*
X-300500000Y-43250000D01*
X-297000000Y-40450000D02*
X-297000000Y-43250000D01*
X-299500000Y-40500000D02*
X-300450000Y-41600000D01*
X-300450000Y-41600000D02*
X-300450000Y-40450000D01*
X-300450000Y-40450000D02*
X-297000000Y-40450000D01*
X-300500000Y-43250000D02*
X-300450000Y-40500000D01*
X-300500000Y-39950000D02*
G75*
G03*
X-300500000Y-39950000I-450000J0D01*
G01*
%TO.C,D251*%
X-276150000Y-76650000D02*
X-279650000Y-76650000D01*
X-276150000Y-73850000D02*
X-276150000Y-76650000D01*
X-278650000Y-73900000D02*
X-279600000Y-75000000D01*
X-279600000Y-75000000D02*
X-279600000Y-73850000D01*
X-279600000Y-73850000D02*
X-276150000Y-73850000D01*
X-279650000Y-76650000D02*
X-279600000Y-73900000D01*
X-279650000Y-73350000D02*
G75*
G03*
X-279650000Y-73350000I-450000J0D01*
G01*
%TO.C,D170*%
X-215800000Y-24350000D02*
X-219300000Y-24350000D01*
X-215800000Y-21550000D02*
X-215800000Y-24350000D01*
X-218300000Y-21600000D02*
X-219250000Y-22700000D01*
X-219250000Y-22700000D02*
X-219250000Y-21550000D01*
X-219250000Y-21550000D02*
X-215800000Y-21550000D01*
X-219300000Y-24350000D02*
X-219250000Y-21600000D01*
X-219300000Y-21050000D02*
G75*
G03*
X-219300000Y-21050000I-450000J0D01*
G01*
%TO.C,D165*%
X-200250000Y-38050000D02*
X-203750000Y-38050000D01*
X-200250000Y-35250000D02*
X-200250000Y-38050000D01*
X-202750000Y-35300000D02*
X-203700000Y-36400000D01*
X-203700000Y-36400000D02*
X-203700000Y-35250000D01*
X-203700000Y-35250000D02*
X-200250000Y-35250000D01*
X-203750000Y-38050000D02*
X-203700000Y-35300000D01*
X-203750000Y-34750000D02*
G75*
G03*
X-203750000Y-34750000I-450000J0D01*
G01*
%TO.C,D116*%
X-253250000Y-99900000D02*
X-256750000Y-99900000D01*
X-253250000Y-97100000D02*
X-253250000Y-99900000D01*
X-255750000Y-97150000D02*
X-256700000Y-98250000D01*
X-256700000Y-98250000D02*
X-256700000Y-97100000D01*
X-256700000Y-97100000D02*
X-253250000Y-97100000D01*
X-256750000Y-99900000D02*
X-256700000Y-97150000D01*
X-256750000Y-96600000D02*
G75*
G03*
X-256750000Y-96600000I-450000J0D01*
G01*
%TO.C,D119*%
X-223150000Y-86000000D02*
X-226650000Y-86000000D01*
X-223150000Y-83200000D02*
X-223150000Y-86000000D01*
X-225650000Y-83250000D02*
X-226600000Y-84350000D01*
X-226600000Y-84350000D02*
X-226600000Y-83200000D01*
X-226600000Y-83200000D02*
X-223150000Y-83200000D01*
X-226650000Y-86000000D02*
X-226600000Y-83250000D01*
X-226650000Y-82700000D02*
G75*
G03*
X-226650000Y-82700000I-450000J0D01*
G01*
%TO.C,D62*%
X-259850000Y-177700000D02*
X-263350000Y-177700000D01*
X-259850000Y-174900000D02*
X-259850000Y-177700000D01*
X-262350000Y-174950000D02*
X-263300000Y-176050000D01*
X-263300000Y-176050000D02*
X-263300000Y-174900000D01*
X-263300000Y-174900000D02*
X-259850000Y-174900000D01*
X-263350000Y-177700000D02*
X-263300000Y-174950000D01*
X-263350000Y-174400000D02*
G75*
G03*
X-263350000Y-174400000I-450000J0D01*
G01*
%TO.C,D249*%
X-271550000Y-84200000D02*
X-275050000Y-84200000D01*
X-271550000Y-81400000D02*
X-271550000Y-84200000D01*
X-274050000Y-81450000D02*
X-275000000Y-82550000D01*
X-275000000Y-82550000D02*
X-275000000Y-81400000D01*
X-275000000Y-81400000D02*
X-271550000Y-81400000D01*
X-275050000Y-84200000D02*
X-275000000Y-81450000D01*
X-275050000Y-80900000D02*
G75*
G03*
X-275050000Y-80900000I-450000J0D01*
G01*
%TO.C,D86*%
X-213550000Y-163200000D02*
X-217050000Y-163200000D01*
X-213550000Y-160400000D02*
X-213550000Y-163200000D01*
X-216050000Y-160450000D02*
X-217000000Y-161550000D01*
X-217000000Y-161550000D02*
X-217000000Y-160400000D01*
X-217000000Y-160400000D02*
X-213550000Y-160400000D01*
X-217050000Y-163200000D02*
X-217000000Y-160450000D01*
X-217050000Y-159900000D02*
G75*
G03*
X-217050000Y-159900000I-450000J0D01*
G01*
%TO.C,D44*%
X-227008893Y-192026393D02*
X-230508893Y-192026393D01*
X-227008893Y-189226393D02*
X-227008893Y-192026393D01*
X-229508893Y-189276393D02*
X-230458893Y-190376393D01*
X-230458893Y-190376393D02*
X-230458893Y-189226393D01*
X-230458893Y-189226393D02*
X-227008893Y-189226393D01*
X-230508893Y-192026393D02*
X-230458893Y-189276393D01*
X-230508893Y-188726393D02*
G75*
G03*
X-230508893Y-188726393I-450000J0D01*
G01*
%TO.C,D14*%
X-203408893Y-148826393D02*
X-206908893Y-148826393D01*
X-203408893Y-146026393D02*
X-203408893Y-148826393D01*
X-205908893Y-146076393D02*
X-206858893Y-147176393D01*
X-206858893Y-147176393D02*
X-206858893Y-146026393D01*
X-206858893Y-146026393D02*
X-203408893Y-146026393D01*
X-206908893Y-148826393D02*
X-206858893Y-146076393D01*
X-206908893Y-145526393D02*
G75*
G03*
X-206908893Y-145526393I-450000J0D01*
G01*
%TO.C,D76*%
X-227250000Y-155000000D02*
X-230750000Y-155000000D01*
X-227250000Y-152200000D02*
X-227250000Y-155000000D01*
X-229750000Y-152250000D02*
X-230700000Y-153350000D01*
X-230700000Y-153350000D02*
X-230700000Y-152200000D01*
X-230700000Y-152200000D02*
X-227250000Y-152200000D01*
X-230750000Y-155000000D02*
X-230700000Y-152250000D01*
X-230750000Y-151700000D02*
G75*
G03*
X-230750000Y-151700000I-450000J0D01*
G01*
%TO.C,D68*%
X-253350000Y-159900000D02*
X-256850000Y-159900000D01*
X-253350000Y-157100000D02*
X-253350000Y-159900000D01*
X-255850000Y-157150000D02*
X-256800000Y-158250000D01*
X-256800000Y-158250000D02*
X-256800000Y-157100000D01*
X-256800000Y-157100000D02*
X-253350000Y-157100000D01*
X-256850000Y-159900000D02*
X-256800000Y-157150000D01*
X-256850000Y-156600000D02*
G75*
G03*
X-256850000Y-156600000I-450000J0D01*
G01*
%TO.C,D66*%
X-256400000Y-165450000D02*
X-259900000Y-165450000D01*
X-256400000Y-162650000D02*
X-256400000Y-165450000D01*
X-258900000Y-162700000D02*
X-259850000Y-163800000D01*
X-259850000Y-163800000D02*
X-259850000Y-162650000D01*
X-259850000Y-162650000D02*
X-256400000Y-162650000D01*
X-259900000Y-165450000D02*
X-259850000Y-162700000D01*
X-259900000Y-162150000D02*
G75*
G03*
X-259900000Y-162150000I-450000J0D01*
G01*
%TO.C,D163*%
X-207150000Y-43900000D02*
X-210650000Y-43900000D01*
X-207150000Y-41100000D02*
X-207150000Y-43900000D01*
X-209650000Y-41150000D02*
X-210600000Y-42250000D01*
X-210600000Y-42250000D02*
X-210600000Y-41100000D01*
X-210600000Y-41100000D02*
X-207150000Y-41100000D01*
X-210650000Y-43900000D02*
X-210600000Y-41150000D01*
X-210650000Y-40600000D02*
G75*
G03*
X-210650000Y-40600000I-450000J0D01*
G01*
%TO.C,D61*%
X-264508893Y-180026393D02*
X-268008893Y-180026393D01*
X-264508893Y-177226393D02*
X-264508893Y-180026393D01*
X-267008893Y-177276393D02*
X-267958893Y-178376393D01*
X-267958893Y-178376393D02*
X-267958893Y-177226393D01*
X-267958893Y-177226393D02*
X-264508893Y-177226393D01*
X-268008893Y-180026393D02*
X-267958893Y-177276393D01*
X-268008893Y-176726393D02*
G75*
G03*
X-268008893Y-176726393I-450000J0D01*
G01*
%TO.C,D195*%
X-298300000Y-23150000D02*
X-301800000Y-23150000D01*
X-298300000Y-20350000D02*
X-298300000Y-23150000D01*
X-300800000Y-20400000D02*
X-301750000Y-21500000D01*
X-301750000Y-21500000D02*
X-301750000Y-20350000D01*
X-301750000Y-20350000D02*
X-298300000Y-20350000D01*
X-301800000Y-23150000D02*
X-301750000Y-20400000D01*
X-301800000Y-19850000D02*
G75*
G03*
X-301800000Y-19850000I-450000J0D01*
G01*
%TO.C,D115*%
X-255400000Y-103350000D02*
X-258900000Y-103350000D01*
X-255400000Y-100550000D02*
X-255400000Y-103350000D01*
X-257900000Y-100600000D02*
X-258850000Y-101700000D01*
X-258850000Y-101700000D02*
X-258850000Y-100550000D01*
X-258850000Y-100550000D02*
X-255400000Y-100550000D01*
X-258900000Y-103350000D02*
X-258850000Y-100600000D01*
X-258900000Y-100050000D02*
G75*
G03*
X-258900000Y-100050000I-450000J0D01*
G01*
%TO.C,D96*%
X-231250000Y-149400000D02*
X-234750000Y-149400000D01*
X-231250000Y-146600000D02*
X-231250000Y-149400000D01*
X-233750000Y-146650000D02*
X-234700000Y-147750000D01*
X-234700000Y-147750000D02*
X-234700000Y-146600000D01*
X-234700000Y-146600000D02*
X-231250000Y-146600000D01*
X-234750000Y-149400000D02*
X-234700000Y-146650000D01*
X-234750000Y-146100000D02*
G75*
G03*
X-234750000Y-146100000I-450000J0D01*
G01*
%TO.C,D227*%
X-228508893Y-56426393D02*
X-232008893Y-56426393D01*
X-228508893Y-53626393D02*
X-228508893Y-56426393D01*
X-231008893Y-53676393D02*
X-231958893Y-54776393D01*
X-231958893Y-54776393D02*
X-231958893Y-53626393D01*
X-231958893Y-53626393D02*
X-228508893Y-53626393D01*
X-232008893Y-56426393D02*
X-231958893Y-53676393D01*
X-232008893Y-53126393D02*
G75*
G03*
X-232008893Y-53126393I-450000J0D01*
G01*
%TO.C,D9*%
X-186050000Y-130600000D02*
X-189550000Y-130600000D01*
X-186050000Y-127800000D02*
X-186050000Y-130600000D01*
X-188550000Y-127850000D02*
X-189500000Y-128950000D01*
X-189500000Y-128950000D02*
X-189500000Y-127800000D01*
X-189500000Y-127800000D02*
X-186050000Y-127800000D01*
X-189550000Y-130600000D02*
X-189500000Y-127850000D01*
X-189550000Y-127300000D02*
G75*
G03*
X-189550000Y-127300000I-450000J0D01*
G01*
%TO.C,D124*%
X-205608893Y-89226393D02*
X-209108893Y-89226393D01*
X-205608893Y-86426393D02*
X-205608893Y-89226393D01*
X-208108893Y-86476393D02*
X-209058893Y-87576393D01*
X-209058893Y-87576393D02*
X-209058893Y-86426393D01*
X-209058893Y-86426393D02*
X-205608893Y-86426393D01*
X-209108893Y-89226393D02*
X-209058893Y-86476393D01*
X-209108893Y-85926393D02*
G75*
G03*
X-209108893Y-85926393I-450000J0D01*
G01*
%TO.C,D70*%
X-252400000Y-155850000D02*
X-255900000Y-155850000D01*
X-252400000Y-153050000D02*
X-252400000Y-155850000D01*
X-254900000Y-153100000D02*
X-255850000Y-154200000D01*
X-255850000Y-154200000D02*
X-255850000Y-153050000D01*
X-255850000Y-153050000D02*
X-252400000Y-153050000D01*
X-255900000Y-155850000D02*
X-255850000Y-153100000D01*
X-255900000Y-152550000D02*
G75*
G03*
X-255900000Y-152550000I-450000J0D01*
G01*
%TO.C,D198*%
X-292300000Y-29450000D02*
X-295800000Y-29450000D01*
X-292300000Y-26650000D02*
X-292300000Y-29450000D01*
X-294800000Y-26700000D02*
X-295750000Y-27800000D01*
X-295750000Y-27800000D02*
X-295750000Y-26650000D01*
X-295750000Y-26650000D02*
X-292300000Y-26650000D01*
X-295800000Y-29450000D02*
X-295750000Y-26700000D01*
X-295800000Y-26150000D02*
G75*
G03*
X-295800000Y-26150000I-450000J0D01*
G01*
%TO.C,D226*%
X-234008893Y-56126393D02*
X-237508893Y-56126393D01*
X-234008893Y-53326393D02*
X-234008893Y-56126393D01*
X-236508893Y-53376393D02*
X-237458893Y-54476393D01*
X-237458893Y-54476393D02*
X-237458893Y-53326393D01*
X-237458893Y-53326393D02*
X-234008893Y-53326393D01*
X-237508893Y-56126393D02*
X-237458893Y-53376393D01*
X-237508893Y-52826393D02*
G75*
G03*
X-237508893Y-52826393I-450000J0D01*
G01*
%TO.C,D92*%
X-223000000Y-129050000D02*
X-226500000Y-129050000D01*
X-223000000Y-126250000D02*
X-223000000Y-129050000D01*
X-225500000Y-126300000D02*
X-226450000Y-127400000D01*
X-226450000Y-127400000D02*
X-226450000Y-126250000D01*
X-226450000Y-126250000D02*
X-223000000Y-126250000D01*
X-226500000Y-129050000D02*
X-226450000Y-126300000D01*
X-226500000Y-125750000D02*
G75*
G03*
X-226500000Y-125750000I-450000J0D01*
G01*
%TO.C,D125*%
X-202050000Y-93200000D02*
X-205550000Y-93200000D01*
X-202050000Y-90400000D02*
X-202050000Y-93200000D01*
X-204550000Y-90450000D02*
X-205500000Y-91550000D01*
X-205500000Y-91550000D02*
X-205500000Y-90400000D01*
X-205500000Y-90400000D02*
X-202050000Y-90400000D01*
X-205550000Y-93200000D02*
X-205500000Y-90450000D01*
X-205550000Y-89900000D02*
G75*
G03*
X-205550000Y-89900000I-450000J0D01*
G01*
%TO.C,D230*%
X-217450000Y-46100000D02*
X-220950000Y-46100000D01*
X-217450000Y-43300000D02*
X-217450000Y-46100000D01*
X-219950000Y-43350000D02*
X-220900000Y-44450000D01*
X-220900000Y-44450000D02*
X-220900000Y-43300000D01*
X-220900000Y-43300000D02*
X-217450000Y-43300000D01*
X-220950000Y-46100000D02*
X-220900000Y-43350000D01*
X-220950000Y-42800000D02*
G75*
G03*
X-220950000Y-42800000I-450000J0D01*
G01*
%TO.C,D120*%
X-218808893Y-89226393D02*
X-222308893Y-89226393D01*
X-218808893Y-86426393D02*
X-218808893Y-89226393D01*
X-221308893Y-86476393D02*
X-222258893Y-87576393D01*
X-222258893Y-87576393D02*
X-222258893Y-86426393D01*
X-222258893Y-86426393D02*
X-218808893Y-86426393D01*
X-222308893Y-89226393D02*
X-222258893Y-86476393D01*
X-222308893Y-85926393D02*
G75*
G03*
X-222308893Y-85926393I-450000J0D01*
G01*
%TO.C,D100*%
X-248408893Y-147626393D02*
X-251908893Y-147626393D01*
X-248408893Y-144826393D02*
X-248408893Y-147626393D01*
X-250908893Y-144876393D02*
X-251858893Y-145976393D01*
X-251858893Y-145976393D02*
X-251858893Y-144826393D01*
X-251858893Y-144826393D02*
X-248408893Y-144826393D01*
X-251908893Y-147626393D02*
X-251858893Y-144876393D01*
X-251908893Y-144326393D02*
G75*
G03*
X-251908893Y-144326393I-450000J0D01*
G01*
%TO.C,D74*%
X-232950000Y-155500000D02*
X-236450000Y-155500000D01*
X-232950000Y-152700000D02*
X-232950000Y-155500000D01*
X-235450000Y-152750000D02*
X-236400000Y-153850000D01*
X-236400000Y-153850000D02*
X-236400000Y-152700000D01*
X-236400000Y-152700000D02*
X-232950000Y-152700000D01*
X-236450000Y-155500000D02*
X-236400000Y-152750000D01*
X-236450000Y-152200000D02*
G75*
G03*
X-236450000Y-152200000I-450000J0D01*
G01*
%TO.C,D3*%
X-170608893Y-123026393D02*
X-174108893Y-123026393D01*
X-170608893Y-120226393D02*
X-170608893Y-123026393D01*
X-173108893Y-120276393D02*
X-174058893Y-121376393D01*
X-174058893Y-121376393D02*
X-174058893Y-120226393D01*
X-174058893Y-120226393D02*
X-170608893Y-120226393D01*
X-174108893Y-123026393D02*
X-174058893Y-120276393D01*
X-174108893Y-119726393D02*
G75*
G03*
X-174108893Y-119726393I-450000J0D01*
G01*
%TO.C,D228*%
X-223608893Y-51926393D02*
X-227108893Y-51926393D01*
X-223608893Y-49126393D02*
X-223608893Y-51926393D01*
X-226108893Y-49176393D02*
X-227058893Y-50276393D01*
X-227058893Y-50276393D02*
X-227058893Y-49126393D01*
X-227058893Y-49126393D02*
X-223608893Y-49126393D01*
X-227108893Y-51926393D02*
X-227058893Y-49176393D01*
X-227108893Y-48626393D02*
G75*
G03*
X-227108893Y-48626393I-450000J0D01*
G01*
%TO.C,D72*%
X-242350000Y-156200000D02*
X-245850000Y-156200000D01*
X-242350000Y-153400000D02*
X-242350000Y-156200000D01*
X-244850000Y-153450000D02*
X-245800000Y-154550000D01*
X-245800000Y-154550000D02*
X-245800000Y-153400000D01*
X-245800000Y-153400000D02*
X-242350000Y-153400000D01*
X-245850000Y-156200000D02*
X-245800000Y-153450000D01*
X-245850000Y-152900000D02*
G75*
G03*
X-245850000Y-152900000I-450000J0D01*
G01*
%TO.C,D98*%
X-239550000Y-138200000D02*
X-243050000Y-138200000D01*
X-239550000Y-135400000D02*
X-239550000Y-138200000D01*
X-242050000Y-135450000D02*
X-243000000Y-136550000D01*
X-243000000Y-136550000D02*
X-243000000Y-135400000D01*
X-243000000Y-135400000D02*
X-239550000Y-135400000D01*
X-243050000Y-138200000D02*
X-243000000Y-135450000D01*
X-243050000Y-134900000D02*
G75*
G03*
X-243050000Y-134900000I-450000J0D01*
G01*
%TO.C,D190*%
X-305650000Y-18500000D02*
X-309150000Y-18500000D01*
X-305650000Y-15700000D02*
X-305650000Y-18500000D01*
X-308150000Y-15750000D02*
X-309100000Y-16850000D01*
X-309100000Y-16850000D02*
X-309100000Y-15700000D01*
X-309100000Y-15700000D02*
X-305650000Y-15700000D01*
X-309150000Y-18500000D02*
X-309100000Y-15750000D01*
X-309150000Y-15200000D02*
G75*
G03*
X-309150000Y-15200000I-450000J0D01*
G01*
%TO.C,D193*%
X-308200000Y-24950000D02*
X-311700000Y-24950000D01*
X-308200000Y-22150000D02*
X-308200000Y-24950000D01*
X-310700000Y-22200000D02*
X-311650000Y-23300000D01*
X-311650000Y-23300000D02*
X-311650000Y-22150000D01*
X-311650000Y-22150000D02*
X-308200000Y-22150000D01*
X-311700000Y-24950000D02*
X-311650000Y-22200000D01*
X-311700000Y-21650000D02*
G75*
G03*
X-311700000Y-21650000I-450000J0D01*
G01*
%TO.C,D54*%
X-259350000Y-201900000D02*
X-262850000Y-201900000D01*
X-259350000Y-199100000D02*
X-259350000Y-201900000D01*
X-261850000Y-199150000D02*
X-262800000Y-200250000D01*
X-262800000Y-200250000D02*
X-262800000Y-199100000D01*
X-262800000Y-199100000D02*
X-259350000Y-199100000D01*
X-262850000Y-201900000D02*
X-262800000Y-199150000D01*
X-262850000Y-198600000D02*
G75*
G03*
X-262850000Y-198600000I-450000J0D01*
G01*
%TO.C,D22*%
X-185408893Y-170326393D02*
X-188908893Y-170326393D01*
X-185408893Y-167526393D02*
X-185408893Y-170326393D01*
X-187908893Y-167576393D02*
X-188858893Y-168676393D01*
X-188858893Y-168676393D02*
X-188858893Y-167526393D01*
X-188858893Y-167526393D02*
X-185408893Y-167526393D01*
X-188908893Y-170326393D02*
X-188858893Y-167576393D01*
X-188908893Y-167026393D02*
G75*
G03*
X-188908893Y-167026393I-450000J0D01*
G01*
%TO.C,D154*%
X-172308893Y-94526393D02*
X-175808893Y-94526393D01*
X-172308893Y-91726393D02*
X-172308893Y-94526393D01*
X-174808893Y-91776393D02*
X-175758893Y-92876393D01*
X-175758893Y-92876393D02*
X-175758893Y-91726393D01*
X-175758893Y-91726393D02*
X-172308893Y-91726393D01*
X-175808893Y-94526393D02*
X-175758893Y-91776393D01*
X-175808893Y-91226393D02*
G75*
G03*
X-175808893Y-91226393I-450000J0D01*
G01*
%TO.C,D239*%
X-244350000Y-93300000D02*
X-247850000Y-93300000D01*
X-244350000Y-90500000D02*
X-244350000Y-93300000D01*
X-246850000Y-90550000D02*
X-247800000Y-91650000D01*
X-247800000Y-91650000D02*
X-247800000Y-90500000D01*
X-247800000Y-90500000D02*
X-244350000Y-90500000D01*
X-247850000Y-93300000D02*
X-247800000Y-90550000D01*
X-247850000Y-90000000D02*
G75*
G03*
X-247850000Y-90000000I-450000J0D01*
G01*
%TO.C,D81*%
X-223150000Y-176100000D02*
X-226650000Y-176100000D01*
X-223150000Y-173300000D02*
X-223150000Y-176100000D01*
X-225650000Y-173350000D02*
X-226600000Y-174450000D01*
X-226600000Y-174450000D02*
X-226600000Y-173300000D01*
X-226600000Y-173300000D02*
X-223150000Y-173300000D01*
X-226650000Y-176100000D02*
X-226600000Y-173350000D01*
X-226650000Y-172800000D02*
G75*
G03*
X-226650000Y-172800000I-450000J0D01*
G01*
%TO.C,D242*%
X-249808893Y-88773607D02*
X-253308893Y-88773607D01*
X-249808893Y-85973607D02*
X-249808893Y-88773607D01*
X-252308893Y-86023607D02*
X-253258893Y-87123607D01*
X-253258893Y-87123607D02*
X-253258893Y-85973607D01*
X-253258893Y-85973607D02*
X-249808893Y-85973607D01*
X-253308893Y-88773607D02*
X-253258893Y-86023607D01*
X-253308893Y-85473607D02*
G75*
G03*
X-253308893Y-85473607I-450000J0D01*
G01*
%TO.C,D48*%
X-242550000Y-194000000D02*
X-246050000Y-194000000D01*
X-242550000Y-191200000D02*
X-242550000Y-194000000D01*
X-245050000Y-191250000D02*
X-246000000Y-192350000D01*
X-246000000Y-192350000D02*
X-246000000Y-191200000D01*
X-246000000Y-191200000D02*
X-242550000Y-191200000D01*
X-246050000Y-194000000D02*
X-246000000Y-191250000D01*
X-246050000Y-190700000D02*
G75*
G03*
X-246050000Y-190700000I-450000J0D01*
G01*
%TO.C,D135*%
X-194350000Y-104300000D02*
X-197850000Y-104300000D01*
X-194350000Y-101500000D02*
X-194350000Y-104300000D01*
X-196850000Y-101550000D02*
X-197800000Y-102650000D01*
X-197800000Y-102650000D02*
X-197800000Y-101500000D01*
X-197800000Y-101500000D02*
X-194350000Y-101500000D01*
X-197850000Y-104300000D02*
X-197800000Y-101550000D01*
X-197850000Y-101000000D02*
G75*
G03*
X-197850000Y-101000000I-450000J0D01*
G01*
%TO.C,D79*%
X-225000000Y-166950000D02*
X-228500000Y-166950000D01*
X-225000000Y-164150000D02*
X-225000000Y-166950000D01*
X-227500000Y-164200000D02*
X-228450000Y-165300000D01*
X-228450000Y-165300000D02*
X-228450000Y-164150000D01*
X-228450000Y-164150000D02*
X-225000000Y-164150000D01*
X-228500000Y-166950000D02*
X-228450000Y-164200000D01*
X-228500000Y-163650000D02*
G75*
G03*
X-228500000Y-163650000I-450000J0D01*
G01*
%TO.C,D10*%
X-188250000Y-135400000D02*
X-191750000Y-135400000D01*
X-188250000Y-132600000D02*
X-188250000Y-135400000D01*
X-190750000Y-132650000D02*
X-191700000Y-133750000D01*
X-191700000Y-133750000D02*
X-191700000Y-132600000D01*
X-191700000Y-132600000D02*
X-188250000Y-132600000D01*
X-191750000Y-135400000D02*
X-191700000Y-132650000D01*
X-191750000Y-132100000D02*
G75*
G03*
X-191750000Y-132100000I-450000J0D01*
G01*
%TO.C,D128*%
X-189750000Y-97800000D02*
X-193250000Y-97800000D01*
X-189750000Y-95000000D02*
X-189750000Y-97800000D01*
X-192250000Y-95050000D02*
X-193200000Y-96150000D01*
X-193200000Y-96150000D02*
X-193200000Y-95000000D01*
X-193200000Y-95000000D02*
X-189750000Y-95000000D01*
X-193250000Y-97800000D02*
X-193200000Y-95050000D01*
X-193250000Y-94500000D02*
G75*
G03*
X-193250000Y-94500000I-450000J0D01*
G01*
%TO.C,D237*%
X-236308893Y-90726393D02*
X-239808893Y-90726393D01*
X-236308893Y-87926393D02*
X-236308893Y-90726393D01*
X-238808893Y-87976393D02*
X-239758893Y-89076393D01*
X-239758893Y-89076393D02*
X-239758893Y-87926393D01*
X-239758893Y-87926393D02*
X-236308893Y-87926393D01*
X-239808893Y-90726393D02*
X-239758893Y-87976393D01*
X-239808893Y-87426393D02*
G75*
G03*
X-239808893Y-87426393I-450000J0D01*
G01*
%TO.C,D21*%
X-191008893Y-171526393D02*
X-194508893Y-171526393D01*
X-191008893Y-168726393D02*
X-191008893Y-171526393D01*
X-193508893Y-168776393D02*
X-194458893Y-169876393D01*
X-194458893Y-169876393D02*
X-194458893Y-168726393D01*
X-194458893Y-168726393D02*
X-191008893Y-168726393D01*
X-194508893Y-171526393D02*
X-194458893Y-168776393D01*
X-194508893Y-168226393D02*
G75*
G03*
X-194508893Y-168226393I-450000J0D01*
G01*
%TO.C,D164*%
X-207450000Y-39700000D02*
X-210950000Y-39700000D01*
X-207450000Y-36900000D02*
X-207450000Y-39700000D01*
X-209950000Y-36950000D02*
X-210900000Y-38050000D01*
X-210900000Y-38050000D02*
X-210900000Y-36900000D01*
X-210900000Y-36900000D02*
X-207450000Y-36900000D01*
X-210950000Y-39700000D02*
X-210900000Y-36950000D01*
X-210950000Y-36400000D02*
G75*
G03*
X-210950000Y-36400000I-450000J0D01*
G01*
%TO.C,D246*%
X-264250000Y-83726393D02*
X-267750000Y-83726393D01*
X-264250000Y-80926393D02*
X-264250000Y-83726393D01*
X-266750000Y-80976393D02*
X-267700000Y-82076393D01*
X-267700000Y-82076393D02*
X-267700000Y-80926393D01*
X-267700000Y-80926393D02*
X-264250000Y-80926393D01*
X-267750000Y-83726393D02*
X-267700000Y-80976393D01*
X-267750000Y-80426393D02*
G75*
G03*
X-267750000Y-80426393I-450000J0D01*
G01*
%TO.C,D185*%
X-265150000Y-4800000D02*
X-268650000Y-4800000D01*
X-265150000Y-2000000D02*
X-265150000Y-4800000D01*
X-267650000Y-2050000D02*
X-268600000Y-3150000D01*
X-268600000Y-3150000D02*
X-268600000Y-2000000D01*
X-268600000Y-2000000D02*
X-265150000Y-2000000D01*
X-268650000Y-4800000D02*
X-268600000Y-2050000D01*
X-268650000Y-1500000D02*
G75*
G03*
X-268650000Y-1500000I-450000J0D01*
G01*
%TO.C,D197*%
X-293500000Y-25450000D02*
X-297000000Y-25450000D01*
X-293500000Y-22650000D02*
X-293500000Y-25450000D01*
X-296000000Y-22700000D02*
X-296950000Y-23800000D01*
X-296950000Y-23800000D02*
X-296950000Y-22650000D01*
X-296950000Y-22650000D02*
X-293500000Y-22650000D01*
X-297000000Y-25450000D02*
X-296950000Y-22700000D01*
X-297000000Y-22150000D02*
G75*
G03*
X-297000000Y-22150000I-450000J0D01*
G01*
%TO.C,D11*%
X-190250000Y-141200000D02*
X-193750000Y-141200000D01*
X-190250000Y-138400000D02*
X-190250000Y-141200000D01*
X-192750000Y-138450000D02*
X-193700000Y-139550000D01*
X-193700000Y-139550000D02*
X-193700000Y-138400000D01*
X-193700000Y-138400000D02*
X-190250000Y-138400000D01*
X-193750000Y-141200000D02*
X-193700000Y-138450000D01*
X-193750000Y-137900000D02*
G75*
G03*
X-193750000Y-137900000I-450000J0D01*
G01*
%TO.C,D28*%
X-181008893Y-170726393D02*
X-184508893Y-170726393D01*
X-181008893Y-167926393D02*
X-181008893Y-170726393D01*
X-183508893Y-167976393D02*
X-184458893Y-169076393D01*
X-184458893Y-169076393D02*
X-184458893Y-167926393D01*
X-184458893Y-167926393D02*
X-181008893Y-167926393D01*
X-184508893Y-170726393D02*
X-184458893Y-167976393D01*
X-184508893Y-167426393D02*
G75*
G03*
X-184508893Y-167426393I-450000J0D01*
G01*
%TO.C,D220*%
X-262150000Y-56800000D02*
X-265650000Y-56800000D01*
X-262150000Y-54000000D02*
X-262150000Y-56800000D01*
X-264650000Y-54050000D02*
X-265600000Y-55150000D01*
X-265600000Y-55150000D02*
X-265600000Y-54000000D01*
X-265600000Y-54000000D02*
X-262150000Y-54000000D01*
X-265650000Y-56800000D02*
X-265600000Y-54050000D01*
X-265650000Y-53500000D02*
G75*
G03*
X-265650000Y-53500000I-450000J0D01*
G01*
%TO.C,D8*%
X-181308893Y-134026393D02*
X-184808893Y-134026393D01*
X-181308893Y-131226393D02*
X-181308893Y-134026393D01*
X-183808893Y-131276393D02*
X-184758893Y-132376393D01*
X-184758893Y-132376393D02*
X-184758893Y-131226393D01*
X-184758893Y-131226393D02*
X-181308893Y-131226393D01*
X-184808893Y-134026393D02*
X-184758893Y-131276393D01*
X-184808893Y-130726393D02*
G75*
G03*
X-184808893Y-130726393I-450000J0D01*
G01*
%TO.C,D2*%
X-171350000Y-113800000D02*
X-174850000Y-113800000D01*
X-171350000Y-111000000D02*
X-171350000Y-113800000D01*
X-173850000Y-111050000D02*
X-174800000Y-112150000D01*
X-174800000Y-112150000D02*
X-174800000Y-111000000D01*
X-174800000Y-111000000D02*
X-171350000Y-111000000D01*
X-174850000Y-113800000D02*
X-174800000Y-111050000D01*
X-174850000Y-110500000D02*
G75*
G03*
X-174850000Y-110500000I-450000J0D01*
G01*
%TO.C,D129*%
X-178752513Y-108627386D02*
X-181227386Y-106152513D01*
X-176772614Y-106647487D02*
X-178752513Y-108627386D01*
X-178575736Y-104915076D02*
X-180025305Y-105021142D01*
X-180025305Y-105021142D02*
X-179212132Y-104207969D01*
X-179212132Y-104207969D02*
X-176772614Y-106647487D01*
X-181227386Y-106152513D02*
X-179247487Y-104243324D01*
X-178762132Y-103500862D02*
G75*
G03*
X-178762132Y-103500862I-450000J0D01*
G01*
%TO.C,D158*%
X-194350000Y-53300000D02*
X-197850000Y-53300000D01*
X-194350000Y-50500000D02*
X-194350000Y-53300000D01*
X-196850000Y-50550000D02*
X-197800000Y-51650000D01*
X-197800000Y-51650000D02*
X-197800000Y-50500000D01*
X-197800000Y-50500000D02*
X-194350000Y-50500000D01*
X-197850000Y-53300000D02*
X-197800000Y-50550000D01*
X-197850000Y-50000000D02*
G75*
G03*
X-197850000Y-50000000I-450000J0D01*
G01*
%TO.C,D59*%
X-265650000Y-186600000D02*
X-269150000Y-186600000D01*
X-265650000Y-183800000D02*
X-265650000Y-186600000D01*
X-268150000Y-183850000D02*
X-269100000Y-184950000D01*
X-269100000Y-184950000D02*
X-269100000Y-183800000D01*
X-269100000Y-183800000D02*
X-265650000Y-183800000D01*
X-269150000Y-186600000D02*
X-269100000Y-183850000D01*
X-269150000Y-183300000D02*
G75*
G03*
X-269150000Y-183300000I-450000J0D01*
G01*
%TO.C,D248*%
X-267450000Y-80100000D02*
X-270950000Y-80100000D01*
X-267450000Y-77300000D02*
X-267450000Y-80100000D01*
X-269950000Y-77350000D02*
X-270900000Y-78450000D01*
X-270900000Y-78450000D02*
X-270900000Y-77300000D01*
X-270900000Y-77300000D02*
X-267450000Y-77300000D01*
X-270950000Y-80100000D02*
X-270900000Y-77350000D01*
X-270950000Y-76800000D02*
G75*
G03*
X-270950000Y-76800000I-450000J0D01*
G01*
%TO.C,D252*%
X-271850000Y-76900000D02*
X-275350000Y-76900000D01*
X-271850000Y-74100000D02*
X-271850000Y-76900000D01*
X-274350000Y-74150000D02*
X-275300000Y-75250000D01*
X-275300000Y-75250000D02*
X-275300000Y-74100000D01*
X-275300000Y-74100000D02*
X-271850000Y-74100000D01*
X-275350000Y-76900000D02*
X-275300000Y-74150000D01*
X-275350000Y-73600000D02*
G75*
G03*
X-275350000Y-73600000I-450000J0D01*
G01*
%TO.C,D167*%
X-211808893Y-36126393D02*
X-215308893Y-36126393D01*
X-211808893Y-33326393D02*
X-211808893Y-36126393D01*
X-214308893Y-33376393D02*
X-215258893Y-34476393D01*
X-215258893Y-34476393D02*
X-215258893Y-33326393D01*
X-215258893Y-33326393D02*
X-211808893Y-33326393D01*
X-215308893Y-36126393D02*
X-215258893Y-33376393D01*
X-215308893Y-32826393D02*
G75*
G03*
X-215308893Y-32826393I-450000J0D01*
G01*
%TO.C,D238*%
X-238950000Y-85700000D02*
X-242450000Y-85700000D01*
X-238950000Y-82900000D02*
X-238950000Y-85700000D01*
X-241450000Y-82950000D02*
X-242400000Y-84050000D01*
X-242400000Y-84050000D02*
X-242400000Y-82900000D01*
X-242400000Y-82900000D02*
X-238950000Y-82900000D01*
X-242450000Y-85700000D02*
X-242400000Y-82950000D01*
X-242450000Y-82400000D02*
G75*
G03*
X-242450000Y-82400000I-450000J0D01*
G01*
%TO.C,D4*%
X-170008893Y-127826393D02*
X-173508893Y-127826393D01*
X-170008893Y-125026393D02*
X-170008893Y-127826393D01*
X-172508893Y-125076393D02*
X-173458893Y-126176393D01*
X-173458893Y-126176393D02*
X-173458893Y-125026393D01*
X-173458893Y-125026393D02*
X-170008893Y-125026393D01*
X-173508893Y-127826393D02*
X-173458893Y-125076393D01*
X-173508893Y-124526393D02*
G75*
G03*
X-173508893Y-124526393I-450000J0D01*
G01*
%TO.C,D137*%
X-197308893Y-83726393D02*
X-200808893Y-83726393D01*
X-197308893Y-80926393D02*
X-197308893Y-83726393D01*
X-199808893Y-80976393D02*
X-200758893Y-82076393D01*
X-200758893Y-82076393D02*
X-200758893Y-80926393D01*
X-200758893Y-80926393D02*
X-197308893Y-80926393D01*
X-200808893Y-83726393D02*
X-200758893Y-80976393D01*
X-200808893Y-80426393D02*
G75*
G03*
X-200808893Y-80426393I-450000J0D01*
G01*
%TO.C,D139*%
X-206450000Y-80300000D02*
X-209950000Y-80300000D01*
X-206450000Y-77500000D02*
X-206450000Y-80300000D01*
X-208950000Y-77550000D02*
X-209900000Y-78650000D01*
X-209900000Y-78650000D02*
X-209900000Y-77500000D01*
X-209900000Y-77500000D02*
X-206450000Y-77500000D01*
X-209950000Y-80300000D02*
X-209900000Y-77550000D01*
X-209950000Y-77000000D02*
G75*
G03*
X-209950000Y-77000000I-450000J0D01*
G01*
%TO.C,D121*%
X-214800000Y-85750000D02*
X-218300000Y-85750000D01*
X-214800000Y-82950000D02*
X-214800000Y-85750000D01*
X-217300000Y-83000000D02*
X-218250000Y-84100000D01*
X-218250000Y-84100000D02*
X-218250000Y-82950000D01*
X-218250000Y-82950000D02*
X-214800000Y-82950000D01*
X-218300000Y-85750000D02*
X-218250000Y-83000000D01*
X-218300000Y-82450000D02*
G75*
G03*
X-218300000Y-82450000I-450000J0D01*
G01*
%TO.C,D31*%
X-185850000Y-181200000D02*
X-189350000Y-181200000D01*
X-185850000Y-178400000D02*
X-185850000Y-181200000D01*
X-188350000Y-178450000D02*
X-189300000Y-179550000D01*
X-189300000Y-179550000D02*
X-189300000Y-178400000D01*
X-189300000Y-178400000D02*
X-185850000Y-178400000D01*
X-189350000Y-181200000D02*
X-189300000Y-178450000D01*
X-189350000Y-177900000D02*
G75*
G03*
X-189350000Y-177900000I-450000J0D01*
G01*
%TO.C,D182*%
X-255550000Y-10600000D02*
X-259050000Y-10600000D01*
X-255550000Y-7800000D02*
X-255550000Y-10600000D01*
X-258050000Y-7850000D02*
X-259000000Y-8950000D01*
X-259000000Y-8950000D02*
X-259000000Y-7800000D01*
X-259000000Y-7800000D02*
X-255550000Y-7800000D01*
X-259050000Y-10600000D02*
X-259000000Y-7850000D01*
X-259050000Y-7300000D02*
G75*
G03*
X-259050000Y-7300000I-450000J0D01*
G01*
%TO.C,D250*%
X-274700000Y-80850000D02*
X-278200000Y-80850000D01*
X-274700000Y-78050000D02*
X-274700000Y-80850000D01*
X-277200000Y-78100000D02*
X-278150000Y-79200000D01*
X-278150000Y-79200000D02*
X-278150000Y-78050000D01*
X-278150000Y-78050000D02*
X-274700000Y-78050000D01*
X-278200000Y-80850000D02*
X-278150000Y-78100000D01*
X-278200000Y-77550000D02*
G75*
G03*
X-278200000Y-77550000I-450000J0D01*
G01*
%TO.C,D123*%
X-207808893Y-85626393D02*
X-211308893Y-85626393D01*
X-207808893Y-82826393D02*
X-207808893Y-85626393D01*
X-210308893Y-82876393D02*
X-211258893Y-83976393D01*
X-211258893Y-83976393D02*
X-211258893Y-82826393D01*
X-211258893Y-82826393D02*
X-207808893Y-82826393D01*
X-211308893Y-85626393D02*
X-211258893Y-82876393D01*
X-211308893Y-82326393D02*
G75*
G03*
X-211308893Y-82326393I-450000J0D01*
G01*
%TO.C,D243*%
X-252400000Y-84950000D02*
X-255900000Y-84950000D01*
X-252400000Y-82150000D02*
X-252400000Y-84950000D01*
X-254900000Y-82200000D02*
X-255850000Y-83300000D01*
X-255850000Y-83300000D02*
X-255850000Y-82150000D01*
X-255850000Y-82150000D02*
X-252400000Y-82150000D01*
X-255900000Y-84950000D02*
X-255850000Y-82200000D01*
X-255900000Y-81650000D02*
G75*
G03*
X-255900000Y-81650000I-450000J0D01*
G01*
%TO.C,D247*%
X-261650000Y-87800000D02*
X-265150000Y-87800000D01*
X-261650000Y-85000000D02*
X-261650000Y-87800000D01*
X-264150000Y-85050000D02*
X-265100000Y-86150000D01*
X-265100000Y-86150000D02*
X-265100000Y-85000000D01*
X-265100000Y-85000000D02*
X-261650000Y-85000000D01*
X-265150000Y-87800000D02*
X-265100000Y-85050000D01*
X-265150000Y-84500000D02*
G75*
G03*
X-265150000Y-84500000I-450000J0D01*
G01*
%TO.C,D113*%
X-260950000Y-110800000D02*
X-264450000Y-110800000D01*
X-260950000Y-108000000D02*
X-260950000Y-110800000D01*
X-263450000Y-108050000D02*
X-264400000Y-109150000D01*
X-264400000Y-109150000D02*
X-264400000Y-108000000D01*
X-264400000Y-108000000D02*
X-260950000Y-108000000D01*
X-264450000Y-110800000D02*
X-264400000Y-108050000D01*
X-264450000Y-107500000D02*
G75*
G03*
X-264450000Y-107500000I-450000J0D01*
G01*
%TO.C,D245*%
X-258600000Y-84550000D02*
X-262100000Y-84550000D01*
X-258600000Y-81750000D02*
X-258600000Y-84550000D01*
X-261100000Y-81800000D02*
X-262050000Y-82900000D01*
X-262050000Y-82900000D02*
X-262050000Y-81750000D01*
X-262050000Y-81750000D02*
X-258600000Y-81750000D01*
X-262100000Y-84550000D02*
X-262050000Y-81800000D01*
X-262100000Y-81250000D02*
G75*
G03*
X-262100000Y-81250000I-450000J0D01*
G01*
%TO.C,D26*%
X-174250000Y-153100000D02*
X-177750000Y-153100000D01*
X-174250000Y-150300000D02*
X-174250000Y-153100000D01*
X-176750000Y-150350000D02*
X-177700000Y-151450000D01*
X-177700000Y-151450000D02*
X-177700000Y-150300000D01*
X-177700000Y-150300000D02*
X-174250000Y-150300000D01*
X-177750000Y-153100000D02*
X-177700000Y-150350000D01*
X-177750000Y-149800000D02*
G75*
G03*
X-177750000Y-149800000I-450000J0D01*
G01*
%TO.C,D39*%
X-210100000Y-200550000D02*
X-213600000Y-200550000D01*
X-210100000Y-197750000D02*
X-210100000Y-200550000D01*
X-212600000Y-197800000D02*
X-213550000Y-198900000D01*
X-213550000Y-198900000D02*
X-213550000Y-197750000D01*
X-213550000Y-197750000D02*
X-210100000Y-197750000D01*
X-213600000Y-200550000D02*
X-213550000Y-197800000D01*
X-213600000Y-197250000D02*
G75*
G03*
X-213600000Y-197250000I-450000J0D01*
G01*
%TO.C,D105*%
X-267208893Y-141826393D02*
X-270708893Y-141826393D01*
X-267208893Y-139026393D02*
X-267208893Y-141826393D01*
X-269708893Y-139076393D02*
X-270658893Y-140176393D01*
X-270658893Y-140176393D02*
X-270658893Y-139026393D01*
X-270658893Y-139026393D02*
X-267208893Y-139026393D01*
X-270708893Y-141826393D02*
X-270658893Y-139076393D01*
X-270708893Y-138526393D02*
G75*
G03*
X-270708893Y-138526393I-450000J0D01*
G01*
%TO.C,D209*%
X-284000000Y-50150000D02*
X-287500000Y-50150000D01*
X-284000000Y-47350000D02*
X-284000000Y-50150000D01*
X-286500000Y-47400000D02*
X-287450000Y-48500000D01*
X-287450000Y-48500000D02*
X-287450000Y-47350000D01*
X-287450000Y-47350000D02*
X-284000000Y-47350000D01*
X-287500000Y-50150000D02*
X-287450000Y-47400000D01*
X-287500000Y-46850000D02*
G75*
G03*
X-287500000Y-46850000I-450000J0D01*
G01*
%TO.C,D210*%
X-286808893Y-53326393D02*
X-290308893Y-53326393D01*
X-286808893Y-50526393D02*
X-286808893Y-53326393D01*
X-289308893Y-50576393D02*
X-290258893Y-51676393D01*
X-290258893Y-51676393D02*
X-290258893Y-50526393D01*
X-290258893Y-50526393D02*
X-286808893Y-50526393D01*
X-290308893Y-53326393D02*
X-290258893Y-50576393D01*
X-290308893Y-50026393D02*
G75*
G03*
X-290308893Y-50026393I-450000J0D01*
G01*
%TO.C,D192*%
X-310700000Y-20850000D02*
X-314200000Y-20850000D01*
X-310700000Y-18050000D02*
X-310700000Y-20850000D01*
X-313200000Y-18100000D02*
X-314150000Y-19200000D01*
X-314150000Y-19200000D02*
X-314150000Y-18050000D01*
X-314150000Y-18050000D02*
X-310700000Y-18050000D01*
X-314200000Y-20850000D02*
X-314150000Y-18100000D01*
X-314200000Y-17550000D02*
G75*
G03*
X-314200000Y-17550000I-450000J0D01*
G01*
%TO.C,D57*%
X-265108893Y-193726393D02*
X-268608893Y-193726393D01*
X-265108893Y-190926393D02*
X-265108893Y-193726393D01*
X-267608893Y-190976393D02*
X-268558893Y-192076393D01*
X-268558893Y-192076393D02*
X-268558893Y-190926393D01*
X-268558893Y-190926393D02*
X-265108893Y-190926393D01*
X-268608893Y-193726393D02*
X-268558893Y-190976393D01*
X-268608893Y-190426393D02*
G75*
G03*
X-268608893Y-190426393I-450000J0D01*
G01*
%TO.C,D244*%
X-255850000Y-88300000D02*
X-259350000Y-88300000D01*
X-255850000Y-85500000D02*
X-255850000Y-88300000D01*
X-258350000Y-85550000D02*
X-259300000Y-86650000D01*
X-259300000Y-86650000D02*
X-259300000Y-85500000D01*
X-259300000Y-85500000D02*
X-255850000Y-85500000D01*
X-259350000Y-88300000D02*
X-259300000Y-85550000D01*
X-259350000Y-85000000D02*
G75*
G03*
X-259350000Y-85000000I-450000J0D01*
G01*
%TO.C,D171*%
X-221800000Y-25850000D02*
X-225300000Y-25850000D01*
X-221800000Y-23050000D02*
X-221800000Y-25850000D01*
X-224300000Y-23100000D02*
X-225250000Y-24200000D01*
X-225250000Y-24200000D02*
X-225250000Y-23050000D01*
X-225250000Y-23050000D02*
X-221800000Y-23050000D01*
X-225300000Y-25850000D02*
X-225250000Y-23100000D01*
X-225300000Y-22550000D02*
G75*
G03*
X-225300000Y-22550000I-450000J0D01*
G01*
%TO.C,D63*%
X-262550000Y-173800000D02*
X-266050000Y-173800000D01*
X-262550000Y-171000000D02*
X-262550000Y-173800000D01*
X-265050000Y-171050000D02*
X-266000000Y-172150000D01*
X-266000000Y-172150000D02*
X-266000000Y-171000000D01*
X-266000000Y-171000000D02*
X-262550000Y-171000000D01*
X-266050000Y-173800000D02*
X-266000000Y-171050000D01*
X-266050000Y-170500000D02*
G75*
G03*
X-266050000Y-170500000I-450000J0D01*
G01*
%TO.C,D136*%
X-202350000Y-84100000D02*
X-205850000Y-84100000D01*
X-202350000Y-81300000D02*
X-202350000Y-84100000D01*
X-204850000Y-81350000D02*
X-205800000Y-82450000D01*
X-205800000Y-82450000D02*
X-205800000Y-81300000D01*
X-205800000Y-81300000D02*
X-202350000Y-81300000D01*
X-205850000Y-84100000D02*
X-205800000Y-81350000D01*
X-205850000Y-80800000D02*
G75*
G03*
X-205850000Y-80800000I-450000J0D01*
G01*
%TO.C,D219*%
X-267350000Y-57800000D02*
X-270850000Y-57800000D01*
X-267350000Y-55000000D02*
X-267350000Y-57800000D01*
X-269850000Y-55050000D02*
X-270800000Y-56150000D01*
X-270800000Y-56150000D02*
X-270800000Y-55000000D01*
X-270800000Y-55000000D02*
X-267350000Y-55000000D01*
X-270850000Y-57800000D02*
X-270800000Y-55050000D01*
X-270850000Y-54500000D02*
G75*
G03*
X-270850000Y-54500000I-450000J0D01*
G01*
%TO.C,D93*%
X-227608893Y-134326393D02*
X-231108893Y-134326393D01*
X-227608893Y-131526393D02*
X-227608893Y-134326393D01*
X-230108893Y-131576393D02*
X-231058893Y-132676393D01*
X-231058893Y-132676393D02*
X-231058893Y-131526393D01*
X-231058893Y-131526393D02*
X-227608893Y-131526393D01*
X-231108893Y-134326393D02*
X-231058893Y-131576393D01*
X-231108893Y-131026393D02*
G75*
G03*
X-231108893Y-131026393I-450000J0D01*
G01*
%TO.C,D134*%
X-214108893Y-121426393D02*
X-217608893Y-121426393D01*
X-214108893Y-118626393D02*
X-214108893Y-121426393D01*
X-216608893Y-118676393D02*
X-217558893Y-119776393D01*
X-217558893Y-119776393D02*
X-217558893Y-118626393D01*
X-217558893Y-118626393D02*
X-214108893Y-118626393D01*
X-217608893Y-121426393D02*
X-217558893Y-118676393D01*
X-217608893Y-118126393D02*
G75*
G03*
X-217608893Y-118126393I-450000J0D01*
G01*
%TO.C,D17*%
X-207800000Y-163850000D02*
X-211300000Y-163850000D01*
X-207800000Y-161050000D02*
X-207800000Y-163850000D01*
X-210300000Y-161100000D02*
X-211250000Y-162200000D01*
X-211250000Y-162200000D02*
X-211250000Y-161050000D01*
X-211250000Y-161050000D02*
X-207800000Y-161050000D01*
X-211300000Y-163850000D02*
X-211250000Y-161100000D01*
X-211300000Y-160550000D02*
G75*
G03*
X-211300000Y-160550000I-450000J0D01*
G01*
%TO.C,D34*%
X-195650000Y-189000000D02*
X-199150000Y-189000000D01*
X-195650000Y-186200000D02*
X-195650000Y-189000000D01*
X-198150000Y-186250000D02*
X-199100000Y-187350000D01*
X-199100000Y-187350000D02*
X-199100000Y-186200000D01*
X-199100000Y-186200000D02*
X-195650000Y-186200000D01*
X-199150000Y-189000000D02*
X-199100000Y-186250000D01*
X-199150000Y-185700000D02*
G75*
G03*
X-199150000Y-185700000I-450000J0D01*
G01*
%TO.C,D177*%
X-241350000Y-9900000D02*
X-244850000Y-9900000D01*
X-241350000Y-7100000D02*
X-241350000Y-9900000D01*
X-243850000Y-7150000D02*
X-244800000Y-8250000D01*
X-244800000Y-8250000D02*
X-244800000Y-7100000D01*
X-244800000Y-7100000D02*
X-241350000Y-7100000D01*
X-244850000Y-9900000D02*
X-244800000Y-7150000D01*
X-244850000Y-6600000D02*
G75*
G03*
X-244850000Y-6600000I-450000J0D01*
G01*
%TO.C,D88*%
X-197108893Y-126926393D02*
X-200608893Y-126926393D01*
X-197108893Y-124126393D02*
X-197108893Y-126926393D01*
X-199608893Y-124176393D02*
X-200558893Y-125276393D01*
X-200558893Y-125276393D02*
X-200558893Y-124126393D01*
X-200558893Y-124126393D02*
X-197108893Y-124126393D01*
X-200608893Y-126926393D02*
X-200558893Y-124176393D01*
X-200608893Y-123626393D02*
G75*
G03*
X-200608893Y-123626393I-450000J0D01*
G01*
%TO.C,D84*%
X-217300000Y-171150000D02*
X-220800000Y-171150000D01*
X-217300000Y-168350000D02*
X-217300000Y-171150000D01*
X-219800000Y-168400000D02*
X-220750000Y-169500000D01*
X-220750000Y-169500000D02*
X-220750000Y-168350000D01*
X-220750000Y-168350000D02*
X-217300000Y-168350000D01*
X-220800000Y-171150000D02*
X-220750000Y-168400000D01*
X-220800000Y-167850000D02*
G75*
G03*
X-220800000Y-167850000I-450000J0D01*
G01*
%TO.C,D240*%
X-243850000Y-89100000D02*
X-247350000Y-89100000D01*
X-243850000Y-86300000D02*
X-243850000Y-89100000D01*
X-246350000Y-86350000D02*
X-247300000Y-87450000D01*
X-247300000Y-87450000D02*
X-247300000Y-86300000D01*
X-247300000Y-86300000D02*
X-243850000Y-86300000D01*
X-247350000Y-89100000D02*
X-247300000Y-86350000D01*
X-247350000Y-85800000D02*
G75*
G03*
X-247350000Y-85800000I-450000J0D01*
G01*
%TO.C,D90*%
X-209908893Y-125326393D02*
X-213408893Y-125326393D01*
X-209908893Y-122526393D02*
X-209908893Y-125326393D01*
X-212408893Y-122576393D02*
X-213358893Y-123676393D01*
X-213358893Y-123676393D02*
X-213358893Y-122526393D01*
X-213358893Y-122526393D02*
X-209908893Y-122526393D01*
X-213408893Y-125326393D02*
X-213358893Y-122576393D01*
X-213408893Y-122026393D02*
G75*
G03*
X-213408893Y-122026393I-450000J0D01*
G01*
%TO.C,D126*%
X-196700000Y-95350000D02*
X-200200000Y-95350000D01*
X-196700000Y-92550000D02*
X-196700000Y-95350000D01*
X-199200000Y-92600000D02*
X-200150000Y-93700000D01*
X-200150000Y-93700000D02*
X-200150000Y-92550000D01*
X-200150000Y-92550000D02*
X-196700000Y-92550000D01*
X-200200000Y-95350000D02*
X-200150000Y-92600000D01*
X-200200000Y-92050000D02*
G75*
G03*
X-200200000Y-92050000I-450000J0D01*
G01*
%TO.C,D229*%
X-222950000Y-48500000D02*
X-226450000Y-48500000D01*
X-222950000Y-45700000D02*
X-222950000Y-48500000D01*
X-225450000Y-45750000D02*
X-226400000Y-46850000D01*
X-226400000Y-46850000D02*
X-226400000Y-45700000D01*
X-226400000Y-45700000D02*
X-222950000Y-45700000D01*
X-226450000Y-48500000D02*
X-226400000Y-45750000D01*
X-226450000Y-45200000D02*
G75*
G03*
X-226450000Y-45200000I-450000J0D01*
G01*
%TO.C,D109*%
X-260650000Y-126700000D02*
X-264150000Y-126700000D01*
X-260650000Y-123900000D02*
X-260650000Y-126700000D01*
X-263150000Y-123950000D02*
X-264100000Y-125050000D01*
X-264100000Y-125050000D02*
X-264100000Y-123900000D01*
X-264100000Y-123900000D02*
X-260650000Y-123900000D01*
X-264150000Y-126700000D02*
X-264100000Y-123950000D01*
X-264150000Y-123400000D02*
G75*
G03*
X-264150000Y-123400000I-450000J0D01*
G01*
%TO.C,D87*%
X-191308893Y-128826393D02*
X-194808893Y-128826393D01*
X-191308893Y-126026393D02*
X-191308893Y-128826393D01*
X-193808893Y-126076393D02*
X-194758893Y-127176393D01*
X-194758893Y-127176393D02*
X-194758893Y-126026393D01*
X-194758893Y-126026393D02*
X-191308893Y-126026393D01*
X-194808893Y-128826393D02*
X-194758893Y-126076393D01*
X-194808893Y-125526393D02*
G75*
G03*
X-194808893Y-125526393I-450000J0D01*
G01*
%TO.C,D189*%
X-307400000Y-9050000D02*
X-310900000Y-9050000D01*
X-307400000Y-6250000D02*
X-307400000Y-9050000D01*
X-309900000Y-6300000D02*
X-310850000Y-7400000D01*
X-310850000Y-7400000D02*
X-310850000Y-6250000D01*
X-310850000Y-6250000D02*
X-307400000Y-6250000D01*
X-310900000Y-9050000D02*
X-310850000Y-6300000D01*
X-310900000Y-5750000D02*
G75*
G03*
X-310900000Y-5750000I-450000J0D01*
G01*
%TO.C,D24*%
X-177808893Y-162126393D02*
X-181308893Y-162126393D01*
X-177808893Y-159326393D02*
X-177808893Y-162126393D01*
X-180308893Y-159376393D02*
X-181258893Y-160476393D01*
X-181258893Y-160476393D02*
X-181258893Y-159326393D01*
X-181258893Y-159326393D02*
X-177808893Y-159326393D01*
X-181308893Y-162126393D02*
X-181258893Y-159376393D01*
X-181308893Y-158826393D02*
G75*
G03*
X-181308893Y-158826393I-450000J0D01*
G01*
%TO.C,D256*%
X-270850000Y-66800000D02*
X-274350000Y-66800000D01*
X-270850000Y-64000000D02*
X-270850000Y-66800000D01*
X-273350000Y-64050000D02*
X-274300000Y-65150000D01*
X-274300000Y-65150000D02*
X-274300000Y-64000000D01*
X-274300000Y-64000000D02*
X-270850000Y-64000000D01*
X-274350000Y-66800000D02*
X-274300000Y-64050000D01*
X-274350000Y-63500000D02*
G75*
G03*
X-274350000Y-63500000I-450000J0D01*
G01*
%TO.C,D207*%
X-292900000Y-46150000D02*
X-296400000Y-46150000D01*
X-292900000Y-43350000D02*
X-292900000Y-46150000D01*
X-295400000Y-43400000D02*
X-296350000Y-44500000D01*
X-296350000Y-44500000D02*
X-296350000Y-43350000D01*
X-296350000Y-43350000D02*
X-292900000Y-43350000D01*
X-296400000Y-46150000D02*
X-296350000Y-43400000D01*
X-296400000Y-42850000D02*
G75*
G03*
X-296400000Y-42850000I-450000J0D01*
G01*
%TO.C,D95*%
X-230900000Y-143450000D02*
X-234400000Y-143450000D01*
X-230900000Y-140650000D02*
X-230900000Y-143450000D01*
X-233400000Y-140700000D02*
X-234350000Y-141800000D01*
X-234350000Y-141800000D02*
X-234350000Y-140650000D01*
X-234350000Y-140650000D02*
X-230900000Y-140650000D01*
X-234400000Y-143450000D02*
X-234350000Y-140700000D01*
X-234400000Y-140150000D02*
G75*
G03*
X-234400000Y-140150000I-450000J0D01*
G01*
%TO.C,D106*%
X-264608893Y-137726393D02*
X-268108893Y-137726393D01*
X-264608893Y-134926393D02*
X-264608893Y-137726393D01*
X-267108893Y-134976393D02*
X-268058893Y-136076393D01*
X-268058893Y-136076393D02*
X-268058893Y-134926393D01*
X-268058893Y-134926393D02*
X-264608893Y-134926393D01*
X-268108893Y-137726393D02*
X-268058893Y-134976393D01*
X-268108893Y-134426393D02*
G75*
G03*
X-268108893Y-134426393I-450000J0D01*
G01*
%TO.C,D208*%
X-286208893Y-44973607D02*
X-289708893Y-44973607D01*
X-286208893Y-42173607D02*
X-286208893Y-44973607D01*
X-288708893Y-42223607D02*
X-289658893Y-43323607D01*
X-289658893Y-43323607D02*
X-289658893Y-42173607D01*
X-289658893Y-42173607D02*
X-286208893Y-42173607D01*
X-289708893Y-44973607D02*
X-289658893Y-42223607D01*
X-289708893Y-41673607D02*
G75*
G03*
X-289708893Y-41673607I-450000J0D01*
G01*
%TO.C,D205*%
X-292500000Y-41150000D02*
X-296000000Y-41150000D01*
X-292500000Y-38350000D02*
X-292500000Y-41150000D01*
X-295000000Y-38400000D02*
X-295950000Y-39500000D01*
X-295950000Y-39500000D02*
X-295950000Y-38350000D01*
X-295950000Y-38350000D02*
X-292500000Y-38350000D01*
X-296000000Y-41150000D02*
X-295950000Y-38400000D01*
X-296000000Y-37850000D02*
G75*
G03*
X-296000000Y-37850000I-450000J0D01*
G01*
%TO.C,D77*%
X-221150000Y-154100000D02*
X-224650000Y-154100000D01*
X-221150000Y-151300000D02*
X-221150000Y-154100000D01*
X-223650000Y-151350000D02*
X-224600000Y-152450000D01*
X-224600000Y-152450000D02*
X-224600000Y-151300000D01*
X-224600000Y-151300000D02*
X-221150000Y-151300000D01*
X-224650000Y-154100000D02*
X-224600000Y-151350000D01*
X-224650000Y-150800000D02*
G75*
G03*
X-224650000Y-150800000I-450000J0D01*
G01*
%TO.C,D215*%
X-273150000Y-56900000D02*
X-276650000Y-56900000D01*
X-273150000Y-54100000D02*
X-273150000Y-56900000D01*
X-275650000Y-54150000D02*
X-276600000Y-55250000D01*
X-276600000Y-55250000D02*
X-276600000Y-54100000D01*
X-276600000Y-54100000D02*
X-273150000Y-54100000D01*
X-276650000Y-56900000D02*
X-276600000Y-54150000D01*
X-276650000Y-53600000D02*
G75*
G03*
X-276650000Y-53600000I-450000J0D01*
G01*
%TO.C,D19*%
X-201450000Y-171800000D02*
X-204950000Y-171800000D01*
X-201450000Y-169000000D02*
X-201450000Y-171800000D01*
X-203950000Y-169050000D02*
X-204900000Y-170150000D01*
X-204900000Y-170150000D02*
X-204900000Y-169000000D01*
X-204900000Y-169000000D02*
X-201450000Y-169000000D01*
X-204950000Y-171800000D02*
X-204900000Y-169050000D01*
X-204950000Y-168500000D02*
G75*
G03*
X-204950000Y-168500000I-450000J0D01*
G01*
%TO.C,D168*%
X-210400000Y-28950000D02*
X-213900000Y-28950000D01*
X-210400000Y-26150000D02*
X-210400000Y-28950000D01*
X-212900000Y-26200000D02*
X-213850000Y-27300000D01*
X-213850000Y-27300000D02*
X-213850000Y-26150000D01*
X-213850000Y-26150000D02*
X-210400000Y-26150000D01*
X-213900000Y-28950000D02*
X-213850000Y-26200000D01*
X-213900000Y-25650000D02*
G75*
G03*
X-213900000Y-25650000I-450000J0D01*
G01*
%TO.C,D49*%
X-239700000Y-198650000D02*
X-243200000Y-198650000D01*
X-239700000Y-195850000D02*
X-239700000Y-198650000D01*
X-242200000Y-195900000D02*
X-243150000Y-197000000D01*
X-243150000Y-197000000D02*
X-243150000Y-195850000D01*
X-243150000Y-195850000D02*
X-239700000Y-195850000D01*
X-243200000Y-198650000D02*
X-243150000Y-195900000D01*
X-243200000Y-195350000D02*
G75*
G03*
X-243200000Y-195350000I-450000J0D01*
G01*
%TO.C,D52*%
X-251600000Y-201850000D02*
X-255100000Y-201850000D01*
X-251600000Y-199050000D02*
X-251600000Y-201850000D01*
X-254100000Y-199100000D02*
X-255050000Y-200200000D01*
X-255050000Y-200200000D02*
X-255050000Y-199050000D01*
X-255050000Y-199050000D02*
X-251600000Y-199050000D01*
X-255100000Y-201850000D02*
X-255050000Y-199100000D01*
X-255100000Y-198550000D02*
G75*
G03*
X-255100000Y-198550000I-450000J0D01*
G01*
%TO.C,D186*%
X-267250000Y-8600000D02*
X-270750000Y-8600000D01*
X-267250000Y-5800000D02*
X-267250000Y-8600000D01*
X-269750000Y-5850000D02*
X-270700000Y-6950000D01*
X-270700000Y-6950000D02*
X-270700000Y-5800000D01*
X-270700000Y-5800000D02*
X-267250000Y-5800000D01*
X-270750000Y-8600000D02*
X-270700000Y-5850000D01*
X-270750000Y-5300000D02*
G75*
G03*
X-270750000Y-5300000I-450000J0D01*
G01*
%TO.C,D103*%
X-264300000Y-150450000D02*
X-267800000Y-150450000D01*
X-264300000Y-147650000D02*
X-264300000Y-150450000D01*
X-266800000Y-147700000D02*
X-267750000Y-148800000D01*
X-267750000Y-148800000D02*
X-267750000Y-147650000D01*
X-267750000Y-147650000D02*
X-264300000Y-147650000D01*
X-267800000Y-150450000D02*
X-267750000Y-147700000D01*
X-267800000Y-147150000D02*
G75*
G03*
X-267800000Y-147150000I-450000J0D01*
G01*
%TO.C,D89*%
X-203250000Y-125900000D02*
X-206750000Y-125900000D01*
X-203250000Y-123100000D02*
X-203250000Y-125900000D01*
X-205750000Y-123150000D02*
X-206700000Y-124250000D01*
X-206700000Y-124250000D02*
X-206700000Y-123100000D01*
X-206700000Y-123100000D02*
X-203250000Y-123100000D01*
X-206750000Y-125900000D02*
X-206700000Y-123150000D01*
X-206750000Y-122600000D02*
G75*
G03*
X-206750000Y-122600000I-450000J0D01*
G01*
%TO.C,D183*%
X-261608893Y-9826393D02*
X-265108893Y-9826393D01*
X-261608893Y-7026393D02*
X-261608893Y-9826393D01*
X-264108893Y-7076393D02*
X-265058893Y-8176393D01*
X-265058893Y-8176393D02*
X-265058893Y-7026393D01*
X-265058893Y-7026393D02*
X-261608893Y-7026393D01*
X-265108893Y-9826393D02*
X-265058893Y-7076393D01*
X-265108893Y-6526393D02*
G75*
G03*
X-265108893Y-6526393I-450000J0D01*
G01*
%TO.C,D222*%
X-252350000Y-55100000D02*
X-255850000Y-55100000D01*
X-252350000Y-52300000D02*
X-252350000Y-55100000D01*
X-254850000Y-52350000D02*
X-255800000Y-53450000D01*
X-255800000Y-53450000D02*
X-255800000Y-52300000D01*
X-255800000Y-52300000D02*
X-252350000Y-52300000D01*
X-255850000Y-55100000D02*
X-255800000Y-52350000D01*
X-255850000Y-51800000D02*
G75*
G03*
X-255850000Y-51800000I-450000J0D01*
G01*
%TO.C,D156*%
X-170250000Y-104450000D02*
X-173750000Y-104450000D01*
X-170250000Y-101650000D02*
X-170250000Y-104450000D01*
X-172750000Y-101700000D02*
X-173700000Y-102800000D01*
X-173700000Y-102800000D02*
X-173700000Y-101650000D01*
X-173700000Y-101650000D02*
X-170250000Y-101650000D01*
X-173750000Y-104450000D02*
X-173700000Y-101700000D01*
X-173750000Y-101150000D02*
G75*
G03*
X-173750000Y-101150000I-450000J0D01*
G01*
%TO.C,D147*%
X-183308893Y-63626393D02*
X-186808893Y-63626393D01*
X-183308893Y-60826393D02*
X-183308893Y-63626393D01*
X-185808893Y-60876393D02*
X-186758893Y-61976393D01*
X-186758893Y-61976393D02*
X-186758893Y-60826393D01*
X-186758893Y-60826393D02*
X-183308893Y-60826393D01*
X-186808893Y-63626393D02*
X-186758893Y-60876393D01*
X-186808893Y-60326393D02*
G75*
G03*
X-186808893Y-60326393I-450000J0D01*
G01*
%TO.C,D71*%
X-247450000Y-157550000D02*
X-250950000Y-157550000D01*
X-247450000Y-154750000D02*
X-247450000Y-157550000D01*
X-249950000Y-154800000D02*
X-250900000Y-155900000D01*
X-250900000Y-155900000D02*
X-250900000Y-154750000D01*
X-250900000Y-154750000D02*
X-247450000Y-154750000D01*
X-250950000Y-157550000D02*
X-250900000Y-154800000D01*
X-250950000Y-154250000D02*
G75*
G03*
X-250950000Y-154250000I-450000J0D01*
G01*
%TO.C,D56*%
X-264850000Y-199150000D02*
X-268350000Y-199150000D01*
X-264850000Y-196350000D02*
X-264850000Y-199150000D01*
X-267350000Y-196400000D02*
X-268300000Y-197500000D01*
X-268300000Y-197500000D02*
X-268300000Y-196350000D01*
X-268300000Y-196350000D02*
X-264850000Y-196350000D01*
X-268350000Y-199150000D02*
X-268300000Y-196400000D01*
X-268350000Y-195850000D02*
G75*
G03*
X-268350000Y-195850000I-450000J0D01*
G01*
%TO.C,D235*%
X-216600000Y-73950000D02*
X-220100000Y-73950000D01*
X-216600000Y-71150000D02*
X-216600000Y-73950000D01*
X-219100000Y-71200000D02*
X-220050000Y-72300000D01*
X-220050000Y-72300000D02*
X-220050000Y-71150000D01*
X-220050000Y-71150000D02*
X-216600000Y-71150000D01*
X-220100000Y-73950000D02*
X-220050000Y-71200000D01*
X-220100000Y-70650000D02*
G75*
G03*
X-220100000Y-70650000I-450000J0D01*
G01*
%TO.C,D27*%
X-180308893Y-151426393D02*
X-183808893Y-151426393D01*
X-180308893Y-148626393D02*
X-180308893Y-151426393D01*
X-182808893Y-148676393D02*
X-183758893Y-149776393D01*
X-183758893Y-149776393D02*
X-183758893Y-148626393D01*
X-183758893Y-148626393D02*
X-180308893Y-148626393D01*
X-183808893Y-151426393D02*
X-183758893Y-148676393D01*
X-183808893Y-148126393D02*
G75*
G03*
X-183808893Y-148126393I-450000J0D01*
G01*
%TO.C,D133*%
X-208208893Y-117526393D02*
X-211708893Y-117526393D01*
X-208208893Y-114726393D02*
X-208208893Y-117526393D01*
X-210708893Y-114776393D02*
X-211658893Y-115876393D01*
X-211658893Y-115876393D02*
X-211658893Y-114726393D01*
X-211658893Y-114726393D02*
X-208208893Y-114726393D01*
X-211708893Y-117526393D02*
X-211658893Y-114776393D01*
X-211708893Y-114226393D02*
G75*
G03*
X-211708893Y-114226393I-450000J0D01*
G01*
%TO.C,D144*%
X-200208893Y-60826393D02*
X-203708893Y-60826393D01*
X-200208893Y-58026393D02*
X-200208893Y-60826393D01*
X-202708893Y-58076393D02*
X-203658893Y-59176393D01*
X-203658893Y-59176393D02*
X-203658893Y-58026393D01*
X-203658893Y-58026393D02*
X-200208893Y-58026393D01*
X-203708893Y-60826393D02*
X-203658893Y-58076393D01*
X-203708893Y-57526393D02*
G75*
G03*
X-203708893Y-57526393I-450000J0D01*
G01*
%TO.C,D73*%
X-237650000Y-156600000D02*
X-241150000Y-156600000D01*
X-237650000Y-153800000D02*
X-237650000Y-156600000D01*
X-240150000Y-153850000D02*
X-241100000Y-154950000D01*
X-241100000Y-154950000D02*
X-241100000Y-153800000D01*
X-241100000Y-153800000D02*
X-237650000Y-153800000D01*
X-241150000Y-156600000D02*
X-241100000Y-153850000D01*
X-241150000Y-153300000D02*
G75*
G03*
X-241150000Y-153300000I-450000J0D01*
G01*
%TO.C,D176*%
X-237050000Y-17300000D02*
X-240550000Y-17300000D01*
X-237050000Y-14500000D02*
X-237050000Y-17300000D01*
X-239550000Y-14550000D02*
X-240500000Y-15650000D01*
X-240500000Y-15650000D02*
X-240500000Y-14500000D01*
X-240500000Y-14500000D02*
X-237050000Y-14500000D01*
X-240550000Y-17300000D02*
X-240500000Y-14550000D01*
X-240550000Y-14000000D02*
G75*
G03*
X-240550000Y-14000000I-450000J0D01*
G01*
%TO.C,D254*%
X-275800000Y-72150000D02*
X-279300000Y-72150000D01*
X-275800000Y-69350000D02*
X-275800000Y-72150000D01*
X-278300000Y-69400000D02*
X-279250000Y-70500000D01*
X-279250000Y-70500000D02*
X-279250000Y-69350000D01*
X-279250000Y-69350000D02*
X-275800000Y-69350000D01*
X-279300000Y-72150000D02*
X-279250000Y-69400000D01*
X-279300000Y-68850000D02*
G75*
G03*
X-279300000Y-68850000I-450000J0D01*
G01*
%TO.C,D174*%
X-229800000Y-16550000D02*
X-233300000Y-16550000D01*
X-229800000Y-13750000D02*
X-229800000Y-16550000D01*
X-232300000Y-13800000D02*
X-233250000Y-14900000D01*
X-233250000Y-14900000D02*
X-233250000Y-13750000D01*
X-233250000Y-13750000D02*
X-229800000Y-13750000D01*
X-233300000Y-16550000D02*
X-233250000Y-13800000D01*
X-233300000Y-13250000D02*
G75*
G03*
X-233300000Y-13250000I-450000J0D01*
G01*
%TO.C,D97*%
X-234150000Y-134900000D02*
X-237650000Y-134900000D01*
X-234150000Y-132100000D02*
X-234150000Y-134900000D01*
X-236650000Y-132150000D02*
X-237600000Y-133250000D01*
X-237600000Y-133250000D02*
X-237600000Y-132100000D01*
X-237600000Y-132100000D02*
X-234150000Y-132100000D01*
X-237650000Y-134900000D02*
X-237600000Y-132150000D01*
X-237650000Y-131600000D02*
G75*
G03*
X-237650000Y-131600000I-450000J0D01*
G01*
%TO.C,D6*%
X-175908893Y-129826393D02*
X-179408893Y-129826393D01*
X-175908893Y-127026393D02*
X-175908893Y-129826393D01*
X-178408893Y-127076393D02*
X-179358893Y-128176393D01*
X-179358893Y-128176393D02*
X-179358893Y-127026393D01*
X-179358893Y-127026393D02*
X-175908893Y-127026393D01*
X-179408893Y-129826393D02*
X-179358893Y-127076393D01*
X-179408893Y-126526393D02*
G75*
G03*
X-179408893Y-126526393I-450000J0D01*
G01*
%TO.C,D146*%
X-188750000Y-60300000D02*
X-192250000Y-60300000D01*
X-188750000Y-57500000D02*
X-188750000Y-60300000D01*
X-191250000Y-57550000D02*
X-192200000Y-58650000D01*
X-192200000Y-58650000D02*
X-192200000Y-57500000D01*
X-192200000Y-57500000D02*
X-188750000Y-57500000D01*
X-192250000Y-60300000D02*
X-192200000Y-57550000D01*
X-192250000Y-57000000D02*
G75*
G03*
X-192250000Y-57000000I-450000J0D01*
G01*
%TO.C,D67*%
X-257850000Y-161800000D02*
X-261350000Y-161800000D01*
X-257850000Y-159000000D02*
X-257850000Y-161800000D01*
X-260350000Y-159050000D02*
X-261300000Y-160150000D01*
X-261300000Y-160150000D02*
X-261300000Y-159000000D01*
X-261300000Y-159000000D02*
X-257850000Y-159000000D01*
X-261350000Y-161800000D02*
X-261300000Y-159050000D01*
X-261350000Y-158500000D02*
G75*
G03*
X-261350000Y-158500000I-450000J0D01*
G01*
%TO.C,D150*%
X-179550000Y-76400000D02*
X-183050000Y-76400000D01*
X-179550000Y-73600000D02*
X-179550000Y-76400000D01*
X-182050000Y-73650000D02*
X-183000000Y-74750000D01*
X-183000000Y-74750000D02*
X-183000000Y-73600000D01*
X-183000000Y-73600000D02*
X-179550000Y-73600000D01*
X-183050000Y-76400000D02*
X-183000000Y-73650000D01*
X-183050000Y-73100000D02*
G75*
G03*
X-183050000Y-73100000I-450000J0D01*
G01*
%TO.C,D15*%
X-207750000Y-154300000D02*
X-211250000Y-154300000D01*
X-207750000Y-151500000D02*
X-207750000Y-154300000D01*
X-210250000Y-151550000D02*
X-211200000Y-152650000D01*
X-211200000Y-152650000D02*
X-211200000Y-151500000D01*
X-211200000Y-151500000D02*
X-207750000Y-151500000D01*
X-211250000Y-154300000D02*
X-211200000Y-151550000D01*
X-211250000Y-151000000D02*
G75*
G03*
X-211250000Y-151000000I-450000J0D01*
G01*
%TO.C,D202*%
X-298100000Y-39150000D02*
X-301600000Y-39150000D01*
X-298100000Y-36350000D02*
X-298100000Y-39150000D01*
X-300600000Y-36400000D02*
X-301550000Y-37500000D01*
X-301550000Y-37500000D02*
X-301550000Y-36350000D01*
X-301550000Y-36350000D02*
X-298100000Y-36350000D01*
X-301600000Y-39150000D02*
X-301550000Y-36400000D01*
X-301600000Y-35850000D02*
G75*
G03*
X-301600000Y-35850000I-450000J0D01*
G01*
%TO.C,D118*%
X-228800000Y-88550000D02*
X-232300000Y-88550000D01*
X-228800000Y-85750000D02*
X-228800000Y-88550000D01*
X-231300000Y-85800000D02*
X-232250000Y-86900000D01*
X-232250000Y-86900000D02*
X-232250000Y-85750000D01*
X-232250000Y-85750000D02*
X-228800000Y-85750000D01*
X-232300000Y-88550000D02*
X-232250000Y-85800000D01*
X-232300000Y-85250000D02*
G75*
G03*
X-232300000Y-85250000I-450000J0D01*
G01*
%TO.C,D80*%
X-222900000Y-171350000D02*
X-226400000Y-171350000D01*
X-222900000Y-168550000D02*
X-222900000Y-171350000D01*
X-225400000Y-168600000D02*
X-226350000Y-169700000D01*
X-226350000Y-169700000D02*
X-226350000Y-168550000D01*
X-226350000Y-168550000D02*
X-222900000Y-168550000D01*
X-226400000Y-171350000D02*
X-226350000Y-168600000D01*
X-226400000Y-168050000D02*
G75*
G03*
X-226400000Y-168050000I-450000J0D01*
G01*
%TO.C,D221*%
X-257350000Y-55600000D02*
X-260850000Y-55600000D01*
X-257350000Y-52800000D02*
X-257350000Y-55600000D01*
X-259850000Y-52850000D02*
X-260800000Y-53950000D01*
X-260800000Y-53950000D02*
X-260800000Y-52800000D01*
X-260800000Y-52800000D02*
X-257350000Y-52800000D01*
X-260850000Y-55600000D02*
X-260800000Y-52850000D01*
X-260850000Y-52300000D02*
G75*
G03*
X-260850000Y-52300000I-450000J0D01*
G01*
%TO.C,D13*%
X-199250000Y-144600000D02*
X-202750000Y-144600000D01*
X-199250000Y-141800000D02*
X-199250000Y-144600000D01*
X-201750000Y-141850000D02*
X-202700000Y-142950000D01*
X-202700000Y-142950000D02*
X-202700000Y-141800000D01*
X-202700000Y-141800000D02*
X-199250000Y-141800000D01*
X-202750000Y-144600000D02*
X-202700000Y-141850000D01*
X-202750000Y-141300000D02*
G75*
G03*
X-202750000Y-141300000I-450000J0D01*
G01*
%TO.C,D155*%
X-170908893Y-99326393D02*
X-174408893Y-99326393D01*
X-170908893Y-96526393D02*
X-170908893Y-99326393D01*
X-173408893Y-96576393D02*
X-174358893Y-97676393D01*
X-174358893Y-97676393D02*
X-174358893Y-96526393D01*
X-174358893Y-96526393D02*
X-170908893Y-96526393D01*
X-174408893Y-99326393D02*
X-174358893Y-96576393D01*
X-174408893Y-96026393D02*
G75*
G03*
X-174408893Y-96026393I-450000J0D01*
G01*
%TO.C,D217*%
X-272650000Y-63700000D02*
X-276150000Y-63700000D01*
X-272650000Y-60900000D02*
X-272650000Y-63700000D01*
X-275150000Y-60950000D02*
X-276100000Y-62050000D01*
X-276100000Y-62050000D02*
X-276100000Y-60900000D01*
X-276100000Y-60900000D02*
X-272650000Y-60900000D01*
X-276150000Y-63700000D02*
X-276100000Y-60950000D01*
X-276150000Y-60400000D02*
G75*
G03*
X-276150000Y-60400000I-450000J0D01*
G01*
%TO.C,D141*%
X-207150000Y-74800000D02*
X-210650000Y-74800000D01*
X-207150000Y-72000000D02*
X-207150000Y-74800000D01*
X-209650000Y-72050000D02*
X-210600000Y-73150000D01*
X-210600000Y-73150000D02*
X-210600000Y-72000000D01*
X-210600000Y-72000000D02*
X-207150000Y-72000000D01*
X-210650000Y-74800000D02*
X-210600000Y-72050000D01*
X-210650000Y-71500000D02*
G75*
G03*
X-210650000Y-71500000I-450000J0D01*
G01*
%TO.C,D203*%
X-290950000Y-37500000D02*
X-294450000Y-37500000D01*
X-290950000Y-34700000D02*
X-290950000Y-37500000D01*
X-293450000Y-34750000D02*
X-294400000Y-35850000D01*
X-294400000Y-35850000D02*
X-294400000Y-34700000D01*
X-294400000Y-34700000D02*
X-290950000Y-34700000D01*
X-294450000Y-37500000D02*
X-294400000Y-34750000D01*
X-294450000Y-34200000D02*
G75*
G03*
X-294450000Y-34200000I-450000J0D01*
G01*
%TO.C,D65*%
X-260500000Y-167950000D02*
X-264000000Y-167950000D01*
X-260500000Y-165150000D02*
X-260500000Y-167950000D01*
X-263000000Y-165200000D02*
X-263950000Y-166300000D01*
X-263950000Y-166300000D02*
X-263950000Y-165150000D01*
X-263950000Y-165150000D02*
X-260500000Y-165150000D01*
X-264000000Y-167950000D02*
X-263950000Y-165200000D01*
X-264000000Y-164650000D02*
G75*
G03*
X-264000000Y-164650000I-450000J0D01*
G01*
%TO.C,D36*%
X-200208893Y-192426393D02*
X-203708893Y-192426393D01*
X-200208893Y-189626393D02*
X-200208893Y-192426393D01*
X-202708893Y-189676393D02*
X-203658893Y-190776393D01*
X-203658893Y-190776393D02*
X-203658893Y-189626393D01*
X-203658893Y-189626393D02*
X-200208893Y-189626393D01*
X-203708893Y-192426393D02*
X-203658893Y-189676393D01*
X-203708893Y-189126393D02*
G75*
G03*
X-203708893Y-189126393I-450000J0D01*
G01*
%TO.C,D145*%
X-194850000Y-58500000D02*
X-198350000Y-58500000D01*
X-194850000Y-55700000D02*
X-194850000Y-58500000D01*
X-197350000Y-55750000D02*
X-198300000Y-56850000D01*
X-198300000Y-56850000D02*
X-198300000Y-55700000D01*
X-198300000Y-55700000D02*
X-194850000Y-55700000D01*
X-198350000Y-58500000D02*
X-198300000Y-55750000D01*
X-198350000Y-55200000D02*
G75*
G03*
X-198350000Y-55200000I-450000J0D01*
G01*
%TO.C,D29*%
X-183400000Y-175650000D02*
X-186900000Y-175650000D01*
X-183400000Y-172850000D02*
X-183400000Y-175650000D01*
X-185900000Y-172900000D02*
X-186850000Y-174000000D01*
X-186850000Y-174000000D02*
X-186850000Y-172850000D01*
X-186850000Y-172850000D02*
X-183400000Y-172850000D01*
X-186900000Y-175650000D02*
X-186850000Y-172900000D01*
X-186900000Y-172350000D02*
G75*
G03*
X-186900000Y-172350000I-450000J0D01*
G01*
%TO.C,D101*%
X-252350000Y-151800000D02*
X-255850000Y-151800000D01*
X-252350000Y-149000000D02*
X-252350000Y-151800000D01*
X-254850000Y-149050000D02*
X-255800000Y-150150000D01*
X-255800000Y-150150000D02*
X-255800000Y-149000000D01*
X-255800000Y-149000000D02*
X-252350000Y-149000000D01*
X-255850000Y-151800000D02*
X-255800000Y-149050000D01*
X-255850000Y-148500000D02*
G75*
G03*
X-255850000Y-148500000I-450000J0D01*
G01*
%TO.C,D173*%
X-229650000Y-21550000D02*
X-233150000Y-21550000D01*
X-229650000Y-18750000D02*
X-229650000Y-21550000D01*
X-232150000Y-18800000D02*
X-233100000Y-19900000D01*
X-233100000Y-19900000D02*
X-233100000Y-18750000D01*
X-233100000Y-18750000D02*
X-229650000Y-18750000D01*
X-233150000Y-21550000D02*
X-233100000Y-18800000D01*
X-233150000Y-18250000D02*
G75*
G03*
X-233150000Y-18250000I-450000J0D01*
G01*
%TO.C,D223*%
X-247850000Y-54500000D02*
X-251350000Y-54500000D01*
X-247850000Y-51700000D02*
X-247850000Y-54500000D01*
X-250350000Y-51750000D02*
X-251300000Y-52850000D01*
X-251300000Y-52850000D02*
X-251300000Y-51700000D01*
X-251300000Y-51700000D02*
X-247850000Y-51700000D01*
X-251350000Y-54500000D02*
X-251300000Y-51750000D01*
X-251350000Y-51200000D02*
G75*
G03*
X-251350000Y-51200000I-450000J0D01*
G01*
%TO.C,D23*%
X-181608893Y-166226393D02*
X-185108893Y-166226393D01*
X-181608893Y-163426393D02*
X-181608893Y-166226393D01*
X-184108893Y-163476393D02*
X-185058893Y-164576393D01*
X-185058893Y-164576393D02*
X-185058893Y-163426393D01*
X-185058893Y-163426393D02*
X-181608893Y-163426393D01*
X-185108893Y-166226393D02*
X-185058893Y-163476393D01*
X-185108893Y-162926393D02*
G75*
G03*
X-185108893Y-162926393I-450000J0D01*
G01*
%TO.C,D138*%
X-192350000Y-81900000D02*
X-195850000Y-81900000D01*
X-192350000Y-79100000D02*
X-192350000Y-81900000D01*
X-194850000Y-79150000D02*
X-195800000Y-80250000D01*
X-195800000Y-80250000D02*
X-195800000Y-79100000D01*
X-195800000Y-79100000D02*
X-192350000Y-79100000D01*
X-195850000Y-81900000D02*
X-195800000Y-79150000D01*
X-195850000Y-78600000D02*
G75*
G03*
X-195850000Y-78600000I-450000J0D01*
G01*
%TO.C,D46*%
X-232050000Y-195900000D02*
X-235550000Y-195900000D01*
X-232050000Y-193100000D02*
X-232050000Y-195900000D01*
X-234550000Y-193150000D02*
X-235500000Y-194250000D01*
X-235500000Y-194250000D02*
X-235500000Y-193100000D01*
X-235500000Y-193100000D02*
X-232050000Y-193100000D01*
X-235550000Y-195900000D02*
X-235500000Y-193150000D01*
X-235550000Y-192600000D02*
G75*
G03*
X-235550000Y-192600000I-450000J0D01*
G01*
%TO.C,D108*%
X-261450000Y-130400000D02*
X-264950000Y-130400000D01*
X-261450000Y-127600000D02*
X-261450000Y-130400000D01*
X-263950000Y-127650000D02*
X-264900000Y-128750000D01*
X-264900000Y-128750000D02*
X-264900000Y-127600000D01*
X-264900000Y-127600000D02*
X-261450000Y-127600000D01*
X-264950000Y-130400000D02*
X-264900000Y-127650000D01*
X-264950000Y-127100000D02*
G75*
G03*
X-264950000Y-127100000I-450000J0D01*
G01*
%TO.C,D172*%
X-223150000Y-19200000D02*
X-226650000Y-19200000D01*
X-223150000Y-16400000D02*
X-223150000Y-19200000D01*
X-225650000Y-16450000D02*
X-226600000Y-17550000D01*
X-226600000Y-17550000D02*
X-226600000Y-16400000D01*
X-226600000Y-16400000D02*
X-223150000Y-16400000D01*
X-226650000Y-19200000D02*
X-226600000Y-16450000D01*
X-226650000Y-15900000D02*
G75*
G03*
X-226650000Y-15900000I-450000J0D01*
G01*
%TO.C,D166*%
X-205808893Y-34226393D02*
X-209308893Y-34226393D01*
X-205808893Y-31426393D02*
X-205808893Y-34226393D01*
X-208308893Y-31476393D02*
X-209258893Y-32576393D01*
X-209258893Y-32576393D02*
X-209258893Y-31426393D01*
X-209258893Y-31426393D02*
X-205808893Y-31426393D01*
X-209308893Y-34226393D02*
X-209258893Y-31476393D01*
X-209308893Y-30926393D02*
G75*
G03*
X-209308893Y-30926393I-450000J0D01*
G01*
%TO.C,D132*%
X-203008893Y-114526393D02*
X-206508893Y-114526393D01*
X-203008893Y-111726393D02*
X-203008893Y-114526393D01*
X-205508893Y-111776393D02*
X-206458893Y-112876393D01*
X-206458893Y-112876393D02*
X-206458893Y-111726393D01*
X-206458893Y-111726393D02*
X-203008893Y-111726393D01*
X-206508893Y-114526393D02*
X-206458893Y-111776393D01*
X-206508893Y-111226393D02*
G75*
G03*
X-206508893Y-111226393I-450000J0D01*
G01*
%TO.C,D55*%
X-259350000Y-196300000D02*
X-262850000Y-196300000D01*
X-259350000Y-193500000D02*
X-259350000Y-196300000D01*
X-261850000Y-193550000D02*
X-262800000Y-194650000D01*
X-262800000Y-194650000D02*
X-262800000Y-193500000D01*
X-262800000Y-193500000D02*
X-259350000Y-193500000D01*
X-262850000Y-196300000D02*
X-262800000Y-193550000D01*
X-262850000Y-193000000D02*
G75*
G03*
X-262850000Y-193000000I-450000J0D01*
G01*
%TO.C,D211*%
X-285808893Y-58126393D02*
X-289308893Y-58126393D01*
X-285808893Y-55326393D02*
X-285808893Y-58126393D01*
X-288308893Y-55376393D02*
X-289258893Y-56476393D01*
X-289258893Y-56476393D02*
X-289258893Y-55326393D01*
X-289258893Y-55326393D02*
X-285808893Y-55326393D01*
X-289308893Y-58126393D02*
X-289258893Y-55376393D01*
X-289308893Y-54826393D02*
G75*
G03*
X-289308893Y-54826393I-450000J0D01*
G01*
%TO.C,D50*%
X-246750000Y-200400000D02*
X-250250000Y-200400000D01*
X-246750000Y-197600000D02*
X-246750000Y-200400000D01*
X-249250000Y-197650000D02*
X-250200000Y-198750000D01*
X-250200000Y-198750000D02*
X-250200000Y-197600000D01*
X-250200000Y-197600000D02*
X-246750000Y-197600000D01*
X-250250000Y-200400000D02*
X-250200000Y-197650000D01*
X-250250000Y-197100000D02*
G75*
G03*
X-250250000Y-197100000I-450000J0D01*
G01*
%TO.C,D214*%
X-281150000Y-60800000D02*
X-284650000Y-60800000D01*
X-281150000Y-58000000D02*
X-281150000Y-60800000D01*
X-283650000Y-58050000D02*
X-284600000Y-59150000D01*
X-284600000Y-59150000D02*
X-284600000Y-58000000D01*
X-284600000Y-58000000D02*
X-281150000Y-58000000D01*
X-284650000Y-60800000D02*
X-284600000Y-58050000D01*
X-284650000Y-57500000D02*
G75*
G03*
X-284650000Y-57500000I-450000J0D01*
G01*
%TO.C,D60*%
X-261508893Y-183726393D02*
X-265008893Y-183726393D01*
X-261508893Y-180926393D02*
X-261508893Y-183726393D01*
X-264008893Y-180976393D02*
X-264958893Y-182076393D01*
X-264958893Y-182076393D02*
X-264958893Y-180926393D01*
X-264958893Y-180926393D02*
X-261508893Y-180926393D01*
X-265008893Y-183726393D02*
X-264958893Y-180976393D01*
X-265008893Y-180426393D02*
G75*
G03*
X-265008893Y-180426393I-450000J0D01*
G01*
%TO.C,D231*%
X-213808893Y-42226393D02*
X-217308893Y-42226393D01*
X-213808893Y-39426393D02*
X-213808893Y-42226393D01*
X-216308893Y-39476393D02*
X-217258893Y-40576393D01*
X-217258893Y-40576393D02*
X-217258893Y-39426393D01*
X-217258893Y-39426393D02*
X-213808893Y-39426393D01*
X-217308893Y-42226393D02*
X-217258893Y-39476393D01*
X-217308893Y-38926393D02*
G75*
G03*
X-217308893Y-38926393I-450000J0D01*
G01*
%TO.C,D179*%
X-246508893Y-7226393D02*
X-250008893Y-7226393D01*
X-246508893Y-4426393D02*
X-246508893Y-7226393D01*
X-249008893Y-4476393D02*
X-249958893Y-5576393D01*
X-249958893Y-5576393D02*
X-249958893Y-4426393D01*
X-249958893Y-4426393D02*
X-246508893Y-4426393D01*
X-250008893Y-7226393D02*
X-249958893Y-4476393D01*
X-250008893Y-3926393D02*
G75*
G03*
X-250008893Y-3926393I-450000J0D01*
G01*
%TO.C,D33*%
X-189350000Y-187200000D02*
X-192850000Y-187200000D01*
X-189350000Y-184400000D02*
X-189350000Y-187200000D01*
X-191850000Y-184450000D02*
X-192800000Y-185550000D01*
X-192800000Y-185550000D02*
X-192800000Y-184400000D01*
X-192800000Y-184400000D02*
X-189350000Y-184400000D01*
X-192850000Y-187200000D02*
X-192800000Y-184450000D01*
X-192850000Y-183900000D02*
G75*
G03*
X-192850000Y-183900000I-450000J0D01*
G01*
%TO.C,D232*%
X-223108893Y-57726393D02*
X-226608893Y-57726393D01*
X-223108893Y-54926393D02*
X-223108893Y-57726393D01*
X-225608893Y-54976393D02*
X-226558893Y-56076393D01*
X-226558893Y-56076393D02*
X-226558893Y-54926393D01*
X-226558893Y-54926393D02*
X-223108893Y-54926393D01*
X-226608893Y-57726393D02*
X-226558893Y-54976393D01*
X-226608893Y-54426393D02*
G75*
G03*
X-226608893Y-54426393I-450000J0D01*
G01*
%TO.C,D169*%
X-215808893Y-30126393D02*
X-219308893Y-30126393D01*
X-215808893Y-27326393D02*
X-215808893Y-30126393D01*
X-218308893Y-27376393D02*
X-219258893Y-28476393D01*
X-219258893Y-28476393D02*
X-219258893Y-27326393D01*
X-219258893Y-27326393D02*
X-215808893Y-27326393D01*
X-219308893Y-30126393D02*
X-219258893Y-27376393D01*
X-219308893Y-26826393D02*
G75*
G03*
X-219308893Y-26826393I-450000J0D01*
G01*
%TO.C,D212*%
X-281350000Y-54400000D02*
X-284850000Y-54400000D01*
X-281350000Y-51600000D02*
X-281350000Y-54400000D01*
X-283850000Y-51650000D02*
X-284800000Y-52750000D01*
X-284800000Y-52750000D02*
X-284800000Y-51600000D01*
X-284800000Y-51600000D02*
X-281350000Y-51600000D01*
X-284850000Y-54400000D02*
X-284800000Y-51650000D01*
X-284850000Y-51100000D02*
G75*
G03*
X-284850000Y-51100000I-450000J0D01*
G01*
%TO.C,D224*%
X-243150000Y-55200000D02*
X-246650000Y-55200000D01*
X-243150000Y-52400000D02*
X-243150000Y-55200000D01*
X-245650000Y-52450000D02*
X-246600000Y-53550000D01*
X-246600000Y-53550000D02*
X-246600000Y-52400000D01*
X-246600000Y-52400000D02*
X-243150000Y-52400000D01*
X-246650000Y-55200000D02*
X-246600000Y-52450000D01*
X-246650000Y-51900000D02*
G75*
G03*
X-246650000Y-51900000I-450000J0D01*
G01*
%TO.C,D5*%
X-170208893Y-132526393D02*
X-173708893Y-132526393D01*
X-170208893Y-129726393D02*
X-170208893Y-132526393D01*
X-172708893Y-129776393D02*
X-173658893Y-130876393D01*
X-173658893Y-130876393D02*
X-173658893Y-129726393D01*
X-173658893Y-129726393D02*
X-170208893Y-129726393D01*
X-173708893Y-132526393D02*
X-173658893Y-129776393D01*
X-173708893Y-129226393D02*
G75*
G03*
X-173708893Y-129226393I-450000J0D01*
G01*
%TO.C,D201*%
X-297800000Y-35050000D02*
X-301300000Y-35050000D01*
X-297800000Y-32250000D02*
X-297800000Y-35050000D01*
X-300300000Y-32300000D02*
X-301250000Y-33400000D01*
X-301250000Y-33400000D02*
X-301250000Y-32250000D01*
X-301250000Y-32250000D02*
X-297800000Y-32250000D01*
X-301300000Y-35050000D02*
X-301250000Y-32300000D01*
X-301300000Y-31750000D02*
G75*
G03*
X-301300000Y-31750000I-450000J0D01*
G01*
%TO.C,D43*%
X-226850000Y-196600000D02*
X-230350000Y-196600000D01*
X-226850000Y-193800000D02*
X-226850000Y-196600000D01*
X-229350000Y-193850000D02*
X-230300000Y-194950000D01*
X-230300000Y-194950000D02*
X-230300000Y-193800000D01*
X-230300000Y-193800000D02*
X-226850000Y-193800000D01*
X-230350000Y-196600000D02*
X-230300000Y-193850000D01*
X-230350000Y-193300000D02*
G75*
G03*
X-230350000Y-193300000I-450000J0D01*
G01*
%TO.C,D160*%
X-199108893Y-47526393D02*
X-202608893Y-47526393D01*
X-199108893Y-44726393D02*
X-199108893Y-47526393D01*
X-201608893Y-44776393D02*
X-202558893Y-45876393D01*
X-202558893Y-45876393D02*
X-202558893Y-44726393D01*
X-202558893Y-44726393D02*
X-199108893Y-44726393D01*
X-202608893Y-47526393D02*
X-202558893Y-44776393D01*
X-202608893Y-44226393D02*
G75*
G03*
X-202608893Y-44226393I-450000J0D01*
G01*
%TO.C,D175*%
X-235050000Y-12500000D02*
X-238550000Y-12500000D01*
X-235050000Y-9700000D02*
X-235050000Y-12500000D01*
X-237550000Y-9750000D02*
X-238500000Y-10850000D01*
X-238500000Y-10850000D02*
X-238500000Y-9700000D01*
X-238500000Y-9700000D02*
X-235050000Y-9700000D01*
X-238550000Y-12500000D02*
X-238500000Y-9750000D01*
X-238550000Y-9200000D02*
G75*
G03*
X-238550000Y-9200000I-450000J0D01*
G01*
%TO.C,D234*%
X-219750000Y-68000000D02*
X-223250000Y-68000000D01*
X-219750000Y-65200000D02*
X-219750000Y-68000000D01*
X-222250000Y-65250000D02*
X-223200000Y-66350000D01*
X-223200000Y-66350000D02*
X-223200000Y-65200000D01*
X-223200000Y-65200000D02*
X-219750000Y-65200000D01*
X-223250000Y-68000000D02*
X-223200000Y-65250000D01*
X-223250000Y-64700000D02*
G75*
G03*
X-223250000Y-64700000I-450000J0D01*
G01*
%TO.C,D114*%
X-259250000Y-107100000D02*
X-262750000Y-107100000D01*
X-259250000Y-104300000D02*
X-259250000Y-107100000D01*
X-261750000Y-104350000D02*
X-262700000Y-105450000D01*
X-262700000Y-105450000D02*
X-262700000Y-104300000D01*
X-262700000Y-104300000D02*
X-259250000Y-104300000D01*
X-262750000Y-107100000D02*
X-262700000Y-104350000D01*
X-262750000Y-103800000D02*
G75*
G03*
X-262750000Y-103800000I-450000J0D01*
G01*
%TO.C,D151*%
X-175350000Y-80200000D02*
X-178850000Y-80200000D01*
X-175350000Y-77400000D02*
X-175350000Y-80200000D01*
X-177850000Y-77450000D02*
X-178800000Y-78550000D01*
X-178800000Y-78550000D02*
X-178800000Y-77400000D01*
X-178800000Y-77400000D02*
X-175350000Y-77400000D01*
X-178850000Y-80200000D02*
X-178800000Y-77450000D01*
X-178850000Y-76900000D02*
G75*
G03*
X-178850000Y-76900000I-450000J0D01*
G01*
%TO.C,D140*%
X-212550000Y-79400000D02*
X-216050000Y-79400000D01*
X-212550000Y-76600000D02*
X-212550000Y-79400000D01*
X-215050000Y-76650000D02*
X-216000000Y-77750000D01*
X-216000000Y-77750000D02*
X-216000000Y-76600000D01*
X-216000000Y-76600000D02*
X-212550000Y-76600000D01*
X-216050000Y-79400000D02*
X-216000000Y-76650000D01*
X-216050000Y-76100000D02*
G75*
G03*
X-216050000Y-76100000I-450000J0D01*
G01*
%TO.C,D180*%
X-249850000Y-12850000D02*
X-253350000Y-12850000D01*
X-249850000Y-10050000D02*
X-249850000Y-12850000D01*
X-252350000Y-10100000D02*
X-253300000Y-11200000D01*
X-253300000Y-11200000D02*
X-253300000Y-10050000D01*
X-253300000Y-10050000D02*
X-249850000Y-10050000D01*
X-253350000Y-12850000D02*
X-253300000Y-10100000D01*
X-253350000Y-9550000D02*
G75*
G03*
X-253350000Y-9550000I-450000J0D01*
G01*
%TO.C,D149*%
X-179108893Y-71426393D02*
X-182608893Y-71426393D01*
X-179108893Y-68626393D02*
X-179108893Y-71426393D01*
X-181608893Y-68676393D02*
X-182558893Y-69776393D01*
X-182558893Y-69776393D02*
X-182558893Y-68626393D01*
X-182558893Y-68626393D02*
X-179108893Y-68626393D01*
X-182608893Y-71426393D02*
X-182558893Y-68676393D01*
X-182608893Y-68126393D02*
G75*
G03*
X-182608893Y-68126393I-450000J0D01*
G01*
%TO.C,D16*%
X-208250000Y-159400000D02*
X-211750000Y-159400000D01*
X-208250000Y-156600000D02*
X-208250000Y-159400000D01*
X-210750000Y-156650000D02*
X-211700000Y-157750000D01*
X-211700000Y-157750000D02*
X-211700000Y-156600000D01*
X-211700000Y-156600000D02*
X-208250000Y-156600000D01*
X-211750000Y-159400000D02*
X-211700000Y-156650000D01*
X-211750000Y-156100000D02*
G75*
G03*
X-211750000Y-156100000I-450000J0D01*
G01*
%TO.C,D122*%
X-211150000Y-89900000D02*
X-214650000Y-89900000D01*
X-211150000Y-87100000D02*
X-211150000Y-89900000D01*
X-213650000Y-87150000D02*
X-214600000Y-88250000D01*
X-214600000Y-88250000D02*
X-214600000Y-87100000D01*
X-214600000Y-87100000D02*
X-211150000Y-87100000D01*
X-214650000Y-89900000D02*
X-214600000Y-87150000D01*
X-214650000Y-86600000D02*
G75*
G03*
X-214650000Y-86600000I-450000J0D01*
G01*
%TO.C,D255*%
X-275100000Y-68550000D02*
X-278600000Y-68550000D01*
X-275100000Y-65750000D02*
X-275100000Y-68550000D01*
X-277600000Y-65800000D02*
X-278550000Y-66900000D01*
X-278550000Y-66900000D02*
X-278550000Y-65750000D01*
X-278550000Y-65750000D02*
X-275100000Y-65750000D01*
X-278600000Y-68550000D02*
X-278550000Y-65800000D01*
X-278600000Y-65250000D02*
G75*
G03*
X-278600000Y-65250000I-450000J0D01*
G01*
%TO.C,D157*%
X-188350000Y-55100000D02*
X-191850000Y-55100000D01*
X-188350000Y-52300000D02*
X-188350000Y-55100000D01*
X-190850000Y-52350000D02*
X-191800000Y-53450000D01*
X-191800000Y-53450000D02*
X-191800000Y-52300000D01*
X-191800000Y-52300000D02*
X-188350000Y-52300000D01*
X-191850000Y-55100000D02*
X-191800000Y-52350000D01*
X-191850000Y-51800000D02*
G75*
G03*
X-191850000Y-51800000I-450000J0D01*
G01*
%TO.C,D91*%
X-216150000Y-126000000D02*
X-219650000Y-126000000D01*
X-216150000Y-123200000D02*
X-216150000Y-126000000D01*
X-218650000Y-123250000D02*
X-219600000Y-124350000D01*
X-219600000Y-124350000D02*
X-219600000Y-123200000D01*
X-219600000Y-123200000D02*
X-216150000Y-123200000D01*
X-219650000Y-126000000D02*
X-219600000Y-123250000D01*
X-219650000Y-122700000D02*
G75*
G03*
X-219650000Y-122700000I-450000J0D01*
G01*
%TO.C,D58*%
X-261808893Y-190326393D02*
X-265308893Y-190326393D01*
X-261808893Y-187526393D02*
X-261808893Y-190326393D01*
X-264308893Y-187576393D02*
X-265258893Y-188676393D01*
X-265258893Y-188676393D02*
X-265258893Y-187526393D01*
X-265258893Y-187526393D02*
X-261808893Y-187526393D01*
X-265308893Y-190326393D02*
X-265258893Y-187576393D01*
X-265308893Y-187026393D02*
G75*
G03*
X-265308893Y-187026393I-450000J0D01*
G01*
%TO.C,D104*%
X-264008893Y-145926393D02*
X-267508893Y-145926393D01*
X-264008893Y-143126393D02*
X-264008893Y-145926393D01*
X-266508893Y-143176393D02*
X-267458893Y-144276393D01*
X-267458893Y-144276393D02*
X-267458893Y-143126393D01*
X-267458893Y-143126393D02*
X-264008893Y-143126393D01*
X-267508893Y-145926393D02*
X-267458893Y-143176393D01*
X-267508893Y-142626393D02*
G75*
G03*
X-267508893Y-142626393I-450000J0D01*
G01*
%TO.C,D41*%
X-217450000Y-200600000D02*
X-220950000Y-200600000D01*
X-217450000Y-197800000D02*
X-217450000Y-200600000D01*
X-219950000Y-197850000D02*
X-220900000Y-198950000D01*
X-220900000Y-198950000D02*
X-220900000Y-197800000D01*
X-220900000Y-197800000D02*
X-217450000Y-197800000D01*
X-220950000Y-200600000D02*
X-220900000Y-197850000D01*
X-220950000Y-197300000D02*
G75*
G03*
X-220950000Y-197300000I-450000J0D01*
G01*
%TO.C,D51*%
X-248650000Y-195700000D02*
X-252150000Y-195700000D01*
X-248650000Y-192900000D02*
X-248650000Y-195700000D01*
X-251150000Y-192950000D02*
X-252100000Y-194050000D01*
X-252100000Y-194050000D02*
X-252100000Y-192900000D01*
X-252100000Y-192900000D02*
X-248650000Y-192900000D01*
X-252150000Y-195700000D02*
X-252100000Y-192950000D01*
X-252150000Y-192400000D02*
G75*
G03*
X-252150000Y-192400000I-450000J0D01*
G01*
%TO.C,D40*%
X-215450000Y-196800000D02*
X-218950000Y-196800000D01*
X-215450000Y-194000000D02*
X-215450000Y-196800000D01*
X-217950000Y-194050000D02*
X-218900000Y-195150000D01*
X-218900000Y-195150000D02*
X-218900000Y-194000000D01*
X-218900000Y-194000000D02*
X-215450000Y-194000000D01*
X-218950000Y-196800000D02*
X-218900000Y-194050000D01*
X-218950000Y-193500000D02*
G75*
G03*
X-218950000Y-193500000I-450000J0D01*
G01*
%TO.C,D117*%
X-249050000Y-97000000D02*
X-252550000Y-97000000D01*
X-249050000Y-94200000D02*
X-249050000Y-97000000D01*
X-251550000Y-94250000D02*
X-252500000Y-95350000D01*
X-252500000Y-95350000D02*
X-252500000Y-94200000D01*
X-252500000Y-94200000D02*
X-249050000Y-94200000D01*
X-252550000Y-97000000D02*
X-252500000Y-94250000D01*
X-252550000Y-93700000D02*
G75*
G03*
X-252550000Y-93700000I-450000J0D01*
G01*
%TO.C,D142*%
X-206050000Y-70050000D02*
X-209550000Y-70050000D01*
X-206050000Y-67250000D02*
X-206050000Y-70050000D01*
X-208550000Y-67300000D02*
X-209500000Y-68400000D01*
X-209500000Y-68400000D02*
X-209500000Y-67250000D01*
X-209500000Y-67250000D02*
X-206050000Y-67250000D01*
X-209550000Y-70050000D02*
X-209500000Y-67300000D01*
X-209550000Y-66750000D02*
G75*
G03*
X-209550000Y-66750000I-450000J0D01*
G01*
%TO.C,D218*%
X-268250000Y-61500000D02*
X-271750000Y-61500000D01*
X-268250000Y-58700000D02*
X-268250000Y-61500000D01*
X-270750000Y-58750000D02*
X-271700000Y-59850000D01*
X-271700000Y-59850000D02*
X-271700000Y-58700000D01*
X-271700000Y-58700000D02*
X-268250000Y-58700000D01*
X-271750000Y-61500000D02*
X-271700000Y-58750000D01*
X-271750000Y-58200000D02*
G75*
G03*
X-271750000Y-58200000I-450000J0D01*
G01*
%TO.C,D42*%
X-221208893Y-196126393D02*
X-224708893Y-196126393D01*
X-221208893Y-193326393D02*
X-221208893Y-196126393D01*
X-223708893Y-193376393D02*
X-224658893Y-194476393D01*
X-224658893Y-194476393D02*
X-224658893Y-193326393D01*
X-224658893Y-193326393D02*
X-221208893Y-193326393D01*
X-224708893Y-196126393D02*
X-224658893Y-193376393D01*
X-224708893Y-192826393D02*
G75*
G03*
X-224708893Y-192826393I-450000J0D01*
G01*
%TO.C,D161*%
X-195508893Y-43626393D02*
X-199008893Y-43626393D01*
X-195508893Y-40826393D02*
X-195508893Y-43626393D01*
X-198008893Y-40876393D02*
X-198958893Y-41976393D01*
X-198958893Y-41976393D02*
X-198958893Y-40826393D01*
X-198958893Y-40826393D02*
X-195508893Y-40826393D01*
X-199008893Y-43626393D02*
X-198958893Y-40876393D01*
X-199008893Y-40326393D02*
G75*
G03*
X-199008893Y-40326393I-450000J0D01*
G01*
%TO.C,D194*%
X-302800000Y-22950000D02*
X-306300000Y-22950000D01*
X-302800000Y-20150000D02*
X-302800000Y-22950000D01*
X-305300000Y-20200000D02*
X-306250000Y-21300000D01*
X-306250000Y-21300000D02*
X-306250000Y-20150000D01*
X-306250000Y-20150000D02*
X-302800000Y-20150000D01*
X-306300000Y-22950000D02*
X-306250000Y-20200000D01*
X-306300000Y-19650000D02*
G75*
G03*
X-306300000Y-19650000I-450000J0D01*
G01*
%TO.C,D188*%
X-304850000Y-13500000D02*
X-308350000Y-13500000D01*
X-304850000Y-10700000D02*
X-304850000Y-13500000D01*
X-307350000Y-10750000D02*
X-308300000Y-11850000D01*
X-308300000Y-11850000D02*
X-308300000Y-10700000D01*
X-308300000Y-10700000D02*
X-304850000Y-10700000D01*
X-308350000Y-13500000D02*
X-308300000Y-10750000D01*
X-308350000Y-10200000D02*
G75*
G03*
X-308350000Y-10200000I-450000J0D01*
G01*
%TO.C,D83*%
X-227508893Y-186426393D02*
X-231008893Y-186426393D01*
X-227508893Y-183626393D02*
X-227508893Y-186426393D01*
X-230008893Y-183676393D02*
X-230958893Y-184776393D01*
X-230958893Y-184776393D02*
X-230958893Y-183626393D01*
X-230958893Y-183626393D02*
X-227508893Y-183626393D01*
X-231008893Y-186426393D02*
X-230958893Y-183676393D01*
X-231008893Y-183126393D02*
G75*
G03*
X-231008893Y-183126393I-450000J0D01*
G01*
%TO.C,D184*%
X-260350000Y-5100000D02*
X-263850000Y-5100000D01*
X-260350000Y-2300000D02*
X-260350000Y-5100000D01*
X-262850000Y-2350000D02*
X-263800000Y-3450000D01*
X-263800000Y-3450000D02*
X-263800000Y-2300000D01*
X-263800000Y-2300000D02*
X-260350000Y-2300000D01*
X-263850000Y-5100000D02*
X-263800000Y-2350000D01*
X-263850000Y-1800000D02*
G75*
G03*
X-263850000Y-1800000I-450000J0D01*
G01*
%TO.C,D1*%
X-170308893Y-118626393D02*
X-173808893Y-118626393D01*
X-170308893Y-115826393D02*
X-170308893Y-118626393D01*
X-172808893Y-115876393D02*
X-173758893Y-116976393D01*
X-173758893Y-116976393D02*
X-173758893Y-115826393D01*
X-173758893Y-115826393D02*
X-170308893Y-115826393D01*
X-173808893Y-118626393D02*
X-173758893Y-115876393D01*
X-173808893Y-115326393D02*
G75*
G03*
X-173808893Y-115326393I-450000J0D01*
G01*
%TO.C,D130*%
X-176008893Y-116726393D02*
X-179508893Y-116726393D01*
X-176008893Y-113926393D02*
X-176008893Y-116726393D01*
X-178508893Y-113976393D02*
X-179458893Y-115076393D01*
X-179458893Y-115076393D02*
X-179458893Y-113926393D01*
X-179458893Y-113926393D02*
X-176008893Y-113926393D01*
X-179508893Y-116726393D02*
X-179458893Y-113976393D01*
X-179508893Y-113426393D02*
G75*
G03*
X-179508893Y-113426393I-450000J0D01*
G01*
%TO.C,D200*%
X-297000000Y-31050000D02*
X-300500000Y-31050000D01*
X-297000000Y-28250000D02*
X-297000000Y-31050000D01*
X-299500000Y-28300000D02*
X-300450000Y-29400000D01*
X-300450000Y-29400000D02*
X-300450000Y-28250000D01*
X-300450000Y-28250000D02*
X-297000000Y-28250000D01*
X-300500000Y-31050000D02*
X-300450000Y-28300000D01*
X-300500000Y-27750000D02*
G75*
G03*
X-300500000Y-27750000I-450000J0D01*
G01*
%TO.C,D35*%
X-193808893Y-193026393D02*
X-197308893Y-193026393D01*
X-193808893Y-190226393D02*
X-193808893Y-193026393D01*
X-196308893Y-190276393D02*
X-197258893Y-191376393D01*
X-197258893Y-191376393D02*
X-197258893Y-190226393D01*
X-197258893Y-190226393D02*
X-193808893Y-190226393D01*
X-197308893Y-193026393D02*
X-197258893Y-190276393D01*
X-197308893Y-189726393D02*
G75*
G03*
X-197308893Y-189726393I-450000J0D01*
G01*
%TO.C,D236*%
X-233050000Y-85700000D02*
X-236550000Y-85700000D01*
X-233050000Y-82900000D02*
X-233050000Y-85700000D01*
X-235550000Y-82950000D02*
X-236500000Y-84050000D01*
X-236500000Y-84050000D02*
X-236500000Y-82900000D01*
X-236500000Y-82900000D02*
X-233050000Y-82900000D01*
X-236550000Y-85700000D02*
X-236500000Y-82950000D01*
X-236550000Y-82400000D02*
G75*
G03*
X-236550000Y-82400000I-450000J0D01*
G01*
%TO.C,D7*%
X-174450000Y-134000000D02*
X-177950000Y-134000000D01*
X-174450000Y-131200000D02*
X-174450000Y-134000000D01*
X-176950000Y-131250000D02*
X-177900000Y-132350000D01*
X-177900000Y-132350000D02*
X-177900000Y-131200000D01*
X-177900000Y-131200000D02*
X-174450000Y-131200000D01*
X-177950000Y-134000000D02*
X-177900000Y-131250000D01*
X-177950000Y-130700000D02*
G75*
G03*
X-177950000Y-130700000I-450000J0D01*
G01*
%TO.C,D143*%
X-204208893Y-65126393D02*
X-207708893Y-65126393D01*
X-204208893Y-62326393D02*
X-204208893Y-65126393D01*
X-206708893Y-62376393D02*
X-207658893Y-63476393D01*
X-207658893Y-63476393D02*
X-207658893Y-62326393D01*
X-207658893Y-62326393D02*
X-204208893Y-62326393D01*
X-207708893Y-65126393D02*
X-207658893Y-62376393D01*
X-207708893Y-61826393D02*
G75*
G03*
X-207708893Y-61826393I-450000J0D01*
G01*
%TO.C,D18*%
X-205950000Y-168600000D02*
X-209450000Y-168600000D01*
X-205950000Y-165800000D02*
X-205950000Y-168600000D01*
X-208450000Y-165850000D02*
X-209400000Y-166950000D01*
X-209400000Y-166950000D02*
X-209400000Y-165800000D01*
X-209400000Y-165800000D02*
X-205950000Y-165800000D01*
X-209450000Y-168600000D02*
X-209400000Y-165850000D01*
X-209450000Y-165300000D02*
G75*
G03*
X-209450000Y-165300000I-450000J0D01*
G01*
%TO.C,D110*%
X-262150000Y-122900000D02*
X-265650000Y-122900000D01*
X-262150000Y-120100000D02*
X-262150000Y-122900000D01*
X-264650000Y-120150000D02*
X-265600000Y-121250000D01*
X-265600000Y-121250000D02*
X-265600000Y-120100000D01*
X-265600000Y-120100000D02*
X-262150000Y-120100000D01*
X-265650000Y-122900000D02*
X-265600000Y-120150000D01*
X-265650000Y-119600000D02*
G75*
G03*
X-265650000Y-119600000I-450000J0D01*
G01*
%TO.C,D178*%
X-243850000Y-14900000D02*
X-247350000Y-14900000D01*
X-243850000Y-12100000D02*
X-243850000Y-14900000D01*
X-246350000Y-12150000D02*
X-247300000Y-13250000D01*
X-247300000Y-13250000D02*
X-247300000Y-12100000D01*
X-247300000Y-12100000D02*
X-243850000Y-12100000D01*
X-247350000Y-14900000D02*
X-247300000Y-12150000D01*
X-247350000Y-11600000D02*
G75*
G03*
X-247350000Y-11600000I-450000J0D01*
G01*
%TO.C,D127*%
X-194450000Y-99300000D02*
X-197950000Y-99300000D01*
X-194450000Y-96500000D02*
X-194450000Y-99300000D01*
X-196950000Y-96550000D02*
X-197900000Y-97650000D01*
X-197900000Y-97650000D02*
X-197900000Y-96500000D01*
X-197900000Y-96500000D02*
X-194450000Y-96500000D01*
X-197950000Y-99300000D02*
X-197900000Y-96550000D01*
X-197950000Y-96000000D02*
G75*
G03*
X-197950000Y-96000000I-450000J0D01*
G01*
%TO.C,D112*%
X-262750000Y-114450000D02*
X-266250000Y-114450000D01*
X-262750000Y-111650000D02*
X-262750000Y-114450000D01*
X-265250000Y-111700000D02*
X-266200000Y-112800000D01*
X-266200000Y-112800000D02*
X-266200000Y-111650000D01*
X-266200000Y-111650000D02*
X-262750000Y-111650000D01*
X-266250000Y-114450000D02*
X-266200000Y-111700000D01*
X-266250000Y-111150000D02*
G75*
G03*
X-266250000Y-111150000I-450000J0D01*
G01*
%TO.C,D25*%
X-175908893Y-157926393D02*
X-179408893Y-157926393D01*
X-175908893Y-155126393D02*
X-175908893Y-157926393D01*
X-178408893Y-155176393D02*
X-179358893Y-156276393D01*
X-179358893Y-156276393D02*
X-179358893Y-155126393D01*
X-179358893Y-155126393D02*
X-175908893Y-155126393D01*
X-179408893Y-157926393D02*
X-179358893Y-155176393D01*
X-179408893Y-154626393D02*
G75*
G03*
X-179408893Y-154626393I-450000J0D01*
G01*
%TO.C,D99*%
X-244108893Y-142826393D02*
X-247608893Y-142826393D01*
X-244108893Y-140026393D02*
X-244108893Y-142826393D01*
X-246608893Y-140076393D02*
X-247558893Y-141176393D01*
X-247558893Y-141176393D02*
X-247558893Y-140026393D01*
X-247558893Y-140026393D02*
X-244108893Y-140026393D01*
X-247608893Y-142826393D02*
X-247558893Y-140076393D01*
X-247608893Y-139526393D02*
G75*
G03*
X-247608893Y-139526393I-450000J0D01*
G01*
%TO.C,D131*%
X-181600000Y-114650000D02*
X-185100000Y-114650000D01*
X-181600000Y-111850000D02*
X-181600000Y-114650000D01*
X-184100000Y-111900000D02*
X-185050000Y-113000000D01*
X-185050000Y-113000000D02*
X-185050000Y-111850000D01*
X-185050000Y-111850000D02*
X-181600000Y-111850000D01*
X-185100000Y-114650000D02*
X-185050000Y-111900000D01*
X-185100000Y-111350000D02*
G75*
G03*
X-185100000Y-111350000I-450000J0D01*
G01*
%TO.C,D111*%
X-262450000Y-118800000D02*
X-265950000Y-118800000D01*
X-262450000Y-116000000D02*
X-262450000Y-118800000D01*
X-264950000Y-116050000D02*
X-265900000Y-117150000D01*
X-265900000Y-117150000D02*
X-265900000Y-116000000D01*
X-265900000Y-116000000D02*
X-262450000Y-116000000D01*
X-265950000Y-118800000D02*
X-265900000Y-116050000D01*
X-265950000Y-115500000D02*
G75*
G03*
X-265950000Y-115500000I-450000J0D01*
G01*
%TO.C,D148*%
X-183750000Y-68400000D02*
X-187250000Y-68400000D01*
X-183750000Y-65600000D02*
X-183750000Y-68400000D01*
X-186250000Y-65650000D02*
X-187200000Y-66750000D01*
X-187200000Y-66750000D02*
X-187200000Y-65600000D01*
X-187200000Y-65600000D02*
X-183750000Y-65600000D01*
X-187250000Y-68400000D02*
X-187200000Y-65650000D01*
X-187250000Y-65100000D02*
G75*
G03*
X-187250000Y-65100000I-450000J0D01*
G01*
%TO.C,D75*%
X-228908893Y-159126393D02*
X-232408893Y-159126393D01*
X-228908893Y-156326393D02*
X-228908893Y-159126393D01*
X-231408893Y-156376393D02*
X-232358893Y-157476393D01*
X-232358893Y-157476393D02*
X-232358893Y-156326393D01*
X-232358893Y-156326393D02*
X-228908893Y-156326393D01*
X-232408893Y-159126393D02*
X-232358893Y-156376393D01*
X-232408893Y-155826393D02*
G75*
G03*
X-232408893Y-155826393I-450000J0D01*
G01*
%TO.C,D38*%
X-207150000Y-196300000D02*
X-210650000Y-196300000D01*
X-207150000Y-193500000D02*
X-207150000Y-196300000D01*
X-209650000Y-193550000D02*
X-210600000Y-194650000D01*
X-210600000Y-194650000D02*
X-210600000Y-193500000D01*
X-210600000Y-193500000D02*
X-207150000Y-193500000D01*
X-210650000Y-196300000D02*
X-210600000Y-193550000D01*
X-210650000Y-193000000D02*
G75*
G03*
X-210650000Y-193000000I-450000J0D01*
G01*
%TO.C,D191*%
X-311308893Y-16850000D02*
X-314808893Y-16850000D01*
X-311308893Y-14050000D02*
X-311308893Y-16850000D01*
X-313808893Y-14100000D02*
X-314758893Y-15200000D01*
X-314758893Y-15200000D02*
X-314758893Y-14050000D01*
X-314758893Y-14050000D02*
X-311308893Y-14050000D01*
X-314808893Y-16850000D02*
X-314758893Y-14100000D01*
X-314808893Y-13550000D02*
G75*
G03*
X-314808893Y-13550000I-450000J0D01*
G01*
%TO.C,D64*%
X-258008893Y-171826393D02*
X-261508893Y-171826393D01*
X-258008893Y-169026393D02*
X-258008893Y-171826393D01*
X-260508893Y-169076393D02*
X-261458893Y-170176393D01*
X-261458893Y-170176393D02*
X-261458893Y-169026393D01*
X-261458893Y-169026393D02*
X-258008893Y-169026393D01*
X-261508893Y-171826393D02*
X-261458893Y-169076393D01*
X-261508893Y-168526393D02*
G75*
G03*
X-261508893Y-168526393I-450000J0D01*
G01*
%TO.C,D225*%
X-238250000Y-55700000D02*
X-241750000Y-55700000D01*
X-238250000Y-52900000D02*
X-238250000Y-55700000D01*
X-240750000Y-52950000D02*
X-241700000Y-54050000D01*
X-241700000Y-54050000D02*
X-241700000Y-52900000D01*
X-241700000Y-52900000D02*
X-238250000Y-52900000D01*
X-241750000Y-55700000D02*
X-241700000Y-52950000D01*
X-241750000Y-52400000D02*
G75*
G03*
X-241750000Y-52400000I-450000J0D01*
G01*
%TO.C,D181*%
X-253800000Y-6250000D02*
X-257300000Y-6250000D01*
X-253800000Y-3450000D02*
X-253800000Y-6250000D01*
X-256300000Y-3500000D02*
X-257250000Y-4600000D01*
X-257250000Y-4600000D02*
X-257250000Y-3450000D01*
X-257250000Y-3450000D02*
X-253800000Y-3450000D01*
X-257300000Y-6250000D02*
X-257250000Y-3500000D01*
X-257300000Y-2950000D02*
G75*
G03*
X-257300000Y-2950000I-450000J0D01*
G01*
%TO.C,D204*%
X-285908893Y-39073607D02*
X-289408893Y-39073607D01*
X-285908893Y-36273607D02*
X-285908893Y-39073607D01*
X-288408893Y-36323607D02*
X-289358893Y-37423607D01*
X-289358893Y-37423607D02*
X-289358893Y-36273607D01*
X-289358893Y-36273607D02*
X-285908893Y-36273607D01*
X-289408893Y-39073607D02*
X-289358893Y-36323607D01*
X-289408893Y-35773607D02*
G75*
G03*
X-289408893Y-35773607I-450000J0D01*
G01*
%TO.C,D32*%
X-191800000Y-183750000D02*
X-195300000Y-183750000D01*
X-191800000Y-180950000D02*
X-191800000Y-183750000D01*
X-194300000Y-181000000D02*
X-195250000Y-182100000D01*
X-195250000Y-182100000D02*
X-195250000Y-180950000D01*
X-195250000Y-180950000D02*
X-191800000Y-180950000D01*
X-195300000Y-183750000D02*
X-195250000Y-181000000D01*
X-195300000Y-180450000D02*
G75*
G03*
X-195300000Y-180450000I-450000J0D01*
G01*
%TO.C,D69*%
X-257500000Y-157250000D02*
X-261000000Y-157250000D01*
X-257500000Y-154450000D02*
X-257500000Y-157250000D01*
X-260000000Y-154500000D02*
X-260950000Y-155600000D01*
X-260950000Y-155600000D02*
X-260950000Y-154450000D01*
X-260950000Y-154450000D02*
X-257500000Y-154450000D01*
X-261000000Y-157250000D02*
X-260950000Y-154500000D01*
X-261000000Y-153950000D02*
G75*
G03*
X-261000000Y-153950000I-450000J0D01*
G01*
%TO.C,D162*%
X-201450000Y-43000000D02*
X-204950000Y-43000000D01*
X-201450000Y-40200000D02*
X-201450000Y-43000000D01*
X-203950000Y-40250000D02*
X-204900000Y-41350000D01*
X-204900000Y-41350000D02*
X-204900000Y-40200000D01*
X-204900000Y-40200000D02*
X-201450000Y-40200000D01*
X-204950000Y-43000000D02*
X-204900000Y-40250000D01*
X-204950000Y-39700000D02*
G75*
G03*
X-204950000Y-39700000I-450000J0D01*
G01*
%TO.C,C1*%
X-272200000Y-5600000D02*
X-272200000Y-8800000D01*
X-273800000Y-5600000D02*
X-272200000Y-5600000D01*
X-272200000Y-8800000D02*
X-273800000Y-8800000D01*
X-273800000Y-8800000D02*
X-273800000Y-5600000D01*
%TO.C,U4*%
X-182291852Y-102676777D02*
X-182291852Y-103242462D01*
X-184059619Y-100909010D02*
X-182291852Y-102676777D01*
X-182291852Y-103242462D02*
X-183140381Y-104090990D01*
X-183140381Y-104090990D02*
X-185190990Y-102040381D01*
X-185190990Y-102040381D02*
X-184059619Y-100909010D01*
%TO.C,U1*%
X-277825000Y-4450000D02*
X-278150000Y-4125000D01*
X-275250000Y-4450000D02*
X-277825000Y-4450000D01*
X-278150000Y-4125000D02*
X-278150000Y-3150000D01*
X-278150000Y-3150000D02*
X-275250000Y-3150000D01*
X-275250000Y-3150000D02*
X-275250000Y-4450000D01*
%TO.C,C3*%
X-303300000Y-9100000D02*
X-303300000Y-7500000D01*
X-302500000Y-9100000D02*
X-303300000Y-9100000D01*
X-303300000Y-7500000D02*
X-302500000Y-7500000D01*
X-302500000Y-7500000D02*
X-302500000Y-9100000D01*
%TO.C,C8*%
X-208900000Y-197500000D02*
X-205700000Y-197500000D01*
X-208900000Y-199100000D02*
X-208900000Y-197500000D01*
X-205700000Y-197500000D02*
X-205700000Y-199100000D01*
X-205700000Y-199100000D02*
X-208900000Y-199100000D01*
%TO.C,C6*%
X-224302944Y-155534315D02*
X-226565685Y-157797056D01*
X-225434315Y-154402944D02*
X-224302944Y-155534315D01*
X-226565685Y-157797056D02*
X-227697056Y-156665685D01*
X-227697056Y-156665685D02*
X-225434315Y-154402944D01*
%TO.C,C4*%
X-267100000Y-86500000D02*
X-270300000Y-86500000D01*
X-267100000Y-84900000D02*
X-267100000Y-86500000D01*
X-270300000Y-86500000D02*
X-270300000Y-84900000D01*
X-270300000Y-84900000D02*
X-267100000Y-84900000D01*
%TO.C,C5*%
X-187800000Y-112400000D02*
X-191000000Y-112400000D01*
X-187800000Y-110800000D02*
X-187800000Y-112400000D01*
X-191000000Y-112400000D02*
X-191000000Y-110800000D01*
X-191000000Y-110800000D02*
X-187800000Y-110800000D01*
%TO.C,U2*%
X-300475000Y-10450000D02*
X-301450000Y-9475000D01*
X-296550000Y-10450000D02*
X-300475000Y-10450000D01*
X-301450000Y-9475000D02*
X-301450000Y-6550000D01*
X-301450000Y-6550000D02*
X-296550000Y-6550000D01*
X-296550000Y-6550000D02*
X-296550000Y-10450000D01*
%TO.C,J14*%
X-186170000Y-144595000D02*
X-187170000Y-143595000D01*
X-171930000Y-144595000D02*
X-186170000Y-144595000D01*
X-187170000Y-143595000D02*
X-187170000Y-138245000D01*
X-187170000Y-138245000D02*
X-171930000Y-138245000D01*
X-171930000Y-138245000D02*
X-171930000Y-144595000D01*
%TO.C,U3*%
X-172000000Y-109350000D02*
X-172400000Y-109750000D01*
X-172000000Y-106850000D02*
X-172000000Y-109350000D01*
X-172400000Y-109750000D02*
X-173600000Y-109750000D01*
X-173600000Y-109750000D02*
X-173600000Y-106850000D01*
X-173600000Y-106850000D02*
X-172000000Y-106850000D01*
%TO.C,C2*%
X-295150000Y-7900000D02*
X-295150000Y-8900000D01*
X-295650000Y-7900000D02*
X-295150000Y-7900000D01*
X-295150000Y-8900000D02*
X-295650000Y-8900000D01*
X-295650000Y-8900000D02*
X-295650000Y-7900000D01*
%TO.C,C7*%
X-265100646Y-151513773D02*
X-262837905Y-153776514D01*
X-266232017Y-152645144D02*
X-265100646Y-151513773D01*
X-262837905Y-153776514D02*
X-263969276Y-154907885D01*
X-263969276Y-154907885D02*
X-266232017Y-152645144D01*
%TO.C,C10*%
X-275834961Y-9210829D02*
X-277434961Y-9210829D01*
X-275834961Y-8410829D02*
X-275834961Y-9210829D01*
X-277434961Y-9210829D02*
X-277434961Y-8410829D01*
X-277434961Y-8410829D02*
X-275834961Y-8410829D01*
%TO.C,C9*%
X-275834961Y-7310829D02*
X-277434961Y-7310829D01*
X-275834961Y-6510829D02*
X-275834961Y-7310829D01*
X-277434961Y-7310829D02*
X-277434961Y-6510829D01*
X-277434961Y-6510829D02*
X-275834961Y-6510829D01*
%TD*%
M02*
