%TF.GenerationSoftware,KiCad,Pcbnew,(6.99.0-3809-g2741d0eb4b)*%
%TF.CreationDate,2022-10-25T09:35:27-04:00*%
%TF.ProjectId,PortWing,506f7274-5769-46e6-972e-6b696361645f,rev?*%
%TF.SameCoordinates,Original*%
%TF.FileFunction,Copper,L1,Top*%
%TF.FilePolarity,Positive*%
%FSLAX46Y46*%
G04 Gerber Fmt 4.6, Leading zero omitted, Abs format (unit mm)*
G04 Created by KiCad (PCBNEW (6.99.0-3809-g2741d0eb4b)) date 2022-10-25 09:35:27*
%MOMM*%
%LPD*%
G01*
G04 APERTURE LIST*
G04 Aperture macros list*
%AMRoundRect*
0 Rectangle with rounded corners*
0 $1 Rounding radius*
0 $2 $3 $4 $5 $6 $7 $8 $9 X,Y pos of 4 corners*
0 Add a 4 corners polygon primitive as box body*
4,1,4,$2,$3,$4,$5,$6,$7,$8,$9,$2,$3,0*
0 Add four circle primitives for the rounded corners*
1,1,$1+$1,$2,$3*
1,1,$1+$1,$4,$5*
1,1,$1+$1,$6,$7*
1,1,$1+$1,$8,$9*
0 Add four rect primitives between the rounded corners*
20,1,$1+$1,$2,$3,$4,$5,0*
20,1,$1+$1,$4,$5,$6,$7,0*
20,1,$1+$1,$6,$7,$8,$9,0*
20,1,$1+$1,$8,$9,$2,$3,0*%
%AMRotRect*
0 Rectangle, with rotation*
0 The origin of the aperture is its center*
0 $1 length*
0 $2 width*
0 $3 Rotation angle, in degrees counterclockwise*
0 Add horizontal line*
21,1,$1,$2,0,0,$3*%
G04 Aperture macros list end*
%TA.AperFunction,ComponentPad*%
%ADD10C,0.600000*%
%TD*%
%TA.AperFunction,SMDPad,CuDef*%
%ADD11R,0.900000X0.750000*%
%TD*%
%TA.AperFunction,ComponentPad*%
%ADD12O,1.000000X1.000000*%
%TD*%
%TA.AperFunction,SMDPad,CuDef*%
%ADD13R,0.750000X0.750000*%
%TD*%
%TA.AperFunction,SMDPad,CuDef*%
%ADD14O,0.750000X0.750000*%
%TD*%
%TA.AperFunction,SMDPad,CuDef*%
%ADD15RoundRect,0.250000X-0.650000X0.325000X-0.650000X-0.325000X0.650000X-0.325000X0.650000X0.325000X0*%
%TD*%
%TA.AperFunction,SMDPad,CuDef*%
%ADD16RoundRect,0.150000X0.256326X0.468458X-0.468458X-0.256326X-0.256326X-0.468458X0.468458X0.256326X0*%
%TD*%
%TA.AperFunction,SMDPad,CuDef*%
%ADD17RoundRect,0.150000X0.150000X-0.587500X0.150000X0.587500X-0.150000X0.587500X-0.150000X-0.587500X0*%
%TD*%
%TA.AperFunction,SMDPad,CuDef*%
%ADD18RotRect,0.900000X0.750000X135.000000*%
%TD*%
%TA.AperFunction,SMDPad,CuDef*%
%ADD19RoundRect,0.225000X0.250000X-0.225000X0.250000X0.225000X-0.250000X0.225000X-0.250000X-0.225000X0*%
%TD*%
%TA.AperFunction,SMDPad,CuDef*%
%ADD20RoundRect,0.250000X-0.325000X-0.650000X0.325000X-0.650000X0.325000X0.650000X-0.325000X0.650000X0*%
%TD*%
%TA.AperFunction,SMDPad,CuDef*%
%ADD21RoundRect,0.250000X-0.229810X0.689429X-0.689429X0.229810X0.229810X-0.689429X0.689429X-0.229810X0*%
%TD*%
%TA.AperFunction,SMDPad,CuDef*%
%ADD22RotRect,1.000000X1.500000X225.000000*%
%TD*%
%TA.AperFunction,SMDPad,CuDef*%
%ADD23RoundRect,0.250000X0.325000X0.650000X-0.325000X0.650000X-0.325000X-0.650000X0.325000X-0.650000X0*%
%TD*%
%TA.AperFunction,SMDPad,CuDef*%
%ADD24RoundRect,0.150000X0.150000X-0.675000X0.150000X0.675000X-0.150000X0.675000X-0.150000X-0.675000X0*%
%TD*%
%TA.AperFunction,ComponentPad*%
%ADD25R,1.600000X2.400000*%
%TD*%
%TA.AperFunction,ComponentPad*%
%ADD26O,1.600000X2.400000*%
%TD*%
%TA.AperFunction,SMDPad,CuDef*%
%ADD27RoundRect,0.150000X0.512500X0.150000X-0.512500X0.150000X-0.512500X-0.150000X0.512500X-0.150000X0*%
%TD*%
%TA.AperFunction,ComponentPad*%
%ADD28C,1.727200*%
%TD*%
%TA.AperFunction,ComponentPad*%
%ADD29O,1.727200X1.727200*%
%TD*%
%TA.AperFunction,ComponentPad*%
%ADD30R,1.727200X1.727200*%
%TD*%
%TA.AperFunction,SMDPad,CuDef*%
%ADD31RoundRect,0.140000X-0.170000X0.140000X-0.170000X-0.140000X0.170000X-0.140000X0.170000X0.140000X0*%
%TD*%
%TA.AperFunction,SMDPad,CuDef*%
%ADD32RoundRect,0.250000X0.689429X0.229810X0.229810X0.689429X-0.689429X-0.229810X-0.229810X-0.689429X0*%
%TD*%
%TA.AperFunction,SMDPad,CuDef*%
%ADD33RoundRect,0.225000X0.225000X0.250000X-0.225000X0.250000X-0.225000X-0.250000X0.225000X-0.250000X0*%
%TD*%
%TA.AperFunction,ViaPad*%
%ADD34C,0.800000*%
%TD*%
%TA.AperFunction,Conductor*%
%ADD35C,0.200000*%
%TD*%
%TA.AperFunction,Conductor*%
%ADD36C,0.400000*%
%TD*%
%TA.AperFunction,Conductor*%
%ADD37C,0.250000*%
%TD*%
G04 APERTURE END LIST*
%TO.C,JP1*%
G36*
X146802822Y-81756622D02*
G01*
X146449269Y-82110175D01*
X146025005Y-81685911D01*
X146378558Y-81332358D01*
X146802822Y-81756622D01*
G37*
%TD*%
D10*
%TO.P,D213,1,VSS*%
%TO.N,/GND*%
X52245401Y-38557279D03*
D11*
X51545400Y-38557278D03*
%TO.P,D213,2,DIN*%
%TO.N,Net-(D212-DOUT)*%
X51545400Y-40057278D03*
%TO.P,D213,3,VDD*%
%TO.N,/5V*%
X54245400Y-40057278D03*
D10*
X53595401Y-40057279D03*
D11*
%TO.P,D213,4,DOUT*%
%TO.N,Net-(D213-DOUT)*%
X54245400Y-38557278D03*
%TD*%
D10*
%TO.P,D37,1,VSS*%
%TO.N,/GND*%
X128745401Y-177657279D03*
D11*
X128045400Y-177657278D03*
%TO.P,D37,2,DIN*%
%TO.N,Net-(D36-DOUT)*%
X128045400Y-179157278D03*
%TO.P,D37,3,VDD*%
%TO.N,/5V*%
X130745400Y-179157278D03*
D10*
X130095401Y-179157279D03*
D11*
%TO.P,D37,4,DOUT*%
%TO.N,Net-(D37-DOUT)*%
X130745400Y-177657278D03*
%TD*%
D10*
%TO.P,D94,1,VSS*%
%TO.N,/GND*%
X100045401Y-119457279D03*
D11*
X99345400Y-119457278D03*
%TO.P,D94,2,DIN*%
%TO.N,Net-(D93-DOUT)*%
X99345400Y-120957278D03*
%TO.P,D94,3,VDD*%
%TO.N,/5V*%
X102045400Y-120957278D03*
D10*
X101395401Y-120957279D03*
D11*
%TO.P,D94,4,DOUT*%
%TO.N,Net-(D94-DOUT)*%
X102045400Y-119457278D03*
%TD*%
D10*
%TO.P,D241,1,VSS*%
%TO.N,/GND*%
X84604294Y-66030886D03*
D11*
X83904293Y-66030885D03*
%TO.P,D241,2,DIN*%
%TO.N,Net-(D241-DIN)*%
X83904293Y-67530885D03*
%TO.P,D241,3,VDD*%
%TO.N,/5V*%
X86604293Y-67530885D03*
D10*
X85954294Y-67530886D03*
D11*
%TO.P,D241,4,DOUT*%
%TO.N,Net-(D241-DOUT)*%
X86604293Y-66030885D03*
%TD*%
D10*
%TO.P,D199,1,VSS*%
%TO.N,/GND*%
X39954294Y-13980886D03*
D11*
X39254293Y-13980885D03*
%TO.P,D199,2,DIN*%
%TO.N,Net-(D199-DIN)*%
X39254293Y-15480885D03*
%TO.P,D199,3,VDD*%
%TO.N,/5V*%
X41954293Y-15480885D03*
D10*
X41304294Y-15480886D03*
D11*
%TO.P,D199,4,DOUT*%
%TO.N,Net-(D199-DOUT)*%
X41954293Y-13980885D03*
%TD*%
D10*
%TO.P,D102,1,VSS*%
%TO.N,/GND*%
X71704294Y-133430886D03*
D11*
X71004293Y-133430885D03*
%TO.P,D102,2,DIN*%
%TO.N,Net-(D101-DOUT)*%
X71004293Y-134930885D03*
%TO.P,D102,3,VDD*%
%TO.N,/5V*%
X73704293Y-134930885D03*
D10*
X73054294Y-134930886D03*
D11*
%TO.P,D102,4,DOUT*%
%TO.N,Net-(D103-DIN)*%
X73704293Y-133430885D03*
%TD*%
D10*
%TO.P,D78,1,VSS*%
%TO.N,/GND*%
X104504294Y-143530886D03*
D11*
X103804293Y-143530885D03*
%TO.P,D78,2,DIN*%
%TO.N,Net-(D77-DOUT)*%
X103804293Y-145030885D03*
%TO.P,D78,3,VDD*%
%TO.N,/5V*%
X106504293Y-145030885D03*
D10*
X105854294Y-145030886D03*
D11*
%TO.P,D78,4,DOUT*%
%TO.N,Net-(D78-DOUT)*%
X106504293Y-143530885D03*
%TD*%
D10*
%TO.P,D216,1,VSS*%
%TO.N,/GND*%
X53645401Y-42330886D03*
D11*
X52945400Y-42330885D03*
%TO.P,D216,2,DIN*%
%TO.N,Net-(D215-DOUT)*%
X52945400Y-43830885D03*
%TO.P,D216,3,VDD*%
%TO.N,/5V*%
X55645400Y-43830885D03*
D10*
X54995401Y-43830886D03*
D11*
%TO.P,D216,4,DOUT*%
%TO.N,Net-(D216-DOUT)*%
X55645400Y-42330885D03*
%TD*%
D10*
%TO.P,D30,1,VSS*%
%TO.N,/GND*%
X141604294Y-158030886D03*
D11*
X140904293Y-158030885D03*
%TO.P,D30,2,DIN*%
%TO.N,Net-(D29-DOUT)*%
X140904293Y-159530885D03*
%TO.P,D30,3,VDD*%
%TO.N,/5V*%
X143604293Y-159530885D03*
D10*
X142954294Y-159530886D03*
D11*
%TO.P,D30,4,DOUT*%
%TO.N,Net-(D30-DOUT)*%
X143604293Y-158030885D03*
%TD*%
D10*
%TO.P,D82,1,VSS*%
%TO.N,/GND*%
X105654294Y-161780886D03*
D11*
X104954293Y-161780885D03*
%TO.P,D82,2,DIN*%
%TO.N,Net-(D82-DIN)*%
X104954293Y-163280885D03*
%TO.P,D82,3,VDD*%
%TO.N,/5V*%
X107654293Y-163280885D03*
D10*
X107004294Y-163280886D03*
D11*
%TO.P,D82,4,DOUT*%
%TO.N,Net-(D82-DOUT)*%
X107654293Y-161780885D03*
%TD*%
D10*
%TO.P,D153,1,VSS*%
%TO.N,/GND*%
X157545401Y-70357279D03*
D11*
X156845400Y-70357278D03*
%TO.P,D153,2,DIN*%
%TO.N,Net-(D152-DOUT)*%
X156845400Y-71857278D03*
%TO.P,D153,3,VDD*%
%TO.N,/5V*%
X159545400Y-71857278D03*
D10*
X158895401Y-71857279D03*
D11*
%TO.P,D153,4,DOUT*%
%TO.N,Net-(D153-DOUT)*%
X159545400Y-70357278D03*
%TD*%
D12*
%TO.P,J1,*%
%TO.N,*%
X134284293Y-88200885D03*
X134284293Y-94550885D03*
X135554293Y-88200885D03*
X135554293Y-94550885D03*
X136824293Y-88200885D03*
X136824293Y-94550885D03*
X138094293Y-88200885D03*
X138094293Y-94550885D03*
D13*
%TO.P,J1,1,Pin_1*%
%TO.N,/5V*%
X135554293Y-89470885D03*
D14*
%TO.P,J1,2,Pin_2*%
%TO.N,/PORT_LED_1*%
X136824293Y-89470885D03*
%TO.P,J1,3,Pin_3*%
%TO.N,/GND*%
X135554293Y-90740885D03*
%TO.P,J1,4,Pin_4*%
%TO.N,/PORT_LED_2*%
X136824293Y-90740885D03*
%TO.P,J1,5,Pin_5*%
%TO.N,/SCL*%
X135554293Y-92010885D03*
%TO.P,J1,6,Pin_6*%
%TO.N,/PORT_GP0*%
X136824293Y-92010885D03*
%TO.P,J1,7,Pin_7*%
%TO.N,/SDA*%
X135554293Y-93280885D03*
%TO.P,J1,8,Pin_8*%
%TO.N,/NFC_MSG*%
X136824293Y-93280885D03*
%TD*%
D10*
%TO.P,D12,1,VSS*%
%TO.N,/GND*%
X134754294Y-120380886D03*
D11*
X134054293Y-120380885D03*
%TO.P,D12,2,DIN*%
%TO.N,Net-(D11-DOUT)*%
X134054293Y-121880885D03*
%TO.P,D12,3,VDD*%
%TO.N,/5V*%
X136754293Y-121880885D03*
D10*
X136104294Y-121880886D03*
D11*
%TO.P,D12,4,DOUT*%
%TO.N,Net-(D12-DOUT)*%
X136754293Y-120380885D03*
%TD*%
D10*
%TO.P,D47,1,VSS*%
%TO.N,/GND*%
X94204294Y-174480886D03*
D11*
X93504293Y-174480885D03*
%TO.P,D47,2,DIN*%
%TO.N,Net-(D46-DOUT)*%
X93504293Y-175980885D03*
%TO.P,D47,3,VDD*%
%TO.N,/5V*%
X96204293Y-175980885D03*
D10*
X95554294Y-175980886D03*
D11*
%TO.P,D47,4,DOUT*%
%TO.N,Net-(D47-DOUT)*%
X96204293Y-174480885D03*
%TD*%
D10*
%TO.P,D45,1,VSS*%
%TO.N,/GND*%
X99054294Y-170680886D03*
D11*
X98354293Y-170680885D03*
%TO.P,D45,2,DIN*%
%TO.N,Net-(D44-DOUT)*%
X98354293Y-172180885D03*
%TO.P,D45,3,VDD*%
%TO.N,/5V*%
X101054293Y-172180885D03*
D10*
X100404294Y-172180886D03*
D11*
%TO.P,D45,4,DOUT*%
%TO.N,Net-(D45-DOUT)*%
X101054293Y-170680885D03*
%TD*%
D10*
%TO.P,D233,1,VSS*%
%TO.N,/GND*%
X109104294Y-43630886D03*
D11*
X108404293Y-43630885D03*
%TO.P,D233,2,DIN*%
%TO.N,Net-(D232-DOUT)*%
X108404293Y-45130885D03*
%TO.P,D233,3,VDD*%
%TO.N,/5V*%
X111104293Y-45130885D03*
D10*
X110454294Y-45130886D03*
D11*
%TO.P,D233,4,DOUT*%
%TO.N,Net-(D233-DOUT)*%
X111104293Y-43630885D03*
%TD*%
D10*
%TO.P,D253,1,VSS*%
%TO.N,/GND*%
X59145401Y-52957279D03*
D11*
X58445400Y-52957278D03*
%TO.P,D253,2,DIN*%
%TO.N,Net-(D252-DOUT)*%
X58445400Y-54457278D03*
%TO.P,D253,3,VDD*%
%TO.N,/5V*%
X61145400Y-54457278D03*
D10*
X60495401Y-54457279D03*
D11*
%TO.P,D253,4,DOUT*%
%TO.N,Net-(D253-DOUT)*%
X61145400Y-52957278D03*
%TD*%
D10*
%TO.P,D107,1,VSS*%
%TO.N,/GND*%
X65504294Y-114630886D03*
D11*
X64804293Y-114630885D03*
%TO.P,D107,2,DIN*%
%TO.N,Net-(D106-DOUT)*%
X64804293Y-116130885D03*
%TO.P,D107,3,VDD*%
%TO.N,/5V*%
X67504293Y-116130885D03*
D10*
X66854294Y-116130886D03*
D11*
%TO.P,D107,4,DOUT*%
%TO.N,Net-(D107-DOUT)*%
X67504293Y-114630885D03*
%TD*%
D10*
%TO.P,D152,1,VSS*%
%TO.N,/GND*%
X154404294Y-65530886D03*
D11*
X153704293Y-65530885D03*
%TO.P,D152,2,DIN*%
%TO.N,Net-(D151-DOUT)*%
X153704293Y-67030885D03*
%TO.P,D152,3,VDD*%
%TO.N,/5V*%
X156404293Y-67030885D03*
D10*
X155754294Y-67030886D03*
D11*
%TO.P,D152,4,DOUT*%
%TO.N,Net-(D152-DOUT)*%
X156404293Y-65530885D03*
%TD*%
D10*
%TO.P,D196,1,VSS*%
%TO.N,/GND*%
X28554294Y-8080886D03*
D11*
X27854293Y-8080885D03*
%TO.P,D196,2,DIN*%
%TO.N,Net-(D195-DOUT)*%
X27854293Y-9580885D03*
%TO.P,D196,3,VDD*%
%TO.N,/5V*%
X30554293Y-9580885D03*
D10*
X29904294Y-9580886D03*
D11*
%TO.P,D196,4,DOUT*%
%TO.N,Net-(D196-DOUT)*%
X30554293Y-8080885D03*
%TD*%
D10*
%TO.P,D159,1,VSS*%
%TO.N,/GND*%
X138704294Y-30030886D03*
D11*
X138004293Y-30030885D03*
%TO.P,D159,2,DIN*%
%TO.N,Net-(D158-DOUT)*%
X138004293Y-31530885D03*
%TO.P,D159,3,VDD*%
%TO.N,/5V*%
X140704293Y-31530885D03*
D10*
X140054294Y-31530886D03*
D11*
%TO.P,D159,4,DOUT*%
%TO.N,Net-(D159-DOUT)*%
X140704293Y-30030885D03*
%TD*%
D10*
%TO.P,D85,1,VSS*%
%TO.N,/GND*%
X115304294Y-147730886D03*
D11*
X114604293Y-147730885D03*
%TO.P,D85,2,DIN*%
%TO.N,Net-(D84-DOUT)*%
X114604293Y-149230885D03*
%TO.P,D85,3,VDD*%
%TO.N,/5V*%
X117304293Y-149230885D03*
D10*
X116654294Y-149230886D03*
D11*
%TO.P,D85,4,DOUT*%
%TO.N,Net-(D85-DOUT)*%
X117304293Y-147730885D03*
%TD*%
D10*
%TO.P,D53,1,VSS*%
%TO.N,/GND*%
X77004294Y-178130886D03*
D11*
X76304293Y-178130885D03*
%TO.P,D53,2,DIN*%
%TO.N,Net-(D52-DOUT)*%
X76304293Y-179630885D03*
%TO.P,D53,3,VDD*%
%TO.N,/5V*%
X79004293Y-179630885D03*
D10*
X78354294Y-179630886D03*
D11*
%TO.P,D53,4,DOUT*%
%TO.N,Net-(D53-DOUT)*%
X79004293Y-178130885D03*
%TD*%
D10*
%TO.P,D20,1,VSS*%
%TO.N,/GND*%
X134204294Y-153030886D03*
D11*
X133504293Y-153030885D03*
%TO.P,D20,2,DIN*%
%TO.N,Net-(D19-DOUT)*%
X133504293Y-154530885D03*
%TO.P,D20,3,VDD*%
%TO.N,/5V*%
X136204293Y-154530885D03*
D10*
X135554294Y-154530886D03*
D11*
%TO.P,D20,4,DOUT*%
%TO.N,Net-(D20-DOUT)*%
X136204293Y-153030885D03*
%TD*%
D10*
%TO.P,D206,1,VSS*%
%TO.N,/GND*%
X33654294Y-23980886D03*
D11*
X32954293Y-23980885D03*
%TO.P,D206,2,DIN*%
%TO.N,Net-(D205-DOUT)*%
X32954293Y-25480885D03*
%TO.P,D206,3,VDD*%
%TO.N,/5V*%
X35654293Y-25480885D03*
D10*
X35004294Y-25480886D03*
D11*
%TO.P,D206,4,DOUT*%
%TO.N,Net-(D206-DOUT)*%
X35654293Y-23980885D03*
%TD*%
D10*
%TO.P,D251,1,VSS*%
%TO.N,/GND*%
X54504294Y-57380886D03*
D11*
X53804293Y-57380885D03*
%TO.P,D251,2,DIN*%
%TO.N,Net-(D250-DOUT)*%
X53804293Y-58880885D03*
%TO.P,D251,3,VDD*%
%TO.N,/5V*%
X56504293Y-58880885D03*
D10*
X55854294Y-58880886D03*
D11*
%TO.P,D251,4,DOUT*%
%TO.N,Net-(D251-DOUT)*%
X56504293Y-57380885D03*
%TD*%
D10*
%TO.P,D170,1,VSS*%
%TO.N,/GND*%
X114854294Y-5080886D03*
D11*
X114154293Y-5080885D03*
%TO.P,D170,2,DIN*%
%TO.N,Net-(D169-DOUT)*%
X114154293Y-6580885D03*
%TO.P,D170,3,VDD*%
%TO.N,/5V*%
X116854293Y-6580885D03*
D10*
X116204294Y-6580886D03*
D11*
%TO.P,D170,4,DOUT*%
%TO.N,Net-(D170-DOUT)*%
X116854293Y-5080885D03*
%TD*%
D10*
%TO.P,D165,1,VSS*%
%TO.N,/GND*%
X130404294Y-18780886D03*
D11*
X129704293Y-18780885D03*
%TO.P,D165,2,DIN*%
%TO.N,Net-(D164-DOUT)*%
X129704293Y-20280885D03*
%TO.P,D165,3,VDD*%
%TO.N,/5V*%
X132404293Y-20280885D03*
D10*
X131754294Y-20280886D03*
D11*
%TO.P,D165,4,DOUT*%
%TO.N,Net-(D165-DOUT)*%
X132404293Y-18780885D03*
%TD*%
D10*
%TO.P,D116,1,VSS*%
%TO.N,/GND*%
X77404294Y-80630886D03*
D11*
X76704293Y-80630885D03*
%TO.P,D116,2,DIN*%
%TO.N,Net-(D115-DOUT)*%
X76704293Y-82130885D03*
%TO.P,D116,3,VDD*%
%TO.N,/5V*%
X79404293Y-82130885D03*
D10*
X78754294Y-82130886D03*
D11*
%TO.P,D116,4,DOUT*%
%TO.N,Net-(D116-DOUT)*%
X79404293Y-80630885D03*
%TD*%
D10*
%TO.P,D119,1,VSS*%
%TO.N,/GND*%
X107504294Y-66730886D03*
D11*
X106804293Y-66730885D03*
%TO.P,D119,2,DIN*%
%TO.N,Net-(D119-DIN)*%
X106804293Y-68230885D03*
%TO.P,D119,3,VDD*%
%TO.N,/5V*%
X109504293Y-68230885D03*
D10*
X108854294Y-68230886D03*
D11*
%TO.P,D119,4,DOUT*%
%TO.N,Net-(D119-DOUT)*%
X109504293Y-66730885D03*
%TD*%
D10*
%TO.P,D62,1,VSS*%
%TO.N,/GND*%
X70804294Y-158430886D03*
D11*
X70104293Y-158430885D03*
%TO.P,D62,2,DIN*%
%TO.N,Net-(D61-DOUT)*%
X70104293Y-159930885D03*
%TO.P,D62,3,VDD*%
%TO.N,/5V*%
X72804293Y-159930885D03*
D10*
X72154294Y-159930886D03*
D11*
%TO.P,D62,4,DOUT*%
%TO.N,Net-(D62-DOUT)*%
X72804293Y-158430885D03*
%TD*%
D10*
%TO.P,D249,1,VSS*%
%TO.N,/GND*%
X59104294Y-64930886D03*
D11*
X58404293Y-64930885D03*
%TO.P,D249,2,DIN*%
%TO.N,Net-(D248-DOUT)*%
X58404293Y-66430885D03*
%TO.P,D249,3,VDD*%
%TO.N,/5V*%
X61104293Y-66430885D03*
D10*
X60454294Y-66430886D03*
D11*
%TO.P,D249,4,DOUT*%
%TO.N,Net-(D249-DOUT)*%
X61104293Y-64930885D03*
%TD*%
D10*
%TO.P,D86,1,VSS*%
%TO.N,/GND*%
X117104294Y-143930886D03*
D11*
X116404293Y-143930885D03*
%TO.P,D86,2,DIN*%
%TO.N,Net-(D85-DOUT)*%
X116404293Y-145430885D03*
%TO.P,D86,3,VDD*%
%TO.N,/5V*%
X119104293Y-145430885D03*
D10*
X118454294Y-145430886D03*
D11*
%TO.P,D86,4,DOUT*%
%TO.N,Net-(D87-DIN)*%
X119104293Y-143930885D03*
%TD*%
D10*
%TO.P,D44,1,VSS*%
%TO.N,/GND*%
X103645401Y-172757279D03*
D11*
X102945400Y-172757278D03*
%TO.P,D44,2,DIN*%
%TO.N,Net-(D43-DOUT)*%
X102945400Y-174257278D03*
%TO.P,D44,3,VDD*%
%TO.N,/5V*%
X105645400Y-174257278D03*
D10*
X104995401Y-174257279D03*
D11*
%TO.P,D44,4,DOUT*%
%TO.N,Net-(D44-DOUT)*%
X105645400Y-172757278D03*
%TD*%
D10*
%TO.P,D14,1,VSS*%
%TO.N,/GND*%
X127245401Y-129557279D03*
D11*
X126545400Y-129557278D03*
%TO.P,D14,2,DIN*%
%TO.N,Net-(D13-DOUT)*%
X126545400Y-131057278D03*
%TO.P,D14,3,VDD*%
%TO.N,/5V*%
X129245400Y-131057278D03*
D10*
X128595401Y-131057279D03*
D11*
%TO.P,D14,4,DOUT*%
%TO.N,Net-(D14-DOUT)*%
X129245400Y-129557278D03*
%TD*%
D10*
%TO.P,D76,1,VSS*%
%TO.N,/GND*%
X103404294Y-135730886D03*
D11*
X102704293Y-135730885D03*
%TO.P,D76,2,DIN*%
%TO.N,Net-(D75-DOUT)*%
X102704293Y-137230885D03*
%TO.P,D76,3,VDD*%
%TO.N,/5V*%
X105404293Y-137230885D03*
D10*
X104754294Y-137230886D03*
D11*
%TO.P,D76,4,DOUT*%
%TO.N,Net-(D76-DOUT)*%
X105404293Y-135730885D03*
%TD*%
D10*
%TO.P,D68,1,VSS*%
%TO.N,/GND*%
X77304294Y-140630886D03*
D11*
X76604293Y-140630885D03*
%TO.P,D68,2,DIN*%
%TO.N,Net-(D67-DOUT)*%
X76604293Y-142130885D03*
%TO.P,D68,3,VDD*%
%TO.N,/5V*%
X79304293Y-142130885D03*
D10*
X78654294Y-142130886D03*
D11*
%TO.P,D68,4,DOUT*%
%TO.N,Net-(D68-DOUT)*%
X79304293Y-140630885D03*
%TD*%
D10*
%TO.P,D66,1,VSS*%
%TO.N,/GND*%
X74254294Y-146180886D03*
D11*
X73554293Y-146180885D03*
%TO.P,D66,2,DIN*%
%TO.N,Net-(D66-DIN)*%
X73554293Y-147680885D03*
%TO.P,D66,3,VDD*%
%TO.N,/5V*%
X76254293Y-147680885D03*
D10*
X75604294Y-147680886D03*
D11*
%TO.P,D66,4,DOUT*%
%TO.N,Net-(D66-DOUT)*%
X76254293Y-146180885D03*
%TD*%
D10*
%TO.P,D163,1,VSS*%
%TO.N,/GND*%
X123504294Y-24630886D03*
D11*
X122804293Y-24630885D03*
%TO.P,D163,2,DIN*%
%TO.N,Net-(D162-DOUT)*%
X122804293Y-26130885D03*
%TO.P,D163,3,VDD*%
%TO.N,/5V*%
X125504293Y-26130885D03*
D10*
X124854294Y-26130886D03*
D11*
%TO.P,D163,4,DOUT*%
%TO.N,Net-(D163-DOUT)*%
X125504293Y-24630885D03*
%TD*%
D10*
%TO.P,D61,1,VSS*%
%TO.N,/GND*%
X66145401Y-160757279D03*
D11*
X65445400Y-160757278D03*
%TO.P,D61,2,DIN*%
%TO.N,Net-(D60-DOUT)*%
X65445400Y-162257278D03*
%TO.P,D61,3,VDD*%
%TO.N,/5V*%
X68145400Y-162257278D03*
D10*
X67495401Y-162257279D03*
D11*
%TO.P,D61,4,DOUT*%
%TO.N,Net-(D61-DOUT)*%
X68145400Y-160757278D03*
%TD*%
D10*
%TO.P,D195,1,VSS*%
%TO.N,/GND*%
X32354294Y-3880886D03*
D11*
X31654293Y-3880885D03*
%TO.P,D195,2,DIN*%
%TO.N,Net-(D194-DOUT)*%
X31654293Y-5380885D03*
%TO.P,D195,3,VDD*%
%TO.N,/5V*%
X34354293Y-5380885D03*
D10*
X33704294Y-5380886D03*
D11*
%TO.P,D195,4,DOUT*%
%TO.N,Net-(D195-DOUT)*%
X34354293Y-3880885D03*
%TD*%
D10*
%TO.P,D115,1,VSS*%
%TO.N,/GND*%
X75254294Y-84080886D03*
D11*
X74554293Y-84080885D03*
%TO.P,D115,2,DIN*%
%TO.N,Net-(D114-DOUT)*%
X74554293Y-85580885D03*
%TO.P,D115,3,VDD*%
%TO.N,/5V*%
X77254293Y-85580885D03*
D10*
X76604294Y-85580886D03*
D11*
%TO.P,D115,4,DOUT*%
%TO.N,Net-(D115-DOUT)*%
X77254293Y-84080885D03*
%TD*%
D10*
%TO.P,D96,1,VSS*%
%TO.N,/GND*%
X99404294Y-130130886D03*
D11*
X98704293Y-130130885D03*
%TO.P,D96,2,DIN*%
%TO.N,Net-(D95-DOUT)*%
X98704293Y-131630885D03*
%TO.P,D96,3,VDD*%
%TO.N,/5V*%
X101404293Y-131630885D03*
D10*
X100754294Y-131630886D03*
D11*
%TO.P,D96,4,DOUT*%
%TO.N,Net-(D96-DOUT)*%
X101404293Y-130130885D03*
%TD*%
D15*
%TO.P,C1,1*%
%TO.N,/5V*%
X60054294Y11394114D03*
%TO.P,C1,2*%
%TO.N,/GND*%
X60054294Y8444114D03*
%TD*%
D10*
%TO.P,D227,1,VSS*%
%TO.N,/GND*%
X102145401Y-37157279D03*
D11*
X101445400Y-37157278D03*
%TO.P,D227,2,DIN*%
%TO.N,Net-(D226-DOUT)*%
X101445400Y-38657278D03*
%TO.P,D227,3,VDD*%
%TO.N,/5V*%
X104145400Y-38657278D03*
D10*
X103495401Y-38657279D03*
D11*
%TO.P,D227,4,DOUT*%
%TO.N,Net-(D227-DOUT)*%
X104145400Y-37157278D03*
%TD*%
D10*
%TO.P,D9,1,VSS*%
%TO.N,/GND*%
X144604294Y-111330886D03*
D11*
X143904293Y-111330885D03*
%TO.P,D9,2,DIN*%
%TO.N,Net-(D8-DOUT)*%
X143904293Y-112830885D03*
%TO.P,D9,3,VDD*%
%TO.N,/5V*%
X146604293Y-112830885D03*
D10*
X145954294Y-112830886D03*
D11*
%TO.P,D9,4,DOUT*%
%TO.N,Net-(D9-DOUT)*%
X146604293Y-111330885D03*
%TD*%
D10*
%TO.P,D124,1,VSS*%
%TO.N,/GND*%
X125045401Y-69957279D03*
D11*
X124345400Y-69957278D03*
%TO.P,D124,2,DIN*%
%TO.N,Net-(D123-DOUT)*%
X124345400Y-71457278D03*
%TO.P,D124,3,VDD*%
%TO.N,/5V*%
X127045400Y-71457278D03*
D10*
X126395401Y-71457279D03*
D11*
%TO.P,D124,4,DOUT*%
%TO.N,Net-(D124-DOUT)*%
X127045400Y-69957278D03*
%TD*%
D10*
%TO.P,D70,1,VSS*%
%TO.N,/GND*%
X78254294Y-136580886D03*
D11*
X77554293Y-136580885D03*
%TO.P,D70,2,DIN*%
%TO.N,Net-(D69-DOUT)*%
X77554293Y-138080885D03*
%TO.P,D70,3,VDD*%
%TO.N,/5V*%
X80254293Y-138080885D03*
D10*
X79604294Y-138080886D03*
D11*
%TO.P,D70,4,DOUT*%
%TO.N,Net-(D71-DIN)*%
X80254293Y-136580885D03*
%TD*%
D10*
%TO.P,D198,1,VSS*%
%TO.N,/GND*%
X38354294Y-10180886D03*
D11*
X37654293Y-10180885D03*
%TO.P,D198,2,DIN*%
%TO.N,Net-(D197-DOUT)*%
X37654293Y-11680885D03*
%TO.P,D198,3,VDD*%
%TO.N,/5V*%
X40354293Y-11680885D03*
D10*
X39704294Y-11680886D03*
D11*
%TO.P,D198,4,DOUT*%
%TO.N,Net-(D199-DIN)*%
X40354293Y-10180885D03*
%TD*%
D10*
%TO.P,D226,1,VSS*%
%TO.N,/GND*%
X96645401Y-36857279D03*
D11*
X95945400Y-36857278D03*
%TO.P,D226,2,DIN*%
%TO.N,Net-(D225-DOUT)*%
X95945400Y-38357278D03*
%TO.P,D226,3,VDD*%
%TO.N,/5V*%
X98645400Y-38357278D03*
D10*
X97995401Y-38357279D03*
D11*
%TO.P,D226,4,DOUT*%
%TO.N,Net-(D226-DOUT)*%
X98645400Y-36857278D03*
%TD*%
D10*
%TO.P,D92,1,VSS*%
%TO.N,/GND*%
X107654294Y-109780886D03*
D11*
X106954293Y-109780885D03*
%TO.P,D92,2,DIN*%
%TO.N,Net-(D91-DOUT)*%
X106954293Y-111280885D03*
%TO.P,D92,3,VDD*%
%TO.N,/5V*%
X109654293Y-111280885D03*
D10*
X109004294Y-111280886D03*
D11*
%TO.P,D92,4,DOUT*%
%TO.N,Net-(D92-DOUT)*%
X109654293Y-109780885D03*
%TD*%
D10*
%TO.P,D125,1,VSS*%
%TO.N,/GND*%
X128604294Y-73930886D03*
D11*
X127904293Y-73930885D03*
%TO.P,D125,2,DIN*%
%TO.N,Net-(D124-DOUT)*%
X127904293Y-75430885D03*
%TO.P,D125,3,VDD*%
%TO.N,/5V*%
X130604293Y-75430885D03*
D10*
X129954294Y-75430886D03*
D11*
%TO.P,D125,4,DOUT*%
%TO.N,Net-(D125-DOUT)*%
X130604293Y-73930885D03*
%TD*%
D10*
%TO.P,D230,1,VSS*%
%TO.N,/GND*%
X113204294Y-26830886D03*
D11*
X112504293Y-26830885D03*
%TO.P,D230,2,DIN*%
%TO.N,Net-(D229-DOUT)*%
X112504293Y-28330885D03*
%TO.P,D230,3,VDD*%
%TO.N,/5V*%
X115204293Y-28330885D03*
D10*
X114554294Y-28330886D03*
D11*
%TO.P,D230,4,DOUT*%
%TO.N,Net-(D231-DIN)*%
X115204293Y-26830885D03*
%TD*%
D10*
%TO.P,D120,1,VSS*%
%TO.N,/GND*%
X111845401Y-69957279D03*
D11*
X111145400Y-69957278D03*
%TO.P,D120,2,DIN*%
%TO.N,Net-(D119-DOUT)*%
X111145400Y-71457278D03*
%TO.P,D120,3,VDD*%
%TO.N,/5V*%
X113845400Y-71457278D03*
D10*
X113195401Y-71457279D03*
D11*
%TO.P,D120,4,DOUT*%
%TO.N,Net-(D120-DOUT)*%
X113845400Y-69957278D03*
%TD*%
D10*
%TO.P,D100,1,VSS*%
%TO.N,/GND*%
X82245401Y-128357279D03*
D11*
X81545400Y-128357278D03*
%TO.P,D100,2,DIN*%
%TO.N,Net-(D99-DOUT)*%
X81545400Y-129857278D03*
%TO.P,D100,3,VDD*%
%TO.N,/5V*%
X84245400Y-129857278D03*
D10*
X83595401Y-129857279D03*
D11*
%TO.P,D100,4,DOUT*%
%TO.N,Net-(D100-DOUT)*%
X84245400Y-128357278D03*
%TD*%
D10*
%TO.P,D74,1,VSS*%
%TO.N,/GND*%
X97704294Y-136230886D03*
D11*
X97004293Y-136230885D03*
%TO.P,D74,2,DIN*%
%TO.N,Net-(D73-DOUT)*%
X97004293Y-137730885D03*
%TO.P,D74,3,VDD*%
%TO.N,/5V*%
X99704293Y-137730885D03*
D10*
X99054294Y-137730886D03*
D11*
%TO.P,D74,4,DOUT*%
%TO.N,Net-(D74-DOUT)*%
X99704293Y-136230885D03*
%TD*%
D10*
%TO.P,D3,1,VSS*%
%TO.N,/GND*%
X160045401Y-103757279D03*
D11*
X159345400Y-103757278D03*
%TO.P,D3,2,DIN*%
%TO.N,Net-(D2-DOUT)*%
X159345400Y-105257278D03*
%TO.P,D3,3,VDD*%
%TO.N,/5V*%
X162045400Y-105257278D03*
D10*
X161395401Y-105257279D03*
D11*
%TO.P,D3,4,DOUT*%
%TO.N,Net-(D3-DOUT)*%
X162045400Y-103757278D03*
%TD*%
D10*
%TO.P,D228,1,VSS*%
%TO.N,/GND*%
X107045401Y-32657279D03*
D11*
X106345400Y-32657278D03*
%TO.P,D228,2,DIN*%
%TO.N,Net-(D227-DOUT)*%
X106345400Y-34157278D03*
%TO.P,D228,3,VDD*%
%TO.N,/5V*%
X109045400Y-34157278D03*
D10*
X108395401Y-34157279D03*
D11*
%TO.P,D228,4,DOUT*%
%TO.N,Net-(D228-DOUT)*%
X109045400Y-32657278D03*
%TD*%
D16*
%TO.P,U4,1,NC*%
%TO.N,unconnected-(U4-NC)*%
X150930379Y-85248303D03*
%TO.P,U4,2,A*%
%TO.N,/PORT_LED_2*%
X150258628Y-84576552D03*
%TO.P,U4,3,GND*%
%TO.N,/GND*%
X149586877Y-83904801D03*
%TO.P,U4,4,Y*%
%TO.N,Net-(JP1-A)*%
X147978209Y-85513469D03*
%TO.P,U4,5,VCC*%
%TO.N,/5V*%
X149321711Y-86856971D03*
%TD*%
D10*
%TO.P,D72,1,VSS*%
%TO.N,/GND*%
X88304294Y-136930886D03*
D11*
X87604293Y-136930885D03*
%TO.P,D72,2,DIN*%
%TO.N,Net-(D71-DOUT)*%
X87604293Y-138430885D03*
%TO.P,D72,3,VDD*%
%TO.N,/5V*%
X90304293Y-138430885D03*
D10*
X89654294Y-138430886D03*
D11*
%TO.P,D72,4,DOUT*%
%TO.N,Net-(D72-DOUT)*%
X90304293Y-136930885D03*
%TD*%
D10*
%TO.P,D98,1,VSS*%
%TO.N,/GND*%
X91104294Y-118930886D03*
D11*
X90404293Y-118930885D03*
%TO.P,D98,2,DIN*%
%TO.N,Net-(D98-DIN)*%
X90404293Y-120430885D03*
%TO.P,D98,3,VDD*%
%TO.N,/5V*%
X93104293Y-120430885D03*
D10*
X92454294Y-120430886D03*
D11*
%TO.P,D98,4,DOUT*%
%TO.N,Net-(D98-DOUT)*%
X93104293Y-118930885D03*
%TD*%
D10*
%TO.P,D190,1,VSS*%
%TO.N,/GND*%
X25004294Y769114D03*
D11*
X24304293Y769113D03*
%TO.P,D190,2,DIN*%
%TO.N,Net-(D189-DOUT)*%
X24304293Y-730885D03*
%TO.P,D190,3,VDD*%
%TO.N,/5V*%
X27004293Y-730885D03*
D10*
X26354294Y-730886D03*
D11*
%TO.P,D190,4,DOUT*%
%TO.N,Net-(D190-DOUT)*%
X27004293Y769113D03*
%TD*%
D10*
%TO.P,D193,1,VSS*%
%TO.N,/GND*%
X22454294Y-5680886D03*
D11*
X21754293Y-5680885D03*
%TO.P,D193,2,DIN*%
%TO.N,Net-(D193-DIN)*%
X21754293Y-7180885D03*
%TO.P,D193,3,VDD*%
%TO.N,/5V*%
X24454293Y-7180885D03*
D10*
X23804294Y-7180886D03*
D11*
%TO.P,D193,4,DOUT*%
%TO.N,Net-(D193-DOUT)*%
X24454293Y-5680885D03*
%TD*%
D10*
%TO.P,D54,1,VSS*%
%TO.N,/GND*%
X71304294Y-182630886D03*
D11*
X70604293Y-182630885D03*
%TO.P,D54,2,DIN*%
%TO.N,Net-(D53-DOUT)*%
X70604293Y-184130885D03*
%TO.P,D54,3,VDD*%
%TO.N,/5V*%
X73304293Y-184130885D03*
D10*
X72654294Y-184130886D03*
D11*
%TO.P,D54,4,DOUT*%
%TO.N,Net-(D55-DIN)*%
X73304293Y-182630885D03*
%TD*%
D10*
%TO.P,D22,1,VSS*%
%TO.N,/GND*%
X145245401Y-151057279D03*
D11*
X144545400Y-151057278D03*
%TO.P,D22,2,DIN*%
%TO.N,Net-(D21-DOUT)*%
X144545400Y-152557278D03*
%TO.P,D22,3,VDD*%
%TO.N,/5V*%
X147245400Y-152557278D03*
D10*
X146595401Y-152557279D03*
D11*
%TO.P,D22,4,DOUT*%
%TO.N,Net-(D23-DIN)*%
X147245400Y-151057278D03*
%TD*%
D10*
%TO.P,D154,1,VSS*%
%TO.N,/GND*%
X158345401Y-75257279D03*
D11*
X157645400Y-75257278D03*
%TO.P,D154,2,DIN*%
%TO.N,Net-(D153-DOUT)*%
X157645400Y-76757278D03*
%TO.P,D154,3,VDD*%
%TO.N,/5V*%
X160345400Y-76757278D03*
D10*
X159695401Y-76757279D03*
D11*
%TO.P,D154,4,DOUT*%
%TO.N,Net-(D154-DOUT)*%
X160345400Y-75257278D03*
%TD*%
D10*
%TO.P,D239,1,VSS*%
%TO.N,/GND*%
X86304294Y-74030886D03*
D11*
X85604293Y-74030885D03*
%TO.P,D239,2,DIN*%
%TO.N,Net-(D238-DOUT)*%
X85604293Y-75530885D03*
%TO.P,D239,3,VDD*%
%TO.N,/5V*%
X88304293Y-75530885D03*
D10*
X87654294Y-75530886D03*
D11*
%TO.P,D239,4,DOUT*%
%TO.N,Net-(D239-DOUT)*%
X88304293Y-74030885D03*
%TD*%
D10*
%TO.P,D81,1,VSS*%
%TO.N,/GND*%
X107504294Y-156830886D03*
D11*
X106804293Y-156830885D03*
%TO.P,D81,2,DIN*%
%TO.N,Net-(D80-DOUT)*%
X106804293Y-158330885D03*
%TO.P,D81,3,VDD*%
%TO.N,/5V*%
X109504293Y-158330885D03*
D10*
X108854294Y-158330886D03*
D11*
%TO.P,D81,4,DOUT*%
%TO.N,Net-(D82-DIN)*%
X109504293Y-156830885D03*
%TD*%
D10*
%TO.P,D242,1,VSS*%
%TO.N,/GND*%
X80845401Y-69504493D03*
D11*
X80145400Y-69504492D03*
%TO.P,D242,2,DIN*%
%TO.N,Net-(D241-DOUT)*%
X80145400Y-71004492D03*
%TO.P,D242,3,VDD*%
%TO.N,/5V*%
X82845400Y-71004492D03*
D10*
X82195401Y-71004493D03*
D11*
%TO.P,D242,4,DOUT*%
%TO.N,Net-(D242-DOUT)*%
X82845400Y-69504492D03*
%TD*%
D10*
%TO.P,D48,1,VSS*%
%TO.N,/GND*%
X88104294Y-174730886D03*
D11*
X87404293Y-174730885D03*
%TO.P,D48,2,DIN*%
%TO.N,Net-(D47-DOUT)*%
X87404293Y-176230885D03*
%TO.P,D48,3,VDD*%
%TO.N,/5V*%
X90104293Y-176230885D03*
D10*
X89454294Y-176230886D03*
D11*
%TO.P,D48,4,DOUT*%
%TO.N,Net-(D48-DOUT)*%
X90104293Y-174730885D03*
%TD*%
D17*
%TO.P,U1,1,GND*%
%TO.N,/GND*%
X55404294Y12381614D03*
%TO.P,U1,2,VO*%
%TO.N,/3V3*%
X57304294Y12381614D03*
%TO.P,U1,3,VI*%
%TO.N,/5V*%
X56354294Y14256614D03*
%TD*%
D10*
%TO.P,D135,1,VSS*%
%TO.N,/GND*%
X136304294Y-85030886D03*
D11*
X135604293Y-85030885D03*
%TO.P,D135,2,DIN*%
%TO.N,Net-(D135-DIN)*%
X135604293Y-86530885D03*
%TO.P,D135,3,VDD*%
%TO.N,/5V*%
X138304293Y-86530885D03*
D10*
X137654294Y-86530886D03*
D11*
%TO.P,D135,4,DOUT*%
%TO.N,Net-(D135-DOUT)*%
X138304293Y-85030885D03*
%TD*%
D10*
%TO.P,D79,1,VSS*%
%TO.N,/GND*%
X105654294Y-147680886D03*
D11*
X104954293Y-147680885D03*
%TO.P,D79,2,DIN*%
%TO.N,Net-(D78-DOUT)*%
X104954293Y-149180885D03*
%TO.P,D79,3,VDD*%
%TO.N,/5V*%
X107654293Y-149180885D03*
D10*
X107004294Y-149180886D03*
D11*
%TO.P,D79,4,DOUT*%
%TO.N,Net-(D79-DOUT)*%
X107654293Y-147680885D03*
%TD*%
D10*
%TO.P,D10,1,VSS*%
%TO.N,/GND*%
X142404294Y-116130886D03*
D11*
X141704293Y-116130885D03*
%TO.P,D10,2,DIN*%
%TO.N,Net-(D9-DOUT)*%
X141704293Y-117630885D03*
%TO.P,D10,3,VDD*%
%TO.N,/5V*%
X144404293Y-117630885D03*
D10*
X143754294Y-117630886D03*
D11*
%TO.P,D10,4,DOUT*%
%TO.N,Net-(D10-DOUT)*%
X144404293Y-116130885D03*
%TD*%
D10*
%TO.P,D128,1,VSS*%
%TO.N,/GND*%
X140904294Y-78530886D03*
D11*
X140204293Y-78530885D03*
%TO.P,D128,2,DIN*%
%TO.N,Net-(D127-DOUT)*%
X140204293Y-80030885D03*
%TO.P,D128,3,VDD*%
%TO.N,/5V*%
X142904293Y-80030885D03*
D10*
X142254294Y-80030886D03*
D11*
%TO.P,D128,4,DOUT*%
%TO.N,/PORT_LED1_OUT*%
X142904293Y-78530885D03*
%TD*%
D10*
%TO.P,D237,1,VSS*%
%TO.N,/GND*%
X94345401Y-71457279D03*
D11*
X93645400Y-71457278D03*
%TO.P,D237,2,DIN*%
%TO.N,Net-(D236-DOUT)*%
X93645400Y-72957278D03*
%TO.P,D237,3,VDD*%
%TO.N,/5V*%
X96345400Y-72957278D03*
D10*
X95695401Y-72957279D03*
D11*
%TO.P,D237,4,DOUT*%
%TO.N,Net-(D237-DOUT)*%
X96345400Y-71457278D03*
%TD*%
D10*
%TO.P,D21,1,VSS*%
%TO.N,/GND*%
X139645401Y-152257279D03*
D11*
X138945400Y-152257278D03*
%TO.P,D21,2,DIN*%
%TO.N,Net-(D20-DOUT)*%
X138945400Y-153757278D03*
%TO.P,D21,3,VDD*%
%TO.N,/5V*%
X141645400Y-153757278D03*
D10*
X140995401Y-153757279D03*
D11*
%TO.P,D21,4,DOUT*%
%TO.N,Net-(D21-DOUT)*%
X141645400Y-152257278D03*
%TD*%
D10*
%TO.P,D164,1,VSS*%
%TO.N,/GND*%
X123204294Y-20430886D03*
D11*
X122504293Y-20430885D03*
%TO.P,D164,2,DIN*%
%TO.N,Net-(D163-DOUT)*%
X122504293Y-21930885D03*
%TO.P,D164,3,VDD*%
%TO.N,/5V*%
X125204293Y-21930885D03*
D10*
X124554294Y-21930886D03*
D11*
%TO.P,D164,4,DOUT*%
%TO.N,Net-(D164-DOUT)*%
X125204293Y-20430885D03*
%TD*%
D10*
%TO.P,D246,1,VSS*%
%TO.N,/GND*%
X66404294Y-64457279D03*
D11*
X65704293Y-64457278D03*
%TO.P,D246,2,DIN*%
%TO.N,Net-(D245-DOUT)*%
X65704293Y-65957278D03*
%TO.P,D246,3,VDD*%
%TO.N,/5V*%
X68404293Y-65957278D03*
D10*
X67754294Y-65957279D03*
D11*
%TO.P,D246,4,DOUT*%
%TO.N,Net-(D247-DIN)*%
X68404293Y-64457278D03*
%TD*%
D10*
%TO.P,D185,1,VSS*%
%TO.N,/GND*%
X65504294Y14469114D03*
D11*
X64804293Y14469113D03*
%TO.P,D185,2,DIN*%
%TO.N,Net-(D184-DOUT)*%
X64804293Y12969113D03*
%TO.P,D185,3,VDD*%
%TO.N,/5V*%
X67504293Y12969113D03*
D10*
X66854294Y12969114D03*
D11*
%TO.P,D185,4,DOUT*%
%TO.N,Net-(D185-DOUT)*%
X67504293Y14469113D03*
%TD*%
D10*
%TO.P,D197,1,VSS*%
%TO.N,/GND*%
X37154294Y-6180886D03*
D11*
X36454293Y-6180885D03*
%TO.P,D197,2,DIN*%
%TO.N,Net-(D196-DOUT)*%
X36454293Y-7680885D03*
%TO.P,D197,3,VDD*%
%TO.N,/5V*%
X39154293Y-7680885D03*
D10*
X38504294Y-7680886D03*
D11*
%TO.P,D197,4,DOUT*%
%TO.N,Net-(D197-DOUT)*%
X39154293Y-6180885D03*
%TD*%
D10*
%TO.P,D11,1,VSS*%
%TO.N,/GND*%
X140404294Y-121930886D03*
D11*
X139704293Y-121930885D03*
%TO.P,D11,2,DIN*%
%TO.N,Net-(D10-DOUT)*%
X139704293Y-123430885D03*
%TO.P,D11,3,VDD*%
%TO.N,/5V*%
X142404293Y-123430885D03*
D10*
X141754294Y-123430886D03*
D11*
%TO.P,D11,4,DOUT*%
%TO.N,Net-(D11-DOUT)*%
X142404293Y-121930885D03*
%TD*%
D10*
%TO.P,D28,1,VSS*%
%TO.N,/GND*%
X149645401Y-151457279D03*
D11*
X148945400Y-151457278D03*
%TO.P,D28,2,DIN*%
%TO.N,Net-(D27-DOUT)*%
X148945400Y-152957278D03*
%TO.P,D28,3,VDD*%
%TO.N,/5V*%
X151645400Y-152957278D03*
D10*
X150995401Y-152957279D03*
D11*
%TO.P,D28,4,DOUT*%
%TO.N,Net-(D28-DOUT)*%
X151645400Y-151457278D03*
%TD*%
D10*
%TO.P,D220,1,VSS*%
%TO.N,/GND*%
X68504294Y-37530886D03*
D11*
X67804293Y-37530885D03*
%TO.P,D220,2,DIN*%
%TO.N,Net-(D219-DOUT)*%
X67804293Y-39030885D03*
%TO.P,D220,3,VDD*%
%TO.N,/5V*%
X70504293Y-39030885D03*
D10*
X69854294Y-39030886D03*
D11*
%TO.P,D220,4,DOUT*%
%TO.N,Net-(D220-DOUT)*%
X70504293Y-37530885D03*
%TD*%
D10*
%TO.P,D8,1,VSS*%
%TO.N,/GND*%
X149345401Y-114757279D03*
D11*
X148645400Y-114757278D03*
%TO.P,D8,2,DIN*%
%TO.N,Net-(D8-DIN)*%
X148645400Y-116257278D03*
%TO.P,D8,3,VDD*%
%TO.N,/5V*%
X151345400Y-116257278D03*
D10*
X150695401Y-116257279D03*
D11*
%TO.P,D8,4,DOUT*%
%TO.N,Net-(D8-DOUT)*%
X151345400Y-114757278D03*
%TD*%
D10*
%TO.P,D2,1,VSS*%
%TO.N,/GND*%
X159304294Y-94530886D03*
D11*
X158604293Y-94530885D03*
%TO.P,D2,2,DIN*%
%TO.N,Net-(D2-DIN)*%
X158604293Y-96030885D03*
%TO.P,D2,3,VDD*%
%TO.N,/5V*%
X161304293Y-96030885D03*
D10*
X160654294Y-96030886D03*
D11*
%TO.P,D2,4,DOUT*%
%TO.N,Net-(D2-DOUT)*%
X161304293Y-94530885D03*
%TD*%
D10*
%TO.P,D129,1,VSS*%
%TO.N,/GND*%
X154125005Y-88290937D03*
D18*
X153630029Y-87795961D03*
%TO.P,D129,2,DIN*%
%TO.N,Net-(JP1-C)*%
X152569369Y-88856621D03*
%TO.P,D129,3,VDD*%
%TO.N,/5V*%
X154478557Y-90765809D03*
D10*
X154018939Y-90306191D03*
D18*
%TO.P,D129,4,DOUT*%
%TO.N,Net-(D129-DOUT)*%
X155539217Y-89705149D03*
%TD*%
D10*
%TO.P,D158,1,VSS*%
%TO.N,/GND*%
X136304294Y-34030886D03*
D11*
X135604293Y-34030885D03*
%TO.P,D158,2,DIN*%
%TO.N,Net-(D157-DOUT)*%
X135604293Y-35530885D03*
%TO.P,D158,3,VDD*%
%TO.N,/5V*%
X138304293Y-35530885D03*
D10*
X137654294Y-35530886D03*
D11*
%TO.P,D158,4,DOUT*%
%TO.N,Net-(D158-DOUT)*%
X138304293Y-34030885D03*
%TD*%
D10*
%TO.P,D59,1,VSS*%
%TO.N,/GND*%
X65004294Y-167330886D03*
D11*
X64304293Y-167330885D03*
%TO.P,D59,2,DIN*%
%TO.N,Net-(D58-DOUT)*%
X64304293Y-168830885D03*
%TO.P,D59,3,VDD*%
%TO.N,/5V*%
X67004293Y-168830885D03*
D10*
X66354294Y-168830886D03*
D11*
%TO.P,D59,4,DOUT*%
%TO.N,Net-(D59-DOUT)*%
X67004293Y-167330885D03*
%TD*%
D10*
%TO.P,D248,1,VSS*%
%TO.N,/GND*%
X63204294Y-60830886D03*
D11*
X62504293Y-60830885D03*
%TO.P,D248,2,DIN*%
%TO.N,Net-(D247-DOUT)*%
X62504293Y-62330885D03*
%TO.P,D248,3,VDD*%
%TO.N,/5V*%
X65204293Y-62330885D03*
D10*
X64554294Y-62330886D03*
D11*
%TO.P,D248,4,DOUT*%
%TO.N,Net-(D248-DOUT)*%
X65204293Y-60830885D03*
%TD*%
D10*
%TO.P,D252,1,VSS*%
%TO.N,/GND*%
X58804294Y-57630886D03*
D11*
X58104293Y-57630885D03*
%TO.P,D252,2,DIN*%
%TO.N,Net-(D251-DOUT)*%
X58104293Y-59130885D03*
%TO.P,D252,3,VDD*%
%TO.N,/5V*%
X60804293Y-59130885D03*
D10*
X60154294Y-59130886D03*
D11*
%TO.P,D252,4,DOUT*%
%TO.N,Net-(D252-DOUT)*%
X60804293Y-57630885D03*
%TD*%
D10*
%TO.P,D167,1,VSS*%
%TO.N,/GND*%
X118845401Y-16857279D03*
D11*
X118145400Y-16857278D03*
%TO.P,D167,2,DIN*%
%TO.N,Net-(D167-DIN)*%
X118145400Y-18357278D03*
%TO.P,D167,3,VDD*%
%TO.N,/5V*%
X120845400Y-18357278D03*
D10*
X120195401Y-18357279D03*
D11*
%TO.P,D167,4,DOUT*%
%TO.N,Net-(D167-DOUT)*%
X120845400Y-16857278D03*
%TD*%
D10*
%TO.P,D238,1,VSS*%
%TO.N,/GND*%
X91704294Y-66430886D03*
D11*
X91004293Y-66430885D03*
%TO.P,D238,2,DIN*%
%TO.N,Net-(D237-DOUT)*%
X91004293Y-67930885D03*
%TO.P,D238,3,VDD*%
%TO.N,/5V*%
X93704293Y-67930885D03*
D10*
X93054294Y-67930886D03*
D11*
%TO.P,D238,4,DOUT*%
%TO.N,Net-(D238-DOUT)*%
X93704293Y-66430885D03*
%TD*%
D10*
%TO.P,D4,1,VSS*%
%TO.N,/GND*%
X160645401Y-108557279D03*
D11*
X159945400Y-108557278D03*
%TO.P,D4,2,DIN*%
%TO.N,Net-(D3-DOUT)*%
X159945400Y-110057278D03*
%TO.P,D4,3,VDD*%
%TO.N,/5V*%
X162645400Y-110057278D03*
D10*
X161995401Y-110057279D03*
D11*
%TO.P,D4,4,DOUT*%
%TO.N,Net-(D4-DOUT)*%
X162645400Y-108557278D03*
%TD*%
D10*
%TO.P,D137,1,VSS*%
%TO.N,/GND*%
X133345401Y-64457279D03*
D11*
X132645400Y-64457278D03*
%TO.P,D137,2,DIN*%
%TO.N,Net-(D136-DOUT)*%
X132645400Y-65957278D03*
%TO.P,D137,3,VDD*%
%TO.N,/5V*%
X135345400Y-65957278D03*
D10*
X134695401Y-65957279D03*
D11*
%TO.P,D137,4,DOUT*%
%TO.N,Net-(D137-DOUT)*%
X135345400Y-64457278D03*
%TD*%
D10*
%TO.P,D139,1,VSS*%
%TO.N,/GND*%
X124204294Y-61030886D03*
D11*
X123504293Y-61030885D03*
%TO.P,D139,2,DIN*%
%TO.N,Net-(D138-DOUT)*%
X123504293Y-62530885D03*
%TO.P,D139,3,VDD*%
%TO.N,/5V*%
X126204293Y-62530885D03*
D10*
X125554294Y-62530886D03*
D11*
%TO.P,D139,4,DOUT*%
%TO.N,Net-(D139-DOUT)*%
X126204293Y-61030885D03*
%TD*%
D10*
%TO.P,D121,1,VSS*%
%TO.N,/GND*%
X115854294Y-66480886D03*
D11*
X115154293Y-66480885D03*
%TO.P,D121,2,DIN*%
%TO.N,Net-(D120-DOUT)*%
X115154293Y-67980885D03*
%TO.P,D121,3,VDD*%
%TO.N,/5V*%
X117854293Y-67980885D03*
D10*
X117204294Y-67980886D03*
D11*
%TO.P,D121,4,DOUT*%
%TO.N,Net-(D121-DOUT)*%
X117854293Y-66480885D03*
%TD*%
D10*
%TO.P,D31,1,VSS*%
%TO.N,/GND*%
X144804294Y-161930886D03*
D11*
X144104293Y-161930885D03*
%TO.P,D31,2,DIN*%
%TO.N,Net-(D30-DOUT)*%
X144104293Y-163430885D03*
%TO.P,D31,3,VDD*%
%TO.N,/5V*%
X146804293Y-163430885D03*
D10*
X146154294Y-163430886D03*
D11*
%TO.P,D31,4,DOUT*%
%TO.N,Net-(D31-DOUT)*%
X146804293Y-161930885D03*
%TD*%
D10*
%TO.P,D187,1,VSS*%
%TO.N,/GND*%
X60704294Y15369114D03*
D11*
X60004293Y15369113D03*
%TO.P,D187,2,DIN*%
%TO.N,Net-(D186-DOUT)*%
X60004293Y13869113D03*
%TO.P,D187,3,VDD*%
%TO.N,/5V*%
X62704293Y13869113D03*
D10*
X62054294Y13869114D03*
D11*
%TO.P,D187,4,DOUT*%
%TO.N,Net-(D187-DOUT)*%
X62704293Y15369113D03*
%TD*%
D10*
%TO.P,D182,1,VSS*%
%TO.N,/GND*%
X75104294Y8669114D03*
D11*
X74404293Y8669113D03*
%TO.P,D182,2,DIN*%
%TO.N,Net-(D181-DOUT)*%
X74404293Y7169113D03*
%TO.P,D182,3,VDD*%
%TO.N,/5V*%
X77104293Y7169113D03*
D10*
X76454294Y7169114D03*
D11*
%TO.P,D182,4,DOUT*%
%TO.N,Net-(D183-DIN)*%
X77104293Y8669113D03*
%TD*%
D10*
%TO.P,D250,1,VSS*%
%TO.N,/GND*%
X55954294Y-61580886D03*
D11*
X55254293Y-61580885D03*
%TO.P,D250,2,DIN*%
%TO.N,Net-(D249-DOUT)*%
X55254293Y-63080885D03*
%TO.P,D250,3,VDD*%
%TO.N,/5V*%
X57954293Y-63080885D03*
D10*
X57304294Y-63080886D03*
D11*
%TO.P,D250,4,DOUT*%
%TO.N,Net-(D250-DOUT)*%
X57954293Y-61580885D03*
%TD*%
D10*
%TO.P,D123,1,VSS*%
%TO.N,/GND*%
X122845401Y-66357279D03*
D11*
X122145400Y-66357278D03*
%TO.P,D123,2,DIN*%
%TO.N,Net-(D122-DOUT)*%
X122145400Y-67857278D03*
%TO.P,D123,3,VDD*%
%TO.N,/5V*%
X124845400Y-67857278D03*
D10*
X124195401Y-67857279D03*
D11*
%TO.P,D123,4,DOUT*%
%TO.N,Net-(D123-DOUT)*%
X124845400Y-66357278D03*
%TD*%
D10*
%TO.P,D243,1,VSS*%
%TO.N,/GND*%
X78254294Y-65680886D03*
D11*
X77554293Y-65680885D03*
%TO.P,D243,2,DIN*%
%TO.N,Net-(D242-DOUT)*%
X77554293Y-67180885D03*
%TO.P,D243,3,VDD*%
%TO.N,/5V*%
X80254293Y-67180885D03*
D10*
X79604294Y-67180886D03*
D11*
%TO.P,D243,4,DOUT*%
%TO.N,Net-(D243-DOUT)*%
X80254293Y-65680885D03*
%TD*%
D10*
%TO.P,D247,1,VSS*%
%TO.N,/GND*%
X69004294Y-68530886D03*
D11*
X68304293Y-68530885D03*
%TO.P,D247,2,DIN*%
%TO.N,Net-(D247-DIN)*%
X68304293Y-70030885D03*
%TO.P,D247,3,VDD*%
%TO.N,/5V*%
X71004293Y-70030885D03*
D10*
X70354294Y-70030886D03*
D11*
%TO.P,D247,4,DOUT*%
%TO.N,Net-(D247-DOUT)*%
X71004293Y-68530885D03*
%TD*%
D10*
%TO.P,D113,1,VSS*%
%TO.N,/GND*%
X69704294Y-91530886D03*
D11*
X69004293Y-91530885D03*
%TO.P,D113,2,DIN*%
%TO.N,Net-(D113-DIN)*%
X69004293Y-93030885D03*
%TO.P,D113,3,VDD*%
%TO.N,/5V*%
X71704293Y-93030885D03*
D10*
X71054294Y-93030886D03*
D11*
%TO.P,D113,4,DOUT*%
%TO.N,Net-(D113-DOUT)*%
X71704293Y-91530885D03*
%TD*%
D19*
%TO.P,C3,1*%
%TO.N,/3V3*%
X30154294Y8044114D03*
%TO.P,C3,2*%
%TO.N,/GND*%
X30154294Y9594114D03*
%TD*%
D10*
%TO.P,D245,1,VSS*%
%TO.N,/GND*%
X72054294Y-65280886D03*
D11*
X71354293Y-65280885D03*
%TO.P,D245,2,DIN*%
%TO.N,Net-(D244-DOUT)*%
X71354293Y-66780885D03*
%TO.P,D245,3,VDD*%
%TO.N,/5V*%
X74054293Y-66780885D03*
D10*
X73404294Y-66780886D03*
D11*
%TO.P,D245,4,DOUT*%
%TO.N,Net-(D245-DOUT)*%
X74054293Y-65280885D03*
%TD*%
D10*
%TO.P,D26,1,VSS*%
%TO.N,/GND*%
X156404294Y-133830886D03*
D11*
X155704293Y-133830885D03*
%TO.P,D26,2,DIN*%
%TO.N,Net-(D25-DOUT)*%
X155704293Y-135330885D03*
%TO.P,D26,3,VDD*%
%TO.N,/5V*%
X158404293Y-135330885D03*
D10*
X157754294Y-135330886D03*
D11*
%TO.P,D26,4,DOUT*%
%TO.N,Net-(D26-DOUT)*%
X158404293Y-133830885D03*
%TD*%
D10*
%TO.P,D39,1,VSS*%
%TO.N,/GND*%
X120554294Y-181280886D03*
D11*
X119854293Y-181280885D03*
%TO.P,D39,2,DIN*%
%TO.N,Net-(D39-DIN)*%
X119854293Y-182780885D03*
%TO.P,D39,3,VDD*%
%TO.N,/5V*%
X122554293Y-182780885D03*
D10*
X121904294Y-182780886D03*
D11*
%TO.P,D39,4,DOUT*%
%TO.N,Net-(D39-DOUT)*%
X122554293Y-181280885D03*
%TD*%
D10*
%TO.P,D105,1,VSS*%
%TO.N,/GND*%
X63445401Y-122557279D03*
D11*
X62745400Y-122557278D03*
%TO.P,D105,2,DIN*%
%TO.N,Net-(D104-DOUT)*%
X62745400Y-124057278D03*
%TO.P,D105,3,VDD*%
%TO.N,/5V*%
X65445400Y-124057278D03*
D10*
X64795401Y-124057279D03*
D11*
%TO.P,D105,4,DOUT*%
%TO.N,Net-(D105-DOUT)*%
X65445400Y-122557278D03*
%TD*%
D20*
%TO.P,C8,1*%
%TO.N,/5V*%
X124279294Y-181180886D03*
%TO.P,C8,2*%
%TO.N,/GND*%
X127229294Y-181180886D03*
%TD*%
D10*
%TO.P,D209,1,VSS*%
%TO.N,/GND*%
X46654294Y-30880886D03*
D11*
X45954293Y-30880885D03*
%TO.P,D209,2,DIN*%
%TO.N,Net-(D209-DIN)*%
X45954293Y-32380885D03*
%TO.P,D209,3,VDD*%
%TO.N,/5V*%
X48654293Y-32380885D03*
D10*
X48004294Y-32380886D03*
D11*
%TO.P,D209,4,DOUT*%
%TO.N,Net-(D209-DOUT)*%
X48654293Y-30880885D03*
%TD*%
D10*
%TO.P,D210,1,VSS*%
%TO.N,/GND*%
X43845401Y-34057279D03*
D11*
X43145400Y-34057278D03*
%TO.P,D210,2,DIN*%
%TO.N,Net-(D209-DOUT)*%
X43145400Y-35557278D03*
%TO.P,D210,3,VDD*%
%TO.N,/5V*%
X45845400Y-35557278D03*
D10*
X45195401Y-35557279D03*
D11*
%TO.P,D210,4,DOUT*%
%TO.N,Net-(D210-DOUT)*%
X45845400Y-34057278D03*
%TD*%
D21*
%TO.P,C6,1*%
%TO.N,/5V*%
X108097277Y-137937903D03*
%TO.P,C6,2*%
%TO.N,/GND*%
X106011311Y-140023869D03*
%TD*%
D10*
%TO.P,D192,1,VSS*%
%TO.N,/GND*%
X19954294Y-1580886D03*
D11*
X19254293Y-1580885D03*
%TO.P,D192,2,DIN*%
%TO.N,Net-(D191-DOUT)*%
X19254293Y-3080885D03*
%TO.P,D192,3,VDD*%
%TO.N,/5V*%
X21954293Y-3080885D03*
D10*
X21304294Y-3080886D03*
D11*
%TO.P,D192,4,DOUT*%
%TO.N,Net-(D193-DIN)*%
X21954293Y-1580885D03*
%TD*%
D10*
%TO.P,D57,1,VSS*%
%TO.N,/GND*%
X65545401Y-174457279D03*
D11*
X64845400Y-174457278D03*
%TO.P,D57,2,DIN*%
%TO.N,Net-(D56-DOUT)*%
X64845400Y-175957278D03*
%TO.P,D57,3,VDD*%
%TO.N,/5V*%
X67545400Y-175957278D03*
D10*
X66895401Y-175957279D03*
D11*
%TO.P,D57,4,DOUT*%
%TO.N,Net-(D57-DOUT)*%
X67545400Y-174457278D03*
%TD*%
D10*
%TO.P,D244,1,VSS*%
%TO.N,/GND*%
X74804294Y-69030886D03*
D11*
X74104293Y-69030885D03*
%TO.P,D244,2,DIN*%
%TO.N,Net-(D243-DOUT)*%
X74104293Y-70530885D03*
%TO.P,D244,3,VDD*%
%TO.N,/5V*%
X76804293Y-70530885D03*
D10*
X76154294Y-70530886D03*
D11*
%TO.P,D244,4,DOUT*%
%TO.N,Net-(D244-DOUT)*%
X76804293Y-69030885D03*
%TD*%
D10*
%TO.P,D171,1,VSS*%
%TO.N,/GND*%
X108854294Y-6580886D03*
D11*
X108154293Y-6580885D03*
%TO.P,D171,2,DIN*%
%TO.N,Net-(D170-DOUT)*%
X108154293Y-8080885D03*
%TO.P,D171,3,VDD*%
%TO.N,/5V*%
X110854293Y-8080885D03*
D10*
X110204294Y-8080886D03*
D11*
%TO.P,D171,4,DOUT*%
%TO.N,Net-(D171-DOUT)*%
X110854293Y-6580885D03*
%TD*%
D10*
%TO.P,D63,1,VSS*%
%TO.N,/GND*%
X68104294Y-154530886D03*
D11*
X67404293Y-154530885D03*
%TO.P,D63,2,DIN*%
%TO.N,Net-(D62-DOUT)*%
X67404293Y-156030885D03*
%TO.P,D63,3,VDD*%
%TO.N,/5V*%
X70104293Y-156030885D03*
D10*
X69454294Y-156030886D03*
D11*
%TO.P,D63,4,DOUT*%
%TO.N,Net-(D63-DOUT)*%
X70104293Y-154530885D03*
%TD*%
D10*
%TO.P,D136,1,VSS*%
%TO.N,/GND*%
X128304294Y-64830886D03*
D11*
X127604293Y-64830885D03*
%TO.P,D136,2,DIN*%
%TO.N,Net-(D135-DOUT)*%
X127604293Y-66330885D03*
%TO.P,D136,3,VDD*%
%TO.N,/5V*%
X130304293Y-66330885D03*
D10*
X129654294Y-66330886D03*
D11*
%TO.P,D136,4,DOUT*%
%TO.N,Net-(D136-DOUT)*%
X130304293Y-64830885D03*
%TD*%
D10*
%TO.P,D219,1,VSS*%
%TO.N,/GND*%
X63304294Y-38530886D03*
D11*
X62604293Y-38530885D03*
%TO.P,D219,2,DIN*%
%TO.N,Net-(D218-DOUT)*%
X62604293Y-40030885D03*
%TO.P,D219,3,VDD*%
%TO.N,/5V*%
X65304293Y-40030885D03*
D10*
X64654294Y-40030886D03*
D11*
%TO.P,D219,4,DOUT*%
%TO.N,Net-(D219-DOUT)*%
X65304293Y-38530885D03*
%TD*%
D10*
%TO.P,D93,1,VSS*%
%TO.N,/GND*%
X103045401Y-115057279D03*
D11*
X102345400Y-115057278D03*
%TO.P,D93,2,DIN*%
%TO.N,Net-(D92-DOUT)*%
X102345400Y-116557278D03*
%TO.P,D93,3,VDD*%
%TO.N,/5V*%
X105045400Y-116557278D03*
D10*
X104395401Y-116557279D03*
D11*
%TO.P,D93,4,DOUT*%
%TO.N,Net-(D93-DOUT)*%
X105045400Y-115057278D03*
%TD*%
D10*
%TO.P,D134,1,VSS*%
%TO.N,/GND*%
X116545401Y-102157279D03*
D11*
X115845400Y-102157278D03*
%TO.P,D134,2,DIN*%
%TO.N,Net-(D133-DOUT)*%
X115845400Y-103657278D03*
%TO.P,D134,3,VDD*%
%TO.N,/5V*%
X118545400Y-103657278D03*
D10*
X117895401Y-103657279D03*
D11*
%TO.P,D134,4,DOUT*%
%TO.N,Net-(D135-DIN)*%
X118545400Y-102157278D03*
%TD*%
D10*
%TO.P,D17,1,VSS*%
%TO.N,/GND*%
X122854294Y-144580886D03*
D11*
X122154293Y-144580885D03*
%TO.P,D17,2,DIN*%
%TO.N,Net-(D16-DOUT)*%
X122154293Y-146080885D03*
%TO.P,D17,3,VDD*%
%TO.N,/5V*%
X124854293Y-146080885D03*
D10*
X124204294Y-146080886D03*
D11*
%TO.P,D17,4,DOUT*%
%TO.N,Net-(D18-DIN)*%
X124854293Y-144580885D03*
%TD*%
D10*
%TO.P,D34,1,VSS*%
%TO.N,/GND*%
X135004294Y-169730886D03*
D11*
X134304293Y-169730885D03*
%TO.P,D34,2,DIN*%
%TO.N,Net-(D34-DIN)*%
X134304293Y-171230885D03*
%TO.P,D34,3,VDD*%
%TO.N,/5V*%
X137004293Y-171230885D03*
D10*
X136354294Y-171230886D03*
D11*
%TO.P,D34,4,DOUT*%
%TO.N,Net-(D34-DOUT)*%
X137004293Y-169730885D03*
%TD*%
D10*
%TO.P,D177,1,VSS*%
%TO.N,/GND*%
X89304294Y9369114D03*
D11*
X88604293Y9369113D03*
%TO.P,D177,2,DIN*%
%TO.N,Net-(D177-DIN)*%
X88604293Y7869113D03*
%TO.P,D177,3,VDD*%
%TO.N,/5V*%
X91304293Y7869113D03*
D10*
X90654294Y7869114D03*
D11*
%TO.P,D177,4,DOUT*%
%TO.N,Net-(D177-DOUT)*%
X91304293Y9369113D03*
%TD*%
D10*
%TO.P,D88,1,VSS*%
%TO.N,/GND*%
X133545401Y-107657279D03*
D11*
X132845400Y-107657278D03*
%TO.P,D88,2,DIN*%
%TO.N,Net-(D87-DOUT)*%
X132845400Y-109157278D03*
%TO.P,D88,3,VDD*%
%TO.N,/5V*%
X135545400Y-109157278D03*
D10*
X134895401Y-109157279D03*
D11*
%TO.P,D88,4,DOUT*%
%TO.N,Net-(D88-DOUT)*%
X135545400Y-107657278D03*
%TD*%
D10*
%TO.P,D84,1,VSS*%
%TO.N,/GND*%
X113354294Y-151880886D03*
D11*
X112654293Y-151880885D03*
%TO.P,D84,2,DIN*%
%TO.N,Net-(D83-DOUT)*%
X112654293Y-153380885D03*
%TO.P,D84,3,VDD*%
%TO.N,/5V*%
X115354293Y-153380885D03*
D10*
X114704294Y-153380886D03*
D11*
%TO.P,D84,4,DOUT*%
%TO.N,Net-(D84-DOUT)*%
X115354293Y-151880885D03*
%TD*%
D10*
%TO.P,D240,1,VSS*%
%TO.N,/GND*%
X86804294Y-69830886D03*
D11*
X86104293Y-69830885D03*
%TO.P,D240,2,DIN*%
%TO.N,Net-(D239-DOUT)*%
X86104293Y-71330885D03*
%TO.P,D240,3,VDD*%
%TO.N,/5V*%
X88804293Y-71330885D03*
D10*
X88154294Y-71330886D03*
D11*
%TO.P,D240,4,DOUT*%
%TO.N,Net-(D241-DIN)*%
X88804293Y-69830885D03*
%TD*%
D10*
%TO.P,D90,1,VSS*%
%TO.N,/GND*%
X120745401Y-106057279D03*
D11*
X120045400Y-106057278D03*
%TO.P,D90,2,DIN*%
%TO.N,Net-(D89-DOUT)*%
X120045400Y-107557278D03*
%TO.P,D90,3,VDD*%
%TO.N,/5V*%
X122745400Y-107557278D03*
D10*
X122095401Y-107557279D03*
D11*
%TO.P,D90,4,DOUT*%
%TO.N,Net-(D90-DOUT)*%
X122745400Y-106057278D03*
%TD*%
D10*
%TO.P,D126,1,VSS*%
%TO.N,/GND*%
X133954294Y-76080886D03*
D11*
X133254293Y-76080885D03*
%TO.P,D126,2,DIN*%
%TO.N,Net-(D125-DOUT)*%
X133254293Y-77580885D03*
%TO.P,D126,3,VDD*%
%TO.N,/5V*%
X135954293Y-77580885D03*
D10*
X135304294Y-77580886D03*
D11*
%TO.P,D126,4,DOUT*%
%TO.N,Net-(D126-DOUT)*%
X135954293Y-76080885D03*
%TD*%
D10*
%TO.P,D229,1,VSS*%
%TO.N,/GND*%
X107704294Y-29230886D03*
D11*
X107004293Y-29230885D03*
%TO.P,D229,2,DIN*%
%TO.N,Net-(D228-DOUT)*%
X107004293Y-30730885D03*
%TO.P,D229,3,VDD*%
%TO.N,/5V*%
X109704293Y-30730885D03*
D10*
X109054294Y-30730886D03*
D11*
%TO.P,D229,4,DOUT*%
%TO.N,Net-(D229-DOUT)*%
X109704293Y-29230885D03*
%TD*%
D22*
%TO.P,JP1,1,A*%
%TO.N,Net-(JP1-A)*%
X146873532Y-81261646D03*
%TO.P,JP1,2,C*%
%TO.N,Net-(JP1-C)*%
X145954293Y-82180885D03*
%TO.P,JP1,3,B*%
%TO.N,/PORT_LED1_OUT*%
X145035054Y-83100124D03*
%TD*%
D10*
%TO.P,D109,1,VSS*%
%TO.N,/GND*%
X70004294Y-107430886D03*
D11*
X69304293Y-107430885D03*
%TO.P,D109,2,DIN*%
%TO.N,Net-(D108-DOUT)*%
X69304293Y-108930885D03*
%TO.P,D109,3,VDD*%
%TO.N,/5V*%
X72004293Y-108930885D03*
D10*
X71354294Y-108930886D03*
D11*
%TO.P,D109,4,DOUT*%
%TO.N,Net-(D109-DOUT)*%
X72004293Y-107430885D03*
%TD*%
D10*
%TO.P,D87,1,VSS*%
%TO.N,/GND*%
X139345401Y-109557279D03*
D11*
X138645400Y-109557278D03*
%TO.P,D87,2,DIN*%
%TO.N,Net-(D87-DIN)*%
X138645400Y-111057278D03*
%TO.P,D87,3,VDD*%
%TO.N,/5V*%
X141345400Y-111057278D03*
D10*
X140695401Y-111057279D03*
D11*
%TO.P,D87,4,DOUT*%
%TO.N,Net-(D87-DOUT)*%
X141345400Y-109557278D03*
%TD*%
D10*
%TO.P,D189,1,VSS*%
%TO.N,/GND*%
X23254294Y10219114D03*
D11*
X22554293Y10219113D03*
%TO.P,D189,2,DIN*%
%TO.N,Net-(D188-DOUT)*%
X22554293Y8719113D03*
%TO.P,D189,3,VDD*%
%TO.N,/5V*%
X25254293Y8719113D03*
D10*
X24604294Y8719114D03*
D11*
%TO.P,D189,4,DOUT*%
%TO.N,Net-(D189-DOUT)*%
X25254293Y10219113D03*
%TD*%
D10*
%TO.P,D24,1,VSS*%
%TO.N,/GND*%
X152845401Y-142857279D03*
D11*
X152145400Y-142857278D03*
%TO.P,D24,2,DIN*%
%TO.N,Net-(D23-DOUT)*%
X152145400Y-144357278D03*
%TO.P,D24,3,VDD*%
%TO.N,/5V*%
X154845400Y-144357278D03*
D10*
X154195401Y-144357279D03*
D11*
%TO.P,D24,4,DOUT*%
%TO.N,Net-(D24-DOUT)*%
X154845400Y-142857278D03*
%TD*%
D10*
%TO.P,D256,1,VSS*%
%TO.N,/GND*%
X59804294Y-47530886D03*
D11*
X59104293Y-47530885D03*
%TO.P,D256,2,DIN*%
%TO.N,Net-(D255-DOUT)*%
X59104293Y-49030885D03*
%TO.P,D256,3,VDD*%
%TO.N,/5V*%
X61804293Y-49030885D03*
D10*
X61154294Y-49030886D03*
D11*
%TO.P,D256,4,DOUT*%
%TO.N,unconnected-(D256-DOUT)*%
X61804293Y-47530885D03*
%TD*%
D10*
%TO.P,D207,1,VSS*%
%TO.N,/GND*%
X37754294Y-26880886D03*
D11*
X37054293Y-26880885D03*
%TO.P,D207,2,DIN*%
%TO.N,Net-(D206-DOUT)*%
X37054293Y-28380885D03*
%TO.P,D207,3,VDD*%
%TO.N,/5V*%
X39754293Y-28380885D03*
D10*
X39104294Y-28380886D03*
D11*
%TO.P,D207,4,DOUT*%
%TO.N,Net-(D207-DOUT)*%
X39754293Y-26880885D03*
%TD*%
D10*
%TO.P,D95,1,VSS*%
%TO.N,/GND*%
X99754294Y-124180886D03*
D11*
X99054293Y-124180885D03*
%TO.P,D95,2,DIN*%
%TO.N,Net-(D94-DOUT)*%
X99054293Y-125680885D03*
%TO.P,D95,3,VDD*%
%TO.N,/5V*%
X101754293Y-125680885D03*
D10*
X101104294Y-125680886D03*
D11*
%TO.P,D95,4,DOUT*%
%TO.N,Net-(D95-DOUT)*%
X101754293Y-124180885D03*
%TD*%
D10*
%TO.P,D106,1,VSS*%
%TO.N,/GND*%
X66045401Y-118457279D03*
D11*
X65345400Y-118457278D03*
%TO.P,D106,2,DIN*%
%TO.N,Net-(D105-DOUT)*%
X65345400Y-119957278D03*
%TO.P,D106,3,VDD*%
%TO.N,/5V*%
X68045400Y-119957278D03*
D10*
X67395401Y-119957279D03*
D11*
%TO.P,D106,4,DOUT*%
%TO.N,Net-(D106-DOUT)*%
X68045400Y-118457278D03*
%TD*%
D10*
%TO.P,D208,1,VSS*%
%TO.N,/GND*%
X44445401Y-25704493D03*
D11*
X43745400Y-25704492D03*
%TO.P,D208,2,DIN*%
%TO.N,Net-(D207-DOUT)*%
X43745400Y-27204492D03*
%TO.P,D208,3,VDD*%
%TO.N,/5V*%
X46445400Y-27204492D03*
D10*
X45795401Y-27204493D03*
D11*
%TO.P,D208,4,DOUT*%
%TO.N,Net-(D209-DIN)*%
X46445400Y-25704492D03*
%TD*%
D10*
%TO.P,D205,1,VSS*%
%TO.N,/GND*%
X38154294Y-21880886D03*
D11*
X37454293Y-21880885D03*
%TO.P,D205,2,DIN*%
%TO.N,Net-(D204-DOUT)*%
X37454293Y-23380885D03*
%TO.P,D205,3,VDD*%
%TO.N,/5V*%
X40154293Y-23380885D03*
D10*
X39504294Y-23380886D03*
D11*
%TO.P,D205,4,DOUT*%
%TO.N,Net-(D205-DOUT)*%
X40154293Y-21880885D03*
%TD*%
D10*
%TO.P,D77,1,VSS*%
%TO.N,/GND*%
X109504294Y-134830886D03*
D11*
X108804293Y-134830885D03*
%TO.P,D77,2,DIN*%
%TO.N,Net-(D76-DOUT)*%
X108804293Y-136330885D03*
%TO.P,D77,3,VDD*%
%TO.N,/5V*%
X111504293Y-136330885D03*
D10*
X110854294Y-136330886D03*
D11*
%TO.P,D77,4,DOUT*%
%TO.N,Net-(D77-DOUT)*%
X111504293Y-134830885D03*
%TD*%
D10*
%TO.P,D215,1,VSS*%
%TO.N,/GND*%
X57504294Y-37630886D03*
D11*
X56804293Y-37630885D03*
%TO.P,D215,2,DIN*%
%TO.N,Net-(D215-DIN)*%
X56804293Y-39130885D03*
%TO.P,D215,3,VDD*%
%TO.N,/5V*%
X59504293Y-39130885D03*
D10*
X58854294Y-39130886D03*
D11*
%TO.P,D215,4,DOUT*%
%TO.N,Net-(D215-DOUT)*%
X59504293Y-37630885D03*
%TD*%
D10*
%TO.P,D19,1,VSS*%
%TO.N,/GND*%
X129204294Y-152530886D03*
D11*
X128504293Y-152530885D03*
%TO.P,D19,2,DIN*%
%TO.N,Net-(D18-DOUT)*%
X128504293Y-154030885D03*
%TO.P,D19,3,VDD*%
%TO.N,/5V*%
X131204293Y-154030885D03*
D10*
X130554294Y-154030886D03*
D11*
%TO.P,D19,4,DOUT*%
%TO.N,Net-(D19-DOUT)*%
X131204293Y-152530885D03*
%TD*%
D10*
%TO.P,D168,1,VSS*%
%TO.N,/GND*%
X120254294Y-9680886D03*
D11*
X119554293Y-9680885D03*
%TO.P,D168,2,DIN*%
%TO.N,Net-(D167-DOUT)*%
X119554293Y-11180885D03*
%TO.P,D168,3,VDD*%
%TO.N,/5V*%
X122254293Y-11180885D03*
D10*
X121604294Y-11180886D03*
D11*
%TO.P,D168,4,DOUT*%
%TO.N,Net-(D168-DOUT)*%
X122254293Y-9680885D03*
%TD*%
D10*
%TO.P,D49,1,VSS*%
%TO.N,/GND*%
X90954294Y-179380886D03*
D11*
X90254293Y-179380885D03*
%TO.P,D49,2,DIN*%
%TO.N,Net-(D48-DOUT)*%
X90254293Y-180880885D03*
%TO.P,D49,3,VDD*%
%TO.N,/5V*%
X92954293Y-180880885D03*
D10*
X92304294Y-180880886D03*
D11*
%TO.P,D49,4,DOUT*%
%TO.N,Net-(D50-DIN)*%
X92954293Y-179380885D03*
%TD*%
D10*
%TO.P,D52,1,VSS*%
%TO.N,/GND*%
X79054294Y-182580886D03*
D11*
X78354293Y-182580885D03*
%TO.P,D52,2,DIN*%
%TO.N,Net-(D51-DOUT)*%
X78354293Y-184080885D03*
%TO.P,D52,3,VDD*%
%TO.N,/5V*%
X81054293Y-184080885D03*
D10*
X80404294Y-184080886D03*
D11*
%TO.P,D52,4,DOUT*%
%TO.N,Net-(D52-DOUT)*%
X81054293Y-182580885D03*
%TD*%
D10*
%TO.P,D186,1,VSS*%
%TO.N,/GND*%
X63404294Y10669114D03*
D11*
X62704293Y10669113D03*
%TO.P,D186,2,DIN*%
%TO.N,Net-(D185-DOUT)*%
X62704293Y9169113D03*
%TO.P,D186,3,VDD*%
%TO.N,/5V*%
X65404293Y9169113D03*
D10*
X64754294Y9169114D03*
D11*
%TO.P,D186,4,DOUT*%
%TO.N,Net-(D186-DOUT)*%
X65404293Y10669113D03*
%TD*%
D10*
%TO.P,D103,1,VSS*%
%TO.N,/GND*%
X66354294Y-131180886D03*
D11*
X65654293Y-131180885D03*
%TO.P,D103,2,DIN*%
%TO.N,Net-(D103-DIN)*%
X65654293Y-132680885D03*
%TO.P,D103,3,VDD*%
%TO.N,/5V*%
X68354293Y-132680885D03*
D10*
X67704294Y-132680886D03*
D11*
%TO.P,D103,4,DOUT*%
%TO.N,Net-(D103-DOUT)*%
X68354293Y-131180885D03*
%TD*%
D10*
%TO.P,D89,1,VSS*%
%TO.N,/GND*%
X127404294Y-106630886D03*
D11*
X126704293Y-106630885D03*
%TO.P,D89,2,DIN*%
%TO.N,Net-(D88-DOUT)*%
X126704293Y-108130885D03*
%TO.P,D89,3,VDD*%
%TO.N,/5V*%
X129404293Y-108130885D03*
D10*
X128754294Y-108130886D03*
D11*
%TO.P,D89,4,DOUT*%
%TO.N,Net-(D89-DOUT)*%
X129404293Y-106630885D03*
%TD*%
D10*
%TO.P,D183,1,VSS*%
%TO.N,/GND*%
X69045401Y9442721D03*
D11*
X68345400Y9442720D03*
%TO.P,D183,2,DIN*%
%TO.N,Net-(D183-DIN)*%
X68345400Y7942720D03*
%TO.P,D183,3,VDD*%
%TO.N,/5V*%
X71045400Y7942720D03*
D10*
X70395401Y7942721D03*
D11*
%TO.P,D183,4,DOUT*%
%TO.N,Net-(D183-DOUT)*%
X71045400Y9442720D03*
%TD*%
D10*
%TO.P,D222,1,VSS*%
%TO.N,/GND*%
X78304294Y-35830886D03*
D11*
X77604293Y-35830885D03*
%TO.P,D222,2,DIN*%
%TO.N,Net-(D221-DOUT)*%
X77604293Y-37330885D03*
%TO.P,D222,3,VDD*%
%TO.N,/5V*%
X80304293Y-37330885D03*
D10*
X79654294Y-37330886D03*
D11*
%TO.P,D222,4,DOUT*%
%TO.N,Net-(D222-DOUT)*%
X80304293Y-35830885D03*
%TD*%
D10*
%TO.P,D156,1,VSS*%
%TO.N,/GND*%
X160404294Y-85180886D03*
D11*
X159704293Y-85180885D03*
%TO.P,D156,2,DIN*%
%TO.N,Net-(D155-DOUT)*%
X159704293Y-86680885D03*
%TO.P,D156,3,VDD*%
%TO.N,/5V*%
X162404293Y-86680885D03*
D10*
X161754294Y-86680886D03*
D11*
%TO.P,D156,4,DOUT*%
%TO.N,Net-(D156-DOUT)*%
X162404293Y-85180885D03*
%TD*%
D10*
%TO.P,D147,1,VSS*%
%TO.N,/GND*%
X147345401Y-44357279D03*
D11*
X146645400Y-44357278D03*
%TO.P,D147,2,DIN*%
%TO.N,Net-(D146-DOUT)*%
X146645400Y-45857278D03*
%TO.P,D147,3,VDD*%
%TO.N,/5V*%
X149345400Y-45857278D03*
D10*
X148695401Y-45857279D03*
D11*
%TO.P,D147,4,DOUT*%
%TO.N,Net-(D147-DOUT)*%
X149345400Y-44357278D03*
%TD*%
D23*
%TO.P,C4,1*%
%TO.N,/5V*%
X65829294Y-68580886D03*
%TO.P,C4,2*%
%TO.N,/GND*%
X62879294Y-68580886D03*
%TD*%
D10*
%TO.P,D71,1,VSS*%
%TO.N,/GND*%
X83204294Y-138280886D03*
D11*
X82504293Y-138280885D03*
%TO.P,D71,2,DIN*%
%TO.N,Net-(D71-DIN)*%
X82504293Y-139780885D03*
%TO.P,D71,3,VDD*%
%TO.N,/5V*%
X85204293Y-139780885D03*
D10*
X84554294Y-139780886D03*
D11*
%TO.P,D71,4,DOUT*%
%TO.N,Net-(D71-DOUT)*%
X85204293Y-138280885D03*
%TD*%
D23*
%TO.P,C5,1*%
%TO.N,/5V*%
X145129294Y-94480886D03*
%TO.P,C5,2*%
%TO.N,/GND*%
X142179294Y-94480886D03*
%TD*%
D10*
%TO.P,D56,1,VSS*%
%TO.N,/GND*%
X65804294Y-179880886D03*
D11*
X65104293Y-179880885D03*
%TO.P,D56,2,DIN*%
%TO.N,Net-(D55-DOUT)*%
X65104293Y-181380885D03*
%TO.P,D56,3,VDD*%
%TO.N,/5V*%
X67804293Y-181380885D03*
D10*
X67154294Y-181380886D03*
D11*
%TO.P,D56,4,DOUT*%
%TO.N,Net-(D56-DOUT)*%
X67804293Y-179880885D03*
%TD*%
D10*
%TO.P,D235,1,VSS*%
%TO.N,/GND*%
X114054294Y-54680886D03*
D11*
X113354293Y-54680885D03*
%TO.P,D235,2,DIN*%
%TO.N,Net-(D234-DOUT)*%
X113354293Y-56180885D03*
%TO.P,D235,3,VDD*%
%TO.N,/5V*%
X116054293Y-56180885D03*
D10*
X115404294Y-56180886D03*
D11*
%TO.P,D235,4,DOUT*%
%TO.N,Net-(D235-DOUT)*%
X116054293Y-54680885D03*
%TD*%
D10*
%TO.P,D27,1,VSS*%
%TO.N,/GND*%
X150345401Y-132157279D03*
D11*
X149645400Y-132157278D03*
%TO.P,D27,2,DIN*%
%TO.N,Net-(D26-DOUT)*%
X149645400Y-133657278D03*
%TO.P,D27,3,VDD*%
%TO.N,/5V*%
X152345400Y-133657278D03*
D10*
X151695401Y-133657279D03*
D11*
%TO.P,D27,4,DOUT*%
%TO.N,Net-(D27-DOUT)*%
X152345400Y-132157278D03*
%TD*%
D10*
%TO.P,D133,1,VSS*%
%TO.N,/GND*%
X122445401Y-98257279D03*
D11*
X121745400Y-98257278D03*
%TO.P,D133,2,DIN*%
%TO.N,Net-(D132-DOUT)*%
X121745400Y-99757278D03*
%TO.P,D133,3,VDD*%
%TO.N,/5V*%
X124445400Y-99757278D03*
D10*
X123795401Y-99757279D03*
D11*
%TO.P,D133,4,DOUT*%
%TO.N,Net-(D133-DOUT)*%
X124445400Y-98257278D03*
%TD*%
D10*
%TO.P,D144,1,VSS*%
%TO.N,/GND*%
X130445401Y-41557279D03*
D11*
X129745400Y-41557278D03*
%TO.P,D144,2,DIN*%
%TO.N,Net-(D143-DOUT)*%
X129745400Y-43057278D03*
%TO.P,D144,3,VDD*%
%TO.N,/5V*%
X132445400Y-43057278D03*
D10*
X131795401Y-43057279D03*
D11*
%TO.P,D144,4,DOUT*%
%TO.N,Net-(D145-DIN)*%
X132445400Y-41557278D03*
%TD*%
D10*
%TO.P,D73,1,VSS*%
%TO.N,/GND*%
X93004294Y-137330886D03*
D11*
X92304293Y-137330885D03*
%TO.P,D73,2,DIN*%
%TO.N,Net-(D72-DOUT)*%
X92304293Y-138830885D03*
%TO.P,D73,3,VDD*%
%TO.N,/5V*%
X95004293Y-138830885D03*
D10*
X94354294Y-138830886D03*
D11*
%TO.P,D73,4,DOUT*%
%TO.N,Net-(D73-DOUT)*%
X95004293Y-137330885D03*
%TD*%
D10*
%TO.P,D176,1,VSS*%
%TO.N,/GND*%
X93604294Y1969114D03*
D11*
X92904293Y1969113D03*
%TO.P,D176,2,DIN*%
%TO.N,Net-(D175-DOUT)*%
X92904293Y469113D03*
%TO.P,D176,3,VDD*%
%TO.N,/5V*%
X95604293Y469113D03*
D10*
X94954294Y469114D03*
D11*
%TO.P,D176,4,DOUT*%
%TO.N,Net-(D177-DIN)*%
X95604293Y1969113D03*
%TD*%
D10*
%TO.P,D254,1,VSS*%
%TO.N,/GND*%
X54854294Y-52880886D03*
D11*
X54154293Y-52880885D03*
%TO.P,D254,2,DIN*%
%TO.N,Net-(D253-DOUT)*%
X54154293Y-54380885D03*
%TO.P,D254,3,VDD*%
%TO.N,/5V*%
X56854293Y-54380885D03*
D10*
X56204294Y-54380886D03*
D11*
%TO.P,D254,4,DOUT*%
%TO.N,Net-(D254-DOUT)*%
X56854293Y-52880885D03*
%TD*%
D24*
%TO.P,U2,1,V_EH*%
%TO.N,/3V3*%
X32149294Y5994114D03*
%TO.P,U2,2,AC0*%
%TO.N,/ANTENNA*%
X33419294Y5994114D03*
%TO.P,U2,3,AC1*%
X34689294Y5994114D03*
%TO.P,U2,4,VSS*%
%TO.N,/GND*%
X35959294Y5994114D03*
%TO.P,U2,5,SDA*%
%TO.N,/SDA*%
X35959294Y11244114D03*
%TO.P,U2,6,SCL*%
%TO.N,/SCL*%
X34689294Y11244114D03*
%TO.P,U2,7,GP0*%
%TO.N,/NFC_MSG*%
X33419294Y11244114D03*
%TO.P,U2,8,VCC*%
%TO.N,/3V3*%
X32149294Y11244114D03*
%TD*%
D10*
%TO.P,D174,1,VSS*%
%TO.N,/GND*%
X100854294Y2719114D03*
D11*
X100154293Y2719113D03*
%TO.P,D174,2,DIN*%
%TO.N,Net-(D173-DOUT)*%
X100154293Y1219113D03*
%TO.P,D174,3,VDD*%
%TO.N,/5V*%
X102854293Y1219113D03*
D10*
X102204294Y1219114D03*
D11*
%TO.P,D174,4,DOUT*%
%TO.N,Net-(D174-DOUT)*%
X102854293Y2719113D03*
%TD*%
D10*
%TO.P,D97,1,VSS*%
%TO.N,/GND*%
X96504294Y-115630886D03*
D11*
X95804293Y-115630885D03*
%TO.P,D97,2,DIN*%
%TO.N,Net-(D96-DOUT)*%
X95804293Y-117130885D03*
%TO.P,D97,3,VDD*%
%TO.N,/5V*%
X98504293Y-117130885D03*
D10*
X97854294Y-117130886D03*
D11*
%TO.P,D97,4,DOUT*%
%TO.N,Net-(D98-DIN)*%
X98504293Y-115630885D03*
%TD*%
D10*
%TO.P,D6,1,VSS*%
%TO.N,/GND*%
X154745401Y-110557279D03*
D11*
X154045400Y-110557278D03*
%TO.P,D6,2,DIN*%
%TO.N,Net-(D5-DOUT)*%
X154045400Y-112057278D03*
%TO.P,D6,3,VDD*%
%TO.N,/5V*%
X156745400Y-112057278D03*
D10*
X156095401Y-112057279D03*
D11*
%TO.P,D6,4,DOUT*%
%TO.N,Net-(D6-DOUT)*%
X156745400Y-110557278D03*
%TD*%
D10*
%TO.P,D146,1,VSS*%
%TO.N,/GND*%
X141904294Y-41030886D03*
D11*
X141204293Y-41030885D03*
%TO.P,D146,2,DIN*%
%TO.N,Net-(D145-DOUT)*%
X141204293Y-42530885D03*
%TO.P,D146,3,VDD*%
%TO.N,/5V*%
X143904293Y-42530885D03*
D10*
X143254294Y-42530886D03*
D11*
%TO.P,D146,4,DOUT*%
%TO.N,Net-(D146-DOUT)*%
X143904293Y-41030885D03*
%TD*%
D10*
%TO.P,D67,1,VSS*%
%TO.N,/GND*%
X72804294Y-142530886D03*
D11*
X72104293Y-142530885D03*
%TO.P,D67,2,DIN*%
%TO.N,Net-(D66-DOUT)*%
X72104293Y-144030885D03*
%TO.P,D67,3,VDD*%
%TO.N,/5V*%
X74804293Y-144030885D03*
D10*
X74154294Y-144030886D03*
D11*
%TO.P,D67,4,DOUT*%
%TO.N,Net-(D67-DOUT)*%
X74804293Y-142530885D03*
%TD*%
D10*
%TO.P,D150,1,VSS*%
%TO.N,/GND*%
X151104294Y-57130886D03*
D11*
X150404293Y-57130885D03*
%TO.P,D150,2,DIN*%
%TO.N,Net-(D149-DOUT)*%
X150404293Y-58630885D03*
%TO.P,D150,3,VDD*%
%TO.N,/5V*%
X153104293Y-58630885D03*
D10*
X152454294Y-58630886D03*
D11*
%TO.P,D150,4,DOUT*%
%TO.N,Net-(D151-DIN)*%
X153104293Y-57130885D03*
%TD*%
D25*
%TO.P,J14,1,Pin_1*%
%TO.N,unconnected-(J14-Pin_1)*%
X147154293Y-129380885D03*
D26*
%TO.P,J14,2,Pin_2*%
%TO.N,unconnected-(J14-Pin_2)*%
X149694293Y-129380885D03*
%TO.P,J14,3,Pin_3*%
%TO.N,unconnected-(J14-Pin_3)*%
X152234293Y-129380885D03*
%TO.P,J14,4,Pin_4*%
%TO.N,unconnected-(J14-Pin_4)*%
X154774293Y-129380885D03*
%TO.P,J14,5,Pin_5*%
%TO.N,unconnected-(J14-Pin_5)*%
X157314293Y-129380885D03*
%TO.P,J14,6,Pin_6*%
%TO.N,unconnected-(J14-Pin_6)*%
X159854293Y-129380885D03*
%TO.P,J14,7,Pin_7*%
%TO.N,unconnected-(J14-Pin_7)*%
X159854293Y-119220885D03*
%TO.P,J14,8,Pin_8*%
%TO.N,unconnected-(J14-Pin_8)*%
X157314293Y-119220885D03*
%TO.P,J14,9,Pin_9*%
%TO.N,unconnected-(J14-Pin_9)*%
X154774293Y-119220885D03*
%TO.P,J14,10,Pin_10*%
%TO.N,unconnected-(J14-Pin_10)*%
X152234293Y-119220885D03*
%TO.P,J14,11,Pin_11*%
%TO.N,unconnected-(J14-Pin_11)*%
X149694293Y-119220885D03*
%TO.P,J14,12,Pin_12*%
%TO.N,unconnected-(J14-Pin_12)*%
X147154293Y-119220885D03*
%TD*%
D10*
%TO.P,D15,1,VSS*%
%TO.N,/GND*%
X122904294Y-135030886D03*
D11*
X122204293Y-135030885D03*
%TO.P,D15,2,DIN*%
%TO.N,Net-(D14-DOUT)*%
X122204293Y-136530885D03*
%TO.P,D15,3,VDD*%
%TO.N,/5V*%
X124904293Y-136530885D03*
D10*
X124254294Y-136530886D03*
D11*
%TO.P,D15,4,DOUT*%
%TO.N,Net-(D15-DOUT)*%
X124904293Y-135030885D03*
%TD*%
D10*
%TO.P,D202,1,VSS*%
%TO.N,/GND*%
X32554294Y-19880886D03*
D11*
X31854293Y-19880885D03*
%TO.P,D202,2,DIN*%
%TO.N,Net-(D201-DOUT)*%
X31854293Y-21380885D03*
%TO.P,D202,3,VDD*%
%TO.N,/5V*%
X34554293Y-21380885D03*
D10*
X33904294Y-21380886D03*
D11*
%TO.P,D202,4,DOUT*%
%TO.N,Net-(D202-DOUT)*%
X34554293Y-19880885D03*
%TD*%
D10*
%TO.P,D118,1,VSS*%
%TO.N,/GND*%
X101854294Y-69280886D03*
D11*
X101154293Y-69280885D03*
%TO.P,D118,2,DIN*%
%TO.N,Net-(D117-DOUT)*%
X101154293Y-70780885D03*
%TO.P,D118,3,VDD*%
%TO.N,/5V*%
X103854293Y-70780885D03*
D10*
X103204294Y-70780886D03*
D11*
%TO.P,D118,4,DOUT*%
%TO.N,Net-(D119-DIN)*%
X103854293Y-69280885D03*
%TD*%
D10*
%TO.P,D80,1,VSS*%
%TO.N,/GND*%
X107754294Y-152080886D03*
D11*
X107054293Y-152080885D03*
%TO.P,D80,2,DIN*%
%TO.N,Net-(D79-DOUT)*%
X107054293Y-153580885D03*
%TO.P,D80,3,VDD*%
%TO.N,/5V*%
X109754293Y-153580885D03*
D10*
X109104294Y-153580886D03*
D11*
%TO.P,D80,4,DOUT*%
%TO.N,Net-(D80-DOUT)*%
X109754293Y-152080885D03*
%TD*%
D10*
%TO.P,D221,1,VSS*%
%TO.N,/GND*%
X73304294Y-36330886D03*
D11*
X72604293Y-36330885D03*
%TO.P,D221,2,DIN*%
%TO.N,Net-(D220-DOUT)*%
X72604293Y-37830885D03*
%TO.P,D221,3,VDD*%
%TO.N,/5V*%
X75304293Y-37830885D03*
D10*
X74654294Y-37830886D03*
D11*
%TO.P,D221,4,DOUT*%
%TO.N,Net-(D221-DOUT)*%
X75304293Y-36330885D03*
%TD*%
D10*
%TO.P,D13,1,VSS*%
%TO.N,/GND*%
X131404294Y-125330886D03*
D11*
X130704293Y-125330885D03*
%TO.P,D13,2,DIN*%
%TO.N,Net-(D12-DOUT)*%
X130704293Y-126830885D03*
%TO.P,D13,3,VDD*%
%TO.N,/5V*%
X133404293Y-126830885D03*
D10*
X132754294Y-126830886D03*
D11*
%TO.P,D13,4,DOUT*%
%TO.N,Net-(D13-DOUT)*%
X133404293Y-125330885D03*
%TD*%
D10*
%TO.P,D155,1,VSS*%
%TO.N,/GND*%
X159745401Y-80057279D03*
D11*
X159045400Y-80057278D03*
%TO.P,D155,2,DIN*%
%TO.N,Net-(D154-DOUT)*%
X159045400Y-81557278D03*
%TO.P,D155,3,VDD*%
%TO.N,/5V*%
X161745400Y-81557278D03*
D10*
X161095401Y-81557279D03*
D11*
%TO.P,D155,4,DOUT*%
%TO.N,Net-(D155-DOUT)*%
X161745400Y-80057278D03*
%TD*%
D10*
%TO.P,D217,1,VSS*%
%TO.N,/GND*%
X58004294Y-44430886D03*
D11*
X57304293Y-44430885D03*
%TO.P,D217,2,DIN*%
%TO.N,Net-(D216-DOUT)*%
X57304293Y-45930885D03*
%TO.P,D217,3,VDD*%
%TO.N,/5V*%
X60004293Y-45930885D03*
D10*
X59354294Y-45930886D03*
D11*
%TO.P,D217,4,DOUT*%
%TO.N,Net-(D217-DOUT)*%
X60004293Y-44430885D03*
%TD*%
D10*
%TO.P,D141,1,VSS*%
%TO.N,/GND*%
X123504294Y-55530886D03*
D11*
X122804293Y-55530885D03*
%TO.P,D141,2,DIN*%
%TO.N,Net-(D140-DOUT)*%
X122804293Y-57030885D03*
%TO.P,D141,3,VDD*%
%TO.N,/5V*%
X125504293Y-57030885D03*
D10*
X124854294Y-57030886D03*
D11*
%TO.P,D141,4,DOUT*%
%TO.N,Net-(D141-DOUT)*%
X125504293Y-55530885D03*
%TD*%
D10*
%TO.P,D203,1,VSS*%
%TO.N,/GND*%
X39704294Y-18230886D03*
D11*
X39004293Y-18230885D03*
%TO.P,D203,2,DIN*%
%TO.N,Net-(D202-DOUT)*%
X39004293Y-19730885D03*
%TO.P,D203,3,VDD*%
%TO.N,/5V*%
X41704293Y-19730885D03*
D10*
X41054294Y-19730886D03*
D11*
%TO.P,D203,4,DOUT*%
%TO.N,Net-(D203-DOUT)*%
X41704293Y-18230885D03*
%TD*%
D10*
%TO.P,D65,1,VSS*%
%TO.N,/GND*%
X70154294Y-148680886D03*
D11*
X69454293Y-148680885D03*
%TO.P,D65,2,DIN*%
%TO.N,Net-(D64-DOUT)*%
X69454293Y-150180885D03*
%TO.P,D65,3,VDD*%
%TO.N,/5V*%
X72154293Y-150180885D03*
D10*
X71504294Y-150180886D03*
D11*
%TO.P,D65,4,DOUT*%
%TO.N,Net-(D66-DIN)*%
X72154293Y-148680885D03*
%TD*%
D10*
%TO.P,D36,1,VSS*%
%TO.N,/GND*%
X130445401Y-173157279D03*
D11*
X129745400Y-173157278D03*
%TO.P,D36,2,DIN*%
%TO.N,Net-(D35-DOUT)*%
X129745400Y-174657278D03*
%TO.P,D36,3,VDD*%
%TO.N,/5V*%
X132445400Y-174657278D03*
D10*
X131795401Y-174657279D03*
D11*
%TO.P,D36,4,DOUT*%
%TO.N,Net-(D36-DOUT)*%
X132445400Y-173157278D03*
%TD*%
D10*
%TO.P,D145,1,VSS*%
%TO.N,/GND*%
X135804294Y-39230886D03*
D11*
X135104293Y-39230885D03*
%TO.P,D145,2,DIN*%
%TO.N,Net-(D145-DIN)*%
X135104293Y-40730885D03*
%TO.P,D145,3,VDD*%
%TO.N,/5V*%
X137804293Y-40730885D03*
D10*
X137154294Y-40730886D03*
D11*
%TO.P,D145,4,DOUT*%
%TO.N,Net-(D145-DOUT)*%
X137804293Y-39230885D03*
%TD*%
D10*
%TO.P,D29,1,VSS*%
%TO.N,/GND*%
X147254294Y-156380886D03*
D11*
X146554293Y-156380885D03*
%TO.P,D29,2,DIN*%
%TO.N,Net-(D28-DOUT)*%
X146554293Y-157880885D03*
%TO.P,D29,3,VDD*%
%TO.N,/5V*%
X149254293Y-157880885D03*
D10*
X148604294Y-157880886D03*
D11*
%TO.P,D29,4,DOUT*%
%TO.N,Net-(D29-DOUT)*%
X149254293Y-156380885D03*
%TD*%
D10*
%TO.P,D101,1,VSS*%
%TO.N,/GND*%
X78304294Y-132530886D03*
D11*
X77604293Y-132530885D03*
%TO.P,D101,2,DIN*%
%TO.N,Net-(D100-DOUT)*%
X77604293Y-134030885D03*
%TO.P,D101,3,VDD*%
%TO.N,/5V*%
X80304293Y-134030885D03*
D10*
X79654294Y-134030886D03*
D11*
%TO.P,D101,4,DOUT*%
%TO.N,Net-(D101-DOUT)*%
X80304293Y-132530885D03*
%TD*%
D10*
%TO.P,D173,1,VSS*%
%TO.N,/GND*%
X101004294Y-2280886D03*
D11*
X100304293Y-2280885D03*
%TO.P,D173,2,DIN*%
%TO.N,Net-(D172-DOUT)*%
X100304293Y-3780885D03*
%TO.P,D173,3,VDD*%
%TO.N,/5V*%
X103004293Y-3780885D03*
D10*
X102354294Y-3780886D03*
D11*
%TO.P,D173,4,DOUT*%
%TO.N,Net-(D173-DOUT)*%
X103004293Y-2280885D03*
%TD*%
D10*
%TO.P,D223,1,VSS*%
%TO.N,/GND*%
X82804294Y-35230886D03*
D11*
X82104293Y-35230885D03*
%TO.P,D223,2,DIN*%
%TO.N,Net-(D222-DOUT)*%
X82104293Y-36730885D03*
%TO.P,D223,3,VDD*%
%TO.N,/5V*%
X84804293Y-36730885D03*
D10*
X84154294Y-36730886D03*
D11*
%TO.P,D223,4,DOUT*%
%TO.N,Net-(D223-DOUT)*%
X84804293Y-35230885D03*
%TD*%
D10*
%TO.P,D23,1,VSS*%
%TO.N,/GND*%
X149045401Y-146957279D03*
D11*
X148345400Y-146957278D03*
%TO.P,D23,2,DIN*%
%TO.N,Net-(D23-DIN)*%
X148345400Y-148457278D03*
%TO.P,D23,3,VDD*%
%TO.N,/5V*%
X151045400Y-148457278D03*
D10*
X150395401Y-148457279D03*
D11*
%TO.P,D23,4,DOUT*%
%TO.N,Net-(D23-DOUT)*%
X151045400Y-146957278D03*
%TD*%
D10*
%TO.P,D138,1,VSS*%
%TO.N,/GND*%
X138304294Y-62630886D03*
D11*
X137604293Y-62630885D03*
%TO.P,D138,2,DIN*%
%TO.N,Net-(D137-DOUT)*%
X137604293Y-64130885D03*
%TO.P,D138,3,VDD*%
%TO.N,/5V*%
X140304293Y-64130885D03*
D10*
X139654294Y-64130886D03*
D11*
%TO.P,D138,4,DOUT*%
%TO.N,Net-(D138-DOUT)*%
X140304293Y-62630885D03*
%TD*%
D10*
%TO.P,D46,1,VSS*%
%TO.N,/GND*%
X98604294Y-176630886D03*
D11*
X97904293Y-176630885D03*
%TO.P,D46,2,DIN*%
%TO.N,Net-(D45-DOUT)*%
X97904293Y-178130885D03*
%TO.P,D46,3,VDD*%
%TO.N,/5V*%
X100604293Y-178130885D03*
D10*
X99954294Y-178130886D03*
D11*
%TO.P,D46,4,DOUT*%
%TO.N,Net-(D46-DOUT)*%
X100604293Y-176630885D03*
%TD*%
D10*
%TO.P,D108,1,VSS*%
%TO.N,/GND*%
X69204294Y-111130886D03*
D11*
X68504293Y-111130885D03*
%TO.P,D108,2,DIN*%
%TO.N,Net-(D107-DOUT)*%
X68504293Y-112630885D03*
%TO.P,D108,3,VDD*%
%TO.N,/5V*%
X71204293Y-112630885D03*
D10*
X70554294Y-112630886D03*
D11*
%TO.P,D108,4,DOUT*%
%TO.N,Net-(D108-DOUT)*%
X71204293Y-111130885D03*
%TD*%
D10*
%TO.P,D172,1,VSS*%
%TO.N,/GND*%
X107504294Y69114D03*
D11*
X106804293Y69113D03*
%TO.P,D172,2,DIN*%
%TO.N,Net-(D171-DOUT)*%
X106804293Y-1430885D03*
%TO.P,D172,3,VDD*%
%TO.N,/5V*%
X109504293Y-1430885D03*
D10*
X108854294Y-1430886D03*
D11*
%TO.P,D172,4,DOUT*%
%TO.N,Net-(D172-DOUT)*%
X109504293Y69113D03*
%TD*%
D10*
%TO.P,D166,1,VSS*%
%TO.N,/GND*%
X124845401Y-14957279D03*
D11*
X124145400Y-14957278D03*
%TO.P,D166,2,DIN*%
%TO.N,Net-(D165-DOUT)*%
X124145400Y-16457278D03*
%TO.P,D166,3,VDD*%
%TO.N,/5V*%
X126845400Y-16457278D03*
D10*
X126195401Y-16457279D03*
D11*
%TO.P,D166,4,DOUT*%
%TO.N,Net-(D167-DIN)*%
X126845400Y-14957278D03*
%TD*%
D10*
%TO.P,D132,1,VSS*%
%TO.N,/GND*%
X127645401Y-95257279D03*
D11*
X126945400Y-95257278D03*
%TO.P,D132,2,DIN*%
%TO.N,Net-(D131-DOUT)*%
X126945400Y-96757278D03*
%TO.P,D132,3,VDD*%
%TO.N,/5V*%
X129645400Y-96757278D03*
D10*
X128995401Y-96757279D03*
D11*
%TO.P,D132,4,DOUT*%
%TO.N,Net-(D132-DOUT)*%
X129645400Y-95257278D03*
%TD*%
D10*
%TO.P,D55,1,VSS*%
%TO.N,/GND*%
X71304294Y-177030886D03*
D11*
X70604293Y-177030885D03*
%TO.P,D55,2,DIN*%
%TO.N,Net-(D55-DIN)*%
X70604293Y-178530885D03*
%TO.P,D55,3,VDD*%
%TO.N,/5V*%
X73304293Y-178530885D03*
D10*
X72654294Y-178530886D03*
D11*
%TO.P,D55,4,DOUT*%
%TO.N,Net-(D55-DOUT)*%
X73304293Y-177030885D03*
%TD*%
D10*
%TO.P,D211,1,VSS*%
%TO.N,/GND*%
X44845401Y-38857279D03*
D11*
X44145400Y-38857278D03*
%TO.P,D211,2,DIN*%
%TO.N,Net-(D210-DOUT)*%
X44145400Y-40357278D03*
%TO.P,D211,3,VDD*%
%TO.N,/5V*%
X46845400Y-40357278D03*
D10*
X46195401Y-40357279D03*
D11*
%TO.P,D211,4,DOUT*%
%TO.N,Net-(D211-DOUT)*%
X46845400Y-38857278D03*
%TD*%
D10*
%TO.P,D50,1,VSS*%
%TO.N,/GND*%
X83904294Y-181130886D03*
D11*
X83204293Y-181130885D03*
%TO.P,D50,2,DIN*%
%TO.N,Net-(D50-DIN)*%
X83204293Y-182630885D03*
%TO.P,D50,3,VDD*%
%TO.N,/5V*%
X85904293Y-182630885D03*
D10*
X85254294Y-182630886D03*
D11*
%TO.P,D50,4,DOUT*%
%TO.N,Net-(D50-DOUT)*%
X85904293Y-181130885D03*
%TD*%
D10*
%TO.P,D214,1,VSS*%
%TO.N,/GND*%
X49504294Y-41530886D03*
D11*
X48804293Y-41530885D03*
%TO.P,D214,2,DIN*%
%TO.N,Net-(D213-DOUT)*%
X48804293Y-43030885D03*
%TO.P,D214,3,VDD*%
%TO.N,/5V*%
X51504293Y-43030885D03*
D10*
X50854294Y-43030886D03*
D11*
%TO.P,D214,4,DOUT*%
%TO.N,Net-(D215-DIN)*%
X51504293Y-41530885D03*
%TD*%
D10*
%TO.P,D60,1,VSS*%
%TO.N,/GND*%
X69145401Y-164457279D03*
D11*
X68445400Y-164457278D03*
%TO.P,D60,2,DIN*%
%TO.N,Net-(D59-DOUT)*%
X68445400Y-165957278D03*
%TO.P,D60,3,VDD*%
%TO.N,/5V*%
X71145400Y-165957278D03*
D10*
X70495401Y-165957279D03*
D11*
%TO.P,D60,4,DOUT*%
%TO.N,Net-(D60-DOUT)*%
X71145400Y-164457278D03*
%TD*%
D10*
%TO.P,D231,1,VSS*%
%TO.N,/GND*%
X116845401Y-22957279D03*
D11*
X116145400Y-22957278D03*
%TO.P,D231,2,DIN*%
%TO.N,Net-(D231-DIN)*%
X116145400Y-24457278D03*
%TO.P,D231,3,VDD*%
%TO.N,/5V*%
X118845400Y-24457278D03*
D10*
X118195401Y-24457279D03*
D11*
%TO.P,D231,4,DOUT*%
%TO.N,Net-(D231-DOUT)*%
X118845400Y-22957278D03*
%TD*%
D10*
%TO.P,D179,1,VSS*%
%TO.N,/GND*%
X84145401Y12042721D03*
D11*
X83445400Y12042720D03*
%TO.P,D179,2,DIN*%
%TO.N,Net-(D178-DOUT)*%
X83445400Y10542720D03*
%TO.P,D179,3,VDD*%
%TO.N,/5V*%
X86145400Y10542720D03*
D10*
X85495401Y10542721D03*
D11*
%TO.P,D179,4,DOUT*%
%TO.N,Net-(D179-DOUT)*%
X86145400Y12042720D03*
%TD*%
D10*
%TO.P,D33,1,VSS*%
%TO.N,/GND*%
X141304294Y-167930886D03*
D11*
X140604293Y-167930885D03*
%TO.P,D33,2,DIN*%
%TO.N,Net-(D32-DOUT)*%
X140604293Y-169430885D03*
%TO.P,D33,3,VDD*%
%TO.N,/5V*%
X143304293Y-169430885D03*
D10*
X142654294Y-169430886D03*
D11*
%TO.P,D33,4,DOUT*%
%TO.N,Net-(D34-DIN)*%
X143304293Y-167930885D03*
%TD*%
D10*
%TO.P,D232,1,VSS*%
%TO.N,/GND*%
X107545401Y-38457279D03*
D11*
X106845400Y-38457278D03*
%TO.P,D232,2,DIN*%
%TO.N,Net-(D231-DOUT)*%
X106845400Y-39957278D03*
%TO.P,D232,3,VDD*%
%TO.N,/5V*%
X109545400Y-39957278D03*
D10*
X108895401Y-39957279D03*
D11*
%TO.P,D232,4,DOUT*%
%TO.N,Net-(D232-DOUT)*%
X109545400Y-38457278D03*
%TD*%
D10*
%TO.P,D169,1,VSS*%
%TO.N,/GND*%
X114845401Y-10857279D03*
D11*
X114145400Y-10857278D03*
%TO.P,D169,2,DIN*%
%TO.N,Net-(D168-DOUT)*%
X114145400Y-12357278D03*
%TO.P,D169,3,VDD*%
%TO.N,/5V*%
X116845400Y-12357278D03*
D10*
X116195401Y-12357279D03*
D11*
%TO.P,D169,4,DOUT*%
%TO.N,Net-(D169-DOUT)*%
X116845400Y-10857278D03*
%TD*%
D27*
%TO.P,U3,1,NC*%
%TO.N,unconnected-(U3-NC)*%
X161391794Y-92130886D03*
%TO.P,U3,2,A*%
%TO.N,/PORT_LED_1*%
X161391794Y-91180886D03*
%TO.P,U3,3,GND*%
%TO.N,/GND*%
X161391794Y-90230886D03*
%TO.P,U3,4,Y*%
%TO.N,Net-(D1-DIN)*%
X159116794Y-90230886D03*
%TO.P,U3,5,VCC*%
%TO.N,/5V*%
X159116794Y-92130886D03*
%TD*%
D10*
%TO.P,D212,1,VSS*%
%TO.N,/GND*%
X49304294Y-35130886D03*
D11*
X48604293Y-35130885D03*
%TO.P,D212,2,DIN*%
%TO.N,Net-(D211-DOUT)*%
X48604293Y-36630885D03*
%TO.P,D212,3,VDD*%
%TO.N,/5V*%
X51304293Y-36630885D03*
D10*
X50654294Y-36630886D03*
D11*
%TO.P,D212,4,DOUT*%
%TO.N,Net-(D212-DOUT)*%
X51304293Y-35130885D03*
%TD*%
D10*
%TO.P,D224,1,VSS*%
%TO.N,/GND*%
X87504294Y-35930886D03*
D11*
X86804293Y-35930885D03*
%TO.P,D224,2,DIN*%
%TO.N,Net-(D223-DOUT)*%
X86804293Y-37430885D03*
%TO.P,D224,3,VDD*%
%TO.N,/5V*%
X89504293Y-37430885D03*
D10*
X88854294Y-37430886D03*
D11*
%TO.P,D224,4,DOUT*%
%TO.N,Net-(D225-DIN)*%
X89504293Y-35930885D03*
%TD*%
D10*
%TO.P,D5,1,VSS*%
%TO.N,/GND*%
X160445401Y-113257279D03*
D11*
X159745400Y-113257278D03*
%TO.P,D5,2,DIN*%
%TO.N,Net-(D4-DOUT)*%
X159745400Y-114757278D03*
%TO.P,D5,3,VDD*%
%TO.N,/5V*%
X162445400Y-114757278D03*
D10*
X161795401Y-114757279D03*
D11*
%TO.P,D5,4,DOUT*%
%TO.N,Net-(D5-DOUT)*%
X162445400Y-113257278D03*
%TD*%
D10*
%TO.P,D201,1,VSS*%
%TO.N,/GND*%
X32854294Y-15780886D03*
D11*
X32154293Y-15780885D03*
%TO.P,D201,2,DIN*%
%TO.N,Net-(D200-DOUT)*%
X32154293Y-17280885D03*
%TO.P,D201,3,VDD*%
%TO.N,/5V*%
X34854293Y-17280885D03*
D10*
X34204294Y-17280886D03*
D11*
%TO.P,D201,4,DOUT*%
%TO.N,Net-(D201-DOUT)*%
X34854293Y-15780885D03*
%TD*%
D10*
%TO.P,D43,1,VSS*%
%TO.N,/GND*%
X103804294Y-177330886D03*
D11*
X103104293Y-177330885D03*
%TO.P,D43,2,DIN*%
%TO.N,Net-(D42-DOUT)*%
X103104293Y-178830885D03*
%TO.P,D43,3,VDD*%
%TO.N,/5V*%
X105804293Y-178830885D03*
D10*
X105154294Y-178830886D03*
D11*
%TO.P,D43,4,DOUT*%
%TO.N,Net-(D43-DOUT)*%
X105804293Y-177330885D03*
%TD*%
D10*
%TO.P,D160,1,VSS*%
%TO.N,/GND*%
X131545401Y-28257279D03*
D11*
X130845400Y-28257278D03*
%TO.P,D160,2,DIN*%
%TO.N,Net-(D159-DOUT)*%
X130845400Y-29757278D03*
%TO.P,D160,3,VDD*%
%TO.N,/5V*%
X133545400Y-29757278D03*
D10*
X132895401Y-29757279D03*
D11*
%TO.P,D160,4,DOUT*%
%TO.N,Net-(D161-DIN)*%
X133545400Y-28257278D03*
%TD*%
D10*
%TO.P,D175,1,VSS*%
%TO.N,/GND*%
X95604294Y6769114D03*
D11*
X94904293Y6769113D03*
%TO.P,D175,2,DIN*%
%TO.N,Net-(D174-DOUT)*%
X94904293Y5269113D03*
%TO.P,D175,3,VDD*%
%TO.N,/5V*%
X97604293Y5269113D03*
D10*
X96954294Y5269114D03*
D11*
%TO.P,D175,4,DOUT*%
%TO.N,Net-(D175-DOUT)*%
X97604293Y6769113D03*
%TD*%
D10*
%TO.P,D234,1,VSS*%
%TO.N,/GND*%
X110904294Y-48730886D03*
D11*
X110204293Y-48730885D03*
%TO.P,D234,2,DIN*%
%TO.N,Net-(D233-DOUT)*%
X110204293Y-50230885D03*
%TO.P,D234,3,VDD*%
%TO.N,/5V*%
X112904293Y-50230885D03*
D10*
X112254294Y-50230886D03*
D11*
%TO.P,D234,4,DOUT*%
%TO.N,Net-(D234-DOUT)*%
X112904293Y-48730885D03*
%TD*%
D10*
%TO.P,D114,1,VSS*%
%TO.N,/GND*%
X71404294Y-87830886D03*
D11*
X70704293Y-87830885D03*
%TO.P,D114,2,DIN*%
%TO.N,Net-(D113-DOUT)*%
X70704293Y-89330885D03*
%TO.P,D114,3,VDD*%
%TO.N,/5V*%
X73404293Y-89330885D03*
D10*
X72754294Y-89330886D03*
D11*
%TO.P,D114,4,DOUT*%
%TO.N,Net-(D114-DOUT)*%
X73404293Y-87830885D03*
%TD*%
D10*
%TO.P,D151,1,VSS*%
%TO.N,/GND*%
X155304294Y-60930886D03*
D11*
X154604293Y-60930885D03*
%TO.P,D151,2,DIN*%
%TO.N,Net-(D151-DIN)*%
X154604293Y-62430885D03*
%TO.P,D151,3,VDD*%
%TO.N,/5V*%
X157304293Y-62430885D03*
D10*
X156654294Y-62430886D03*
D11*
%TO.P,D151,4,DOUT*%
%TO.N,Net-(D151-DOUT)*%
X157304293Y-60930885D03*
%TD*%
D10*
%TO.P,D140,1,VSS*%
%TO.N,/GND*%
X118104294Y-60130886D03*
D11*
X117404293Y-60130885D03*
%TO.P,D140,2,DIN*%
%TO.N,Net-(D139-DOUT)*%
X117404293Y-61630885D03*
%TO.P,D140,3,VDD*%
%TO.N,/5V*%
X120104293Y-61630885D03*
D10*
X119454294Y-61630886D03*
D11*
%TO.P,D140,4,DOUT*%
%TO.N,Net-(D140-DOUT)*%
X120104293Y-60130885D03*
%TD*%
D10*
%TO.P,D180,1,VSS*%
%TO.N,/GND*%
X80804294Y6419114D03*
D11*
X80104293Y6419113D03*
%TO.P,D180,2,DIN*%
%TO.N,Net-(D179-DOUT)*%
X80104293Y4919113D03*
%TO.P,D180,3,VDD*%
%TO.N,/5V*%
X82804293Y4919113D03*
D10*
X82154294Y4919114D03*
D11*
%TO.P,D180,4,DOUT*%
%TO.N,Net-(D180-DOUT)*%
X82804293Y6419113D03*
%TD*%
D10*
%TO.P,D149,1,VSS*%
%TO.N,/GND*%
X151545401Y-52157279D03*
D11*
X150845400Y-52157278D03*
%TO.P,D149,2,DIN*%
%TO.N,Net-(D148-DOUT)*%
X150845400Y-53657278D03*
%TO.P,D149,3,VDD*%
%TO.N,/5V*%
X153545400Y-53657278D03*
D10*
X152895401Y-53657279D03*
D11*
%TO.P,D149,4,DOUT*%
%TO.N,Net-(D149-DOUT)*%
X153545400Y-52157278D03*
%TD*%
D10*
%TO.P,D16,1,VSS*%
%TO.N,/GND*%
X122404294Y-140130886D03*
D11*
X121704293Y-140130885D03*
%TO.P,D16,2,DIN*%
%TO.N,Net-(D15-DOUT)*%
X121704293Y-141630885D03*
%TO.P,D16,3,VDD*%
%TO.N,/5V*%
X124404293Y-141630885D03*
D10*
X123754294Y-141630886D03*
D11*
%TO.P,D16,4,DOUT*%
%TO.N,Net-(D16-DOUT)*%
X124404293Y-140130885D03*
%TD*%
D10*
%TO.P,D122,1,VSS*%
%TO.N,/GND*%
X119504294Y-70630886D03*
D11*
X118804293Y-70630885D03*
%TO.P,D122,2,DIN*%
%TO.N,Net-(D121-DOUT)*%
X118804293Y-72130885D03*
%TO.P,D122,3,VDD*%
%TO.N,/5V*%
X121504293Y-72130885D03*
D10*
X120854294Y-72130886D03*
D11*
%TO.P,D122,4,DOUT*%
%TO.N,Net-(D122-DOUT)*%
X121504293Y-70630885D03*
%TD*%
D10*
%TO.P,D255,1,VSS*%
%TO.N,/GND*%
X55554294Y-49280886D03*
D11*
X54854293Y-49280885D03*
%TO.P,D255,2,DIN*%
%TO.N,Net-(D254-DOUT)*%
X54854293Y-50780885D03*
%TO.P,D255,3,VDD*%
%TO.N,/5V*%
X57554293Y-50780885D03*
D10*
X56904294Y-50780886D03*
D11*
%TO.P,D255,4,DOUT*%
%TO.N,Net-(D255-DOUT)*%
X57554293Y-49280885D03*
%TD*%
D10*
%TO.P,D157,1,VSS*%
%TO.N,/GND*%
X142304294Y-35830886D03*
D11*
X141604293Y-35830885D03*
%TO.P,D157,2,DIN*%
%TO.N,Net-(D156-DOUT)*%
X141604293Y-37330885D03*
%TO.P,D157,3,VDD*%
%TO.N,/5V*%
X144304293Y-37330885D03*
D10*
X143654294Y-37330886D03*
D11*
%TO.P,D157,4,DOUT*%
%TO.N,Net-(D157-DOUT)*%
X144304293Y-35830885D03*
%TD*%
D10*
%TO.P,D91,1,VSS*%
%TO.N,/GND*%
X114504294Y-106730886D03*
D11*
X113804293Y-106730885D03*
%TO.P,D91,2,DIN*%
%TO.N,Net-(D90-DOUT)*%
X113804293Y-108230885D03*
%TO.P,D91,3,VDD*%
%TO.N,/5V*%
X116504293Y-108230885D03*
D10*
X115854294Y-108230886D03*
D11*
%TO.P,D91,4,DOUT*%
%TO.N,Net-(D91-DOUT)*%
X116504293Y-106730885D03*
%TD*%
D10*
%TO.P,D58,1,VSS*%
%TO.N,/GND*%
X68845401Y-171057279D03*
D11*
X68145400Y-171057278D03*
%TO.P,D58,2,DIN*%
%TO.N,Net-(D57-DOUT)*%
X68145400Y-172557278D03*
%TO.P,D58,3,VDD*%
%TO.N,/5V*%
X70845400Y-172557278D03*
D10*
X70195401Y-172557279D03*
D11*
%TO.P,D58,4,DOUT*%
%TO.N,Net-(D58-DOUT)*%
X70845400Y-171057278D03*
%TD*%
D10*
%TO.P,D104,1,VSS*%
%TO.N,/GND*%
X66645401Y-126657279D03*
D11*
X65945400Y-126657278D03*
%TO.P,D104,2,DIN*%
%TO.N,Net-(D103-DOUT)*%
X65945400Y-128157278D03*
%TO.P,D104,3,VDD*%
%TO.N,/5V*%
X68645400Y-128157278D03*
D10*
X67995401Y-128157279D03*
D11*
%TO.P,D104,4,DOUT*%
%TO.N,Net-(D104-DOUT)*%
X68645400Y-126657278D03*
%TD*%
D28*
%TO.P,X1,6,GPIO2*%
%TO.N,/NFC_MSG*%
X48154294Y10629114D03*
%TO.P,X1,5,GPIO1*%
%TO.N,/PORT_GP0*%
X48154294Y13169114D03*
D29*
%TO.P,X1,4,SCL*%
%TO.N,/SCL*%
X45614293Y10629113D03*
%TO.P,X1,3,SDA*%
%TO.N,/SDA*%
X45614293Y13169113D03*
D30*
%TO.P,X1,2,GND*%
%TO.N,/GND*%
X43074293Y10629113D03*
D29*
%TO.P,X1,1,VCC*%
%TO.N,/3V3*%
X43074293Y13169113D03*
%TD*%
D10*
%TO.P,D41,1,VSS*%
%TO.N,/GND*%
X113204294Y-181330886D03*
D11*
X112504293Y-181330885D03*
%TO.P,D41,2,DIN*%
%TO.N,Net-(D40-DOUT)*%
X112504293Y-182830885D03*
%TO.P,D41,3,VDD*%
%TO.N,/5V*%
X115204293Y-182830885D03*
D10*
X114554294Y-182830886D03*
D11*
%TO.P,D41,4,DOUT*%
%TO.N,Net-(D41-DOUT)*%
X115204293Y-181330885D03*
%TD*%
D10*
%TO.P,D51,1,VSS*%
%TO.N,/GND*%
X82004294Y-176430886D03*
D11*
X81304293Y-176430885D03*
%TO.P,D51,2,DIN*%
%TO.N,Net-(D50-DOUT)*%
X81304293Y-177930885D03*
%TO.P,D51,3,VDD*%
%TO.N,/5V*%
X84004293Y-177930885D03*
D10*
X83354294Y-177930886D03*
D11*
%TO.P,D51,4,DOUT*%
%TO.N,Net-(D51-DOUT)*%
X84004293Y-176430885D03*
%TD*%
D10*
%TO.P,D40,1,VSS*%
%TO.N,/GND*%
X115204294Y-177530886D03*
D11*
X114504293Y-177530885D03*
%TO.P,D40,2,DIN*%
%TO.N,Net-(D39-DOUT)*%
X114504293Y-179030885D03*
%TO.P,D40,3,VDD*%
%TO.N,/5V*%
X117204293Y-179030885D03*
D10*
X116554294Y-179030886D03*
D11*
%TO.P,D40,4,DOUT*%
%TO.N,Net-(D40-DOUT)*%
X117204293Y-177530885D03*
%TD*%
D10*
%TO.P,D117,1,VSS*%
%TO.N,/GND*%
X81604294Y-77730886D03*
D11*
X80904293Y-77730885D03*
%TO.P,D117,2,DIN*%
%TO.N,Net-(D116-DOUT)*%
X80904293Y-79230885D03*
%TO.P,D117,3,VDD*%
%TO.N,/5V*%
X83604293Y-79230885D03*
D10*
X82954294Y-79230886D03*
D11*
%TO.P,D117,4,DOUT*%
%TO.N,Net-(D117-DOUT)*%
X83604293Y-77730885D03*
%TD*%
D10*
%TO.P,D142,1,VSS*%
%TO.N,/GND*%
X124604294Y-50780886D03*
D11*
X123904293Y-50780885D03*
%TO.P,D142,2,DIN*%
%TO.N,Net-(D141-DOUT)*%
X123904293Y-52280885D03*
%TO.P,D142,3,VDD*%
%TO.N,/5V*%
X126604293Y-52280885D03*
D10*
X125954294Y-52280886D03*
D11*
%TO.P,D142,4,DOUT*%
%TO.N,Net-(D142-DOUT)*%
X126604293Y-50780885D03*
%TD*%
D10*
%TO.P,D218,1,VSS*%
%TO.N,/GND*%
X62404294Y-42230886D03*
D11*
X61704293Y-42230885D03*
%TO.P,D218,2,DIN*%
%TO.N,Net-(D217-DOUT)*%
X61704293Y-43730885D03*
%TO.P,D218,3,VDD*%
%TO.N,/5V*%
X64404293Y-43730885D03*
D10*
X63754294Y-43730886D03*
D11*
%TO.P,D218,4,DOUT*%
%TO.N,Net-(D218-DOUT)*%
X64404293Y-42230885D03*
%TD*%
D10*
%TO.P,D42,1,VSS*%
%TO.N,/GND*%
X109445401Y-176857279D03*
D11*
X108745400Y-176857278D03*
%TO.P,D42,2,DIN*%
%TO.N,Net-(D41-DOUT)*%
X108745400Y-178357278D03*
%TO.P,D42,3,VDD*%
%TO.N,/5V*%
X111445400Y-178357278D03*
D10*
X110795401Y-178357279D03*
D11*
%TO.P,D42,4,DOUT*%
%TO.N,Net-(D42-DOUT)*%
X111445400Y-176857278D03*
%TD*%
D10*
%TO.P,D161,1,VSS*%
%TO.N,/GND*%
X135145401Y-24357279D03*
D11*
X134445400Y-24357278D03*
%TO.P,D161,2,DIN*%
%TO.N,Net-(D161-DIN)*%
X134445400Y-25857278D03*
%TO.P,D161,3,VDD*%
%TO.N,/5V*%
X137145400Y-25857278D03*
D10*
X136495401Y-25857279D03*
D11*
%TO.P,D161,4,DOUT*%
%TO.N,Net-(D161-DOUT)*%
X137145400Y-24357278D03*
%TD*%
D31*
%TO.P,C2,1*%
%TO.N,/3V3*%
X37654294Y9199114D03*
%TO.P,C2,2*%
%TO.N,/GND*%
X37654294Y8239114D03*
%TD*%
D10*
%TO.P,D194,1,VSS*%
%TO.N,/GND*%
X27854294Y-3680886D03*
D11*
X27154293Y-3680885D03*
%TO.P,D194,2,DIN*%
%TO.N,Net-(D193-DOUT)*%
X27154293Y-5180885D03*
%TO.P,D194,3,VDD*%
%TO.N,/5V*%
X29854293Y-5180885D03*
D10*
X29204294Y-5180886D03*
D11*
%TO.P,D194,4,DOUT*%
%TO.N,Net-(D194-DOUT)*%
X29854293Y-3680885D03*
%TD*%
D10*
%TO.P,D188,1,VSS*%
%TO.N,/GND*%
X25804294Y5769114D03*
D11*
X25104293Y5769113D03*
%TO.P,D188,2,DIN*%
%TO.N,Net-(D187-DOUT)*%
X25104293Y4269113D03*
%TO.P,D188,3,VDD*%
%TO.N,/5V*%
X27804293Y4269113D03*
D10*
X27154294Y4269114D03*
D11*
%TO.P,D188,4,DOUT*%
%TO.N,Net-(D188-DOUT)*%
X27804293Y5769113D03*
%TD*%
D10*
%TO.P,D83,1,VSS*%
%TO.N,/GND*%
X103145401Y-167157279D03*
D11*
X102445400Y-167157278D03*
%TO.P,D83,2,DIN*%
%TO.N,Net-(D82-DOUT)*%
X102445400Y-168657278D03*
%TO.P,D83,3,VDD*%
%TO.N,/5V*%
X105145400Y-168657278D03*
D10*
X104495401Y-168657279D03*
D11*
%TO.P,D83,4,DOUT*%
%TO.N,Net-(D83-DOUT)*%
X105145400Y-167157278D03*
%TD*%
D10*
%TO.P,D184,1,VSS*%
%TO.N,/GND*%
X70304294Y14169114D03*
D11*
X69604293Y14169113D03*
%TO.P,D184,2,DIN*%
%TO.N,Net-(D183-DOUT)*%
X69604293Y12669113D03*
%TO.P,D184,3,VDD*%
%TO.N,/5V*%
X72304293Y12669113D03*
D10*
X71654294Y12669114D03*
D11*
%TO.P,D184,4,DOUT*%
%TO.N,Net-(D184-DOUT)*%
X72304293Y14169113D03*
%TD*%
D10*
%TO.P,D1,1,VSS*%
%TO.N,/GND*%
X160345401Y-99357279D03*
D11*
X159645400Y-99357278D03*
%TO.P,D1,2,DIN*%
%TO.N,Net-(D1-DIN)*%
X159645400Y-100857278D03*
%TO.P,D1,3,VDD*%
%TO.N,/5V*%
X162345400Y-100857278D03*
D10*
X161695401Y-100857279D03*
D11*
%TO.P,D1,4,DOUT*%
%TO.N,Net-(D2-DIN)*%
X162345400Y-99357278D03*
%TD*%
D32*
%TO.P,C7,1*%
%TO.N,/5V*%
X69562316Y-137134698D03*
%TO.P,C7,2*%
%TO.N,/GND*%
X67476350Y-135048732D03*
%TD*%
D10*
%TO.P,D130,1,VSS*%
%TO.N,/GND*%
X154645401Y-97457279D03*
D11*
X153945400Y-97457278D03*
%TO.P,D130,2,DIN*%
%TO.N,Net-(D129-DOUT)*%
X153945400Y-98957278D03*
%TO.P,D130,3,VDD*%
%TO.N,/5V*%
X156645400Y-98957278D03*
D10*
X155995401Y-98957279D03*
D11*
%TO.P,D130,4,DOUT*%
%TO.N,Net-(D130-DOUT)*%
X156645400Y-97457278D03*
%TD*%
D10*
%TO.P,D200,1,VSS*%
%TO.N,/GND*%
X33654294Y-11780886D03*
D11*
X32954293Y-11780885D03*
%TO.P,D200,2,DIN*%
%TO.N,Net-(D199-DOUT)*%
X32954293Y-13280885D03*
%TO.P,D200,3,VDD*%
%TO.N,/5V*%
X35654293Y-13280885D03*
D10*
X35004294Y-13280886D03*
D11*
%TO.P,D200,4,DOUT*%
%TO.N,Net-(D200-DOUT)*%
X35654293Y-11780885D03*
%TD*%
D10*
%TO.P,D35,1,VSS*%
%TO.N,/GND*%
X136845401Y-173757279D03*
D11*
X136145400Y-173757278D03*
%TO.P,D35,2,DIN*%
%TO.N,Net-(D34-DOUT)*%
X136145400Y-175257278D03*
%TO.P,D35,3,VDD*%
%TO.N,/5V*%
X138845400Y-175257278D03*
D10*
X138195401Y-175257279D03*
D11*
%TO.P,D35,4,DOUT*%
%TO.N,Net-(D35-DOUT)*%
X138845400Y-173757278D03*
%TD*%
D10*
%TO.P,D236,1,VSS*%
%TO.N,/GND*%
X97604294Y-66430886D03*
D11*
X96904293Y-66430885D03*
%TO.P,D236,2,DIN*%
%TO.N,Net-(D235-DOUT)*%
X96904293Y-67930885D03*
%TO.P,D236,3,VDD*%
%TO.N,/5V*%
X99604293Y-67930885D03*
D10*
X98954294Y-67930886D03*
D11*
%TO.P,D236,4,DOUT*%
%TO.N,Net-(D236-DOUT)*%
X99604293Y-66430885D03*
%TD*%
D10*
%TO.P,D7,1,VSS*%
%TO.N,/GND*%
X156204294Y-114730886D03*
D11*
X155504293Y-114730885D03*
%TO.P,D7,2,DIN*%
%TO.N,Net-(D6-DOUT)*%
X155504293Y-116230885D03*
%TO.P,D7,3,VDD*%
%TO.N,/5V*%
X158204293Y-116230885D03*
D10*
X157554294Y-116230886D03*
D11*
%TO.P,D7,4,DOUT*%
%TO.N,Net-(D8-DIN)*%
X158204293Y-114730885D03*
%TD*%
D10*
%TO.P,D143,1,VSS*%
%TO.N,/GND*%
X126445401Y-45857279D03*
D11*
X125745400Y-45857278D03*
%TO.P,D143,2,DIN*%
%TO.N,Net-(D142-DOUT)*%
X125745400Y-47357278D03*
%TO.P,D143,3,VDD*%
%TO.N,/5V*%
X128445400Y-47357278D03*
D10*
X127795401Y-47357279D03*
D11*
%TO.P,D143,4,DOUT*%
%TO.N,Net-(D143-DOUT)*%
X128445400Y-45857278D03*
%TD*%
D10*
%TO.P,D18,1,VSS*%
%TO.N,/GND*%
X124704294Y-149330886D03*
D11*
X124004293Y-149330885D03*
%TO.P,D18,2,DIN*%
%TO.N,Net-(D18-DIN)*%
X124004293Y-150830885D03*
%TO.P,D18,3,VDD*%
%TO.N,/5V*%
X126704293Y-150830885D03*
D10*
X126054294Y-150830886D03*
D11*
%TO.P,D18,4,DOUT*%
%TO.N,Net-(D18-DOUT)*%
X126704293Y-149330885D03*
%TD*%
D10*
%TO.P,D110,1,VSS*%
%TO.N,/GND*%
X68504294Y-103630886D03*
D11*
X67804293Y-103630885D03*
%TO.P,D110,2,DIN*%
%TO.N,Net-(D109-DOUT)*%
X67804293Y-105130885D03*
%TO.P,D110,3,VDD*%
%TO.N,/5V*%
X70504293Y-105130885D03*
D10*
X69854294Y-105130886D03*
D11*
%TO.P,D110,4,DOUT*%
%TO.N,Net-(D110-DOUT)*%
X70504293Y-103630885D03*
%TD*%
D10*
%TO.P,D178,1,VSS*%
%TO.N,/GND*%
X86804294Y4369114D03*
D11*
X86104293Y4369113D03*
%TO.P,D178,2,DIN*%
%TO.N,Net-(D177-DOUT)*%
X86104293Y2869113D03*
%TO.P,D178,3,VDD*%
%TO.N,/5V*%
X88804293Y2869113D03*
D10*
X88154294Y2869114D03*
D11*
%TO.P,D178,4,DOUT*%
%TO.N,Net-(D178-DOUT)*%
X88804293Y4369113D03*
%TD*%
D10*
%TO.P,D127,1,VSS*%
%TO.N,/GND*%
X136204294Y-80030886D03*
D11*
X135504293Y-80030885D03*
%TO.P,D127,2,DIN*%
%TO.N,Net-(D126-DOUT)*%
X135504293Y-81530885D03*
%TO.P,D127,3,VDD*%
%TO.N,/5V*%
X138204293Y-81530885D03*
D10*
X137554294Y-81530886D03*
D11*
%TO.P,D127,4,DOUT*%
%TO.N,Net-(D127-DOUT)*%
X138204293Y-80030885D03*
%TD*%
D10*
%TO.P,D112,1,VSS*%
%TO.N,/GND*%
X67904294Y-95180886D03*
D11*
X67204293Y-95180885D03*
%TO.P,D112,2,DIN*%
%TO.N,Net-(D111-DOUT)*%
X67204293Y-96680885D03*
%TO.P,D112,3,VDD*%
%TO.N,/5V*%
X69904293Y-96680885D03*
D10*
X69254294Y-96680886D03*
D11*
%TO.P,D112,4,DOUT*%
%TO.N,Net-(D113-DIN)*%
X69904293Y-95180885D03*
%TD*%
D33*
%TO.P,C10,1*%
%TO.N,/3V3*%
X57194333Y8308285D03*
%TO.P,C10,2*%
%TO.N,/GND*%
X55644333Y8308285D03*
%TD*%
D10*
%TO.P,D25,1,VSS*%
%TO.N,/GND*%
X154745401Y-138657279D03*
D11*
X154045400Y-138657278D03*
%TO.P,D25,2,DIN*%
%TO.N,Net-(D24-DOUT)*%
X154045400Y-140157278D03*
%TO.P,D25,3,VDD*%
%TO.N,/5V*%
X156745400Y-140157278D03*
D10*
X156095401Y-140157279D03*
D11*
%TO.P,D25,4,DOUT*%
%TO.N,Net-(D25-DOUT)*%
X156745400Y-138657278D03*
%TD*%
D10*
%TO.P,D99,1,VSS*%
%TO.N,/GND*%
X86545401Y-123557279D03*
D11*
X85845400Y-123557278D03*
%TO.P,D99,2,DIN*%
%TO.N,Net-(D98-DOUT)*%
X85845400Y-125057278D03*
%TO.P,D99,3,VDD*%
%TO.N,/5V*%
X88545400Y-125057278D03*
D10*
X87895401Y-125057279D03*
D11*
%TO.P,D99,4,DOUT*%
%TO.N,Net-(D99-DOUT)*%
X88545400Y-123557278D03*
%TD*%
D10*
%TO.P,D131,1,VSS*%
%TO.N,/GND*%
X149054294Y-95380886D03*
D11*
X148354293Y-95380885D03*
%TO.P,D131,2,DIN*%
%TO.N,Net-(D130-DOUT)*%
X148354293Y-96880885D03*
%TO.P,D131,3,VDD*%
%TO.N,/5V*%
X151054293Y-96880885D03*
D10*
X150404294Y-96880886D03*
D11*
%TO.P,D131,4,DOUT*%
%TO.N,Net-(D131-DOUT)*%
X151054293Y-95380885D03*
%TD*%
D10*
%TO.P,D111,1,VSS*%
%TO.N,/GND*%
X68204294Y-99530886D03*
D11*
X67504293Y-99530885D03*
%TO.P,D111,2,DIN*%
%TO.N,Net-(D110-DOUT)*%
X67504293Y-101030885D03*
%TO.P,D111,3,VDD*%
%TO.N,/5V*%
X70204293Y-101030885D03*
D10*
X69554294Y-101030886D03*
D11*
%TO.P,D111,4,DOUT*%
%TO.N,Net-(D111-DOUT)*%
X70204293Y-99530885D03*
%TD*%
D10*
%TO.P,D148,1,VSS*%
%TO.N,/GND*%
X146904294Y-49130886D03*
D11*
X146204293Y-49130885D03*
%TO.P,D148,2,DIN*%
%TO.N,Net-(D147-DOUT)*%
X146204293Y-50630885D03*
%TO.P,D148,3,VDD*%
%TO.N,/5V*%
X148904293Y-50630885D03*
D10*
X148254294Y-50630886D03*
D11*
%TO.P,D148,4,DOUT*%
%TO.N,Net-(D148-DOUT)*%
X148904293Y-49130885D03*
%TD*%
D10*
%TO.P,D75,1,VSS*%
%TO.N,/GND*%
X101745401Y-139857279D03*
D11*
X101045400Y-139857278D03*
%TO.P,D75,2,DIN*%
%TO.N,Net-(D74-DOUT)*%
X101045400Y-141357278D03*
%TO.P,D75,3,VDD*%
%TO.N,/5V*%
X103745400Y-141357278D03*
D10*
X103095401Y-141357279D03*
D11*
%TO.P,D75,4,DOUT*%
%TO.N,Net-(D75-DOUT)*%
X103745400Y-139857278D03*
%TD*%
D10*
%TO.P,D38,1,VSS*%
%TO.N,/GND*%
X123504294Y-177030886D03*
D11*
X122804293Y-177030885D03*
%TO.P,D38,2,DIN*%
%TO.N,Net-(D37-DOUT)*%
X122804293Y-178530885D03*
%TO.P,D38,3,VDD*%
%TO.N,/5V*%
X125504293Y-178530885D03*
D10*
X124854294Y-178530886D03*
D11*
%TO.P,D38,4,DOUT*%
%TO.N,Net-(D39-DIN)*%
X125504293Y-177030885D03*
%TD*%
D33*
%TO.P,C9,1*%
%TO.N,/3V3*%
X57194333Y10208285D03*
%TO.P,C9,2*%
%TO.N,/GND*%
X55644333Y10208285D03*
%TD*%
D10*
%TO.P,D191,1,VSS*%
%TO.N,/GND*%
X19345401Y2419114D03*
D11*
X18645400Y2419113D03*
%TO.P,D191,2,DIN*%
%TO.N,Net-(D190-DOUT)*%
X18645400Y919113D03*
%TO.P,D191,3,VDD*%
%TO.N,/5V*%
X21345400Y919113D03*
D10*
X20695401Y919114D03*
D11*
%TO.P,D191,4,DOUT*%
%TO.N,Net-(D191-DOUT)*%
X21345400Y2419113D03*
%TD*%
D10*
%TO.P,D64,1,VSS*%
%TO.N,/GND*%
X72645401Y-152557279D03*
D11*
X71945400Y-152557278D03*
%TO.P,D64,2,DIN*%
%TO.N,Net-(D63-DOUT)*%
X71945400Y-154057278D03*
%TO.P,D64,3,VDD*%
%TO.N,/5V*%
X74645400Y-154057278D03*
D10*
X73995401Y-154057279D03*
D11*
%TO.P,D64,4,DOUT*%
%TO.N,Net-(D64-DOUT)*%
X74645400Y-152557278D03*
%TD*%
D10*
%TO.P,D225,1,VSS*%
%TO.N,/GND*%
X92404294Y-36430886D03*
D11*
X91704293Y-36430885D03*
%TO.P,D225,2,DIN*%
%TO.N,Net-(D225-DIN)*%
X91704293Y-37930885D03*
%TO.P,D225,3,VDD*%
%TO.N,/5V*%
X94404293Y-37930885D03*
D10*
X93754294Y-37930886D03*
D11*
%TO.P,D225,4,DOUT*%
%TO.N,Net-(D225-DOUT)*%
X94404293Y-36430885D03*
%TD*%
D10*
%TO.P,D181,1,VSS*%
%TO.N,/GND*%
X76854294Y13019114D03*
D11*
X76154293Y13019113D03*
%TO.P,D181,2,DIN*%
%TO.N,Net-(D180-DOUT)*%
X76154293Y11519113D03*
%TO.P,D181,3,VDD*%
%TO.N,/5V*%
X78854293Y11519113D03*
D10*
X78204294Y11519114D03*
D11*
%TO.P,D181,4,DOUT*%
%TO.N,Net-(D181-DOUT)*%
X78854293Y13019113D03*
%TD*%
D10*
%TO.P,D204,1,VSS*%
%TO.N,/GND*%
X44745401Y-19804493D03*
D11*
X44045400Y-19804492D03*
%TO.P,D204,2,DIN*%
%TO.N,Net-(D203-DOUT)*%
X44045400Y-21304492D03*
%TO.P,D204,3,VDD*%
%TO.N,/5V*%
X46745400Y-21304492D03*
D10*
X46095401Y-21304493D03*
D11*
%TO.P,D204,4,DOUT*%
%TO.N,Net-(D204-DOUT)*%
X46745400Y-19804492D03*
%TD*%
D10*
%TO.P,D32,1,VSS*%
%TO.N,/GND*%
X138854294Y-164480886D03*
D11*
X138154293Y-164480885D03*
%TO.P,D32,2,DIN*%
%TO.N,Net-(D31-DOUT)*%
X138154293Y-165980885D03*
%TO.P,D32,3,VDD*%
%TO.N,/5V*%
X140854293Y-165980885D03*
D10*
X140204294Y-165980886D03*
D11*
%TO.P,D32,4,DOUT*%
%TO.N,Net-(D32-DOUT)*%
X140854293Y-164480885D03*
%TD*%
D10*
%TO.P,D69,1,VSS*%
%TO.N,/GND*%
X73154294Y-137980886D03*
D11*
X72454293Y-137980885D03*
%TO.P,D69,2,DIN*%
%TO.N,Net-(D68-DOUT)*%
X72454293Y-139480885D03*
%TO.P,D69,3,VDD*%
%TO.N,/5V*%
X75154293Y-139480885D03*
D10*
X74504294Y-139480886D03*
D11*
%TO.P,D69,4,DOUT*%
%TO.N,Net-(D69-DOUT)*%
X75154293Y-137980885D03*
%TD*%
D10*
%TO.P,D162,1,VSS*%
%TO.N,/GND*%
X129204294Y-23730886D03*
D11*
X128504293Y-23730885D03*
%TO.P,D162,2,DIN*%
%TO.N,Net-(D161-DOUT)*%
X128504293Y-25230885D03*
%TO.P,D162,3,VDD*%
%TO.N,/5V*%
X131204293Y-25230885D03*
D10*
X130554294Y-25230886D03*
D11*
%TO.P,D162,4,DOUT*%
%TO.N,Net-(D162-DOUT)*%
X131204293Y-23730885D03*
%TD*%
D34*
%TO.N,/5V*%
X29754294Y4219114D03*
X107154294Y-137080886D03*
X146054294Y-94580886D03*
X159854294Y-92780886D03*
X133854294Y-89680886D03*
X80454294Y11319114D03*
X125054294Y-180780886D03*
X65709672Y11774492D03*
X105996794Y-31580886D03*
X30554294Y-380886D03*
X66754794Y-68581659D03*
X54754294Y13619114D03*
X149654294Y-87480886D03*
X61354294Y11619114D03*
X70154294Y-137680886D03*
X108754294Y-41380886D03*
%TO.N,/GND*%
X55644333Y11209153D03*
X61548245Y8518614D03*
X141454294Y-94380886D03*
X30254294Y10519114D03*
X149154294Y-83280886D03*
X132841468Y-91006538D03*
X128054294Y-180880886D03*
X66554294Y-135780886D03*
X105354294Y-140880886D03*
X37854294Y7619114D03*
X63354294Y-67480886D03*
X36754294Y6419114D03*
X162454294Y-90180886D03*
%TO.N,/3V3*%
X38754294Y9319114D03*
%TO.N,Net-(JP1-C)*%
X151854294Y-87980886D03*
X146854294Y-82980886D03*
%TO.N,Net-(D156-DOUT)*%
X144154294Y-47080886D03*
X159754294Y-68580886D03*
%TO.N,Net-(D184-DOUT)*%
X70754294Y11419114D03*
X64254294Y12819114D03*
%TO.N,/PORT_LED_1*%
X142254294Y-81280886D03*
X160354294Y-91180886D03*
%TO.N,/SCL*%
X134254294Y-91780886D03*
%TO.N,/PORT_GP0*%
X137507924Y-91435368D03*
%TO.N,/SDA*%
X134254294Y-93080886D03*
%TO.N,/NFC_MSG*%
X137281759Y-83453421D03*
X137754294Y-93180886D03*
X51154294Y10619114D03*
%TO.N,/ANTENNA*%
X111854294Y-29980886D03*
X19654294Y-5880886D03*
X22154294Y-4180886D03*
X34554294Y7819114D03*
X102454294Y-39280886D03*
X103654294Y-40180886D03*
X111354294Y-29080886D03*
X114454294Y-25680886D03*
X102695901Y-37980886D03*
%TD*%
D35*
%TO.N,/5V*%
X29754294Y1529134D02*
X29754294Y4219114D01*
X80654294Y13119114D02*
X80654294Y11519114D01*
D36*
X48754294Y-29580886D02*
X47554294Y-28380886D01*
X29354294Y4619114D02*
X29354294Y6419114D01*
X60704294Y-46530886D02*
X60604294Y-46530886D01*
D35*
X85604294Y2119114D02*
X82804294Y4919114D01*
X107390260Y-137230886D02*
X108097277Y-137937903D01*
X47054294Y-36580886D02*
X47054294Y-33330886D01*
D36*
X41854294Y-10580886D02*
X41854294Y-7380886D01*
D35*
X107619008Y-33380886D02*
X106354294Y-33380886D01*
X23154294Y-1380886D02*
X23179294Y-1405886D01*
X135554294Y-89470886D02*
X134064294Y-89470886D01*
X105554294Y-32023386D02*
X105996794Y-31580886D01*
D36*
X76054294Y14519114D02*
X79254294Y14519114D01*
D35*
X41954294Y-16080886D02*
X42054294Y-16180886D01*
D36*
X29754294Y4219114D02*
X29354294Y4619114D01*
D35*
X35004294Y-25480886D02*
X35004294Y-25056622D01*
X149321711Y-86856971D02*
X149321711Y-87148303D01*
X110454294Y-34080886D02*
X111154294Y-33380886D01*
X108011311Y-137937903D02*
X107154294Y-137080886D01*
X116604294Y-28330886D02*
X118195401Y-26739779D01*
X36554294Y-23380886D02*
X36554294Y-23780886D01*
X37354294Y-8380886D02*
X37354294Y-7417377D01*
X28904294Y-4880886D02*
X28904294Y-2030886D01*
X159204294Y-92130886D02*
X159854294Y-92780886D01*
X44654294Y-27720600D02*
X44654294Y-26344129D01*
D36*
X41854294Y-7255886D02*
X39679294Y-5080886D01*
X62704294Y13869114D02*
X64754294Y15919114D01*
D35*
X41554294Y-7680886D02*
X41854294Y-7380886D01*
X77854294Y9344114D02*
X77629294Y9344114D01*
X41954294Y-15480886D02*
X41954294Y-16080886D01*
X113754294Y-29130886D02*
X114554294Y-28330886D01*
D36*
X54854294Y-36380886D02*
X52354294Y-33880886D01*
X60754294Y-39580886D02*
X60754294Y-39180886D01*
D35*
X55654294Y-38648386D02*
X55654294Y-36380886D01*
X50854294Y-44080886D02*
X51654294Y-44880886D01*
X72304294Y12669114D02*
X73654294Y14019114D01*
X113754294Y-29880886D02*
X113754294Y-29130886D01*
X79054294Y11519114D02*
X80654294Y13119114D01*
X23179294Y-1405886D02*
X25679294Y-1405886D01*
X54854294Y-43265515D02*
X54854294Y-41680886D01*
X60179294Y11519114D02*
X61354294Y11519114D01*
X149321711Y-87148303D02*
X149654294Y-87480886D01*
X112154294Y-31480886D02*
X113754294Y-29880886D01*
D36*
X47054294Y-18080886D02*
X45154294Y-16180886D01*
D35*
X74754294Y6219114D02*
X72769008Y6219114D01*
X40754294Y-19430886D02*
X40754294Y-17480886D01*
X59354294Y-45930886D02*
X58204294Y-47080886D01*
X87404294Y2119114D02*
X85604294Y2119114D01*
D36*
X31454294Y-1480886D02*
X30554294Y-580886D01*
D35*
X106354294Y-33380886D02*
X105554294Y-33380886D01*
X108395401Y-34157279D02*
X107619008Y-33380886D01*
D36*
X54241492Y15119114D02*
X55103992Y14256614D01*
D35*
X66754021Y-68580886D02*
X66754794Y-68581659D01*
X57191794Y14256614D02*
X56354294Y14256614D01*
X46054294Y-40216172D02*
X46054294Y-37580886D01*
D36*
X37868096Y13520112D02*
X39467098Y15119114D01*
D35*
X29904294Y-9580886D02*
X36154294Y-9580886D01*
D36*
X64754294Y15919114D02*
X66654294Y15919114D01*
X39454294Y-5080886D02*
X38254294Y-5080886D01*
D35*
X40654294Y-8580886D02*
X41854294Y-8580886D01*
X77854294Y7919114D02*
X77854294Y9344114D01*
X53954294Y-44880886D02*
X53954294Y-44871993D01*
X49754294Y-32380886D02*
X50304294Y-31830886D01*
X105554294Y-33380886D02*
X105554294Y-32023386D01*
D36*
X63354294Y-43880886D02*
X63354294Y-42480886D01*
X43454294Y-13580886D02*
X42354294Y-12480886D01*
D35*
X77254294Y9719114D02*
X76754294Y9719114D01*
X35654294Y-16480886D02*
X34854294Y-17280886D01*
D36*
X29279294Y11344114D02*
X31455292Y13520112D01*
X47595401Y-20939779D02*
X47595401Y-18621993D01*
D35*
X50654294Y-36630886D02*
X50354294Y-36330886D01*
X73654294Y14019114D02*
X73654294Y14519114D01*
X75454294Y6919114D02*
X74754294Y6219114D01*
D36*
X37054294Y-5080886D02*
X36604294Y-4630886D01*
D35*
X103395401Y-35539779D02*
X103395401Y-38557279D01*
X72769008Y6219114D02*
X71045401Y7942721D01*
X72304294Y9201614D02*
X72304294Y12669114D01*
X45354294Y-25370600D02*
X46585115Y-24139779D01*
X33904294Y-21380886D02*
X33804294Y-21280886D01*
X80654294Y11519114D02*
X80454294Y11319114D01*
D36*
X39679294Y-5080886D02*
X39454294Y-5080886D01*
X66454294Y15719114D02*
X66654294Y15919114D01*
D35*
X24454294Y-7180886D02*
X27204294Y-7180886D01*
X50354294Y-33680886D02*
X51254294Y-32780886D01*
D36*
X73654294Y14519114D02*
X76054294Y14519114D01*
D35*
X41054294Y-19730886D02*
X40754294Y-19430886D01*
X59504294Y-39130886D02*
X60704294Y-39130886D01*
D36*
X79854294Y13919114D02*
X80654294Y13119114D01*
D35*
X69608106Y-137134698D02*
X70154294Y-137680886D01*
X145129294Y-94480886D02*
X145954294Y-94480886D01*
X134064294Y-89470886D02*
X133854294Y-89680886D01*
X40754294Y-17480886D02*
X42054294Y-16180886D01*
X55003899Y-41531281D02*
X56453899Y-41531281D01*
D36*
X41854294Y-11980886D02*
X41854294Y-10580886D01*
D35*
X51654294Y-44880886D02*
X53954294Y-44880886D01*
D36*
X45154294Y-16180886D02*
X43554294Y-14580886D01*
X49554294Y-30380886D02*
X48754294Y-29580886D01*
X29354294Y6419114D02*
X29279294Y6494114D01*
D35*
X110454294Y-39048386D02*
X110454294Y-34080886D01*
D36*
X59254294Y-50780886D02*
X60254294Y-49780886D01*
D35*
X66154294Y9844114D02*
X66154294Y11329870D01*
X48004294Y-32380886D02*
X49754294Y-32380886D01*
X35654294Y-13280886D02*
X35654294Y-16480886D01*
D36*
X39467098Y15119114D02*
X54241492Y15119114D01*
D35*
X20695401Y919114D02*
X21154294Y919114D01*
D36*
X60754294Y-38880886D02*
X60754294Y-37255886D01*
X32954294Y-2980886D02*
X31454294Y-1480886D01*
D35*
X36154294Y-9580886D02*
X37354294Y-8380886D01*
X75454294Y8170585D02*
X75454294Y6919114D01*
X35354294Y-22880886D02*
X36054294Y-22880886D01*
X60054294Y11394114D02*
X60179294Y11519114D01*
X33804294Y-17680886D02*
X34204294Y-17280886D01*
X23154294Y-1880886D02*
X21954294Y-3080886D01*
D36*
X59554294Y-36380886D02*
X55654294Y-36380886D01*
D35*
X37354294Y-7417377D02*
X38254294Y-6517377D01*
X34854294Y-24906622D02*
X34854294Y-23380886D01*
X71045401Y7942721D02*
X72304294Y9201614D01*
X105554294Y-33380886D02*
X103454294Y-35480886D01*
X46195401Y-40357279D02*
X46054294Y-40216172D01*
X46095401Y-21304493D02*
X47230687Y-21304493D01*
X124943465Y-180891715D02*
X125054294Y-180780886D01*
D36*
X66454294Y13369114D02*
X66454294Y15719114D01*
D35*
X54995401Y-43830886D02*
X54995401Y-43406622D01*
X60704294Y-39130886D02*
X60754294Y-39180886D01*
X25679294Y-1405886D02*
X26354294Y-730886D01*
X27204294Y-7180886D02*
X29204294Y-5180886D01*
D36*
X51254294Y-32780886D02*
X50304294Y-31830886D01*
D35*
X38504294Y-24380886D02*
X39504294Y-23380886D01*
X35004294Y-25056622D02*
X34854294Y-24906622D01*
X47377901Y-27204493D02*
X47554294Y-27380886D01*
X23154294Y-1080886D02*
X23154294Y-1380886D01*
D36*
X43554294Y-14580886D02*
X43454294Y-14580886D01*
X31455292Y13520112D02*
X37868096Y13520112D01*
D35*
X76754294Y9719114D02*
X75854294Y8819114D01*
X50854294Y-43030886D02*
X50854294Y-44080886D01*
D36*
X60754294Y-39580886D02*
X63354294Y-42180886D01*
D35*
X159116794Y-92130886D02*
X159204294Y-92130886D01*
X54854294Y-41680886D02*
X55003899Y-41531281D01*
D36*
X66854294Y12969114D02*
X66454294Y13369114D01*
X60604294Y-46530886D02*
X60004294Y-45930886D01*
D35*
X35854294Y-5380886D02*
X36604294Y-4630886D01*
X81779793Y3844613D02*
X79228795Y3844613D01*
X75854294Y8819114D02*
X75854294Y8570585D01*
D36*
X60754294Y-39180886D02*
X60754294Y-38880886D01*
X61454294Y-45780886D02*
X63354294Y-43880886D01*
D35*
X38254294Y-6517377D02*
X38254294Y-5080886D01*
X46445401Y-27204493D02*
X47377901Y-27204493D01*
D36*
X52354294Y-33880886D02*
X51254294Y-32780886D01*
D35*
X111754294Y-31480886D02*
X112154294Y-31480886D01*
X46585115Y-24139779D02*
X47595401Y-24139779D01*
D36*
X36604294Y-4630886D02*
X35354294Y-3380886D01*
X34554294Y-2980886D02*
X32954294Y-2980886D01*
D35*
X39404294Y-11380886D02*
X39404294Y-9830886D01*
X34354294Y-5380886D02*
X35854294Y-5380886D01*
X61354294Y11519114D02*
X61354294Y11619114D01*
X69562316Y-137134698D02*
X69608106Y-137134698D01*
X108895401Y-41239779D02*
X108754294Y-41380886D01*
D36*
X35354294Y-3380886D02*
X34954294Y-2980886D01*
X47595401Y-18621993D02*
X47054294Y-18080886D01*
D35*
X66154294Y11329870D02*
X65709672Y11774492D01*
X77104294Y5969114D02*
X77104294Y7169114D01*
X53954294Y-44871993D02*
X54995401Y-43830886D01*
X78854294Y11519114D02*
X79054294Y11519114D01*
D36*
X59879294Y-36380886D02*
X59554294Y-36380886D01*
D35*
X36554294Y-23780886D02*
X37154294Y-24380886D01*
X42054294Y-16180886D02*
X45154294Y-16180886D01*
D36*
X60754294Y-37255886D02*
X59879294Y-36380886D01*
D35*
X39754294Y-28380886D02*
X43994008Y-28380886D01*
X54995401Y-43406622D02*
X54854294Y-43265515D01*
X29204294Y-5180886D02*
X28904294Y-4880886D01*
D36*
X60254294Y-49780886D02*
X60454294Y-49580886D01*
X47595401Y-26139779D02*
X47595401Y-24139779D01*
X47554294Y-27380886D02*
X47554294Y-26180886D01*
D35*
X82804294Y4869114D02*
X81779793Y3844613D01*
X75854294Y8570585D02*
X75454294Y8170585D01*
X58204294Y-47080886D02*
X56163187Y-47080886D01*
D36*
X29279294Y6494114D02*
X29279294Y11344114D01*
D35*
X47230687Y-21304493D02*
X47595401Y-20939779D01*
X56453899Y-41531281D02*
X58854294Y-39130886D01*
D36*
X65709672Y11824492D02*
X65709672Y11774492D01*
D35*
X39704294Y-11680886D02*
X39404294Y-11380886D01*
X111154294Y-32080886D02*
X111754294Y-31480886D01*
X39404294Y-9830886D02*
X40654294Y-8580886D01*
D36*
X66854294Y12969114D02*
X65709672Y11824492D01*
X55391794Y14256614D02*
X54754294Y13619114D01*
D35*
X77629294Y9344114D02*
X77254294Y9719114D01*
D36*
X49554294Y-31080886D02*
X49554294Y-30580886D01*
D35*
X103395401Y-38557279D02*
X103495401Y-38657279D01*
X27494274Y-730886D02*
X29754294Y1529134D01*
X65829294Y-68580886D02*
X66754021Y-68580886D01*
D36*
X63354294Y-42480886D02*
X63354294Y-42180886D01*
X60454294Y-48180886D02*
X60504294Y-48130886D01*
X38254294Y-5080886D02*
X37054294Y-5080886D01*
X42354294Y-12480886D02*
X41854294Y-11980886D01*
D35*
X56163187Y-47080886D02*
X53954294Y-44871993D01*
D36*
X66554294Y15819114D02*
X72154294Y15819114D01*
D35*
X46954294Y-23380886D02*
X47595401Y-22739779D01*
X23154294Y-1380886D02*
X23154294Y-1880886D01*
X27004294Y-730886D02*
X27494274Y-730886D01*
X28904294Y-2030886D02*
X30554294Y-380886D01*
X65404294Y9169114D02*
X65479294Y9169114D01*
X60054294Y11394114D02*
X57191794Y14256614D01*
X54245401Y-40057279D02*
X55654294Y-38648386D01*
D36*
X60454294Y-49580886D02*
X60454294Y-48180886D01*
D35*
X43994008Y-28380886D02*
X44654294Y-27720600D01*
X118195401Y-26739779D02*
X118195401Y-24457279D01*
X77104294Y7169114D02*
X77854294Y7919114D01*
X33804294Y-21280886D02*
X33804294Y-17680886D01*
D36*
X72154294Y15819114D02*
X73454294Y14519114D01*
D35*
X46054294Y-37580886D02*
X47054294Y-36580886D01*
D36*
X41854294Y-7380886D02*
X41854294Y-7255886D01*
D35*
X44654294Y-26344129D02*
X45354294Y-25644129D01*
D36*
X55491794Y14256614D02*
X55391794Y14256614D01*
D35*
X82804294Y4919114D02*
X82804294Y4869114D01*
D36*
X34954294Y-2980886D02*
X34554294Y-2980886D01*
X30554294Y-580886D02*
X30554294Y-380886D01*
D35*
X47054294Y-33330886D02*
X48004294Y-32380886D01*
D36*
X60704294Y-46530886D02*
X61454294Y-45780886D01*
X60504294Y-48130886D02*
X60504294Y-46730886D01*
X47595401Y-22739779D02*
X47595401Y-20939779D01*
D35*
X109545401Y-39957279D02*
X110454294Y-39048386D01*
D36*
X47554294Y-28380886D02*
X47554294Y-27380886D01*
X47595401Y-24139779D02*
X47595401Y-22739779D01*
D35*
X50354294Y-36330886D02*
X50354294Y-33680886D01*
D36*
X43454294Y-14580886D02*
X43454294Y-13580886D01*
D35*
X124244333Y-180891715D02*
X124943465Y-180891715D01*
X65479294Y9169114D02*
X66154294Y9844114D01*
X39154294Y-7680886D02*
X41554294Y-7680886D01*
X111154294Y-33380886D02*
X111154294Y-32080886D01*
D36*
X49554294Y-30580886D02*
X49554294Y-30380886D01*
X79254294Y14519114D02*
X79854294Y13919114D01*
D35*
X37154294Y-24380886D02*
X38504294Y-24380886D01*
X34854294Y-23380886D02*
X35354294Y-22880886D01*
X40154294Y-23380886D02*
X46954294Y-23380886D01*
D36*
X55491794Y14256614D02*
X56354294Y14256614D01*
D35*
X79228795Y3844613D02*
X77104294Y5969114D01*
X88154294Y2869114D02*
X87404294Y2119114D01*
D36*
X47554294Y-26180886D02*
X47595401Y-26139779D01*
D35*
X103454294Y-35480886D02*
X103395401Y-35539779D01*
D36*
X55103992Y14256614D02*
X55491794Y14256614D01*
X50304294Y-31830886D02*
X49554294Y-31080886D01*
D35*
X21154294Y919114D02*
X23154294Y-1080886D01*
X114554294Y-28330886D02*
X116604294Y-28330886D01*
X108895401Y-39957279D02*
X108895401Y-41239779D01*
X105404294Y-137230886D02*
X107390260Y-137230886D01*
X45354294Y-25644129D02*
X45354294Y-25370600D01*
X145954294Y-94480886D02*
X146054294Y-94580886D01*
X108097277Y-137937903D02*
X108011311Y-137937903D01*
D36*
X55654294Y-36380886D02*
X54854294Y-36380886D01*
X60504294Y-46730886D02*
X60704294Y-46530886D01*
D35*
X36054294Y-22880886D02*
X36554294Y-23380886D01*
D36*
X56904294Y-50780886D02*
X59254294Y-50780886D01*
X73454294Y14519114D02*
X73654294Y14519114D01*
D35*
%TO.N,/GND*%
X149586877Y-83904801D02*
X149586877Y-83713469D01*
X36329294Y5994114D02*
X36754294Y6419114D01*
X128043465Y-180891715D02*
X128054294Y-180880886D01*
X142179294Y-94480886D02*
X141554294Y-94480886D01*
X127645401Y-95257279D02*
X131896142Y-91006538D01*
X162404294Y-90230886D02*
X162454294Y-90180886D01*
X161391794Y-90230886D02*
X162404294Y-90230886D01*
X30154294Y9594114D02*
X30154294Y10419114D01*
X61473745Y8444114D02*
X61548245Y8518614D01*
X135554294Y-90740886D02*
X133107120Y-90740886D01*
X67286448Y-135048732D02*
X66554294Y-135780886D01*
X141554294Y-94480886D02*
X141454294Y-94380886D01*
X60054294Y8444114D02*
X61473745Y8444114D01*
X62879294Y-68580886D02*
X62879294Y-67955886D01*
X127194333Y-180891715D02*
X128043465Y-180891715D01*
X67476350Y-135048732D02*
X67286448Y-135048732D01*
X55644333Y12141575D02*
X55404294Y12381614D01*
X55644333Y8308285D02*
X55644333Y10208285D01*
X106011311Y-140223869D02*
X105354294Y-140880886D01*
X37654294Y8239114D02*
X37654294Y7819114D01*
X62879294Y-67955886D02*
X63354294Y-67480886D01*
X55644333Y10208285D02*
X55644333Y11209153D01*
X149586877Y-83713469D02*
X149154294Y-83280886D01*
X106011311Y-140023869D02*
X106011311Y-140223869D01*
X30154294Y10419114D02*
X30254294Y10519114D01*
X133107120Y-90740886D02*
X132841468Y-91006538D01*
X37654294Y7819114D02*
X37854294Y7619114D01*
X35959294Y5994114D02*
X36329294Y5994114D01*
X55644333Y11209153D02*
X55644333Y12141575D01*
X131896142Y-91006538D02*
X132841468Y-91006538D01*
%TO.N,/3V3*%
X32149294Y9314114D02*
X32149294Y11244114D01*
X37539294Y9314114D02*
X37654294Y9199114D01*
X38634294Y9199114D02*
X38754294Y9319114D01*
X57194333Y8308285D02*
X57194333Y12271653D01*
X40554294Y7519114D02*
X38754294Y9319114D01*
X30154294Y7989114D02*
X32149294Y5994114D01*
X37654294Y9199114D02*
X38634294Y9199114D01*
X56754294Y7519114D02*
X40554294Y7519114D01*
X57194333Y7959153D02*
X56754294Y7519114D01*
X57194333Y12271653D02*
X57304294Y12381614D01*
X32149294Y5994114D02*
X32149294Y9314114D01*
X32149294Y9314114D02*
X37539294Y9314114D01*
X30154294Y8044114D02*
X30154294Y7989114D01*
X57194333Y8308285D02*
X57194333Y7959153D01*
D37*
%TO.N,Net-(D1-DIN)*%
X159645401Y-100857279D02*
X157754294Y-98966172D01*
X157754294Y-98966172D02*
X157754294Y-91593386D01*
X157754294Y-91593386D02*
X159116794Y-90230886D01*
%TO.N,Net-(D2-DIN)*%
X162345401Y-99357279D02*
X159019008Y-96030886D01*
X159019008Y-96030886D02*
X158604294Y-96030886D01*
%TO.N,Net-(D2-DOUT)*%
X162596794Y-102080886D02*
X161454294Y-102080886D01*
X161304294Y-94530886D02*
X163054294Y-96280886D01*
X163054294Y-98780886D02*
X163154294Y-98880886D01*
X163154294Y-101523386D02*
X162596794Y-102080886D01*
X163054294Y-96280886D02*
X163054294Y-98780886D01*
X163154294Y-98880886D02*
X163154294Y-101523386D01*
X160754294Y-102780886D02*
X160754294Y-104548386D01*
X161454294Y-102080886D02*
X160754294Y-102780886D01*
X160754294Y-104548386D02*
X160045401Y-105257279D01*
X160045401Y-105257279D02*
X159345401Y-105257279D01*
%TO.N,Net-(D3-DOUT)*%
X161654294Y-108580550D02*
X160177565Y-110057279D01*
X162820401Y-104532279D02*
X162820401Y-106514779D01*
X160177565Y-110057279D02*
X159945401Y-110057279D01*
X162820401Y-106514779D02*
X161654294Y-107680886D01*
X161654294Y-107680886D02*
X161654294Y-108580550D01*
X162045401Y-103757279D02*
X162820401Y-104532279D01*
D35*
%TO.N,Net-(D4-DOUT)*%
X163254294Y-113873386D02*
X163146794Y-113980886D01*
X160521794Y-113980886D02*
X163146794Y-113980886D01*
X161395401Y-109439779D02*
X161395401Y-110721993D01*
X161395401Y-110721993D02*
X163254294Y-112580886D01*
X162277901Y-108557279D02*
X161454294Y-109380886D01*
X163254294Y-112580886D02*
X163254294Y-113873386D01*
X161454294Y-109380886D02*
X161395401Y-109439779D01*
X162645401Y-108557279D02*
X162277901Y-108557279D01*
X160521794Y-113980886D02*
X159745401Y-114757279D01*
%TO.N,Net-(D5-DOUT)*%
X156454294Y-109280886D02*
X155754294Y-109980886D01*
X156454294Y-109280886D02*
X157954294Y-109280886D01*
X155754294Y-109980886D02*
X155754294Y-110423386D01*
X158654294Y-109980886D02*
X157954294Y-109280886D01*
X158654294Y-110191172D02*
X158654294Y-109980886D01*
X155754294Y-110423386D02*
X154120401Y-112057279D01*
X161720401Y-113257279D02*
X158654294Y-110191172D01*
X154120401Y-112057279D02*
X154045401Y-112057279D01*
X162445401Y-113257279D02*
X161720401Y-113257279D01*
%TO.N,Net-(D6-DOUT)*%
X158995401Y-115364779D02*
X158879294Y-115480886D01*
X156745401Y-110557279D02*
X158995401Y-112807279D01*
X156254294Y-115480886D02*
X155504294Y-116230886D01*
X158879294Y-115480886D02*
X156254294Y-115480886D01*
X158995401Y-112807279D02*
X158995401Y-115364779D01*
%TO.N,Net-(D8-DIN)*%
X158204294Y-114730886D02*
X157604294Y-114730886D01*
X157604294Y-114730886D02*
X156454294Y-113580886D01*
X152254294Y-115580886D02*
X149321794Y-115580886D01*
X154254294Y-113580886D02*
X152254294Y-115580886D01*
X149321794Y-115580886D02*
X148645401Y-116257279D01*
X156454294Y-113580886D02*
X154254294Y-113580886D01*
%TO.N,Net-(D8-DOUT)*%
X144654294Y-112080886D02*
X143904294Y-112830886D01*
X151345401Y-114757279D02*
X148669008Y-112080886D01*
X148669008Y-112080886D02*
X144654294Y-112080886D01*
%TO.N,Net-(D9-DOUT)*%
X143154294Y-116255886D02*
X141779294Y-117630886D01*
X143654294Y-110280886D02*
X143154294Y-110780886D01*
X144854294Y-110280886D02*
X143654294Y-110280886D01*
X145904294Y-111330886D02*
X144854294Y-110280886D01*
X143154294Y-110780886D02*
X143154294Y-116255886D01*
X146604294Y-111330886D02*
X145904294Y-111330886D01*
X141779294Y-117630886D02*
X141704294Y-117630886D01*
%TO.N,Net-(D10-DOUT)*%
X140454294Y-122680886D02*
X143079294Y-122680886D01*
X143079294Y-122680886D02*
X143254294Y-122505886D01*
X142854294Y-117680886D02*
X144404294Y-116130886D01*
X139704294Y-123430886D02*
X140454294Y-122680886D01*
X142854294Y-118080886D02*
X142854294Y-117680886D01*
X143254294Y-122505886D02*
X143254294Y-118480886D01*
X143254294Y-118480886D02*
X142854294Y-118080886D01*
%TO.N,Net-(D11-DOUT)*%
X134129294Y-121880886D02*
X136004294Y-120005886D01*
X139854294Y-119380886D02*
X142404294Y-121930886D01*
X136004294Y-119705886D02*
X136329294Y-119380886D01*
X134054294Y-121880886D02*
X134129294Y-121880886D01*
X136004294Y-120005886D02*
X136004294Y-119705886D01*
X136329294Y-119380886D02*
X139854294Y-119380886D01*
%TO.N,Net-(D12-DOUT)*%
X132054294Y-125580886D02*
X132054294Y-124880886D01*
X134804294Y-122555886D02*
X134804294Y-122330886D01*
X134804294Y-122330886D02*
X136754294Y-120380886D01*
X130704294Y-126830886D02*
X130804294Y-126830886D01*
X130804294Y-126830886D02*
X132054294Y-125580886D01*
X133679294Y-123680886D02*
X134804294Y-122555886D01*
X132054294Y-124880886D02*
X133254294Y-123680886D01*
X133254294Y-123680886D02*
X133679294Y-123680886D01*
%TO.N,Net-(D13-DOUT)*%
X129396794Y-127980886D02*
X131254294Y-127980886D01*
X132154294Y-127080886D02*
X132154294Y-126580886D01*
X128054294Y-129323386D02*
X129396794Y-127980886D01*
X126545401Y-131057279D02*
X126777901Y-131057279D01*
X132154294Y-126580886D02*
X133404294Y-125330886D01*
X128054294Y-129780886D02*
X128054294Y-129323386D01*
X126777901Y-131057279D02*
X128054294Y-129780886D01*
X131254294Y-127980886D02*
X132154294Y-127080886D01*
%TO.N,Net-(D14-DOUT)*%
X126554294Y-132780886D02*
X127995401Y-131339779D01*
X125554294Y-132780886D02*
X126554294Y-132780886D01*
X127995401Y-130539779D02*
X128977901Y-129557279D01*
X123504294Y-134830886D02*
X125554294Y-132780886D01*
X122204294Y-136530886D02*
X122279294Y-136530886D01*
X128977901Y-129557279D02*
X129245401Y-129557279D01*
X122279294Y-136530886D02*
X123504294Y-135305886D01*
X127995401Y-131339779D02*
X127995401Y-130539779D01*
X123504294Y-135305886D02*
X123504294Y-134830886D01*
%TO.N,Net-(D15-DOUT)*%
X123554294Y-136380886D02*
X124904294Y-135030886D01*
X123554294Y-139855886D02*
X123554294Y-136380886D01*
X121704294Y-141630886D02*
X121779294Y-141630886D01*
X121779294Y-141630886D02*
X123554294Y-139855886D01*
%TO.N,Net-(D16-DOUT)*%
X124104294Y-144205886D02*
X124104294Y-143630886D01*
X125254294Y-142480886D02*
X125254294Y-140980886D01*
X124104294Y-143630886D02*
X125254294Y-142480886D01*
X122154294Y-146080886D02*
X122229294Y-146080886D01*
X122229294Y-146080886D02*
X124104294Y-144205886D01*
X125254294Y-140980886D02*
X124404294Y-140130886D01*
%TO.N,Net-(D18-DIN)*%
X125604294Y-149305886D02*
X125604294Y-145330886D01*
X125604294Y-145330886D02*
X124854294Y-144580886D01*
X124004294Y-150830886D02*
X124079294Y-150830886D01*
X124079294Y-150830886D02*
X125604294Y-149305886D01*
%TO.N,Net-(D18-DOUT)*%
X128504294Y-154030886D02*
X127454294Y-152980886D01*
X127454294Y-150080886D02*
X126704294Y-149330886D01*
X127454294Y-152980886D02*
X127454294Y-150080886D01*
%TO.N,Net-(D19-DOUT)*%
X133504294Y-154530886D02*
X131504294Y-152530886D01*
X131504294Y-152530886D02*
X131204294Y-152530886D01*
%TO.N,Net-(D20-DOUT)*%
X136930687Y-153757279D02*
X136204294Y-153030886D01*
X138945401Y-153757279D02*
X136930687Y-153757279D01*
%TO.N,Net-(D21-DOUT)*%
X141945401Y-152557279D02*
X141645401Y-152257279D01*
X144545401Y-152557279D02*
X141945401Y-152557279D01*
%TO.N,Net-(D23-DIN)*%
X147245401Y-151057279D02*
X147245401Y-149557279D01*
X147245401Y-149557279D02*
X148345401Y-148457279D01*
%TO.N,Net-(D23-DOUT)*%
X151045401Y-145457279D02*
X152145401Y-144357279D01*
X151045401Y-146957279D02*
X151045401Y-145457279D01*
%TO.N,Net-(D24-DOUT)*%
X154845401Y-140957279D02*
X154045401Y-140157279D01*
X154845401Y-142857279D02*
X154845401Y-140957279D01*
%TO.N,Net-(D25-DOUT)*%
X155704294Y-135330886D02*
X156745401Y-136371993D01*
X156745401Y-136371993D02*
X156745401Y-138657279D01*
%TO.N,Net-(D26-DOUT)*%
X154254294Y-134780886D02*
X154454294Y-134580886D01*
X157654294Y-134580886D02*
X158404294Y-133830886D01*
X149645401Y-133657279D02*
X150330687Y-133657279D01*
X150330687Y-133657279D02*
X151454294Y-134780886D01*
X151454294Y-134780886D02*
X154254294Y-134780886D01*
X154454294Y-134580886D02*
X157654294Y-134580886D01*
%TO.N,Net-(D27-DOUT)*%
X149577901Y-152957279D02*
X150454294Y-152080886D01*
X152804028Y-137380886D02*
X150304028Y-134880886D01*
X150304028Y-134880886D02*
X148854294Y-134880886D01*
X148896794Y-132980886D02*
X151521794Y-132980886D01*
X150454294Y-150980886D02*
X155854294Y-145580886D01*
X155354294Y-137380886D02*
X152804028Y-137380886D01*
X151521794Y-132980886D02*
X152345401Y-132157279D01*
X148854294Y-134880886D02*
X148654294Y-134680886D01*
X155354294Y-141380886D02*
X155354294Y-137380886D01*
X155854294Y-145580886D02*
X155854294Y-141880886D01*
X148654294Y-134680886D02*
X148654294Y-133223386D01*
X148654294Y-133223386D02*
X148896794Y-132980886D01*
X148945401Y-152957279D02*
X149577901Y-152957279D01*
X155854294Y-141880886D02*
X155354294Y-141380886D01*
X150454294Y-152080886D02*
X150454294Y-150980886D01*
%TO.N,Net-(D28-DOUT)*%
X152395401Y-154439779D02*
X152395401Y-152207279D01*
X146554294Y-157880886D02*
X147154294Y-157880886D01*
X147954294Y-157080886D02*
X149979294Y-157080886D01*
X151954294Y-154880886D02*
X152395401Y-154439779D01*
X149979294Y-157080886D02*
X151954294Y-155105886D01*
X147154294Y-157880886D02*
X147954294Y-157080886D01*
X151954294Y-155105886D02*
X151954294Y-154880886D01*
X152395401Y-152207279D02*
X151645401Y-151457279D01*
%TO.N,Net-(D29-DOUT)*%
X140904294Y-159530886D02*
X141204294Y-159530886D01*
X148579294Y-155705886D02*
X149254294Y-156380886D01*
X144754294Y-156580886D02*
X145629294Y-155705886D01*
X142654294Y-158080886D02*
X142654294Y-157555886D01*
X145629294Y-155705886D02*
X148579294Y-155705886D01*
X142654294Y-157555886D02*
X143629294Y-156580886D01*
X141204294Y-159530886D02*
X142654294Y-158080886D01*
X143629294Y-156580886D02*
X144754294Y-156580886D01*
%TO.N,Net-(D30-DOUT)*%
X147354294Y-162680886D02*
X147754294Y-162280886D01*
X144704294Y-158030886D02*
X143604294Y-158030886D01*
X147754294Y-161080886D02*
X144704294Y-158030886D01*
X147754294Y-162280886D02*
X147754294Y-161080886D01*
X144104294Y-163430886D02*
X145305765Y-163430886D01*
X145305765Y-163430886D02*
X146055765Y-162680886D01*
X146055765Y-162680886D02*
X147354294Y-162680886D01*
%TO.N,Net-(D31-DOUT)*%
X139854294Y-163680886D02*
X140854294Y-162680886D01*
X138154294Y-165980886D02*
X138229294Y-165980886D01*
X140854294Y-162680886D02*
X145404294Y-162680886D01*
X139854294Y-164355886D02*
X139854294Y-163680886D01*
X145404294Y-162680886D02*
X146154294Y-161930886D01*
X146154294Y-161930886D02*
X146804294Y-161930886D01*
X138229294Y-165980886D02*
X139854294Y-164355886D01*
%TO.N,Net-(D32-DOUT)*%
X142154294Y-167955886D02*
X142154294Y-165780886D01*
X140604294Y-169430886D02*
X140679294Y-169430886D01*
X142154294Y-165780886D02*
X140854294Y-164480886D01*
X140679294Y-169430886D02*
X142154294Y-167955886D01*
%TO.N,Net-(D34-DIN)*%
X141754294Y-169480886D02*
X143304294Y-167930886D01*
X134804294Y-171230886D02*
X136154294Y-169880886D01*
X141054294Y-170580886D02*
X141754294Y-169880886D01*
X136154294Y-169880886D02*
X136154294Y-168980886D01*
X141754294Y-169880886D02*
X141754294Y-169480886D01*
X136154294Y-168980886D02*
X136554294Y-168580886D01*
X137954294Y-168580886D02*
X139954294Y-170580886D01*
X134304294Y-171230886D02*
X134804294Y-171230886D01*
X136554294Y-168580886D02*
X137954294Y-168580886D01*
X139954294Y-170580886D02*
X141054294Y-170580886D01*
%TO.N,Net-(D34-DOUT)*%
X135554294Y-172580886D02*
X135554294Y-171180886D01*
X135254294Y-174180886D02*
X135254294Y-172880886D01*
X136145401Y-175071993D02*
X135254294Y-174180886D01*
X135254294Y-172880886D02*
X135554294Y-172580886D01*
X135554294Y-171180886D02*
X137004294Y-169730886D01*
X136145401Y-175257279D02*
X136145401Y-175071993D01*
%TO.N,Net-(D35-DOUT)*%
X130077901Y-174657279D02*
X131454294Y-173280886D01*
X131454294Y-172780886D02*
X132054294Y-172180886D01*
X135354294Y-176180886D02*
X136654294Y-176180886D01*
X131454294Y-173280886D02*
X131454294Y-172780886D01*
X134854294Y-175680886D02*
X135354294Y-176180886D01*
X132054294Y-172180886D02*
X133254294Y-172180886D01*
X137354294Y-175480886D02*
X137354294Y-174480886D01*
X136654294Y-176180886D02*
X137354294Y-175480886D01*
X138077901Y-173757279D02*
X138845401Y-173757279D01*
X137354294Y-174480886D02*
X138077901Y-173757279D01*
X133254294Y-172180886D02*
X134854294Y-173780886D01*
X129745401Y-174657279D02*
X130077901Y-174657279D01*
X134854294Y-173780886D02*
X134854294Y-175680886D01*
%TO.N,Net-(D36-DOUT)*%
X128045401Y-179157279D02*
X128977901Y-179157279D01*
X128977901Y-179157279D02*
X129754294Y-178380886D01*
X129754294Y-178380886D02*
X131446794Y-178380886D01*
X131446794Y-178380886D02*
X133195401Y-176632279D01*
X133195401Y-173907279D02*
X132445401Y-173157279D01*
X133195401Y-176632279D02*
X133195401Y-173907279D01*
%TO.N,Net-(D37-DOUT)*%
X122804294Y-178530886D02*
X123804294Y-178530886D01*
X124554294Y-177780886D02*
X126454294Y-177780886D01*
X130154294Y-176680886D02*
X130745401Y-177271993D01*
X130745401Y-177271993D02*
X130745401Y-177657279D01*
X123804294Y-178530886D02*
X124554294Y-177780886D01*
X127554294Y-176680886D02*
X130154294Y-176680886D01*
X126454294Y-177780886D02*
X127554294Y-176680886D01*
%TO.N,Net-(D39-DIN)*%
X123354294Y-181905886D02*
X123279294Y-181980886D01*
X121854294Y-179580886D02*
X122354294Y-180080886D01*
X122779294Y-180080886D02*
X123354294Y-180655886D01*
X123354294Y-180655886D02*
X123354294Y-181905886D01*
X122354294Y-180080886D02*
X122779294Y-180080886D01*
X123989314Y-177780886D02*
X122129294Y-177780886D01*
X124739314Y-177030886D02*
X123989314Y-177780886D01*
X120654294Y-181980886D02*
X119854294Y-182780886D01*
X122129294Y-177780886D02*
X121854294Y-178055886D01*
X125504294Y-177030886D02*
X124739314Y-177030886D01*
X123279294Y-181980886D02*
X120654294Y-181980886D01*
X121854294Y-178055886D02*
X121854294Y-179580886D01*
%TO.N,Net-(D39-DOUT)*%
X120654294Y-180380886D02*
X121554294Y-181280886D01*
X115204294Y-179030886D02*
X116554294Y-180380886D01*
X114504294Y-179030886D02*
X115204294Y-179030886D01*
X121554294Y-181280886D02*
X122554294Y-181280886D01*
X116554294Y-180380886D02*
X120654294Y-180380886D01*
%TO.N,Net-(D40-DOUT)*%
X114054294Y-181980886D02*
X114079294Y-182005886D01*
X113754294Y-179980886D02*
X113354294Y-179580886D01*
X115279294Y-179980886D02*
X113754294Y-179980886D01*
X116529294Y-178205886D02*
X117204294Y-177530886D01*
X113829294Y-178205886D02*
X116529294Y-178205886D01*
X113354294Y-179580886D02*
X113354294Y-178680886D01*
X112504294Y-182830886D02*
X113204294Y-182830886D01*
X115954294Y-180655886D02*
X115279294Y-179980886D01*
X114079294Y-182005886D02*
X115954294Y-182005886D01*
X113204294Y-182830886D02*
X114054294Y-181980886D01*
X113354294Y-178680886D02*
X113829294Y-178205886D01*
X115954294Y-182005886D02*
X115954294Y-180655886D01*
%TO.N,Net-(D41-DOUT)*%
X114104294Y-181330886D02*
X115204294Y-181330886D01*
X112654294Y-179880886D02*
X114104294Y-181330886D01*
X108930687Y-178357279D02*
X110454294Y-179880886D01*
X108745401Y-178357279D02*
X108930687Y-178357279D01*
X110454294Y-179880886D02*
X112654294Y-179880886D01*
%TO.N,Net-(D42-DOUT)*%
X104429294Y-178005886D02*
X107529294Y-178005886D01*
X103104294Y-178830886D02*
X103604294Y-178830886D01*
X107854294Y-177680886D02*
X110621794Y-177680886D01*
X107529294Y-178005886D02*
X107854294Y-177680886D01*
X110621794Y-177680886D02*
X111445401Y-176857279D01*
X103604294Y-178830886D02*
X104429294Y-178005886D01*
%TO.N,Net-(D43-DOUT)*%
X102945401Y-174471993D02*
X102945401Y-174257279D01*
X105804294Y-177330886D02*
X102945401Y-174471993D01*
%TO.N,Net-(D44-DOUT)*%
X100654294Y-169780886D02*
X99954294Y-170480886D01*
X99954294Y-170480886D02*
X99954294Y-170655886D01*
X99954294Y-170655886D02*
X98429294Y-172180886D01*
X105645401Y-172757279D02*
X104930687Y-172757279D01*
X101954294Y-169780886D02*
X100654294Y-169780886D01*
X104930687Y-172757279D02*
X101954294Y-169780886D01*
X98429294Y-172180886D02*
X98354294Y-172180886D01*
%TO.N,Net-(D45-DOUT)*%
X101054294Y-170680886D02*
X99454294Y-172280886D01*
X99454294Y-172280886D02*
X99454294Y-176655886D01*
X99454294Y-176655886D02*
X97979294Y-178130886D01*
X97979294Y-178130886D02*
X97904294Y-178130886D01*
%TO.N,Net-(D46-DOUT)*%
X96504294Y-178980886D02*
X93504294Y-175980886D01*
X98854294Y-178580886D02*
X98454294Y-178980886D01*
X98854294Y-178080886D02*
X98854294Y-178580886D01*
X100304294Y-176630886D02*
X98854294Y-178080886D01*
X98454294Y-178980886D02*
X96504294Y-178980886D01*
X100604294Y-176630886D02*
X100304294Y-176630886D01*
%TO.N,Net-(D47-DOUT)*%
X91454294Y-177080886D02*
X91454294Y-176180886D01*
X91254294Y-177280886D02*
X91454294Y-177080886D01*
X91454294Y-176180886D02*
X92354294Y-175280886D01*
X92354294Y-175280886D02*
X95404294Y-175280886D01*
X87404294Y-176230886D02*
X88454294Y-177280886D01*
X88454294Y-177280886D02*
X91254294Y-177280886D01*
X95404294Y-175280886D02*
X96204294Y-174480886D01*
%TO.N,Net-(D48-DOUT)*%
X86254294Y-176080886D02*
X86854294Y-175480886D01*
X86854294Y-175480886D02*
X89354294Y-175480886D01*
X90254294Y-180880886D02*
X86254294Y-176880886D01*
X86254294Y-176880886D02*
X86254294Y-176080886D01*
X89354294Y-175480886D02*
X90104294Y-174730886D01*
%TO.N,Net-(D50-DIN)*%
X84304294Y-182630886D02*
X85054294Y-181880886D01*
X85054294Y-181880886D02*
X86579294Y-181880886D01*
X91454294Y-181105886D02*
X91454294Y-180880886D01*
X86579294Y-181880886D02*
X86654294Y-181805886D01*
X90779294Y-181780886D02*
X91454294Y-181105886D01*
X86654294Y-181805886D02*
X86654294Y-181780886D01*
X86654294Y-181780886D02*
X90779294Y-181780886D01*
X83204294Y-182630886D02*
X84304294Y-182630886D01*
X91454294Y-180880886D02*
X92954294Y-179380886D01*
%TO.N,Net-(D50-DOUT)*%
X85154294Y-181130886D02*
X85904294Y-181130886D01*
X81954294Y-177930886D02*
X85154294Y-181130886D01*
X81304294Y-177930886D02*
X81954294Y-177930886D01*
%TO.N,Net-(D51-DOUT)*%
X82054294Y-180780886D02*
X80154294Y-178880886D01*
X78354294Y-184080886D02*
X78954294Y-184080886D01*
X79754294Y-183280886D02*
X81779294Y-183280886D01*
X80154294Y-177680886D02*
X80654294Y-177180886D01*
X80654294Y-177180886D02*
X82254294Y-177180886D01*
X83004294Y-176430886D02*
X84004294Y-176430886D01*
X82054294Y-183005886D02*
X82054294Y-180780886D01*
X82254294Y-177180886D02*
X83004294Y-176430886D01*
X78954294Y-184080886D02*
X79754294Y-183280886D01*
X81779294Y-183280886D02*
X82054294Y-183005886D01*
X80154294Y-178880886D02*
X80154294Y-177680886D01*
%TO.N,Net-(D52-DOUT)*%
X76954294Y-179630886D02*
X79904294Y-182580886D01*
X79904294Y-182580886D02*
X81054294Y-182580886D01*
X76304294Y-179630886D02*
X76954294Y-179630886D01*
%TO.N,Net-(D53-DOUT)*%
X75754294Y-178880886D02*
X78254294Y-178880886D01*
X72054294Y-183380886D02*
X74254294Y-183380886D01*
X70604294Y-184130886D02*
X71304294Y-184130886D01*
X75054294Y-182580886D02*
X75054294Y-179580886D01*
X78254294Y-178880886D02*
X79004294Y-178130886D01*
X75054294Y-179580886D02*
X75754294Y-178880886D01*
X74254294Y-183380886D02*
X75054294Y-182580886D01*
X71304294Y-184130886D02*
X72054294Y-183380886D01*
%TO.N,Net-(D55-DIN)*%
X70604294Y-178530886D02*
X70604294Y-179930886D01*
X70604294Y-179930886D02*
X73304294Y-182630886D01*
%TO.N,Net-(D55-DOUT)*%
X65104294Y-181380886D02*
X65904294Y-180580886D01*
X70054294Y-177780886D02*
X72554294Y-177780886D01*
X72554294Y-177780886D02*
X73304294Y-177030886D01*
X68529294Y-180580886D02*
X69154294Y-179955886D01*
X65904294Y-180580886D02*
X68529294Y-180580886D01*
X69154294Y-179955886D02*
X69154294Y-178680886D01*
X69154294Y-178680886D02*
X70054294Y-177780886D01*
%TO.N,Net-(D56-DOUT)*%
X64845401Y-176921993D02*
X67804294Y-179880886D01*
X64845401Y-175957279D02*
X64845401Y-176921993D01*
%TO.N,Net-(D57-DOUT)*%
X68145401Y-172557279D02*
X68145401Y-173857279D01*
X68145401Y-173857279D02*
X67545401Y-174457279D01*
%TO.N,Net-(D58-DOUT)*%
X64304294Y-168830886D02*
X65004294Y-168830886D01*
X65004294Y-168830886D02*
X66154294Y-169980886D01*
X66154294Y-169980886D02*
X69769008Y-169980886D01*
X69769008Y-169980886D02*
X70845401Y-171057279D01*
%TO.N,Net-(D59-DOUT)*%
X68445401Y-165957279D02*
X68377901Y-165957279D01*
X68377901Y-165957279D02*
X67004294Y-167330886D01*
%TO.N,Net-(D60-DOUT)*%
X65730687Y-162257279D02*
X66854294Y-163380886D01*
X66854294Y-163380886D02*
X70354294Y-163380886D01*
X71145401Y-164171993D02*
X71145401Y-164457279D01*
X65445401Y-162257279D02*
X65730687Y-162257279D01*
X70354294Y-163380886D02*
X71145401Y-164171993D01*
%TO.N,Net-(D61-DOUT)*%
X70104294Y-159930886D02*
X68971794Y-159930886D01*
X68971794Y-159930886D02*
X68145401Y-160757279D01*
%TO.N,Net-(D62-DOUT)*%
X68754294Y-157380886D02*
X71754294Y-157380886D01*
X71754294Y-157380886D02*
X72804294Y-158430886D01*
X67404294Y-156030886D02*
X68754294Y-157380886D01*
%TO.N,Net-(D63-DOUT)*%
X71945401Y-154057279D02*
X70577901Y-154057279D01*
X70577901Y-154057279D02*
X70104294Y-154530886D01*
%TO.N,Net-(D64-DOUT)*%
X73369008Y-151280886D02*
X74645401Y-152557279D01*
X70554294Y-151280886D02*
X73369008Y-151280886D01*
X69454294Y-150180886D02*
X70554294Y-151280886D01*
%TO.N,Net-(D66-DIN)*%
X73554294Y-147680886D02*
X73154294Y-147680886D01*
X73154294Y-147680886D02*
X72154294Y-148680886D01*
%TO.N,Net-(D66-DOUT)*%
X75054294Y-144980886D02*
X76254294Y-146180886D01*
X73654294Y-144980886D02*
X75054294Y-144980886D01*
X72704294Y-144030886D02*
X73654294Y-144980886D01*
X72104294Y-144030886D02*
X72704294Y-144030886D01*
%TO.N,Net-(D67-DOUT)*%
X74804294Y-142530886D02*
X76204294Y-142530886D01*
X76204294Y-142530886D02*
X76604294Y-142130886D01*
%TO.N,Net-(D68-DOUT)*%
X77654294Y-141380886D02*
X74354294Y-141380886D01*
X74354294Y-141380886D02*
X72454294Y-139480886D01*
X79304294Y-140630886D02*
X78404294Y-140630886D01*
X78404294Y-140630886D02*
X77654294Y-141380886D01*
%TO.N,Net-(D69-DOUT)*%
X75154294Y-137980886D02*
X77454294Y-137980886D01*
X77454294Y-137980886D02*
X77554294Y-138080886D01*
%TO.N,Net-(D71-DIN)*%
X81754294Y-138080886D02*
X81754294Y-139030886D01*
X81754294Y-139030886D02*
X82504294Y-139780886D01*
X80254294Y-136580886D02*
X81754294Y-138080886D01*
%TO.N,Net-(D71-DOUT)*%
X85204294Y-138280886D02*
X87454294Y-138280886D01*
X87454294Y-138280886D02*
X87604294Y-138430886D01*
%TO.N,Net-(D72-DOUT)*%
X90304294Y-136930886D02*
X90404294Y-136930886D01*
X90404294Y-136930886D02*
X92304294Y-138830886D01*
%TO.N,Net-(D73-DOUT)*%
X96604294Y-137330886D02*
X97004294Y-137730886D01*
X95004294Y-137330886D02*
X96604294Y-137330886D01*
%TO.N,Net-(D74-DOUT)*%
X99854294Y-140166172D02*
X101045401Y-141357279D01*
X100754294Y-138580886D02*
X99854294Y-139480886D01*
X99854294Y-139480886D02*
X99854294Y-140166172D01*
X100754294Y-137280886D02*
X100754294Y-138580886D01*
X99704294Y-136230886D02*
X100754294Y-137280886D01*
%TO.N,Net-(D75-DOUT)*%
X103745401Y-138271993D02*
X102704294Y-137230886D01*
X103745401Y-139857279D02*
X103745401Y-138271993D01*
%TO.N,Net-(D76-DOUT)*%
X105404294Y-135730886D02*
X108204294Y-135730886D01*
X108204294Y-135730886D02*
X108804294Y-136330886D01*
%TO.N,Net-(D77-DOUT)*%
X109854294Y-138080886D02*
X105354294Y-142580886D01*
X104004294Y-145030886D02*
X103804294Y-145030886D01*
X111504294Y-134830886D02*
X111104294Y-134830886D01*
X105354294Y-143680886D02*
X104004294Y-145030886D01*
X105354294Y-142580886D02*
X105354294Y-143680886D01*
X111104294Y-134830886D02*
X109854294Y-136080886D01*
X109854294Y-136080886D02*
X109854294Y-138080886D01*
%TO.N,Net-(D78-DOUT)*%
X104954294Y-146180886D02*
X105002823Y-146180886D01*
X106304294Y-143530886D02*
X104954294Y-144880886D01*
X104954294Y-144880886D02*
X104954294Y-146180886D01*
X105002823Y-146180886D02*
X106454294Y-147632357D01*
X106454294Y-147780886D02*
X105054294Y-149180886D01*
X105054294Y-149180886D02*
X104954294Y-149180886D01*
X106504294Y-143530886D02*
X106304294Y-143530886D01*
X106454294Y-147632357D02*
X106454294Y-147780886D01*
%TO.N,Net-(D79-DOUT)*%
X107654294Y-147680886D02*
X108654294Y-148680886D01*
X108654294Y-152055886D02*
X107129294Y-153580886D01*
X107129294Y-153580886D02*
X107054294Y-153580886D01*
X108654294Y-148680886D02*
X108654294Y-152055886D01*
%TO.N,Net-(D80-DOUT)*%
X108454294Y-156755886D02*
X106879294Y-158330886D01*
X108154294Y-156080886D02*
X108454294Y-156380886D01*
X108154294Y-153680886D02*
X108154294Y-156080886D01*
X108454294Y-156380886D02*
X108454294Y-156755886D01*
X109754294Y-152080886D02*
X108154294Y-153680886D01*
X106879294Y-158330886D02*
X106804294Y-158330886D01*
%TO.N,Net-(D82-DIN)*%
X105002823Y-163280886D02*
X104954294Y-163280886D01*
X107554294Y-158780886D02*
X107554294Y-160080886D01*
X106654294Y-160980886D02*
X106654294Y-161629415D01*
X106654294Y-161629415D02*
X105002823Y-163280886D01*
X109504294Y-156830886D02*
X107554294Y-158780886D01*
X107554294Y-160080886D02*
X106654294Y-160980886D01*
%TO.N,Net-(D82-DOUT)*%
X104395401Y-165839779D02*
X105954294Y-164280886D01*
X104395401Y-166782279D02*
X104395401Y-165839779D01*
X102520401Y-168657279D02*
X104395401Y-166782279D01*
X102445401Y-168657279D02*
X102520401Y-168657279D01*
X105954294Y-163480886D02*
X107654294Y-161780886D01*
X105954294Y-164280886D02*
X105954294Y-163480886D01*
%TO.N,Net-(D83-DOUT)*%
X110454294Y-162880886D02*
X106177901Y-167157279D01*
X112654294Y-158780886D02*
X110454294Y-160980886D01*
X110454294Y-160980886D02*
X110454294Y-162880886D01*
X112654294Y-153380886D02*
X112654294Y-158780886D01*
X106177901Y-167157279D02*
X105145401Y-167157279D01*
%TO.N,Net-(D84-DOUT)*%
X114604294Y-149230886D02*
X114604294Y-151130886D01*
X114604294Y-151130886D02*
X115354294Y-151880886D01*
%TO.N,Net-(D85-DOUT)*%
X116404294Y-146830886D02*
X117304294Y-147730886D01*
X116404294Y-145430886D02*
X116404294Y-146830886D01*
%TO.N,Net-(D87-DIN)*%
X133529294Y-119480886D02*
X135654294Y-119480886D01*
X129554294Y-124380886D02*
X132454294Y-121480886D01*
X119104294Y-143930886D02*
X119104294Y-138130886D01*
X135654294Y-119480886D02*
X138645401Y-116489779D01*
X132454294Y-121480886D02*
X132454294Y-120555886D01*
X120654294Y-136580886D02*
X120654294Y-134480886D01*
X125254294Y-129880886D02*
X125254294Y-129380886D01*
X126754294Y-127980886D02*
X129554294Y-125180886D01*
X119104294Y-138130886D02*
X120654294Y-136580886D01*
X138645401Y-116489779D02*
X138645401Y-111057279D01*
X129554294Y-125180886D02*
X129554294Y-124380886D01*
X120654294Y-134480886D02*
X125254294Y-129880886D01*
X125254294Y-129380886D02*
X126654294Y-127980886D01*
X126654294Y-127980886D02*
X126754294Y-127980886D01*
X132454294Y-120555886D02*
X133529294Y-119480886D01*
%TO.N,Net-(D87-DOUT)*%
X136854294Y-109980886D02*
X137254294Y-110380886D01*
X133669008Y-109980886D02*
X136854294Y-109980886D01*
X137254294Y-110380886D02*
X140521794Y-110380886D01*
X140521794Y-110380886D02*
X141345401Y-109557279D01*
X132845401Y-109157279D02*
X133669008Y-109980886D01*
%TO.N,Net-(D88-DOUT)*%
X127554294Y-108980886D02*
X131154294Y-108980886D01*
X131154294Y-108980886D02*
X131754294Y-108380886D01*
X126704294Y-108130886D02*
X127554294Y-108980886D01*
X134821794Y-108380886D02*
X135545401Y-107657279D01*
X131754294Y-108380886D02*
X134821794Y-108380886D01*
%TO.N,Net-(D89-DOUT)*%
X120969008Y-108480886D02*
X124754294Y-108480886D01*
X124754294Y-108480886D02*
X125854294Y-107380886D01*
X128654294Y-107380886D02*
X129404294Y-106630886D01*
X120045401Y-107557279D02*
X120969008Y-108480886D01*
X125854294Y-107380886D02*
X128654294Y-107380886D01*
%TO.N,Net-(D90-DOUT)*%
X122021794Y-106780886D02*
X122745401Y-106057279D01*
X117354294Y-109180886D02*
X118054294Y-108480886D01*
X118054294Y-108480886D02*
X118054294Y-107480886D01*
X118754294Y-106780886D02*
X122021794Y-106780886D01*
X114754294Y-109180886D02*
X117354294Y-109180886D01*
X113804294Y-108230886D02*
X114754294Y-109180886D01*
X118054294Y-107480886D02*
X118754294Y-106780886D01*
%TO.N,Net-(D91-DOUT)*%
X108254294Y-109780886D02*
X108254294Y-110055886D01*
X115754294Y-107480886D02*
X110554294Y-107480886D01*
X107029294Y-111280886D02*
X106954294Y-111280886D01*
X108254294Y-110055886D02*
X107029294Y-111280886D01*
X110554294Y-107480886D02*
X108254294Y-109780886D01*
X116504294Y-106730886D02*
X115754294Y-107480886D01*
%TO.N,Net-(D92-DOUT)*%
X107954294Y-111480886D02*
X107954294Y-111705886D01*
X103654294Y-115780886D02*
X102877901Y-116557279D01*
X108653795Y-110131385D02*
X108653795Y-110781385D01*
X105277901Y-114382279D02*
X104295401Y-114382279D01*
X109654294Y-109780886D02*
X109004294Y-109780886D01*
X109004294Y-109780886D02*
X108653795Y-110131385D01*
X102877901Y-116557279D02*
X102345401Y-116557279D01*
X107954294Y-111705886D02*
X105277901Y-114382279D01*
X104295401Y-114382279D02*
X103654294Y-115023386D01*
X103654294Y-115023386D02*
X103654294Y-115780886D01*
X108653795Y-110781385D02*
X107954294Y-111480886D01*
%TO.N,Net-(D93-DOUT)*%
X103254294Y-117380886D02*
X102254294Y-118380886D01*
X101696794Y-118380886D02*
X101295401Y-118782279D01*
X103254294Y-116848386D02*
X103254294Y-117380886D01*
X101295401Y-118782279D02*
X101295401Y-119082279D01*
X101295401Y-119082279D02*
X99420401Y-120957279D01*
X99420401Y-120957279D02*
X99345401Y-120957279D01*
X102254294Y-118380886D02*
X101696794Y-118380886D01*
X105045401Y-115057279D02*
X103254294Y-116848386D01*
%TO.N,Net-(D94-DOUT)*%
X100654294Y-121673386D02*
X100654294Y-124155886D01*
X100354294Y-120880886D02*
X100354294Y-121373386D01*
X100654294Y-124155886D02*
X99129294Y-125680886D01*
X101777901Y-119457279D02*
X100354294Y-120880886D01*
X102045401Y-119457279D02*
X101777901Y-119457279D01*
X100354294Y-121373386D02*
X100654294Y-121673386D01*
X99129294Y-125680886D02*
X99054294Y-125680886D01*
%TO.N,Net-(D95-DOUT)*%
X98779294Y-131630886D02*
X98704294Y-131630886D01*
X100454294Y-125080886D02*
X100454294Y-125705886D01*
X100354294Y-125805886D02*
X100354294Y-130055886D01*
X101754294Y-124180886D02*
X101354294Y-124180886D01*
X100354294Y-130055886D02*
X98779294Y-131630886D01*
X100454294Y-125705886D02*
X100354294Y-125805886D01*
X101354294Y-124180886D02*
X100454294Y-125080886D01*
%TO.N,Net-(D96-DOUT)*%
X97654294Y-132080886D02*
X97654294Y-119180886D01*
X99454294Y-132305886D02*
X98979294Y-132780886D01*
X99454294Y-132080886D02*
X99454294Y-132305886D01*
X95804294Y-117330886D02*
X95804294Y-117130886D01*
X97654294Y-119180886D02*
X95804294Y-117330886D01*
X98354294Y-132780886D02*
X97654294Y-132080886D01*
X101404294Y-130130886D02*
X99454294Y-132080886D01*
X98979294Y-132780886D02*
X98354294Y-132780886D01*
%TO.N,Net-(D98-DIN)*%
X95729294Y-114280886D02*
X92554294Y-117455886D01*
X98504294Y-115630886D02*
X97154294Y-114280886D01*
X92354294Y-117980886D02*
X92354294Y-118555886D01*
X92554294Y-117455886D02*
X92554294Y-117780886D01*
X92354294Y-118555886D02*
X90479294Y-120430886D01*
X90479294Y-120430886D02*
X90404294Y-120430886D01*
X92554294Y-117780886D02*
X92354294Y-117980886D01*
X97154294Y-114280886D02*
X95729294Y-114280886D01*
%TO.N,Net-(D98-DOUT)*%
X90054294Y-122280886D02*
X88254294Y-122280886D01*
X85920401Y-125057279D02*
X85845401Y-125057279D01*
X91654294Y-120680886D02*
X90054294Y-122280886D01*
X93104294Y-118930886D02*
X92604294Y-118930886D01*
X87554294Y-123423386D02*
X85920401Y-125057279D01*
X87554294Y-122980886D02*
X87554294Y-123423386D01*
X88254294Y-122280886D02*
X87554294Y-122980886D01*
X92604294Y-118930886D02*
X91654294Y-119880886D01*
X91654294Y-119880886D02*
X91654294Y-120680886D01*
%TO.N,Net-(D99-DOUT)*%
X85254294Y-126980886D02*
X83954294Y-126980886D01*
X88545401Y-123557279D02*
X87054294Y-125048386D01*
X87054294Y-125048386D02*
X87054294Y-125180886D01*
X81593930Y-129857279D02*
X81545401Y-129857279D01*
X83054294Y-128396915D02*
X81593930Y-129857279D01*
X83954294Y-126980886D02*
X83054294Y-127880886D01*
X83054294Y-127880886D02*
X83054294Y-128396915D01*
X87054294Y-125180886D02*
X85254294Y-126980886D01*
%TO.N,Net-(D100-DOUT)*%
X82554294Y-130180886D02*
X81454294Y-131280886D01*
X83777901Y-128357279D02*
X82554294Y-129580886D01*
X79154294Y-132580886D02*
X77704294Y-134030886D01*
X84245401Y-128357279D02*
X83777901Y-128357279D01*
X79954294Y-131280886D02*
X79154294Y-132080886D01*
X77704294Y-134030886D02*
X77604294Y-134030886D01*
X82554294Y-129580886D02*
X82554294Y-130180886D01*
X81454294Y-131280886D02*
X79954294Y-131280886D01*
X79154294Y-132080886D02*
X79154294Y-132580886D01*
%TO.N,Net-(D101-DOUT)*%
X72054294Y-135980886D02*
X71004294Y-134930886D01*
X75154294Y-135980886D02*
X72054294Y-135980886D01*
X78954294Y-134105886D02*
X78079294Y-134980886D01*
X78079294Y-134980886D02*
X76154294Y-134980886D01*
X79804294Y-132530886D02*
X78954294Y-133380886D01*
X80304294Y-132530886D02*
X79804294Y-132530886D01*
X76154294Y-134980886D02*
X75154294Y-135980886D01*
X78954294Y-133380886D02*
X78954294Y-134105886D01*
%TO.N,Net-(D103-DIN)*%
X70454294Y-132380886D02*
X71754294Y-132380886D01*
X65654294Y-132680886D02*
X66154294Y-132680886D01*
X69254294Y-133580886D02*
X70454294Y-132380886D01*
X67054294Y-133580886D02*
X69254294Y-133580886D01*
X66154294Y-132680886D02*
X67054294Y-133580886D01*
X71754294Y-132380886D02*
X72804294Y-133430886D01*
X72804294Y-133430886D02*
X73704294Y-133430886D01*
%TO.N,Net-(D103-DOUT)*%
X65945401Y-128771993D02*
X68354294Y-131180886D01*
X65945401Y-128157279D02*
X65945401Y-128771993D01*
%TO.N,Net-(D104-DOUT)*%
X62745401Y-124057279D02*
X63730687Y-124057279D01*
X63730687Y-124057279D02*
X64954294Y-125280886D01*
X67269008Y-125280886D02*
X68645401Y-126657279D01*
X64954294Y-125280886D02*
X67269008Y-125280886D01*
%TO.N,Net-(D105-DOUT)*%
X65345401Y-122457279D02*
X65445401Y-122557279D01*
X65345401Y-119957279D02*
X65345401Y-122457279D01*
%TO.N,Net-(D106-DOUT)*%
X64804294Y-116130886D02*
X65004294Y-116130886D01*
X67330687Y-118457279D02*
X68045401Y-118457279D01*
X65004294Y-116130886D02*
X67330687Y-118457279D01*
%TO.N,Net-(D107-DOUT)*%
X68504294Y-113630886D02*
X67504294Y-114630886D01*
X68504294Y-112630886D02*
X68504294Y-113630886D01*
%TO.N,Net-(D108-DOUT)*%
X69304294Y-108930886D02*
X69304294Y-109230886D01*
X69304294Y-109230886D02*
X71204294Y-111130886D01*
%TO.N,Net-(D109-DOUT)*%
X67804294Y-105130886D02*
X68954294Y-106280886D01*
X70854294Y-106280886D02*
X72004294Y-107430886D01*
X68954294Y-106280886D02*
X70854294Y-106280886D01*
%TO.N,Net-(D110-DOUT)*%
X69804294Y-103630886D02*
X70504294Y-103630886D01*
X67504294Y-101330886D02*
X69804294Y-103630886D01*
X67504294Y-101030886D02*
X67504294Y-101330886D01*
%TO.N,Net-(D111-DOUT)*%
X70204294Y-99330886D02*
X70204294Y-99530886D01*
X67204294Y-96680886D02*
X67554294Y-96680886D01*
X67554294Y-96680886D02*
X70204294Y-99330886D01*
%TO.N,Net-(D113-DIN)*%
X69004294Y-93030886D02*
X69004294Y-94280886D01*
X69004294Y-94280886D02*
X69904294Y-95180886D01*
%TO.N,Net-(D113-DOUT)*%
X70704294Y-90530886D02*
X71704294Y-91530886D01*
X70704294Y-89330886D02*
X70704294Y-90530886D01*
%TO.N,Net-(D114-DOUT)*%
X73404294Y-86730886D02*
X74554294Y-85580886D01*
X73404294Y-87830886D02*
X73404294Y-86730886D01*
%TO.N,Net-(D115-DOUT)*%
X76704294Y-82130886D02*
X76704294Y-83530886D01*
X76704294Y-83530886D02*
X77254294Y-84080886D01*
%TO.N,Net-(D116-DOUT)*%
X80804294Y-79230886D02*
X79404294Y-80630886D01*
X80904294Y-79230886D02*
X80804294Y-79230886D01*
%TO.N,Net-(D117-DOUT)*%
X90604294Y-75130886D02*
X91630816Y-75130886D01*
X91630816Y-75130886D02*
X92729922Y-74031780D01*
X87854294Y-76580886D02*
X89254294Y-76580886D01*
X97995401Y-72680886D02*
X99179294Y-72680886D01*
X86704294Y-77730886D02*
X87854294Y-76580886D01*
X90254294Y-75580886D02*
X90254294Y-75480886D01*
X99179294Y-72680886D02*
X101079294Y-70780886D01*
X92729922Y-74031780D02*
X96644507Y-74031780D01*
X96644507Y-74031780D02*
X97995401Y-72680886D01*
X101079294Y-70780886D02*
X101154294Y-70780886D01*
X83604294Y-77730886D02*
X86704294Y-77730886D01*
X89254294Y-76580886D02*
X90254294Y-75580886D01*
X90254294Y-75480886D02*
X90604294Y-75130886D01*
%TO.N,Net-(D119-DIN)*%
X104904294Y-68230886D02*
X103854294Y-69280886D01*
X106804294Y-68230886D02*
X104904294Y-68230886D01*
%TO.N,Net-(D119-DOUT)*%
X111145401Y-71457279D02*
X110395401Y-70707279D01*
X110395401Y-70707279D02*
X110395401Y-67739779D01*
X110454294Y-67680886D02*
X109504294Y-66730886D01*
X110395401Y-67739779D02*
X110454294Y-67680886D01*
%TO.N,Net-(D120-DOUT)*%
X115154294Y-68648386D02*
X113845401Y-69957279D01*
X115154294Y-67980886D02*
X115154294Y-68648386D01*
%TO.N,Net-(D121-DOUT)*%
X118054294Y-71380886D02*
X118054294Y-69780886D01*
X119054294Y-67380886D02*
X118154294Y-66480886D01*
X119054294Y-68780886D02*
X119054294Y-67380886D01*
X118154294Y-66480886D02*
X117854294Y-66480886D01*
X118054294Y-69780886D02*
X119054294Y-68780886D01*
X118804294Y-72130886D02*
X118054294Y-71380886D01*
%TO.N,Net-(D122-DOUT)*%
X122145401Y-67857279D02*
X122145401Y-69989779D01*
X122145401Y-69989779D02*
X121504294Y-70630886D01*
%TO.N,Net-(D123-DOUT)*%
X123154294Y-67780886D02*
X124577901Y-66357279D01*
X123154294Y-70266172D02*
X123154294Y-67780886D01*
X124345401Y-71457279D02*
X123154294Y-70266172D01*
X124577901Y-66357279D02*
X124845401Y-66357279D01*
%TO.N,Net-(D124-DOUT)*%
X129204294Y-72116172D02*
X127045401Y-69957279D01*
X127979294Y-75430886D02*
X129204294Y-74205886D01*
X129204294Y-74205886D02*
X129204294Y-72116172D01*
X127904294Y-75430886D02*
X127979294Y-75430886D01*
%TO.N,Net-(D125-DOUT)*%
X131354294Y-75680886D02*
X131354294Y-74680886D01*
X131354294Y-74680886D02*
X130604294Y-73930886D01*
X133254294Y-77580886D02*
X131354294Y-75680886D01*
%TO.N,Net-(D126-DOUT)*%
X137054294Y-76980886D02*
X136154294Y-76080886D01*
X134654294Y-79480886D02*
X135354294Y-78780886D01*
X135504294Y-81530886D02*
X134654294Y-80680886D01*
X134654294Y-80680886D02*
X134654294Y-79480886D01*
X136179294Y-78780886D02*
X137054294Y-77905886D01*
X136154294Y-76080886D02*
X135954294Y-76080886D01*
X135354294Y-78780886D02*
X136179294Y-78780886D01*
X137054294Y-77905886D02*
X137054294Y-76980886D01*
%TO.N,Net-(D127-DOUT)*%
X140204294Y-80030886D02*
X138204294Y-80030886D01*
%TO.N,/PORT_LED1_OUT*%
X143604294Y-78530886D02*
X142904294Y-78530886D01*
X145035055Y-83100125D02*
X144554294Y-82619364D01*
X144554294Y-79480886D02*
X143604294Y-78530886D01*
X144554294Y-82619364D02*
X144554294Y-79480886D01*
%TO.N,Net-(JP1-C)*%
X146754294Y-82980886D02*
X145954294Y-82180886D01*
X152569370Y-88856622D02*
X152569370Y-88695962D01*
X146854294Y-82980886D02*
X146754294Y-82980886D01*
X152569370Y-88695962D02*
X151854294Y-87980886D01*
%TO.N,Net-(D129-DOUT)*%
X156954294Y-95880886D02*
X156954294Y-95180886D01*
X154377901Y-98957279D02*
X155895401Y-97439779D01*
X155539218Y-93765810D02*
X155539218Y-89705150D01*
X153945401Y-98957279D02*
X154377901Y-98957279D01*
X155895401Y-96939779D02*
X156954294Y-95880886D01*
X156954294Y-95180886D02*
X155539218Y-93765810D01*
X155895401Y-97439779D02*
X155895401Y-96939779D01*
%TO.N,Net-(D130-DOUT)*%
X154646794Y-99680886D02*
X153244008Y-99680886D01*
X156570401Y-97457279D02*
X154695401Y-99332279D01*
X154695401Y-99332279D02*
X154695401Y-99632279D01*
X152054294Y-98380886D02*
X151454294Y-97780886D01*
X149329294Y-97780886D02*
X148429294Y-96880886D01*
X154695401Y-99632279D02*
X154646794Y-99680886D01*
X153244008Y-99680886D02*
X152054294Y-98491172D01*
X152054294Y-98491172D02*
X152054294Y-98380886D01*
X148429294Y-96880886D02*
X148354294Y-96880886D01*
X156645401Y-97457279D02*
X156570401Y-97457279D01*
X151454294Y-97780886D02*
X149329294Y-97780886D01*
%TO.N,Net-(D131-DOUT)*%
X141154294Y-95580886D02*
X141354294Y-95780886D01*
X146954294Y-96180886D02*
X149254294Y-96180886D01*
X141354294Y-95780886D02*
X146554294Y-95780886D01*
X132354294Y-95580886D02*
X141154294Y-95580886D01*
X126945401Y-96757279D02*
X128146872Y-96757279D01*
X149254294Y-96180886D02*
X150054294Y-95380886D01*
X128823265Y-96080886D02*
X131854294Y-96080886D01*
X128146872Y-96757279D02*
X128823265Y-96080886D01*
X150054294Y-95380886D02*
X151054294Y-95380886D01*
X131854294Y-96080886D02*
X132354294Y-95580886D01*
X146554294Y-95780886D02*
X146954294Y-96180886D01*
%TO.N,Net-(D132-DOUT)*%
X123444902Y-98671287D02*
X123444902Y-97890278D01*
X123454294Y-97880886D02*
X123454294Y-97680886D01*
X122358910Y-99757279D02*
X123444902Y-98671287D01*
X125052901Y-96082279D02*
X128170401Y-96082279D01*
X123444902Y-97890278D02*
X123454294Y-97880886D01*
X123454294Y-97680886D02*
X125052901Y-96082279D01*
X128995401Y-95257279D02*
X129645401Y-95257279D01*
X128170401Y-96082279D02*
X128995401Y-95257279D01*
X121745401Y-99757279D02*
X122358910Y-99757279D01*
%TO.N,Net-(D133-DOUT)*%
X122754294Y-99948386D02*
X124445401Y-98257279D01*
X120454294Y-102880886D02*
X122754294Y-100580886D01*
X122754294Y-100580886D02*
X122754294Y-99948386D01*
X116621794Y-102880886D02*
X120454294Y-102880886D01*
X115845401Y-103657279D02*
X116621794Y-102880886D01*
%TO.N,Net-(D135-DIN)*%
X125987215Y-94582279D02*
X123045401Y-97524093D01*
X133484294Y-87869515D02*
X133484294Y-88450886D01*
X118545401Y-101489779D02*
X118545401Y-102157279D01*
X133484294Y-88450886D02*
X127352901Y-94582279D01*
X120952901Y-99082279D02*
X118545401Y-101489779D01*
X134822923Y-86530886D02*
X133484294Y-87869515D01*
X127352901Y-94582279D02*
X125987215Y-94582279D01*
X122468930Y-99082279D02*
X120952901Y-99082279D01*
X123045401Y-97524093D02*
X123045401Y-98505808D01*
X135604294Y-86530886D02*
X134822923Y-86530886D01*
X123045401Y-98505808D02*
X122468930Y-99082279D01*
%TO.N,Net-(D135-DOUT)*%
X138054294Y-78080886D02*
X136954294Y-79180886D01*
X132454294Y-73780886D02*
X135354294Y-73780886D01*
X129354294Y-70680886D02*
X132454294Y-73780886D01*
X127604294Y-67730886D02*
X129354294Y-69480886D01*
X129354294Y-69480886D02*
X129354294Y-70680886D01*
X127604294Y-66330886D02*
X127604294Y-67730886D01*
X136954294Y-81780886D02*
X138304294Y-83130886D01*
X138304294Y-83130886D02*
X138304294Y-85030886D01*
X136954294Y-79180886D02*
X136954294Y-81780886D01*
X135354294Y-73780886D02*
X138054294Y-76480886D01*
X138054294Y-76480886D02*
X138054294Y-78080886D01*
%TO.N,Net-(D136-DOUT)*%
X132645401Y-65957279D02*
X131430687Y-65957279D01*
X131430687Y-65957279D02*
X130304294Y-64830886D01*
%TO.N,Net-(D137-DOUT)*%
X137604294Y-64130886D02*
X135671794Y-64130886D01*
X135671794Y-64130886D02*
X135345401Y-64457279D01*
%TO.N,Net-(D138-DOUT)*%
X139354294Y-61680886D02*
X140304294Y-62630886D01*
X123504294Y-62530886D02*
X123804294Y-62530886D01*
X129354294Y-62680886D02*
X135754294Y-62680886D01*
X136754294Y-61680886D02*
X139354294Y-61680886D01*
X125454294Y-60355886D02*
X127029294Y-60355886D01*
X135754294Y-62680886D02*
X136754294Y-61680886D01*
X123804294Y-62530886D02*
X125054294Y-61280886D01*
X127029294Y-60355886D02*
X129354294Y-62680886D01*
X125054294Y-61280886D02*
X125054294Y-60755886D01*
X125054294Y-60755886D02*
X125454294Y-60355886D01*
%TO.N,Net-(D139-DOUT)*%
X119154294Y-63880886D02*
X123954294Y-63880886D01*
X124954294Y-62880886D02*
X124954294Y-62280886D01*
X124954294Y-62280886D02*
X126204294Y-61030886D01*
X117404294Y-61630886D02*
X118654294Y-62880886D01*
X118654294Y-63380886D02*
X119154294Y-63880886D01*
X123954294Y-63880886D02*
X124954294Y-62880886D01*
X118654294Y-62880886D02*
X118654294Y-63380886D01*
%TO.N,Net-(D140-DOUT)*%
X120104294Y-59730886D02*
X122804294Y-57030886D01*
X120104294Y-60130886D02*
X120104294Y-59730886D01*
%TO.N,Net-(D141-DOUT)*%
X125504294Y-55530886D02*
X125504294Y-53880886D01*
X125504294Y-53880886D02*
X123904294Y-52280886D01*
%TO.N,Net-(D142-DOUT)*%
X126604294Y-48216172D02*
X125745401Y-47357279D01*
X126604294Y-50780886D02*
X126604294Y-48216172D01*
%TO.N,Net-(D143-DOUT)*%
X128445401Y-45857279D02*
X128445401Y-44357279D01*
X128445401Y-44357279D02*
X129745401Y-43057279D01*
%TO.N,Net-(D145-DIN)*%
X134277901Y-41557279D02*
X135104294Y-40730886D01*
X132445401Y-41557279D02*
X134277901Y-41557279D01*
%TO.N,Net-(D145-DOUT)*%
X141104294Y-42530886D02*
X137804294Y-39230886D01*
X141204294Y-42530886D02*
X141104294Y-42530886D01*
%TO.N,Net-(D146-DOUT)*%
X144954294Y-44166172D02*
X144954294Y-41780886D01*
X146645401Y-45857279D02*
X144954294Y-44166172D01*
X144954294Y-41780886D02*
X144204294Y-41030886D01*
X144204294Y-41030886D02*
X143904294Y-41030886D01*
%TO.N,Net-(D147-DOUT)*%
X147754294Y-45980886D02*
X147945401Y-45789779D01*
X147945401Y-45789779D02*
X147945401Y-45757279D01*
X146279294Y-50630886D02*
X147754294Y-49155886D01*
X146204294Y-50630886D02*
X146279294Y-50630886D01*
X147754294Y-49155886D02*
X147754294Y-45980886D01*
X147945401Y-45757279D02*
X149345401Y-44357279D01*
%TO.N,Net-(D148-DOUT)*%
X150095401Y-52907279D02*
X150095401Y-50321993D01*
X150845401Y-53657279D02*
X150095401Y-52907279D01*
X150095401Y-50321993D02*
X148904294Y-49130886D01*
%TO.N,Net-(D149-DOUT)*%
X150404294Y-58630886D02*
X150479294Y-58630886D01*
X152154294Y-53548386D02*
X153545401Y-52157279D01*
X150479294Y-58630886D02*
X152154294Y-56955886D01*
X152154294Y-56955886D02*
X152154294Y-53548386D01*
%TO.N,Net-(D151-DIN)*%
X153854294Y-61680886D02*
X153854294Y-59480886D01*
X154254294Y-59080886D02*
X154254294Y-58280886D01*
X154604294Y-62430886D02*
X153854294Y-61680886D01*
X154254294Y-58280886D02*
X153104294Y-57130886D01*
X153854294Y-59480886D02*
X154254294Y-59080886D01*
%TO.N,Net-(D151-DOUT)*%
X153704294Y-67030886D02*
X153779294Y-67030886D01*
X153779294Y-67030886D02*
X155354294Y-65455886D01*
X155354294Y-65455886D02*
X155354294Y-62880886D01*
X155354294Y-62880886D02*
X157304294Y-60930886D01*
%TO.N,Net-(D152-DOUT)*%
X156845401Y-71857279D02*
X155954294Y-70966172D01*
X155954294Y-68580886D02*
X154954294Y-67580886D01*
X154954294Y-67580886D02*
X154954294Y-66980886D01*
X155954294Y-70966172D02*
X155954294Y-68580886D01*
X154954294Y-66980886D02*
X156404294Y-65530886D01*
%TO.N,Net-(D153-DOUT)*%
X157645401Y-76757279D02*
X158077901Y-76757279D01*
X158154294Y-72680886D02*
X158154294Y-71748386D01*
X159154294Y-75680886D02*
X159154294Y-73680886D01*
X158077901Y-76757279D02*
X159154294Y-75680886D01*
X159154294Y-73680886D02*
X158154294Y-72680886D01*
X158154294Y-71748386D02*
X159545401Y-70357279D01*
%TO.N,Net-(D154-DOUT)*%
X160554294Y-78780886D02*
X158954294Y-77180886D01*
X159045401Y-81557279D02*
X159477901Y-81557279D01*
X158954294Y-76649857D02*
X160345401Y-75258750D01*
X158954294Y-77180886D02*
X158954294Y-76649857D01*
X159477901Y-81557279D02*
X160554294Y-80480886D01*
X160345401Y-75258750D02*
X160345401Y-75257279D01*
X160554294Y-80480886D02*
X160554294Y-78780886D01*
%TO.N,Net-(D155-DOUT)*%
X159704294Y-86680886D02*
X159779294Y-86680886D01*
X161154294Y-83980886D02*
X160254294Y-83080886D01*
X159779294Y-86680886D02*
X161154294Y-85305886D01*
X160254294Y-81548386D02*
X161745401Y-80057279D01*
X160254294Y-83080886D02*
X160254294Y-81548386D01*
X161154294Y-85305886D02*
X161154294Y-83980886D01*
%TO.N,Net-(D156-DOUT)*%
X161254294Y-77980886D02*
X161254294Y-74080886D01*
X161254294Y-77980886D02*
X162554294Y-79280886D01*
X142654294Y-45580886D02*
X144154294Y-47080886D01*
X162404294Y-85180886D02*
X162554294Y-85030886D01*
X162554294Y-85030886D02*
X162554294Y-79280886D01*
X160354294Y-73180886D02*
X160354294Y-69180886D01*
X160354294Y-73180886D02*
X161254294Y-74080886D01*
X160354294Y-69180886D02*
X159754294Y-68580886D01*
X142654294Y-38380886D02*
X142654294Y-45580886D01*
X141604294Y-37330886D02*
X142654294Y-38380886D01*
%TO.N,Net-(D157-DOUT)*%
X140379294Y-35155886D02*
X139154294Y-36380886D01*
X139154294Y-36380886D02*
X136454294Y-36380886D01*
X144304294Y-35830886D02*
X143629294Y-35155886D01*
X136454294Y-36380886D02*
X135604294Y-35530886D01*
X143629294Y-35155886D02*
X140379294Y-35155886D01*
%TO.N,Net-(D158-DOUT)*%
X138304294Y-34030886D02*
X138304294Y-31830886D01*
X138304294Y-31830886D02*
X138004294Y-31530886D01*
%TO.N,Net-(D159-DOUT)*%
X140029294Y-29355886D02*
X135779294Y-29355886D01*
X140704294Y-30030886D02*
X140029294Y-29355886D01*
X134554294Y-30580886D02*
X131669008Y-30580886D01*
X135779294Y-29355886D02*
X134554294Y-30580886D01*
X131669008Y-30580886D02*
X130845401Y-29757279D01*
%TO.N,Net-(D161-DIN)*%
X133545401Y-26757279D02*
X134445401Y-25857279D01*
X133545401Y-28257279D02*
X133545401Y-26757279D01*
%TO.N,Net-(D161-DOUT)*%
X137145401Y-24357279D02*
X136470401Y-23682279D01*
X136470401Y-23682279D02*
X133452901Y-23682279D01*
X132454294Y-25580886D02*
X132129294Y-25905886D01*
X132454294Y-24680886D02*
X132454294Y-25580886D01*
X133452901Y-23682279D02*
X132454294Y-24680886D01*
X132129294Y-25905886D02*
X129179294Y-25905886D01*
X129179294Y-25905886D02*
X128504294Y-25230886D01*
%TO.N,Net-(D162-DOUT)*%
X123554294Y-25380886D02*
X122804294Y-26130886D01*
X126254294Y-24380886D02*
X126254294Y-25305886D01*
X131204294Y-23730886D02*
X130529294Y-23055886D01*
X130529294Y-23055886D02*
X127579294Y-23055886D01*
X126254294Y-25305886D02*
X126179294Y-25380886D01*
X126179294Y-25380886D02*
X123554294Y-25380886D01*
X127579294Y-23055886D02*
X126254294Y-24380886D01*
%TO.N,Net-(D163-DOUT)*%
X122804294Y-21930886D02*
X122504294Y-21930886D01*
X125504294Y-24630886D02*
X122804294Y-21930886D01*
%TO.N,Net-(D164-DOUT)*%
X125204294Y-20430886D02*
X129554294Y-20430886D01*
X129554294Y-20430886D02*
X129704294Y-20280886D01*
%TO.N,Net-(D165-DOUT)*%
X125469008Y-17780886D02*
X124145401Y-16457279D01*
X132404294Y-18780886D02*
X131404294Y-17780886D01*
X131404294Y-17780886D02*
X125469008Y-17780886D01*
%TO.N,Net-(D167-DIN)*%
X126845401Y-14957279D02*
X126121794Y-15680886D01*
X121596794Y-17580886D02*
X118921794Y-17580886D01*
X118921794Y-17580886D02*
X118145401Y-18357279D01*
X126121794Y-15680886D02*
X123496794Y-15680886D01*
X123496794Y-15680886D02*
X121596794Y-17580886D01*
%TO.N,Net-(D167-DOUT)*%
X119554294Y-12680886D02*
X119554294Y-11180886D01*
X120845401Y-16857279D02*
X120845401Y-13971993D01*
X120845401Y-13971993D02*
X119554294Y-12680886D01*
%TO.N,Net-(D168-DOUT)*%
X121554294Y-10380886D02*
X118854294Y-10380886D01*
X117554294Y-11680886D02*
X114821794Y-11680886D01*
X122254294Y-9680886D02*
X121554294Y-10380886D01*
X114821794Y-11680886D02*
X114145401Y-12357279D01*
X118854294Y-10380886D02*
X117554294Y-11680886D01*
%TO.N,Net-(D169-DOUT)*%
X116845401Y-10857279D02*
X116845401Y-9271993D01*
X116845401Y-9271993D02*
X114154294Y-6580886D01*
%TO.N,Net-(D170-DOUT)*%
X108954294Y-7280886D02*
X112054294Y-7280886D01*
X113454294Y-5880886D02*
X116054294Y-5880886D01*
X112054294Y-7280886D02*
X113454294Y-5880886D01*
X108954294Y-7280886D02*
X108154294Y-8080886D01*
X116854294Y-5080886D02*
X116054294Y-5880886D01*
%TO.N,Net-(D171-DOUT)*%
X110854294Y-6580886D02*
X110854294Y-5480886D01*
X110854294Y-5480886D02*
X106804294Y-1430886D01*
%TO.N,Net-(D172-DOUT)*%
X103754294Y-3080886D02*
X101004294Y-3080886D01*
X106154294Y-680886D02*
X103754294Y-3080886D01*
X108704294Y69114D02*
X107954294Y-680886D01*
X109504294Y69114D02*
X108704294Y69114D01*
X101004294Y-3080886D02*
X100304294Y-3780886D01*
X107954294Y-680886D02*
X106154294Y-680886D01*
%TO.N,Net-(D173-DOUT)*%
X101054294Y-330886D02*
X101054294Y-280886D01*
X101054294Y-280886D02*
X100154294Y619114D01*
X100154294Y619114D02*
X100154294Y1219114D01*
X103004294Y-2280886D02*
X101054294Y-330886D01*
%TO.N,Net-(D174-DOUT)*%
X102854294Y2719114D02*
X101354294Y4219114D01*
X101354294Y4219114D02*
X95954294Y4219114D01*
X95954294Y4219114D02*
X94904294Y5269114D01*
%TO.N,Net-(D175-DOUT)*%
X93004294Y469114D02*
X92904294Y469114D01*
X94204294Y1669114D02*
X93004294Y469114D01*
X94154294Y5944114D02*
X94154294Y2419114D01*
X97604294Y6769114D02*
X96804294Y6769114D01*
X94229294Y6019114D02*
X94154294Y5944114D01*
X94204294Y2369114D02*
X94204294Y1669114D01*
X96054294Y6019114D02*
X94229294Y6019114D01*
X96804294Y6769114D02*
X96054294Y6019114D01*
X94154294Y2419114D02*
X94204294Y2369114D01*
%TO.N,Net-(D177-DIN)*%
X95529294Y1969114D02*
X93954294Y394114D01*
X90153795Y6394613D02*
X88679294Y7869114D01*
X88679294Y7869114D02*
X88604294Y7869114D01*
X90153795Y1819613D02*
X90153795Y6394613D01*
X93454294Y-280886D02*
X92254294Y-280886D01*
X95604294Y1969114D02*
X95529294Y1969114D01*
X93954294Y219114D02*
X93454294Y-280886D01*
X93954294Y394114D02*
X93954294Y219114D01*
X92254294Y-280886D02*
X90153795Y1819613D01*
%TO.N,Net-(D177-DOUT)*%
X89754294Y5019114D02*
X87754294Y7019114D01*
X90554294Y8619114D02*
X91304294Y9369114D01*
X87929294Y8619114D02*
X90554294Y8619114D01*
X87754294Y8444114D02*
X87929294Y8619114D01*
X87754294Y7019114D02*
X87754294Y8444114D01*
X86854294Y3619114D02*
X89479294Y3619114D01*
X86104294Y2869114D02*
X86854294Y3619114D01*
X89479294Y3619114D02*
X89754294Y3894114D01*
X89754294Y3894114D02*
X89754294Y5019114D01*
%TO.N,Net-(D178-DOUT)*%
X83830687Y10542721D02*
X83445401Y10542721D01*
X88804294Y4369114D02*
X83854294Y9319114D01*
X83854294Y9319114D02*
X83854294Y10519114D01*
X83854294Y10519114D02*
X83830687Y10542721D01*
%TO.N,Net-(D179-DOUT)*%
X81654294Y10176614D02*
X81654294Y6394114D01*
X85577901Y12042721D02*
X84854294Y11319114D01*
X82796794Y11319114D02*
X81654294Y10176614D01*
X84854294Y11319114D02*
X82796794Y11319114D01*
X86145401Y12042721D02*
X85577901Y12042721D01*
X80179294Y4919114D02*
X80104294Y4919114D01*
X81654294Y6394114D02*
X80179294Y4919114D01*
%TO.N,Net-(D180-DOUT)*%
X81454294Y4844114D02*
X80854294Y4244114D01*
X79394274Y4244114D02*
X78253795Y5384593D01*
X80854294Y4244114D02*
X79394274Y4244114D01*
X76804294Y11519114D02*
X76154294Y11519114D01*
X81454294Y5144114D02*
X81454294Y4844114D01*
X78253795Y10069613D02*
X76804294Y11519114D01*
X82804294Y6419114D02*
X82729294Y6419114D01*
X78253795Y5384593D02*
X78253795Y10069613D01*
X82729294Y6419114D02*
X81454294Y5144114D01*
%TO.N,Net-(D181-DOUT)*%
X78254294Y13019114D02*
X77454294Y12219114D01*
X73654294Y7919114D02*
X74404294Y7169114D01*
X73654294Y10444114D02*
X73654294Y7919114D01*
X75754294Y12319114D02*
X75529294Y12319114D01*
X75529294Y12319114D02*
X73654294Y10444114D01*
X75854294Y12219114D02*
X75754294Y12319114D01*
X77454294Y12219114D02*
X75854294Y12219114D01*
X78854294Y13019114D02*
X78254294Y13019114D01*
%TO.N,Net-(D183-DIN)*%
X75853795Y6628635D02*
X75853795Y7418615D01*
X68345401Y7942721D02*
X70468509Y5819613D01*
X70468509Y5819613D02*
X74919773Y5819613D01*
X75853795Y7418615D02*
X77104294Y8669114D01*
X75119274Y6019114D02*
X75244274Y6019114D01*
X74919773Y5819613D02*
X75119274Y6019114D01*
X75244274Y6019114D02*
X75853795Y6628635D01*
%TO.N,Net-(D183-DOUT)*%
X71045401Y9442721D02*
X69604294Y10883828D01*
X69604294Y10883828D02*
X69604294Y12669114D01*
%TO.N,Net-(D184-DOUT)*%
X70754294Y12619114D02*
X70754294Y11419114D01*
X64654294Y12819114D02*
X64804294Y12969114D01*
X72304294Y14169114D02*
X70754294Y12619114D01*
X64254294Y12819114D02*
X64654294Y12819114D01*
%TO.N,Net-(D185-DOUT)*%
X62704294Y9169114D02*
X63854294Y8019114D01*
X63854294Y8019114D02*
X65679294Y8019114D01*
X65679294Y8019114D02*
X66553795Y8893615D01*
X68454294Y13519114D02*
X67504294Y14469114D01*
X66553795Y10118615D02*
X68454294Y12019114D01*
X68454294Y12019114D02*
X68454294Y13519114D01*
X66553795Y8893615D02*
X66553795Y10118615D01*
%TO.N,Net-(D186-DOUT)*%
X63354294Y12719114D02*
X61154294Y12719114D01*
X65404294Y10669114D02*
X63354294Y12719114D01*
X61154294Y12719114D02*
X60004294Y13869114D01*
%TO.N,Net-(D187-DOUT)*%
X36747892Y14319114D02*
X29954294Y14319114D01*
X57861693Y14619114D02*
X56861194Y15619613D01*
X21754294Y10819114D02*
X21754294Y7619114D01*
X48154294Y15619114D02*
X39260696Y15619114D01*
X61954294Y14619114D02*
X57861693Y14619114D01*
X37661195Y14019613D02*
X37047393Y14019613D01*
X37047393Y14019613D02*
X36747892Y14319114D01*
X22554294Y11619114D02*
X21754294Y10819114D01*
X62704294Y15369114D02*
X61954294Y14619114D01*
X56861194Y15619613D02*
X48154793Y15619613D01*
X48154793Y15619613D02*
X48154294Y15619114D01*
X27254294Y11619114D02*
X22554294Y11619114D01*
X21754294Y7619114D02*
X25104294Y4269114D01*
X29954294Y14319114D02*
X27254294Y11619114D01*
X39260696Y15619114D02*
X37661195Y14019613D01*
%TO.N,Net-(D188-DOUT)*%
X27804294Y5769114D02*
X27104294Y5769114D01*
X25454294Y7419114D02*
X23854294Y7419114D01*
X27104294Y5769114D02*
X25454294Y7419114D01*
X23854294Y7419114D02*
X22554294Y8719114D01*
%TO.N,Net-(D189-DOUT)*%
X28654294Y1119114D02*
X27554294Y19114D01*
X25054294Y19114D02*
X24304294Y-730886D01*
X27554294Y19114D02*
X25054294Y19114D01*
X25254294Y10219114D02*
X28654294Y6819114D01*
X28654294Y6819114D02*
X28654294Y1119114D01*
%TO.N,Net-(D190-DOUT)*%
X24554294Y3219114D02*
X20789314Y3219114D01*
X18720401Y919114D02*
X18645401Y919114D01*
X19945401Y2144114D02*
X18720401Y919114D01*
X27004294Y769114D02*
X24554294Y3219114D01*
X19945401Y2375201D02*
X19945401Y2144114D01*
X20789314Y3219114D02*
X19945401Y2375201D01*
%TO.N,Net-(D191-DOUT)*%
X18504294Y-730886D02*
X18504294Y-2430886D01*
X18454294Y-2480886D02*
X19054294Y-3080886D01*
X20554294Y2419114D02*
X20344902Y2209722D01*
X20344902Y1828506D02*
X20354294Y1819114D01*
X18504294Y-2430886D02*
X18454294Y-2480886D01*
X19054294Y-3080886D02*
X19254294Y-3080886D01*
X19654294Y419114D02*
X18504294Y-730886D01*
X20354294Y1819114D02*
X19654294Y1119114D01*
X19654294Y1119114D02*
X19654294Y419114D01*
X21345401Y2419114D02*
X20554294Y2419114D01*
X20344902Y2209722D02*
X20344902Y1828506D01*
%TO.N,Net-(D193-DIN)*%
X20554294Y-5980886D02*
X21754294Y-7180886D01*
X21954294Y-1580886D02*
X21254294Y-1580886D01*
X20554294Y-2280886D02*
X20554294Y-5980886D01*
X21254294Y-1580886D02*
X20554294Y-2280886D01*
%TO.N,Net-(D193-DOUT)*%
X24454294Y-5680886D02*
X26654294Y-5680886D01*
X26654294Y-5680886D02*
X27154294Y-5180886D01*
%TO.N,Net-(D194-DOUT)*%
X29954294Y-3680886D02*
X31654294Y-5380886D01*
X29854294Y-3680886D02*
X29954294Y-3680886D01*
%TO.N,Net-(D195-DOUT)*%
X29254294Y-8255886D02*
X27929294Y-9580886D01*
X30229294Y-6980886D02*
X29254294Y-7955886D01*
X29254294Y-7955886D02*
X29254294Y-8255886D01*
X32654294Y-5080886D02*
X32654294Y-6280886D01*
X31954294Y-6980886D02*
X30229294Y-6980886D01*
X27929294Y-9580886D02*
X27854294Y-9580886D01*
X32654294Y-6280886D02*
X31954294Y-6980886D01*
X33854294Y-3880886D02*
X32654294Y-5080886D01*
X34354294Y-3880886D02*
X33854294Y-3880886D01*
%TO.N,Net-(D196-DOUT)*%
X30554294Y-8080886D02*
X36054294Y-8080886D01*
X36054294Y-8080886D02*
X36454294Y-7680886D01*
%TO.N,Net-(D197-DOUT)*%
X37754294Y-7582357D02*
X37754294Y-8015894D01*
X38954294Y-10455886D02*
X37729294Y-11680886D01*
X37754294Y-8015894D02*
X38954294Y-9215894D01*
X39154294Y-6180886D02*
X39154294Y-6182357D01*
X39154294Y-6182357D02*
X37754294Y-7582357D01*
X37729294Y-11680886D02*
X37654294Y-11680886D01*
X38954294Y-9215894D02*
X38954294Y-10455886D01*
%TO.N,Net-(D199-DIN)*%
X40354294Y-10180886D02*
X41104294Y-10930886D01*
X41104294Y-10930886D02*
X41104294Y-13705886D01*
X39329294Y-15480886D02*
X39254294Y-15480886D01*
X41104294Y-13705886D02*
X39329294Y-15480886D01*
%TO.N,Net-(D199-DOUT)*%
X40154294Y-15380886D02*
X40154294Y-16080886D01*
X37854294Y-16180886D02*
X36654294Y-14980886D01*
X40054294Y-16180886D02*
X37854294Y-16180886D01*
X40154294Y-15380886D02*
X41554294Y-13980886D01*
X36454294Y-12480886D02*
X36654294Y-12680886D01*
X41954294Y-13980886D02*
X41554294Y-13980886D01*
X34454294Y-12480886D02*
X36454294Y-12480886D01*
X40154294Y-16080886D02*
X40054294Y-16180886D01*
X33654294Y-13280886D02*
X34454294Y-12480886D01*
X36654294Y-14980886D02*
X36654294Y-12680886D01*
X32954294Y-13280886D02*
X33654294Y-13280886D01*
%TO.N,Net-(D200-DOUT)*%
X34154294Y-10880886D02*
X32554294Y-10880886D01*
X31254294Y-15080886D02*
X31254294Y-16680886D01*
X35054294Y-11780886D02*
X34154294Y-10880886D01*
X32554294Y-10880886D02*
X32054294Y-11380886D01*
X31854294Y-17280886D02*
X32154294Y-17280886D01*
X32054294Y-11380886D02*
X32054294Y-14280886D01*
X35654294Y-11780886D02*
X35054294Y-11780886D01*
X31254294Y-16680886D02*
X31854294Y-17280886D01*
X32054294Y-14280886D02*
X31254294Y-15080886D01*
%TO.N,Net-(D201-DOUT)*%
X34779294Y-15780886D02*
X33404793Y-17155387D01*
X33404793Y-19165407D02*
X33254793Y-19315407D01*
X31929294Y-21380886D02*
X31854294Y-21380886D01*
X33404793Y-17155387D02*
X33404793Y-19165407D01*
X33254793Y-20055387D02*
X31929294Y-21380886D01*
X34854294Y-15780886D02*
X34779294Y-15780886D01*
X33254793Y-19315407D02*
X33254793Y-20055387D01*
%TO.N,Net-(D202-DOUT)*%
X38854294Y-19880886D02*
X39004294Y-19730886D01*
X34554294Y-19880886D02*
X38854294Y-19880886D01*
%TO.N,Net-(D203-DOUT)*%
X43295401Y-19821993D02*
X43295401Y-20554493D01*
X44045401Y-21304493D02*
X43554294Y-21280886D01*
X41704294Y-18230886D02*
X43295401Y-19821993D01*
X43577901Y-21304493D02*
X44045401Y-21304493D01*
X43295401Y-20554493D02*
X44045401Y-21304493D01*
X43554294Y-21280886D02*
X43577901Y-21304493D01*
%TO.N,Net-(D204-DOUT)*%
X45254294Y-21520600D02*
X44194008Y-22580886D01*
X38254294Y-22580886D02*
X37454294Y-23380886D01*
X46230687Y-19804493D02*
X45254294Y-20780886D01*
X44194008Y-22580886D02*
X38254294Y-22580886D01*
X45254294Y-20780886D02*
X45254294Y-21520600D01*
X46745401Y-19804493D02*
X46230687Y-19804493D01*
%TO.N,Net-(D205-DOUT)*%
X40079294Y-21880886D02*
X38879294Y-20680886D01*
X34454793Y-24055387D02*
X33029294Y-25480886D01*
X36989314Y-20680886D02*
X34454793Y-23215407D01*
X38879294Y-20680886D02*
X36989314Y-20680886D01*
X33029294Y-25480886D02*
X32954294Y-25480886D01*
X34454793Y-23215407D02*
X34454793Y-24055387D01*
X40154294Y-21880886D02*
X40079294Y-21880886D01*
%TO.N,Net-(D206-DOUT)*%
X36404294Y-24730886D02*
X36404294Y-26205886D01*
X35654294Y-23980886D02*
X36404294Y-24730886D01*
X36054294Y-27380886D02*
X37054294Y-28380886D01*
X36054294Y-26555886D02*
X36054294Y-27380886D01*
X36404294Y-26205886D02*
X36054294Y-26555886D01*
%TO.N,Net-(D207-DOUT)*%
X43421794Y-26880886D02*
X43745401Y-27204493D01*
X39754294Y-26880886D02*
X43421794Y-26880886D01*
%TO.N,Net-(D209-DIN)*%
X46445401Y-25704493D02*
X45053795Y-27096099D01*
X45879294Y-32380886D02*
X45954294Y-32380886D01*
X45053795Y-31555387D02*
X45879294Y-32380886D01*
X45053795Y-27096099D02*
X45053795Y-31555387D01*
%TO.N,Net-(D209-DOUT)*%
X44554294Y-33880886D02*
X44554294Y-34223386D01*
X46554294Y-33180886D02*
X45254294Y-33180886D01*
X43220401Y-35557279D02*
X43145401Y-35557279D01*
X46954294Y-32580886D02*
X46954294Y-32780886D01*
X48654294Y-30880886D02*
X46954294Y-32580886D01*
X44554294Y-34223386D02*
X43220401Y-35557279D01*
X45254294Y-33180886D02*
X44554294Y-33880886D01*
X46954294Y-32780886D02*
X46554294Y-33180886D01*
%TO.N,Net-(D210-DOUT)*%
X43054294Y-39266172D02*
X44145401Y-40357279D01*
X46454294Y-36480886D02*
X45096794Y-36480886D01*
X43054294Y-38523386D02*
X43054294Y-39266172D01*
X45096794Y-36480886D02*
X43054294Y-38523386D01*
X46595401Y-34807279D02*
X46595401Y-36339779D01*
X45845401Y-34057279D02*
X46595401Y-34807279D01*
X46595401Y-36339779D02*
X46454294Y-36480886D01*
%TO.N,Net-(D211-DOUT)*%
X46845401Y-38857279D02*
X46845401Y-38389779D01*
X46845401Y-38389779D02*
X48604294Y-36630886D01*
%TO.N,Net-(D212-DOUT)*%
X51304294Y-35130886D02*
X52845401Y-36671993D01*
X52077901Y-40057279D02*
X51545401Y-40057279D01*
X52845401Y-39289779D02*
X52077901Y-40057279D01*
X52845401Y-36671993D02*
X52845401Y-39289779D01*
%TO.N,Net-(D213-DOUT)*%
X48879294Y-43030886D02*
X50754294Y-41155886D01*
X50754294Y-41155886D02*
X50754294Y-40855886D01*
X52154294Y-40780886D02*
X52995401Y-39939779D01*
X52995401Y-39807279D02*
X54245401Y-38557279D01*
X50754294Y-40855886D02*
X50829294Y-40780886D01*
X50829294Y-40780886D02*
X52154294Y-40780886D01*
X48804294Y-43030886D02*
X48879294Y-43030886D01*
X52995401Y-39939779D02*
X52995401Y-39807279D01*
%TO.N,Net-(D215-DIN)*%
X51504294Y-41530886D02*
X53874334Y-41530886D01*
X55202901Y-40732279D02*
X56804294Y-39130886D01*
X53874334Y-41530886D02*
X54672941Y-40732279D01*
X54672941Y-40732279D02*
X55202901Y-40732279D01*
%TO.N,Net-(D215-DOUT)*%
X54354294Y-41615906D02*
X54354294Y-42496993D01*
X54354294Y-42496993D02*
X53020401Y-43830886D01*
X56103400Y-41131780D02*
X54838420Y-41131780D01*
X57554294Y-39580886D02*
X57554294Y-39680886D01*
X57554294Y-39680886D02*
X56103400Y-41131780D01*
X59504294Y-37630886D02*
X57554294Y-39580886D01*
X54838420Y-41131780D02*
X54354294Y-41615906D01*
X53020401Y-43830886D02*
X52945401Y-43830886D01*
%TO.N,Net-(D216-DOUT)*%
X55645401Y-42330886D02*
X56395401Y-43080886D01*
X56354294Y-44580886D02*
X56354294Y-44980886D01*
X56395401Y-43080886D02*
X56395401Y-44539779D01*
X56395401Y-44539779D02*
X56354294Y-44580886D01*
X56354294Y-44980886D02*
X57304294Y-45930886D01*
%TO.N,Net-(D217-DOUT)*%
X60704294Y-43730886D02*
X60004294Y-44430886D01*
X61704294Y-43730886D02*
X60704294Y-43730886D01*
%TO.N,Net-(D218-DOUT)*%
X62604294Y-40030886D02*
X62604294Y-40430886D01*
X62604294Y-40430886D02*
X64404294Y-42230886D01*
%TO.N,Net-(D219-DOUT)*%
X65304294Y-38530886D02*
X67304294Y-38530886D01*
X67304294Y-38530886D02*
X67804294Y-39030886D01*
%TO.N,Net-(D220-DOUT)*%
X70504294Y-37530886D02*
X72304294Y-37530886D01*
X72304294Y-37530886D02*
X72604294Y-37830886D01*
%TO.N,Net-(D221-DOUT)*%
X75304294Y-36330886D02*
X76604294Y-36330886D01*
X76604294Y-36330886D02*
X77604294Y-37330886D01*
%TO.N,Net-(D222-DOUT)*%
X81204294Y-35830886D02*
X82104294Y-36730886D01*
X80304294Y-35830886D02*
X81204294Y-35830886D01*
%TO.N,Net-(D223-DOUT)*%
X84804294Y-35230886D02*
X84804294Y-35430886D01*
X84804294Y-35430886D02*
X86804294Y-37430886D01*
%TO.N,Net-(D225-DIN)*%
X89704294Y-35930886D02*
X91704294Y-37930886D01*
X89504294Y-35930886D02*
X89704294Y-35930886D01*
%TO.N,Net-(D225-DOUT)*%
X95195401Y-37607279D02*
X95945401Y-38357279D01*
X95195401Y-37221993D02*
X95195401Y-37607279D01*
X94404294Y-36430886D02*
X95195401Y-37221993D01*
%TO.N,Net-(D226-DOUT)*%
X98645401Y-36857279D02*
X99645401Y-36857279D01*
X99645401Y-36857279D02*
X101445401Y-38657279D01*
%TO.N,Net-(D227-DOUT)*%
X104145401Y-37157279D02*
X104145401Y-36357279D01*
X104145401Y-36357279D02*
X106345401Y-34157279D01*
%TO.N,Net-(D228-DOUT)*%
X107119008Y-30730886D02*
X109045401Y-32657279D01*
X107004294Y-30730886D02*
X107119008Y-30730886D01*
%TO.N,Net-(D229-DOUT)*%
X110604294Y-28330886D02*
X109704294Y-29230886D01*
X112504294Y-28330886D02*
X110604294Y-28330886D01*
%TO.N,Net-(D231-DIN)*%
X116145401Y-25889779D02*
X115204294Y-26830886D01*
X116145401Y-24457279D02*
X116145401Y-25889779D01*
%TO.N,Net-(D231-DOUT)*%
X110054793Y-32615407D02*
X111588815Y-31081385D01*
X108654294Y-35915906D02*
X110054793Y-34515407D01*
X113354793Y-28380387D02*
X114154294Y-27580886D01*
X116054294Y-27580886D02*
X117354294Y-26280886D01*
X113354793Y-29515407D02*
X113354793Y-28380387D01*
X111588815Y-31081385D02*
X111788815Y-31081385D01*
X110054793Y-34515407D02*
X110054793Y-32615407D01*
X111788815Y-31081385D02*
X113354793Y-29515407D01*
X108654294Y-38223386D02*
X108654294Y-35915906D01*
X117354294Y-26280886D02*
X117354294Y-24448386D01*
X117354294Y-24448386D02*
X118845401Y-22957279D01*
X106920401Y-39957279D02*
X108654294Y-38223386D01*
X106845401Y-39957279D02*
X106920401Y-39957279D01*
X114154294Y-27580886D02*
X116054294Y-27580886D01*
%TO.N,Net-(D232-DOUT)*%
X107554294Y-44205886D02*
X108404294Y-45055886D01*
X107595401Y-43339779D02*
X107554294Y-43380886D01*
X108404294Y-45055886D02*
X108404294Y-45130886D01*
X107595401Y-40407279D02*
X107595401Y-43339779D01*
X109545401Y-38457279D02*
X107595401Y-40407279D01*
X107554294Y-43380886D02*
X107554294Y-44205886D01*
%TO.N,Net-(D233-DOUT)*%
X109454294Y-45280886D02*
X109454294Y-49480886D01*
X109454294Y-49480886D02*
X110204294Y-50230886D01*
X111104294Y-43630886D02*
X109454294Y-45280886D01*
%TO.N,Net-(D234-DOUT)*%
X112904294Y-48730886D02*
X111654294Y-49980886D01*
X111654294Y-54480886D02*
X113354294Y-56180886D01*
X111654294Y-49980886D02*
X111654294Y-54480886D01*
%TO.N,Net-(D235-DOUT)*%
X98454294Y-66155886D02*
X98929294Y-65680886D01*
X111354294Y-67180886D02*
X116254294Y-67180886D01*
X116854294Y-66580886D02*
X116854294Y-62780886D01*
X102854294Y-65980886D02*
X110154294Y-65980886D01*
X116054294Y-61980886D02*
X116054294Y-58880886D01*
X98454294Y-66580886D02*
X98454294Y-66155886D01*
X114654294Y-55780886D02*
X115754294Y-54680886D01*
X110154294Y-65980886D02*
X111354294Y-67180886D01*
X115754294Y-54680886D02*
X116054294Y-54680886D01*
X97104294Y-67930886D02*
X98454294Y-66580886D01*
X116254294Y-67180886D02*
X116854294Y-66580886D01*
X102554294Y-65680886D02*
X102854294Y-65980886D01*
X116054294Y-58880886D02*
X114654294Y-57480886D01*
X116854294Y-62780886D02*
X116054294Y-61980886D01*
X98929294Y-65680886D02*
X102554294Y-65680886D01*
X114654294Y-57480886D02*
X114654294Y-55780886D01*
X96904294Y-67930886D02*
X97104294Y-67930886D01*
%TO.N,Net-(D236-DOUT)*%
X96254294Y-69380886D02*
X97054294Y-69380886D01*
X98054294Y-68380886D02*
X98054294Y-67980886D01*
X98054294Y-67980886D02*
X99604294Y-66430886D01*
X97054294Y-69380886D02*
X98054294Y-68380886D01*
X93977901Y-72957279D02*
X95154294Y-71780886D01*
X93645401Y-72957279D02*
X93977901Y-72957279D01*
X95154294Y-71780886D02*
X95154294Y-70480886D01*
X95154294Y-70480886D02*
X96254294Y-69380886D01*
%TO.N,Net-(D237-DOUT)*%
X91079294Y-67930886D02*
X91004294Y-67930886D01*
X94395401Y-73632279D02*
X92895401Y-73632279D01*
X92895401Y-73632279D02*
X92154294Y-72891172D01*
X94654294Y-73373386D02*
X94395401Y-73632279D01*
X92154294Y-69005886D02*
X91079294Y-67930886D01*
X96345401Y-71457279D02*
X94654294Y-73148386D01*
X94654294Y-73180886D02*
X94654294Y-73373386D01*
X92154294Y-72891172D02*
X92154294Y-69005886D01*
%TO.N,Net-(D238-DOUT)*%
X86354294Y-74780886D02*
X88854294Y-74780886D01*
X85604294Y-75530886D02*
X86354294Y-74780886D01*
X90054294Y-67455886D02*
X90329294Y-67180886D01*
X88854294Y-74780886D02*
X90054294Y-73580886D01*
X90054294Y-73580886D02*
X90054294Y-67455886D01*
X92954294Y-67180886D02*
X93704294Y-66430886D01*
X90329294Y-67180886D02*
X92954294Y-67180886D01*
%TO.N,Net-(D239-DOUT)*%
X88304294Y-73530886D02*
X86104294Y-71330886D01*
X88304294Y-74030886D02*
X88304294Y-73530886D01*
%TO.N,Net-(D241-DIN)*%
X88129294Y-69155886D02*
X85529294Y-69155886D01*
X85529294Y-69155886D02*
X83904294Y-67530886D01*
X88804294Y-69830886D02*
X88129294Y-69155886D01*
%TO.N,Net-(D241-DOUT)*%
X85704294Y-66030886D02*
X84954294Y-66780886D01*
X83854294Y-69080886D02*
X83854294Y-69780886D01*
X83854294Y-69780886D02*
X83354294Y-70280886D01*
X80869008Y-70280886D02*
X80145401Y-71004493D01*
X82854294Y-67155886D02*
X82854294Y-68080886D01*
X84954294Y-66780886D02*
X83229294Y-66780886D01*
X82854294Y-68080886D02*
X83854294Y-69080886D01*
X86604294Y-66030886D02*
X85704294Y-66030886D01*
X83354294Y-70280886D02*
X80869008Y-70280886D01*
X83229294Y-66780886D02*
X82854294Y-67155886D01*
%TO.N,Net-(D242-DOUT)*%
X81721794Y-68380886D02*
X78754294Y-68380886D01*
X82845401Y-69504493D02*
X81721794Y-68380886D01*
X78754294Y-68380886D02*
X77554294Y-67180886D01*
%TO.N,Net-(D243-DOUT)*%
X77654294Y-69780886D02*
X74854294Y-69780886D01*
X79554294Y-65680886D02*
X78754294Y-66480886D01*
X76154294Y-67155886D02*
X76154294Y-67780886D01*
X76154294Y-67780886D02*
X76654294Y-68280886D01*
X74854294Y-69780886D02*
X74104294Y-70530886D01*
X78754294Y-66480886D02*
X76829294Y-66480886D01*
X80254294Y-65680886D02*
X79554294Y-65680886D01*
X77754294Y-68580886D02*
X77754294Y-69680886D01*
X76654294Y-68280886D02*
X77454294Y-68280886D01*
X77754294Y-69680886D02*
X77654294Y-69780886D01*
X77454294Y-68280886D02*
X77754294Y-68580886D01*
X76829294Y-66480886D02*
X76154294Y-67155886D01*
%TO.N,Net-(D244-DOUT)*%
X76804294Y-69030886D02*
X75704294Y-69030886D01*
X75704294Y-69030886D02*
X74554294Y-67880886D01*
X74554294Y-67880886D02*
X72454294Y-67880886D01*
X72454294Y-67880886D02*
X71354294Y-66780886D01*
%TO.N,Net-(D245-DOUT)*%
X67154294Y-64582279D02*
X65779294Y-65957279D01*
X65779294Y-65957279D02*
X65704294Y-65957279D01*
X70154294Y-65505886D02*
X70154294Y-64580886D01*
X68654294Y-63080886D02*
X68254294Y-63080886D01*
X70729294Y-66080886D02*
X70154294Y-65505886D01*
X67154294Y-64180886D02*
X67154294Y-64582279D01*
X68254294Y-63080886D02*
X67154294Y-64180886D01*
X73254294Y-66080886D02*
X70729294Y-66080886D01*
X70154294Y-64580886D02*
X68654294Y-63080886D01*
X74054294Y-65280886D02*
X73254294Y-66080886D01*
%TO.N,Net-(D247-DIN)*%
X68404294Y-64457279D02*
X69854294Y-65907279D01*
X69854294Y-68555886D02*
X68379294Y-70030886D01*
X69854294Y-65907279D02*
X69854294Y-68555886D01*
X68379294Y-70030886D02*
X68304294Y-70030886D01*
%TO.N,Net-(D247-DOUT)*%
X67454294Y-68180886D02*
X66254294Y-66980886D01*
X62504294Y-63430886D02*
X62504294Y-62330886D01*
X67454294Y-70605886D02*
X67454294Y-68180886D01*
X71004294Y-68530886D02*
X69054294Y-70480886D01*
X69054294Y-70480886D02*
X69054294Y-70580886D01*
X68754294Y-70880886D02*
X67729294Y-70880886D01*
X67729294Y-70880886D02*
X67454294Y-70605886D01*
X66254294Y-66980886D02*
X65302901Y-66980886D01*
X62754294Y-63680886D02*
X62504294Y-63430886D01*
X62754294Y-64432279D02*
X62754294Y-63680886D01*
X69054294Y-70580886D02*
X68754294Y-70880886D01*
X65302901Y-66980886D02*
X62754294Y-64432279D01*
%TO.N,Net-(D248-DOUT)*%
X65204294Y-60830886D02*
X64704294Y-60830886D01*
X59229294Y-65605886D02*
X58404294Y-66430886D01*
X61829294Y-65605886D02*
X59229294Y-65605886D01*
X64704294Y-60830886D02*
X63954294Y-61580886D01*
X61354294Y-61880886D02*
X61354294Y-63480886D01*
X61354294Y-63480886D02*
X61954294Y-64080886D01*
X61954294Y-65480886D02*
X61829294Y-65605886D01*
X61654294Y-61580886D02*
X61354294Y-61880886D01*
X63954294Y-61580886D02*
X61654294Y-61580886D01*
X61954294Y-64080886D02*
X61954294Y-65480886D01*
%TO.N,Net-(D249-DOUT)*%
X61104294Y-64930886D02*
X60604294Y-64930886D01*
X56354294Y-64180886D02*
X55254294Y-63080886D01*
X60604294Y-64930886D02*
X59854294Y-64180886D01*
X59854294Y-64180886D02*
X56354294Y-64180886D01*
%TO.N,Net-(D250-DOUT)*%
X56454294Y-60080886D02*
X55004294Y-60080886D01*
X57954294Y-61580886D02*
X56454294Y-60080886D01*
X55004294Y-60080886D02*
X53804294Y-58880886D01*
%TO.N,Net-(D251-DOUT)*%
X58104294Y-58980886D02*
X56504294Y-57380886D01*
X58104294Y-59130886D02*
X58104294Y-58980886D01*
%TO.N,Net-(D252-DOUT)*%
X60804294Y-56816172D02*
X58445401Y-54457279D01*
X60804294Y-57630886D02*
X60804294Y-56816172D01*
%TO.N,Net-(D253-DOUT)*%
X54854294Y-53680886D02*
X54154294Y-54380886D01*
X60577901Y-52957279D02*
X59854294Y-53680886D01*
X61145401Y-52957279D02*
X60577901Y-52957279D01*
X59854294Y-53680886D02*
X54854294Y-53680886D01*
%TO.N,Net-(D254-DOUT)*%
X56854294Y-52880886D02*
X54854294Y-50880886D01*
X54854294Y-50880886D02*
X54854294Y-50780886D01*
%TO.N,Net-(D255-DOUT)*%
X57554294Y-49280886D02*
X58854294Y-49280886D01*
X58854294Y-49280886D02*
X59104294Y-49030886D01*
%TO.N,/PORT_LED_1*%
X142254294Y-81280886D02*
X140489314Y-81280886D01*
X137955665Y-89470886D02*
X136824294Y-89470886D01*
X161391794Y-91180886D02*
X160354294Y-91180886D01*
X139054294Y-82715906D02*
X139054294Y-88372257D01*
X139054294Y-88372257D02*
X137955665Y-89470886D01*
X140489314Y-81280886D02*
X139054294Y-82715906D01*
%TO.N,/PORT_LED_2*%
X145954294Y-85480886D02*
X146454294Y-85480886D01*
X141754294Y-81980886D02*
X142154294Y-82380886D01*
X144232470Y-83759062D02*
X145954294Y-85480886D01*
X148403253Y-86431927D02*
X150258628Y-84576552D01*
X138164793Y-89870387D02*
X139454294Y-88580886D01*
X137694793Y-89870387D02*
X138164793Y-89870387D01*
X144232470Y-83659062D02*
X144232470Y-83759062D01*
X136824294Y-90740886D02*
X137694793Y-89870387D01*
X139454294Y-88580886D02*
X139454294Y-82880886D01*
X139454294Y-82880886D02*
X140354294Y-81980886D01*
X140354294Y-81980886D02*
X141754294Y-81980886D01*
X147405335Y-86431927D02*
X148403253Y-86431927D01*
X146454294Y-85480886D02*
X147405335Y-86431927D01*
X142154294Y-82380886D02*
X142954294Y-82380886D01*
X142954294Y-82380886D02*
X144232470Y-83659062D01*
%TO.N,/SCL*%
X38554294Y12819114D02*
X36072898Y12819114D01*
X34689294Y11435510D02*
X34689294Y11244114D01*
X46854294Y11869114D02*
X46854294Y14019114D01*
X134484294Y-92010886D02*
X134254294Y-91780886D01*
X36072898Y12819114D02*
X34689294Y11435510D01*
X45614294Y10629114D02*
X46854294Y11869114D01*
X40354294Y14619114D02*
X38554294Y12819114D01*
X46854294Y14019114D02*
X46254294Y14619114D01*
X135554294Y-92010886D02*
X134484294Y-92010886D01*
X46254294Y14619114D02*
X40354294Y14619114D01*
%TO.N,/PORT_GP0*%
X136932406Y-92010886D02*
X137507924Y-91435368D01*
X136824294Y-92010886D02*
X136932406Y-92010886D01*
%TO.N,/SDA*%
X35959294Y11624114D02*
X36554294Y12219114D01*
X35959294Y11244114D02*
X35959294Y11624114D01*
X134454294Y-93280886D02*
X134254294Y-93080886D01*
X44450694Y12005514D02*
X45614294Y13169114D01*
X36554294Y12219114D02*
X40854294Y12219114D01*
X135554294Y-93280886D02*
X134454294Y-93280886D01*
X40854294Y12219114D02*
X41067894Y12005514D01*
X41067894Y12005514D02*
X44450694Y12005514D01*
%TO.N,/NFC_MSG*%
X33854294Y9819114D02*
X36354294Y9819114D01*
X51144294Y10629114D02*
X51154294Y10619114D01*
X48154294Y10629114D02*
X51144294Y10629114D01*
X136824294Y-93280886D02*
X137554294Y-93280886D01*
X33419294Y11244114D02*
X33419294Y10254114D01*
X37854294Y11319114D02*
X39254294Y11319114D01*
X137554294Y-93280886D02*
X137654294Y-93180886D01*
X36354294Y9819114D02*
X37854294Y11319114D01*
X137654294Y-93180886D02*
X137754294Y-93180886D01*
X41554294Y9019114D02*
X46544294Y9019114D01*
X46544294Y9019114D02*
X48154294Y10629114D01*
X33419294Y10254114D02*
X33854294Y9819114D01*
X39254294Y11319114D02*
X41554294Y9019114D01*
%TO.N,Net-(JP1-A)*%
X146873533Y-81261647D02*
X147954294Y-82342408D01*
X147954294Y-82342408D02*
X147954294Y-85489554D01*
X147954294Y-85489554D02*
X147978209Y-85513469D01*
%TO.N,/ANTENNA*%
X33419294Y5412408D02*
X32680949Y4674063D01*
D37*
X28004793Y-1830387D02*
X24504793Y-1830387D01*
D36*
X34554294Y7819114D02*
X34689294Y5994114D01*
D35*
X33419294Y5994114D02*
X33419294Y5412408D01*
D37*
X24504793Y-1830387D02*
X22154294Y-4180886D01*
X32680949Y4674063D02*
X32680949Y2845769D01*
X32680949Y2845769D02*
X28004793Y-1830387D01*
%TD*%
M02*
