%TF.GenerationSoftware,KiCad,Pcbnew,(6.99.0-3809-g2741d0eb4b)*%
%TF.CreationDate,2022-10-25T09:35:34-04:00*%
%TF.ProjectId,PortWing,506f7274-5769-46e6-972e-6b696361645f,rev?*%
%TF.SameCoordinates,Original*%
%TF.FileFunction,Plated,1,4,PTH,Drill*%
%TF.FilePolarity,Positive*%
%FSLAX46Y46*%
G04 Gerber Fmt 4.6, Leading zero omitted, Abs format (unit mm)*
G04 Created by KiCad (PCBNEW (6.99.0-3809-g2741d0eb4b)) date 2022-10-25 09:35:34*
%MOMM*%
%LPD*%
G01*
G04 APERTURE LIST*
%TA.AperFunction,ComponentDrill*%
%ADD10C,0.300000*%
%TD*%
%TA.AperFunction,ViaDrill*%
%ADD11C,0.400000*%
%TD*%
%TA.AperFunction,ComponentDrill*%
%ADD12C,0.650000*%
%TD*%
%TA.AperFunction,ComponentDrill*%
%ADD13C,0.800000*%
%TD*%
%TA.AperFunction,ComponentDrill*%
%ADD14C,1.016000*%
%TD*%
G04 APERTURE END LIST*
D10*
%TO.C,D191*%
X19345401Y2419114D03*
%TO.C,D192*%
X19954294Y-1580886D03*
%TO.C,D191*%
X20695401Y919114D03*
%TO.C,D192*%
X21304294Y-3080886D03*
%TO.C,D193*%
X22454294Y-5680886D03*
%TO.C,D189*%
X23254294Y10219114D03*
%TO.C,D193*%
X23804294Y-7180886D03*
%TO.C,D189*%
X24604294Y8719114D03*
%TO.C,D190*%
X25004294Y769114D03*
%TO.C,D188*%
X25804294Y5769114D03*
%TO.C,D190*%
X26354294Y-730886D03*
%TO.C,D188*%
X27154294Y4269114D03*
%TO.C,D194*%
X27854294Y-3680886D03*
%TO.C,D196*%
X28554294Y-8080886D03*
%TO.C,D194*%
X29204294Y-5180886D03*
%TO.C,D196*%
X29904294Y-9580886D03*
%TO.C,D195*%
X32354294Y-3880886D03*
%TO.C,D202*%
X32554294Y-19880886D03*
%TO.C,D201*%
X32854294Y-15780886D03*
%TO.C,D200*%
X33654294Y-11780886D03*
%TO.C,D206*%
X33654294Y-23980886D03*
%TO.C,D195*%
X33704294Y-5380886D03*
%TO.C,D202*%
X33904294Y-21380886D03*
%TO.C,D201*%
X34204294Y-17280886D03*
%TO.C,D200*%
X35004294Y-13280886D03*
%TO.C,D206*%
X35004294Y-25480886D03*
%TO.C,D197*%
X37154294Y-6180886D03*
%TO.C,D207*%
X37754294Y-26880886D03*
%TO.C,D205*%
X38154294Y-21880886D03*
%TO.C,D198*%
X38354294Y-10180886D03*
%TO.C,D197*%
X38504294Y-7680886D03*
%TO.C,D207*%
X39104294Y-28380886D03*
%TO.C,D205*%
X39504294Y-23380886D03*
%TO.C,D198*%
X39704294Y-11680886D03*
%TO.C,D203*%
X39704294Y-18230886D03*
%TO.C,D199*%
X39954294Y-13980886D03*
%TO.C,D203*%
X41054294Y-19730886D03*
%TO.C,D199*%
X41304294Y-15480886D03*
%TO.C,D210*%
X43845401Y-34057279D03*
%TO.C,D208*%
X44445401Y-25704493D03*
%TO.C,D204*%
X44745401Y-19804493D03*
%TO.C,D211*%
X44845401Y-38857279D03*
%TO.C,D210*%
X45195401Y-35557279D03*
%TO.C,D208*%
X45795401Y-27204493D03*
%TO.C,D204*%
X46095401Y-21304493D03*
%TO.C,D211*%
X46195401Y-40357279D03*
%TO.C,D209*%
X46654294Y-30880886D03*
X48004294Y-32380886D03*
%TO.C,D212*%
X49304294Y-35130886D03*
%TO.C,D214*%
X49504294Y-41530886D03*
%TO.C,D212*%
X50654294Y-36630886D03*
%TO.C,D214*%
X50854294Y-43030886D03*
%TO.C,D213*%
X52245401Y-38557279D03*
X53595401Y-40057279D03*
%TO.C,D216*%
X53645401Y-42330886D03*
%TO.C,D251*%
X54504294Y-57380886D03*
%TO.C,D254*%
X54854294Y-52880886D03*
%TO.C,D216*%
X54995401Y-43830886D03*
%TO.C,D255*%
X55554294Y-49280886D03*
%TO.C,D251*%
X55854294Y-58880886D03*
%TO.C,D250*%
X55954294Y-61580886D03*
%TO.C,D254*%
X56204294Y-54380886D03*
%TO.C,D255*%
X56904294Y-50780886D03*
%TO.C,D250*%
X57304294Y-63080886D03*
%TO.C,D215*%
X57504294Y-37630886D03*
%TO.C,D217*%
X58004294Y-44430886D03*
%TO.C,D252*%
X58804294Y-57630886D03*
%TO.C,D215*%
X58854294Y-39130886D03*
%TO.C,D249*%
X59104294Y-64930886D03*
%TO.C,D253*%
X59145401Y-52957279D03*
%TO.C,D217*%
X59354294Y-45930886D03*
%TO.C,D256*%
X59804294Y-47530886D03*
%TO.C,D252*%
X60154294Y-59130886D03*
%TO.C,D249*%
X60454294Y-66430886D03*
%TO.C,D253*%
X60495401Y-54457279D03*
%TO.C,D187*%
X60704294Y15369114D03*
%TO.C,D256*%
X61154294Y-49030886D03*
%TO.C,D187*%
X62054294Y13869114D03*
%TO.C,D218*%
X62404294Y-42230886D03*
%TO.C,D248*%
X63204294Y-60830886D03*
%TO.C,D219*%
X63304294Y-38530886D03*
%TO.C,D186*%
X63404294Y10669114D03*
%TO.C,D105*%
X63445401Y-122557279D03*
%TO.C,D218*%
X63754294Y-43730886D03*
%TO.C,D248*%
X64554294Y-62330886D03*
%TO.C,D219*%
X64654294Y-40030886D03*
%TO.C,D186*%
X64754294Y9169114D03*
%TO.C,D105*%
X64795401Y-124057279D03*
%TO.C,D59*%
X65004294Y-167330886D03*
%TO.C,D185*%
X65504294Y14469114D03*
%TO.C,D107*%
X65504294Y-114630886D03*
%TO.C,D57*%
X65545401Y-174457279D03*
%TO.C,D56*%
X65804294Y-179880886D03*
%TO.C,D106*%
X66045401Y-118457279D03*
%TO.C,D61*%
X66145401Y-160757279D03*
%TO.C,D103*%
X66354294Y-131180886D03*
%TO.C,D59*%
X66354294Y-168830886D03*
%TO.C,D246*%
X66404294Y-64457279D03*
%TO.C,D104*%
X66645401Y-126657279D03*
%TO.C,D185*%
X66854294Y12969114D03*
%TO.C,D107*%
X66854294Y-116130886D03*
%TO.C,D57*%
X66895401Y-175957279D03*
%TO.C,D56*%
X67154294Y-181380886D03*
%TO.C,D106*%
X67395401Y-119957279D03*
%TO.C,D61*%
X67495401Y-162257279D03*
%TO.C,D103*%
X67704294Y-132680886D03*
%TO.C,D246*%
X67754294Y-65957279D03*
%TO.C,D112*%
X67904294Y-95180886D03*
%TO.C,D104*%
X67995401Y-128157279D03*
%TO.C,D63*%
X68104294Y-154530886D03*
%TO.C,D111*%
X68204294Y-99530886D03*
%TO.C,D220*%
X68504294Y-37530886D03*
%TO.C,D110*%
X68504294Y-103630886D03*
%TO.C,D58*%
X68845401Y-171057279D03*
%TO.C,D247*%
X69004294Y-68530886D03*
%TO.C,D183*%
X69045401Y9442721D03*
%TO.C,D60*%
X69145401Y-164457279D03*
%TO.C,D108*%
X69204294Y-111130886D03*
%TO.C,D112*%
X69254294Y-96680886D03*
%TO.C,D63*%
X69454294Y-156030886D03*
%TO.C,D111*%
X69554294Y-101030886D03*
%TO.C,D113*%
X69704294Y-91530886D03*
%TO.C,D220*%
X69854294Y-39030886D03*
%TO.C,D110*%
X69854294Y-105130886D03*
%TO.C,D109*%
X70004294Y-107430886D03*
%TO.C,D65*%
X70154294Y-148680886D03*
%TO.C,D58*%
X70195401Y-172557279D03*
%TO.C,D184*%
X70304294Y14169114D03*
%TO.C,D247*%
X70354294Y-70030886D03*
%TO.C,D183*%
X70395401Y7942721D03*
%TO.C,D60*%
X70495401Y-165957279D03*
%TO.C,D108*%
X70554294Y-112630886D03*
%TO.C,D62*%
X70804294Y-158430886D03*
%TO.C,D113*%
X71054294Y-93030886D03*
%TO.C,D55*%
X71304294Y-177030886D03*
%TO.C,D54*%
X71304294Y-182630886D03*
%TO.C,D109*%
X71354294Y-108930886D03*
%TO.C,D114*%
X71404294Y-87830886D03*
%TO.C,D65*%
X71504294Y-150180886D03*
%TO.C,D184*%
X71654294Y12669114D03*
%TO.C,D102*%
X71704294Y-133430886D03*
%TO.C,D245*%
X72054294Y-65280886D03*
%TO.C,D62*%
X72154294Y-159930886D03*
%TO.C,D64*%
X72645401Y-152557279D03*
%TO.C,D55*%
X72654294Y-178530886D03*
%TO.C,D54*%
X72654294Y-184130886D03*
%TO.C,D114*%
X72754294Y-89330886D03*
%TO.C,D67*%
X72804294Y-142530886D03*
%TO.C,D102*%
X73054294Y-134930886D03*
%TO.C,D69*%
X73154294Y-137980886D03*
%TO.C,D221*%
X73304294Y-36330886D03*
%TO.C,D245*%
X73404294Y-66780886D03*
%TO.C,D64*%
X73995401Y-154057279D03*
%TO.C,D67*%
X74154294Y-144030886D03*
%TO.C,D66*%
X74254294Y-146180886D03*
%TO.C,D69*%
X74504294Y-139480886D03*
%TO.C,D221*%
X74654294Y-37830886D03*
%TO.C,D244*%
X74804294Y-69030886D03*
%TO.C,D182*%
X75104294Y8669114D03*
%TO.C,D115*%
X75254294Y-84080886D03*
%TO.C,D66*%
X75604294Y-147680886D03*
%TO.C,D244*%
X76154294Y-70530886D03*
%TO.C,D182*%
X76454294Y7169114D03*
%TO.C,D115*%
X76604294Y-85580886D03*
%TO.C,D181*%
X76854294Y13019114D03*
%TO.C,D53*%
X77004294Y-178130886D03*
%TO.C,D68*%
X77304294Y-140630886D03*
%TO.C,D116*%
X77404294Y-80630886D03*
%TO.C,D181*%
X78204294Y11519114D03*
%TO.C,D243*%
X78254294Y-65680886D03*
%TO.C,D70*%
X78254294Y-136580886D03*
%TO.C,D222*%
X78304294Y-35830886D03*
%TO.C,D101*%
X78304294Y-132530886D03*
%TO.C,D53*%
X78354294Y-179630886D03*
%TO.C,D68*%
X78654294Y-142130886D03*
%TO.C,D116*%
X78754294Y-82130886D03*
%TO.C,D52*%
X79054294Y-182580886D03*
%TO.C,D243*%
X79604294Y-67180886D03*
%TO.C,D70*%
X79604294Y-138080886D03*
%TO.C,D222*%
X79654294Y-37330886D03*
%TO.C,D101*%
X79654294Y-134030886D03*
%TO.C,D52*%
X80404294Y-184080886D03*
%TO.C,D180*%
X80804294Y6419114D03*
%TO.C,D242*%
X80845401Y-69504493D03*
%TO.C,D117*%
X81604294Y-77730886D03*
%TO.C,D51*%
X82004294Y-176430886D03*
%TO.C,D180*%
X82154294Y4919114D03*
%TO.C,D242*%
X82195401Y-71004493D03*
%TO.C,D100*%
X82245401Y-128357279D03*
%TO.C,D223*%
X82804294Y-35230886D03*
%TO.C,D117*%
X82954294Y-79230886D03*
%TO.C,D71*%
X83204294Y-138280886D03*
%TO.C,D51*%
X83354294Y-177930886D03*
%TO.C,D100*%
X83595401Y-129857279D03*
%TO.C,D50*%
X83904294Y-181130886D03*
%TO.C,D179*%
X84145401Y12042721D03*
%TO.C,D223*%
X84154294Y-36730886D03*
%TO.C,D71*%
X84554294Y-139780886D03*
%TO.C,D241*%
X84604294Y-66030886D03*
%TO.C,D50*%
X85254294Y-182630886D03*
%TO.C,D179*%
X85495401Y10542721D03*
%TO.C,D241*%
X85954294Y-67530886D03*
%TO.C,D239*%
X86304294Y-74030886D03*
%TO.C,D99*%
X86545401Y-123557279D03*
%TO.C,D178*%
X86804294Y4369114D03*
%TO.C,D240*%
X86804294Y-69830886D03*
%TO.C,D224*%
X87504294Y-35930886D03*
%TO.C,D239*%
X87654294Y-75530886D03*
%TO.C,D99*%
X87895401Y-125057279D03*
%TO.C,D48*%
X88104294Y-174730886D03*
%TO.C,D178*%
X88154294Y2869114D03*
%TO.C,D240*%
X88154294Y-71330886D03*
%TO.C,D72*%
X88304294Y-136930886D03*
%TO.C,D224*%
X88854294Y-37430886D03*
%TO.C,D177*%
X89304294Y9369114D03*
%TO.C,D48*%
X89454294Y-176230886D03*
%TO.C,D72*%
X89654294Y-138430886D03*
%TO.C,D177*%
X90654294Y7869114D03*
%TO.C,D49*%
X90954294Y-179380886D03*
%TO.C,D98*%
X91104294Y-118930886D03*
%TO.C,D238*%
X91704294Y-66430886D03*
%TO.C,D49*%
X92304294Y-180880886D03*
%TO.C,D225*%
X92404294Y-36430886D03*
%TO.C,D98*%
X92454294Y-120430886D03*
%TO.C,D73*%
X93004294Y-137330886D03*
%TO.C,D238*%
X93054294Y-67930886D03*
%TO.C,D176*%
X93604294Y1969114D03*
%TO.C,D225*%
X93754294Y-37930886D03*
%TO.C,D47*%
X94204294Y-174480886D03*
%TO.C,D237*%
X94345401Y-71457279D03*
%TO.C,D73*%
X94354294Y-138830886D03*
%TO.C,D176*%
X94954294Y469114D03*
%TO.C,D47*%
X95554294Y-175980886D03*
%TO.C,D175*%
X95604294Y6769114D03*
%TO.C,D237*%
X95695401Y-72957279D03*
%TO.C,D97*%
X96504294Y-115630886D03*
%TO.C,D226*%
X96645401Y-36857279D03*
%TO.C,D175*%
X96954294Y5269114D03*
%TO.C,D236*%
X97604294Y-66430886D03*
%TO.C,D74*%
X97704294Y-136230886D03*
%TO.C,D97*%
X97854294Y-117130886D03*
%TO.C,D226*%
X97995401Y-38357279D03*
%TO.C,D46*%
X98604294Y-176630886D03*
%TO.C,D236*%
X98954294Y-67930886D03*
%TO.C,D74*%
X99054294Y-137730886D03*
%TO.C,D45*%
X99054294Y-170680886D03*
%TO.C,D96*%
X99404294Y-130130886D03*
%TO.C,D95*%
X99754294Y-124180886D03*
%TO.C,D46*%
X99954294Y-178130886D03*
%TO.C,D94*%
X100045401Y-119457279D03*
%TO.C,D45*%
X100404294Y-172180886D03*
%TO.C,D96*%
X100754294Y-131630886D03*
%TO.C,D174*%
X100854294Y2719114D03*
%TO.C,D173*%
X101004294Y-2280886D03*
%TO.C,D95*%
X101104294Y-125680886D03*
%TO.C,D94*%
X101395401Y-120957279D03*
%TO.C,D75*%
X101745401Y-139857279D03*
%TO.C,D118*%
X101854294Y-69280886D03*
%TO.C,D227*%
X102145401Y-37157279D03*
%TO.C,D174*%
X102204294Y1219114D03*
%TO.C,D173*%
X102354294Y-3780886D03*
%TO.C,D93*%
X103045401Y-115057279D03*
%TO.C,D75*%
X103095401Y-141357279D03*
%TO.C,D83*%
X103145401Y-167157279D03*
%TO.C,D118*%
X103204294Y-70780886D03*
%TO.C,D76*%
X103404294Y-135730886D03*
%TO.C,D227*%
X103495401Y-38657279D03*
%TO.C,D44*%
X103645401Y-172757279D03*
%TO.C,D43*%
X103804294Y-177330886D03*
%TO.C,D93*%
X104395401Y-116557279D03*
%TO.C,D83*%
X104495401Y-168657279D03*
%TO.C,D78*%
X104504294Y-143530886D03*
%TO.C,D76*%
X104754294Y-137230886D03*
%TO.C,D44*%
X104995401Y-174257279D03*
%TO.C,D43*%
X105154294Y-178830886D03*
%TO.C,D79*%
X105654294Y-147680886D03*
%TO.C,D82*%
X105654294Y-161780886D03*
%TO.C,D78*%
X105854294Y-145030886D03*
%TO.C,D79*%
X107004294Y-149180886D03*
%TO.C,D82*%
X107004294Y-163280886D03*
%TO.C,D228*%
X107045401Y-32657279D03*
%TO.C,D172*%
X107504294Y69114D03*
%TO.C,D119*%
X107504294Y-66730886D03*
%TO.C,D81*%
X107504294Y-156830886D03*
%TO.C,D232*%
X107545401Y-38457279D03*
%TO.C,D92*%
X107654294Y-109780886D03*
%TO.C,D229*%
X107704294Y-29230886D03*
%TO.C,D80*%
X107754294Y-152080886D03*
%TO.C,D228*%
X108395401Y-34157279D03*
%TO.C,D172*%
X108854294Y-1430886D03*
%TO.C,D171*%
X108854294Y-6580886D03*
%TO.C,D119*%
X108854294Y-68230886D03*
%TO.C,D81*%
X108854294Y-158330886D03*
%TO.C,D232*%
X108895401Y-39957279D03*
%TO.C,D92*%
X109004294Y-111280886D03*
%TO.C,D229*%
X109054294Y-30730886D03*
%TO.C,D233*%
X109104294Y-43630886D03*
%TO.C,D80*%
X109104294Y-153580886D03*
%TO.C,D42*%
X109445401Y-176857279D03*
%TO.C,D77*%
X109504294Y-134830886D03*
%TO.C,D171*%
X110204294Y-8080886D03*
%TO.C,D233*%
X110454294Y-45130886D03*
%TO.C,D42*%
X110795401Y-178357279D03*
%TO.C,D77*%
X110854294Y-136330886D03*
%TO.C,D234*%
X110904294Y-48730886D03*
%TO.C,D120*%
X111845401Y-69957279D03*
%TO.C,D234*%
X112254294Y-50230886D03*
%TO.C,D120*%
X113195401Y-71457279D03*
%TO.C,D230*%
X113204294Y-26830886D03*
%TO.C,D41*%
X113204294Y-181330886D03*
%TO.C,D84*%
X113354294Y-151880886D03*
%TO.C,D235*%
X114054294Y-54680886D03*
%TO.C,D91*%
X114504294Y-106730886D03*
%TO.C,D230*%
X114554294Y-28330886D03*
%TO.C,D41*%
X114554294Y-182830886D03*
%TO.C,D84*%
X114704294Y-153380886D03*
%TO.C,D169*%
X114845401Y-10857279D03*
%TO.C,D170*%
X114854294Y-5080886D03*
%TO.C,D40*%
X115204294Y-177530886D03*
%TO.C,D85*%
X115304294Y-147730886D03*
%TO.C,D235*%
X115404294Y-56180886D03*
%TO.C,D121*%
X115854294Y-66480886D03*
%TO.C,D91*%
X115854294Y-108230886D03*
%TO.C,D169*%
X116195401Y-12357279D03*
%TO.C,D170*%
X116204294Y-6580886D03*
%TO.C,D134*%
X116545401Y-102157279D03*
%TO.C,D40*%
X116554294Y-179030886D03*
%TO.C,D85*%
X116654294Y-149230886D03*
%TO.C,D231*%
X116845401Y-22957279D03*
%TO.C,D86*%
X117104294Y-143930886D03*
%TO.C,D121*%
X117204294Y-67980886D03*
%TO.C,D134*%
X117895401Y-103657279D03*
%TO.C,D140*%
X118104294Y-60130886D03*
%TO.C,D231*%
X118195401Y-24457279D03*
%TO.C,D86*%
X118454294Y-145430886D03*
%TO.C,D167*%
X118845401Y-16857279D03*
%TO.C,D140*%
X119454294Y-61630886D03*
%TO.C,D122*%
X119504294Y-70630886D03*
%TO.C,D167*%
X120195401Y-18357279D03*
%TO.C,D168*%
X120254294Y-9680886D03*
%TO.C,D39*%
X120554294Y-181280886D03*
%TO.C,D90*%
X120745401Y-106057279D03*
%TO.C,D122*%
X120854294Y-72130886D03*
%TO.C,D168*%
X121604294Y-11180886D03*
%TO.C,D39*%
X121904294Y-182780886D03*
%TO.C,D90*%
X122095401Y-107557279D03*
%TO.C,D16*%
X122404294Y-140130886D03*
%TO.C,D133*%
X122445401Y-98257279D03*
%TO.C,D123*%
X122845401Y-66357279D03*
%TO.C,D17*%
X122854294Y-144580886D03*
%TO.C,D15*%
X122904294Y-135030886D03*
%TO.C,D164*%
X123204294Y-20430886D03*
%TO.C,D163*%
X123504294Y-24630886D03*
%TO.C,D141*%
X123504294Y-55530886D03*
%TO.C,D38*%
X123504294Y-177030886D03*
%TO.C,D16*%
X123754294Y-141630886D03*
%TO.C,D133*%
X123795401Y-99757279D03*
%TO.C,D123*%
X124195401Y-67857279D03*
%TO.C,D139*%
X124204294Y-61030886D03*
%TO.C,D17*%
X124204294Y-146080886D03*
%TO.C,D15*%
X124254294Y-136530886D03*
%TO.C,D164*%
X124554294Y-21930886D03*
%TO.C,D142*%
X124604294Y-50780886D03*
%TO.C,D18*%
X124704294Y-149330886D03*
%TO.C,D166*%
X124845401Y-14957279D03*
%TO.C,D163*%
X124854294Y-26130886D03*
%TO.C,D141*%
X124854294Y-57030886D03*
%TO.C,D38*%
X124854294Y-178530886D03*
%TO.C,D124*%
X125045401Y-69957279D03*
%TO.C,D139*%
X125554294Y-62530886D03*
%TO.C,D142*%
X125954294Y-52280886D03*
%TO.C,D18*%
X126054294Y-150830886D03*
%TO.C,D166*%
X126195401Y-16457279D03*
%TO.C,D124*%
X126395401Y-71457279D03*
%TO.C,D143*%
X126445401Y-45857279D03*
%TO.C,D14*%
X127245401Y-129557279D03*
%TO.C,D89*%
X127404294Y-106630886D03*
%TO.C,D132*%
X127645401Y-95257279D03*
%TO.C,D143*%
X127795401Y-47357279D03*
%TO.C,D136*%
X128304294Y-64830886D03*
%TO.C,D14*%
X128595401Y-131057279D03*
%TO.C,D125*%
X128604294Y-73930886D03*
%TO.C,D37*%
X128745401Y-177657279D03*
%TO.C,D89*%
X128754294Y-108130886D03*
%TO.C,D132*%
X128995401Y-96757279D03*
%TO.C,D162*%
X129204294Y-23730886D03*
%TO.C,D19*%
X129204294Y-152530886D03*
%TO.C,D136*%
X129654294Y-66330886D03*
%TO.C,D125*%
X129954294Y-75430886D03*
%TO.C,D37*%
X130095401Y-179157279D03*
%TO.C,D165*%
X130404294Y-18780886D03*
%TO.C,D144*%
X130445401Y-41557279D03*
%TO.C,D36*%
X130445401Y-173157279D03*
%TO.C,D162*%
X130554294Y-25230886D03*
%TO.C,D19*%
X130554294Y-154030886D03*
%TO.C,D13*%
X131404294Y-125330886D03*
%TO.C,D160*%
X131545401Y-28257279D03*
%TO.C,D165*%
X131754294Y-20280886D03*
%TO.C,D144*%
X131795401Y-43057279D03*
%TO.C,D36*%
X131795401Y-174657279D03*
%TO.C,D13*%
X132754294Y-126830886D03*
%TO.C,D160*%
X132895401Y-29757279D03*
%TO.C,D137*%
X133345401Y-64457279D03*
%TO.C,D88*%
X133545401Y-107657279D03*
%TO.C,D126*%
X133954294Y-76080886D03*
%TO.C,D20*%
X134204294Y-153030886D03*
%TO.C,D137*%
X134695401Y-65957279D03*
%TO.C,D12*%
X134754294Y-120380886D03*
%TO.C,D88*%
X134895401Y-109157279D03*
%TO.C,D34*%
X135004294Y-169730886D03*
%TO.C,D161*%
X135145401Y-24357279D03*
%TO.C,D126*%
X135304294Y-77580886D03*
%TO.C,D20*%
X135554294Y-154530886D03*
%TO.C,D145*%
X135804294Y-39230886D03*
%TO.C,D12*%
X136104294Y-121880886D03*
%TO.C,D127*%
X136204294Y-80030886D03*
%TO.C,D158*%
X136304294Y-34030886D03*
%TO.C,D135*%
X136304294Y-85030886D03*
%TO.C,D34*%
X136354294Y-171230886D03*
%TO.C,D161*%
X136495401Y-25857279D03*
%TO.C,D35*%
X136845401Y-173757279D03*
%TO.C,D145*%
X137154294Y-40730886D03*
%TO.C,D127*%
X137554294Y-81530886D03*
%TO.C,D158*%
X137654294Y-35530886D03*
%TO.C,D135*%
X137654294Y-86530886D03*
%TO.C,D35*%
X138195401Y-175257279D03*
%TO.C,D138*%
X138304294Y-62630886D03*
%TO.C,D159*%
X138704294Y-30030886D03*
%TO.C,D32*%
X138854294Y-164480886D03*
%TO.C,D87*%
X139345401Y-109557279D03*
%TO.C,D21*%
X139645401Y-152257279D03*
%TO.C,D138*%
X139654294Y-64130886D03*
%TO.C,D159*%
X140054294Y-31530886D03*
%TO.C,D32*%
X140204294Y-165980886D03*
%TO.C,D11*%
X140404294Y-121930886D03*
%TO.C,D87*%
X140695401Y-111057279D03*
%TO.C,D128*%
X140904294Y-78530886D03*
%TO.C,D21*%
X140995401Y-153757279D03*
%TO.C,D33*%
X141304294Y-167930886D03*
%TO.C,D30*%
X141604294Y-158030886D03*
%TO.C,D11*%
X141754294Y-123430886D03*
%TO.C,D146*%
X141904294Y-41030886D03*
%TO.C,D128*%
X142254294Y-80030886D03*
%TO.C,D157*%
X142304294Y-35830886D03*
%TO.C,D10*%
X142404294Y-116130886D03*
%TO.C,D33*%
X142654294Y-169430886D03*
%TO.C,D30*%
X142954294Y-159530886D03*
%TO.C,D146*%
X143254294Y-42530886D03*
%TO.C,D157*%
X143654294Y-37330886D03*
%TO.C,D10*%
X143754294Y-117630886D03*
%TO.C,D9*%
X144604294Y-111330886D03*
%TO.C,D31*%
X144804294Y-161930886D03*
%TO.C,D22*%
X145245401Y-151057279D03*
%TO.C,D9*%
X145954294Y-112830886D03*
%TO.C,D31*%
X146154294Y-163430886D03*
%TO.C,D22*%
X146595401Y-152557279D03*
%TO.C,D148*%
X146904294Y-49130886D03*
%TO.C,D29*%
X147254294Y-156380886D03*
%TO.C,D147*%
X147345401Y-44357279D03*
%TO.C,D148*%
X148254294Y-50630886D03*
%TO.C,D29*%
X148604294Y-157880886D03*
%TO.C,D147*%
X148695401Y-45857279D03*
%TO.C,D23*%
X149045401Y-146957279D03*
%TO.C,D131*%
X149054294Y-95380886D03*
%TO.C,D8*%
X149345401Y-114757279D03*
%TO.C,D28*%
X149645401Y-151457279D03*
%TO.C,D27*%
X150345401Y-132157279D03*
%TO.C,D23*%
X150395401Y-148457279D03*
%TO.C,D131*%
X150404294Y-96880886D03*
%TO.C,D8*%
X150695401Y-116257279D03*
%TO.C,D28*%
X150995401Y-152957279D03*
%TO.C,D150*%
X151104294Y-57130886D03*
%TO.C,D149*%
X151545401Y-52157279D03*
%TO.C,D27*%
X151695401Y-133657279D03*
%TO.C,D150*%
X152454294Y-58630886D03*
%TO.C,D24*%
X152845401Y-142857279D03*
%TO.C,D149*%
X152895401Y-53657279D03*
%TO.C,D129*%
X154018939Y-90306191D03*
X154125005Y-88290937D03*
%TO.C,D24*%
X154195401Y-144357279D03*
%TO.C,D152*%
X154404294Y-65530886D03*
%TO.C,D130*%
X154645401Y-97457279D03*
%TO.C,D6*%
X154745401Y-110557279D03*
%TO.C,D25*%
X154745401Y-138657279D03*
%TO.C,D151*%
X155304294Y-60930886D03*
%TO.C,D152*%
X155754294Y-67030886D03*
%TO.C,D130*%
X155995401Y-98957279D03*
%TO.C,D6*%
X156095401Y-112057279D03*
%TO.C,D25*%
X156095401Y-140157279D03*
%TO.C,D7*%
X156204294Y-114730886D03*
%TO.C,D26*%
X156404294Y-133830886D03*
%TO.C,D151*%
X156654294Y-62430886D03*
%TO.C,D153*%
X157545401Y-70357279D03*
%TO.C,D7*%
X157554294Y-116230886D03*
%TO.C,D26*%
X157754294Y-135330886D03*
%TO.C,D154*%
X158345401Y-75257279D03*
%TO.C,D153*%
X158895401Y-71857279D03*
%TO.C,D2*%
X159304294Y-94530886D03*
%TO.C,D154*%
X159695401Y-76757279D03*
%TO.C,D155*%
X159745401Y-80057279D03*
%TO.C,D3*%
X160045401Y-103757279D03*
%TO.C,D1*%
X160345401Y-99357279D03*
%TO.C,D156*%
X160404294Y-85180886D03*
%TO.C,D5*%
X160445401Y-113257279D03*
%TO.C,D4*%
X160645401Y-108557279D03*
%TO.C,D2*%
X160654294Y-96030886D03*
%TO.C,D155*%
X161095401Y-81557279D03*
%TO.C,D3*%
X161395401Y-105257279D03*
%TO.C,D1*%
X161695401Y-100857279D03*
%TO.C,D156*%
X161754294Y-86680886D03*
%TO.C,D5*%
X161795401Y-114757279D03*
%TO.C,D4*%
X161995401Y-110057279D03*
%TD*%
D11*
X19654294Y-5880886D03*
X22154294Y-4180886D03*
X29754294Y4219114D03*
X30254294Y10519114D03*
X30554294Y-380886D03*
X34554294Y7819114D03*
X36754294Y6419114D03*
X37854294Y7619114D03*
X38754294Y9319114D03*
X51154294Y10619114D03*
X54754294Y13619114D03*
X55644333Y11209153D03*
X61354294Y11619114D03*
X61548245Y8518614D03*
X63354294Y-67480886D03*
X64254294Y12819114D03*
X65709672Y11774492D03*
X66554294Y-135780886D03*
X66754794Y-68581659D03*
X70154294Y-137680886D03*
X70754294Y11419114D03*
X80454294Y11319114D03*
X102454294Y-39280886D03*
X102695901Y-37980886D03*
X103654294Y-40180886D03*
X105354294Y-140880886D03*
X105996794Y-31580886D03*
X107154294Y-137080886D03*
X108754294Y-41380886D03*
X111354294Y-29080886D03*
X111854294Y-29980886D03*
X114454294Y-25680886D03*
X125054294Y-180780886D03*
X128054294Y-180880886D03*
X132841468Y-91006538D03*
X133854294Y-89680886D03*
X134254294Y-91780886D03*
X134254294Y-93080886D03*
X137281759Y-83453421D03*
X137507924Y-91435368D03*
X137754294Y-93180886D03*
X141454294Y-94380886D03*
X142254294Y-81280886D03*
X144154294Y-47080886D03*
X146054294Y-94580886D03*
X146854294Y-82980886D03*
X149154294Y-83280886D03*
X149654294Y-87480886D03*
X151854294Y-87980886D03*
X159754294Y-68580886D03*
X159854294Y-92780886D03*
X160354294Y-91180886D03*
X162454294Y-90180886D03*
D12*
%TO.C,J1*%
X134284294Y-88200886D03*
X134284294Y-94550886D03*
X135554294Y-88200886D03*
X135554294Y-94550886D03*
X136824294Y-88200886D03*
X136824294Y-94550886D03*
X138094294Y-88200886D03*
X138094294Y-94550886D03*
D13*
%TO.C,J14*%
X147154294Y-119220886D03*
X147154294Y-129380886D03*
X149694294Y-119220886D03*
X149694294Y-129380886D03*
X152234294Y-119220886D03*
X152234294Y-129380886D03*
X154774294Y-119220886D03*
X154774294Y-129380886D03*
X157314294Y-119220886D03*
X157314294Y-129380886D03*
X159854294Y-119220886D03*
X159854294Y-129380886D03*
D14*
%TO.C,X1*%
X43074294Y13169114D03*
X43074294Y10629114D03*
X45614294Y13169114D03*
X45614294Y10629114D03*
X48154294Y13169114D03*
X48154294Y10629114D03*
M02*
