%TF.GenerationSoftware,KiCad,Pcbnew,(6.99.0-3809-g2741d0eb4b)*%
%TF.CreationDate,2022-10-21T00:44:09-04:00*%
%TF.ProjectId,PortWing,506f7274-5769-46e6-972e-6b696361645f,rev?*%
%TF.SameCoordinates,Original*%
%TF.FileFunction,Soldermask,Bot*%
%TF.FilePolarity,Negative*%
%FSLAX46Y46*%
G04 Gerber Fmt 4.6, Leading zero omitted, Abs format (unit mm)*
G04 Created by KiCad (PCBNEW (6.99.0-3809-g2741d0eb4b)) date 2022-10-21 00:44:09*
%MOMM*%
%LPD*%
G01*
G04 APERTURE LIST*
%ADD10C,0.600000*%
%ADD11O,1.000000X1.000000*%
%ADD12R,1.600000X2.400000*%
%ADD13O,1.600000X2.400000*%
%ADD14O,1.727200X1.727200*%
%ADD15R,1.727200X1.727200*%
%ADD16C,1.727200*%
G04 APERTURE END LIST*
D10*
%TO.C,D187*%
X-272350000Y-1750000D03*
X-271000000Y-3250000D03*
%TD*%
%TO.C,D213*%
X-280808893Y-55676393D03*
X-279458893Y-57176393D03*
%TD*%
%TO.C,D37*%
X-204308893Y-194776393D03*
X-202958893Y-196276393D03*
%TD*%
%TO.C,D94*%
X-233008893Y-136576393D03*
X-231658893Y-138076393D03*
%TD*%
%TO.C,D241*%
X-248450000Y-83150000D03*
X-247100000Y-84650000D03*
%TD*%
%TO.C,D199*%
X-293100000Y-31100000D03*
X-291750000Y-32600000D03*
%TD*%
%TO.C,D102*%
X-261350000Y-150550000D03*
X-260000000Y-152050000D03*
%TD*%
%TO.C,D78*%
X-228550000Y-160650000D03*
X-227200000Y-162150000D03*
%TD*%
%TO.C,D216*%
X-279408893Y-59450000D03*
X-278058893Y-60950000D03*
%TD*%
%TO.C,D30*%
X-191450000Y-175150000D03*
X-190100000Y-176650000D03*
%TD*%
%TO.C,D82*%
X-227400000Y-178900000D03*
X-226050000Y-180400000D03*
%TD*%
%TO.C,D153*%
X-175508893Y-87476393D03*
X-174158893Y-88976393D03*
%TD*%
%TO.C,D12*%
X-198300000Y-137500000D03*
X-196950000Y-139000000D03*
%TD*%
%TO.C,D47*%
X-238850000Y-191600000D03*
X-237500000Y-193100000D03*
%TD*%
%TO.C,D45*%
X-234000000Y-187800000D03*
X-232650000Y-189300000D03*
%TD*%
%TO.C,D233*%
X-223950000Y-60750000D03*
X-222600000Y-62250000D03*
%TD*%
%TO.C,D253*%
X-273908893Y-70076393D03*
X-272558893Y-71576393D03*
%TD*%
%TO.C,D107*%
X-267550000Y-131750000D03*
X-266200000Y-133250000D03*
%TD*%
%TO.C,D152*%
X-178650000Y-82650000D03*
X-177300000Y-84150000D03*
%TD*%
%TO.C,D196*%
X-304500000Y-25200000D03*
X-303150000Y-26700000D03*
%TD*%
%TO.C,D159*%
X-194350000Y-47150000D03*
X-193000000Y-48650000D03*
%TD*%
%TO.C,D85*%
X-217750000Y-164850000D03*
X-216400000Y-166350000D03*
%TD*%
%TO.C,D53*%
X-256050000Y-195250000D03*
X-254700000Y-196750000D03*
%TD*%
%TO.C,D20*%
X-198850000Y-170150000D03*
X-197500000Y-171650000D03*
%TD*%
%TO.C,D206*%
X-299400000Y-41100000D03*
X-298050000Y-42600000D03*
%TD*%
%TO.C,D251*%
X-278550000Y-74500000D03*
X-277200000Y-76000000D03*
%TD*%
%TO.C,D170*%
X-218200000Y-22200000D03*
X-216850000Y-23700000D03*
%TD*%
%TO.C,D165*%
X-202650000Y-35900000D03*
X-201300000Y-37400000D03*
%TD*%
%TO.C,D116*%
X-255650000Y-97750000D03*
X-254300000Y-99250000D03*
%TD*%
%TO.C,D119*%
X-225550000Y-83850000D03*
X-224200000Y-85350000D03*
%TD*%
%TO.C,D62*%
X-262250000Y-175550000D03*
X-260900000Y-177050000D03*
%TD*%
%TO.C,D249*%
X-273950000Y-82050000D03*
X-272600000Y-83550000D03*
%TD*%
%TO.C,D86*%
X-215950000Y-161050000D03*
X-214600000Y-162550000D03*
%TD*%
%TO.C,D44*%
X-229408893Y-189876393D03*
X-228058893Y-191376393D03*
%TD*%
%TO.C,D14*%
X-205808893Y-146676393D03*
X-204458893Y-148176393D03*
%TD*%
%TO.C,D76*%
X-229650000Y-152850000D03*
X-228300000Y-154350000D03*
%TD*%
%TO.C,D68*%
X-255750000Y-157750000D03*
X-254400000Y-159250000D03*
%TD*%
%TO.C,D66*%
X-258800000Y-163300000D03*
X-257450000Y-164800000D03*
%TD*%
%TO.C,D163*%
X-209550000Y-41750000D03*
X-208200000Y-43250000D03*
%TD*%
%TO.C,D61*%
X-266908893Y-177876393D03*
X-265558893Y-179376393D03*
%TD*%
%TO.C,D195*%
X-300700000Y-21000000D03*
X-299350000Y-22500000D03*
%TD*%
%TO.C,D115*%
X-257800000Y-101200000D03*
X-256450000Y-102700000D03*
%TD*%
%TO.C,D96*%
X-233650000Y-147250000D03*
X-232300000Y-148750000D03*
%TD*%
%TO.C,D227*%
X-230908893Y-54276393D03*
X-229558893Y-55776393D03*
%TD*%
%TO.C,D9*%
X-188450000Y-128450000D03*
X-187100000Y-129950000D03*
%TD*%
%TO.C,D124*%
X-208008893Y-87076393D03*
X-206658893Y-88576393D03*
%TD*%
%TO.C,D70*%
X-254800000Y-153700000D03*
X-253450000Y-155200000D03*
%TD*%
%TO.C,D198*%
X-294700000Y-27300000D03*
X-293350000Y-28800000D03*
%TD*%
%TO.C,D226*%
X-236408893Y-53976393D03*
X-235058893Y-55476393D03*
%TD*%
%TO.C,D92*%
X-225400000Y-126900000D03*
X-224050000Y-128400000D03*
%TD*%
%TO.C,D125*%
X-204450000Y-91050000D03*
X-203100000Y-92550000D03*
%TD*%
%TO.C,D230*%
X-219850000Y-43950000D03*
X-218500000Y-45450000D03*
%TD*%
%TO.C,D120*%
X-221208893Y-87076393D03*
X-219858893Y-88576393D03*
%TD*%
%TO.C,D100*%
X-250808893Y-145476393D03*
X-249458893Y-146976393D03*
%TD*%
%TO.C,D74*%
X-235350000Y-153350000D03*
X-234000000Y-154850000D03*
%TD*%
%TO.C,D3*%
X-173008893Y-120876393D03*
X-171658893Y-122376393D03*
%TD*%
%TO.C,D228*%
X-226008893Y-49776393D03*
X-224658893Y-51276393D03*
%TD*%
%TO.C,D72*%
X-244750000Y-154050000D03*
X-243400000Y-155550000D03*
%TD*%
%TO.C,D98*%
X-241950000Y-136050000D03*
X-240600000Y-137550000D03*
%TD*%
%TO.C,D190*%
X-308050000Y-16350000D03*
X-306700000Y-17850000D03*
%TD*%
%TO.C,D193*%
X-310600000Y-22800000D03*
X-309250000Y-24300000D03*
%TD*%
%TO.C,D54*%
X-261750000Y-199750000D03*
X-260400000Y-201250000D03*
%TD*%
%TO.C,D22*%
X-187808893Y-168176393D03*
X-186458893Y-169676393D03*
%TD*%
%TO.C,D154*%
X-174708893Y-92376393D03*
X-173358893Y-93876393D03*
%TD*%
%TO.C,D239*%
X-246750000Y-91150000D03*
X-245400000Y-92650000D03*
%TD*%
%TO.C,D81*%
X-225550000Y-173950000D03*
X-224200000Y-175450000D03*
%TD*%
%TO.C,D242*%
X-252208893Y-86623607D03*
X-250858893Y-88123607D03*
%TD*%
%TO.C,D48*%
X-244950000Y-191850000D03*
X-243600000Y-193350000D03*
%TD*%
%TO.C,D135*%
X-196750000Y-102150000D03*
X-195400000Y-103650000D03*
%TD*%
%TO.C,D79*%
X-227400000Y-164800000D03*
X-226050000Y-166300000D03*
%TD*%
%TO.C,D10*%
X-190650000Y-133250000D03*
X-189300000Y-134750000D03*
%TD*%
%TO.C,D128*%
X-192150000Y-95650000D03*
X-190800000Y-97150000D03*
%TD*%
%TO.C,D237*%
X-238708893Y-88576393D03*
X-237358893Y-90076393D03*
%TD*%
%TO.C,D21*%
X-193408893Y-169376393D03*
X-192058893Y-170876393D03*
%TD*%
%TO.C,D164*%
X-209850000Y-37550000D03*
X-208500000Y-39050000D03*
%TD*%
%TO.C,D246*%
X-266650000Y-81576393D03*
X-265300000Y-83076393D03*
%TD*%
%TO.C,D185*%
X-267550000Y-2650000D03*
X-266200000Y-4150000D03*
%TD*%
%TO.C,D197*%
X-295900000Y-23300000D03*
X-294550000Y-24800000D03*
%TD*%
%TO.C,D11*%
X-192650000Y-139050000D03*
X-191300000Y-140550000D03*
%TD*%
%TO.C,D28*%
X-183408893Y-168576393D03*
X-182058893Y-170076393D03*
%TD*%
%TO.C,D220*%
X-264550000Y-54650000D03*
X-263200000Y-56150000D03*
%TD*%
%TO.C,D8*%
X-183708893Y-131876393D03*
X-182358893Y-133376393D03*
%TD*%
%TO.C,D2*%
X-173750000Y-111650000D03*
X-172400000Y-113150000D03*
%TD*%
%TO.C,D129*%
X-178929289Y-105410051D03*
X-179035355Y-107425305D03*
%TD*%
%TO.C,D158*%
X-196750000Y-51150000D03*
X-195400000Y-52650000D03*
%TD*%
%TO.C,D59*%
X-268050000Y-184450000D03*
X-266700000Y-185950000D03*
%TD*%
%TO.C,D248*%
X-269850000Y-77950000D03*
X-268500000Y-79450000D03*
%TD*%
%TO.C,D252*%
X-274250000Y-74750000D03*
X-272900000Y-76250000D03*
%TD*%
%TO.C,D167*%
X-214208893Y-33976393D03*
X-212858893Y-35476393D03*
%TD*%
%TO.C,D238*%
X-241350000Y-83550000D03*
X-240000000Y-85050000D03*
%TD*%
%TO.C,D4*%
X-172408893Y-125676393D03*
X-171058893Y-127176393D03*
%TD*%
%TO.C,D137*%
X-199708893Y-81576393D03*
X-198358893Y-83076393D03*
%TD*%
%TO.C,D139*%
X-208850000Y-78150000D03*
X-207500000Y-79650000D03*
%TD*%
%TO.C,D121*%
X-217200000Y-83600000D03*
X-215850000Y-85100000D03*
%TD*%
%TO.C,D31*%
X-188250000Y-179050000D03*
X-186900000Y-180550000D03*
%TD*%
%TO.C,D182*%
X-257950000Y-8450000D03*
X-256600000Y-9950000D03*
%TD*%
%TO.C,D250*%
X-277100000Y-78700000D03*
X-275750000Y-80200000D03*
%TD*%
%TO.C,D123*%
X-210208893Y-83476393D03*
X-208858893Y-84976393D03*
%TD*%
%TO.C,D243*%
X-254800000Y-82800000D03*
X-253450000Y-84300000D03*
%TD*%
%TO.C,D247*%
X-264050000Y-85650000D03*
X-262700000Y-87150000D03*
%TD*%
%TO.C,D113*%
X-263350000Y-108650000D03*
X-262000000Y-110150000D03*
%TD*%
%TO.C,D245*%
X-261000000Y-82400000D03*
X-259650000Y-83900000D03*
%TD*%
%TO.C,D26*%
X-176650000Y-150950000D03*
X-175300000Y-152450000D03*
%TD*%
%TO.C,D39*%
X-212500000Y-198400000D03*
X-211150000Y-199900000D03*
%TD*%
%TO.C,D105*%
X-269608893Y-139676393D03*
X-268258893Y-141176393D03*
%TD*%
%TO.C,D209*%
X-286400000Y-48000000D03*
X-285050000Y-49500000D03*
%TD*%
%TO.C,D210*%
X-289208893Y-51176393D03*
X-287858893Y-52676393D03*
%TD*%
%TO.C,D192*%
X-313100000Y-18700000D03*
X-311750000Y-20200000D03*
%TD*%
%TO.C,D57*%
X-267508893Y-191576393D03*
X-266158893Y-193076393D03*
%TD*%
%TO.C,D244*%
X-258250000Y-86150000D03*
X-256900000Y-87650000D03*
%TD*%
%TO.C,D171*%
X-224200000Y-23700000D03*
X-222850000Y-25200000D03*
%TD*%
%TO.C,D63*%
X-264950000Y-171650000D03*
X-263600000Y-173150000D03*
%TD*%
%TO.C,D136*%
X-204750000Y-81950000D03*
X-203400000Y-83450000D03*
%TD*%
%TO.C,D219*%
X-269750000Y-55650000D03*
X-268400000Y-57150000D03*
%TD*%
%TO.C,D93*%
X-230008893Y-132176393D03*
X-228658893Y-133676393D03*
%TD*%
%TO.C,D134*%
X-216508893Y-119276393D03*
X-215158893Y-120776393D03*
%TD*%
%TO.C,D17*%
X-210200000Y-161700000D03*
X-208850000Y-163200000D03*
%TD*%
%TO.C,D34*%
X-198050000Y-186850000D03*
X-196700000Y-188350000D03*
%TD*%
%TO.C,D177*%
X-243750000Y-7750000D03*
X-242400000Y-9250000D03*
%TD*%
%TO.C,D88*%
X-199508893Y-124776393D03*
X-198158893Y-126276393D03*
%TD*%
%TO.C,D84*%
X-219700000Y-169000000D03*
X-218350000Y-170500000D03*
%TD*%
%TO.C,D240*%
X-246250000Y-86950000D03*
X-244900000Y-88450000D03*
%TD*%
%TO.C,D90*%
X-212308893Y-123176393D03*
X-210958893Y-124676393D03*
%TD*%
%TO.C,D126*%
X-199100000Y-93200000D03*
X-197750000Y-94700000D03*
%TD*%
%TO.C,D229*%
X-225350000Y-46350000D03*
X-224000000Y-47850000D03*
%TD*%
%TO.C,D109*%
X-263050000Y-124550000D03*
X-261700000Y-126050000D03*
%TD*%
%TO.C,D87*%
X-193708893Y-126676393D03*
X-192358893Y-128176393D03*
%TD*%
%TO.C,D189*%
X-309800000Y-6900000D03*
X-308450000Y-8400000D03*
%TD*%
%TO.C,D24*%
X-180208893Y-159976393D03*
X-178858893Y-161476393D03*
%TD*%
%TO.C,D256*%
X-273250000Y-64650000D03*
X-271900000Y-66150000D03*
%TD*%
%TO.C,D207*%
X-295300000Y-44000000D03*
X-293950000Y-45500000D03*
%TD*%
%TO.C,D95*%
X-233300000Y-141300000D03*
X-231950000Y-142800000D03*
%TD*%
%TO.C,D106*%
X-267008893Y-135576393D03*
X-265658893Y-137076393D03*
%TD*%
%TO.C,D208*%
X-288608893Y-42823607D03*
X-287258893Y-44323607D03*
%TD*%
%TO.C,D205*%
X-294900000Y-39000000D03*
X-293550000Y-40500000D03*
%TD*%
%TO.C,D77*%
X-223550000Y-151950000D03*
X-222200000Y-153450000D03*
%TD*%
%TO.C,D215*%
X-275550000Y-54750000D03*
X-274200000Y-56250000D03*
%TD*%
%TO.C,D19*%
X-203850000Y-169650000D03*
X-202500000Y-171150000D03*
%TD*%
%TO.C,D168*%
X-212800000Y-26800000D03*
X-211450000Y-28300000D03*
%TD*%
%TO.C,D49*%
X-242100000Y-196500000D03*
X-240750000Y-198000000D03*
%TD*%
%TO.C,D52*%
X-254000000Y-199700000D03*
X-252650000Y-201200000D03*
%TD*%
%TO.C,D186*%
X-269650000Y-6450000D03*
X-268300000Y-7950000D03*
%TD*%
%TO.C,D103*%
X-266700000Y-148300000D03*
X-265350000Y-149800000D03*
%TD*%
%TO.C,D89*%
X-205650000Y-123750000D03*
X-204300000Y-125250000D03*
%TD*%
%TO.C,D183*%
X-264008893Y-7676393D03*
X-262658893Y-9176393D03*
%TD*%
%TO.C,D222*%
X-254750000Y-52950000D03*
X-253400000Y-54450000D03*
%TD*%
%TO.C,D156*%
X-172650000Y-102300000D03*
X-171300000Y-103800000D03*
%TD*%
%TO.C,D147*%
X-185708893Y-61476393D03*
X-184358893Y-62976393D03*
%TD*%
%TO.C,D71*%
X-249850000Y-155400000D03*
X-248500000Y-156900000D03*
%TD*%
%TO.C,D56*%
X-267250000Y-197000000D03*
X-265900000Y-198500000D03*
%TD*%
%TO.C,D235*%
X-219000000Y-71800000D03*
X-217650000Y-73300000D03*
%TD*%
%TO.C,D27*%
X-182708893Y-149276393D03*
X-181358893Y-150776393D03*
%TD*%
%TO.C,D133*%
X-210608893Y-115376393D03*
X-209258893Y-116876393D03*
%TD*%
%TO.C,D144*%
X-202608893Y-58676393D03*
X-201258893Y-60176393D03*
%TD*%
%TO.C,D73*%
X-240050000Y-154450000D03*
X-238700000Y-155950000D03*
%TD*%
%TO.C,D176*%
X-239450000Y-15150000D03*
X-238100000Y-16650000D03*
%TD*%
%TO.C,D254*%
X-278200000Y-70000000D03*
X-276850000Y-71500000D03*
%TD*%
%TO.C,D174*%
X-232200000Y-14400000D03*
X-230850000Y-15900000D03*
%TD*%
%TO.C,D97*%
X-236550000Y-132750000D03*
X-235200000Y-134250000D03*
%TD*%
%TO.C,D6*%
X-178308893Y-127676393D03*
X-176958893Y-129176393D03*
%TD*%
%TO.C,D146*%
X-191150000Y-58150000D03*
X-189800000Y-59650000D03*
%TD*%
%TO.C,D67*%
X-260250000Y-159650000D03*
X-258900000Y-161150000D03*
%TD*%
%TO.C,D150*%
X-181950000Y-74250000D03*
X-180600000Y-75750000D03*
%TD*%
%TO.C,D15*%
X-210150000Y-152150000D03*
X-208800000Y-153650000D03*
%TD*%
%TO.C,D202*%
X-300500000Y-37000000D03*
X-299150000Y-38500000D03*
%TD*%
%TO.C,D118*%
X-231200000Y-86400000D03*
X-229850000Y-87900000D03*
%TD*%
%TO.C,D80*%
X-225300000Y-169200000D03*
X-223950000Y-170700000D03*
%TD*%
%TO.C,D221*%
X-259750000Y-53450000D03*
X-258400000Y-54950000D03*
%TD*%
%TO.C,D13*%
X-201650000Y-142450000D03*
X-200300000Y-143950000D03*
%TD*%
%TO.C,D155*%
X-173308893Y-97176393D03*
X-171958893Y-98676393D03*
%TD*%
%TO.C,D217*%
X-275050000Y-61550000D03*
X-273700000Y-63050000D03*
%TD*%
%TO.C,D141*%
X-209550000Y-72650000D03*
X-208200000Y-74150000D03*
%TD*%
%TO.C,D203*%
X-293350000Y-35350000D03*
X-292000000Y-36850000D03*
%TD*%
%TO.C,D65*%
X-262900000Y-165800000D03*
X-261550000Y-167300000D03*
%TD*%
%TO.C,D36*%
X-202608893Y-190276393D03*
X-201258893Y-191776393D03*
%TD*%
%TO.C,D145*%
X-197250000Y-56350000D03*
X-195900000Y-57850000D03*
%TD*%
%TO.C,D29*%
X-185800000Y-173500000D03*
X-184450000Y-175000000D03*
%TD*%
%TO.C,D101*%
X-254750000Y-149650000D03*
X-253400000Y-151150000D03*
%TD*%
%TO.C,D173*%
X-232050000Y-19400000D03*
X-230700000Y-20900000D03*
%TD*%
%TO.C,D223*%
X-250250000Y-52350000D03*
X-248900000Y-53850000D03*
%TD*%
%TO.C,D23*%
X-184008893Y-164076393D03*
X-182658893Y-165576393D03*
%TD*%
%TO.C,D138*%
X-194750000Y-79750000D03*
X-193400000Y-81250000D03*
%TD*%
%TO.C,D46*%
X-234450000Y-193750000D03*
X-233100000Y-195250000D03*
%TD*%
%TO.C,D108*%
X-263850000Y-128250000D03*
X-262500000Y-129750000D03*
%TD*%
%TO.C,D172*%
X-225550000Y-17050000D03*
X-224200000Y-18550000D03*
%TD*%
%TO.C,D166*%
X-208208893Y-32076393D03*
X-206858893Y-33576393D03*
%TD*%
%TO.C,D132*%
X-205408893Y-112376393D03*
X-204058893Y-113876393D03*
%TD*%
%TO.C,D55*%
X-261750000Y-194150000D03*
X-260400000Y-195650000D03*
%TD*%
%TO.C,D211*%
X-288208893Y-55976393D03*
X-286858893Y-57476393D03*
%TD*%
%TO.C,D50*%
X-249150000Y-198250000D03*
X-247800000Y-199750000D03*
%TD*%
%TO.C,D214*%
X-283550000Y-58650000D03*
X-282200000Y-60150000D03*
%TD*%
%TO.C,D60*%
X-263908893Y-181576393D03*
X-262558893Y-183076393D03*
%TD*%
%TO.C,D231*%
X-216208893Y-40076393D03*
X-214858893Y-41576393D03*
%TD*%
%TO.C,D179*%
X-248908893Y-5076393D03*
X-247558893Y-6576393D03*
%TD*%
%TO.C,D33*%
X-191750000Y-185050000D03*
X-190400000Y-186550000D03*
%TD*%
%TO.C,D232*%
X-225508893Y-55576393D03*
X-224158893Y-57076393D03*
%TD*%
%TO.C,D169*%
X-218208893Y-27976393D03*
X-216858893Y-29476393D03*
%TD*%
%TO.C,D212*%
X-283750000Y-52250000D03*
X-282400000Y-53750000D03*
%TD*%
%TO.C,D224*%
X-245550000Y-53050000D03*
X-244200000Y-54550000D03*
%TD*%
%TO.C,D5*%
X-172608893Y-130376393D03*
X-171258893Y-131876393D03*
%TD*%
%TO.C,D201*%
X-300200000Y-32900000D03*
X-298850000Y-34400000D03*
%TD*%
%TO.C,D43*%
X-229250000Y-194450000D03*
X-227900000Y-195950000D03*
%TD*%
%TO.C,D160*%
X-201508893Y-45376393D03*
X-200158893Y-46876393D03*
%TD*%
%TO.C,D175*%
X-237450000Y-10350000D03*
X-236100000Y-11850000D03*
%TD*%
%TO.C,D234*%
X-222150000Y-65850000D03*
X-220800000Y-67350000D03*
%TD*%
%TO.C,D114*%
X-261650000Y-104950000D03*
X-260300000Y-106450000D03*
%TD*%
%TO.C,D151*%
X-177750000Y-78050000D03*
X-176400000Y-79550000D03*
%TD*%
%TO.C,D140*%
X-214950000Y-77250000D03*
X-213600000Y-78750000D03*
%TD*%
%TO.C,D180*%
X-252250000Y-10700000D03*
X-250900000Y-12200000D03*
%TD*%
%TO.C,D149*%
X-181508893Y-69276393D03*
X-180158893Y-70776393D03*
%TD*%
%TO.C,D16*%
X-210650000Y-157250000D03*
X-209300000Y-158750000D03*
%TD*%
%TO.C,D122*%
X-213550000Y-87750000D03*
X-212200000Y-89250000D03*
%TD*%
%TO.C,D255*%
X-277500000Y-66400000D03*
X-276150000Y-67900000D03*
%TD*%
%TO.C,D157*%
X-190750000Y-52950000D03*
X-189400000Y-54450000D03*
%TD*%
%TO.C,D91*%
X-218550000Y-123850000D03*
X-217200000Y-125350000D03*
%TD*%
%TO.C,D58*%
X-264208893Y-188176393D03*
X-262858893Y-189676393D03*
%TD*%
%TO.C,D104*%
X-266408893Y-143776393D03*
X-265058893Y-145276393D03*
%TD*%
%TO.C,D41*%
X-219850000Y-198450000D03*
X-218500000Y-199950000D03*
%TD*%
%TO.C,D51*%
X-251050000Y-193550000D03*
X-249700000Y-195050000D03*
%TD*%
%TO.C,D40*%
X-217850000Y-194650000D03*
X-216500000Y-196150000D03*
%TD*%
%TO.C,D117*%
X-251450000Y-94850000D03*
X-250100000Y-96350000D03*
%TD*%
%TO.C,D142*%
X-208450000Y-67900000D03*
X-207100000Y-69400000D03*
%TD*%
%TO.C,D218*%
X-270650000Y-59350000D03*
X-269300000Y-60850000D03*
%TD*%
%TO.C,D42*%
X-223608893Y-193976393D03*
X-222258893Y-195476393D03*
%TD*%
%TO.C,D161*%
X-197908893Y-41476393D03*
X-196558893Y-42976393D03*
%TD*%
%TO.C,D194*%
X-305200000Y-20800000D03*
X-303850000Y-22300000D03*
%TD*%
%TO.C,D188*%
X-307250000Y-11350000D03*
X-305900000Y-12850000D03*
%TD*%
%TO.C,D83*%
X-229908893Y-184276393D03*
X-228558893Y-185776393D03*
%TD*%
%TO.C,D184*%
X-262750000Y-2950000D03*
X-261400000Y-4450000D03*
%TD*%
%TO.C,D1*%
X-172708893Y-116476393D03*
X-171358893Y-117976393D03*
%TD*%
%TO.C,D130*%
X-178408893Y-114576393D03*
X-177058893Y-116076393D03*
%TD*%
%TO.C,D200*%
X-299400000Y-28900000D03*
X-298050000Y-30400000D03*
%TD*%
%TO.C,D35*%
X-196208893Y-190876393D03*
X-194858893Y-192376393D03*
%TD*%
%TO.C,D236*%
X-235450000Y-83550000D03*
X-234100000Y-85050000D03*
%TD*%
%TO.C,D7*%
X-176850000Y-131850000D03*
X-175500000Y-133350000D03*
%TD*%
%TO.C,D143*%
X-206608893Y-62976393D03*
X-205258893Y-64476393D03*
%TD*%
%TO.C,D18*%
X-208350000Y-166450000D03*
X-207000000Y-167950000D03*
%TD*%
%TO.C,D110*%
X-264550000Y-120750000D03*
X-263200000Y-122250000D03*
%TD*%
%TO.C,D178*%
X-246250000Y-12750000D03*
X-244900000Y-14250000D03*
%TD*%
%TO.C,D127*%
X-196850000Y-97150000D03*
X-195500000Y-98650000D03*
%TD*%
%TO.C,D112*%
X-265150000Y-112300000D03*
X-263800000Y-113800000D03*
%TD*%
%TO.C,D25*%
X-178308893Y-155776393D03*
X-176958893Y-157276393D03*
%TD*%
%TO.C,D99*%
X-246508893Y-140676393D03*
X-245158893Y-142176393D03*
%TD*%
%TO.C,D131*%
X-184000000Y-112500000D03*
X-182650000Y-114000000D03*
%TD*%
%TO.C,D111*%
X-264850000Y-116650000D03*
X-263500000Y-118150000D03*
%TD*%
%TO.C,D148*%
X-186150000Y-66250000D03*
X-184800000Y-67750000D03*
%TD*%
%TO.C,D75*%
X-231308893Y-156976393D03*
X-229958893Y-158476393D03*
%TD*%
%TO.C,D38*%
X-209550000Y-194150000D03*
X-208200000Y-195650000D03*
%TD*%
%TO.C,D191*%
X-313708893Y-14700000D03*
X-312358893Y-16200000D03*
%TD*%
%TO.C,D64*%
X-260408893Y-169676393D03*
X-259058893Y-171176393D03*
%TD*%
%TO.C,D225*%
X-240650000Y-53550000D03*
X-239300000Y-55050000D03*
%TD*%
%TO.C,D181*%
X-256200000Y-4100000D03*
X-254850000Y-5600000D03*
%TD*%
%TO.C,D204*%
X-288308893Y-36923607D03*
X-286958893Y-38423607D03*
%TD*%
%TO.C,D32*%
X-194200000Y-181600000D03*
X-192850000Y-183100000D03*
%TD*%
%TO.C,D69*%
X-259900000Y-155100000D03*
X-258550000Y-156600000D03*
%TD*%
%TO.C,D162*%
X-203850000Y-40850000D03*
X-202500000Y-42350000D03*
%TD*%
D11*
%TO.C,J1*%
X-198769999Y-105319999D03*
X-198769999Y-111669999D03*
X-197499999Y-105319999D03*
X-197499999Y-111669999D03*
X-196229999Y-105319999D03*
X-196229999Y-111669999D03*
X-194959999Y-105319999D03*
X-194959999Y-111669999D03*
%TD*%
D12*
%TO.C,J14*%
X-185899999Y-146499999D03*
D13*
X-183359999Y-146499999D03*
X-180819999Y-146499999D03*
X-178279999Y-146499999D03*
X-175739999Y-146499999D03*
X-173199999Y-146499999D03*
X-173199999Y-136339999D03*
X-175739999Y-136339999D03*
X-178279999Y-136339999D03*
X-180819999Y-136339999D03*
X-183359999Y-136339999D03*
X-185899999Y-136339999D03*
%TD*%
D14*
%TO.C,X1*%
X-289979999Y-3949999D03*
D15*
X-289979999Y-6489999D03*
D14*
X-287439999Y-3949999D03*
X-287439999Y-6489999D03*
D16*
X-284900000Y-3950000D03*
X-284900000Y-6490000D03*
%TD*%
M02*
