%TF.GenerationSoftware,KiCad,Pcbnew,(6.99.0-3809-g2741d0eb4b)*%
%TF.CreationDate,2022-10-21T00:44:09-04:00*%
%TF.ProjectId,PortWing,506f7274-5769-46e6-972e-6b696361645f,rev?*%
%TF.SameCoordinates,Original*%
%TF.FileFunction,Soldermask,Top*%
%TF.FilePolarity,Negative*%
%FSLAX46Y46*%
G04 Gerber Fmt 4.6, Leading zero omitted, Abs format (unit mm)*
G04 Created by KiCad (PCBNEW (6.99.0-3809-g2741d0eb4b)) date 2022-10-21 00:44:09*
%MOMM*%
%LPD*%
G01*
G04 APERTURE LIST*
G04 Aperture macros list*
%AMRoundRect*
0 Rectangle with rounded corners*
0 $1 Rounding radius*
0 $2 $3 $4 $5 $6 $7 $8 $9 X,Y pos of 4 corners*
0 Add a 4 corners polygon primitive as box body*
4,1,4,$2,$3,$4,$5,$6,$7,$8,$9,$2,$3,0*
0 Add four circle primitives for the rounded corners*
1,1,$1+$1,$2,$3*
1,1,$1+$1,$4,$5*
1,1,$1+$1,$6,$7*
1,1,$1+$1,$8,$9*
0 Add four rect primitives between the rounded corners*
20,1,$1+$1,$2,$3,$4,$5,0*
20,1,$1+$1,$4,$5,$6,$7,0*
20,1,$1+$1,$6,$7,$8,$9,0*
20,1,$1+$1,$8,$9,$2,$3,0*%
%AMRotRect*
0 Rectangle, with rotation*
0 The origin of the aperture is its center*
0 $1 length*
0 $2 width*
0 $3 Rotation angle, in degrees counterclockwise*
0 Add horizontal line*
21,1,$1,$2,0,0,$3*%
G04 Aperture macros list end*
%ADD10C,0.600000*%
%ADD11R,0.900000X0.750000*%
%ADD12RotRect,0.900000X0.750000X135.000000*%
%ADD13O,1.000000X1.000000*%
%ADD14R,0.750000X0.750000*%
%ADD15O,0.750000X0.750000*%
%ADD16RoundRect,0.250000X-0.650000X0.325000X-0.650000X-0.325000X0.650000X-0.325000X0.650000X0.325000X0*%
%ADD17RoundRect,0.150000X0.256326X0.468458X-0.468458X-0.256326X-0.256326X-0.468458X0.468458X0.256326X0*%
%ADD18RoundRect,0.150000X0.150000X-0.587500X0.150000X0.587500X-0.150000X0.587500X-0.150000X-0.587500X0*%
%ADD19RoundRect,0.225000X0.250000X-0.225000X0.250000X0.225000X-0.250000X0.225000X-0.250000X-0.225000X0*%
%ADD20RoundRect,0.250000X-0.325000X-0.650000X0.325000X-0.650000X0.325000X0.650000X-0.325000X0.650000X0*%
%ADD21RoundRect,0.250000X-0.229810X0.689429X-0.689429X0.229810X0.229810X-0.689429X0.689429X-0.229810X0*%
%ADD22RotRect,1.000000X1.500000X225.000000*%
%ADD23RoundRect,0.250000X0.325000X0.650000X-0.325000X0.650000X-0.325000X-0.650000X0.325000X-0.650000X0*%
%ADD24RoundRect,0.150000X0.150000X-0.675000X0.150000X0.675000X-0.150000X0.675000X-0.150000X-0.675000X0*%
%ADD25R,1.600000X2.400000*%
%ADD26O,1.600000X2.400000*%
%ADD27RoundRect,0.150000X0.512500X0.150000X-0.512500X0.150000X-0.512500X-0.150000X0.512500X-0.150000X0*%
%ADD28O,1.727200X1.727200*%
%ADD29R,1.727200X1.727200*%
%ADD30C,1.727200*%
%ADD31RoundRect,0.140000X-0.170000X0.140000X-0.170000X-0.140000X0.170000X-0.140000X0.170000X0.140000X0*%
%ADD32RoundRect,0.250000X0.689429X0.229810X0.229810X0.689429X-0.689429X-0.229810X-0.229810X-0.689429X0*%
%ADD33RoundRect,0.225000X0.225000X0.250000X-0.225000X0.250000X-0.225000X-0.250000X0.225000X-0.250000X0*%
G04 APERTURE END LIST*
D10*
%TO.C,D187*%
X-272350000Y-1750000D03*
D11*
X-273049999Y-1749999D03*
X-273049999Y-3249999D03*
X-270349999Y-3249999D03*
D10*
X-271000000Y-3250000D03*
D11*
X-270349999Y-1749999D03*
%TD*%
D10*
%TO.C,D213*%
X-280808893Y-55676393D03*
D11*
X-281508892Y-55676392D03*
X-281508892Y-57176392D03*
X-278808892Y-57176392D03*
D10*
X-279458893Y-57176393D03*
D11*
X-278808892Y-55676392D03*
%TD*%
D10*
%TO.C,D37*%
X-204308893Y-194776393D03*
D11*
X-205008892Y-194776392D03*
X-205008892Y-196276392D03*
X-202308892Y-196276392D03*
D10*
X-202958893Y-196276393D03*
D11*
X-202308892Y-194776392D03*
%TD*%
D10*
%TO.C,D94*%
X-233008893Y-136576393D03*
D11*
X-233708892Y-136576392D03*
X-233708892Y-138076392D03*
X-231008892Y-138076392D03*
D10*
X-231658893Y-138076393D03*
D11*
X-231008892Y-136576392D03*
%TD*%
D10*
%TO.C,D241*%
X-248450000Y-83150000D03*
D11*
X-249149999Y-83149999D03*
X-249149999Y-84649999D03*
X-246449999Y-84649999D03*
D10*
X-247100000Y-84650000D03*
D11*
X-246449999Y-83149999D03*
%TD*%
D10*
%TO.C,D199*%
X-293100000Y-31100000D03*
D11*
X-293799999Y-31099999D03*
X-293799999Y-32599999D03*
X-291099999Y-32599999D03*
D10*
X-291750000Y-32600000D03*
D11*
X-291099999Y-31099999D03*
%TD*%
D10*
%TO.C,D102*%
X-261350000Y-150550000D03*
D11*
X-262049999Y-150549999D03*
X-262049999Y-152049999D03*
X-259349999Y-152049999D03*
D10*
X-260000000Y-152050000D03*
D11*
X-259349999Y-150549999D03*
%TD*%
D10*
%TO.C,D78*%
X-228550000Y-160650000D03*
D11*
X-229249999Y-160649999D03*
X-229249999Y-162149999D03*
X-226549999Y-162149999D03*
D10*
X-227200000Y-162150000D03*
D11*
X-226549999Y-160649999D03*
%TD*%
D10*
%TO.C,D216*%
X-279408893Y-59450000D03*
D11*
X-280108892Y-59449999D03*
X-280108892Y-60949999D03*
X-277408892Y-60949999D03*
D10*
X-278058893Y-60950000D03*
D11*
X-277408892Y-59449999D03*
%TD*%
D10*
%TO.C,D30*%
X-191450000Y-175150000D03*
D11*
X-192149999Y-175149999D03*
X-192149999Y-176649999D03*
X-189449999Y-176649999D03*
D10*
X-190100000Y-176650000D03*
D11*
X-189449999Y-175149999D03*
%TD*%
D10*
%TO.C,D82*%
X-227400000Y-178900000D03*
D11*
X-228099999Y-178899999D03*
X-228099999Y-180399999D03*
X-225399999Y-180399999D03*
D10*
X-226050000Y-180400000D03*
D11*
X-225399999Y-178899999D03*
%TD*%
D10*
%TO.C,D153*%
X-175508893Y-87476393D03*
D11*
X-176208892Y-87476392D03*
X-176208892Y-88976392D03*
X-173508892Y-88976392D03*
D10*
X-174158893Y-88976393D03*
D11*
X-173508892Y-87476392D03*
%TD*%
D10*
%TO.C,D12*%
X-198300000Y-137500000D03*
D11*
X-198999999Y-137499999D03*
X-198999999Y-138999999D03*
X-196299999Y-138999999D03*
D10*
X-196950000Y-139000000D03*
D11*
X-196299999Y-137499999D03*
%TD*%
D10*
%TO.C,D47*%
X-238850000Y-191600000D03*
D11*
X-239549999Y-191599999D03*
X-239549999Y-193099999D03*
X-236849999Y-193099999D03*
D10*
X-237500000Y-193100000D03*
D11*
X-236849999Y-191599999D03*
%TD*%
D10*
%TO.C,D45*%
X-234000000Y-187800000D03*
D11*
X-234699999Y-187799999D03*
X-234699999Y-189299999D03*
X-231999999Y-189299999D03*
D10*
X-232650000Y-189300000D03*
D11*
X-231999999Y-187799999D03*
%TD*%
D10*
%TO.C,D233*%
X-223950000Y-60750000D03*
D11*
X-224649999Y-60749999D03*
X-224649999Y-62249999D03*
X-221949999Y-62249999D03*
D10*
X-222600000Y-62250000D03*
D11*
X-221949999Y-60749999D03*
%TD*%
D10*
%TO.C,D253*%
X-273908893Y-70076393D03*
D11*
X-274608892Y-70076392D03*
X-274608892Y-71576392D03*
X-271908892Y-71576392D03*
D10*
X-272558893Y-71576393D03*
D11*
X-271908892Y-70076392D03*
%TD*%
D10*
%TO.C,D107*%
X-267550000Y-131750000D03*
D11*
X-268249999Y-131749999D03*
X-268249999Y-133249999D03*
X-265549999Y-133249999D03*
D10*
X-266200000Y-133250000D03*
D11*
X-265549999Y-131749999D03*
%TD*%
D10*
%TO.C,D152*%
X-178650000Y-82650000D03*
D11*
X-179349999Y-82649999D03*
X-179349999Y-84149999D03*
X-176649999Y-84149999D03*
D10*
X-177300000Y-84150000D03*
D11*
X-176649999Y-82649999D03*
%TD*%
D10*
%TO.C,D196*%
X-304500000Y-25200000D03*
D11*
X-305199999Y-25199999D03*
X-305199999Y-26699999D03*
X-302499999Y-26699999D03*
D10*
X-303150000Y-26700000D03*
D11*
X-302499999Y-25199999D03*
%TD*%
D10*
%TO.C,D159*%
X-194350000Y-47150000D03*
D11*
X-195049999Y-47149999D03*
X-195049999Y-48649999D03*
X-192349999Y-48649999D03*
D10*
X-193000000Y-48650000D03*
D11*
X-192349999Y-47149999D03*
%TD*%
D10*
%TO.C,D85*%
X-217750000Y-164850000D03*
D11*
X-218449999Y-164849999D03*
X-218449999Y-166349999D03*
X-215749999Y-166349999D03*
D10*
X-216400000Y-166350000D03*
D11*
X-215749999Y-164849999D03*
%TD*%
D10*
%TO.C,D53*%
X-256050000Y-195250000D03*
D11*
X-256749999Y-195249999D03*
X-256749999Y-196749999D03*
X-254049999Y-196749999D03*
D10*
X-254700000Y-196750000D03*
D11*
X-254049999Y-195249999D03*
%TD*%
D10*
%TO.C,D20*%
X-198850000Y-170150000D03*
D11*
X-199549999Y-170149999D03*
X-199549999Y-171649999D03*
X-196849999Y-171649999D03*
D10*
X-197500000Y-171650000D03*
D11*
X-196849999Y-170149999D03*
%TD*%
D10*
%TO.C,D206*%
X-299400000Y-41100000D03*
D11*
X-300099999Y-41099999D03*
X-300099999Y-42599999D03*
X-297399999Y-42599999D03*
D10*
X-298050000Y-42600000D03*
D11*
X-297399999Y-41099999D03*
%TD*%
D10*
%TO.C,D251*%
X-278550000Y-74500000D03*
D11*
X-279249999Y-74499999D03*
X-279249999Y-75999999D03*
X-276549999Y-75999999D03*
D10*
X-277200000Y-76000000D03*
D11*
X-276549999Y-74499999D03*
%TD*%
D10*
%TO.C,D170*%
X-218200000Y-22200000D03*
D11*
X-218899999Y-22199999D03*
X-218899999Y-23699999D03*
X-216199999Y-23699999D03*
D10*
X-216850000Y-23700000D03*
D11*
X-216199999Y-22199999D03*
%TD*%
D10*
%TO.C,D165*%
X-202650000Y-35900000D03*
D11*
X-203349999Y-35899999D03*
X-203349999Y-37399999D03*
X-200649999Y-37399999D03*
D10*
X-201300000Y-37400000D03*
D11*
X-200649999Y-35899999D03*
%TD*%
D10*
%TO.C,D116*%
X-255650000Y-97750000D03*
D11*
X-256349999Y-97749999D03*
X-256349999Y-99249999D03*
X-253649999Y-99249999D03*
D10*
X-254300000Y-99250000D03*
D11*
X-253649999Y-97749999D03*
%TD*%
D10*
%TO.C,D119*%
X-225550000Y-83850000D03*
D11*
X-226249999Y-83849999D03*
X-226249999Y-85349999D03*
X-223549999Y-85349999D03*
D10*
X-224200000Y-85350000D03*
D11*
X-223549999Y-83849999D03*
%TD*%
D10*
%TO.C,D62*%
X-262250000Y-175550000D03*
D11*
X-262949999Y-175549999D03*
X-262949999Y-177049999D03*
X-260249999Y-177049999D03*
D10*
X-260900000Y-177050000D03*
D11*
X-260249999Y-175549999D03*
%TD*%
D10*
%TO.C,D249*%
X-273950000Y-82050000D03*
D11*
X-274649999Y-82049999D03*
X-274649999Y-83549999D03*
X-271949999Y-83549999D03*
D10*
X-272600000Y-83550000D03*
D11*
X-271949999Y-82049999D03*
%TD*%
D10*
%TO.C,D86*%
X-215950000Y-161050000D03*
D11*
X-216649999Y-161049999D03*
X-216649999Y-162549999D03*
X-213949999Y-162549999D03*
D10*
X-214600000Y-162550000D03*
D11*
X-213949999Y-161049999D03*
%TD*%
D10*
%TO.C,D44*%
X-229408893Y-189876393D03*
D11*
X-230108892Y-189876392D03*
X-230108892Y-191376392D03*
X-227408892Y-191376392D03*
D10*
X-228058893Y-191376393D03*
D11*
X-227408892Y-189876392D03*
%TD*%
D10*
%TO.C,D14*%
X-205808893Y-146676393D03*
D11*
X-206508892Y-146676392D03*
X-206508892Y-148176392D03*
X-203808892Y-148176392D03*
D10*
X-204458893Y-148176393D03*
D11*
X-203808892Y-146676392D03*
%TD*%
D10*
%TO.C,D76*%
X-229650000Y-152850000D03*
D11*
X-230349999Y-152849999D03*
X-230349999Y-154349999D03*
X-227649999Y-154349999D03*
D10*
X-228300000Y-154350000D03*
D11*
X-227649999Y-152849999D03*
%TD*%
D10*
%TO.C,D68*%
X-255750000Y-157750000D03*
D11*
X-256449999Y-157749999D03*
X-256449999Y-159249999D03*
X-253749999Y-159249999D03*
D10*
X-254400000Y-159250000D03*
D11*
X-253749999Y-157749999D03*
%TD*%
D10*
%TO.C,D66*%
X-258800000Y-163300000D03*
D11*
X-259499999Y-163299999D03*
X-259499999Y-164799999D03*
X-256799999Y-164799999D03*
D10*
X-257450000Y-164800000D03*
D11*
X-256799999Y-163299999D03*
%TD*%
D10*
%TO.C,D163*%
X-209550000Y-41750000D03*
D11*
X-210249999Y-41749999D03*
X-210249999Y-43249999D03*
X-207549999Y-43249999D03*
D10*
X-208200000Y-43250000D03*
D11*
X-207549999Y-41749999D03*
%TD*%
D10*
%TO.C,D61*%
X-266908893Y-177876393D03*
D11*
X-267608892Y-177876392D03*
X-267608892Y-179376392D03*
X-264908892Y-179376392D03*
D10*
X-265558893Y-179376393D03*
D11*
X-264908892Y-177876392D03*
%TD*%
D10*
%TO.C,D195*%
X-300700000Y-21000000D03*
D11*
X-301399999Y-20999999D03*
X-301399999Y-22499999D03*
X-298699999Y-22499999D03*
D10*
X-299350000Y-22500000D03*
D11*
X-298699999Y-20999999D03*
%TD*%
D10*
%TO.C,D115*%
X-257800000Y-101200000D03*
D11*
X-258499999Y-101199999D03*
X-258499999Y-102699999D03*
X-255799999Y-102699999D03*
D10*
X-256450000Y-102700000D03*
D11*
X-255799999Y-101199999D03*
%TD*%
D10*
%TO.C,D96*%
X-233650000Y-147250000D03*
D11*
X-234349999Y-147249999D03*
X-234349999Y-148749999D03*
X-231649999Y-148749999D03*
D10*
X-232300000Y-148750000D03*
D11*
X-231649999Y-147249999D03*
%TD*%
D10*
%TO.C,D227*%
X-230908893Y-54276393D03*
D11*
X-231608892Y-54276392D03*
X-231608892Y-55776392D03*
X-228908892Y-55776392D03*
D10*
X-229558893Y-55776393D03*
D11*
X-228908892Y-54276392D03*
%TD*%
D10*
%TO.C,D9*%
X-188450000Y-128450000D03*
D11*
X-189149999Y-128449999D03*
X-189149999Y-129949999D03*
X-186449999Y-129949999D03*
D10*
X-187100000Y-129950000D03*
D11*
X-186449999Y-128449999D03*
%TD*%
D10*
%TO.C,D124*%
X-208008893Y-87076393D03*
D11*
X-208708892Y-87076392D03*
X-208708892Y-88576392D03*
X-206008892Y-88576392D03*
D10*
X-206658893Y-88576393D03*
D11*
X-206008892Y-87076392D03*
%TD*%
D10*
%TO.C,D70*%
X-254800000Y-153700000D03*
D11*
X-255499999Y-153699999D03*
X-255499999Y-155199999D03*
X-252799999Y-155199999D03*
D10*
X-253450000Y-155200000D03*
D11*
X-252799999Y-153699999D03*
%TD*%
D10*
%TO.C,D198*%
X-294700000Y-27300000D03*
D11*
X-295399999Y-27299999D03*
X-295399999Y-28799999D03*
X-292699999Y-28799999D03*
D10*
X-293350000Y-28800000D03*
D11*
X-292699999Y-27299999D03*
%TD*%
D10*
%TO.C,D226*%
X-236408893Y-53976393D03*
D11*
X-237108892Y-53976392D03*
X-237108892Y-55476392D03*
X-234408892Y-55476392D03*
D10*
X-235058893Y-55476393D03*
D11*
X-234408892Y-53976392D03*
%TD*%
D10*
%TO.C,D92*%
X-225400000Y-126900000D03*
D11*
X-226099999Y-126899999D03*
X-226099999Y-128399999D03*
X-223399999Y-128399999D03*
D10*
X-224050000Y-128400000D03*
D11*
X-223399999Y-126899999D03*
%TD*%
D10*
%TO.C,D125*%
X-204450000Y-91050000D03*
D11*
X-205149999Y-91049999D03*
X-205149999Y-92549999D03*
X-202449999Y-92549999D03*
D10*
X-203100000Y-92550000D03*
D11*
X-202449999Y-91049999D03*
%TD*%
D10*
%TO.C,D230*%
X-219850000Y-43950000D03*
D11*
X-220549999Y-43949999D03*
X-220549999Y-45449999D03*
X-217849999Y-45449999D03*
D10*
X-218500000Y-45450000D03*
D11*
X-217849999Y-43949999D03*
%TD*%
D10*
%TO.C,D120*%
X-221208893Y-87076393D03*
D11*
X-221908892Y-87076392D03*
X-221908892Y-88576392D03*
X-219208892Y-88576392D03*
D10*
X-219858893Y-88576393D03*
D11*
X-219208892Y-87076392D03*
%TD*%
D10*
%TO.C,D100*%
X-250808893Y-145476393D03*
D11*
X-251508892Y-145476392D03*
X-251508892Y-146976392D03*
X-248808892Y-146976392D03*
D10*
X-249458893Y-146976393D03*
D11*
X-248808892Y-145476392D03*
%TD*%
D10*
%TO.C,D74*%
X-235350000Y-153350000D03*
D11*
X-236049999Y-153349999D03*
X-236049999Y-154849999D03*
X-233349999Y-154849999D03*
D10*
X-234000000Y-154850000D03*
D11*
X-233349999Y-153349999D03*
%TD*%
D10*
%TO.C,D3*%
X-173008893Y-120876393D03*
D11*
X-173708892Y-120876392D03*
X-173708892Y-122376392D03*
X-171008892Y-122376392D03*
D10*
X-171658893Y-122376393D03*
D11*
X-171008892Y-120876392D03*
%TD*%
D10*
%TO.C,D228*%
X-226008893Y-49776393D03*
D11*
X-226708892Y-49776392D03*
X-226708892Y-51276392D03*
X-224008892Y-51276392D03*
D10*
X-224658893Y-51276393D03*
D11*
X-224008892Y-49776392D03*
%TD*%
D10*
%TO.C,D72*%
X-244750000Y-154050000D03*
D11*
X-245449999Y-154049999D03*
X-245449999Y-155549999D03*
X-242749999Y-155549999D03*
D10*
X-243400000Y-155550000D03*
D11*
X-242749999Y-154049999D03*
%TD*%
D10*
%TO.C,D98*%
X-241950000Y-136050000D03*
D11*
X-242649999Y-136049999D03*
X-242649999Y-137549999D03*
X-239949999Y-137549999D03*
D10*
X-240600000Y-137550000D03*
D11*
X-239949999Y-136049999D03*
%TD*%
D10*
%TO.C,D190*%
X-308050000Y-16350000D03*
D11*
X-308749999Y-16349999D03*
X-308749999Y-17849999D03*
X-306049999Y-17849999D03*
D10*
X-306700000Y-17850000D03*
D11*
X-306049999Y-16349999D03*
%TD*%
D10*
%TO.C,D193*%
X-310600000Y-22800000D03*
D11*
X-311299999Y-22799999D03*
X-311299999Y-24299999D03*
X-308599999Y-24299999D03*
D10*
X-309250000Y-24300000D03*
D11*
X-308599999Y-22799999D03*
%TD*%
D10*
%TO.C,D54*%
X-261750000Y-199750000D03*
D11*
X-262449999Y-199749999D03*
X-262449999Y-201249999D03*
X-259749999Y-201249999D03*
D10*
X-260400000Y-201250000D03*
D11*
X-259749999Y-199749999D03*
%TD*%
D10*
%TO.C,D22*%
X-187808893Y-168176393D03*
D11*
X-188508892Y-168176392D03*
X-188508892Y-169676392D03*
X-185808892Y-169676392D03*
D10*
X-186458893Y-169676393D03*
D11*
X-185808892Y-168176392D03*
%TD*%
D10*
%TO.C,D154*%
X-174708893Y-92376393D03*
D11*
X-175408892Y-92376392D03*
X-175408892Y-93876392D03*
X-172708892Y-93876392D03*
D10*
X-173358893Y-93876393D03*
D11*
X-172708892Y-92376392D03*
%TD*%
D10*
%TO.C,D239*%
X-246750000Y-91150000D03*
D11*
X-247449999Y-91149999D03*
X-247449999Y-92649999D03*
X-244749999Y-92649999D03*
D10*
X-245400000Y-92650000D03*
D11*
X-244749999Y-91149999D03*
%TD*%
D10*
%TO.C,D81*%
X-225550000Y-173950000D03*
D11*
X-226249999Y-173949999D03*
X-226249999Y-175449999D03*
X-223549999Y-175449999D03*
D10*
X-224200000Y-175450000D03*
D11*
X-223549999Y-173949999D03*
%TD*%
D10*
%TO.C,D242*%
X-252208893Y-86623607D03*
D11*
X-252908892Y-86623606D03*
X-252908892Y-88123606D03*
X-250208892Y-88123606D03*
D10*
X-250858893Y-88123607D03*
D11*
X-250208892Y-86623606D03*
%TD*%
D10*
%TO.C,D48*%
X-244950000Y-191850000D03*
D11*
X-245649999Y-191849999D03*
X-245649999Y-193349999D03*
X-242949999Y-193349999D03*
D10*
X-243600000Y-193350000D03*
D11*
X-242949999Y-191849999D03*
%TD*%
D10*
%TO.C,D135*%
X-196750000Y-102150000D03*
D11*
X-197449999Y-102149999D03*
X-197449999Y-103649999D03*
X-194749999Y-103649999D03*
D10*
X-195400000Y-103650000D03*
D11*
X-194749999Y-102149999D03*
%TD*%
D10*
%TO.C,D79*%
X-227400000Y-164800000D03*
D11*
X-228099999Y-164799999D03*
X-228099999Y-166299999D03*
X-225399999Y-166299999D03*
D10*
X-226050000Y-166300000D03*
D11*
X-225399999Y-164799999D03*
%TD*%
D10*
%TO.C,D10*%
X-190650000Y-133250000D03*
D11*
X-191349999Y-133249999D03*
X-191349999Y-134749999D03*
X-188649999Y-134749999D03*
D10*
X-189300000Y-134750000D03*
D11*
X-188649999Y-133249999D03*
%TD*%
D10*
%TO.C,D128*%
X-192150000Y-95650000D03*
D11*
X-192849999Y-95649999D03*
X-192849999Y-97149999D03*
X-190149999Y-97149999D03*
D10*
X-190800000Y-97150000D03*
D11*
X-190149999Y-95649999D03*
%TD*%
D10*
%TO.C,D237*%
X-238708893Y-88576393D03*
D11*
X-239408892Y-88576392D03*
X-239408892Y-90076392D03*
X-236708892Y-90076392D03*
D10*
X-237358893Y-90076393D03*
D11*
X-236708892Y-88576392D03*
%TD*%
D10*
%TO.C,D21*%
X-193408893Y-169376393D03*
D11*
X-194108892Y-169376392D03*
X-194108892Y-170876392D03*
X-191408892Y-170876392D03*
D10*
X-192058893Y-170876393D03*
D11*
X-191408892Y-169376392D03*
%TD*%
D10*
%TO.C,D164*%
X-209850000Y-37550000D03*
D11*
X-210549999Y-37549999D03*
X-210549999Y-39049999D03*
X-207849999Y-39049999D03*
D10*
X-208500000Y-39050000D03*
D11*
X-207849999Y-37549999D03*
%TD*%
D10*
%TO.C,D246*%
X-266650000Y-81576393D03*
D11*
X-267349999Y-81576392D03*
X-267349999Y-83076392D03*
X-264649999Y-83076392D03*
D10*
X-265300000Y-83076393D03*
D11*
X-264649999Y-81576392D03*
%TD*%
D10*
%TO.C,D185*%
X-267550000Y-2650000D03*
D11*
X-268249999Y-2649999D03*
X-268249999Y-4149999D03*
X-265549999Y-4149999D03*
D10*
X-266200000Y-4150000D03*
D11*
X-265549999Y-2649999D03*
%TD*%
D10*
%TO.C,D197*%
X-295900000Y-23300000D03*
D11*
X-296599999Y-23299999D03*
X-296599999Y-24799999D03*
X-293899999Y-24799999D03*
D10*
X-294550000Y-24800000D03*
D11*
X-293899999Y-23299999D03*
%TD*%
D10*
%TO.C,D11*%
X-192650000Y-139050000D03*
D11*
X-193349999Y-139049999D03*
X-193349999Y-140549999D03*
X-190649999Y-140549999D03*
D10*
X-191300000Y-140550000D03*
D11*
X-190649999Y-139049999D03*
%TD*%
D10*
%TO.C,D28*%
X-183408893Y-168576393D03*
D11*
X-184108892Y-168576392D03*
X-184108892Y-170076392D03*
X-181408892Y-170076392D03*
D10*
X-182058893Y-170076393D03*
D11*
X-181408892Y-168576392D03*
%TD*%
D10*
%TO.C,D220*%
X-264550000Y-54650000D03*
D11*
X-265249999Y-54649999D03*
X-265249999Y-56149999D03*
X-262549999Y-56149999D03*
D10*
X-263200000Y-56150000D03*
D11*
X-262549999Y-54649999D03*
%TD*%
D10*
%TO.C,D8*%
X-183708893Y-131876393D03*
D11*
X-184408892Y-131876392D03*
X-184408892Y-133376392D03*
X-181708892Y-133376392D03*
D10*
X-182358893Y-133376393D03*
D11*
X-181708892Y-131876392D03*
%TD*%
D10*
%TO.C,D2*%
X-173750000Y-111650000D03*
D11*
X-174449999Y-111649999D03*
X-174449999Y-113149999D03*
X-171749999Y-113149999D03*
D10*
X-172400000Y-113150000D03*
D11*
X-171749999Y-111649999D03*
%TD*%
D10*
%TO.C,D129*%
X-178929289Y-105410051D03*
D12*
X-179424263Y-104915075D03*
X-180484923Y-105975735D03*
X-178575735Y-107884923D03*
D10*
X-179035355Y-107425305D03*
D12*
X-177515075Y-106824263D03*
%TD*%
D10*
%TO.C,D158*%
X-196750000Y-51150000D03*
D11*
X-197449999Y-51149999D03*
X-197449999Y-52649999D03*
X-194749999Y-52649999D03*
D10*
X-195400000Y-52650000D03*
D11*
X-194749999Y-51149999D03*
%TD*%
D10*
%TO.C,D59*%
X-268050000Y-184450000D03*
D11*
X-268749999Y-184449999D03*
X-268749999Y-185949999D03*
X-266049999Y-185949999D03*
D10*
X-266700000Y-185950000D03*
D11*
X-266049999Y-184449999D03*
%TD*%
D10*
%TO.C,D248*%
X-269850000Y-77950000D03*
D11*
X-270549999Y-77949999D03*
X-270549999Y-79449999D03*
X-267849999Y-79449999D03*
D10*
X-268500000Y-79450000D03*
D11*
X-267849999Y-77949999D03*
%TD*%
D10*
%TO.C,D252*%
X-274250000Y-74750000D03*
D11*
X-274949999Y-74749999D03*
X-274949999Y-76249999D03*
X-272249999Y-76249999D03*
D10*
X-272900000Y-76250000D03*
D11*
X-272249999Y-74749999D03*
%TD*%
D10*
%TO.C,D167*%
X-214208893Y-33976393D03*
D11*
X-214908892Y-33976392D03*
X-214908892Y-35476392D03*
X-212208892Y-35476392D03*
D10*
X-212858893Y-35476393D03*
D11*
X-212208892Y-33976392D03*
%TD*%
D10*
%TO.C,D238*%
X-241350000Y-83550000D03*
D11*
X-242049999Y-83549999D03*
X-242049999Y-85049999D03*
X-239349999Y-85049999D03*
D10*
X-240000000Y-85050000D03*
D11*
X-239349999Y-83549999D03*
%TD*%
D10*
%TO.C,D4*%
X-172408893Y-125676393D03*
D11*
X-173108892Y-125676392D03*
X-173108892Y-127176392D03*
X-170408892Y-127176392D03*
D10*
X-171058893Y-127176393D03*
D11*
X-170408892Y-125676392D03*
%TD*%
D10*
%TO.C,D137*%
X-199708893Y-81576393D03*
D11*
X-200408892Y-81576392D03*
X-200408892Y-83076392D03*
X-197708892Y-83076392D03*
D10*
X-198358893Y-83076393D03*
D11*
X-197708892Y-81576392D03*
%TD*%
D10*
%TO.C,D139*%
X-208850000Y-78150000D03*
D11*
X-209549999Y-78149999D03*
X-209549999Y-79649999D03*
X-206849999Y-79649999D03*
D10*
X-207500000Y-79650000D03*
D11*
X-206849999Y-78149999D03*
%TD*%
D10*
%TO.C,D121*%
X-217200000Y-83600000D03*
D11*
X-217899999Y-83599999D03*
X-217899999Y-85099999D03*
X-215199999Y-85099999D03*
D10*
X-215850000Y-85100000D03*
D11*
X-215199999Y-83599999D03*
%TD*%
D10*
%TO.C,D31*%
X-188250000Y-179050000D03*
D11*
X-188949999Y-179049999D03*
X-188949999Y-180549999D03*
X-186249999Y-180549999D03*
D10*
X-186900000Y-180550000D03*
D11*
X-186249999Y-179049999D03*
%TD*%
D10*
%TO.C,D182*%
X-257950000Y-8450000D03*
D11*
X-258649999Y-8449999D03*
X-258649999Y-9949999D03*
X-255949999Y-9949999D03*
D10*
X-256600000Y-9950000D03*
D11*
X-255949999Y-8449999D03*
%TD*%
D10*
%TO.C,D250*%
X-277100000Y-78700000D03*
D11*
X-277799999Y-78699999D03*
X-277799999Y-80199999D03*
X-275099999Y-80199999D03*
D10*
X-275750000Y-80200000D03*
D11*
X-275099999Y-78699999D03*
%TD*%
D10*
%TO.C,D123*%
X-210208893Y-83476393D03*
D11*
X-210908892Y-83476392D03*
X-210908892Y-84976392D03*
X-208208892Y-84976392D03*
D10*
X-208858893Y-84976393D03*
D11*
X-208208892Y-83476392D03*
%TD*%
D10*
%TO.C,D243*%
X-254800000Y-82800000D03*
D11*
X-255499999Y-82799999D03*
X-255499999Y-84299999D03*
X-252799999Y-84299999D03*
D10*
X-253450000Y-84300000D03*
D11*
X-252799999Y-82799999D03*
%TD*%
D10*
%TO.C,D247*%
X-264050000Y-85650000D03*
D11*
X-264749999Y-85649999D03*
X-264749999Y-87149999D03*
X-262049999Y-87149999D03*
D10*
X-262700000Y-87150000D03*
D11*
X-262049999Y-85649999D03*
%TD*%
D10*
%TO.C,D113*%
X-263350000Y-108650000D03*
D11*
X-264049999Y-108649999D03*
X-264049999Y-110149999D03*
X-261349999Y-110149999D03*
D10*
X-262000000Y-110150000D03*
D11*
X-261349999Y-108649999D03*
%TD*%
D10*
%TO.C,D245*%
X-261000000Y-82400000D03*
D11*
X-261699999Y-82399999D03*
X-261699999Y-83899999D03*
X-258999999Y-83899999D03*
D10*
X-259650000Y-83900000D03*
D11*
X-258999999Y-82399999D03*
%TD*%
D10*
%TO.C,D26*%
X-176650000Y-150950000D03*
D11*
X-177349999Y-150949999D03*
X-177349999Y-152449999D03*
X-174649999Y-152449999D03*
D10*
X-175300000Y-152450000D03*
D11*
X-174649999Y-150949999D03*
%TD*%
D10*
%TO.C,D39*%
X-212500000Y-198400000D03*
D11*
X-213199999Y-198399999D03*
X-213199999Y-199899999D03*
X-210499999Y-199899999D03*
D10*
X-211150000Y-199900000D03*
D11*
X-210499999Y-198399999D03*
%TD*%
D10*
%TO.C,D105*%
X-269608893Y-139676393D03*
D11*
X-270308892Y-139676392D03*
X-270308892Y-141176392D03*
X-267608892Y-141176392D03*
D10*
X-268258893Y-141176393D03*
D11*
X-267608892Y-139676392D03*
%TD*%
D10*
%TO.C,D209*%
X-286400000Y-48000000D03*
D11*
X-287099999Y-47999999D03*
X-287099999Y-49499999D03*
X-284399999Y-49499999D03*
D10*
X-285050000Y-49500000D03*
D11*
X-284399999Y-47999999D03*
%TD*%
D10*
%TO.C,D210*%
X-289208893Y-51176393D03*
D11*
X-289908892Y-51176392D03*
X-289908892Y-52676392D03*
X-287208892Y-52676392D03*
D10*
X-287858893Y-52676393D03*
D11*
X-287208892Y-51176392D03*
%TD*%
D10*
%TO.C,D192*%
X-313100000Y-18700000D03*
D11*
X-313799999Y-18699999D03*
X-313799999Y-20199999D03*
X-311099999Y-20199999D03*
D10*
X-311750000Y-20200000D03*
D11*
X-311099999Y-18699999D03*
%TD*%
D10*
%TO.C,D57*%
X-267508893Y-191576393D03*
D11*
X-268208892Y-191576392D03*
X-268208892Y-193076392D03*
X-265508892Y-193076392D03*
D10*
X-266158893Y-193076393D03*
D11*
X-265508892Y-191576392D03*
%TD*%
D10*
%TO.C,D244*%
X-258250000Y-86150000D03*
D11*
X-258949999Y-86149999D03*
X-258949999Y-87649999D03*
X-256249999Y-87649999D03*
D10*
X-256900000Y-87650000D03*
D11*
X-256249999Y-86149999D03*
%TD*%
D10*
%TO.C,D171*%
X-224200000Y-23700000D03*
D11*
X-224899999Y-23699999D03*
X-224899999Y-25199999D03*
X-222199999Y-25199999D03*
D10*
X-222850000Y-25200000D03*
D11*
X-222199999Y-23699999D03*
%TD*%
D10*
%TO.C,D63*%
X-264950000Y-171650000D03*
D11*
X-265649999Y-171649999D03*
X-265649999Y-173149999D03*
X-262949999Y-173149999D03*
D10*
X-263600000Y-173150000D03*
D11*
X-262949999Y-171649999D03*
%TD*%
D10*
%TO.C,D136*%
X-204750000Y-81950000D03*
D11*
X-205449999Y-81949999D03*
X-205449999Y-83449999D03*
X-202749999Y-83449999D03*
D10*
X-203400000Y-83450000D03*
D11*
X-202749999Y-81949999D03*
%TD*%
D10*
%TO.C,D219*%
X-269750000Y-55650000D03*
D11*
X-270449999Y-55649999D03*
X-270449999Y-57149999D03*
X-267749999Y-57149999D03*
D10*
X-268400000Y-57150000D03*
D11*
X-267749999Y-55649999D03*
%TD*%
D10*
%TO.C,D93*%
X-230008893Y-132176393D03*
D11*
X-230708892Y-132176392D03*
X-230708892Y-133676392D03*
X-228008892Y-133676392D03*
D10*
X-228658893Y-133676393D03*
D11*
X-228008892Y-132176392D03*
%TD*%
D10*
%TO.C,D134*%
X-216508893Y-119276393D03*
D11*
X-217208892Y-119276392D03*
X-217208892Y-120776392D03*
X-214508892Y-120776392D03*
D10*
X-215158893Y-120776393D03*
D11*
X-214508892Y-119276392D03*
%TD*%
D10*
%TO.C,D17*%
X-210200000Y-161700000D03*
D11*
X-210899999Y-161699999D03*
X-210899999Y-163199999D03*
X-208199999Y-163199999D03*
D10*
X-208850000Y-163200000D03*
D11*
X-208199999Y-161699999D03*
%TD*%
D10*
%TO.C,D34*%
X-198050000Y-186850000D03*
D11*
X-198749999Y-186849999D03*
X-198749999Y-188349999D03*
X-196049999Y-188349999D03*
D10*
X-196700000Y-188350000D03*
D11*
X-196049999Y-186849999D03*
%TD*%
D10*
%TO.C,D177*%
X-243750000Y-7750000D03*
D11*
X-244449999Y-7749999D03*
X-244449999Y-9249999D03*
X-241749999Y-9249999D03*
D10*
X-242400000Y-9250000D03*
D11*
X-241749999Y-7749999D03*
%TD*%
D10*
%TO.C,D88*%
X-199508893Y-124776393D03*
D11*
X-200208892Y-124776392D03*
X-200208892Y-126276392D03*
X-197508892Y-126276392D03*
D10*
X-198158893Y-126276393D03*
D11*
X-197508892Y-124776392D03*
%TD*%
D10*
%TO.C,D84*%
X-219700000Y-169000000D03*
D11*
X-220399999Y-168999999D03*
X-220399999Y-170499999D03*
X-217699999Y-170499999D03*
D10*
X-218350000Y-170500000D03*
D11*
X-217699999Y-168999999D03*
%TD*%
D10*
%TO.C,D240*%
X-246250000Y-86950000D03*
D11*
X-246949999Y-86949999D03*
X-246949999Y-88449999D03*
X-244249999Y-88449999D03*
D10*
X-244900000Y-88450000D03*
D11*
X-244249999Y-86949999D03*
%TD*%
D10*
%TO.C,D90*%
X-212308893Y-123176393D03*
D11*
X-213008892Y-123176392D03*
X-213008892Y-124676392D03*
X-210308892Y-124676392D03*
D10*
X-210958893Y-124676393D03*
D11*
X-210308892Y-123176392D03*
%TD*%
D10*
%TO.C,D126*%
X-199100000Y-93200000D03*
D11*
X-199799999Y-93199999D03*
X-199799999Y-94699999D03*
X-197099999Y-94699999D03*
D10*
X-197750000Y-94700000D03*
D11*
X-197099999Y-93199999D03*
%TD*%
D10*
%TO.C,D229*%
X-225350000Y-46350000D03*
D11*
X-226049999Y-46349999D03*
X-226049999Y-47849999D03*
X-223349999Y-47849999D03*
D10*
X-224000000Y-47850000D03*
D11*
X-223349999Y-46349999D03*
%TD*%
D10*
%TO.C,D109*%
X-263050000Y-124550000D03*
D11*
X-263749999Y-124549999D03*
X-263749999Y-126049999D03*
X-261049999Y-126049999D03*
D10*
X-261700000Y-126050000D03*
D11*
X-261049999Y-124549999D03*
%TD*%
D10*
%TO.C,D87*%
X-193708893Y-126676393D03*
D11*
X-194408892Y-126676392D03*
X-194408892Y-128176392D03*
X-191708892Y-128176392D03*
D10*
X-192358893Y-128176393D03*
D11*
X-191708892Y-126676392D03*
%TD*%
D10*
%TO.C,D189*%
X-309800000Y-6900000D03*
D11*
X-310499999Y-6899999D03*
X-310499999Y-8399999D03*
X-307799999Y-8399999D03*
D10*
X-308450000Y-8400000D03*
D11*
X-307799999Y-6899999D03*
%TD*%
D10*
%TO.C,D24*%
X-180208893Y-159976393D03*
D11*
X-180908892Y-159976392D03*
X-180908892Y-161476392D03*
X-178208892Y-161476392D03*
D10*
X-178858893Y-161476393D03*
D11*
X-178208892Y-159976392D03*
%TD*%
D10*
%TO.C,D256*%
X-273250000Y-64650000D03*
D11*
X-273949999Y-64649999D03*
X-273949999Y-66149999D03*
X-271249999Y-66149999D03*
D10*
X-271900000Y-66150000D03*
D11*
X-271249999Y-64649999D03*
%TD*%
D10*
%TO.C,D207*%
X-295300000Y-44000000D03*
D11*
X-295999999Y-43999999D03*
X-295999999Y-45499999D03*
X-293299999Y-45499999D03*
D10*
X-293950000Y-45500000D03*
D11*
X-293299999Y-43999999D03*
%TD*%
D10*
%TO.C,D95*%
X-233300000Y-141300000D03*
D11*
X-233999999Y-141299999D03*
X-233999999Y-142799999D03*
X-231299999Y-142799999D03*
D10*
X-231950000Y-142800000D03*
D11*
X-231299999Y-141299999D03*
%TD*%
D10*
%TO.C,D106*%
X-267008893Y-135576393D03*
D11*
X-267708892Y-135576392D03*
X-267708892Y-137076392D03*
X-265008892Y-137076392D03*
D10*
X-265658893Y-137076393D03*
D11*
X-265008892Y-135576392D03*
%TD*%
D10*
%TO.C,D208*%
X-288608893Y-42823607D03*
D11*
X-289308892Y-42823606D03*
X-289308892Y-44323606D03*
X-286608892Y-44323606D03*
D10*
X-287258893Y-44323607D03*
D11*
X-286608892Y-42823606D03*
%TD*%
D10*
%TO.C,D205*%
X-294900000Y-39000000D03*
D11*
X-295599999Y-38999999D03*
X-295599999Y-40499999D03*
X-292899999Y-40499999D03*
D10*
X-293550000Y-40500000D03*
D11*
X-292899999Y-38999999D03*
%TD*%
D10*
%TO.C,D77*%
X-223550000Y-151950000D03*
D11*
X-224249999Y-151949999D03*
X-224249999Y-153449999D03*
X-221549999Y-153449999D03*
D10*
X-222200000Y-153450000D03*
D11*
X-221549999Y-151949999D03*
%TD*%
D10*
%TO.C,D215*%
X-275550000Y-54750000D03*
D11*
X-276249999Y-54749999D03*
X-276249999Y-56249999D03*
X-273549999Y-56249999D03*
D10*
X-274200000Y-56250000D03*
D11*
X-273549999Y-54749999D03*
%TD*%
D10*
%TO.C,D19*%
X-203850000Y-169650000D03*
D11*
X-204549999Y-169649999D03*
X-204549999Y-171149999D03*
X-201849999Y-171149999D03*
D10*
X-202500000Y-171150000D03*
D11*
X-201849999Y-169649999D03*
%TD*%
D10*
%TO.C,D168*%
X-212800000Y-26800000D03*
D11*
X-213499999Y-26799999D03*
X-213499999Y-28299999D03*
X-210799999Y-28299999D03*
D10*
X-211450000Y-28300000D03*
D11*
X-210799999Y-26799999D03*
%TD*%
D10*
%TO.C,D49*%
X-242100000Y-196500000D03*
D11*
X-242799999Y-196499999D03*
X-242799999Y-197999999D03*
X-240099999Y-197999999D03*
D10*
X-240750000Y-198000000D03*
D11*
X-240099999Y-196499999D03*
%TD*%
D10*
%TO.C,D52*%
X-254000000Y-199700000D03*
D11*
X-254699999Y-199699999D03*
X-254699999Y-201199999D03*
X-251999999Y-201199999D03*
D10*
X-252650000Y-201200000D03*
D11*
X-251999999Y-199699999D03*
%TD*%
D10*
%TO.C,D186*%
X-269650000Y-6450000D03*
D11*
X-270349999Y-6449999D03*
X-270349999Y-7949999D03*
X-267649999Y-7949999D03*
D10*
X-268300000Y-7950000D03*
D11*
X-267649999Y-6449999D03*
%TD*%
D10*
%TO.C,D103*%
X-266700000Y-148300000D03*
D11*
X-267399999Y-148299999D03*
X-267399999Y-149799999D03*
X-264699999Y-149799999D03*
D10*
X-265350000Y-149800000D03*
D11*
X-264699999Y-148299999D03*
%TD*%
D10*
%TO.C,D89*%
X-205650000Y-123750000D03*
D11*
X-206349999Y-123749999D03*
X-206349999Y-125249999D03*
X-203649999Y-125249999D03*
D10*
X-204300000Y-125250000D03*
D11*
X-203649999Y-123749999D03*
%TD*%
D10*
%TO.C,D183*%
X-264008893Y-7676393D03*
D11*
X-264708892Y-7676392D03*
X-264708892Y-9176392D03*
X-262008892Y-9176392D03*
D10*
X-262658893Y-9176393D03*
D11*
X-262008892Y-7676392D03*
%TD*%
D10*
%TO.C,D222*%
X-254750000Y-52950000D03*
D11*
X-255449999Y-52949999D03*
X-255449999Y-54449999D03*
X-252749999Y-54449999D03*
D10*
X-253400000Y-54450000D03*
D11*
X-252749999Y-52949999D03*
%TD*%
D10*
%TO.C,D156*%
X-172650000Y-102300000D03*
D11*
X-173349999Y-102299999D03*
X-173349999Y-103799999D03*
X-170649999Y-103799999D03*
D10*
X-171300000Y-103800000D03*
D11*
X-170649999Y-102299999D03*
%TD*%
D10*
%TO.C,D147*%
X-185708893Y-61476393D03*
D11*
X-186408892Y-61476392D03*
X-186408892Y-62976392D03*
X-183708892Y-62976392D03*
D10*
X-184358893Y-62976393D03*
D11*
X-183708892Y-61476392D03*
%TD*%
D10*
%TO.C,D71*%
X-249850000Y-155400000D03*
D11*
X-250549999Y-155399999D03*
X-250549999Y-156899999D03*
X-247849999Y-156899999D03*
D10*
X-248500000Y-156900000D03*
D11*
X-247849999Y-155399999D03*
%TD*%
D10*
%TO.C,D56*%
X-267250000Y-197000000D03*
D11*
X-267949999Y-196999999D03*
X-267949999Y-198499999D03*
X-265249999Y-198499999D03*
D10*
X-265900000Y-198500000D03*
D11*
X-265249999Y-196999999D03*
%TD*%
D10*
%TO.C,D235*%
X-219000000Y-71800000D03*
D11*
X-219699999Y-71799999D03*
X-219699999Y-73299999D03*
X-216999999Y-73299999D03*
D10*
X-217650000Y-73300000D03*
D11*
X-216999999Y-71799999D03*
%TD*%
D10*
%TO.C,D27*%
X-182708893Y-149276393D03*
D11*
X-183408892Y-149276392D03*
X-183408892Y-150776392D03*
X-180708892Y-150776392D03*
D10*
X-181358893Y-150776393D03*
D11*
X-180708892Y-149276392D03*
%TD*%
D10*
%TO.C,D133*%
X-210608893Y-115376393D03*
D11*
X-211308892Y-115376392D03*
X-211308892Y-116876392D03*
X-208608892Y-116876392D03*
D10*
X-209258893Y-116876393D03*
D11*
X-208608892Y-115376392D03*
%TD*%
D10*
%TO.C,D144*%
X-202608893Y-58676393D03*
D11*
X-203308892Y-58676392D03*
X-203308892Y-60176392D03*
X-200608892Y-60176392D03*
D10*
X-201258893Y-60176393D03*
D11*
X-200608892Y-58676392D03*
%TD*%
D10*
%TO.C,D73*%
X-240050000Y-154450000D03*
D11*
X-240749999Y-154449999D03*
X-240749999Y-155949999D03*
X-238049999Y-155949999D03*
D10*
X-238700000Y-155950000D03*
D11*
X-238049999Y-154449999D03*
%TD*%
D10*
%TO.C,D176*%
X-239450000Y-15150000D03*
D11*
X-240149999Y-15149999D03*
X-240149999Y-16649999D03*
X-237449999Y-16649999D03*
D10*
X-238100000Y-16650000D03*
D11*
X-237449999Y-15149999D03*
%TD*%
D10*
%TO.C,D254*%
X-278200000Y-70000000D03*
D11*
X-278899999Y-69999999D03*
X-278899999Y-71499999D03*
X-276199999Y-71499999D03*
D10*
X-276850000Y-71500000D03*
D11*
X-276199999Y-69999999D03*
%TD*%
D10*
%TO.C,D174*%
X-232200000Y-14400000D03*
D11*
X-232899999Y-14399999D03*
X-232899999Y-15899999D03*
X-230199999Y-15899999D03*
D10*
X-230850000Y-15900000D03*
D11*
X-230199999Y-14399999D03*
%TD*%
D10*
%TO.C,D97*%
X-236550000Y-132750000D03*
D11*
X-237249999Y-132749999D03*
X-237249999Y-134249999D03*
X-234549999Y-134249999D03*
D10*
X-235200000Y-134250000D03*
D11*
X-234549999Y-132749999D03*
%TD*%
D10*
%TO.C,D6*%
X-178308893Y-127676393D03*
D11*
X-179008892Y-127676392D03*
X-179008892Y-129176392D03*
X-176308892Y-129176392D03*
D10*
X-176958893Y-129176393D03*
D11*
X-176308892Y-127676392D03*
%TD*%
D10*
%TO.C,D146*%
X-191150000Y-58150000D03*
D11*
X-191849999Y-58149999D03*
X-191849999Y-59649999D03*
X-189149999Y-59649999D03*
D10*
X-189800000Y-59650000D03*
D11*
X-189149999Y-58149999D03*
%TD*%
D10*
%TO.C,D67*%
X-260250000Y-159650000D03*
D11*
X-260949999Y-159649999D03*
X-260949999Y-161149999D03*
X-258249999Y-161149999D03*
D10*
X-258900000Y-161150000D03*
D11*
X-258249999Y-159649999D03*
%TD*%
D10*
%TO.C,D150*%
X-181950000Y-74250000D03*
D11*
X-182649999Y-74249999D03*
X-182649999Y-75749999D03*
X-179949999Y-75749999D03*
D10*
X-180600000Y-75750000D03*
D11*
X-179949999Y-74249999D03*
%TD*%
D10*
%TO.C,D15*%
X-210150000Y-152150000D03*
D11*
X-210849999Y-152149999D03*
X-210849999Y-153649999D03*
X-208149999Y-153649999D03*
D10*
X-208800000Y-153650000D03*
D11*
X-208149999Y-152149999D03*
%TD*%
D10*
%TO.C,D202*%
X-300500000Y-37000000D03*
D11*
X-301199999Y-36999999D03*
X-301199999Y-38499999D03*
X-298499999Y-38499999D03*
D10*
X-299150000Y-38500000D03*
D11*
X-298499999Y-36999999D03*
%TD*%
D10*
%TO.C,D118*%
X-231200000Y-86400000D03*
D11*
X-231899999Y-86399999D03*
X-231899999Y-87899999D03*
X-229199999Y-87899999D03*
D10*
X-229850000Y-87900000D03*
D11*
X-229199999Y-86399999D03*
%TD*%
D10*
%TO.C,D80*%
X-225300000Y-169200000D03*
D11*
X-225999999Y-169199999D03*
X-225999999Y-170699999D03*
X-223299999Y-170699999D03*
D10*
X-223950000Y-170700000D03*
D11*
X-223299999Y-169199999D03*
%TD*%
D10*
%TO.C,D221*%
X-259750000Y-53450000D03*
D11*
X-260449999Y-53449999D03*
X-260449999Y-54949999D03*
X-257749999Y-54949999D03*
D10*
X-258400000Y-54950000D03*
D11*
X-257749999Y-53449999D03*
%TD*%
D10*
%TO.C,D13*%
X-201650000Y-142450000D03*
D11*
X-202349999Y-142449999D03*
X-202349999Y-143949999D03*
X-199649999Y-143949999D03*
D10*
X-200300000Y-143950000D03*
D11*
X-199649999Y-142449999D03*
%TD*%
D10*
%TO.C,D155*%
X-173308893Y-97176393D03*
D11*
X-174008892Y-97176392D03*
X-174008892Y-98676392D03*
X-171308892Y-98676392D03*
D10*
X-171958893Y-98676393D03*
D11*
X-171308892Y-97176392D03*
%TD*%
D10*
%TO.C,D217*%
X-275050000Y-61550000D03*
D11*
X-275749999Y-61549999D03*
X-275749999Y-63049999D03*
X-273049999Y-63049999D03*
D10*
X-273700000Y-63050000D03*
D11*
X-273049999Y-61549999D03*
%TD*%
D10*
%TO.C,D141*%
X-209550000Y-72650000D03*
D11*
X-210249999Y-72649999D03*
X-210249999Y-74149999D03*
X-207549999Y-74149999D03*
D10*
X-208200000Y-74150000D03*
D11*
X-207549999Y-72649999D03*
%TD*%
D10*
%TO.C,D203*%
X-293350000Y-35350000D03*
D11*
X-294049999Y-35349999D03*
X-294049999Y-36849999D03*
X-291349999Y-36849999D03*
D10*
X-292000000Y-36850000D03*
D11*
X-291349999Y-35349999D03*
%TD*%
D10*
%TO.C,D65*%
X-262900000Y-165800000D03*
D11*
X-263599999Y-165799999D03*
X-263599999Y-167299999D03*
X-260899999Y-167299999D03*
D10*
X-261550000Y-167300000D03*
D11*
X-260899999Y-165799999D03*
%TD*%
D10*
%TO.C,D36*%
X-202608893Y-190276393D03*
D11*
X-203308892Y-190276392D03*
X-203308892Y-191776392D03*
X-200608892Y-191776392D03*
D10*
X-201258893Y-191776393D03*
D11*
X-200608892Y-190276392D03*
%TD*%
D10*
%TO.C,D145*%
X-197250000Y-56350000D03*
D11*
X-197949999Y-56349999D03*
X-197949999Y-57849999D03*
X-195249999Y-57849999D03*
D10*
X-195900000Y-57850000D03*
D11*
X-195249999Y-56349999D03*
%TD*%
D10*
%TO.C,D29*%
X-185800000Y-173500000D03*
D11*
X-186499999Y-173499999D03*
X-186499999Y-174999999D03*
X-183799999Y-174999999D03*
D10*
X-184450000Y-175000000D03*
D11*
X-183799999Y-173499999D03*
%TD*%
D10*
%TO.C,D101*%
X-254750000Y-149650000D03*
D11*
X-255449999Y-149649999D03*
X-255449999Y-151149999D03*
X-252749999Y-151149999D03*
D10*
X-253400000Y-151150000D03*
D11*
X-252749999Y-149649999D03*
%TD*%
D10*
%TO.C,D173*%
X-232050000Y-19400000D03*
D11*
X-232749999Y-19399999D03*
X-232749999Y-20899999D03*
X-230049999Y-20899999D03*
D10*
X-230700000Y-20900000D03*
D11*
X-230049999Y-19399999D03*
%TD*%
D10*
%TO.C,D223*%
X-250250000Y-52350000D03*
D11*
X-250949999Y-52349999D03*
X-250949999Y-53849999D03*
X-248249999Y-53849999D03*
D10*
X-248900000Y-53850000D03*
D11*
X-248249999Y-52349999D03*
%TD*%
D10*
%TO.C,D23*%
X-184008893Y-164076393D03*
D11*
X-184708892Y-164076392D03*
X-184708892Y-165576392D03*
X-182008892Y-165576392D03*
D10*
X-182658893Y-165576393D03*
D11*
X-182008892Y-164076392D03*
%TD*%
D10*
%TO.C,D138*%
X-194750000Y-79750000D03*
D11*
X-195449999Y-79749999D03*
X-195449999Y-81249999D03*
X-192749999Y-81249999D03*
D10*
X-193400000Y-81250000D03*
D11*
X-192749999Y-79749999D03*
%TD*%
D10*
%TO.C,D46*%
X-234450000Y-193750000D03*
D11*
X-235149999Y-193749999D03*
X-235149999Y-195249999D03*
X-232449999Y-195249999D03*
D10*
X-233100000Y-195250000D03*
D11*
X-232449999Y-193749999D03*
%TD*%
D10*
%TO.C,D108*%
X-263850000Y-128250000D03*
D11*
X-264549999Y-128249999D03*
X-264549999Y-129749999D03*
X-261849999Y-129749999D03*
D10*
X-262500000Y-129750000D03*
D11*
X-261849999Y-128249999D03*
%TD*%
D10*
%TO.C,D172*%
X-225550000Y-17050000D03*
D11*
X-226249999Y-17049999D03*
X-226249999Y-18549999D03*
X-223549999Y-18549999D03*
D10*
X-224200000Y-18550000D03*
D11*
X-223549999Y-17049999D03*
%TD*%
D10*
%TO.C,D166*%
X-208208893Y-32076393D03*
D11*
X-208908892Y-32076392D03*
X-208908892Y-33576392D03*
X-206208892Y-33576392D03*
D10*
X-206858893Y-33576393D03*
D11*
X-206208892Y-32076392D03*
%TD*%
D10*
%TO.C,D132*%
X-205408893Y-112376393D03*
D11*
X-206108892Y-112376392D03*
X-206108892Y-113876392D03*
X-203408892Y-113876392D03*
D10*
X-204058893Y-113876393D03*
D11*
X-203408892Y-112376392D03*
%TD*%
D10*
%TO.C,D55*%
X-261750000Y-194150000D03*
D11*
X-262449999Y-194149999D03*
X-262449999Y-195649999D03*
X-259749999Y-195649999D03*
D10*
X-260400000Y-195650000D03*
D11*
X-259749999Y-194149999D03*
%TD*%
D10*
%TO.C,D211*%
X-288208893Y-55976393D03*
D11*
X-288908892Y-55976392D03*
X-288908892Y-57476392D03*
X-286208892Y-57476392D03*
D10*
X-286858893Y-57476393D03*
D11*
X-286208892Y-55976392D03*
%TD*%
D10*
%TO.C,D50*%
X-249150000Y-198250000D03*
D11*
X-249849999Y-198249999D03*
X-249849999Y-199749999D03*
X-247149999Y-199749999D03*
D10*
X-247800000Y-199750000D03*
D11*
X-247149999Y-198249999D03*
%TD*%
D10*
%TO.C,D214*%
X-283550000Y-58650000D03*
D11*
X-284249999Y-58649999D03*
X-284249999Y-60149999D03*
X-281549999Y-60149999D03*
D10*
X-282200000Y-60150000D03*
D11*
X-281549999Y-58649999D03*
%TD*%
D10*
%TO.C,D60*%
X-263908893Y-181576393D03*
D11*
X-264608892Y-181576392D03*
X-264608892Y-183076392D03*
X-261908892Y-183076392D03*
D10*
X-262558893Y-183076393D03*
D11*
X-261908892Y-181576392D03*
%TD*%
D10*
%TO.C,D231*%
X-216208893Y-40076393D03*
D11*
X-216908892Y-40076392D03*
X-216908892Y-41576392D03*
X-214208892Y-41576392D03*
D10*
X-214858893Y-41576393D03*
D11*
X-214208892Y-40076392D03*
%TD*%
D10*
%TO.C,D179*%
X-248908893Y-5076393D03*
D11*
X-249608892Y-5076392D03*
X-249608892Y-6576392D03*
X-246908892Y-6576392D03*
D10*
X-247558893Y-6576393D03*
D11*
X-246908892Y-5076392D03*
%TD*%
D10*
%TO.C,D33*%
X-191750000Y-185050000D03*
D11*
X-192449999Y-185049999D03*
X-192449999Y-186549999D03*
X-189749999Y-186549999D03*
D10*
X-190400000Y-186550000D03*
D11*
X-189749999Y-185049999D03*
%TD*%
D10*
%TO.C,D232*%
X-225508893Y-55576393D03*
D11*
X-226208892Y-55576392D03*
X-226208892Y-57076392D03*
X-223508892Y-57076392D03*
D10*
X-224158893Y-57076393D03*
D11*
X-223508892Y-55576392D03*
%TD*%
D10*
%TO.C,D169*%
X-218208893Y-27976393D03*
D11*
X-218908892Y-27976392D03*
X-218908892Y-29476392D03*
X-216208892Y-29476392D03*
D10*
X-216858893Y-29476393D03*
D11*
X-216208892Y-27976392D03*
%TD*%
D10*
%TO.C,D212*%
X-283750000Y-52250000D03*
D11*
X-284449999Y-52249999D03*
X-284449999Y-53749999D03*
X-281749999Y-53749999D03*
D10*
X-282400000Y-53750000D03*
D11*
X-281749999Y-52249999D03*
%TD*%
D10*
%TO.C,D224*%
X-245550000Y-53050000D03*
D11*
X-246249999Y-53049999D03*
X-246249999Y-54549999D03*
X-243549999Y-54549999D03*
D10*
X-244200000Y-54550000D03*
D11*
X-243549999Y-53049999D03*
%TD*%
D10*
%TO.C,D5*%
X-172608893Y-130376393D03*
D11*
X-173308892Y-130376392D03*
X-173308892Y-131876392D03*
X-170608892Y-131876392D03*
D10*
X-171258893Y-131876393D03*
D11*
X-170608892Y-130376392D03*
%TD*%
D10*
%TO.C,D201*%
X-300200000Y-32900000D03*
D11*
X-300899999Y-32899999D03*
X-300899999Y-34399999D03*
X-298199999Y-34399999D03*
D10*
X-298850000Y-34400000D03*
D11*
X-298199999Y-32899999D03*
%TD*%
D10*
%TO.C,D43*%
X-229250000Y-194450000D03*
D11*
X-229949999Y-194449999D03*
X-229949999Y-195949999D03*
X-227249999Y-195949999D03*
D10*
X-227900000Y-195950000D03*
D11*
X-227249999Y-194449999D03*
%TD*%
D10*
%TO.C,D160*%
X-201508893Y-45376393D03*
D11*
X-202208892Y-45376392D03*
X-202208892Y-46876392D03*
X-199508892Y-46876392D03*
D10*
X-200158893Y-46876393D03*
D11*
X-199508892Y-45376392D03*
%TD*%
D10*
%TO.C,D175*%
X-237450000Y-10350000D03*
D11*
X-238149999Y-10349999D03*
X-238149999Y-11849999D03*
X-235449999Y-11849999D03*
D10*
X-236100000Y-11850000D03*
D11*
X-235449999Y-10349999D03*
%TD*%
D10*
%TO.C,D234*%
X-222150000Y-65850000D03*
D11*
X-222849999Y-65849999D03*
X-222849999Y-67349999D03*
X-220149999Y-67349999D03*
D10*
X-220800000Y-67350000D03*
D11*
X-220149999Y-65849999D03*
%TD*%
D10*
%TO.C,D114*%
X-261650000Y-104950000D03*
D11*
X-262349999Y-104949999D03*
X-262349999Y-106449999D03*
X-259649999Y-106449999D03*
D10*
X-260300000Y-106450000D03*
D11*
X-259649999Y-104949999D03*
%TD*%
D10*
%TO.C,D151*%
X-177750000Y-78050000D03*
D11*
X-178449999Y-78049999D03*
X-178449999Y-79549999D03*
X-175749999Y-79549999D03*
D10*
X-176400000Y-79550000D03*
D11*
X-175749999Y-78049999D03*
%TD*%
D10*
%TO.C,D140*%
X-214950000Y-77250000D03*
D11*
X-215649999Y-77249999D03*
X-215649999Y-78749999D03*
X-212949999Y-78749999D03*
D10*
X-213600000Y-78750000D03*
D11*
X-212949999Y-77249999D03*
%TD*%
D10*
%TO.C,D180*%
X-252250000Y-10700000D03*
D11*
X-252949999Y-10699999D03*
X-252949999Y-12199999D03*
X-250249999Y-12199999D03*
D10*
X-250900000Y-12200000D03*
D11*
X-250249999Y-10699999D03*
%TD*%
D10*
%TO.C,D149*%
X-181508893Y-69276393D03*
D11*
X-182208892Y-69276392D03*
X-182208892Y-70776392D03*
X-179508892Y-70776392D03*
D10*
X-180158893Y-70776393D03*
D11*
X-179508892Y-69276392D03*
%TD*%
D10*
%TO.C,D16*%
X-210650000Y-157250000D03*
D11*
X-211349999Y-157249999D03*
X-211349999Y-158749999D03*
X-208649999Y-158749999D03*
D10*
X-209300000Y-158750000D03*
D11*
X-208649999Y-157249999D03*
%TD*%
D10*
%TO.C,D122*%
X-213550000Y-87750000D03*
D11*
X-214249999Y-87749999D03*
X-214249999Y-89249999D03*
X-211549999Y-89249999D03*
D10*
X-212200000Y-89250000D03*
D11*
X-211549999Y-87749999D03*
%TD*%
D10*
%TO.C,D255*%
X-277500000Y-66400000D03*
D11*
X-278199999Y-66399999D03*
X-278199999Y-67899999D03*
X-275499999Y-67899999D03*
D10*
X-276150000Y-67900000D03*
D11*
X-275499999Y-66399999D03*
%TD*%
D10*
%TO.C,D157*%
X-190750000Y-52950000D03*
D11*
X-191449999Y-52949999D03*
X-191449999Y-54449999D03*
X-188749999Y-54449999D03*
D10*
X-189400000Y-54450000D03*
D11*
X-188749999Y-52949999D03*
%TD*%
D10*
%TO.C,D91*%
X-218550000Y-123850000D03*
D11*
X-219249999Y-123849999D03*
X-219249999Y-125349999D03*
X-216549999Y-125349999D03*
D10*
X-217200000Y-125350000D03*
D11*
X-216549999Y-123849999D03*
%TD*%
D10*
%TO.C,D58*%
X-264208893Y-188176393D03*
D11*
X-264908892Y-188176392D03*
X-264908892Y-189676392D03*
X-262208892Y-189676392D03*
D10*
X-262858893Y-189676393D03*
D11*
X-262208892Y-188176392D03*
%TD*%
D10*
%TO.C,D104*%
X-266408893Y-143776393D03*
D11*
X-267108892Y-143776392D03*
X-267108892Y-145276392D03*
X-264408892Y-145276392D03*
D10*
X-265058893Y-145276393D03*
D11*
X-264408892Y-143776392D03*
%TD*%
D10*
%TO.C,D41*%
X-219850000Y-198450000D03*
D11*
X-220549999Y-198449999D03*
X-220549999Y-199949999D03*
X-217849999Y-199949999D03*
D10*
X-218500000Y-199950000D03*
D11*
X-217849999Y-198449999D03*
%TD*%
D10*
%TO.C,D51*%
X-251050000Y-193550000D03*
D11*
X-251749999Y-193549999D03*
X-251749999Y-195049999D03*
X-249049999Y-195049999D03*
D10*
X-249700000Y-195050000D03*
D11*
X-249049999Y-193549999D03*
%TD*%
D10*
%TO.C,D40*%
X-217850000Y-194650000D03*
D11*
X-218549999Y-194649999D03*
X-218549999Y-196149999D03*
X-215849999Y-196149999D03*
D10*
X-216500000Y-196150000D03*
D11*
X-215849999Y-194649999D03*
%TD*%
D10*
%TO.C,D117*%
X-251450000Y-94850000D03*
D11*
X-252149999Y-94849999D03*
X-252149999Y-96349999D03*
X-249449999Y-96349999D03*
D10*
X-250100000Y-96350000D03*
D11*
X-249449999Y-94849999D03*
%TD*%
D10*
%TO.C,D142*%
X-208450000Y-67900000D03*
D11*
X-209149999Y-67899999D03*
X-209149999Y-69399999D03*
X-206449999Y-69399999D03*
D10*
X-207100000Y-69400000D03*
D11*
X-206449999Y-67899999D03*
%TD*%
D10*
%TO.C,D218*%
X-270650000Y-59350000D03*
D11*
X-271349999Y-59349999D03*
X-271349999Y-60849999D03*
X-268649999Y-60849999D03*
D10*
X-269300000Y-60850000D03*
D11*
X-268649999Y-59349999D03*
%TD*%
D10*
%TO.C,D42*%
X-223608893Y-193976393D03*
D11*
X-224308892Y-193976392D03*
X-224308892Y-195476392D03*
X-221608892Y-195476392D03*
D10*
X-222258893Y-195476393D03*
D11*
X-221608892Y-193976392D03*
%TD*%
D10*
%TO.C,D161*%
X-197908893Y-41476393D03*
D11*
X-198608892Y-41476392D03*
X-198608892Y-42976392D03*
X-195908892Y-42976392D03*
D10*
X-196558893Y-42976393D03*
D11*
X-195908892Y-41476392D03*
%TD*%
D10*
%TO.C,D194*%
X-305200000Y-20800000D03*
D11*
X-305899999Y-20799999D03*
X-305899999Y-22299999D03*
X-303199999Y-22299999D03*
D10*
X-303850000Y-22300000D03*
D11*
X-303199999Y-20799999D03*
%TD*%
D10*
%TO.C,D188*%
X-307250000Y-11350000D03*
D11*
X-307949999Y-11349999D03*
X-307949999Y-12849999D03*
X-305249999Y-12849999D03*
D10*
X-305900000Y-12850000D03*
D11*
X-305249999Y-11349999D03*
%TD*%
D10*
%TO.C,D83*%
X-229908893Y-184276393D03*
D11*
X-230608892Y-184276392D03*
X-230608892Y-185776392D03*
X-227908892Y-185776392D03*
D10*
X-228558893Y-185776393D03*
D11*
X-227908892Y-184276392D03*
%TD*%
D10*
%TO.C,D184*%
X-262750000Y-2950000D03*
D11*
X-263449999Y-2949999D03*
X-263449999Y-4449999D03*
X-260749999Y-4449999D03*
D10*
X-261400000Y-4450000D03*
D11*
X-260749999Y-2949999D03*
%TD*%
D10*
%TO.C,D1*%
X-172708893Y-116476393D03*
D11*
X-173408892Y-116476392D03*
X-173408892Y-117976392D03*
X-170708892Y-117976392D03*
D10*
X-171358893Y-117976393D03*
D11*
X-170708892Y-116476392D03*
%TD*%
D10*
%TO.C,D130*%
X-178408893Y-114576393D03*
D11*
X-179108892Y-114576392D03*
X-179108892Y-116076392D03*
X-176408892Y-116076392D03*
D10*
X-177058893Y-116076393D03*
D11*
X-176408892Y-114576392D03*
%TD*%
D10*
%TO.C,D200*%
X-299400000Y-28900000D03*
D11*
X-300099999Y-28899999D03*
X-300099999Y-30399999D03*
X-297399999Y-30399999D03*
D10*
X-298050000Y-30400000D03*
D11*
X-297399999Y-28899999D03*
%TD*%
D10*
%TO.C,D35*%
X-196208893Y-190876393D03*
D11*
X-196908892Y-190876392D03*
X-196908892Y-192376392D03*
X-194208892Y-192376392D03*
D10*
X-194858893Y-192376393D03*
D11*
X-194208892Y-190876392D03*
%TD*%
D10*
%TO.C,D236*%
X-235450000Y-83550000D03*
D11*
X-236149999Y-83549999D03*
X-236149999Y-85049999D03*
X-233449999Y-85049999D03*
D10*
X-234100000Y-85050000D03*
D11*
X-233449999Y-83549999D03*
%TD*%
D10*
%TO.C,D7*%
X-176850000Y-131850000D03*
D11*
X-177549999Y-131849999D03*
X-177549999Y-133349999D03*
X-174849999Y-133349999D03*
D10*
X-175500000Y-133350000D03*
D11*
X-174849999Y-131849999D03*
%TD*%
D10*
%TO.C,D143*%
X-206608893Y-62976393D03*
D11*
X-207308892Y-62976392D03*
X-207308892Y-64476392D03*
X-204608892Y-64476392D03*
D10*
X-205258893Y-64476393D03*
D11*
X-204608892Y-62976392D03*
%TD*%
D10*
%TO.C,D18*%
X-208350000Y-166450000D03*
D11*
X-209049999Y-166449999D03*
X-209049999Y-167949999D03*
X-206349999Y-167949999D03*
D10*
X-207000000Y-167950000D03*
D11*
X-206349999Y-166449999D03*
%TD*%
D10*
%TO.C,D110*%
X-264550000Y-120750000D03*
D11*
X-265249999Y-120749999D03*
X-265249999Y-122249999D03*
X-262549999Y-122249999D03*
D10*
X-263200000Y-122250000D03*
D11*
X-262549999Y-120749999D03*
%TD*%
D10*
%TO.C,D178*%
X-246250000Y-12750000D03*
D11*
X-246949999Y-12749999D03*
X-246949999Y-14249999D03*
X-244249999Y-14249999D03*
D10*
X-244900000Y-14250000D03*
D11*
X-244249999Y-12749999D03*
%TD*%
D10*
%TO.C,D127*%
X-196850000Y-97150000D03*
D11*
X-197549999Y-97149999D03*
X-197549999Y-98649999D03*
X-194849999Y-98649999D03*
D10*
X-195500000Y-98650000D03*
D11*
X-194849999Y-97149999D03*
%TD*%
D10*
%TO.C,D112*%
X-265150000Y-112300000D03*
D11*
X-265849999Y-112299999D03*
X-265849999Y-113799999D03*
X-263149999Y-113799999D03*
D10*
X-263800000Y-113800000D03*
D11*
X-263149999Y-112299999D03*
%TD*%
D10*
%TO.C,D25*%
X-178308893Y-155776393D03*
D11*
X-179008892Y-155776392D03*
X-179008892Y-157276392D03*
X-176308892Y-157276392D03*
D10*
X-176958893Y-157276393D03*
D11*
X-176308892Y-155776392D03*
%TD*%
D10*
%TO.C,D99*%
X-246508893Y-140676393D03*
D11*
X-247208892Y-140676392D03*
X-247208892Y-142176392D03*
X-244508892Y-142176392D03*
D10*
X-245158893Y-142176393D03*
D11*
X-244508892Y-140676392D03*
%TD*%
D10*
%TO.C,D131*%
X-184000000Y-112500000D03*
D11*
X-184699999Y-112499999D03*
X-184699999Y-113999999D03*
X-181999999Y-113999999D03*
D10*
X-182650000Y-114000000D03*
D11*
X-181999999Y-112499999D03*
%TD*%
D10*
%TO.C,D111*%
X-264850000Y-116650000D03*
D11*
X-265549999Y-116649999D03*
X-265549999Y-118149999D03*
X-262849999Y-118149999D03*
D10*
X-263500000Y-118150000D03*
D11*
X-262849999Y-116649999D03*
%TD*%
D10*
%TO.C,D148*%
X-186150000Y-66250000D03*
D11*
X-186849999Y-66249999D03*
X-186849999Y-67749999D03*
X-184149999Y-67749999D03*
D10*
X-184800000Y-67750000D03*
D11*
X-184149999Y-66249999D03*
%TD*%
D10*
%TO.C,D75*%
X-231308893Y-156976393D03*
D11*
X-232008892Y-156976392D03*
X-232008892Y-158476392D03*
X-229308892Y-158476392D03*
D10*
X-229958893Y-158476393D03*
D11*
X-229308892Y-156976392D03*
%TD*%
D10*
%TO.C,D38*%
X-209550000Y-194150000D03*
D11*
X-210249999Y-194149999D03*
X-210249999Y-195649999D03*
X-207549999Y-195649999D03*
D10*
X-208200000Y-195650000D03*
D11*
X-207549999Y-194149999D03*
%TD*%
D10*
%TO.C,D191*%
X-313708893Y-14700000D03*
D11*
X-314408892Y-14699999D03*
X-314408892Y-16199999D03*
X-311708892Y-16199999D03*
D10*
X-312358893Y-16200000D03*
D11*
X-311708892Y-14699999D03*
%TD*%
D10*
%TO.C,D64*%
X-260408893Y-169676393D03*
D11*
X-261108892Y-169676392D03*
X-261108892Y-171176392D03*
X-258408892Y-171176392D03*
D10*
X-259058893Y-171176393D03*
D11*
X-258408892Y-169676392D03*
%TD*%
D10*
%TO.C,D225*%
X-240650000Y-53550000D03*
D11*
X-241349999Y-53549999D03*
X-241349999Y-55049999D03*
X-238649999Y-55049999D03*
D10*
X-239300000Y-55050000D03*
D11*
X-238649999Y-53549999D03*
%TD*%
D10*
%TO.C,D181*%
X-256200000Y-4100000D03*
D11*
X-256899999Y-4099999D03*
X-256899999Y-5599999D03*
X-254199999Y-5599999D03*
D10*
X-254850000Y-5600000D03*
D11*
X-254199999Y-4099999D03*
%TD*%
D10*
%TO.C,D204*%
X-288308893Y-36923607D03*
D11*
X-289008892Y-36923606D03*
X-289008892Y-38423606D03*
X-286308892Y-38423606D03*
D10*
X-286958893Y-38423607D03*
D11*
X-286308892Y-36923606D03*
%TD*%
D10*
%TO.C,D32*%
X-194200000Y-181600000D03*
D11*
X-194899999Y-181599999D03*
X-194899999Y-183099999D03*
X-192199999Y-183099999D03*
D10*
X-192850000Y-183100000D03*
D11*
X-192199999Y-181599999D03*
%TD*%
D10*
%TO.C,D69*%
X-259900000Y-155100000D03*
D11*
X-260599999Y-155099999D03*
X-260599999Y-156599999D03*
X-257899999Y-156599999D03*
D10*
X-258550000Y-156600000D03*
D11*
X-257899999Y-155099999D03*
%TD*%
D10*
%TO.C,D162*%
X-203850000Y-40850000D03*
D11*
X-204549999Y-40849999D03*
X-204549999Y-42349999D03*
X-201849999Y-42349999D03*
D10*
X-202500000Y-42350000D03*
D11*
X-201849999Y-40849999D03*
%TD*%
D13*
%TO.C,J1*%
X-198769999Y-105319999D03*
X-198769999Y-111669999D03*
X-197499999Y-105319999D03*
X-197499999Y-111669999D03*
X-196229999Y-105319999D03*
X-196229999Y-111669999D03*
X-194959999Y-105319999D03*
X-194959999Y-111669999D03*
D14*
X-197499999Y-106589999D03*
D15*
X-196229999Y-106589999D03*
X-197499999Y-107859999D03*
X-196229999Y-107859999D03*
X-197499999Y-109129999D03*
X-196229999Y-109129999D03*
X-197499999Y-110399999D03*
X-196229999Y-110399999D03*
%TD*%
D16*
%TO.C,C1*%
X-273000000Y-5725000D03*
X-273000000Y-8675000D03*
%TD*%
D17*
%TO.C,U4*%
X-182123915Y-102367417D03*
X-182795666Y-101695666D03*
X-183467417Y-101023915D03*
X-185076085Y-102632583D03*
X-183732583Y-103976085D03*
%TD*%
D18*
%TO.C,U1*%
X-277650000Y-4737500D03*
X-275750000Y-4737500D03*
X-276700000Y-2862500D03*
%TD*%
D19*
%TO.C,C3*%
X-302900000Y-9075000D03*
X-302900000Y-7525000D03*
%TD*%
D20*
%TO.C,C8*%
X-208775000Y-198300000D03*
X-205825000Y-198300000D03*
%TD*%
D21*
%TO.C,C6*%
X-224957017Y-155057017D03*
X-227042983Y-157142983D03*
%TD*%
D22*
%TO.C,JP1*%
X-186180760Y-98380760D03*
X-187099999Y-99299999D03*
X-188019238Y-100219238D03*
%TD*%
D23*
%TO.C,C4*%
X-267225000Y-85700000D03*
X-270175000Y-85700000D03*
%TD*%
%TO.C,C5*%
X-187925000Y-111600000D03*
X-190875000Y-111600000D03*
%TD*%
D24*
%TO.C,U2*%
X-300905000Y-11125000D03*
X-299635000Y-11125000D03*
X-298365000Y-11125000D03*
X-297095000Y-11125000D03*
X-297095000Y-5875000D03*
X-298365000Y-5875000D03*
X-299635000Y-5875000D03*
X-300905000Y-5875000D03*
%TD*%
D25*
%TO.C,J14*%
X-185899999Y-146499999D03*
D26*
X-183359999Y-146499999D03*
X-180819999Y-146499999D03*
X-178279999Y-146499999D03*
X-175739999Y-146499999D03*
X-173199999Y-146499999D03*
X-173199999Y-136339999D03*
X-175739999Y-136339999D03*
X-178279999Y-136339999D03*
X-180819999Y-136339999D03*
X-183359999Y-136339999D03*
X-185899999Y-136339999D03*
%TD*%
D27*
%TO.C,U3*%
X-171662500Y-109250000D03*
X-171662500Y-108300000D03*
X-171662500Y-107350000D03*
X-173937500Y-107350000D03*
X-173937500Y-109250000D03*
%TD*%
D28*
%TO.C,X1*%
X-289979999Y-3949999D03*
D29*
X-289979999Y-6489999D03*
D28*
X-287439999Y-3949999D03*
X-287439999Y-6489999D03*
D30*
X-284900000Y-3950000D03*
X-284900000Y-6490000D03*
%TD*%
D31*
%TO.C,C2*%
X-295400000Y-7920000D03*
X-295400000Y-8880000D03*
%TD*%
D32*
%TO.C,C7*%
X-265577944Y-152167846D03*
X-263491978Y-154253812D03*
%TD*%
D33*
%TO.C,C10*%
X-275859961Y-8810829D03*
X-277409961Y-8810829D03*
%TD*%
%TO.C,C9*%
X-275859961Y-6910829D03*
X-277409961Y-6910829D03*
%TD*%
M02*
