%TF.GenerationSoftware,KiCad,Pcbnew,(6.99.0-3809-g2741d0eb4b)*%
%TF.CreationDate,2022-10-25T09:35:27-04:00*%
%TF.ProjectId,PortWing,506f7274-5769-46e6-972e-6b696361645f,rev?*%
%TF.SameCoordinates,Original*%
%TF.FileFunction,AssemblyDrawing,Top*%
%FSLAX46Y46*%
G04 Gerber Fmt 4.6, Leading zero omitted, Abs format (unit mm)*
G04 Created by KiCad (PCBNEW (6.99.0-3809-g2741d0eb4b)) date 2022-10-25 09:35:27*
%MOMM*%
%LPD*%
G01*
G04 APERTURE LIST*
%ADD10C,0.100000*%
G04 APERTURE END LIST*
D10*
%TO.C,D213*%
X54645401Y-40707279D02*
X51145401Y-40707279D01*
X54645401Y-37907279D02*
X54645401Y-40707279D01*
X52145401Y-37957279D02*
X51195401Y-39057279D01*
X51195401Y-39057279D02*
X51195401Y-37907279D01*
X51195401Y-37907279D02*
X54645401Y-37907279D01*
X51145401Y-40707279D02*
X51195401Y-37957279D01*
X51145401Y-37407279D02*
G75*
G03*
X51145401Y-37407279I-450000J0D01*
G01*
%TO.C,D37*%
X131145401Y-179807279D02*
X127645401Y-179807279D01*
X131145401Y-177007279D02*
X131145401Y-179807279D01*
X128645401Y-177057279D02*
X127695401Y-178157279D01*
X127695401Y-178157279D02*
X127695401Y-177007279D01*
X127695401Y-177007279D02*
X131145401Y-177007279D01*
X127645401Y-179807279D02*
X127695401Y-177057279D01*
X127645401Y-176507279D02*
G75*
G03*
X127645401Y-176507279I-450000J0D01*
G01*
%TO.C,D94*%
X102445401Y-121607279D02*
X98945401Y-121607279D01*
X102445401Y-118807279D02*
X102445401Y-121607279D01*
X99945401Y-118857279D02*
X98995401Y-119957279D01*
X98995401Y-119957279D02*
X98995401Y-118807279D01*
X98995401Y-118807279D02*
X102445401Y-118807279D01*
X98945401Y-121607279D02*
X98995401Y-118857279D01*
X98945401Y-118307279D02*
G75*
G03*
X98945401Y-118307279I-450000J0D01*
G01*
%TO.C,D241*%
X87004294Y-68180886D02*
X83504294Y-68180886D01*
X87004294Y-65380886D02*
X87004294Y-68180886D01*
X84504294Y-65430886D02*
X83554294Y-66530886D01*
X83554294Y-66530886D02*
X83554294Y-65380886D01*
X83554294Y-65380886D02*
X87004294Y-65380886D01*
X83504294Y-68180886D02*
X83554294Y-65430886D01*
X83504294Y-64880886D02*
G75*
G03*
X83504294Y-64880886I-450000J0D01*
G01*
%TO.C,D199*%
X42354294Y-16130886D02*
X38854294Y-16130886D01*
X42354294Y-13330886D02*
X42354294Y-16130886D01*
X39854294Y-13380886D02*
X38904294Y-14480886D01*
X38904294Y-14480886D02*
X38904294Y-13330886D01*
X38904294Y-13330886D02*
X42354294Y-13330886D01*
X38854294Y-16130886D02*
X38904294Y-13380886D01*
X38854294Y-12830886D02*
G75*
G03*
X38854294Y-12830886I-450000J0D01*
G01*
%TO.C,D102*%
X74104294Y-135580886D02*
X70604294Y-135580886D01*
X74104294Y-132780886D02*
X74104294Y-135580886D01*
X71604294Y-132830886D02*
X70654294Y-133930886D01*
X70654294Y-133930886D02*
X70654294Y-132780886D01*
X70654294Y-132780886D02*
X74104294Y-132780886D01*
X70604294Y-135580886D02*
X70654294Y-132830886D01*
X70604294Y-132280886D02*
G75*
G03*
X70604294Y-132280886I-450000J0D01*
G01*
%TO.C,D78*%
X106904294Y-145680886D02*
X103404294Y-145680886D01*
X106904294Y-142880886D02*
X106904294Y-145680886D01*
X104404294Y-142930886D02*
X103454294Y-144030886D01*
X103454294Y-144030886D02*
X103454294Y-142880886D01*
X103454294Y-142880886D02*
X106904294Y-142880886D01*
X103404294Y-145680886D02*
X103454294Y-142930886D01*
X103404294Y-142380886D02*
G75*
G03*
X103404294Y-142380886I-450000J0D01*
G01*
%TO.C,D216*%
X56045401Y-44480886D02*
X52545401Y-44480886D01*
X56045401Y-41680886D02*
X56045401Y-44480886D01*
X53545401Y-41730886D02*
X52595401Y-42830886D01*
X52595401Y-42830886D02*
X52595401Y-41680886D01*
X52595401Y-41680886D02*
X56045401Y-41680886D01*
X52545401Y-44480886D02*
X52595401Y-41730886D01*
X52545401Y-41180886D02*
G75*
G03*
X52545401Y-41180886I-450000J0D01*
G01*
%TO.C,D30*%
X144004294Y-160180886D02*
X140504294Y-160180886D01*
X144004294Y-157380886D02*
X144004294Y-160180886D01*
X141504294Y-157430886D02*
X140554294Y-158530886D01*
X140554294Y-158530886D02*
X140554294Y-157380886D01*
X140554294Y-157380886D02*
X144004294Y-157380886D01*
X140504294Y-160180886D02*
X140554294Y-157430886D01*
X140504294Y-156880886D02*
G75*
G03*
X140504294Y-156880886I-450000J0D01*
G01*
%TO.C,D82*%
X108054294Y-163930886D02*
X104554294Y-163930886D01*
X108054294Y-161130886D02*
X108054294Y-163930886D01*
X105554294Y-161180886D02*
X104604294Y-162280886D01*
X104604294Y-162280886D02*
X104604294Y-161130886D01*
X104604294Y-161130886D02*
X108054294Y-161130886D01*
X104554294Y-163930886D02*
X104604294Y-161180886D01*
X104554294Y-160630886D02*
G75*
G03*
X104554294Y-160630886I-450000J0D01*
G01*
%TO.C,D153*%
X159945401Y-72507279D02*
X156445401Y-72507279D01*
X159945401Y-69707279D02*
X159945401Y-72507279D01*
X157445401Y-69757279D02*
X156495401Y-70857279D01*
X156495401Y-70857279D02*
X156495401Y-69707279D01*
X156495401Y-69707279D02*
X159945401Y-69707279D01*
X156445401Y-72507279D02*
X156495401Y-69757279D01*
X156445401Y-69207279D02*
G75*
G03*
X156445401Y-69207279I-450000J0D01*
G01*
%TO.C,D12*%
X137154294Y-122530886D02*
X133654294Y-122530886D01*
X137154294Y-119730886D02*
X137154294Y-122530886D01*
X134654294Y-119780886D02*
X133704294Y-120880886D01*
X133704294Y-120880886D02*
X133704294Y-119730886D01*
X133704294Y-119730886D02*
X137154294Y-119730886D01*
X133654294Y-122530886D02*
X133704294Y-119780886D01*
X133654294Y-119230886D02*
G75*
G03*
X133654294Y-119230886I-450000J0D01*
G01*
%TO.C,D47*%
X96604294Y-176630886D02*
X93104294Y-176630886D01*
X96604294Y-173830886D02*
X96604294Y-176630886D01*
X94104294Y-173880886D02*
X93154294Y-174980886D01*
X93154294Y-174980886D02*
X93154294Y-173830886D01*
X93154294Y-173830886D02*
X96604294Y-173830886D01*
X93104294Y-176630886D02*
X93154294Y-173880886D01*
X93104294Y-173330886D02*
G75*
G03*
X93104294Y-173330886I-450000J0D01*
G01*
%TO.C,D45*%
X101454294Y-172830886D02*
X97954294Y-172830886D01*
X101454294Y-170030886D02*
X101454294Y-172830886D01*
X98954294Y-170080886D02*
X98004294Y-171180886D01*
X98004294Y-171180886D02*
X98004294Y-170030886D01*
X98004294Y-170030886D02*
X101454294Y-170030886D01*
X97954294Y-172830886D02*
X98004294Y-170080886D01*
X97954294Y-169530886D02*
G75*
G03*
X97954294Y-169530886I-450000J0D01*
G01*
%TO.C,D233*%
X111504294Y-45780886D02*
X108004294Y-45780886D01*
X111504294Y-42980886D02*
X111504294Y-45780886D01*
X109004294Y-43030886D02*
X108054294Y-44130886D01*
X108054294Y-44130886D02*
X108054294Y-42980886D01*
X108054294Y-42980886D02*
X111504294Y-42980886D01*
X108004294Y-45780886D02*
X108054294Y-43030886D01*
X108004294Y-42480886D02*
G75*
G03*
X108004294Y-42480886I-450000J0D01*
G01*
%TO.C,D253*%
X61545401Y-55107279D02*
X58045401Y-55107279D01*
X61545401Y-52307279D02*
X61545401Y-55107279D01*
X59045401Y-52357279D02*
X58095401Y-53457279D01*
X58095401Y-53457279D02*
X58095401Y-52307279D01*
X58095401Y-52307279D02*
X61545401Y-52307279D01*
X58045401Y-55107279D02*
X58095401Y-52357279D01*
X58045401Y-51807279D02*
G75*
G03*
X58045401Y-51807279I-450000J0D01*
G01*
%TO.C,D107*%
X67904294Y-116780886D02*
X64404294Y-116780886D01*
X67904294Y-113980886D02*
X67904294Y-116780886D01*
X65404294Y-114030886D02*
X64454294Y-115130886D01*
X64454294Y-115130886D02*
X64454294Y-113980886D01*
X64454294Y-113980886D02*
X67904294Y-113980886D01*
X64404294Y-116780886D02*
X64454294Y-114030886D01*
X64404294Y-113480886D02*
G75*
G03*
X64404294Y-113480886I-450000J0D01*
G01*
%TO.C,D152*%
X156804294Y-67680886D02*
X153304294Y-67680886D01*
X156804294Y-64880886D02*
X156804294Y-67680886D01*
X154304294Y-64930886D02*
X153354294Y-66030886D01*
X153354294Y-66030886D02*
X153354294Y-64880886D01*
X153354294Y-64880886D02*
X156804294Y-64880886D01*
X153304294Y-67680886D02*
X153354294Y-64930886D01*
X153304294Y-64380886D02*
G75*
G03*
X153304294Y-64380886I-450000J0D01*
G01*
%TO.C,D196*%
X30954294Y-10230886D02*
X27454294Y-10230886D01*
X30954294Y-7430886D02*
X30954294Y-10230886D01*
X28454294Y-7480886D02*
X27504294Y-8580886D01*
X27504294Y-8580886D02*
X27504294Y-7430886D01*
X27504294Y-7430886D02*
X30954294Y-7430886D01*
X27454294Y-10230886D02*
X27504294Y-7480886D01*
X27454294Y-6930886D02*
G75*
G03*
X27454294Y-6930886I-450000J0D01*
G01*
%TO.C,D159*%
X141104294Y-32180886D02*
X137604294Y-32180886D01*
X141104294Y-29380886D02*
X141104294Y-32180886D01*
X138604294Y-29430886D02*
X137654294Y-30530886D01*
X137654294Y-30530886D02*
X137654294Y-29380886D01*
X137654294Y-29380886D02*
X141104294Y-29380886D01*
X137604294Y-32180886D02*
X137654294Y-29430886D01*
X137604294Y-28880886D02*
G75*
G03*
X137604294Y-28880886I-450000J0D01*
G01*
%TO.C,D85*%
X117704294Y-149880886D02*
X114204294Y-149880886D01*
X117704294Y-147080886D02*
X117704294Y-149880886D01*
X115204294Y-147130886D02*
X114254294Y-148230886D01*
X114254294Y-148230886D02*
X114254294Y-147080886D01*
X114254294Y-147080886D02*
X117704294Y-147080886D01*
X114204294Y-149880886D02*
X114254294Y-147130886D01*
X114204294Y-146580886D02*
G75*
G03*
X114204294Y-146580886I-450000J0D01*
G01*
%TO.C,D53*%
X79404294Y-180280886D02*
X75904294Y-180280886D01*
X79404294Y-177480886D02*
X79404294Y-180280886D01*
X76904294Y-177530886D02*
X75954294Y-178630886D01*
X75954294Y-178630886D02*
X75954294Y-177480886D01*
X75954294Y-177480886D02*
X79404294Y-177480886D01*
X75904294Y-180280886D02*
X75954294Y-177530886D01*
X75904294Y-176980886D02*
G75*
G03*
X75904294Y-176980886I-450000J0D01*
G01*
%TO.C,D20*%
X136604294Y-155180886D02*
X133104294Y-155180886D01*
X136604294Y-152380886D02*
X136604294Y-155180886D01*
X134104294Y-152430886D02*
X133154294Y-153530886D01*
X133154294Y-153530886D02*
X133154294Y-152380886D01*
X133154294Y-152380886D02*
X136604294Y-152380886D01*
X133104294Y-155180886D02*
X133154294Y-152430886D01*
X133104294Y-151880886D02*
G75*
G03*
X133104294Y-151880886I-450000J0D01*
G01*
%TO.C,D206*%
X36054294Y-26130886D02*
X32554294Y-26130886D01*
X36054294Y-23330886D02*
X36054294Y-26130886D01*
X33554294Y-23380886D02*
X32604294Y-24480886D01*
X32604294Y-24480886D02*
X32604294Y-23330886D01*
X32604294Y-23330886D02*
X36054294Y-23330886D01*
X32554294Y-26130886D02*
X32604294Y-23380886D01*
X32554294Y-22830886D02*
G75*
G03*
X32554294Y-22830886I-450000J0D01*
G01*
%TO.C,D251*%
X56904294Y-59530886D02*
X53404294Y-59530886D01*
X56904294Y-56730886D02*
X56904294Y-59530886D01*
X54404294Y-56780886D02*
X53454294Y-57880886D01*
X53454294Y-57880886D02*
X53454294Y-56730886D01*
X53454294Y-56730886D02*
X56904294Y-56730886D01*
X53404294Y-59530886D02*
X53454294Y-56780886D01*
X53404294Y-56230886D02*
G75*
G03*
X53404294Y-56230886I-450000J0D01*
G01*
%TO.C,D170*%
X117254294Y-7230886D02*
X113754294Y-7230886D01*
X117254294Y-4430886D02*
X117254294Y-7230886D01*
X114754294Y-4480886D02*
X113804294Y-5580886D01*
X113804294Y-5580886D02*
X113804294Y-4430886D01*
X113804294Y-4430886D02*
X117254294Y-4430886D01*
X113754294Y-7230886D02*
X113804294Y-4480886D01*
X113754294Y-3930886D02*
G75*
G03*
X113754294Y-3930886I-450000J0D01*
G01*
%TO.C,D165*%
X132804294Y-20930886D02*
X129304294Y-20930886D01*
X132804294Y-18130886D02*
X132804294Y-20930886D01*
X130304294Y-18180886D02*
X129354294Y-19280886D01*
X129354294Y-19280886D02*
X129354294Y-18130886D01*
X129354294Y-18130886D02*
X132804294Y-18130886D01*
X129304294Y-20930886D02*
X129354294Y-18180886D01*
X129304294Y-17630886D02*
G75*
G03*
X129304294Y-17630886I-450000J0D01*
G01*
%TO.C,D116*%
X79804294Y-82780886D02*
X76304294Y-82780886D01*
X79804294Y-79980886D02*
X79804294Y-82780886D01*
X77304294Y-80030886D02*
X76354294Y-81130886D01*
X76354294Y-81130886D02*
X76354294Y-79980886D01*
X76354294Y-79980886D02*
X79804294Y-79980886D01*
X76304294Y-82780886D02*
X76354294Y-80030886D01*
X76304294Y-79480886D02*
G75*
G03*
X76304294Y-79480886I-450000J0D01*
G01*
%TO.C,D119*%
X109904294Y-68880886D02*
X106404294Y-68880886D01*
X109904294Y-66080886D02*
X109904294Y-68880886D01*
X107404294Y-66130886D02*
X106454294Y-67230886D01*
X106454294Y-67230886D02*
X106454294Y-66080886D01*
X106454294Y-66080886D02*
X109904294Y-66080886D01*
X106404294Y-68880886D02*
X106454294Y-66130886D01*
X106404294Y-65580886D02*
G75*
G03*
X106404294Y-65580886I-450000J0D01*
G01*
%TO.C,D62*%
X73204294Y-160580886D02*
X69704294Y-160580886D01*
X73204294Y-157780886D02*
X73204294Y-160580886D01*
X70704294Y-157830886D02*
X69754294Y-158930886D01*
X69754294Y-158930886D02*
X69754294Y-157780886D01*
X69754294Y-157780886D02*
X73204294Y-157780886D01*
X69704294Y-160580886D02*
X69754294Y-157830886D01*
X69704294Y-157280886D02*
G75*
G03*
X69704294Y-157280886I-450000J0D01*
G01*
%TO.C,D249*%
X61504294Y-67080886D02*
X58004294Y-67080886D01*
X61504294Y-64280886D02*
X61504294Y-67080886D01*
X59004294Y-64330886D02*
X58054294Y-65430886D01*
X58054294Y-65430886D02*
X58054294Y-64280886D01*
X58054294Y-64280886D02*
X61504294Y-64280886D01*
X58004294Y-67080886D02*
X58054294Y-64330886D01*
X58004294Y-63780886D02*
G75*
G03*
X58004294Y-63780886I-450000J0D01*
G01*
%TO.C,D86*%
X119504294Y-146080886D02*
X116004294Y-146080886D01*
X119504294Y-143280886D02*
X119504294Y-146080886D01*
X117004294Y-143330886D02*
X116054294Y-144430886D01*
X116054294Y-144430886D02*
X116054294Y-143280886D01*
X116054294Y-143280886D02*
X119504294Y-143280886D01*
X116004294Y-146080886D02*
X116054294Y-143330886D01*
X116004294Y-142780886D02*
G75*
G03*
X116004294Y-142780886I-450000J0D01*
G01*
%TO.C,D44*%
X106045401Y-174907279D02*
X102545401Y-174907279D01*
X106045401Y-172107279D02*
X106045401Y-174907279D01*
X103545401Y-172157279D02*
X102595401Y-173257279D01*
X102595401Y-173257279D02*
X102595401Y-172107279D01*
X102595401Y-172107279D02*
X106045401Y-172107279D01*
X102545401Y-174907279D02*
X102595401Y-172157279D01*
X102545401Y-171607279D02*
G75*
G03*
X102545401Y-171607279I-450000J0D01*
G01*
%TO.C,D14*%
X129645401Y-131707279D02*
X126145401Y-131707279D01*
X129645401Y-128907279D02*
X129645401Y-131707279D01*
X127145401Y-128957279D02*
X126195401Y-130057279D01*
X126195401Y-130057279D02*
X126195401Y-128907279D01*
X126195401Y-128907279D02*
X129645401Y-128907279D01*
X126145401Y-131707279D02*
X126195401Y-128957279D01*
X126145401Y-128407279D02*
G75*
G03*
X126145401Y-128407279I-450000J0D01*
G01*
%TO.C,D76*%
X105804294Y-137880886D02*
X102304294Y-137880886D01*
X105804294Y-135080886D02*
X105804294Y-137880886D01*
X103304294Y-135130886D02*
X102354294Y-136230886D01*
X102354294Y-136230886D02*
X102354294Y-135080886D01*
X102354294Y-135080886D02*
X105804294Y-135080886D01*
X102304294Y-137880886D02*
X102354294Y-135130886D01*
X102304294Y-134580886D02*
G75*
G03*
X102304294Y-134580886I-450000J0D01*
G01*
%TO.C,D68*%
X79704294Y-142780886D02*
X76204294Y-142780886D01*
X79704294Y-139980886D02*
X79704294Y-142780886D01*
X77204294Y-140030886D02*
X76254294Y-141130886D01*
X76254294Y-141130886D02*
X76254294Y-139980886D01*
X76254294Y-139980886D02*
X79704294Y-139980886D01*
X76204294Y-142780886D02*
X76254294Y-140030886D01*
X76204294Y-139480886D02*
G75*
G03*
X76204294Y-139480886I-450000J0D01*
G01*
%TO.C,D66*%
X76654294Y-148330886D02*
X73154294Y-148330886D01*
X76654294Y-145530886D02*
X76654294Y-148330886D01*
X74154294Y-145580886D02*
X73204294Y-146680886D01*
X73204294Y-146680886D02*
X73204294Y-145530886D01*
X73204294Y-145530886D02*
X76654294Y-145530886D01*
X73154294Y-148330886D02*
X73204294Y-145580886D01*
X73154294Y-145030886D02*
G75*
G03*
X73154294Y-145030886I-450000J0D01*
G01*
%TO.C,D163*%
X125904294Y-26780886D02*
X122404294Y-26780886D01*
X125904294Y-23980886D02*
X125904294Y-26780886D01*
X123404294Y-24030886D02*
X122454294Y-25130886D01*
X122454294Y-25130886D02*
X122454294Y-23980886D01*
X122454294Y-23980886D02*
X125904294Y-23980886D01*
X122404294Y-26780886D02*
X122454294Y-24030886D01*
X122404294Y-23480886D02*
G75*
G03*
X122404294Y-23480886I-450000J0D01*
G01*
%TO.C,D61*%
X68545401Y-162907279D02*
X65045401Y-162907279D01*
X68545401Y-160107279D02*
X68545401Y-162907279D01*
X66045401Y-160157279D02*
X65095401Y-161257279D01*
X65095401Y-161257279D02*
X65095401Y-160107279D01*
X65095401Y-160107279D02*
X68545401Y-160107279D01*
X65045401Y-162907279D02*
X65095401Y-160157279D01*
X65045401Y-159607279D02*
G75*
G03*
X65045401Y-159607279I-450000J0D01*
G01*
%TO.C,D195*%
X34754294Y-6030886D02*
X31254294Y-6030886D01*
X34754294Y-3230886D02*
X34754294Y-6030886D01*
X32254294Y-3280886D02*
X31304294Y-4380886D01*
X31304294Y-4380886D02*
X31304294Y-3230886D01*
X31304294Y-3230886D02*
X34754294Y-3230886D01*
X31254294Y-6030886D02*
X31304294Y-3280886D01*
X31254294Y-2730886D02*
G75*
G03*
X31254294Y-2730886I-450000J0D01*
G01*
%TO.C,D115*%
X77654294Y-86230886D02*
X74154294Y-86230886D01*
X77654294Y-83430886D02*
X77654294Y-86230886D01*
X75154294Y-83480886D02*
X74204294Y-84580886D01*
X74204294Y-84580886D02*
X74204294Y-83430886D01*
X74204294Y-83430886D02*
X77654294Y-83430886D01*
X74154294Y-86230886D02*
X74204294Y-83480886D01*
X74154294Y-82930886D02*
G75*
G03*
X74154294Y-82930886I-450000J0D01*
G01*
%TO.C,D96*%
X101804294Y-132280886D02*
X98304294Y-132280886D01*
X101804294Y-129480886D02*
X101804294Y-132280886D01*
X99304294Y-129530886D02*
X98354294Y-130630886D01*
X98354294Y-130630886D02*
X98354294Y-129480886D01*
X98354294Y-129480886D02*
X101804294Y-129480886D01*
X98304294Y-132280886D02*
X98354294Y-129530886D01*
X98304294Y-128980886D02*
G75*
G03*
X98304294Y-128980886I-450000J0D01*
G01*
%TO.C,C1*%
X60854294Y11519114D02*
X60854294Y8319114D01*
X59254294Y11519114D02*
X60854294Y11519114D01*
X60854294Y8319114D02*
X59254294Y8319114D01*
X59254294Y8319114D02*
X59254294Y11519114D01*
%TO.C,D227*%
X104545401Y-39307279D02*
X101045401Y-39307279D01*
X104545401Y-36507279D02*
X104545401Y-39307279D01*
X102045401Y-36557279D02*
X101095401Y-37657279D01*
X101095401Y-37657279D02*
X101095401Y-36507279D01*
X101095401Y-36507279D02*
X104545401Y-36507279D01*
X101045401Y-39307279D02*
X101095401Y-36557279D01*
X101045401Y-36007279D02*
G75*
G03*
X101045401Y-36007279I-450000J0D01*
G01*
%TO.C,D9*%
X147004294Y-113480886D02*
X143504294Y-113480886D01*
X147004294Y-110680886D02*
X147004294Y-113480886D01*
X144504294Y-110730886D02*
X143554294Y-111830886D01*
X143554294Y-111830886D02*
X143554294Y-110680886D01*
X143554294Y-110680886D02*
X147004294Y-110680886D01*
X143504294Y-113480886D02*
X143554294Y-110730886D01*
X143504294Y-110180886D02*
G75*
G03*
X143504294Y-110180886I-450000J0D01*
G01*
%TO.C,D124*%
X127445401Y-72107279D02*
X123945401Y-72107279D01*
X127445401Y-69307279D02*
X127445401Y-72107279D01*
X124945401Y-69357279D02*
X123995401Y-70457279D01*
X123995401Y-70457279D02*
X123995401Y-69307279D01*
X123995401Y-69307279D02*
X127445401Y-69307279D01*
X123945401Y-72107279D02*
X123995401Y-69357279D01*
X123945401Y-68807279D02*
G75*
G03*
X123945401Y-68807279I-450000J0D01*
G01*
%TO.C,D70*%
X80654294Y-138730886D02*
X77154294Y-138730886D01*
X80654294Y-135930886D02*
X80654294Y-138730886D01*
X78154294Y-135980886D02*
X77204294Y-137080886D01*
X77204294Y-137080886D02*
X77204294Y-135930886D01*
X77204294Y-135930886D02*
X80654294Y-135930886D01*
X77154294Y-138730886D02*
X77204294Y-135980886D01*
X77154294Y-135430886D02*
G75*
G03*
X77154294Y-135430886I-450000J0D01*
G01*
%TO.C,D198*%
X40754294Y-12330886D02*
X37254294Y-12330886D01*
X40754294Y-9530886D02*
X40754294Y-12330886D01*
X38254294Y-9580886D02*
X37304294Y-10680886D01*
X37304294Y-10680886D02*
X37304294Y-9530886D01*
X37304294Y-9530886D02*
X40754294Y-9530886D01*
X37254294Y-12330886D02*
X37304294Y-9580886D01*
X37254294Y-9030886D02*
G75*
G03*
X37254294Y-9030886I-450000J0D01*
G01*
%TO.C,D226*%
X99045401Y-39007279D02*
X95545401Y-39007279D01*
X99045401Y-36207279D02*
X99045401Y-39007279D01*
X96545401Y-36257279D02*
X95595401Y-37357279D01*
X95595401Y-37357279D02*
X95595401Y-36207279D01*
X95595401Y-36207279D02*
X99045401Y-36207279D01*
X95545401Y-39007279D02*
X95595401Y-36257279D01*
X95545401Y-35707279D02*
G75*
G03*
X95545401Y-35707279I-450000J0D01*
G01*
%TO.C,D92*%
X110054294Y-111930886D02*
X106554294Y-111930886D01*
X110054294Y-109130886D02*
X110054294Y-111930886D01*
X107554294Y-109180886D02*
X106604294Y-110280886D01*
X106604294Y-110280886D02*
X106604294Y-109130886D01*
X106604294Y-109130886D02*
X110054294Y-109130886D01*
X106554294Y-111930886D02*
X106604294Y-109180886D01*
X106554294Y-108630886D02*
G75*
G03*
X106554294Y-108630886I-450000J0D01*
G01*
%TO.C,D125*%
X131004294Y-76080886D02*
X127504294Y-76080886D01*
X131004294Y-73280886D02*
X131004294Y-76080886D01*
X128504294Y-73330886D02*
X127554294Y-74430886D01*
X127554294Y-74430886D02*
X127554294Y-73280886D01*
X127554294Y-73280886D02*
X131004294Y-73280886D01*
X127504294Y-76080886D02*
X127554294Y-73330886D01*
X127504294Y-72780886D02*
G75*
G03*
X127504294Y-72780886I-450000J0D01*
G01*
%TO.C,D230*%
X115604294Y-28980886D02*
X112104294Y-28980886D01*
X115604294Y-26180886D02*
X115604294Y-28980886D01*
X113104294Y-26230886D02*
X112154294Y-27330886D01*
X112154294Y-27330886D02*
X112154294Y-26180886D01*
X112154294Y-26180886D02*
X115604294Y-26180886D01*
X112104294Y-28980886D02*
X112154294Y-26230886D01*
X112104294Y-25680886D02*
G75*
G03*
X112104294Y-25680886I-450000J0D01*
G01*
%TO.C,D120*%
X114245401Y-72107279D02*
X110745401Y-72107279D01*
X114245401Y-69307279D02*
X114245401Y-72107279D01*
X111745401Y-69357279D02*
X110795401Y-70457279D01*
X110795401Y-70457279D02*
X110795401Y-69307279D01*
X110795401Y-69307279D02*
X114245401Y-69307279D01*
X110745401Y-72107279D02*
X110795401Y-69357279D01*
X110745401Y-68807279D02*
G75*
G03*
X110745401Y-68807279I-450000J0D01*
G01*
%TO.C,D100*%
X84645401Y-130507279D02*
X81145401Y-130507279D01*
X84645401Y-127707279D02*
X84645401Y-130507279D01*
X82145401Y-127757279D02*
X81195401Y-128857279D01*
X81195401Y-128857279D02*
X81195401Y-127707279D01*
X81195401Y-127707279D02*
X84645401Y-127707279D01*
X81145401Y-130507279D02*
X81195401Y-127757279D01*
X81145401Y-127207279D02*
G75*
G03*
X81145401Y-127207279I-450000J0D01*
G01*
%TO.C,D74*%
X100104294Y-138380886D02*
X96604294Y-138380886D01*
X100104294Y-135580886D02*
X100104294Y-138380886D01*
X97604294Y-135630886D02*
X96654294Y-136730886D01*
X96654294Y-136730886D02*
X96654294Y-135580886D01*
X96654294Y-135580886D02*
X100104294Y-135580886D01*
X96604294Y-138380886D02*
X96654294Y-135630886D01*
X96604294Y-135080886D02*
G75*
G03*
X96604294Y-135080886I-450000J0D01*
G01*
%TO.C,D3*%
X162445401Y-105907279D02*
X158945401Y-105907279D01*
X162445401Y-103107279D02*
X162445401Y-105907279D01*
X159945401Y-103157279D02*
X158995401Y-104257279D01*
X158995401Y-104257279D02*
X158995401Y-103107279D01*
X158995401Y-103107279D02*
X162445401Y-103107279D01*
X158945401Y-105907279D02*
X158995401Y-103157279D01*
X158945401Y-102607279D02*
G75*
G03*
X158945401Y-102607279I-450000J0D01*
G01*
%TO.C,D228*%
X109445401Y-34807279D02*
X105945401Y-34807279D01*
X109445401Y-32007279D02*
X109445401Y-34807279D01*
X106945401Y-32057279D02*
X105995401Y-33157279D01*
X105995401Y-33157279D02*
X105995401Y-32007279D01*
X105995401Y-32007279D02*
X109445401Y-32007279D01*
X105945401Y-34807279D02*
X105995401Y-32057279D01*
X105945401Y-31507279D02*
G75*
G03*
X105945401Y-31507279I-450000J0D01*
G01*
%TO.C,U4*%
X150762442Y-85557663D02*
X150762442Y-86123348D01*
X148994675Y-83789896D02*
X150762442Y-85557663D01*
X150762442Y-86123348D02*
X149913913Y-86971876D01*
X149913913Y-86971876D02*
X147863304Y-84921267D01*
X147863304Y-84921267D02*
X148994675Y-83789896D01*
%TO.C,D72*%
X90704294Y-139080886D02*
X87204294Y-139080886D01*
X90704294Y-136280886D02*
X90704294Y-139080886D01*
X88204294Y-136330886D02*
X87254294Y-137430886D01*
X87254294Y-137430886D02*
X87254294Y-136280886D01*
X87254294Y-136280886D02*
X90704294Y-136280886D01*
X87204294Y-139080886D02*
X87254294Y-136330886D01*
X87204294Y-135780886D02*
G75*
G03*
X87204294Y-135780886I-450000J0D01*
G01*
%TO.C,D98*%
X93504294Y-121080886D02*
X90004294Y-121080886D01*
X93504294Y-118280886D02*
X93504294Y-121080886D01*
X91004294Y-118330886D02*
X90054294Y-119430886D01*
X90054294Y-119430886D02*
X90054294Y-118280886D01*
X90054294Y-118280886D02*
X93504294Y-118280886D01*
X90004294Y-121080886D02*
X90054294Y-118330886D01*
X90004294Y-117780886D02*
G75*
G03*
X90004294Y-117780886I-450000J0D01*
G01*
%TO.C,D190*%
X27404294Y-1380886D02*
X23904294Y-1380886D01*
X27404294Y1419114D02*
X27404294Y-1380886D01*
X24904294Y1369114D02*
X23954294Y269114D01*
X23954294Y269114D02*
X23954294Y1419114D01*
X23954294Y1419114D02*
X27404294Y1419114D01*
X23904294Y-1380886D02*
X23954294Y1369114D01*
X23904294Y1919114D02*
G75*
G03*
X23904294Y1919114I-450000J0D01*
G01*
%TO.C,D193*%
X24854294Y-7830886D02*
X21354294Y-7830886D01*
X24854294Y-5030886D02*
X24854294Y-7830886D01*
X22354294Y-5080886D02*
X21404294Y-6180886D01*
X21404294Y-6180886D02*
X21404294Y-5030886D01*
X21404294Y-5030886D02*
X24854294Y-5030886D01*
X21354294Y-7830886D02*
X21404294Y-5080886D01*
X21354294Y-4530886D02*
G75*
G03*
X21354294Y-4530886I-450000J0D01*
G01*
%TO.C,D54*%
X73704294Y-184780886D02*
X70204294Y-184780886D01*
X73704294Y-181980886D02*
X73704294Y-184780886D01*
X71204294Y-182030886D02*
X70254294Y-183130886D01*
X70254294Y-183130886D02*
X70254294Y-181980886D01*
X70254294Y-181980886D02*
X73704294Y-181980886D01*
X70204294Y-184780886D02*
X70254294Y-182030886D01*
X70204294Y-181480886D02*
G75*
G03*
X70204294Y-181480886I-450000J0D01*
G01*
%TO.C,D22*%
X147645401Y-153207279D02*
X144145401Y-153207279D01*
X147645401Y-150407279D02*
X147645401Y-153207279D01*
X145145401Y-150457279D02*
X144195401Y-151557279D01*
X144195401Y-151557279D02*
X144195401Y-150407279D01*
X144195401Y-150407279D02*
X147645401Y-150407279D01*
X144145401Y-153207279D02*
X144195401Y-150457279D01*
X144145401Y-149907279D02*
G75*
G03*
X144145401Y-149907279I-450000J0D01*
G01*
%TO.C,D154*%
X160745401Y-77407279D02*
X157245401Y-77407279D01*
X160745401Y-74607279D02*
X160745401Y-77407279D01*
X158245401Y-74657279D02*
X157295401Y-75757279D01*
X157295401Y-75757279D02*
X157295401Y-74607279D01*
X157295401Y-74607279D02*
X160745401Y-74607279D01*
X157245401Y-77407279D02*
X157295401Y-74657279D01*
X157245401Y-74107279D02*
G75*
G03*
X157245401Y-74107279I-450000J0D01*
G01*
%TO.C,D239*%
X88704294Y-76180886D02*
X85204294Y-76180886D01*
X88704294Y-73380886D02*
X88704294Y-76180886D01*
X86204294Y-73430886D02*
X85254294Y-74530886D01*
X85254294Y-74530886D02*
X85254294Y-73380886D01*
X85254294Y-73380886D02*
X88704294Y-73380886D01*
X85204294Y-76180886D02*
X85254294Y-73430886D01*
X85204294Y-72880886D02*
G75*
G03*
X85204294Y-72880886I-450000J0D01*
G01*
%TO.C,D81*%
X109904294Y-158980886D02*
X106404294Y-158980886D01*
X109904294Y-156180886D02*
X109904294Y-158980886D01*
X107404294Y-156230886D02*
X106454294Y-157330886D01*
X106454294Y-157330886D02*
X106454294Y-156180886D01*
X106454294Y-156180886D02*
X109904294Y-156180886D01*
X106404294Y-158980886D02*
X106454294Y-156230886D01*
X106404294Y-155680886D02*
G75*
G03*
X106404294Y-155680886I-450000J0D01*
G01*
%TO.C,D242*%
X83245401Y-71654493D02*
X79745401Y-71654493D01*
X83245401Y-68854493D02*
X83245401Y-71654493D01*
X80745401Y-68904493D02*
X79795401Y-70004493D01*
X79795401Y-70004493D02*
X79795401Y-68854493D01*
X79795401Y-68854493D02*
X83245401Y-68854493D01*
X79745401Y-71654493D02*
X79795401Y-68904493D01*
X79745401Y-68354493D02*
G75*
G03*
X79745401Y-68354493I-450000J0D01*
G01*
%TO.C,D48*%
X90504294Y-176880886D02*
X87004294Y-176880886D01*
X90504294Y-174080886D02*
X90504294Y-176880886D01*
X88004294Y-174130886D02*
X87054294Y-175230886D01*
X87054294Y-175230886D02*
X87054294Y-174080886D01*
X87054294Y-174080886D02*
X90504294Y-174080886D01*
X87004294Y-176880886D02*
X87054294Y-174130886D01*
X87004294Y-173580886D02*
G75*
G03*
X87004294Y-173580886I-450000J0D01*
G01*
%TO.C,U1*%
X55229294Y12669114D02*
X54904294Y12994114D01*
X57804294Y12669114D02*
X55229294Y12669114D01*
X54904294Y12994114D02*
X54904294Y13969114D01*
X54904294Y13969114D02*
X57804294Y13969114D01*
X57804294Y13969114D02*
X57804294Y12669114D01*
%TO.C,D135*%
X138704294Y-87180886D02*
X135204294Y-87180886D01*
X138704294Y-84380886D02*
X138704294Y-87180886D01*
X136204294Y-84430886D02*
X135254294Y-85530886D01*
X135254294Y-85530886D02*
X135254294Y-84380886D01*
X135254294Y-84380886D02*
X138704294Y-84380886D01*
X135204294Y-87180886D02*
X135254294Y-84430886D01*
X135204294Y-83880886D02*
G75*
G03*
X135204294Y-83880886I-450000J0D01*
G01*
%TO.C,D79*%
X108054294Y-149830886D02*
X104554294Y-149830886D01*
X108054294Y-147030886D02*
X108054294Y-149830886D01*
X105554294Y-147080886D02*
X104604294Y-148180886D01*
X104604294Y-148180886D02*
X104604294Y-147030886D01*
X104604294Y-147030886D02*
X108054294Y-147030886D01*
X104554294Y-149830886D02*
X104604294Y-147080886D01*
X104554294Y-146530886D02*
G75*
G03*
X104554294Y-146530886I-450000J0D01*
G01*
%TO.C,D10*%
X144804294Y-118280886D02*
X141304294Y-118280886D01*
X144804294Y-115480886D02*
X144804294Y-118280886D01*
X142304294Y-115530886D02*
X141354294Y-116630886D01*
X141354294Y-116630886D02*
X141354294Y-115480886D01*
X141354294Y-115480886D02*
X144804294Y-115480886D01*
X141304294Y-118280886D02*
X141354294Y-115530886D01*
X141304294Y-114980886D02*
G75*
G03*
X141304294Y-114980886I-450000J0D01*
G01*
%TO.C,D128*%
X143304294Y-80680886D02*
X139804294Y-80680886D01*
X143304294Y-77880886D02*
X143304294Y-80680886D01*
X140804294Y-77930886D02*
X139854294Y-79030886D01*
X139854294Y-79030886D02*
X139854294Y-77880886D01*
X139854294Y-77880886D02*
X143304294Y-77880886D01*
X139804294Y-80680886D02*
X139854294Y-77930886D01*
X139804294Y-77380886D02*
G75*
G03*
X139804294Y-77380886I-450000J0D01*
G01*
%TO.C,D237*%
X96745401Y-73607279D02*
X93245401Y-73607279D01*
X96745401Y-70807279D02*
X96745401Y-73607279D01*
X94245401Y-70857279D02*
X93295401Y-71957279D01*
X93295401Y-71957279D02*
X93295401Y-70807279D01*
X93295401Y-70807279D02*
X96745401Y-70807279D01*
X93245401Y-73607279D02*
X93295401Y-70857279D01*
X93245401Y-70307279D02*
G75*
G03*
X93245401Y-70307279I-450000J0D01*
G01*
%TO.C,D21*%
X142045401Y-154407279D02*
X138545401Y-154407279D01*
X142045401Y-151607279D02*
X142045401Y-154407279D01*
X139545401Y-151657279D02*
X138595401Y-152757279D01*
X138595401Y-152757279D02*
X138595401Y-151607279D01*
X138595401Y-151607279D02*
X142045401Y-151607279D01*
X138545401Y-154407279D02*
X138595401Y-151657279D01*
X138545401Y-151107279D02*
G75*
G03*
X138545401Y-151107279I-450000J0D01*
G01*
%TO.C,D164*%
X125604294Y-22580886D02*
X122104294Y-22580886D01*
X125604294Y-19780886D02*
X125604294Y-22580886D01*
X123104294Y-19830886D02*
X122154294Y-20930886D01*
X122154294Y-20930886D02*
X122154294Y-19780886D01*
X122154294Y-19780886D02*
X125604294Y-19780886D01*
X122104294Y-22580886D02*
X122154294Y-19830886D01*
X122104294Y-19280886D02*
G75*
G03*
X122104294Y-19280886I-450000J0D01*
G01*
%TO.C,D246*%
X68804294Y-66607279D02*
X65304294Y-66607279D01*
X68804294Y-63807279D02*
X68804294Y-66607279D01*
X66304294Y-63857279D02*
X65354294Y-64957279D01*
X65354294Y-64957279D02*
X65354294Y-63807279D01*
X65354294Y-63807279D02*
X68804294Y-63807279D01*
X65304294Y-66607279D02*
X65354294Y-63857279D01*
X65304294Y-63307279D02*
G75*
G03*
X65304294Y-63307279I-450000J0D01*
G01*
%TO.C,D185*%
X67904294Y12319114D02*
X64404294Y12319114D01*
X67904294Y15119114D02*
X67904294Y12319114D01*
X65404294Y15069114D02*
X64454294Y13969114D01*
X64454294Y13969114D02*
X64454294Y15119114D01*
X64454294Y15119114D02*
X67904294Y15119114D01*
X64404294Y12319114D02*
X64454294Y15069114D01*
X64404294Y15619114D02*
G75*
G03*
X64404294Y15619114I-450000J0D01*
G01*
%TO.C,D197*%
X39554294Y-8330886D02*
X36054294Y-8330886D01*
X39554294Y-5530886D02*
X39554294Y-8330886D01*
X37054294Y-5580886D02*
X36104294Y-6680886D01*
X36104294Y-6680886D02*
X36104294Y-5530886D01*
X36104294Y-5530886D02*
X39554294Y-5530886D01*
X36054294Y-8330886D02*
X36104294Y-5580886D01*
X36054294Y-5030886D02*
G75*
G03*
X36054294Y-5030886I-450000J0D01*
G01*
%TO.C,D11*%
X142804294Y-124080886D02*
X139304294Y-124080886D01*
X142804294Y-121280886D02*
X142804294Y-124080886D01*
X140304294Y-121330886D02*
X139354294Y-122430886D01*
X139354294Y-122430886D02*
X139354294Y-121280886D01*
X139354294Y-121280886D02*
X142804294Y-121280886D01*
X139304294Y-124080886D02*
X139354294Y-121330886D01*
X139304294Y-120780886D02*
G75*
G03*
X139304294Y-120780886I-450000J0D01*
G01*
%TO.C,D28*%
X152045401Y-153607279D02*
X148545401Y-153607279D01*
X152045401Y-150807279D02*
X152045401Y-153607279D01*
X149545401Y-150857279D02*
X148595401Y-151957279D01*
X148595401Y-151957279D02*
X148595401Y-150807279D01*
X148595401Y-150807279D02*
X152045401Y-150807279D01*
X148545401Y-153607279D02*
X148595401Y-150857279D01*
X148545401Y-150307279D02*
G75*
G03*
X148545401Y-150307279I-450000J0D01*
G01*
%TO.C,D220*%
X70904294Y-39680886D02*
X67404294Y-39680886D01*
X70904294Y-36880886D02*
X70904294Y-39680886D01*
X68404294Y-36930886D02*
X67454294Y-38030886D01*
X67454294Y-38030886D02*
X67454294Y-36880886D01*
X67454294Y-36880886D02*
X70904294Y-36880886D01*
X67404294Y-39680886D02*
X67454294Y-36930886D01*
X67404294Y-36380886D02*
G75*
G03*
X67404294Y-36380886I-450000J0D01*
G01*
%TO.C,D8*%
X151745401Y-116907279D02*
X148245401Y-116907279D01*
X151745401Y-114107279D02*
X151745401Y-116907279D01*
X149245401Y-114157279D02*
X148295401Y-115257279D01*
X148295401Y-115257279D02*
X148295401Y-114107279D01*
X148295401Y-114107279D02*
X151745401Y-114107279D01*
X148245401Y-116907279D02*
X148295401Y-114157279D01*
X148245401Y-113607279D02*
G75*
G03*
X148245401Y-113607279I-450000J0D01*
G01*
%TO.C,D2*%
X161704294Y-96680886D02*
X158204294Y-96680886D01*
X161704294Y-93880886D02*
X161704294Y-96680886D01*
X159204294Y-93930886D02*
X158254294Y-95030886D01*
X158254294Y-95030886D02*
X158254294Y-93880886D01*
X158254294Y-93880886D02*
X161704294Y-93880886D01*
X158204294Y-96680886D02*
X158254294Y-93930886D01*
X158204294Y-93380886D02*
G75*
G03*
X158204294Y-93380886I-450000J0D01*
G01*
%TO.C,D129*%
X154301781Y-91508272D02*
X151826908Y-89033399D01*
X156281680Y-89528373D02*
X154301781Y-91508272D01*
X154478558Y-87795962D02*
X153028989Y-87902028D01*
X153028989Y-87902028D02*
X153842162Y-87088855D01*
X153842162Y-87088855D02*
X156281680Y-89528373D01*
X151826908Y-89033399D02*
X153806807Y-87124210D01*
X154292162Y-86381748D02*
G75*
G03*
X154292162Y-86381748I-450000J0D01*
G01*
%TO.C,D158*%
X138704294Y-36180886D02*
X135204294Y-36180886D01*
X138704294Y-33380886D02*
X138704294Y-36180886D01*
X136204294Y-33430886D02*
X135254294Y-34530886D01*
X135254294Y-34530886D02*
X135254294Y-33380886D01*
X135254294Y-33380886D02*
X138704294Y-33380886D01*
X135204294Y-36180886D02*
X135254294Y-33430886D01*
X135204294Y-32880886D02*
G75*
G03*
X135204294Y-32880886I-450000J0D01*
G01*
%TO.C,D59*%
X67404294Y-169480886D02*
X63904294Y-169480886D01*
X67404294Y-166680886D02*
X67404294Y-169480886D01*
X64904294Y-166730886D02*
X63954294Y-167830886D01*
X63954294Y-167830886D02*
X63954294Y-166680886D01*
X63954294Y-166680886D02*
X67404294Y-166680886D01*
X63904294Y-169480886D02*
X63954294Y-166730886D01*
X63904294Y-166180886D02*
G75*
G03*
X63904294Y-166180886I-450000J0D01*
G01*
%TO.C,D248*%
X65604294Y-62980886D02*
X62104294Y-62980886D01*
X65604294Y-60180886D02*
X65604294Y-62980886D01*
X63104294Y-60230886D02*
X62154294Y-61330886D01*
X62154294Y-61330886D02*
X62154294Y-60180886D01*
X62154294Y-60180886D02*
X65604294Y-60180886D01*
X62104294Y-62980886D02*
X62154294Y-60230886D01*
X62104294Y-59680886D02*
G75*
G03*
X62104294Y-59680886I-450000J0D01*
G01*
%TO.C,D252*%
X61204294Y-59780886D02*
X57704294Y-59780886D01*
X61204294Y-56980886D02*
X61204294Y-59780886D01*
X58704294Y-57030886D02*
X57754294Y-58130886D01*
X57754294Y-58130886D02*
X57754294Y-56980886D01*
X57754294Y-56980886D02*
X61204294Y-56980886D01*
X57704294Y-59780886D02*
X57754294Y-57030886D01*
X57704294Y-56480886D02*
G75*
G03*
X57704294Y-56480886I-450000J0D01*
G01*
%TO.C,D167*%
X121245401Y-19007279D02*
X117745401Y-19007279D01*
X121245401Y-16207279D02*
X121245401Y-19007279D01*
X118745401Y-16257279D02*
X117795401Y-17357279D01*
X117795401Y-17357279D02*
X117795401Y-16207279D01*
X117795401Y-16207279D02*
X121245401Y-16207279D01*
X117745401Y-19007279D02*
X117795401Y-16257279D01*
X117745401Y-15707279D02*
G75*
G03*
X117745401Y-15707279I-450000J0D01*
G01*
%TO.C,D238*%
X94104294Y-68580886D02*
X90604294Y-68580886D01*
X94104294Y-65780886D02*
X94104294Y-68580886D01*
X91604294Y-65830886D02*
X90654294Y-66930886D01*
X90654294Y-66930886D02*
X90654294Y-65780886D01*
X90654294Y-65780886D02*
X94104294Y-65780886D01*
X90604294Y-68580886D02*
X90654294Y-65830886D01*
X90604294Y-65280886D02*
G75*
G03*
X90604294Y-65280886I-450000J0D01*
G01*
%TO.C,D4*%
X163045401Y-110707279D02*
X159545401Y-110707279D01*
X163045401Y-107907279D02*
X163045401Y-110707279D01*
X160545401Y-107957279D02*
X159595401Y-109057279D01*
X159595401Y-109057279D02*
X159595401Y-107907279D01*
X159595401Y-107907279D02*
X163045401Y-107907279D01*
X159545401Y-110707279D02*
X159595401Y-107957279D01*
X159545401Y-107407279D02*
G75*
G03*
X159545401Y-107407279I-450000J0D01*
G01*
%TO.C,D137*%
X135745401Y-66607279D02*
X132245401Y-66607279D01*
X135745401Y-63807279D02*
X135745401Y-66607279D01*
X133245401Y-63857279D02*
X132295401Y-64957279D01*
X132295401Y-64957279D02*
X132295401Y-63807279D01*
X132295401Y-63807279D02*
X135745401Y-63807279D01*
X132245401Y-66607279D02*
X132295401Y-63857279D01*
X132245401Y-63307279D02*
G75*
G03*
X132245401Y-63307279I-450000J0D01*
G01*
%TO.C,D139*%
X126604294Y-63180886D02*
X123104294Y-63180886D01*
X126604294Y-60380886D02*
X126604294Y-63180886D01*
X124104294Y-60430886D02*
X123154294Y-61530886D01*
X123154294Y-61530886D02*
X123154294Y-60380886D01*
X123154294Y-60380886D02*
X126604294Y-60380886D01*
X123104294Y-63180886D02*
X123154294Y-60430886D01*
X123104294Y-59880886D02*
G75*
G03*
X123104294Y-59880886I-450000J0D01*
G01*
%TO.C,D121*%
X118254294Y-68630886D02*
X114754294Y-68630886D01*
X118254294Y-65830886D02*
X118254294Y-68630886D01*
X115754294Y-65880886D02*
X114804294Y-66980886D01*
X114804294Y-66980886D02*
X114804294Y-65830886D01*
X114804294Y-65830886D02*
X118254294Y-65830886D01*
X114754294Y-68630886D02*
X114804294Y-65880886D01*
X114754294Y-65330886D02*
G75*
G03*
X114754294Y-65330886I-450000J0D01*
G01*
%TO.C,D31*%
X147204294Y-164080886D02*
X143704294Y-164080886D01*
X147204294Y-161280886D02*
X147204294Y-164080886D01*
X144704294Y-161330886D02*
X143754294Y-162430886D01*
X143754294Y-162430886D02*
X143754294Y-161280886D01*
X143754294Y-161280886D02*
X147204294Y-161280886D01*
X143704294Y-164080886D02*
X143754294Y-161330886D01*
X143704294Y-160780886D02*
G75*
G03*
X143704294Y-160780886I-450000J0D01*
G01*
%TO.C,D187*%
X63104294Y13219114D02*
X59604294Y13219114D01*
X63104294Y16019114D02*
X63104294Y13219114D01*
X60604294Y15969114D02*
X59654294Y14869114D01*
X59654294Y14869114D02*
X59654294Y16019114D01*
X59654294Y16019114D02*
X63104294Y16019114D01*
X59604294Y13219114D02*
X59654294Y15969114D01*
X59604294Y16519114D02*
G75*
G03*
X59604294Y16519114I-450000J0D01*
G01*
%TO.C,D182*%
X77504294Y6519114D02*
X74004294Y6519114D01*
X77504294Y9319114D02*
X77504294Y6519114D01*
X75004294Y9269114D02*
X74054294Y8169114D01*
X74054294Y8169114D02*
X74054294Y9319114D01*
X74054294Y9319114D02*
X77504294Y9319114D01*
X74004294Y6519114D02*
X74054294Y9269114D01*
X74004294Y9819114D02*
G75*
G03*
X74004294Y9819114I-450000J0D01*
G01*
%TO.C,D250*%
X58354294Y-63730886D02*
X54854294Y-63730886D01*
X58354294Y-60930886D02*
X58354294Y-63730886D01*
X55854294Y-60980886D02*
X54904294Y-62080886D01*
X54904294Y-62080886D02*
X54904294Y-60930886D01*
X54904294Y-60930886D02*
X58354294Y-60930886D01*
X54854294Y-63730886D02*
X54904294Y-60980886D01*
X54854294Y-60430886D02*
G75*
G03*
X54854294Y-60430886I-450000J0D01*
G01*
%TO.C,D123*%
X125245401Y-68507279D02*
X121745401Y-68507279D01*
X125245401Y-65707279D02*
X125245401Y-68507279D01*
X122745401Y-65757279D02*
X121795401Y-66857279D01*
X121795401Y-66857279D02*
X121795401Y-65707279D01*
X121795401Y-65707279D02*
X125245401Y-65707279D01*
X121745401Y-68507279D02*
X121795401Y-65757279D01*
X121745401Y-65207279D02*
G75*
G03*
X121745401Y-65207279I-450000J0D01*
G01*
%TO.C,D243*%
X80654294Y-67830886D02*
X77154294Y-67830886D01*
X80654294Y-65030886D02*
X80654294Y-67830886D01*
X78154294Y-65080886D02*
X77204294Y-66180886D01*
X77204294Y-66180886D02*
X77204294Y-65030886D01*
X77204294Y-65030886D02*
X80654294Y-65030886D01*
X77154294Y-67830886D02*
X77204294Y-65080886D01*
X77154294Y-64530886D02*
G75*
G03*
X77154294Y-64530886I-450000J0D01*
G01*
%TO.C,D247*%
X71404294Y-70680886D02*
X67904294Y-70680886D01*
X71404294Y-67880886D02*
X71404294Y-70680886D01*
X68904294Y-67930886D02*
X67954294Y-69030886D01*
X67954294Y-69030886D02*
X67954294Y-67880886D01*
X67954294Y-67880886D02*
X71404294Y-67880886D01*
X67904294Y-70680886D02*
X67954294Y-67930886D01*
X67904294Y-67380886D02*
G75*
G03*
X67904294Y-67380886I-450000J0D01*
G01*
%TO.C,D113*%
X72104294Y-93680886D02*
X68604294Y-93680886D01*
X72104294Y-90880886D02*
X72104294Y-93680886D01*
X69604294Y-90930886D02*
X68654294Y-92030886D01*
X68654294Y-92030886D02*
X68654294Y-90880886D01*
X68654294Y-90880886D02*
X72104294Y-90880886D01*
X68604294Y-93680886D02*
X68654294Y-90930886D01*
X68604294Y-90380886D02*
G75*
G03*
X68604294Y-90380886I-450000J0D01*
G01*
%TO.C,C3*%
X29754294Y8019114D02*
X29754294Y9619114D01*
X30554294Y8019114D02*
X29754294Y8019114D01*
X29754294Y9619114D02*
X30554294Y9619114D01*
X30554294Y9619114D02*
X30554294Y8019114D01*
%TO.C,D245*%
X74454294Y-67430886D02*
X70954294Y-67430886D01*
X74454294Y-64630886D02*
X74454294Y-67430886D01*
X71954294Y-64680886D02*
X71004294Y-65780886D01*
X71004294Y-65780886D02*
X71004294Y-64630886D01*
X71004294Y-64630886D02*
X74454294Y-64630886D01*
X70954294Y-67430886D02*
X71004294Y-64680886D01*
X70954294Y-64130886D02*
G75*
G03*
X70954294Y-64130886I-450000J0D01*
G01*
%TO.C,D26*%
X158804294Y-135980886D02*
X155304294Y-135980886D01*
X158804294Y-133180886D02*
X158804294Y-135980886D01*
X156304294Y-133230886D02*
X155354294Y-134330886D01*
X155354294Y-134330886D02*
X155354294Y-133180886D01*
X155354294Y-133180886D02*
X158804294Y-133180886D01*
X155304294Y-135980886D02*
X155354294Y-133230886D01*
X155304294Y-132680886D02*
G75*
G03*
X155304294Y-132680886I-450000J0D01*
G01*
%TO.C,D39*%
X122954294Y-183430886D02*
X119454294Y-183430886D01*
X122954294Y-180630886D02*
X122954294Y-183430886D01*
X120454294Y-180680886D02*
X119504294Y-181780886D01*
X119504294Y-181780886D02*
X119504294Y-180630886D01*
X119504294Y-180630886D02*
X122954294Y-180630886D01*
X119454294Y-183430886D02*
X119504294Y-180680886D01*
X119454294Y-180130886D02*
G75*
G03*
X119454294Y-180130886I-450000J0D01*
G01*
%TO.C,D105*%
X65845401Y-124707279D02*
X62345401Y-124707279D01*
X65845401Y-121907279D02*
X65845401Y-124707279D01*
X63345401Y-121957279D02*
X62395401Y-123057279D01*
X62395401Y-123057279D02*
X62395401Y-121907279D01*
X62395401Y-121907279D02*
X65845401Y-121907279D01*
X62345401Y-124707279D02*
X62395401Y-121957279D01*
X62345401Y-121407279D02*
G75*
G03*
X62345401Y-121407279I-450000J0D01*
G01*
%TO.C,C8*%
X124154294Y-180380886D02*
X127354294Y-180380886D01*
X124154294Y-181980886D02*
X124154294Y-180380886D01*
X127354294Y-180380886D02*
X127354294Y-181980886D01*
X127354294Y-181980886D02*
X124154294Y-181980886D01*
%TO.C,D209*%
X49054294Y-33030886D02*
X45554294Y-33030886D01*
X49054294Y-30230886D02*
X49054294Y-33030886D01*
X46554294Y-30280886D02*
X45604294Y-31380886D01*
X45604294Y-31380886D02*
X45604294Y-30230886D01*
X45604294Y-30230886D02*
X49054294Y-30230886D01*
X45554294Y-33030886D02*
X45604294Y-30280886D01*
X45554294Y-29730886D02*
G75*
G03*
X45554294Y-29730886I-450000J0D01*
G01*
%TO.C,D210*%
X46245401Y-36207279D02*
X42745401Y-36207279D01*
X46245401Y-33407279D02*
X46245401Y-36207279D01*
X43745401Y-33457279D02*
X42795401Y-34557279D01*
X42795401Y-34557279D02*
X42795401Y-33407279D01*
X42795401Y-33407279D02*
X46245401Y-33407279D01*
X42745401Y-36207279D02*
X42795401Y-33457279D01*
X42745401Y-32907279D02*
G75*
G03*
X42745401Y-32907279I-450000J0D01*
G01*
%TO.C,C6*%
X108751350Y-138415201D02*
X106488609Y-140677942D01*
X107619979Y-137283830D02*
X108751350Y-138415201D01*
X106488609Y-140677942D02*
X105357238Y-139546571D01*
X105357238Y-139546571D02*
X107619979Y-137283830D01*
%TO.C,D192*%
X22354294Y-3730886D02*
X18854294Y-3730886D01*
X22354294Y-930886D02*
X22354294Y-3730886D01*
X19854294Y-980886D02*
X18904294Y-2080886D01*
X18904294Y-2080886D02*
X18904294Y-930886D01*
X18904294Y-930886D02*
X22354294Y-930886D01*
X18854294Y-3730886D02*
X18904294Y-980886D01*
X18854294Y-430886D02*
G75*
G03*
X18854294Y-430886I-450000J0D01*
G01*
%TO.C,D57*%
X67945401Y-176607279D02*
X64445401Y-176607279D01*
X67945401Y-173807279D02*
X67945401Y-176607279D01*
X65445401Y-173857279D02*
X64495401Y-174957279D01*
X64495401Y-174957279D02*
X64495401Y-173807279D01*
X64495401Y-173807279D02*
X67945401Y-173807279D01*
X64445401Y-176607279D02*
X64495401Y-173857279D01*
X64445401Y-173307279D02*
G75*
G03*
X64445401Y-173307279I-450000J0D01*
G01*
%TO.C,D244*%
X77204294Y-71180886D02*
X73704294Y-71180886D01*
X77204294Y-68380886D02*
X77204294Y-71180886D01*
X74704294Y-68430886D02*
X73754294Y-69530886D01*
X73754294Y-69530886D02*
X73754294Y-68380886D01*
X73754294Y-68380886D02*
X77204294Y-68380886D01*
X73704294Y-71180886D02*
X73754294Y-68430886D01*
X73704294Y-67880886D02*
G75*
G03*
X73704294Y-67880886I-450000J0D01*
G01*
%TO.C,D171*%
X111254294Y-8730886D02*
X107754294Y-8730886D01*
X111254294Y-5930886D02*
X111254294Y-8730886D01*
X108754294Y-5980886D02*
X107804294Y-7080886D01*
X107804294Y-7080886D02*
X107804294Y-5930886D01*
X107804294Y-5930886D02*
X111254294Y-5930886D01*
X107754294Y-8730886D02*
X107804294Y-5980886D01*
X107754294Y-5430886D02*
G75*
G03*
X107754294Y-5430886I-450000J0D01*
G01*
%TO.C,D63*%
X70504294Y-156680886D02*
X67004294Y-156680886D01*
X70504294Y-153880886D02*
X70504294Y-156680886D01*
X68004294Y-153930886D02*
X67054294Y-155030886D01*
X67054294Y-155030886D02*
X67054294Y-153880886D01*
X67054294Y-153880886D02*
X70504294Y-153880886D01*
X67004294Y-156680886D02*
X67054294Y-153930886D01*
X67004294Y-153380886D02*
G75*
G03*
X67004294Y-153380886I-450000J0D01*
G01*
%TO.C,D136*%
X130704294Y-66980886D02*
X127204294Y-66980886D01*
X130704294Y-64180886D02*
X130704294Y-66980886D01*
X128204294Y-64230886D02*
X127254294Y-65330886D01*
X127254294Y-65330886D02*
X127254294Y-64180886D01*
X127254294Y-64180886D02*
X130704294Y-64180886D01*
X127204294Y-66980886D02*
X127254294Y-64230886D01*
X127204294Y-63680886D02*
G75*
G03*
X127204294Y-63680886I-450000J0D01*
G01*
%TO.C,D219*%
X65704294Y-40680886D02*
X62204294Y-40680886D01*
X65704294Y-37880886D02*
X65704294Y-40680886D01*
X63204294Y-37930886D02*
X62254294Y-39030886D01*
X62254294Y-39030886D02*
X62254294Y-37880886D01*
X62254294Y-37880886D02*
X65704294Y-37880886D01*
X62204294Y-40680886D02*
X62254294Y-37930886D01*
X62204294Y-37380886D02*
G75*
G03*
X62204294Y-37380886I-450000J0D01*
G01*
%TO.C,D93*%
X105445401Y-117207279D02*
X101945401Y-117207279D01*
X105445401Y-114407279D02*
X105445401Y-117207279D01*
X102945401Y-114457279D02*
X101995401Y-115557279D01*
X101995401Y-115557279D02*
X101995401Y-114407279D01*
X101995401Y-114407279D02*
X105445401Y-114407279D01*
X101945401Y-117207279D02*
X101995401Y-114457279D01*
X101945401Y-113907279D02*
G75*
G03*
X101945401Y-113907279I-450000J0D01*
G01*
%TO.C,D134*%
X118945401Y-104307279D02*
X115445401Y-104307279D01*
X118945401Y-101507279D02*
X118945401Y-104307279D01*
X116445401Y-101557279D02*
X115495401Y-102657279D01*
X115495401Y-102657279D02*
X115495401Y-101507279D01*
X115495401Y-101507279D02*
X118945401Y-101507279D01*
X115445401Y-104307279D02*
X115495401Y-101557279D01*
X115445401Y-101007279D02*
G75*
G03*
X115445401Y-101007279I-450000J0D01*
G01*
%TO.C,D17*%
X125254294Y-146730886D02*
X121754294Y-146730886D01*
X125254294Y-143930886D02*
X125254294Y-146730886D01*
X122754294Y-143980886D02*
X121804294Y-145080886D01*
X121804294Y-145080886D02*
X121804294Y-143930886D01*
X121804294Y-143930886D02*
X125254294Y-143930886D01*
X121754294Y-146730886D02*
X121804294Y-143980886D01*
X121754294Y-143430886D02*
G75*
G03*
X121754294Y-143430886I-450000J0D01*
G01*
%TO.C,D34*%
X137404294Y-171880886D02*
X133904294Y-171880886D01*
X137404294Y-169080886D02*
X137404294Y-171880886D01*
X134904294Y-169130886D02*
X133954294Y-170230886D01*
X133954294Y-170230886D02*
X133954294Y-169080886D01*
X133954294Y-169080886D02*
X137404294Y-169080886D01*
X133904294Y-171880886D02*
X133954294Y-169130886D01*
X133904294Y-168580886D02*
G75*
G03*
X133904294Y-168580886I-450000J0D01*
G01*
%TO.C,D177*%
X91704294Y7219114D02*
X88204294Y7219114D01*
X91704294Y10019114D02*
X91704294Y7219114D01*
X89204294Y9969114D02*
X88254294Y8869114D01*
X88254294Y8869114D02*
X88254294Y10019114D01*
X88254294Y10019114D02*
X91704294Y10019114D01*
X88204294Y7219114D02*
X88254294Y9969114D01*
X88204294Y10519114D02*
G75*
G03*
X88204294Y10519114I-450000J0D01*
G01*
%TO.C,D88*%
X135945401Y-109807279D02*
X132445401Y-109807279D01*
X135945401Y-107007279D02*
X135945401Y-109807279D01*
X133445401Y-107057279D02*
X132495401Y-108157279D01*
X132495401Y-108157279D02*
X132495401Y-107007279D01*
X132495401Y-107007279D02*
X135945401Y-107007279D01*
X132445401Y-109807279D02*
X132495401Y-107057279D01*
X132445401Y-106507279D02*
G75*
G03*
X132445401Y-106507279I-450000J0D01*
G01*
%TO.C,D84*%
X115754294Y-154030886D02*
X112254294Y-154030886D01*
X115754294Y-151230886D02*
X115754294Y-154030886D01*
X113254294Y-151280886D02*
X112304294Y-152380886D01*
X112304294Y-152380886D02*
X112304294Y-151230886D01*
X112304294Y-151230886D02*
X115754294Y-151230886D01*
X112254294Y-154030886D02*
X112304294Y-151280886D01*
X112254294Y-150730886D02*
G75*
G03*
X112254294Y-150730886I-450000J0D01*
G01*
%TO.C,D240*%
X89204294Y-71980886D02*
X85704294Y-71980886D01*
X89204294Y-69180886D02*
X89204294Y-71980886D01*
X86704294Y-69230886D02*
X85754294Y-70330886D01*
X85754294Y-70330886D02*
X85754294Y-69180886D01*
X85754294Y-69180886D02*
X89204294Y-69180886D01*
X85704294Y-71980886D02*
X85754294Y-69230886D01*
X85704294Y-68680886D02*
G75*
G03*
X85704294Y-68680886I-450000J0D01*
G01*
%TO.C,D90*%
X123145401Y-108207279D02*
X119645401Y-108207279D01*
X123145401Y-105407279D02*
X123145401Y-108207279D01*
X120645401Y-105457279D02*
X119695401Y-106557279D01*
X119695401Y-106557279D02*
X119695401Y-105407279D01*
X119695401Y-105407279D02*
X123145401Y-105407279D01*
X119645401Y-108207279D02*
X119695401Y-105457279D01*
X119645401Y-104907279D02*
G75*
G03*
X119645401Y-104907279I-450000J0D01*
G01*
%TO.C,D126*%
X136354294Y-78230886D02*
X132854294Y-78230886D01*
X136354294Y-75430886D02*
X136354294Y-78230886D01*
X133854294Y-75480886D02*
X132904294Y-76580886D01*
X132904294Y-76580886D02*
X132904294Y-75430886D01*
X132904294Y-75430886D02*
X136354294Y-75430886D01*
X132854294Y-78230886D02*
X132904294Y-75480886D01*
X132854294Y-74930886D02*
G75*
G03*
X132854294Y-74930886I-450000J0D01*
G01*
%TO.C,D229*%
X110104294Y-31380886D02*
X106604294Y-31380886D01*
X110104294Y-28580886D02*
X110104294Y-31380886D01*
X107604294Y-28630886D02*
X106654294Y-29730886D01*
X106654294Y-29730886D02*
X106654294Y-28580886D01*
X106654294Y-28580886D02*
X110104294Y-28580886D01*
X106604294Y-31380886D02*
X106654294Y-28630886D01*
X106604294Y-28080886D02*
G75*
G03*
X106604294Y-28080886I-450000J0D01*
G01*
%TO.C,D109*%
X72404294Y-109580886D02*
X68904294Y-109580886D01*
X72404294Y-106780886D02*
X72404294Y-109580886D01*
X69904294Y-106830886D02*
X68954294Y-107930886D01*
X68954294Y-107930886D02*
X68954294Y-106780886D01*
X68954294Y-106780886D02*
X72404294Y-106780886D01*
X68904294Y-109580886D02*
X68954294Y-106830886D01*
X68904294Y-106280886D02*
G75*
G03*
X68904294Y-106280886I-450000J0D01*
G01*
%TO.C,D87*%
X141745401Y-111707279D02*
X138245401Y-111707279D01*
X141745401Y-108907279D02*
X141745401Y-111707279D01*
X139245401Y-108957279D02*
X138295401Y-110057279D01*
X138295401Y-110057279D02*
X138295401Y-108907279D01*
X138295401Y-108907279D02*
X141745401Y-108907279D01*
X138245401Y-111707279D02*
X138295401Y-108957279D01*
X138245401Y-108407279D02*
G75*
G03*
X138245401Y-108407279I-450000J0D01*
G01*
%TO.C,D189*%
X25654294Y8069114D02*
X22154294Y8069114D01*
X25654294Y10869114D02*
X25654294Y8069114D01*
X23154294Y10819114D02*
X22204294Y9719114D01*
X22204294Y9719114D02*
X22204294Y10869114D01*
X22204294Y10869114D02*
X25654294Y10869114D01*
X22154294Y8069114D02*
X22204294Y10819114D01*
X22154294Y11369114D02*
G75*
G03*
X22154294Y11369114I-450000J0D01*
G01*
%TO.C,D24*%
X155245401Y-145007279D02*
X151745401Y-145007279D01*
X155245401Y-142207279D02*
X155245401Y-145007279D01*
X152745401Y-142257279D02*
X151795401Y-143357279D01*
X151795401Y-143357279D02*
X151795401Y-142207279D01*
X151795401Y-142207279D02*
X155245401Y-142207279D01*
X151745401Y-145007279D02*
X151795401Y-142257279D01*
X151745401Y-141707279D02*
G75*
G03*
X151745401Y-141707279I-450000J0D01*
G01*
%TO.C,D256*%
X62204294Y-49680886D02*
X58704294Y-49680886D01*
X62204294Y-46880886D02*
X62204294Y-49680886D01*
X59704294Y-46930886D02*
X58754294Y-48030886D01*
X58754294Y-48030886D02*
X58754294Y-46880886D01*
X58754294Y-46880886D02*
X62204294Y-46880886D01*
X58704294Y-49680886D02*
X58754294Y-46930886D01*
X58704294Y-46380886D02*
G75*
G03*
X58704294Y-46380886I-450000J0D01*
G01*
%TO.C,D207*%
X40154294Y-29030886D02*
X36654294Y-29030886D01*
X40154294Y-26230886D02*
X40154294Y-29030886D01*
X37654294Y-26280886D02*
X36704294Y-27380886D01*
X36704294Y-27380886D02*
X36704294Y-26230886D01*
X36704294Y-26230886D02*
X40154294Y-26230886D01*
X36654294Y-29030886D02*
X36704294Y-26280886D01*
X36654294Y-25730886D02*
G75*
G03*
X36654294Y-25730886I-450000J0D01*
G01*
%TO.C,D95*%
X102154294Y-126330886D02*
X98654294Y-126330886D01*
X102154294Y-123530886D02*
X102154294Y-126330886D01*
X99654294Y-123580886D02*
X98704294Y-124680886D01*
X98704294Y-124680886D02*
X98704294Y-123530886D01*
X98704294Y-123530886D02*
X102154294Y-123530886D01*
X98654294Y-126330886D02*
X98704294Y-123580886D01*
X98654294Y-123030886D02*
G75*
G03*
X98654294Y-123030886I-450000J0D01*
G01*
%TO.C,D106*%
X68445401Y-120607279D02*
X64945401Y-120607279D01*
X68445401Y-117807279D02*
X68445401Y-120607279D01*
X65945401Y-117857279D02*
X64995401Y-118957279D01*
X64995401Y-118957279D02*
X64995401Y-117807279D01*
X64995401Y-117807279D02*
X68445401Y-117807279D01*
X64945401Y-120607279D02*
X64995401Y-117857279D01*
X64945401Y-117307279D02*
G75*
G03*
X64945401Y-117307279I-450000J0D01*
G01*
%TO.C,D208*%
X46845401Y-27854493D02*
X43345401Y-27854493D01*
X46845401Y-25054493D02*
X46845401Y-27854493D01*
X44345401Y-25104493D02*
X43395401Y-26204493D01*
X43395401Y-26204493D02*
X43395401Y-25054493D01*
X43395401Y-25054493D02*
X46845401Y-25054493D01*
X43345401Y-27854493D02*
X43395401Y-25104493D01*
X43345401Y-24554493D02*
G75*
G03*
X43345401Y-24554493I-450000J0D01*
G01*
%TO.C,D205*%
X40554294Y-24030886D02*
X37054294Y-24030886D01*
X40554294Y-21230886D02*
X40554294Y-24030886D01*
X38054294Y-21280886D02*
X37104294Y-22380886D01*
X37104294Y-22380886D02*
X37104294Y-21230886D01*
X37104294Y-21230886D02*
X40554294Y-21230886D01*
X37054294Y-24030886D02*
X37104294Y-21280886D01*
X37054294Y-20730886D02*
G75*
G03*
X37054294Y-20730886I-450000J0D01*
G01*
%TO.C,D77*%
X111904294Y-136980886D02*
X108404294Y-136980886D01*
X111904294Y-134180886D02*
X111904294Y-136980886D01*
X109404294Y-134230886D02*
X108454294Y-135330886D01*
X108454294Y-135330886D02*
X108454294Y-134180886D01*
X108454294Y-134180886D02*
X111904294Y-134180886D01*
X108404294Y-136980886D02*
X108454294Y-134230886D01*
X108404294Y-133680886D02*
G75*
G03*
X108404294Y-133680886I-450000J0D01*
G01*
%TO.C,D215*%
X59904294Y-39780886D02*
X56404294Y-39780886D01*
X59904294Y-36980886D02*
X59904294Y-39780886D01*
X57404294Y-37030886D02*
X56454294Y-38130886D01*
X56454294Y-38130886D02*
X56454294Y-36980886D01*
X56454294Y-36980886D02*
X59904294Y-36980886D01*
X56404294Y-39780886D02*
X56454294Y-37030886D01*
X56404294Y-36480886D02*
G75*
G03*
X56404294Y-36480886I-450000J0D01*
G01*
%TO.C,D19*%
X131604294Y-154680886D02*
X128104294Y-154680886D01*
X131604294Y-151880886D02*
X131604294Y-154680886D01*
X129104294Y-151930886D02*
X128154294Y-153030886D01*
X128154294Y-153030886D02*
X128154294Y-151880886D01*
X128154294Y-151880886D02*
X131604294Y-151880886D01*
X128104294Y-154680886D02*
X128154294Y-151930886D01*
X128104294Y-151380886D02*
G75*
G03*
X128104294Y-151380886I-450000J0D01*
G01*
%TO.C,D168*%
X122654294Y-11830886D02*
X119154294Y-11830886D01*
X122654294Y-9030886D02*
X122654294Y-11830886D01*
X120154294Y-9080886D02*
X119204294Y-10180886D01*
X119204294Y-10180886D02*
X119204294Y-9030886D01*
X119204294Y-9030886D02*
X122654294Y-9030886D01*
X119154294Y-11830886D02*
X119204294Y-9080886D01*
X119154294Y-8530886D02*
G75*
G03*
X119154294Y-8530886I-450000J0D01*
G01*
%TO.C,D49*%
X93354294Y-181530886D02*
X89854294Y-181530886D01*
X93354294Y-178730886D02*
X93354294Y-181530886D01*
X90854294Y-178780886D02*
X89904294Y-179880886D01*
X89904294Y-179880886D02*
X89904294Y-178730886D01*
X89904294Y-178730886D02*
X93354294Y-178730886D01*
X89854294Y-181530886D02*
X89904294Y-178780886D01*
X89854294Y-178230886D02*
G75*
G03*
X89854294Y-178230886I-450000J0D01*
G01*
%TO.C,D52*%
X81454294Y-184730886D02*
X77954294Y-184730886D01*
X81454294Y-181930886D02*
X81454294Y-184730886D01*
X78954294Y-181980886D02*
X78004294Y-183080886D01*
X78004294Y-183080886D02*
X78004294Y-181930886D01*
X78004294Y-181930886D02*
X81454294Y-181930886D01*
X77954294Y-184730886D02*
X78004294Y-181980886D01*
X77954294Y-181430886D02*
G75*
G03*
X77954294Y-181430886I-450000J0D01*
G01*
%TO.C,D186*%
X65804294Y8519114D02*
X62304294Y8519114D01*
X65804294Y11319114D02*
X65804294Y8519114D01*
X63304294Y11269114D02*
X62354294Y10169114D01*
X62354294Y10169114D02*
X62354294Y11319114D01*
X62354294Y11319114D02*
X65804294Y11319114D01*
X62304294Y8519114D02*
X62354294Y11269114D01*
X62304294Y11819114D02*
G75*
G03*
X62304294Y11819114I-450000J0D01*
G01*
%TO.C,D103*%
X68754294Y-133330886D02*
X65254294Y-133330886D01*
X68754294Y-130530886D02*
X68754294Y-133330886D01*
X66254294Y-130580886D02*
X65304294Y-131680886D01*
X65304294Y-131680886D02*
X65304294Y-130530886D01*
X65304294Y-130530886D02*
X68754294Y-130530886D01*
X65254294Y-133330886D02*
X65304294Y-130580886D01*
X65254294Y-130030886D02*
G75*
G03*
X65254294Y-130030886I-450000J0D01*
G01*
%TO.C,D89*%
X129804294Y-108780886D02*
X126304294Y-108780886D01*
X129804294Y-105980886D02*
X129804294Y-108780886D01*
X127304294Y-106030886D02*
X126354294Y-107130886D01*
X126354294Y-107130886D02*
X126354294Y-105980886D01*
X126354294Y-105980886D02*
X129804294Y-105980886D01*
X126304294Y-108780886D02*
X126354294Y-106030886D01*
X126304294Y-105480886D02*
G75*
G03*
X126304294Y-105480886I-450000J0D01*
G01*
%TO.C,D183*%
X71445401Y7292721D02*
X67945401Y7292721D01*
X71445401Y10092721D02*
X71445401Y7292721D01*
X68945401Y10042721D02*
X67995401Y8942721D01*
X67995401Y8942721D02*
X67995401Y10092721D01*
X67995401Y10092721D02*
X71445401Y10092721D01*
X67945401Y7292721D02*
X67995401Y10042721D01*
X67945401Y10592721D02*
G75*
G03*
X67945401Y10592721I-450000J0D01*
G01*
%TO.C,D222*%
X80704294Y-37980886D02*
X77204294Y-37980886D01*
X80704294Y-35180886D02*
X80704294Y-37980886D01*
X78204294Y-35230886D02*
X77254294Y-36330886D01*
X77254294Y-36330886D02*
X77254294Y-35180886D01*
X77254294Y-35180886D02*
X80704294Y-35180886D01*
X77204294Y-37980886D02*
X77254294Y-35230886D01*
X77204294Y-34680886D02*
G75*
G03*
X77204294Y-34680886I-450000J0D01*
G01*
%TO.C,D156*%
X162804294Y-87330886D02*
X159304294Y-87330886D01*
X162804294Y-84530886D02*
X162804294Y-87330886D01*
X160304294Y-84580886D02*
X159354294Y-85680886D01*
X159354294Y-85680886D02*
X159354294Y-84530886D01*
X159354294Y-84530886D02*
X162804294Y-84530886D01*
X159304294Y-87330886D02*
X159354294Y-84580886D01*
X159304294Y-84030886D02*
G75*
G03*
X159304294Y-84030886I-450000J0D01*
G01*
%TO.C,D147*%
X149745401Y-46507279D02*
X146245401Y-46507279D01*
X149745401Y-43707279D02*
X149745401Y-46507279D01*
X147245401Y-43757279D02*
X146295401Y-44857279D01*
X146295401Y-44857279D02*
X146295401Y-43707279D01*
X146295401Y-43707279D02*
X149745401Y-43707279D01*
X146245401Y-46507279D02*
X146295401Y-43757279D01*
X146245401Y-43207279D02*
G75*
G03*
X146245401Y-43207279I-450000J0D01*
G01*
%TO.C,C4*%
X65954294Y-69380886D02*
X62754294Y-69380886D01*
X65954294Y-67780886D02*
X65954294Y-69380886D01*
X62754294Y-69380886D02*
X62754294Y-67780886D01*
X62754294Y-67780886D02*
X65954294Y-67780886D01*
%TO.C,D71*%
X85604294Y-140430886D02*
X82104294Y-140430886D01*
X85604294Y-137630886D02*
X85604294Y-140430886D01*
X83104294Y-137680886D02*
X82154294Y-138780886D01*
X82154294Y-138780886D02*
X82154294Y-137630886D01*
X82154294Y-137630886D02*
X85604294Y-137630886D01*
X82104294Y-140430886D02*
X82154294Y-137680886D01*
X82104294Y-137130886D02*
G75*
G03*
X82104294Y-137130886I-450000J0D01*
G01*
%TO.C,C5*%
X145254294Y-95280886D02*
X142054294Y-95280886D01*
X145254294Y-93680886D02*
X145254294Y-95280886D01*
X142054294Y-95280886D02*
X142054294Y-93680886D01*
X142054294Y-93680886D02*
X145254294Y-93680886D01*
%TO.C,D56*%
X68204294Y-182030886D02*
X64704294Y-182030886D01*
X68204294Y-179230886D02*
X68204294Y-182030886D01*
X65704294Y-179280886D02*
X64754294Y-180380886D01*
X64754294Y-180380886D02*
X64754294Y-179230886D01*
X64754294Y-179230886D02*
X68204294Y-179230886D01*
X64704294Y-182030886D02*
X64754294Y-179280886D01*
X64704294Y-178730886D02*
G75*
G03*
X64704294Y-178730886I-450000J0D01*
G01*
%TO.C,D235*%
X116454294Y-56830886D02*
X112954294Y-56830886D01*
X116454294Y-54030886D02*
X116454294Y-56830886D01*
X113954294Y-54080886D02*
X113004294Y-55180886D01*
X113004294Y-55180886D02*
X113004294Y-54030886D01*
X113004294Y-54030886D02*
X116454294Y-54030886D01*
X112954294Y-56830886D02*
X113004294Y-54080886D01*
X112954294Y-53530886D02*
G75*
G03*
X112954294Y-53530886I-450000J0D01*
G01*
%TO.C,D27*%
X152745401Y-134307279D02*
X149245401Y-134307279D01*
X152745401Y-131507279D02*
X152745401Y-134307279D01*
X150245401Y-131557279D02*
X149295401Y-132657279D01*
X149295401Y-132657279D02*
X149295401Y-131507279D01*
X149295401Y-131507279D02*
X152745401Y-131507279D01*
X149245401Y-134307279D02*
X149295401Y-131557279D01*
X149245401Y-131007279D02*
G75*
G03*
X149245401Y-131007279I-450000J0D01*
G01*
%TO.C,D133*%
X124845401Y-100407279D02*
X121345401Y-100407279D01*
X124845401Y-97607279D02*
X124845401Y-100407279D01*
X122345401Y-97657279D02*
X121395401Y-98757279D01*
X121395401Y-98757279D02*
X121395401Y-97607279D01*
X121395401Y-97607279D02*
X124845401Y-97607279D01*
X121345401Y-100407279D02*
X121395401Y-97657279D01*
X121345401Y-97107279D02*
G75*
G03*
X121345401Y-97107279I-450000J0D01*
G01*
%TO.C,D144*%
X132845401Y-43707279D02*
X129345401Y-43707279D01*
X132845401Y-40907279D02*
X132845401Y-43707279D01*
X130345401Y-40957279D02*
X129395401Y-42057279D01*
X129395401Y-42057279D02*
X129395401Y-40907279D01*
X129395401Y-40907279D02*
X132845401Y-40907279D01*
X129345401Y-43707279D02*
X129395401Y-40957279D01*
X129345401Y-40407279D02*
G75*
G03*
X129345401Y-40407279I-450000J0D01*
G01*
%TO.C,D73*%
X95404294Y-139480886D02*
X91904294Y-139480886D01*
X95404294Y-136680886D02*
X95404294Y-139480886D01*
X92904294Y-136730886D02*
X91954294Y-137830886D01*
X91954294Y-137830886D02*
X91954294Y-136680886D01*
X91954294Y-136680886D02*
X95404294Y-136680886D01*
X91904294Y-139480886D02*
X91954294Y-136730886D01*
X91904294Y-136180886D02*
G75*
G03*
X91904294Y-136180886I-450000J0D01*
G01*
%TO.C,D176*%
X96004294Y-180886D02*
X92504294Y-180886D01*
X96004294Y2619114D02*
X96004294Y-180886D01*
X93504294Y2569114D02*
X92554294Y1469114D01*
X92554294Y1469114D02*
X92554294Y2619114D01*
X92554294Y2619114D02*
X96004294Y2619114D01*
X92504294Y-180886D02*
X92554294Y2569114D01*
X92504294Y3119114D02*
G75*
G03*
X92504294Y3119114I-450000J0D01*
G01*
%TO.C,D254*%
X57254294Y-55030886D02*
X53754294Y-55030886D01*
X57254294Y-52230886D02*
X57254294Y-55030886D01*
X54754294Y-52280886D02*
X53804294Y-53380886D01*
X53804294Y-53380886D02*
X53804294Y-52230886D01*
X53804294Y-52230886D02*
X57254294Y-52230886D01*
X53754294Y-55030886D02*
X53804294Y-52280886D01*
X53754294Y-51730886D02*
G75*
G03*
X53754294Y-51730886I-450000J0D01*
G01*
%TO.C,U2*%
X32579294Y6669114D02*
X31604294Y7644114D01*
X36504294Y6669114D02*
X32579294Y6669114D01*
X31604294Y7644114D02*
X31604294Y10569114D01*
X31604294Y10569114D02*
X36504294Y10569114D01*
X36504294Y10569114D02*
X36504294Y6669114D01*
%TO.C,D174*%
X103254294Y569114D02*
X99754294Y569114D01*
X103254294Y3369114D02*
X103254294Y569114D01*
X100754294Y3319114D02*
X99804294Y2219114D01*
X99804294Y2219114D02*
X99804294Y3369114D01*
X99804294Y3369114D02*
X103254294Y3369114D01*
X99754294Y569114D02*
X99804294Y3319114D01*
X99754294Y3869114D02*
G75*
G03*
X99754294Y3869114I-450000J0D01*
G01*
%TO.C,D97*%
X98904294Y-117780886D02*
X95404294Y-117780886D01*
X98904294Y-114980886D02*
X98904294Y-117780886D01*
X96404294Y-115030886D02*
X95454294Y-116130886D01*
X95454294Y-116130886D02*
X95454294Y-114980886D01*
X95454294Y-114980886D02*
X98904294Y-114980886D01*
X95404294Y-117780886D02*
X95454294Y-115030886D01*
X95404294Y-114480886D02*
G75*
G03*
X95404294Y-114480886I-450000J0D01*
G01*
%TO.C,D6*%
X157145401Y-112707279D02*
X153645401Y-112707279D01*
X157145401Y-109907279D02*
X157145401Y-112707279D01*
X154645401Y-109957279D02*
X153695401Y-111057279D01*
X153695401Y-111057279D02*
X153695401Y-109907279D01*
X153695401Y-109907279D02*
X157145401Y-109907279D01*
X153645401Y-112707279D02*
X153695401Y-109957279D01*
X153645401Y-109407279D02*
G75*
G03*
X153645401Y-109407279I-450000J0D01*
G01*
%TO.C,D146*%
X144304294Y-43180886D02*
X140804294Y-43180886D01*
X144304294Y-40380886D02*
X144304294Y-43180886D01*
X141804294Y-40430886D02*
X140854294Y-41530886D01*
X140854294Y-41530886D02*
X140854294Y-40380886D01*
X140854294Y-40380886D02*
X144304294Y-40380886D01*
X140804294Y-43180886D02*
X140854294Y-40430886D01*
X140804294Y-39880886D02*
G75*
G03*
X140804294Y-39880886I-450000J0D01*
G01*
%TO.C,D67*%
X75204294Y-144680886D02*
X71704294Y-144680886D01*
X75204294Y-141880886D02*
X75204294Y-144680886D01*
X72704294Y-141930886D02*
X71754294Y-143030886D01*
X71754294Y-143030886D02*
X71754294Y-141880886D01*
X71754294Y-141880886D02*
X75204294Y-141880886D01*
X71704294Y-144680886D02*
X71754294Y-141930886D01*
X71704294Y-141380886D02*
G75*
G03*
X71704294Y-141380886I-450000J0D01*
G01*
%TO.C,D150*%
X153504294Y-59280886D02*
X150004294Y-59280886D01*
X153504294Y-56480886D02*
X153504294Y-59280886D01*
X151004294Y-56530886D02*
X150054294Y-57630886D01*
X150054294Y-57630886D02*
X150054294Y-56480886D01*
X150054294Y-56480886D02*
X153504294Y-56480886D01*
X150004294Y-59280886D02*
X150054294Y-56530886D01*
X150004294Y-55980886D02*
G75*
G03*
X150004294Y-55980886I-450000J0D01*
G01*
%TO.C,J14*%
X146884294Y-127475886D02*
X145884294Y-126475886D01*
X161124294Y-127475886D02*
X146884294Y-127475886D01*
X145884294Y-126475886D02*
X145884294Y-121125886D01*
X145884294Y-121125886D02*
X161124294Y-121125886D01*
X161124294Y-121125886D02*
X161124294Y-127475886D01*
%TO.C,D15*%
X125304294Y-137180886D02*
X121804294Y-137180886D01*
X125304294Y-134380886D02*
X125304294Y-137180886D01*
X122804294Y-134430886D02*
X121854294Y-135530886D01*
X121854294Y-135530886D02*
X121854294Y-134380886D01*
X121854294Y-134380886D02*
X125304294Y-134380886D01*
X121804294Y-137180886D02*
X121854294Y-134430886D01*
X121804294Y-133880886D02*
G75*
G03*
X121804294Y-133880886I-450000J0D01*
G01*
%TO.C,D202*%
X34954294Y-22030886D02*
X31454294Y-22030886D01*
X34954294Y-19230886D02*
X34954294Y-22030886D01*
X32454294Y-19280886D02*
X31504294Y-20380886D01*
X31504294Y-20380886D02*
X31504294Y-19230886D01*
X31504294Y-19230886D02*
X34954294Y-19230886D01*
X31454294Y-22030886D02*
X31504294Y-19280886D01*
X31454294Y-18730886D02*
G75*
G03*
X31454294Y-18730886I-450000J0D01*
G01*
%TO.C,D118*%
X104254294Y-71430886D02*
X100754294Y-71430886D01*
X104254294Y-68630886D02*
X104254294Y-71430886D01*
X101754294Y-68680886D02*
X100804294Y-69780886D01*
X100804294Y-69780886D02*
X100804294Y-68630886D01*
X100804294Y-68630886D02*
X104254294Y-68630886D01*
X100754294Y-71430886D02*
X100804294Y-68680886D01*
X100754294Y-68130886D02*
G75*
G03*
X100754294Y-68130886I-450000J0D01*
G01*
%TO.C,D80*%
X110154294Y-154230886D02*
X106654294Y-154230886D01*
X110154294Y-151430886D02*
X110154294Y-154230886D01*
X107654294Y-151480886D02*
X106704294Y-152580886D01*
X106704294Y-152580886D02*
X106704294Y-151430886D01*
X106704294Y-151430886D02*
X110154294Y-151430886D01*
X106654294Y-154230886D02*
X106704294Y-151480886D01*
X106654294Y-150930886D02*
G75*
G03*
X106654294Y-150930886I-450000J0D01*
G01*
%TO.C,D221*%
X75704294Y-38480886D02*
X72204294Y-38480886D01*
X75704294Y-35680886D02*
X75704294Y-38480886D01*
X73204294Y-35730886D02*
X72254294Y-36830886D01*
X72254294Y-36830886D02*
X72254294Y-35680886D01*
X72254294Y-35680886D02*
X75704294Y-35680886D01*
X72204294Y-38480886D02*
X72254294Y-35730886D01*
X72204294Y-35180886D02*
G75*
G03*
X72204294Y-35180886I-450000J0D01*
G01*
%TO.C,D13*%
X133804294Y-127480886D02*
X130304294Y-127480886D01*
X133804294Y-124680886D02*
X133804294Y-127480886D01*
X131304294Y-124730886D02*
X130354294Y-125830886D01*
X130354294Y-125830886D02*
X130354294Y-124680886D01*
X130354294Y-124680886D02*
X133804294Y-124680886D01*
X130304294Y-127480886D02*
X130354294Y-124730886D01*
X130304294Y-124180886D02*
G75*
G03*
X130304294Y-124180886I-450000J0D01*
G01*
%TO.C,D155*%
X162145401Y-82207279D02*
X158645401Y-82207279D01*
X162145401Y-79407279D02*
X162145401Y-82207279D01*
X159645401Y-79457279D02*
X158695401Y-80557279D01*
X158695401Y-80557279D02*
X158695401Y-79407279D01*
X158695401Y-79407279D02*
X162145401Y-79407279D01*
X158645401Y-82207279D02*
X158695401Y-79457279D01*
X158645401Y-78907279D02*
G75*
G03*
X158645401Y-78907279I-450000J0D01*
G01*
%TO.C,D217*%
X60404294Y-46580886D02*
X56904294Y-46580886D01*
X60404294Y-43780886D02*
X60404294Y-46580886D01*
X57904294Y-43830886D02*
X56954294Y-44930886D01*
X56954294Y-44930886D02*
X56954294Y-43780886D01*
X56954294Y-43780886D02*
X60404294Y-43780886D01*
X56904294Y-46580886D02*
X56954294Y-43830886D01*
X56904294Y-43280886D02*
G75*
G03*
X56904294Y-43280886I-450000J0D01*
G01*
%TO.C,D141*%
X125904294Y-57680886D02*
X122404294Y-57680886D01*
X125904294Y-54880886D02*
X125904294Y-57680886D01*
X123404294Y-54930886D02*
X122454294Y-56030886D01*
X122454294Y-56030886D02*
X122454294Y-54880886D01*
X122454294Y-54880886D02*
X125904294Y-54880886D01*
X122404294Y-57680886D02*
X122454294Y-54930886D01*
X122404294Y-54380886D02*
G75*
G03*
X122404294Y-54380886I-450000J0D01*
G01*
%TO.C,D203*%
X42104294Y-20380886D02*
X38604294Y-20380886D01*
X42104294Y-17580886D02*
X42104294Y-20380886D01*
X39604294Y-17630886D02*
X38654294Y-18730886D01*
X38654294Y-18730886D02*
X38654294Y-17580886D01*
X38654294Y-17580886D02*
X42104294Y-17580886D01*
X38604294Y-20380886D02*
X38654294Y-17630886D01*
X38604294Y-17080886D02*
G75*
G03*
X38604294Y-17080886I-450000J0D01*
G01*
%TO.C,D65*%
X72554294Y-150830886D02*
X69054294Y-150830886D01*
X72554294Y-148030886D02*
X72554294Y-150830886D01*
X70054294Y-148080886D02*
X69104294Y-149180886D01*
X69104294Y-149180886D02*
X69104294Y-148030886D01*
X69104294Y-148030886D02*
X72554294Y-148030886D01*
X69054294Y-150830886D02*
X69104294Y-148080886D01*
X69054294Y-147530886D02*
G75*
G03*
X69054294Y-147530886I-450000J0D01*
G01*
%TO.C,D36*%
X132845401Y-175307279D02*
X129345401Y-175307279D01*
X132845401Y-172507279D02*
X132845401Y-175307279D01*
X130345401Y-172557279D02*
X129395401Y-173657279D01*
X129395401Y-173657279D02*
X129395401Y-172507279D01*
X129395401Y-172507279D02*
X132845401Y-172507279D01*
X129345401Y-175307279D02*
X129395401Y-172557279D01*
X129345401Y-172007279D02*
G75*
G03*
X129345401Y-172007279I-450000J0D01*
G01*
%TO.C,D145*%
X138204294Y-41380886D02*
X134704294Y-41380886D01*
X138204294Y-38580886D02*
X138204294Y-41380886D01*
X135704294Y-38630886D02*
X134754294Y-39730886D01*
X134754294Y-39730886D02*
X134754294Y-38580886D01*
X134754294Y-38580886D02*
X138204294Y-38580886D01*
X134704294Y-41380886D02*
X134754294Y-38630886D01*
X134704294Y-38080886D02*
G75*
G03*
X134704294Y-38080886I-450000J0D01*
G01*
%TO.C,D29*%
X149654294Y-158530886D02*
X146154294Y-158530886D01*
X149654294Y-155730886D02*
X149654294Y-158530886D01*
X147154294Y-155780886D02*
X146204294Y-156880886D01*
X146204294Y-156880886D02*
X146204294Y-155730886D01*
X146204294Y-155730886D02*
X149654294Y-155730886D01*
X146154294Y-158530886D02*
X146204294Y-155780886D01*
X146154294Y-155230886D02*
G75*
G03*
X146154294Y-155230886I-450000J0D01*
G01*
%TO.C,D101*%
X80704294Y-134680886D02*
X77204294Y-134680886D01*
X80704294Y-131880886D02*
X80704294Y-134680886D01*
X78204294Y-131930886D02*
X77254294Y-133030886D01*
X77254294Y-133030886D02*
X77254294Y-131880886D01*
X77254294Y-131880886D02*
X80704294Y-131880886D01*
X77204294Y-134680886D02*
X77254294Y-131930886D01*
X77204294Y-131380886D02*
G75*
G03*
X77204294Y-131380886I-450000J0D01*
G01*
%TO.C,D173*%
X103404294Y-4430886D02*
X99904294Y-4430886D01*
X103404294Y-1630886D02*
X103404294Y-4430886D01*
X100904294Y-1680886D02*
X99954294Y-2780886D01*
X99954294Y-2780886D02*
X99954294Y-1630886D01*
X99954294Y-1630886D02*
X103404294Y-1630886D01*
X99904294Y-4430886D02*
X99954294Y-1680886D01*
X99904294Y-1130886D02*
G75*
G03*
X99904294Y-1130886I-450000J0D01*
G01*
%TO.C,D223*%
X85204294Y-37380886D02*
X81704294Y-37380886D01*
X85204294Y-34580886D02*
X85204294Y-37380886D01*
X82704294Y-34630886D02*
X81754294Y-35730886D01*
X81754294Y-35730886D02*
X81754294Y-34580886D01*
X81754294Y-34580886D02*
X85204294Y-34580886D01*
X81704294Y-37380886D02*
X81754294Y-34630886D01*
X81704294Y-34080886D02*
G75*
G03*
X81704294Y-34080886I-450000J0D01*
G01*
%TO.C,D23*%
X151445401Y-149107279D02*
X147945401Y-149107279D01*
X151445401Y-146307279D02*
X151445401Y-149107279D01*
X148945401Y-146357279D02*
X147995401Y-147457279D01*
X147995401Y-147457279D02*
X147995401Y-146307279D01*
X147995401Y-146307279D02*
X151445401Y-146307279D01*
X147945401Y-149107279D02*
X147995401Y-146357279D01*
X147945401Y-145807279D02*
G75*
G03*
X147945401Y-145807279I-450000J0D01*
G01*
%TO.C,D138*%
X140704294Y-64780886D02*
X137204294Y-64780886D01*
X140704294Y-61980886D02*
X140704294Y-64780886D01*
X138204294Y-62030886D02*
X137254294Y-63130886D01*
X137254294Y-63130886D02*
X137254294Y-61980886D01*
X137254294Y-61980886D02*
X140704294Y-61980886D01*
X137204294Y-64780886D02*
X137254294Y-62030886D01*
X137204294Y-61480886D02*
G75*
G03*
X137204294Y-61480886I-450000J0D01*
G01*
%TO.C,D46*%
X101004294Y-178780886D02*
X97504294Y-178780886D01*
X101004294Y-175980886D02*
X101004294Y-178780886D01*
X98504294Y-176030886D02*
X97554294Y-177130886D01*
X97554294Y-177130886D02*
X97554294Y-175980886D01*
X97554294Y-175980886D02*
X101004294Y-175980886D01*
X97504294Y-178780886D02*
X97554294Y-176030886D01*
X97504294Y-175480886D02*
G75*
G03*
X97504294Y-175480886I-450000J0D01*
G01*
%TO.C,D108*%
X71604294Y-113280886D02*
X68104294Y-113280886D01*
X71604294Y-110480886D02*
X71604294Y-113280886D01*
X69104294Y-110530886D02*
X68154294Y-111630886D01*
X68154294Y-111630886D02*
X68154294Y-110480886D01*
X68154294Y-110480886D02*
X71604294Y-110480886D01*
X68104294Y-113280886D02*
X68154294Y-110530886D01*
X68104294Y-109980886D02*
G75*
G03*
X68104294Y-109980886I-450000J0D01*
G01*
%TO.C,D172*%
X109904294Y-2080886D02*
X106404294Y-2080886D01*
X109904294Y719114D02*
X109904294Y-2080886D01*
X107404294Y669114D02*
X106454294Y-430886D01*
X106454294Y-430886D02*
X106454294Y719114D01*
X106454294Y719114D02*
X109904294Y719114D01*
X106404294Y-2080886D02*
X106454294Y669114D01*
X106404294Y1219114D02*
G75*
G03*
X106404294Y1219114I-450000J0D01*
G01*
%TO.C,D166*%
X127245401Y-17107279D02*
X123745401Y-17107279D01*
X127245401Y-14307279D02*
X127245401Y-17107279D01*
X124745401Y-14357279D02*
X123795401Y-15457279D01*
X123795401Y-15457279D02*
X123795401Y-14307279D01*
X123795401Y-14307279D02*
X127245401Y-14307279D01*
X123745401Y-17107279D02*
X123795401Y-14357279D01*
X123745401Y-13807279D02*
G75*
G03*
X123745401Y-13807279I-450000J0D01*
G01*
%TO.C,D132*%
X130045401Y-97407279D02*
X126545401Y-97407279D01*
X130045401Y-94607279D02*
X130045401Y-97407279D01*
X127545401Y-94657279D02*
X126595401Y-95757279D01*
X126595401Y-95757279D02*
X126595401Y-94607279D01*
X126595401Y-94607279D02*
X130045401Y-94607279D01*
X126545401Y-97407279D02*
X126595401Y-94657279D01*
X126545401Y-94107279D02*
G75*
G03*
X126545401Y-94107279I-450000J0D01*
G01*
%TO.C,D55*%
X73704294Y-179180886D02*
X70204294Y-179180886D01*
X73704294Y-176380886D02*
X73704294Y-179180886D01*
X71204294Y-176430886D02*
X70254294Y-177530886D01*
X70254294Y-177530886D02*
X70254294Y-176380886D01*
X70254294Y-176380886D02*
X73704294Y-176380886D01*
X70204294Y-179180886D02*
X70254294Y-176430886D01*
X70204294Y-175880886D02*
G75*
G03*
X70204294Y-175880886I-450000J0D01*
G01*
%TO.C,D211*%
X47245401Y-41007279D02*
X43745401Y-41007279D01*
X47245401Y-38207279D02*
X47245401Y-41007279D01*
X44745401Y-38257279D02*
X43795401Y-39357279D01*
X43795401Y-39357279D02*
X43795401Y-38207279D01*
X43795401Y-38207279D02*
X47245401Y-38207279D01*
X43745401Y-41007279D02*
X43795401Y-38257279D01*
X43745401Y-37707279D02*
G75*
G03*
X43745401Y-37707279I-450000J0D01*
G01*
%TO.C,D50*%
X86304294Y-183280886D02*
X82804294Y-183280886D01*
X86304294Y-180480886D02*
X86304294Y-183280886D01*
X83804294Y-180530886D02*
X82854294Y-181630886D01*
X82854294Y-181630886D02*
X82854294Y-180480886D01*
X82854294Y-180480886D02*
X86304294Y-180480886D01*
X82804294Y-183280886D02*
X82854294Y-180530886D01*
X82804294Y-179980886D02*
G75*
G03*
X82804294Y-179980886I-450000J0D01*
G01*
%TO.C,D214*%
X51904294Y-43680886D02*
X48404294Y-43680886D01*
X51904294Y-40880886D02*
X51904294Y-43680886D01*
X49404294Y-40930886D02*
X48454294Y-42030886D01*
X48454294Y-42030886D02*
X48454294Y-40880886D01*
X48454294Y-40880886D02*
X51904294Y-40880886D01*
X48404294Y-43680886D02*
X48454294Y-40930886D01*
X48404294Y-40380886D02*
G75*
G03*
X48404294Y-40380886I-450000J0D01*
G01*
%TO.C,D60*%
X71545401Y-166607279D02*
X68045401Y-166607279D01*
X71545401Y-163807279D02*
X71545401Y-166607279D01*
X69045401Y-163857279D02*
X68095401Y-164957279D01*
X68095401Y-164957279D02*
X68095401Y-163807279D01*
X68095401Y-163807279D02*
X71545401Y-163807279D01*
X68045401Y-166607279D02*
X68095401Y-163857279D01*
X68045401Y-163307279D02*
G75*
G03*
X68045401Y-163307279I-450000J0D01*
G01*
%TO.C,D231*%
X119245401Y-25107279D02*
X115745401Y-25107279D01*
X119245401Y-22307279D02*
X119245401Y-25107279D01*
X116745401Y-22357279D02*
X115795401Y-23457279D01*
X115795401Y-23457279D02*
X115795401Y-22307279D01*
X115795401Y-22307279D02*
X119245401Y-22307279D01*
X115745401Y-25107279D02*
X115795401Y-22357279D01*
X115745401Y-21807279D02*
G75*
G03*
X115745401Y-21807279I-450000J0D01*
G01*
%TO.C,D179*%
X86545401Y9892721D02*
X83045401Y9892721D01*
X86545401Y12692721D02*
X86545401Y9892721D01*
X84045401Y12642721D02*
X83095401Y11542721D01*
X83095401Y11542721D02*
X83095401Y12692721D01*
X83095401Y12692721D02*
X86545401Y12692721D01*
X83045401Y9892721D02*
X83095401Y12642721D01*
X83045401Y13192721D02*
G75*
G03*
X83045401Y13192721I-450000J0D01*
G01*
%TO.C,D33*%
X143704294Y-170080886D02*
X140204294Y-170080886D01*
X143704294Y-167280886D02*
X143704294Y-170080886D01*
X141204294Y-167330886D02*
X140254294Y-168430886D01*
X140254294Y-168430886D02*
X140254294Y-167280886D01*
X140254294Y-167280886D02*
X143704294Y-167280886D01*
X140204294Y-170080886D02*
X140254294Y-167330886D01*
X140204294Y-166780886D02*
G75*
G03*
X140204294Y-166780886I-450000J0D01*
G01*
%TO.C,D232*%
X109945401Y-40607279D02*
X106445401Y-40607279D01*
X109945401Y-37807279D02*
X109945401Y-40607279D01*
X107445401Y-37857279D02*
X106495401Y-38957279D01*
X106495401Y-38957279D02*
X106495401Y-37807279D01*
X106495401Y-37807279D02*
X109945401Y-37807279D01*
X106445401Y-40607279D02*
X106495401Y-37857279D01*
X106445401Y-37307279D02*
G75*
G03*
X106445401Y-37307279I-450000J0D01*
G01*
%TO.C,D169*%
X117245401Y-13007279D02*
X113745401Y-13007279D01*
X117245401Y-10207279D02*
X117245401Y-13007279D01*
X114745401Y-10257279D02*
X113795401Y-11357279D01*
X113795401Y-11357279D02*
X113795401Y-10207279D01*
X113795401Y-10207279D02*
X117245401Y-10207279D01*
X113745401Y-13007279D02*
X113795401Y-10257279D01*
X113745401Y-9707279D02*
G75*
G03*
X113745401Y-9707279I-450000J0D01*
G01*
%TO.C,U3*%
X161054294Y-92230886D02*
X160654294Y-92630886D01*
X161054294Y-89730886D02*
X161054294Y-92230886D01*
X160654294Y-92630886D02*
X159454294Y-92630886D01*
X159454294Y-92630886D02*
X159454294Y-89730886D01*
X159454294Y-89730886D02*
X161054294Y-89730886D01*
%TO.C,D212*%
X51704294Y-37280886D02*
X48204294Y-37280886D01*
X51704294Y-34480886D02*
X51704294Y-37280886D01*
X49204294Y-34530886D02*
X48254294Y-35630886D01*
X48254294Y-35630886D02*
X48254294Y-34480886D01*
X48254294Y-34480886D02*
X51704294Y-34480886D01*
X48204294Y-37280886D02*
X48254294Y-34530886D01*
X48204294Y-33980886D02*
G75*
G03*
X48204294Y-33980886I-450000J0D01*
G01*
%TO.C,D224*%
X89904294Y-38080886D02*
X86404294Y-38080886D01*
X89904294Y-35280886D02*
X89904294Y-38080886D01*
X87404294Y-35330886D02*
X86454294Y-36430886D01*
X86454294Y-36430886D02*
X86454294Y-35280886D01*
X86454294Y-35280886D02*
X89904294Y-35280886D01*
X86404294Y-38080886D02*
X86454294Y-35330886D01*
X86404294Y-34780886D02*
G75*
G03*
X86404294Y-34780886I-450000J0D01*
G01*
%TO.C,D5*%
X162845401Y-115407279D02*
X159345401Y-115407279D01*
X162845401Y-112607279D02*
X162845401Y-115407279D01*
X160345401Y-112657279D02*
X159395401Y-113757279D01*
X159395401Y-113757279D02*
X159395401Y-112607279D01*
X159395401Y-112607279D02*
X162845401Y-112607279D01*
X159345401Y-115407279D02*
X159395401Y-112657279D01*
X159345401Y-112107279D02*
G75*
G03*
X159345401Y-112107279I-450000J0D01*
G01*
%TO.C,D201*%
X35254294Y-17930886D02*
X31754294Y-17930886D01*
X35254294Y-15130886D02*
X35254294Y-17930886D01*
X32754294Y-15180886D02*
X31804294Y-16280886D01*
X31804294Y-16280886D02*
X31804294Y-15130886D01*
X31804294Y-15130886D02*
X35254294Y-15130886D01*
X31754294Y-17930886D02*
X31804294Y-15180886D01*
X31754294Y-14630886D02*
G75*
G03*
X31754294Y-14630886I-450000J0D01*
G01*
%TO.C,D43*%
X106204294Y-179480886D02*
X102704294Y-179480886D01*
X106204294Y-176680886D02*
X106204294Y-179480886D01*
X103704294Y-176730886D02*
X102754294Y-177830886D01*
X102754294Y-177830886D02*
X102754294Y-176680886D01*
X102754294Y-176680886D02*
X106204294Y-176680886D01*
X102704294Y-179480886D02*
X102754294Y-176730886D01*
X102704294Y-176180886D02*
G75*
G03*
X102704294Y-176180886I-450000J0D01*
G01*
%TO.C,D160*%
X133945401Y-30407279D02*
X130445401Y-30407279D01*
X133945401Y-27607279D02*
X133945401Y-30407279D01*
X131445401Y-27657279D02*
X130495401Y-28757279D01*
X130495401Y-28757279D02*
X130495401Y-27607279D01*
X130495401Y-27607279D02*
X133945401Y-27607279D01*
X130445401Y-30407279D02*
X130495401Y-27657279D01*
X130445401Y-27107279D02*
G75*
G03*
X130445401Y-27107279I-450000J0D01*
G01*
%TO.C,D175*%
X98004294Y4619114D02*
X94504294Y4619114D01*
X98004294Y7419114D02*
X98004294Y4619114D01*
X95504294Y7369114D02*
X94554294Y6269114D01*
X94554294Y6269114D02*
X94554294Y7419114D01*
X94554294Y7419114D02*
X98004294Y7419114D01*
X94504294Y4619114D02*
X94554294Y7369114D01*
X94504294Y7919114D02*
G75*
G03*
X94504294Y7919114I-450000J0D01*
G01*
%TO.C,D234*%
X113304294Y-50880886D02*
X109804294Y-50880886D01*
X113304294Y-48080886D02*
X113304294Y-50880886D01*
X110804294Y-48130886D02*
X109854294Y-49230886D01*
X109854294Y-49230886D02*
X109854294Y-48080886D01*
X109854294Y-48080886D02*
X113304294Y-48080886D01*
X109804294Y-50880886D02*
X109854294Y-48130886D01*
X109804294Y-47580886D02*
G75*
G03*
X109804294Y-47580886I-450000J0D01*
G01*
%TO.C,D114*%
X73804294Y-89980886D02*
X70304294Y-89980886D01*
X73804294Y-87180886D02*
X73804294Y-89980886D01*
X71304294Y-87230886D02*
X70354294Y-88330886D01*
X70354294Y-88330886D02*
X70354294Y-87180886D01*
X70354294Y-87180886D02*
X73804294Y-87180886D01*
X70304294Y-89980886D02*
X70354294Y-87230886D01*
X70304294Y-86680886D02*
G75*
G03*
X70304294Y-86680886I-450000J0D01*
G01*
%TO.C,D151*%
X157704294Y-63080886D02*
X154204294Y-63080886D01*
X157704294Y-60280886D02*
X157704294Y-63080886D01*
X155204294Y-60330886D02*
X154254294Y-61430886D01*
X154254294Y-61430886D02*
X154254294Y-60280886D01*
X154254294Y-60280886D02*
X157704294Y-60280886D01*
X154204294Y-63080886D02*
X154254294Y-60330886D01*
X154204294Y-59780886D02*
G75*
G03*
X154204294Y-59780886I-450000J0D01*
G01*
%TO.C,D140*%
X120504294Y-62280886D02*
X117004294Y-62280886D01*
X120504294Y-59480886D02*
X120504294Y-62280886D01*
X118004294Y-59530886D02*
X117054294Y-60630886D01*
X117054294Y-60630886D02*
X117054294Y-59480886D01*
X117054294Y-59480886D02*
X120504294Y-59480886D01*
X117004294Y-62280886D02*
X117054294Y-59530886D01*
X117004294Y-58980886D02*
G75*
G03*
X117004294Y-58980886I-450000J0D01*
G01*
%TO.C,D180*%
X83204294Y4269114D02*
X79704294Y4269114D01*
X83204294Y7069114D02*
X83204294Y4269114D01*
X80704294Y7019114D02*
X79754294Y5919114D01*
X79754294Y5919114D02*
X79754294Y7069114D01*
X79754294Y7069114D02*
X83204294Y7069114D01*
X79704294Y4269114D02*
X79754294Y7019114D01*
X79704294Y7569114D02*
G75*
G03*
X79704294Y7569114I-450000J0D01*
G01*
%TO.C,D149*%
X153945401Y-54307279D02*
X150445401Y-54307279D01*
X153945401Y-51507279D02*
X153945401Y-54307279D01*
X151445401Y-51557279D02*
X150495401Y-52657279D01*
X150495401Y-52657279D02*
X150495401Y-51507279D01*
X150495401Y-51507279D02*
X153945401Y-51507279D01*
X150445401Y-54307279D02*
X150495401Y-51557279D01*
X150445401Y-51007279D02*
G75*
G03*
X150445401Y-51007279I-450000J0D01*
G01*
%TO.C,D16*%
X124804294Y-142280886D02*
X121304294Y-142280886D01*
X124804294Y-139480886D02*
X124804294Y-142280886D01*
X122304294Y-139530886D02*
X121354294Y-140630886D01*
X121354294Y-140630886D02*
X121354294Y-139480886D01*
X121354294Y-139480886D02*
X124804294Y-139480886D01*
X121304294Y-142280886D02*
X121354294Y-139530886D01*
X121304294Y-138980886D02*
G75*
G03*
X121304294Y-138980886I-450000J0D01*
G01*
%TO.C,D122*%
X121904294Y-72780886D02*
X118404294Y-72780886D01*
X121904294Y-69980886D02*
X121904294Y-72780886D01*
X119404294Y-70030886D02*
X118454294Y-71130886D01*
X118454294Y-71130886D02*
X118454294Y-69980886D01*
X118454294Y-69980886D02*
X121904294Y-69980886D01*
X118404294Y-72780886D02*
X118454294Y-70030886D01*
X118404294Y-69480886D02*
G75*
G03*
X118404294Y-69480886I-450000J0D01*
G01*
%TO.C,D255*%
X57954294Y-51430886D02*
X54454294Y-51430886D01*
X57954294Y-48630886D02*
X57954294Y-51430886D01*
X55454294Y-48680886D02*
X54504294Y-49780886D01*
X54504294Y-49780886D02*
X54504294Y-48630886D01*
X54504294Y-48630886D02*
X57954294Y-48630886D01*
X54454294Y-51430886D02*
X54504294Y-48680886D01*
X54454294Y-48130886D02*
G75*
G03*
X54454294Y-48130886I-450000J0D01*
G01*
%TO.C,D157*%
X144704294Y-37980886D02*
X141204294Y-37980886D01*
X144704294Y-35180886D02*
X144704294Y-37980886D01*
X142204294Y-35230886D02*
X141254294Y-36330886D01*
X141254294Y-36330886D02*
X141254294Y-35180886D01*
X141254294Y-35180886D02*
X144704294Y-35180886D01*
X141204294Y-37980886D02*
X141254294Y-35230886D01*
X141204294Y-34680886D02*
G75*
G03*
X141204294Y-34680886I-450000J0D01*
G01*
%TO.C,D91*%
X116904294Y-108880886D02*
X113404294Y-108880886D01*
X116904294Y-106080886D02*
X116904294Y-108880886D01*
X114404294Y-106130886D02*
X113454294Y-107230886D01*
X113454294Y-107230886D02*
X113454294Y-106080886D01*
X113454294Y-106080886D02*
X116904294Y-106080886D01*
X113404294Y-108880886D02*
X113454294Y-106130886D01*
X113404294Y-105580886D02*
G75*
G03*
X113404294Y-105580886I-450000J0D01*
G01*
%TO.C,D58*%
X71245401Y-173207279D02*
X67745401Y-173207279D01*
X71245401Y-170407279D02*
X71245401Y-173207279D01*
X68745401Y-170457279D02*
X67795401Y-171557279D01*
X67795401Y-171557279D02*
X67795401Y-170407279D01*
X67795401Y-170407279D02*
X71245401Y-170407279D01*
X67745401Y-173207279D02*
X67795401Y-170457279D01*
X67745401Y-169907279D02*
G75*
G03*
X67745401Y-169907279I-450000J0D01*
G01*
%TO.C,D104*%
X69045401Y-128807279D02*
X65545401Y-128807279D01*
X69045401Y-126007279D02*
X69045401Y-128807279D01*
X66545401Y-126057279D02*
X65595401Y-127157279D01*
X65595401Y-127157279D02*
X65595401Y-126007279D01*
X65595401Y-126007279D02*
X69045401Y-126007279D01*
X65545401Y-128807279D02*
X65595401Y-126057279D01*
X65545401Y-125507279D02*
G75*
G03*
X65545401Y-125507279I-450000J0D01*
G01*
%TO.C,D41*%
X115604294Y-183480886D02*
X112104294Y-183480886D01*
X115604294Y-180680886D02*
X115604294Y-183480886D01*
X113104294Y-180730886D02*
X112154294Y-181830886D01*
X112154294Y-181830886D02*
X112154294Y-180680886D01*
X112154294Y-180680886D02*
X115604294Y-180680886D01*
X112104294Y-183480886D02*
X112154294Y-180730886D01*
X112104294Y-180180886D02*
G75*
G03*
X112104294Y-180180886I-450000J0D01*
G01*
%TO.C,D51*%
X84404294Y-178580886D02*
X80904294Y-178580886D01*
X84404294Y-175780886D02*
X84404294Y-178580886D01*
X81904294Y-175830886D02*
X80954294Y-176930886D01*
X80954294Y-176930886D02*
X80954294Y-175780886D01*
X80954294Y-175780886D02*
X84404294Y-175780886D01*
X80904294Y-178580886D02*
X80954294Y-175830886D01*
X80904294Y-175280886D02*
G75*
G03*
X80904294Y-175280886I-450000J0D01*
G01*
%TO.C,D40*%
X117604294Y-179680886D02*
X114104294Y-179680886D01*
X117604294Y-176880886D02*
X117604294Y-179680886D01*
X115104294Y-176930886D02*
X114154294Y-178030886D01*
X114154294Y-178030886D02*
X114154294Y-176880886D01*
X114154294Y-176880886D02*
X117604294Y-176880886D01*
X114104294Y-179680886D02*
X114154294Y-176930886D01*
X114104294Y-176380886D02*
G75*
G03*
X114104294Y-176380886I-450000J0D01*
G01*
%TO.C,D117*%
X84004294Y-79880886D02*
X80504294Y-79880886D01*
X84004294Y-77080886D02*
X84004294Y-79880886D01*
X81504294Y-77130886D02*
X80554294Y-78230886D01*
X80554294Y-78230886D02*
X80554294Y-77080886D01*
X80554294Y-77080886D02*
X84004294Y-77080886D01*
X80504294Y-79880886D02*
X80554294Y-77130886D01*
X80504294Y-76580886D02*
G75*
G03*
X80504294Y-76580886I-450000J0D01*
G01*
%TO.C,D142*%
X127004294Y-52930886D02*
X123504294Y-52930886D01*
X127004294Y-50130886D02*
X127004294Y-52930886D01*
X124504294Y-50180886D02*
X123554294Y-51280886D01*
X123554294Y-51280886D02*
X123554294Y-50130886D01*
X123554294Y-50130886D02*
X127004294Y-50130886D01*
X123504294Y-52930886D02*
X123554294Y-50180886D01*
X123504294Y-49630886D02*
G75*
G03*
X123504294Y-49630886I-450000J0D01*
G01*
%TO.C,D218*%
X64804294Y-44380886D02*
X61304294Y-44380886D01*
X64804294Y-41580886D02*
X64804294Y-44380886D01*
X62304294Y-41630886D02*
X61354294Y-42730886D01*
X61354294Y-42730886D02*
X61354294Y-41580886D01*
X61354294Y-41580886D02*
X64804294Y-41580886D01*
X61304294Y-44380886D02*
X61354294Y-41630886D01*
X61304294Y-41080886D02*
G75*
G03*
X61304294Y-41080886I-450000J0D01*
G01*
%TO.C,D42*%
X111845401Y-179007279D02*
X108345401Y-179007279D01*
X111845401Y-176207279D02*
X111845401Y-179007279D01*
X109345401Y-176257279D02*
X108395401Y-177357279D01*
X108395401Y-177357279D02*
X108395401Y-176207279D01*
X108395401Y-176207279D02*
X111845401Y-176207279D01*
X108345401Y-179007279D02*
X108395401Y-176257279D01*
X108345401Y-175707279D02*
G75*
G03*
X108345401Y-175707279I-450000J0D01*
G01*
%TO.C,D161*%
X137545401Y-26507279D02*
X134045401Y-26507279D01*
X137545401Y-23707279D02*
X137545401Y-26507279D01*
X135045401Y-23757279D02*
X134095401Y-24857279D01*
X134095401Y-24857279D02*
X134095401Y-23707279D01*
X134095401Y-23707279D02*
X137545401Y-23707279D01*
X134045401Y-26507279D02*
X134095401Y-23757279D01*
X134045401Y-23207279D02*
G75*
G03*
X134045401Y-23207279I-450000J0D01*
G01*
%TO.C,C2*%
X37904294Y9219114D02*
X37904294Y8219114D01*
X37404294Y9219114D02*
X37904294Y9219114D01*
X37904294Y8219114D02*
X37404294Y8219114D01*
X37404294Y8219114D02*
X37404294Y9219114D01*
%TO.C,D194*%
X30254294Y-5830886D02*
X26754294Y-5830886D01*
X30254294Y-3030886D02*
X30254294Y-5830886D01*
X27754294Y-3080886D02*
X26804294Y-4180886D01*
X26804294Y-4180886D02*
X26804294Y-3030886D01*
X26804294Y-3030886D02*
X30254294Y-3030886D01*
X26754294Y-5830886D02*
X26804294Y-3080886D01*
X26754294Y-2530886D02*
G75*
G03*
X26754294Y-2530886I-450000J0D01*
G01*
%TO.C,D188*%
X28204294Y3619114D02*
X24704294Y3619114D01*
X28204294Y6419114D02*
X28204294Y3619114D01*
X25704294Y6369114D02*
X24754294Y5269114D01*
X24754294Y5269114D02*
X24754294Y6419114D01*
X24754294Y6419114D02*
X28204294Y6419114D01*
X24704294Y3619114D02*
X24754294Y6369114D01*
X24704294Y6919114D02*
G75*
G03*
X24704294Y6919114I-450000J0D01*
G01*
%TO.C,D83*%
X105545401Y-169307279D02*
X102045401Y-169307279D01*
X105545401Y-166507279D02*
X105545401Y-169307279D01*
X103045401Y-166557279D02*
X102095401Y-167657279D01*
X102095401Y-167657279D02*
X102095401Y-166507279D01*
X102095401Y-166507279D02*
X105545401Y-166507279D01*
X102045401Y-169307279D02*
X102095401Y-166557279D01*
X102045401Y-166007279D02*
G75*
G03*
X102045401Y-166007279I-450000J0D01*
G01*
%TO.C,D184*%
X72704294Y12019114D02*
X69204294Y12019114D01*
X72704294Y14819114D02*
X72704294Y12019114D01*
X70204294Y14769114D02*
X69254294Y13669114D01*
X69254294Y13669114D02*
X69254294Y14819114D01*
X69254294Y14819114D02*
X72704294Y14819114D01*
X69204294Y12019114D02*
X69254294Y14769114D01*
X69204294Y15319114D02*
G75*
G03*
X69204294Y15319114I-450000J0D01*
G01*
%TO.C,D1*%
X162745401Y-101507279D02*
X159245401Y-101507279D01*
X162745401Y-98707279D02*
X162745401Y-101507279D01*
X160245401Y-98757279D02*
X159295401Y-99857279D01*
X159295401Y-99857279D02*
X159295401Y-98707279D01*
X159295401Y-98707279D02*
X162745401Y-98707279D01*
X159245401Y-101507279D02*
X159295401Y-98757279D01*
X159245401Y-98207279D02*
G75*
G03*
X159245401Y-98207279I-450000J0D01*
G01*
%TO.C,C7*%
X69085018Y-137788771D02*
X66822277Y-135526030D01*
X70216389Y-136657400D02*
X69085018Y-137788771D01*
X66822277Y-135526030D02*
X67953648Y-134394659D01*
X67953648Y-134394659D02*
X70216389Y-136657400D01*
%TO.C,D130*%
X157045401Y-99607279D02*
X153545401Y-99607279D01*
X157045401Y-96807279D02*
X157045401Y-99607279D01*
X154545401Y-96857279D02*
X153595401Y-97957279D01*
X153595401Y-97957279D02*
X153595401Y-96807279D01*
X153595401Y-96807279D02*
X157045401Y-96807279D01*
X153545401Y-99607279D02*
X153595401Y-96857279D01*
X153545401Y-96307279D02*
G75*
G03*
X153545401Y-96307279I-450000J0D01*
G01*
%TO.C,D200*%
X36054294Y-13930886D02*
X32554294Y-13930886D01*
X36054294Y-11130886D02*
X36054294Y-13930886D01*
X33554294Y-11180886D02*
X32604294Y-12280886D01*
X32604294Y-12280886D02*
X32604294Y-11130886D01*
X32604294Y-11130886D02*
X36054294Y-11130886D01*
X32554294Y-13930886D02*
X32604294Y-11180886D01*
X32554294Y-10630886D02*
G75*
G03*
X32554294Y-10630886I-450000J0D01*
G01*
%TO.C,D35*%
X139245401Y-175907279D02*
X135745401Y-175907279D01*
X139245401Y-173107279D02*
X139245401Y-175907279D01*
X136745401Y-173157279D02*
X135795401Y-174257279D01*
X135795401Y-174257279D02*
X135795401Y-173107279D01*
X135795401Y-173107279D02*
X139245401Y-173107279D01*
X135745401Y-175907279D02*
X135795401Y-173157279D01*
X135745401Y-172607279D02*
G75*
G03*
X135745401Y-172607279I-450000J0D01*
G01*
%TO.C,D236*%
X100004294Y-68580886D02*
X96504294Y-68580886D01*
X100004294Y-65780886D02*
X100004294Y-68580886D01*
X97504294Y-65830886D02*
X96554294Y-66930886D01*
X96554294Y-66930886D02*
X96554294Y-65780886D01*
X96554294Y-65780886D02*
X100004294Y-65780886D01*
X96504294Y-68580886D02*
X96554294Y-65830886D01*
X96504294Y-65280886D02*
G75*
G03*
X96504294Y-65280886I-450000J0D01*
G01*
%TO.C,D7*%
X158604294Y-116880886D02*
X155104294Y-116880886D01*
X158604294Y-114080886D02*
X158604294Y-116880886D01*
X156104294Y-114130886D02*
X155154294Y-115230886D01*
X155154294Y-115230886D02*
X155154294Y-114080886D01*
X155154294Y-114080886D02*
X158604294Y-114080886D01*
X155104294Y-116880886D02*
X155154294Y-114130886D01*
X155104294Y-113580886D02*
G75*
G03*
X155104294Y-113580886I-450000J0D01*
G01*
%TO.C,D143*%
X128845401Y-48007279D02*
X125345401Y-48007279D01*
X128845401Y-45207279D02*
X128845401Y-48007279D01*
X126345401Y-45257279D02*
X125395401Y-46357279D01*
X125395401Y-46357279D02*
X125395401Y-45207279D01*
X125395401Y-45207279D02*
X128845401Y-45207279D01*
X125345401Y-48007279D02*
X125395401Y-45257279D01*
X125345401Y-44707279D02*
G75*
G03*
X125345401Y-44707279I-450000J0D01*
G01*
%TO.C,D18*%
X127104294Y-151480886D02*
X123604294Y-151480886D01*
X127104294Y-148680886D02*
X127104294Y-151480886D01*
X124604294Y-148730886D02*
X123654294Y-149830886D01*
X123654294Y-149830886D02*
X123654294Y-148680886D01*
X123654294Y-148680886D02*
X127104294Y-148680886D01*
X123604294Y-151480886D02*
X123654294Y-148730886D01*
X123604294Y-148180886D02*
G75*
G03*
X123604294Y-148180886I-450000J0D01*
G01*
%TO.C,D110*%
X70904294Y-105780886D02*
X67404294Y-105780886D01*
X70904294Y-102980886D02*
X70904294Y-105780886D01*
X68404294Y-103030886D02*
X67454294Y-104130886D01*
X67454294Y-104130886D02*
X67454294Y-102980886D01*
X67454294Y-102980886D02*
X70904294Y-102980886D01*
X67404294Y-105780886D02*
X67454294Y-103030886D01*
X67404294Y-102480886D02*
G75*
G03*
X67404294Y-102480886I-450000J0D01*
G01*
%TO.C,D178*%
X89204294Y2219114D02*
X85704294Y2219114D01*
X89204294Y5019114D02*
X89204294Y2219114D01*
X86704294Y4969114D02*
X85754294Y3869114D01*
X85754294Y3869114D02*
X85754294Y5019114D01*
X85754294Y5019114D02*
X89204294Y5019114D01*
X85704294Y2219114D02*
X85754294Y4969114D01*
X85704294Y5519114D02*
G75*
G03*
X85704294Y5519114I-450000J0D01*
G01*
%TO.C,D127*%
X138604294Y-82180886D02*
X135104294Y-82180886D01*
X138604294Y-79380886D02*
X138604294Y-82180886D01*
X136104294Y-79430886D02*
X135154294Y-80530886D01*
X135154294Y-80530886D02*
X135154294Y-79380886D01*
X135154294Y-79380886D02*
X138604294Y-79380886D01*
X135104294Y-82180886D02*
X135154294Y-79430886D01*
X135104294Y-78880886D02*
G75*
G03*
X135104294Y-78880886I-450000J0D01*
G01*
%TO.C,D112*%
X70304294Y-97330886D02*
X66804294Y-97330886D01*
X70304294Y-94530886D02*
X70304294Y-97330886D01*
X67804294Y-94580886D02*
X66854294Y-95680886D01*
X66854294Y-95680886D02*
X66854294Y-94530886D01*
X66854294Y-94530886D02*
X70304294Y-94530886D01*
X66804294Y-97330886D02*
X66854294Y-94580886D01*
X66804294Y-94030886D02*
G75*
G03*
X66804294Y-94030886I-450000J0D01*
G01*
%TO.C,C10*%
X57219333Y7908285D02*
X55619333Y7908285D01*
X57219333Y8708285D02*
X57219333Y7908285D01*
X55619333Y7908285D02*
X55619333Y8708285D01*
X55619333Y8708285D02*
X57219333Y8708285D01*
%TO.C,D25*%
X157145401Y-140807279D02*
X153645401Y-140807279D01*
X157145401Y-138007279D02*
X157145401Y-140807279D01*
X154645401Y-138057279D02*
X153695401Y-139157279D01*
X153695401Y-139157279D02*
X153695401Y-138007279D01*
X153695401Y-138007279D02*
X157145401Y-138007279D01*
X153645401Y-140807279D02*
X153695401Y-138057279D01*
X153645401Y-137507279D02*
G75*
G03*
X153645401Y-137507279I-450000J0D01*
G01*
%TO.C,D99*%
X88945401Y-125707279D02*
X85445401Y-125707279D01*
X88945401Y-122907279D02*
X88945401Y-125707279D01*
X86445401Y-122957279D02*
X85495401Y-124057279D01*
X85495401Y-124057279D02*
X85495401Y-122907279D01*
X85495401Y-122907279D02*
X88945401Y-122907279D01*
X85445401Y-125707279D02*
X85495401Y-122957279D01*
X85445401Y-122407279D02*
G75*
G03*
X85445401Y-122407279I-450000J0D01*
G01*
%TO.C,D131*%
X151454294Y-97530886D02*
X147954294Y-97530886D01*
X151454294Y-94730886D02*
X151454294Y-97530886D01*
X148954294Y-94780886D02*
X148004294Y-95880886D01*
X148004294Y-95880886D02*
X148004294Y-94730886D01*
X148004294Y-94730886D02*
X151454294Y-94730886D01*
X147954294Y-97530886D02*
X148004294Y-94780886D01*
X147954294Y-94230886D02*
G75*
G03*
X147954294Y-94230886I-450000J0D01*
G01*
%TO.C,D111*%
X70604294Y-101680886D02*
X67104294Y-101680886D01*
X70604294Y-98880886D02*
X70604294Y-101680886D01*
X68104294Y-98930886D02*
X67154294Y-100030886D01*
X67154294Y-100030886D02*
X67154294Y-98880886D01*
X67154294Y-98880886D02*
X70604294Y-98880886D01*
X67104294Y-101680886D02*
X67154294Y-98930886D01*
X67104294Y-98380886D02*
G75*
G03*
X67104294Y-98380886I-450000J0D01*
G01*
%TO.C,D148*%
X149304294Y-51280886D02*
X145804294Y-51280886D01*
X149304294Y-48480886D02*
X149304294Y-51280886D01*
X146804294Y-48530886D02*
X145854294Y-49630886D01*
X145854294Y-49630886D02*
X145854294Y-48480886D01*
X145854294Y-48480886D02*
X149304294Y-48480886D01*
X145804294Y-51280886D02*
X145854294Y-48530886D01*
X145804294Y-47980886D02*
G75*
G03*
X145804294Y-47980886I-450000J0D01*
G01*
%TO.C,D75*%
X104145401Y-142007279D02*
X100645401Y-142007279D01*
X104145401Y-139207279D02*
X104145401Y-142007279D01*
X101645401Y-139257279D02*
X100695401Y-140357279D01*
X100695401Y-140357279D02*
X100695401Y-139207279D01*
X100695401Y-139207279D02*
X104145401Y-139207279D01*
X100645401Y-142007279D02*
X100695401Y-139257279D01*
X100645401Y-138707279D02*
G75*
G03*
X100645401Y-138707279I-450000J0D01*
G01*
%TO.C,D38*%
X125904294Y-179180886D02*
X122404294Y-179180886D01*
X125904294Y-176380886D02*
X125904294Y-179180886D01*
X123404294Y-176430886D02*
X122454294Y-177530886D01*
X122454294Y-177530886D02*
X122454294Y-176380886D01*
X122454294Y-176380886D02*
X125904294Y-176380886D01*
X122404294Y-179180886D02*
X122454294Y-176430886D01*
X122404294Y-175880886D02*
G75*
G03*
X122404294Y-175880886I-450000J0D01*
G01*
%TO.C,C9*%
X57219333Y9808285D02*
X55619333Y9808285D01*
X57219333Y10608285D02*
X57219333Y9808285D01*
X55619333Y9808285D02*
X55619333Y10608285D01*
X55619333Y10608285D02*
X57219333Y10608285D01*
%TO.C,D191*%
X21745401Y269114D02*
X18245401Y269114D01*
X21745401Y3069114D02*
X21745401Y269114D01*
X19245401Y3019114D02*
X18295401Y1919114D01*
X18295401Y1919114D02*
X18295401Y3069114D01*
X18295401Y3069114D02*
X21745401Y3069114D01*
X18245401Y269114D02*
X18295401Y3019114D01*
X18245401Y3569114D02*
G75*
G03*
X18245401Y3569114I-450000J0D01*
G01*
%TO.C,D64*%
X75045401Y-154707279D02*
X71545401Y-154707279D01*
X75045401Y-151907279D02*
X75045401Y-154707279D01*
X72545401Y-151957279D02*
X71595401Y-153057279D01*
X71595401Y-153057279D02*
X71595401Y-151907279D01*
X71595401Y-151907279D02*
X75045401Y-151907279D01*
X71545401Y-154707279D02*
X71595401Y-151957279D01*
X71545401Y-151407279D02*
G75*
G03*
X71545401Y-151407279I-450000J0D01*
G01*
%TO.C,D225*%
X94804294Y-38580886D02*
X91304294Y-38580886D01*
X94804294Y-35780886D02*
X94804294Y-38580886D01*
X92304294Y-35830886D02*
X91354294Y-36930886D01*
X91354294Y-36930886D02*
X91354294Y-35780886D01*
X91354294Y-35780886D02*
X94804294Y-35780886D01*
X91304294Y-38580886D02*
X91354294Y-35830886D01*
X91304294Y-35280886D02*
G75*
G03*
X91304294Y-35280886I-450000J0D01*
G01*
%TO.C,D181*%
X79254294Y10869114D02*
X75754294Y10869114D01*
X79254294Y13669114D02*
X79254294Y10869114D01*
X76754294Y13619114D02*
X75804294Y12519114D01*
X75804294Y12519114D02*
X75804294Y13669114D01*
X75804294Y13669114D02*
X79254294Y13669114D01*
X75754294Y10869114D02*
X75804294Y13619114D01*
X75754294Y14169114D02*
G75*
G03*
X75754294Y14169114I-450000J0D01*
G01*
%TO.C,D204*%
X47145401Y-21954493D02*
X43645401Y-21954493D01*
X47145401Y-19154493D02*
X47145401Y-21954493D01*
X44645401Y-19204493D02*
X43695401Y-20304493D01*
X43695401Y-20304493D02*
X43695401Y-19154493D01*
X43695401Y-19154493D02*
X47145401Y-19154493D01*
X43645401Y-21954493D02*
X43695401Y-19204493D01*
X43645401Y-18654493D02*
G75*
G03*
X43645401Y-18654493I-450000J0D01*
G01*
%TO.C,D32*%
X141254294Y-166630886D02*
X137754294Y-166630886D01*
X141254294Y-163830886D02*
X141254294Y-166630886D01*
X138754294Y-163880886D02*
X137804294Y-164980886D01*
X137804294Y-164980886D02*
X137804294Y-163830886D01*
X137804294Y-163830886D02*
X141254294Y-163830886D01*
X137754294Y-166630886D02*
X137804294Y-163880886D01*
X137754294Y-163330886D02*
G75*
G03*
X137754294Y-163330886I-450000J0D01*
G01*
%TO.C,D69*%
X75554294Y-140130886D02*
X72054294Y-140130886D01*
X75554294Y-137330886D02*
X75554294Y-140130886D01*
X73054294Y-137380886D02*
X72104294Y-138480886D01*
X72104294Y-138480886D02*
X72104294Y-137330886D01*
X72104294Y-137330886D02*
X75554294Y-137330886D01*
X72054294Y-140130886D02*
X72104294Y-137380886D01*
X72054294Y-136830886D02*
G75*
G03*
X72054294Y-136830886I-450000J0D01*
G01*
%TO.C,D162*%
X131604294Y-25880886D02*
X128104294Y-25880886D01*
X131604294Y-23080886D02*
X131604294Y-25880886D01*
X129104294Y-23130886D02*
X128154294Y-24230886D01*
X128154294Y-24230886D02*
X128154294Y-23080886D01*
X128154294Y-23080886D02*
X131604294Y-23080886D01*
X128104294Y-25880886D02*
X128154294Y-23130886D01*
X128104294Y-22580886D02*
G75*
G03*
X128104294Y-22580886I-450000J0D01*
G01*
%TD*%
M02*
