%TF.GenerationSoftware,KiCad,Pcbnew,(6.99.0-3809-g2741d0eb4b)*%
%TF.CreationDate,2022-10-25T09:35:27-04:00*%
%TF.ProjectId,PortWing,506f7274-5769-46e6-972e-6b696361645f,rev?*%
%TF.SameCoordinates,Original*%
%TF.FileFunction,Soldermask,Top*%
%TF.FilePolarity,Negative*%
%FSLAX46Y46*%
G04 Gerber Fmt 4.6, Leading zero omitted, Abs format (unit mm)*
G04 Created by KiCad (PCBNEW (6.99.0-3809-g2741d0eb4b)) date 2022-10-25 09:35:27*
%MOMM*%
%LPD*%
G01*
G04 APERTURE LIST*
G04 Aperture macros list*
%AMRoundRect*
0 Rectangle with rounded corners*
0 $1 Rounding radius*
0 $2 $3 $4 $5 $6 $7 $8 $9 X,Y pos of 4 corners*
0 Add a 4 corners polygon primitive as box body*
4,1,4,$2,$3,$4,$5,$6,$7,$8,$9,$2,$3,0*
0 Add four circle primitives for the rounded corners*
1,1,$1+$1,$2,$3*
1,1,$1+$1,$4,$5*
1,1,$1+$1,$6,$7*
1,1,$1+$1,$8,$9*
0 Add four rect primitives between the rounded corners*
20,1,$1+$1,$2,$3,$4,$5,0*
20,1,$1+$1,$4,$5,$6,$7,0*
20,1,$1+$1,$6,$7,$8,$9,0*
20,1,$1+$1,$8,$9,$2,$3,0*%
%AMRotRect*
0 Rectangle, with rotation*
0 The origin of the aperture is its center*
0 $1 length*
0 $2 width*
0 $3 Rotation angle, in degrees counterclockwise*
0 Add horizontal line*
21,1,$1,$2,0,0,$3*%
G04 Aperture macros list end*
%ADD10C,0.600000*%
%ADD11R,0.900000X0.750000*%
%ADD12O,1.000000X1.000000*%
%ADD13R,0.750000X0.750000*%
%ADD14O,0.750000X0.750000*%
%ADD15RoundRect,0.250000X-0.650000X0.325000X-0.650000X-0.325000X0.650000X-0.325000X0.650000X0.325000X0*%
%ADD16RoundRect,0.150000X0.256326X0.468458X-0.468458X-0.256326X-0.256326X-0.468458X0.468458X0.256326X0*%
%ADD17RoundRect,0.150000X0.150000X-0.587500X0.150000X0.587500X-0.150000X0.587500X-0.150000X-0.587500X0*%
%ADD18RotRect,0.900000X0.750000X135.000000*%
%ADD19RoundRect,0.225000X0.250000X-0.225000X0.250000X0.225000X-0.250000X0.225000X-0.250000X-0.225000X0*%
%ADD20RoundRect,0.250000X-0.325000X-0.650000X0.325000X-0.650000X0.325000X0.650000X-0.325000X0.650000X0*%
%ADD21RoundRect,0.250000X-0.229810X0.689429X-0.689429X0.229810X0.229810X-0.689429X0.689429X-0.229810X0*%
%ADD22RotRect,1.000000X1.500000X225.000000*%
%ADD23RoundRect,0.250000X0.325000X0.650000X-0.325000X0.650000X-0.325000X-0.650000X0.325000X-0.650000X0*%
%ADD24RoundRect,0.150000X0.150000X-0.675000X0.150000X0.675000X-0.150000X0.675000X-0.150000X-0.675000X0*%
%ADD25R,1.600000X2.400000*%
%ADD26O,1.600000X2.400000*%
%ADD27RoundRect,0.150000X0.512500X0.150000X-0.512500X0.150000X-0.512500X-0.150000X0.512500X-0.150000X0*%
%ADD28C,1.727200*%
%ADD29O,1.727200X1.727200*%
%ADD30R,1.727200X1.727200*%
%ADD31RoundRect,0.140000X-0.170000X0.140000X-0.170000X-0.140000X0.170000X-0.140000X0.170000X0.140000X0*%
%ADD32RoundRect,0.250000X0.689429X0.229810X0.229810X0.689429X-0.689429X-0.229810X-0.229810X-0.689429X0*%
%ADD33RoundRect,0.225000X0.225000X0.250000X-0.225000X0.250000X-0.225000X-0.250000X0.225000X-0.250000X0*%
G04 APERTURE END LIST*
D10*
%TO.C,D213*%
X52245401Y-38557279D03*
D11*
X51545400Y-38557278D03*
X51545400Y-40057278D03*
X54245400Y-40057278D03*
D10*
X53595401Y-40057279D03*
D11*
X54245400Y-38557278D03*
%TD*%
D10*
%TO.C,D37*%
X128745401Y-177657279D03*
D11*
X128045400Y-177657278D03*
X128045400Y-179157278D03*
X130745400Y-179157278D03*
D10*
X130095401Y-179157279D03*
D11*
X130745400Y-177657278D03*
%TD*%
D10*
%TO.C,D94*%
X100045401Y-119457279D03*
D11*
X99345400Y-119457278D03*
X99345400Y-120957278D03*
X102045400Y-120957278D03*
D10*
X101395401Y-120957279D03*
D11*
X102045400Y-119457278D03*
%TD*%
D10*
%TO.C,D241*%
X84604294Y-66030886D03*
D11*
X83904293Y-66030885D03*
X83904293Y-67530885D03*
X86604293Y-67530885D03*
D10*
X85954294Y-67530886D03*
D11*
X86604293Y-66030885D03*
%TD*%
D10*
%TO.C,D199*%
X39954294Y-13980886D03*
D11*
X39254293Y-13980885D03*
X39254293Y-15480885D03*
X41954293Y-15480885D03*
D10*
X41304294Y-15480886D03*
D11*
X41954293Y-13980885D03*
%TD*%
D10*
%TO.C,D102*%
X71704294Y-133430886D03*
D11*
X71004293Y-133430885D03*
X71004293Y-134930885D03*
X73704293Y-134930885D03*
D10*
X73054294Y-134930886D03*
D11*
X73704293Y-133430885D03*
%TD*%
D10*
%TO.C,D78*%
X104504294Y-143530886D03*
D11*
X103804293Y-143530885D03*
X103804293Y-145030885D03*
X106504293Y-145030885D03*
D10*
X105854294Y-145030886D03*
D11*
X106504293Y-143530885D03*
%TD*%
D10*
%TO.C,D216*%
X53645401Y-42330886D03*
D11*
X52945400Y-42330885D03*
X52945400Y-43830885D03*
X55645400Y-43830885D03*
D10*
X54995401Y-43830886D03*
D11*
X55645400Y-42330885D03*
%TD*%
D10*
%TO.C,D30*%
X141604294Y-158030886D03*
D11*
X140904293Y-158030885D03*
X140904293Y-159530885D03*
X143604293Y-159530885D03*
D10*
X142954294Y-159530886D03*
D11*
X143604293Y-158030885D03*
%TD*%
D10*
%TO.C,D82*%
X105654294Y-161780886D03*
D11*
X104954293Y-161780885D03*
X104954293Y-163280885D03*
X107654293Y-163280885D03*
D10*
X107004294Y-163280886D03*
D11*
X107654293Y-161780885D03*
%TD*%
D10*
%TO.C,D153*%
X157545401Y-70357279D03*
D11*
X156845400Y-70357278D03*
X156845400Y-71857278D03*
X159545400Y-71857278D03*
D10*
X158895401Y-71857279D03*
D11*
X159545400Y-70357278D03*
%TD*%
D12*
%TO.C,J1*%
X134284293Y-88200885D03*
X134284293Y-94550885D03*
X135554293Y-88200885D03*
X135554293Y-94550885D03*
X136824293Y-88200885D03*
X136824293Y-94550885D03*
X138094293Y-88200885D03*
X138094293Y-94550885D03*
D13*
X135554293Y-89470885D03*
D14*
X136824293Y-89470885D03*
X135554293Y-90740885D03*
X136824293Y-90740885D03*
X135554293Y-92010885D03*
X136824293Y-92010885D03*
X135554293Y-93280885D03*
X136824293Y-93280885D03*
%TD*%
D10*
%TO.C,D12*%
X134754294Y-120380886D03*
D11*
X134054293Y-120380885D03*
X134054293Y-121880885D03*
X136754293Y-121880885D03*
D10*
X136104294Y-121880886D03*
D11*
X136754293Y-120380885D03*
%TD*%
D10*
%TO.C,D47*%
X94204294Y-174480886D03*
D11*
X93504293Y-174480885D03*
X93504293Y-175980885D03*
X96204293Y-175980885D03*
D10*
X95554294Y-175980886D03*
D11*
X96204293Y-174480885D03*
%TD*%
D10*
%TO.C,D45*%
X99054294Y-170680886D03*
D11*
X98354293Y-170680885D03*
X98354293Y-172180885D03*
X101054293Y-172180885D03*
D10*
X100404294Y-172180886D03*
D11*
X101054293Y-170680885D03*
%TD*%
D10*
%TO.C,D233*%
X109104294Y-43630886D03*
D11*
X108404293Y-43630885D03*
X108404293Y-45130885D03*
X111104293Y-45130885D03*
D10*
X110454294Y-45130886D03*
D11*
X111104293Y-43630885D03*
%TD*%
D10*
%TO.C,D253*%
X59145401Y-52957279D03*
D11*
X58445400Y-52957278D03*
X58445400Y-54457278D03*
X61145400Y-54457278D03*
D10*
X60495401Y-54457279D03*
D11*
X61145400Y-52957278D03*
%TD*%
D10*
%TO.C,D107*%
X65504294Y-114630886D03*
D11*
X64804293Y-114630885D03*
X64804293Y-116130885D03*
X67504293Y-116130885D03*
D10*
X66854294Y-116130886D03*
D11*
X67504293Y-114630885D03*
%TD*%
D10*
%TO.C,D152*%
X154404294Y-65530886D03*
D11*
X153704293Y-65530885D03*
X153704293Y-67030885D03*
X156404293Y-67030885D03*
D10*
X155754294Y-67030886D03*
D11*
X156404293Y-65530885D03*
%TD*%
D10*
%TO.C,D196*%
X28554294Y-8080886D03*
D11*
X27854293Y-8080885D03*
X27854293Y-9580885D03*
X30554293Y-9580885D03*
D10*
X29904294Y-9580886D03*
D11*
X30554293Y-8080885D03*
%TD*%
D10*
%TO.C,D159*%
X138704294Y-30030886D03*
D11*
X138004293Y-30030885D03*
X138004293Y-31530885D03*
X140704293Y-31530885D03*
D10*
X140054294Y-31530886D03*
D11*
X140704293Y-30030885D03*
%TD*%
D10*
%TO.C,D85*%
X115304294Y-147730886D03*
D11*
X114604293Y-147730885D03*
X114604293Y-149230885D03*
X117304293Y-149230885D03*
D10*
X116654294Y-149230886D03*
D11*
X117304293Y-147730885D03*
%TD*%
D10*
%TO.C,D53*%
X77004294Y-178130886D03*
D11*
X76304293Y-178130885D03*
X76304293Y-179630885D03*
X79004293Y-179630885D03*
D10*
X78354294Y-179630886D03*
D11*
X79004293Y-178130885D03*
%TD*%
D10*
%TO.C,D20*%
X134204294Y-153030886D03*
D11*
X133504293Y-153030885D03*
X133504293Y-154530885D03*
X136204293Y-154530885D03*
D10*
X135554294Y-154530886D03*
D11*
X136204293Y-153030885D03*
%TD*%
D10*
%TO.C,D206*%
X33654294Y-23980886D03*
D11*
X32954293Y-23980885D03*
X32954293Y-25480885D03*
X35654293Y-25480885D03*
D10*
X35004294Y-25480886D03*
D11*
X35654293Y-23980885D03*
%TD*%
D10*
%TO.C,D251*%
X54504294Y-57380886D03*
D11*
X53804293Y-57380885D03*
X53804293Y-58880885D03*
X56504293Y-58880885D03*
D10*
X55854294Y-58880886D03*
D11*
X56504293Y-57380885D03*
%TD*%
D10*
%TO.C,D170*%
X114854294Y-5080886D03*
D11*
X114154293Y-5080885D03*
X114154293Y-6580885D03*
X116854293Y-6580885D03*
D10*
X116204294Y-6580886D03*
D11*
X116854293Y-5080885D03*
%TD*%
D10*
%TO.C,D165*%
X130404294Y-18780886D03*
D11*
X129704293Y-18780885D03*
X129704293Y-20280885D03*
X132404293Y-20280885D03*
D10*
X131754294Y-20280886D03*
D11*
X132404293Y-18780885D03*
%TD*%
D10*
%TO.C,D116*%
X77404294Y-80630886D03*
D11*
X76704293Y-80630885D03*
X76704293Y-82130885D03*
X79404293Y-82130885D03*
D10*
X78754294Y-82130886D03*
D11*
X79404293Y-80630885D03*
%TD*%
D10*
%TO.C,D119*%
X107504294Y-66730886D03*
D11*
X106804293Y-66730885D03*
X106804293Y-68230885D03*
X109504293Y-68230885D03*
D10*
X108854294Y-68230886D03*
D11*
X109504293Y-66730885D03*
%TD*%
D10*
%TO.C,D62*%
X70804294Y-158430886D03*
D11*
X70104293Y-158430885D03*
X70104293Y-159930885D03*
X72804293Y-159930885D03*
D10*
X72154294Y-159930886D03*
D11*
X72804293Y-158430885D03*
%TD*%
D10*
%TO.C,D249*%
X59104294Y-64930886D03*
D11*
X58404293Y-64930885D03*
X58404293Y-66430885D03*
X61104293Y-66430885D03*
D10*
X60454294Y-66430886D03*
D11*
X61104293Y-64930885D03*
%TD*%
D10*
%TO.C,D86*%
X117104294Y-143930886D03*
D11*
X116404293Y-143930885D03*
X116404293Y-145430885D03*
X119104293Y-145430885D03*
D10*
X118454294Y-145430886D03*
D11*
X119104293Y-143930885D03*
%TD*%
D10*
%TO.C,D44*%
X103645401Y-172757279D03*
D11*
X102945400Y-172757278D03*
X102945400Y-174257278D03*
X105645400Y-174257278D03*
D10*
X104995401Y-174257279D03*
D11*
X105645400Y-172757278D03*
%TD*%
D10*
%TO.C,D14*%
X127245401Y-129557279D03*
D11*
X126545400Y-129557278D03*
X126545400Y-131057278D03*
X129245400Y-131057278D03*
D10*
X128595401Y-131057279D03*
D11*
X129245400Y-129557278D03*
%TD*%
D10*
%TO.C,D76*%
X103404294Y-135730886D03*
D11*
X102704293Y-135730885D03*
X102704293Y-137230885D03*
X105404293Y-137230885D03*
D10*
X104754294Y-137230886D03*
D11*
X105404293Y-135730885D03*
%TD*%
D10*
%TO.C,D68*%
X77304294Y-140630886D03*
D11*
X76604293Y-140630885D03*
X76604293Y-142130885D03*
X79304293Y-142130885D03*
D10*
X78654294Y-142130886D03*
D11*
X79304293Y-140630885D03*
%TD*%
D10*
%TO.C,D66*%
X74254294Y-146180886D03*
D11*
X73554293Y-146180885D03*
X73554293Y-147680885D03*
X76254293Y-147680885D03*
D10*
X75604294Y-147680886D03*
D11*
X76254293Y-146180885D03*
%TD*%
D10*
%TO.C,D163*%
X123504294Y-24630886D03*
D11*
X122804293Y-24630885D03*
X122804293Y-26130885D03*
X125504293Y-26130885D03*
D10*
X124854294Y-26130886D03*
D11*
X125504293Y-24630885D03*
%TD*%
D10*
%TO.C,D61*%
X66145401Y-160757279D03*
D11*
X65445400Y-160757278D03*
X65445400Y-162257278D03*
X68145400Y-162257278D03*
D10*
X67495401Y-162257279D03*
D11*
X68145400Y-160757278D03*
%TD*%
D10*
%TO.C,D195*%
X32354294Y-3880886D03*
D11*
X31654293Y-3880885D03*
X31654293Y-5380885D03*
X34354293Y-5380885D03*
D10*
X33704294Y-5380886D03*
D11*
X34354293Y-3880885D03*
%TD*%
D10*
%TO.C,D115*%
X75254294Y-84080886D03*
D11*
X74554293Y-84080885D03*
X74554293Y-85580885D03*
X77254293Y-85580885D03*
D10*
X76604294Y-85580886D03*
D11*
X77254293Y-84080885D03*
%TD*%
D10*
%TO.C,D96*%
X99404294Y-130130886D03*
D11*
X98704293Y-130130885D03*
X98704293Y-131630885D03*
X101404293Y-131630885D03*
D10*
X100754294Y-131630886D03*
D11*
X101404293Y-130130885D03*
%TD*%
D15*
%TO.C,C1*%
X60054294Y11394114D03*
X60054294Y8444114D03*
%TD*%
D10*
%TO.C,D227*%
X102145401Y-37157279D03*
D11*
X101445400Y-37157278D03*
X101445400Y-38657278D03*
X104145400Y-38657278D03*
D10*
X103495401Y-38657279D03*
D11*
X104145400Y-37157278D03*
%TD*%
D10*
%TO.C,D9*%
X144604294Y-111330886D03*
D11*
X143904293Y-111330885D03*
X143904293Y-112830885D03*
X146604293Y-112830885D03*
D10*
X145954294Y-112830886D03*
D11*
X146604293Y-111330885D03*
%TD*%
D10*
%TO.C,D124*%
X125045401Y-69957279D03*
D11*
X124345400Y-69957278D03*
X124345400Y-71457278D03*
X127045400Y-71457278D03*
D10*
X126395401Y-71457279D03*
D11*
X127045400Y-69957278D03*
%TD*%
D10*
%TO.C,D70*%
X78254294Y-136580886D03*
D11*
X77554293Y-136580885D03*
X77554293Y-138080885D03*
X80254293Y-138080885D03*
D10*
X79604294Y-138080886D03*
D11*
X80254293Y-136580885D03*
%TD*%
D10*
%TO.C,D198*%
X38354294Y-10180886D03*
D11*
X37654293Y-10180885D03*
X37654293Y-11680885D03*
X40354293Y-11680885D03*
D10*
X39704294Y-11680886D03*
D11*
X40354293Y-10180885D03*
%TD*%
D10*
%TO.C,D226*%
X96645401Y-36857279D03*
D11*
X95945400Y-36857278D03*
X95945400Y-38357278D03*
X98645400Y-38357278D03*
D10*
X97995401Y-38357279D03*
D11*
X98645400Y-36857278D03*
%TD*%
D10*
%TO.C,D92*%
X107654294Y-109780886D03*
D11*
X106954293Y-109780885D03*
X106954293Y-111280885D03*
X109654293Y-111280885D03*
D10*
X109004294Y-111280886D03*
D11*
X109654293Y-109780885D03*
%TD*%
D10*
%TO.C,D125*%
X128604294Y-73930886D03*
D11*
X127904293Y-73930885D03*
X127904293Y-75430885D03*
X130604293Y-75430885D03*
D10*
X129954294Y-75430886D03*
D11*
X130604293Y-73930885D03*
%TD*%
D10*
%TO.C,D230*%
X113204294Y-26830886D03*
D11*
X112504293Y-26830885D03*
X112504293Y-28330885D03*
X115204293Y-28330885D03*
D10*
X114554294Y-28330886D03*
D11*
X115204293Y-26830885D03*
%TD*%
D10*
%TO.C,D120*%
X111845401Y-69957279D03*
D11*
X111145400Y-69957278D03*
X111145400Y-71457278D03*
X113845400Y-71457278D03*
D10*
X113195401Y-71457279D03*
D11*
X113845400Y-69957278D03*
%TD*%
D10*
%TO.C,D100*%
X82245401Y-128357279D03*
D11*
X81545400Y-128357278D03*
X81545400Y-129857278D03*
X84245400Y-129857278D03*
D10*
X83595401Y-129857279D03*
D11*
X84245400Y-128357278D03*
%TD*%
D10*
%TO.C,D74*%
X97704294Y-136230886D03*
D11*
X97004293Y-136230885D03*
X97004293Y-137730885D03*
X99704293Y-137730885D03*
D10*
X99054294Y-137730886D03*
D11*
X99704293Y-136230885D03*
%TD*%
D10*
%TO.C,D3*%
X160045401Y-103757279D03*
D11*
X159345400Y-103757278D03*
X159345400Y-105257278D03*
X162045400Y-105257278D03*
D10*
X161395401Y-105257279D03*
D11*
X162045400Y-103757278D03*
%TD*%
D10*
%TO.C,D228*%
X107045401Y-32657279D03*
D11*
X106345400Y-32657278D03*
X106345400Y-34157278D03*
X109045400Y-34157278D03*
D10*
X108395401Y-34157279D03*
D11*
X109045400Y-32657278D03*
%TD*%
D16*
%TO.C,U4*%
X150930379Y-85248303D03*
X150258628Y-84576552D03*
X149586877Y-83904801D03*
X147978209Y-85513469D03*
X149321711Y-86856971D03*
%TD*%
D10*
%TO.C,D72*%
X88304294Y-136930886D03*
D11*
X87604293Y-136930885D03*
X87604293Y-138430885D03*
X90304293Y-138430885D03*
D10*
X89654294Y-138430886D03*
D11*
X90304293Y-136930885D03*
%TD*%
D10*
%TO.C,D98*%
X91104294Y-118930886D03*
D11*
X90404293Y-118930885D03*
X90404293Y-120430885D03*
X93104293Y-120430885D03*
D10*
X92454294Y-120430886D03*
D11*
X93104293Y-118930885D03*
%TD*%
D10*
%TO.C,D190*%
X25004294Y769114D03*
D11*
X24304293Y769113D03*
X24304293Y-730885D03*
X27004293Y-730885D03*
D10*
X26354294Y-730886D03*
D11*
X27004293Y769113D03*
%TD*%
D10*
%TO.C,D193*%
X22454294Y-5680886D03*
D11*
X21754293Y-5680885D03*
X21754293Y-7180885D03*
X24454293Y-7180885D03*
D10*
X23804294Y-7180886D03*
D11*
X24454293Y-5680885D03*
%TD*%
D10*
%TO.C,D54*%
X71304294Y-182630886D03*
D11*
X70604293Y-182630885D03*
X70604293Y-184130885D03*
X73304293Y-184130885D03*
D10*
X72654294Y-184130886D03*
D11*
X73304293Y-182630885D03*
%TD*%
D10*
%TO.C,D22*%
X145245401Y-151057279D03*
D11*
X144545400Y-151057278D03*
X144545400Y-152557278D03*
X147245400Y-152557278D03*
D10*
X146595401Y-152557279D03*
D11*
X147245400Y-151057278D03*
%TD*%
D10*
%TO.C,D154*%
X158345401Y-75257279D03*
D11*
X157645400Y-75257278D03*
X157645400Y-76757278D03*
X160345400Y-76757278D03*
D10*
X159695401Y-76757279D03*
D11*
X160345400Y-75257278D03*
%TD*%
D10*
%TO.C,D239*%
X86304294Y-74030886D03*
D11*
X85604293Y-74030885D03*
X85604293Y-75530885D03*
X88304293Y-75530885D03*
D10*
X87654294Y-75530886D03*
D11*
X88304293Y-74030885D03*
%TD*%
D10*
%TO.C,D81*%
X107504294Y-156830886D03*
D11*
X106804293Y-156830885D03*
X106804293Y-158330885D03*
X109504293Y-158330885D03*
D10*
X108854294Y-158330886D03*
D11*
X109504293Y-156830885D03*
%TD*%
D10*
%TO.C,D242*%
X80845401Y-69504493D03*
D11*
X80145400Y-69504492D03*
X80145400Y-71004492D03*
X82845400Y-71004492D03*
D10*
X82195401Y-71004493D03*
D11*
X82845400Y-69504492D03*
%TD*%
D10*
%TO.C,D48*%
X88104294Y-174730886D03*
D11*
X87404293Y-174730885D03*
X87404293Y-176230885D03*
X90104293Y-176230885D03*
D10*
X89454294Y-176230886D03*
D11*
X90104293Y-174730885D03*
%TD*%
D17*
%TO.C,U1*%
X55404294Y12381614D03*
X57304294Y12381614D03*
X56354294Y14256614D03*
%TD*%
D10*
%TO.C,D135*%
X136304294Y-85030886D03*
D11*
X135604293Y-85030885D03*
X135604293Y-86530885D03*
X138304293Y-86530885D03*
D10*
X137654294Y-86530886D03*
D11*
X138304293Y-85030885D03*
%TD*%
D10*
%TO.C,D79*%
X105654294Y-147680886D03*
D11*
X104954293Y-147680885D03*
X104954293Y-149180885D03*
X107654293Y-149180885D03*
D10*
X107004294Y-149180886D03*
D11*
X107654293Y-147680885D03*
%TD*%
D10*
%TO.C,D10*%
X142404294Y-116130886D03*
D11*
X141704293Y-116130885D03*
X141704293Y-117630885D03*
X144404293Y-117630885D03*
D10*
X143754294Y-117630886D03*
D11*
X144404293Y-116130885D03*
%TD*%
D10*
%TO.C,D128*%
X140904294Y-78530886D03*
D11*
X140204293Y-78530885D03*
X140204293Y-80030885D03*
X142904293Y-80030885D03*
D10*
X142254294Y-80030886D03*
D11*
X142904293Y-78530885D03*
%TD*%
D10*
%TO.C,D237*%
X94345401Y-71457279D03*
D11*
X93645400Y-71457278D03*
X93645400Y-72957278D03*
X96345400Y-72957278D03*
D10*
X95695401Y-72957279D03*
D11*
X96345400Y-71457278D03*
%TD*%
D10*
%TO.C,D21*%
X139645401Y-152257279D03*
D11*
X138945400Y-152257278D03*
X138945400Y-153757278D03*
X141645400Y-153757278D03*
D10*
X140995401Y-153757279D03*
D11*
X141645400Y-152257278D03*
%TD*%
D10*
%TO.C,D164*%
X123204294Y-20430886D03*
D11*
X122504293Y-20430885D03*
X122504293Y-21930885D03*
X125204293Y-21930885D03*
D10*
X124554294Y-21930886D03*
D11*
X125204293Y-20430885D03*
%TD*%
D10*
%TO.C,D246*%
X66404294Y-64457279D03*
D11*
X65704293Y-64457278D03*
X65704293Y-65957278D03*
X68404293Y-65957278D03*
D10*
X67754294Y-65957279D03*
D11*
X68404293Y-64457278D03*
%TD*%
D10*
%TO.C,D185*%
X65504294Y14469114D03*
D11*
X64804293Y14469113D03*
X64804293Y12969113D03*
X67504293Y12969113D03*
D10*
X66854294Y12969114D03*
D11*
X67504293Y14469113D03*
%TD*%
D10*
%TO.C,D197*%
X37154294Y-6180886D03*
D11*
X36454293Y-6180885D03*
X36454293Y-7680885D03*
X39154293Y-7680885D03*
D10*
X38504294Y-7680886D03*
D11*
X39154293Y-6180885D03*
%TD*%
D10*
%TO.C,D11*%
X140404294Y-121930886D03*
D11*
X139704293Y-121930885D03*
X139704293Y-123430885D03*
X142404293Y-123430885D03*
D10*
X141754294Y-123430886D03*
D11*
X142404293Y-121930885D03*
%TD*%
D10*
%TO.C,D28*%
X149645401Y-151457279D03*
D11*
X148945400Y-151457278D03*
X148945400Y-152957278D03*
X151645400Y-152957278D03*
D10*
X150995401Y-152957279D03*
D11*
X151645400Y-151457278D03*
%TD*%
D10*
%TO.C,D220*%
X68504294Y-37530886D03*
D11*
X67804293Y-37530885D03*
X67804293Y-39030885D03*
X70504293Y-39030885D03*
D10*
X69854294Y-39030886D03*
D11*
X70504293Y-37530885D03*
%TD*%
D10*
%TO.C,D8*%
X149345401Y-114757279D03*
D11*
X148645400Y-114757278D03*
X148645400Y-116257278D03*
X151345400Y-116257278D03*
D10*
X150695401Y-116257279D03*
D11*
X151345400Y-114757278D03*
%TD*%
D10*
%TO.C,D2*%
X159304294Y-94530886D03*
D11*
X158604293Y-94530885D03*
X158604293Y-96030885D03*
X161304293Y-96030885D03*
D10*
X160654294Y-96030886D03*
D11*
X161304293Y-94530885D03*
%TD*%
D10*
%TO.C,D129*%
X154125005Y-88290937D03*
D18*
X153630029Y-87795961D03*
X152569369Y-88856621D03*
X154478557Y-90765809D03*
D10*
X154018939Y-90306191D03*
D18*
X155539217Y-89705149D03*
%TD*%
D10*
%TO.C,D158*%
X136304294Y-34030886D03*
D11*
X135604293Y-34030885D03*
X135604293Y-35530885D03*
X138304293Y-35530885D03*
D10*
X137654294Y-35530886D03*
D11*
X138304293Y-34030885D03*
%TD*%
D10*
%TO.C,D59*%
X65004294Y-167330886D03*
D11*
X64304293Y-167330885D03*
X64304293Y-168830885D03*
X67004293Y-168830885D03*
D10*
X66354294Y-168830886D03*
D11*
X67004293Y-167330885D03*
%TD*%
D10*
%TO.C,D248*%
X63204294Y-60830886D03*
D11*
X62504293Y-60830885D03*
X62504293Y-62330885D03*
X65204293Y-62330885D03*
D10*
X64554294Y-62330886D03*
D11*
X65204293Y-60830885D03*
%TD*%
D10*
%TO.C,D252*%
X58804294Y-57630886D03*
D11*
X58104293Y-57630885D03*
X58104293Y-59130885D03*
X60804293Y-59130885D03*
D10*
X60154294Y-59130886D03*
D11*
X60804293Y-57630885D03*
%TD*%
D10*
%TO.C,D167*%
X118845401Y-16857279D03*
D11*
X118145400Y-16857278D03*
X118145400Y-18357278D03*
X120845400Y-18357278D03*
D10*
X120195401Y-18357279D03*
D11*
X120845400Y-16857278D03*
%TD*%
D10*
%TO.C,D238*%
X91704294Y-66430886D03*
D11*
X91004293Y-66430885D03*
X91004293Y-67930885D03*
X93704293Y-67930885D03*
D10*
X93054294Y-67930886D03*
D11*
X93704293Y-66430885D03*
%TD*%
D10*
%TO.C,D4*%
X160645401Y-108557279D03*
D11*
X159945400Y-108557278D03*
X159945400Y-110057278D03*
X162645400Y-110057278D03*
D10*
X161995401Y-110057279D03*
D11*
X162645400Y-108557278D03*
%TD*%
D10*
%TO.C,D137*%
X133345401Y-64457279D03*
D11*
X132645400Y-64457278D03*
X132645400Y-65957278D03*
X135345400Y-65957278D03*
D10*
X134695401Y-65957279D03*
D11*
X135345400Y-64457278D03*
%TD*%
D10*
%TO.C,D139*%
X124204294Y-61030886D03*
D11*
X123504293Y-61030885D03*
X123504293Y-62530885D03*
X126204293Y-62530885D03*
D10*
X125554294Y-62530886D03*
D11*
X126204293Y-61030885D03*
%TD*%
D10*
%TO.C,D121*%
X115854294Y-66480886D03*
D11*
X115154293Y-66480885D03*
X115154293Y-67980885D03*
X117854293Y-67980885D03*
D10*
X117204294Y-67980886D03*
D11*
X117854293Y-66480885D03*
%TD*%
D10*
%TO.C,D31*%
X144804294Y-161930886D03*
D11*
X144104293Y-161930885D03*
X144104293Y-163430885D03*
X146804293Y-163430885D03*
D10*
X146154294Y-163430886D03*
D11*
X146804293Y-161930885D03*
%TD*%
D10*
%TO.C,D187*%
X60704294Y15369114D03*
D11*
X60004293Y15369113D03*
X60004293Y13869113D03*
X62704293Y13869113D03*
D10*
X62054294Y13869114D03*
D11*
X62704293Y15369113D03*
%TD*%
D10*
%TO.C,D182*%
X75104294Y8669114D03*
D11*
X74404293Y8669113D03*
X74404293Y7169113D03*
X77104293Y7169113D03*
D10*
X76454294Y7169114D03*
D11*
X77104293Y8669113D03*
%TD*%
D10*
%TO.C,D250*%
X55954294Y-61580886D03*
D11*
X55254293Y-61580885D03*
X55254293Y-63080885D03*
X57954293Y-63080885D03*
D10*
X57304294Y-63080886D03*
D11*
X57954293Y-61580885D03*
%TD*%
D10*
%TO.C,D123*%
X122845401Y-66357279D03*
D11*
X122145400Y-66357278D03*
X122145400Y-67857278D03*
X124845400Y-67857278D03*
D10*
X124195401Y-67857279D03*
D11*
X124845400Y-66357278D03*
%TD*%
D10*
%TO.C,D243*%
X78254294Y-65680886D03*
D11*
X77554293Y-65680885D03*
X77554293Y-67180885D03*
X80254293Y-67180885D03*
D10*
X79604294Y-67180886D03*
D11*
X80254293Y-65680885D03*
%TD*%
D10*
%TO.C,D247*%
X69004294Y-68530886D03*
D11*
X68304293Y-68530885D03*
X68304293Y-70030885D03*
X71004293Y-70030885D03*
D10*
X70354294Y-70030886D03*
D11*
X71004293Y-68530885D03*
%TD*%
D10*
%TO.C,D113*%
X69704294Y-91530886D03*
D11*
X69004293Y-91530885D03*
X69004293Y-93030885D03*
X71704293Y-93030885D03*
D10*
X71054294Y-93030886D03*
D11*
X71704293Y-91530885D03*
%TD*%
D19*
%TO.C,C3*%
X30154294Y8044114D03*
X30154294Y9594114D03*
%TD*%
D10*
%TO.C,D245*%
X72054294Y-65280886D03*
D11*
X71354293Y-65280885D03*
X71354293Y-66780885D03*
X74054293Y-66780885D03*
D10*
X73404294Y-66780886D03*
D11*
X74054293Y-65280885D03*
%TD*%
D10*
%TO.C,D26*%
X156404294Y-133830886D03*
D11*
X155704293Y-133830885D03*
X155704293Y-135330885D03*
X158404293Y-135330885D03*
D10*
X157754294Y-135330886D03*
D11*
X158404293Y-133830885D03*
%TD*%
D10*
%TO.C,D39*%
X120554294Y-181280886D03*
D11*
X119854293Y-181280885D03*
X119854293Y-182780885D03*
X122554293Y-182780885D03*
D10*
X121904294Y-182780886D03*
D11*
X122554293Y-181280885D03*
%TD*%
D10*
%TO.C,D105*%
X63445401Y-122557279D03*
D11*
X62745400Y-122557278D03*
X62745400Y-124057278D03*
X65445400Y-124057278D03*
D10*
X64795401Y-124057279D03*
D11*
X65445400Y-122557278D03*
%TD*%
D20*
%TO.C,C8*%
X124279294Y-181180886D03*
X127229294Y-181180886D03*
%TD*%
D10*
%TO.C,D209*%
X46654294Y-30880886D03*
D11*
X45954293Y-30880885D03*
X45954293Y-32380885D03*
X48654293Y-32380885D03*
D10*
X48004294Y-32380886D03*
D11*
X48654293Y-30880885D03*
%TD*%
D10*
%TO.C,D210*%
X43845401Y-34057279D03*
D11*
X43145400Y-34057278D03*
X43145400Y-35557278D03*
X45845400Y-35557278D03*
D10*
X45195401Y-35557279D03*
D11*
X45845400Y-34057278D03*
%TD*%
D21*
%TO.C,C6*%
X108097277Y-137937903D03*
X106011311Y-140023869D03*
%TD*%
D10*
%TO.C,D192*%
X19954294Y-1580886D03*
D11*
X19254293Y-1580885D03*
X19254293Y-3080885D03*
X21954293Y-3080885D03*
D10*
X21304294Y-3080886D03*
D11*
X21954293Y-1580885D03*
%TD*%
D10*
%TO.C,D57*%
X65545401Y-174457279D03*
D11*
X64845400Y-174457278D03*
X64845400Y-175957278D03*
X67545400Y-175957278D03*
D10*
X66895401Y-175957279D03*
D11*
X67545400Y-174457278D03*
%TD*%
D10*
%TO.C,D244*%
X74804294Y-69030886D03*
D11*
X74104293Y-69030885D03*
X74104293Y-70530885D03*
X76804293Y-70530885D03*
D10*
X76154294Y-70530886D03*
D11*
X76804293Y-69030885D03*
%TD*%
D10*
%TO.C,D171*%
X108854294Y-6580886D03*
D11*
X108154293Y-6580885D03*
X108154293Y-8080885D03*
X110854293Y-8080885D03*
D10*
X110204294Y-8080886D03*
D11*
X110854293Y-6580885D03*
%TD*%
D10*
%TO.C,D63*%
X68104294Y-154530886D03*
D11*
X67404293Y-154530885D03*
X67404293Y-156030885D03*
X70104293Y-156030885D03*
D10*
X69454294Y-156030886D03*
D11*
X70104293Y-154530885D03*
%TD*%
D10*
%TO.C,D136*%
X128304294Y-64830886D03*
D11*
X127604293Y-64830885D03*
X127604293Y-66330885D03*
X130304293Y-66330885D03*
D10*
X129654294Y-66330886D03*
D11*
X130304293Y-64830885D03*
%TD*%
D10*
%TO.C,D219*%
X63304294Y-38530886D03*
D11*
X62604293Y-38530885D03*
X62604293Y-40030885D03*
X65304293Y-40030885D03*
D10*
X64654294Y-40030886D03*
D11*
X65304293Y-38530885D03*
%TD*%
D10*
%TO.C,D93*%
X103045401Y-115057279D03*
D11*
X102345400Y-115057278D03*
X102345400Y-116557278D03*
X105045400Y-116557278D03*
D10*
X104395401Y-116557279D03*
D11*
X105045400Y-115057278D03*
%TD*%
D10*
%TO.C,D134*%
X116545401Y-102157279D03*
D11*
X115845400Y-102157278D03*
X115845400Y-103657278D03*
X118545400Y-103657278D03*
D10*
X117895401Y-103657279D03*
D11*
X118545400Y-102157278D03*
%TD*%
D10*
%TO.C,D17*%
X122854294Y-144580886D03*
D11*
X122154293Y-144580885D03*
X122154293Y-146080885D03*
X124854293Y-146080885D03*
D10*
X124204294Y-146080886D03*
D11*
X124854293Y-144580885D03*
%TD*%
D10*
%TO.C,D34*%
X135004294Y-169730886D03*
D11*
X134304293Y-169730885D03*
X134304293Y-171230885D03*
X137004293Y-171230885D03*
D10*
X136354294Y-171230886D03*
D11*
X137004293Y-169730885D03*
%TD*%
D10*
%TO.C,D177*%
X89304294Y9369114D03*
D11*
X88604293Y9369113D03*
X88604293Y7869113D03*
X91304293Y7869113D03*
D10*
X90654294Y7869114D03*
D11*
X91304293Y9369113D03*
%TD*%
D10*
%TO.C,D88*%
X133545401Y-107657279D03*
D11*
X132845400Y-107657278D03*
X132845400Y-109157278D03*
X135545400Y-109157278D03*
D10*
X134895401Y-109157279D03*
D11*
X135545400Y-107657278D03*
%TD*%
D10*
%TO.C,D84*%
X113354294Y-151880886D03*
D11*
X112654293Y-151880885D03*
X112654293Y-153380885D03*
X115354293Y-153380885D03*
D10*
X114704294Y-153380886D03*
D11*
X115354293Y-151880885D03*
%TD*%
D10*
%TO.C,D240*%
X86804294Y-69830886D03*
D11*
X86104293Y-69830885D03*
X86104293Y-71330885D03*
X88804293Y-71330885D03*
D10*
X88154294Y-71330886D03*
D11*
X88804293Y-69830885D03*
%TD*%
D10*
%TO.C,D90*%
X120745401Y-106057279D03*
D11*
X120045400Y-106057278D03*
X120045400Y-107557278D03*
X122745400Y-107557278D03*
D10*
X122095401Y-107557279D03*
D11*
X122745400Y-106057278D03*
%TD*%
D10*
%TO.C,D126*%
X133954294Y-76080886D03*
D11*
X133254293Y-76080885D03*
X133254293Y-77580885D03*
X135954293Y-77580885D03*
D10*
X135304294Y-77580886D03*
D11*
X135954293Y-76080885D03*
%TD*%
D10*
%TO.C,D229*%
X107704294Y-29230886D03*
D11*
X107004293Y-29230885D03*
X107004293Y-30730885D03*
X109704293Y-30730885D03*
D10*
X109054294Y-30730886D03*
D11*
X109704293Y-29230885D03*
%TD*%
D22*
%TO.C,JP1*%
X146873532Y-81261646D03*
X145954293Y-82180885D03*
X145035054Y-83100124D03*
%TD*%
D10*
%TO.C,D109*%
X70004294Y-107430886D03*
D11*
X69304293Y-107430885D03*
X69304293Y-108930885D03*
X72004293Y-108930885D03*
D10*
X71354294Y-108930886D03*
D11*
X72004293Y-107430885D03*
%TD*%
D10*
%TO.C,D87*%
X139345401Y-109557279D03*
D11*
X138645400Y-109557278D03*
X138645400Y-111057278D03*
X141345400Y-111057278D03*
D10*
X140695401Y-111057279D03*
D11*
X141345400Y-109557278D03*
%TD*%
D10*
%TO.C,D189*%
X23254294Y10219114D03*
D11*
X22554293Y10219113D03*
X22554293Y8719113D03*
X25254293Y8719113D03*
D10*
X24604294Y8719114D03*
D11*
X25254293Y10219113D03*
%TD*%
D10*
%TO.C,D24*%
X152845401Y-142857279D03*
D11*
X152145400Y-142857278D03*
X152145400Y-144357278D03*
X154845400Y-144357278D03*
D10*
X154195401Y-144357279D03*
D11*
X154845400Y-142857278D03*
%TD*%
D10*
%TO.C,D256*%
X59804294Y-47530886D03*
D11*
X59104293Y-47530885D03*
X59104293Y-49030885D03*
X61804293Y-49030885D03*
D10*
X61154294Y-49030886D03*
D11*
X61804293Y-47530885D03*
%TD*%
D10*
%TO.C,D207*%
X37754294Y-26880886D03*
D11*
X37054293Y-26880885D03*
X37054293Y-28380885D03*
X39754293Y-28380885D03*
D10*
X39104294Y-28380886D03*
D11*
X39754293Y-26880885D03*
%TD*%
D10*
%TO.C,D95*%
X99754294Y-124180886D03*
D11*
X99054293Y-124180885D03*
X99054293Y-125680885D03*
X101754293Y-125680885D03*
D10*
X101104294Y-125680886D03*
D11*
X101754293Y-124180885D03*
%TD*%
D10*
%TO.C,D106*%
X66045401Y-118457279D03*
D11*
X65345400Y-118457278D03*
X65345400Y-119957278D03*
X68045400Y-119957278D03*
D10*
X67395401Y-119957279D03*
D11*
X68045400Y-118457278D03*
%TD*%
D10*
%TO.C,D208*%
X44445401Y-25704493D03*
D11*
X43745400Y-25704492D03*
X43745400Y-27204492D03*
X46445400Y-27204492D03*
D10*
X45795401Y-27204493D03*
D11*
X46445400Y-25704492D03*
%TD*%
D10*
%TO.C,D205*%
X38154294Y-21880886D03*
D11*
X37454293Y-21880885D03*
X37454293Y-23380885D03*
X40154293Y-23380885D03*
D10*
X39504294Y-23380886D03*
D11*
X40154293Y-21880885D03*
%TD*%
D10*
%TO.C,D77*%
X109504294Y-134830886D03*
D11*
X108804293Y-134830885D03*
X108804293Y-136330885D03*
X111504293Y-136330885D03*
D10*
X110854294Y-136330886D03*
D11*
X111504293Y-134830885D03*
%TD*%
D10*
%TO.C,D215*%
X57504294Y-37630886D03*
D11*
X56804293Y-37630885D03*
X56804293Y-39130885D03*
X59504293Y-39130885D03*
D10*
X58854294Y-39130886D03*
D11*
X59504293Y-37630885D03*
%TD*%
D10*
%TO.C,D19*%
X129204294Y-152530886D03*
D11*
X128504293Y-152530885D03*
X128504293Y-154030885D03*
X131204293Y-154030885D03*
D10*
X130554294Y-154030886D03*
D11*
X131204293Y-152530885D03*
%TD*%
D10*
%TO.C,D168*%
X120254294Y-9680886D03*
D11*
X119554293Y-9680885D03*
X119554293Y-11180885D03*
X122254293Y-11180885D03*
D10*
X121604294Y-11180886D03*
D11*
X122254293Y-9680885D03*
%TD*%
D10*
%TO.C,D49*%
X90954294Y-179380886D03*
D11*
X90254293Y-179380885D03*
X90254293Y-180880885D03*
X92954293Y-180880885D03*
D10*
X92304294Y-180880886D03*
D11*
X92954293Y-179380885D03*
%TD*%
D10*
%TO.C,D52*%
X79054294Y-182580886D03*
D11*
X78354293Y-182580885D03*
X78354293Y-184080885D03*
X81054293Y-184080885D03*
D10*
X80404294Y-184080886D03*
D11*
X81054293Y-182580885D03*
%TD*%
D10*
%TO.C,D186*%
X63404294Y10669114D03*
D11*
X62704293Y10669113D03*
X62704293Y9169113D03*
X65404293Y9169113D03*
D10*
X64754294Y9169114D03*
D11*
X65404293Y10669113D03*
%TD*%
D10*
%TO.C,D103*%
X66354294Y-131180886D03*
D11*
X65654293Y-131180885D03*
X65654293Y-132680885D03*
X68354293Y-132680885D03*
D10*
X67704294Y-132680886D03*
D11*
X68354293Y-131180885D03*
%TD*%
D10*
%TO.C,D89*%
X127404294Y-106630886D03*
D11*
X126704293Y-106630885D03*
X126704293Y-108130885D03*
X129404293Y-108130885D03*
D10*
X128754294Y-108130886D03*
D11*
X129404293Y-106630885D03*
%TD*%
D10*
%TO.C,D183*%
X69045401Y9442721D03*
D11*
X68345400Y9442720D03*
X68345400Y7942720D03*
X71045400Y7942720D03*
D10*
X70395401Y7942721D03*
D11*
X71045400Y9442720D03*
%TD*%
D10*
%TO.C,D222*%
X78304294Y-35830886D03*
D11*
X77604293Y-35830885D03*
X77604293Y-37330885D03*
X80304293Y-37330885D03*
D10*
X79654294Y-37330886D03*
D11*
X80304293Y-35830885D03*
%TD*%
D10*
%TO.C,D156*%
X160404294Y-85180886D03*
D11*
X159704293Y-85180885D03*
X159704293Y-86680885D03*
X162404293Y-86680885D03*
D10*
X161754294Y-86680886D03*
D11*
X162404293Y-85180885D03*
%TD*%
D10*
%TO.C,D147*%
X147345401Y-44357279D03*
D11*
X146645400Y-44357278D03*
X146645400Y-45857278D03*
X149345400Y-45857278D03*
D10*
X148695401Y-45857279D03*
D11*
X149345400Y-44357278D03*
%TD*%
D23*
%TO.C,C4*%
X65829294Y-68580886D03*
X62879294Y-68580886D03*
%TD*%
D10*
%TO.C,D71*%
X83204294Y-138280886D03*
D11*
X82504293Y-138280885D03*
X82504293Y-139780885D03*
X85204293Y-139780885D03*
D10*
X84554294Y-139780886D03*
D11*
X85204293Y-138280885D03*
%TD*%
D23*
%TO.C,C5*%
X145129294Y-94480886D03*
X142179294Y-94480886D03*
%TD*%
D10*
%TO.C,D56*%
X65804294Y-179880886D03*
D11*
X65104293Y-179880885D03*
X65104293Y-181380885D03*
X67804293Y-181380885D03*
D10*
X67154294Y-181380886D03*
D11*
X67804293Y-179880885D03*
%TD*%
D10*
%TO.C,D235*%
X114054294Y-54680886D03*
D11*
X113354293Y-54680885D03*
X113354293Y-56180885D03*
X116054293Y-56180885D03*
D10*
X115404294Y-56180886D03*
D11*
X116054293Y-54680885D03*
%TD*%
D10*
%TO.C,D27*%
X150345401Y-132157279D03*
D11*
X149645400Y-132157278D03*
X149645400Y-133657278D03*
X152345400Y-133657278D03*
D10*
X151695401Y-133657279D03*
D11*
X152345400Y-132157278D03*
%TD*%
D10*
%TO.C,D133*%
X122445401Y-98257279D03*
D11*
X121745400Y-98257278D03*
X121745400Y-99757278D03*
X124445400Y-99757278D03*
D10*
X123795401Y-99757279D03*
D11*
X124445400Y-98257278D03*
%TD*%
D10*
%TO.C,D144*%
X130445401Y-41557279D03*
D11*
X129745400Y-41557278D03*
X129745400Y-43057278D03*
X132445400Y-43057278D03*
D10*
X131795401Y-43057279D03*
D11*
X132445400Y-41557278D03*
%TD*%
D10*
%TO.C,D73*%
X93004294Y-137330886D03*
D11*
X92304293Y-137330885D03*
X92304293Y-138830885D03*
X95004293Y-138830885D03*
D10*
X94354294Y-138830886D03*
D11*
X95004293Y-137330885D03*
%TD*%
D10*
%TO.C,D176*%
X93604294Y1969114D03*
D11*
X92904293Y1969113D03*
X92904293Y469113D03*
X95604293Y469113D03*
D10*
X94954294Y469114D03*
D11*
X95604293Y1969113D03*
%TD*%
D10*
%TO.C,D254*%
X54854294Y-52880886D03*
D11*
X54154293Y-52880885D03*
X54154293Y-54380885D03*
X56854293Y-54380885D03*
D10*
X56204294Y-54380886D03*
D11*
X56854293Y-52880885D03*
%TD*%
D24*
%TO.C,U2*%
X32149294Y5994114D03*
X33419294Y5994114D03*
X34689294Y5994114D03*
X35959294Y5994114D03*
X35959294Y11244114D03*
X34689294Y11244114D03*
X33419294Y11244114D03*
X32149294Y11244114D03*
%TD*%
D10*
%TO.C,D174*%
X100854294Y2719114D03*
D11*
X100154293Y2719113D03*
X100154293Y1219113D03*
X102854293Y1219113D03*
D10*
X102204294Y1219114D03*
D11*
X102854293Y2719113D03*
%TD*%
D10*
%TO.C,D97*%
X96504294Y-115630886D03*
D11*
X95804293Y-115630885D03*
X95804293Y-117130885D03*
X98504293Y-117130885D03*
D10*
X97854294Y-117130886D03*
D11*
X98504293Y-115630885D03*
%TD*%
D10*
%TO.C,D6*%
X154745401Y-110557279D03*
D11*
X154045400Y-110557278D03*
X154045400Y-112057278D03*
X156745400Y-112057278D03*
D10*
X156095401Y-112057279D03*
D11*
X156745400Y-110557278D03*
%TD*%
D10*
%TO.C,D146*%
X141904294Y-41030886D03*
D11*
X141204293Y-41030885D03*
X141204293Y-42530885D03*
X143904293Y-42530885D03*
D10*
X143254294Y-42530886D03*
D11*
X143904293Y-41030885D03*
%TD*%
D10*
%TO.C,D67*%
X72804294Y-142530886D03*
D11*
X72104293Y-142530885D03*
X72104293Y-144030885D03*
X74804293Y-144030885D03*
D10*
X74154294Y-144030886D03*
D11*
X74804293Y-142530885D03*
%TD*%
D10*
%TO.C,D150*%
X151104294Y-57130886D03*
D11*
X150404293Y-57130885D03*
X150404293Y-58630885D03*
X153104293Y-58630885D03*
D10*
X152454294Y-58630886D03*
D11*
X153104293Y-57130885D03*
%TD*%
D25*
%TO.C,J14*%
X147154293Y-129380885D03*
D26*
X149694293Y-129380885D03*
X152234293Y-129380885D03*
X154774293Y-129380885D03*
X157314293Y-129380885D03*
X159854293Y-129380885D03*
X159854293Y-119220885D03*
X157314293Y-119220885D03*
X154774293Y-119220885D03*
X152234293Y-119220885D03*
X149694293Y-119220885D03*
X147154293Y-119220885D03*
%TD*%
D10*
%TO.C,D15*%
X122904294Y-135030886D03*
D11*
X122204293Y-135030885D03*
X122204293Y-136530885D03*
X124904293Y-136530885D03*
D10*
X124254294Y-136530886D03*
D11*
X124904293Y-135030885D03*
%TD*%
D10*
%TO.C,D202*%
X32554294Y-19880886D03*
D11*
X31854293Y-19880885D03*
X31854293Y-21380885D03*
X34554293Y-21380885D03*
D10*
X33904294Y-21380886D03*
D11*
X34554293Y-19880885D03*
%TD*%
D10*
%TO.C,D118*%
X101854294Y-69280886D03*
D11*
X101154293Y-69280885D03*
X101154293Y-70780885D03*
X103854293Y-70780885D03*
D10*
X103204294Y-70780886D03*
D11*
X103854293Y-69280885D03*
%TD*%
D10*
%TO.C,D80*%
X107754294Y-152080886D03*
D11*
X107054293Y-152080885D03*
X107054293Y-153580885D03*
X109754293Y-153580885D03*
D10*
X109104294Y-153580886D03*
D11*
X109754293Y-152080885D03*
%TD*%
D10*
%TO.C,D221*%
X73304294Y-36330886D03*
D11*
X72604293Y-36330885D03*
X72604293Y-37830885D03*
X75304293Y-37830885D03*
D10*
X74654294Y-37830886D03*
D11*
X75304293Y-36330885D03*
%TD*%
D10*
%TO.C,D13*%
X131404294Y-125330886D03*
D11*
X130704293Y-125330885D03*
X130704293Y-126830885D03*
X133404293Y-126830885D03*
D10*
X132754294Y-126830886D03*
D11*
X133404293Y-125330885D03*
%TD*%
D10*
%TO.C,D155*%
X159745401Y-80057279D03*
D11*
X159045400Y-80057278D03*
X159045400Y-81557278D03*
X161745400Y-81557278D03*
D10*
X161095401Y-81557279D03*
D11*
X161745400Y-80057278D03*
%TD*%
D10*
%TO.C,D217*%
X58004294Y-44430886D03*
D11*
X57304293Y-44430885D03*
X57304293Y-45930885D03*
X60004293Y-45930885D03*
D10*
X59354294Y-45930886D03*
D11*
X60004293Y-44430885D03*
%TD*%
D10*
%TO.C,D141*%
X123504294Y-55530886D03*
D11*
X122804293Y-55530885D03*
X122804293Y-57030885D03*
X125504293Y-57030885D03*
D10*
X124854294Y-57030886D03*
D11*
X125504293Y-55530885D03*
%TD*%
D10*
%TO.C,D203*%
X39704294Y-18230886D03*
D11*
X39004293Y-18230885D03*
X39004293Y-19730885D03*
X41704293Y-19730885D03*
D10*
X41054294Y-19730886D03*
D11*
X41704293Y-18230885D03*
%TD*%
D10*
%TO.C,D65*%
X70154294Y-148680886D03*
D11*
X69454293Y-148680885D03*
X69454293Y-150180885D03*
X72154293Y-150180885D03*
D10*
X71504294Y-150180886D03*
D11*
X72154293Y-148680885D03*
%TD*%
D10*
%TO.C,D36*%
X130445401Y-173157279D03*
D11*
X129745400Y-173157278D03*
X129745400Y-174657278D03*
X132445400Y-174657278D03*
D10*
X131795401Y-174657279D03*
D11*
X132445400Y-173157278D03*
%TD*%
D10*
%TO.C,D145*%
X135804294Y-39230886D03*
D11*
X135104293Y-39230885D03*
X135104293Y-40730885D03*
X137804293Y-40730885D03*
D10*
X137154294Y-40730886D03*
D11*
X137804293Y-39230885D03*
%TD*%
D10*
%TO.C,D29*%
X147254294Y-156380886D03*
D11*
X146554293Y-156380885D03*
X146554293Y-157880885D03*
X149254293Y-157880885D03*
D10*
X148604294Y-157880886D03*
D11*
X149254293Y-156380885D03*
%TD*%
D10*
%TO.C,D101*%
X78304294Y-132530886D03*
D11*
X77604293Y-132530885D03*
X77604293Y-134030885D03*
X80304293Y-134030885D03*
D10*
X79654294Y-134030886D03*
D11*
X80304293Y-132530885D03*
%TD*%
D10*
%TO.C,D173*%
X101004294Y-2280886D03*
D11*
X100304293Y-2280885D03*
X100304293Y-3780885D03*
X103004293Y-3780885D03*
D10*
X102354294Y-3780886D03*
D11*
X103004293Y-2280885D03*
%TD*%
D10*
%TO.C,D223*%
X82804294Y-35230886D03*
D11*
X82104293Y-35230885D03*
X82104293Y-36730885D03*
X84804293Y-36730885D03*
D10*
X84154294Y-36730886D03*
D11*
X84804293Y-35230885D03*
%TD*%
D10*
%TO.C,D23*%
X149045401Y-146957279D03*
D11*
X148345400Y-146957278D03*
X148345400Y-148457278D03*
X151045400Y-148457278D03*
D10*
X150395401Y-148457279D03*
D11*
X151045400Y-146957278D03*
%TD*%
D10*
%TO.C,D138*%
X138304294Y-62630886D03*
D11*
X137604293Y-62630885D03*
X137604293Y-64130885D03*
X140304293Y-64130885D03*
D10*
X139654294Y-64130886D03*
D11*
X140304293Y-62630885D03*
%TD*%
D10*
%TO.C,D46*%
X98604294Y-176630886D03*
D11*
X97904293Y-176630885D03*
X97904293Y-178130885D03*
X100604293Y-178130885D03*
D10*
X99954294Y-178130886D03*
D11*
X100604293Y-176630885D03*
%TD*%
D10*
%TO.C,D108*%
X69204294Y-111130886D03*
D11*
X68504293Y-111130885D03*
X68504293Y-112630885D03*
X71204293Y-112630885D03*
D10*
X70554294Y-112630886D03*
D11*
X71204293Y-111130885D03*
%TD*%
D10*
%TO.C,D172*%
X107504294Y69114D03*
D11*
X106804293Y69113D03*
X106804293Y-1430885D03*
X109504293Y-1430885D03*
D10*
X108854294Y-1430886D03*
D11*
X109504293Y69113D03*
%TD*%
D10*
%TO.C,D166*%
X124845401Y-14957279D03*
D11*
X124145400Y-14957278D03*
X124145400Y-16457278D03*
X126845400Y-16457278D03*
D10*
X126195401Y-16457279D03*
D11*
X126845400Y-14957278D03*
%TD*%
D10*
%TO.C,D132*%
X127645401Y-95257279D03*
D11*
X126945400Y-95257278D03*
X126945400Y-96757278D03*
X129645400Y-96757278D03*
D10*
X128995401Y-96757279D03*
D11*
X129645400Y-95257278D03*
%TD*%
D10*
%TO.C,D55*%
X71304294Y-177030886D03*
D11*
X70604293Y-177030885D03*
X70604293Y-178530885D03*
X73304293Y-178530885D03*
D10*
X72654294Y-178530886D03*
D11*
X73304293Y-177030885D03*
%TD*%
D10*
%TO.C,D211*%
X44845401Y-38857279D03*
D11*
X44145400Y-38857278D03*
X44145400Y-40357278D03*
X46845400Y-40357278D03*
D10*
X46195401Y-40357279D03*
D11*
X46845400Y-38857278D03*
%TD*%
D10*
%TO.C,D50*%
X83904294Y-181130886D03*
D11*
X83204293Y-181130885D03*
X83204293Y-182630885D03*
X85904293Y-182630885D03*
D10*
X85254294Y-182630886D03*
D11*
X85904293Y-181130885D03*
%TD*%
D10*
%TO.C,D214*%
X49504294Y-41530886D03*
D11*
X48804293Y-41530885D03*
X48804293Y-43030885D03*
X51504293Y-43030885D03*
D10*
X50854294Y-43030886D03*
D11*
X51504293Y-41530885D03*
%TD*%
D10*
%TO.C,D60*%
X69145401Y-164457279D03*
D11*
X68445400Y-164457278D03*
X68445400Y-165957278D03*
X71145400Y-165957278D03*
D10*
X70495401Y-165957279D03*
D11*
X71145400Y-164457278D03*
%TD*%
D10*
%TO.C,D231*%
X116845401Y-22957279D03*
D11*
X116145400Y-22957278D03*
X116145400Y-24457278D03*
X118845400Y-24457278D03*
D10*
X118195401Y-24457279D03*
D11*
X118845400Y-22957278D03*
%TD*%
D10*
%TO.C,D179*%
X84145401Y12042721D03*
D11*
X83445400Y12042720D03*
X83445400Y10542720D03*
X86145400Y10542720D03*
D10*
X85495401Y10542721D03*
D11*
X86145400Y12042720D03*
%TD*%
D10*
%TO.C,D33*%
X141304294Y-167930886D03*
D11*
X140604293Y-167930885D03*
X140604293Y-169430885D03*
X143304293Y-169430885D03*
D10*
X142654294Y-169430886D03*
D11*
X143304293Y-167930885D03*
%TD*%
D10*
%TO.C,D232*%
X107545401Y-38457279D03*
D11*
X106845400Y-38457278D03*
X106845400Y-39957278D03*
X109545400Y-39957278D03*
D10*
X108895401Y-39957279D03*
D11*
X109545400Y-38457278D03*
%TD*%
D10*
%TO.C,D169*%
X114845401Y-10857279D03*
D11*
X114145400Y-10857278D03*
X114145400Y-12357278D03*
X116845400Y-12357278D03*
D10*
X116195401Y-12357279D03*
D11*
X116845400Y-10857278D03*
%TD*%
D27*
%TO.C,U3*%
X161391794Y-92130886D03*
X161391794Y-91180886D03*
X161391794Y-90230886D03*
X159116794Y-90230886D03*
X159116794Y-92130886D03*
%TD*%
D10*
%TO.C,D212*%
X49304294Y-35130886D03*
D11*
X48604293Y-35130885D03*
X48604293Y-36630885D03*
X51304293Y-36630885D03*
D10*
X50654294Y-36630886D03*
D11*
X51304293Y-35130885D03*
%TD*%
D10*
%TO.C,D224*%
X87504294Y-35930886D03*
D11*
X86804293Y-35930885D03*
X86804293Y-37430885D03*
X89504293Y-37430885D03*
D10*
X88854294Y-37430886D03*
D11*
X89504293Y-35930885D03*
%TD*%
D10*
%TO.C,D5*%
X160445401Y-113257279D03*
D11*
X159745400Y-113257278D03*
X159745400Y-114757278D03*
X162445400Y-114757278D03*
D10*
X161795401Y-114757279D03*
D11*
X162445400Y-113257278D03*
%TD*%
D10*
%TO.C,D201*%
X32854294Y-15780886D03*
D11*
X32154293Y-15780885D03*
X32154293Y-17280885D03*
X34854293Y-17280885D03*
D10*
X34204294Y-17280886D03*
D11*
X34854293Y-15780885D03*
%TD*%
D10*
%TO.C,D43*%
X103804294Y-177330886D03*
D11*
X103104293Y-177330885D03*
X103104293Y-178830885D03*
X105804293Y-178830885D03*
D10*
X105154294Y-178830886D03*
D11*
X105804293Y-177330885D03*
%TD*%
D10*
%TO.C,D160*%
X131545401Y-28257279D03*
D11*
X130845400Y-28257278D03*
X130845400Y-29757278D03*
X133545400Y-29757278D03*
D10*
X132895401Y-29757279D03*
D11*
X133545400Y-28257278D03*
%TD*%
D10*
%TO.C,D175*%
X95604294Y6769114D03*
D11*
X94904293Y6769113D03*
X94904293Y5269113D03*
X97604293Y5269113D03*
D10*
X96954294Y5269114D03*
D11*
X97604293Y6769113D03*
%TD*%
D10*
%TO.C,D234*%
X110904294Y-48730886D03*
D11*
X110204293Y-48730885D03*
X110204293Y-50230885D03*
X112904293Y-50230885D03*
D10*
X112254294Y-50230886D03*
D11*
X112904293Y-48730885D03*
%TD*%
D10*
%TO.C,D114*%
X71404294Y-87830886D03*
D11*
X70704293Y-87830885D03*
X70704293Y-89330885D03*
X73404293Y-89330885D03*
D10*
X72754294Y-89330886D03*
D11*
X73404293Y-87830885D03*
%TD*%
D10*
%TO.C,D151*%
X155304294Y-60930886D03*
D11*
X154604293Y-60930885D03*
X154604293Y-62430885D03*
X157304293Y-62430885D03*
D10*
X156654294Y-62430886D03*
D11*
X157304293Y-60930885D03*
%TD*%
D10*
%TO.C,D140*%
X118104294Y-60130886D03*
D11*
X117404293Y-60130885D03*
X117404293Y-61630885D03*
X120104293Y-61630885D03*
D10*
X119454294Y-61630886D03*
D11*
X120104293Y-60130885D03*
%TD*%
D10*
%TO.C,D180*%
X80804294Y6419114D03*
D11*
X80104293Y6419113D03*
X80104293Y4919113D03*
X82804293Y4919113D03*
D10*
X82154294Y4919114D03*
D11*
X82804293Y6419113D03*
%TD*%
D10*
%TO.C,D149*%
X151545401Y-52157279D03*
D11*
X150845400Y-52157278D03*
X150845400Y-53657278D03*
X153545400Y-53657278D03*
D10*
X152895401Y-53657279D03*
D11*
X153545400Y-52157278D03*
%TD*%
D10*
%TO.C,D16*%
X122404294Y-140130886D03*
D11*
X121704293Y-140130885D03*
X121704293Y-141630885D03*
X124404293Y-141630885D03*
D10*
X123754294Y-141630886D03*
D11*
X124404293Y-140130885D03*
%TD*%
D10*
%TO.C,D122*%
X119504294Y-70630886D03*
D11*
X118804293Y-70630885D03*
X118804293Y-72130885D03*
X121504293Y-72130885D03*
D10*
X120854294Y-72130886D03*
D11*
X121504293Y-70630885D03*
%TD*%
D10*
%TO.C,D255*%
X55554294Y-49280886D03*
D11*
X54854293Y-49280885D03*
X54854293Y-50780885D03*
X57554293Y-50780885D03*
D10*
X56904294Y-50780886D03*
D11*
X57554293Y-49280885D03*
%TD*%
D10*
%TO.C,D157*%
X142304294Y-35830886D03*
D11*
X141604293Y-35830885D03*
X141604293Y-37330885D03*
X144304293Y-37330885D03*
D10*
X143654294Y-37330886D03*
D11*
X144304293Y-35830885D03*
%TD*%
D10*
%TO.C,D91*%
X114504294Y-106730886D03*
D11*
X113804293Y-106730885D03*
X113804293Y-108230885D03*
X116504293Y-108230885D03*
D10*
X115854294Y-108230886D03*
D11*
X116504293Y-106730885D03*
%TD*%
D10*
%TO.C,D58*%
X68845401Y-171057279D03*
D11*
X68145400Y-171057278D03*
X68145400Y-172557278D03*
X70845400Y-172557278D03*
D10*
X70195401Y-172557279D03*
D11*
X70845400Y-171057278D03*
%TD*%
D10*
%TO.C,D104*%
X66645401Y-126657279D03*
D11*
X65945400Y-126657278D03*
X65945400Y-128157278D03*
X68645400Y-128157278D03*
D10*
X67995401Y-128157279D03*
D11*
X68645400Y-126657278D03*
%TD*%
D28*
%TO.C,X1*%
X48154294Y10629114D03*
X48154294Y13169114D03*
D29*
X45614293Y10629113D03*
X45614293Y13169113D03*
D30*
X43074293Y10629113D03*
D29*
X43074293Y13169113D03*
%TD*%
D10*
%TO.C,D41*%
X113204294Y-181330886D03*
D11*
X112504293Y-181330885D03*
X112504293Y-182830885D03*
X115204293Y-182830885D03*
D10*
X114554294Y-182830886D03*
D11*
X115204293Y-181330885D03*
%TD*%
D10*
%TO.C,D51*%
X82004294Y-176430886D03*
D11*
X81304293Y-176430885D03*
X81304293Y-177930885D03*
X84004293Y-177930885D03*
D10*
X83354294Y-177930886D03*
D11*
X84004293Y-176430885D03*
%TD*%
D10*
%TO.C,D40*%
X115204294Y-177530886D03*
D11*
X114504293Y-177530885D03*
X114504293Y-179030885D03*
X117204293Y-179030885D03*
D10*
X116554294Y-179030886D03*
D11*
X117204293Y-177530885D03*
%TD*%
D10*
%TO.C,D117*%
X81604294Y-77730886D03*
D11*
X80904293Y-77730885D03*
X80904293Y-79230885D03*
X83604293Y-79230885D03*
D10*
X82954294Y-79230886D03*
D11*
X83604293Y-77730885D03*
%TD*%
D10*
%TO.C,D142*%
X124604294Y-50780886D03*
D11*
X123904293Y-50780885D03*
X123904293Y-52280885D03*
X126604293Y-52280885D03*
D10*
X125954294Y-52280886D03*
D11*
X126604293Y-50780885D03*
%TD*%
D10*
%TO.C,D218*%
X62404294Y-42230886D03*
D11*
X61704293Y-42230885D03*
X61704293Y-43730885D03*
X64404293Y-43730885D03*
D10*
X63754294Y-43730886D03*
D11*
X64404293Y-42230885D03*
%TD*%
D10*
%TO.C,D42*%
X109445401Y-176857279D03*
D11*
X108745400Y-176857278D03*
X108745400Y-178357278D03*
X111445400Y-178357278D03*
D10*
X110795401Y-178357279D03*
D11*
X111445400Y-176857278D03*
%TD*%
D10*
%TO.C,D161*%
X135145401Y-24357279D03*
D11*
X134445400Y-24357278D03*
X134445400Y-25857278D03*
X137145400Y-25857278D03*
D10*
X136495401Y-25857279D03*
D11*
X137145400Y-24357278D03*
%TD*%
D31*
%TO.C,C2*%
X37654294Y9199114D03*
X37654294Y8239114D03*
%TD*%
D10*
%TO.C,D194*%
X27854294Y-3680886D03*
D11*
X27154293Y-3680885D03*
X27154293Y-5180885D03*
X29854293Y-5180885D03*
D10*
X29204294Y-5180886D03*
D11*
X29854293Y-3680885D03*
%TD*%
D10*
%TO.C,D188*%
X25804294Y5769114D03*
D11*
X25104293Y5769113D03*
X25104293Y4269113D03*
X27804293Y4269113D03*
D10*
X27154294Y4269114D03*
D11*
X27804293Y5769113D03*
%TD*%
D10*
%TO.C,D83*%
X103145401Y-167157279D03*
D11*
X102445400Y-167157278D03*
X102445400Y-168657278D03*
X105145400Y-168657278D03*
D10*
X104495401Y-168657279D03*
D11*
X105145400Y-167157278D03*
%TD*%
D10*
%TO.C,D184*%
X70304294Y14169114D03*
D11*
X69604293Y14169113D03*
X69604293Y12669113D03*
X72304293Y12669113D03*
D10*
X71654294Y12669114D03*
D11*
X72304293Y14169113D03*
%TD*%
D10*
%TO.C,D1*%
X160345401Y-99357279D03*
D11*
X159645400Y-99357278D03*
X159645400Y-100857278D03*
X162345400Y-100857278D03*
D10*
X161695401Y-100857279D03*
D11*
X162345400Y-99357278D03*
%TD*%
D32*
%TO.C,C7*%
X69562316Y-137134698D03*
X67476350Y-135048732D03*
%TD*%
D10*
%TO.C,D130*%
X154645401Y-97457279D03*
D11*
X153945400Y-97457278D03*
X153945400Y-98957278D03*
X156645400Y-98957278D03*
D10*
X155995401Y-98957279D03*
D11*
X156645400Y-97457278D03*
%TD*%
D10*
%TO.C,D200*%
X33654294Y-11780886D03*
D11*
X32954293Y-11780885D03*
X32954293Y-13280885D03*
X35654293Y-13280885D03*
D10*
X35004294Y-13280886D03*
D11*
X35654293Y-11780885D03*
%TD*%
D10*
%TO.C,D35*%
X136845401Y-173757279D03*
D11*
X136145400Y-173757278D03*
X136145400Y-175257278D03*
X138845400Y-175257278D03*
D10*
X138195401Y-175257279D03*
D11*
X138845400Y-173757278D03*
%TD*%
D10*
%TO.C,D236*%
X97604294Y-66430886D03*
D11*
X96904293Y-66430885D03*
X96904293Y-67930885D03*
X99604293Y-67930885D03*
D10*
X98954294Y-67930886D03*
D11*
X99604293Y-66430885D03*
%TD*%
D10*
%TO.C,D7*%
X156204294Y-114730886D03*
D11*
X155504293Y-114730885D03*
X155504293Y-116230885D03*
X158204293Y-116230885D03*
D10*
X157554294Y-116230886D03*
D11*
X158204293Y-114730885D03*
%TD*%
D10*
%TO.C,D143*%
X126445401Y-45857279D03*
D11*
X125745400Y-45857278D03*
X125745400Y-47357278D03*
X128445400Y-47357278D03*
D10*
X127795401Y-47357279D03*
D11*
X128445400Y-45857278D03*
%TD*%
D10*
%TO.C,D18*%
X124704294Y-149330886D03*
D11*
X124004293Y-149330885D03*
X124004293Y-150830885D03*
X126704293Y-150830885D03*
D10*
X126054294Y-150830886D03*
D11*
X126704293Y-149330885D03*
%TD*%
D10*
%TO.C,D110*%
X68504294Y-103630886D03*
D11*
X67804293Y-103630885D03*
X67804293Y-105130885D03*
X70504293Y-105130885D03*
D10*
X69854294Y-105130886D03*
D11*
X70504293Y-103630885D03*
%TD*%
D10*
%TO.C,D178*%
X86804294Y4369114D03*
D11*
X86104293Y4369113D03*
X86104293Y2869113D03*
X88804293Y2869113D03*
D10*
X88154294Y2869114D03*
D11*
X88804293Y4369113D03*
%TD*%
D10*
%TO.C,D127*%
X136204294Y-80030886D03*
D11*
X135504293Y-80030885D03*
X135504293Y-81530885D03*
X138204293Y-81530885D03*
D10*
X137554294Y-81530886D03*
D11*
X138204293Y-80030885D03*
%TD*%
D10*
%TO.C,D112*%
X67904294Y-95180886D03*
D11*
X67204293Y-95180885D03*
X67204293Y-96680885D03*
X69904293Y-96680885D03*
D10*
X69254294Y-96680886D03*
D11*
X69904293Y-95180885D03*
%TD*%
D33*
%TO.C,C10*%
X57194333Y8308285D03*
X55644333Y8308285D03*
%TD*%
D10*
%TO.C,D25*%
X154745401Y-138657279D03*
D11*
X154045400Y-138657278D03*
X154045400Y-140157278D03*
X156745400Y-140157278D03*
D10*
X156095401Y-140157279D03*
D11*
X156745400Y-138657278D03*
%TD*%
D10*
%TO.C,D99*%
X86545401Y-123557279D03*
D11*
X85845400Y-123557278D03*
X85845400Y-125057278D03*
X88545400Y-125057278D03*
D10*
X87895401Y-125057279D03*
D11*
X88545400Y-123557278D03*
%TD*%
D10*
%TO.C,D131*%
X149054294Y-95380886D03*
D11*
X148354293Y-95380885D03*
X148354293Y-96880885D03*
X151054293Y-96880885D03*
D10*
X150404294Y-96880886D03*
D11*
X151054293Y-95380885D03*
%TD*%
D10*
%TO.C,D111*%
X68204294Y-99530886D03*
D11*
X67504293Y-99530885D03*
X67504293Y-101030885D03*
X70204293Y-101030885D03*
D10*
X69554294Y-101030886D03*
D11*
X70204293Y-99530885D03*
%TD*%
D10*
%TO.C,D148*%
X146904294Y-49130886D03*
D11*
X146204293Y-49130885D03*
X146204293Y-50630885D03*
X148904293Y-50630885D03*
D10*
X148254294Y-50630886D03*
D11*
X148904293Y-49130885D03*
%TD*%
D10*
%TO.C,D75*%
X101745401Y-139857279D03*
D11*
X101045400Y-139857278D03*
X101045400Y-141357278D03*
X103745400Y-141357278D03*
D10*
X103095401Y-141357279D03*
D11*
X103745400Y-139857278D03*
%TD*%
D10*
%TO.C,D38*%
X123504294Y-177030886D03*
D11*
X122804293Y-177030885D03*
X122804293Y-178530885D03*
X125504293Y-178530885D03*
D10*
X124854294Y-178530886D03*
D11*
X125504293Y-177030885D03*
%TD*%
D33*
%TO.C,C9*%
X57194333Y10208285D03*
X55644333Y10208285D03*
%TD*%
D10*
%TO.C,D191*%
X19345401Y2419114D03*
D11*
X18645400Y2419113D03*
X18645400Y919113D03*
X21345400Y919113D03*
D10*
X20695401Y919114D03*
D11*
X21345400Y2419113D03*
%TD*%
D10*
%TO.C,D64*%
X72645401Y-152557279D03*
D11*
X71945400Y-152557278D03*
X71945400Y-154057278D03*
X74645400Y-154057278D03*
D10*
X73995401Y-154057279D03*
D11*
X74645400Y-152557278D03*
%TD*%
D10*
%TO.C,D225*%
X92404294Y-36430886D03*
D11*
X91704293Y-36430885D03*
X91704293Y-37930885D03*
X94404293Y-37930885D03*
D10*
X93754294Y-37930886D03*
D11*
X94404293Y-36430885D03*
%TD*%
D10*
%TO.C,D181*%
X76854294Y13019114D03*
D11*
X76154293Y13019113D03*
X76154293Y11519113D03*
X78854293Y11519113D03*
D10*
X78204294Y11519114D03*
D11*
X78854293Y13019113D03*
%TD*%
D10*
%TO.C,D204*%
X44745401Y-19804493D03*
D11*
X44045400Y-19804492D03*
X44045400Y-21304492D03*
X46745400Y-21304492D03*
D10*
X46095401Y-21304493D03*
D11*
X46745400Y-19804492D03*
%TD*%
D10*
%TO.C,D32*%
X138854294Y-164480886D03*
D11*
X138154293Y-164480885D03*
X138154293Y-165980885D03*
X140854293Y-165980885D03*
D10*
X140204294Y-165980886D03*
D11*
X140854293Y-164480885D03*
%TD*%
D10*
%TO.C,D69*%
X73154294Y-137980886D03*
D11*
X72454293Y-137980885D03*
X72454293Y-139480885D03*
X75154293Y-139480885D03*
D10*
X74504294Y-139480886D03*
D11*
X75154293Y-137980885D03*
%TD*%
D10*
%TO.C,D162*%
X129204294Y-23730886D03*
D11*
X128504293Y-23730885D03*
X128504293Y-25230885D03*
X131204293Y-25230885D03*
D10*
X130554294Y-25230886D03*
D11*
X131204293Y-23730885D03*
%TD*%
M02*
