%TF.GenerationSoftware,KiCad,Pcbnew,(6.99.0-3809-g2741d0eb4b)*%
%TF.CreationDate,2022-10-22T00:25:52-04:00*%
%TF.ProjectId,StarboardWing,53746172-626f-4617-9264-57696e672e6b,rev?*%
%TF.SameCoordinates,Original*%
%TF.FileFunction,Paste,Top*%
%TF.FilePolarity,Positive*%
%FSLAX46Y46*%
G04 Gerber Fmt 4.6, Leading zero omitted, Abs format (unit mm)*
G04 Created by KiCad (PCBNEW (6.99.0-3809-g2741d0eb4b)) date 2022-10-22 00:25:52*
%MOMM*%
%LPD*%
G01*
G04 APERTURE LIST*
G04 Aperture macros list*
%AMRoundRect*
0 Rectangle with rounded corners*
0 $1 Rounding radius*
0 $2 $3 $4 $5 $6 $7 $8 $9 X,Y pos of 4 corners*
0 Add a 4 corners polygon primitive as box body*
4,1,4,$2,$3,$4,$5,$6,$7,$8,$9,$2,$3,0*
0 Add four circle primitives for the rounded corners*
1,1,$1+$1,$2,$3*
1,1,$1+$1,$4,$5*
1,1,$1+$1,$6,$7*
1,1,$1+$1,$8,$9*
0 Add four rect primitives between the rounded corners*
20,1,$1+$1,$2,$3,$4,$5,0*
20,1,$1+$1,$4,$5,$6,$7,0*
20,1,$1+$1,$6,$7,$8,$9,0*
20,1,$1+$1,$8,$9,$2,$3,0*%
%AMRotRect*
0 Rectangle, with rotation*
0 The origin of the aperture is its center*
0 $1 length*
0 $2 width*
0 $3 Rotation angle, in degrees counterclockwise*
0 Add horizontal line*
21,1,$1,$2,0,0,$3*%
G04 Aperture macros list end*
%ADD10R,0.900000X0.750000*%
%ADD11RoundRect,0.150000X-0.256326X-0.468458X0.468458X0.256326X0.256326X0.468458X-0.468458X-0.256326X0*%
%ADD12RoundRect,0.150000X-0.512500X-0.150000X0.512500X-0.150000X0.512500X0.150000X-0.512500X0.150000X0*%
%ADD13RoundRect,0.250000X0.325000X0.650000X-0.325000X0.650000X-0.325000X-0.650000X0.325000X-0.650000X0*%
%ADD14RotRect,0.900000X0.750000X45.000000*%
%ADD15RoundRect,0.250000X-0.325000X-0.650000X0.325000X-0.650000X0.325000X0.650000X-0.325000X0.650000X0*%
%ADD16RoundRect,0.225000X0.225000X0.250000X-0.225000X0.250000X-0.225000X-0.250000X0.225000X-0.250000X0*%
%ADD17RoundRect,0.150000X0.150000X-0.587500X0.150000X0.587500X-0.150000X0.587500X-0.150000X-0.587500X0*%
%ADD18R,0.750000X0.750000*%
%ADD19O,0.750000X0.750000*%
%ADD20RoundRect,0.250000X0.689429X0.229810X0.229810X0.689429X-0.689429X-0.229810X-0.229810X-0.689429X0*%
%ADD21RoundRect,0.140000X-0.140000X-0.170000X0.140000X-0.170000X0.140000X0.170000X-0.140000X0.170000X0*%
%ADD22RoundRect,0.150000X-0.150000X0.850000X-0.150000X-0.850000X0.150000X-0.850000X0.150000X0.850000X0*%
G04 APERTURE END LIST*
D10*
%TO.C,D136*%
X205449999Y-83449999D03*
X205449999Y-81949999D03*
X202749999Y-81949999D03*
X202749999Y-83449999D03*
%TD*%
%TO.C,D150*%
X182649999Y-75749999D03*
X182649999Y-74249999D03*
X179949999Y-74249999D03*
X179949999Y-75749999D03*
%TD*%
%TO.C,D23*%
X184708892Y-165576392D03*
X184708892Y-164076392D03*
X182008892Y-164076392D03*
X182008892Y-165576392D03*
%TD*%
%TO.C,D9*%
X189149999Y-129949999D03*
X189149999Y-128449999D03*
X186449999Y-128449999D03*
X186449999Y-129949999D03*
%TD*%
%TO.C,D134*%
X217208892Y-120776392D03*
X217208892Y-119276392D03*
X214508892Y-119276392D03*
X214508892Y-120776392D03*
%TD*%
%TO.C,D81*%
X226249999Y-175449999D03*
X226249999Y-173949999D03*
X223549999Y-173949999D03*
X223549999Y-175449999D03*
%TD*%
%TO.C,D7*%
X177549999Y-133349999D03*
X177549999Y-131849999D03*
X174849999Y-131849999D03*
X174849999Y-133349999D03*
%TD*%
%TO.C,D193*%
X311299999Y-24299999D03*
X311299999Y-22799999D03*
X308599999Y-22799999D03*
X308599999Y-24299999D03*
%TD*%
%TO.C,D158*%
X197449999Y-52649999D03*
X197449999Y-51149999D03*
X194749999Y-51149999D03*
X194749999Y-52649999D03*
%TD*%
%TO.C,D114*%
X261549999Y-104349999D03*
X261549999Y-102849999D03*
X258849999Y-102849999D03*
X258849999Y-104349999D03*
%TD*%
%TO.C,D36*%
X203308892Y-191776392D03*
X203308892Y-190276392D03*
X200608892Y-190276392D03*
X200608892Y-191776392D03*
%TD*%
%TO.C,D218*%
X271349999Y-60849999D03*
X271349999Y-59349999D03*
X268649999Y-59349999D03*
X268649999Y-60849999D03*
%TD*%
%TO.C,D248*%
X272208892Y-78976392D03*
X272208892Y-77476392D03*
X269508892Y-77476392D03*
X269508892Y-78976392D03*
%TD*%
%TO.C,D55*%
X262449999Y-195649999D03*
X262449999Y-194149999D03*
X259749999Y-194149999D03*
X259749999Y-195649999D03*
%TD*%
%TO.C,D141*%
X210249999Y-74149999D03*
X210249999Y-72649999D03*
X207549999Y-72649999D03*
X207549999Y-74149999D03*
%TD*%
%TO.C,D222*%
X255449999Y-54449999D03*
X255449999Y-52949999D03*
X252749999Y-52949999D03*
X252749999Y-54449999D03*
%TD*%
%TO.C,D146*%
X191849999Y-59649999D03*
X191849999Y-58149999D03*
X189149999Y-58149999D03*
X189149999Y-59649999D03*
%TD*%
%TO.C,D186*%
X270349999Y-7949999D03*
X270349999Y-6449999D03*
X267649999Y-6449999D03*
X267649999Y-7949999D03*
%TD*%
%TO.C,D164*%
X210549999Y-39049999D03*
X210549999Y-37549999D03*
X207849999Y-37549999D03*
X207849999Y-39049999D03*
%TD*%
%TO.C,D64*%
X261108892Y-171176392D03*
X261108892Y-169676392D03*
X258408892Y-169676392D03*
X258408892Y-171176392D03*
%TD*%
D11*
%TO.C,U4*%
X182123915Y-102632583D03*
X182795666Y-103304334D03*
X183467417Y-103976085D03*
X185076085Y-102367417D03*
X183732583Y-101023915D03*
%TD*%
D10*
%TO.C,D206*%
X300099999Y-42599999D03*
X300099999Y-41099999D03*
X297399999Y-41099999D03*
X297399999Y-42599999D03*
%TD*%
%TO.C,D15*%
X210849999Y-153649999D03*
X210849999Y-152149999D03*
X208149999Y-152149999D03*
X208149999Y-153649999D03*
%TD*%
%TO.C,D31*%
X188949999Y-180549999D03*
X188949999Y-179049999D03*
X186249999Y-179049999D03*
X186249999Y-180549999D03*
%TD*%
%TO.C,D167*%
X214908892Y-35476392D03*
X214908892Y-33976392D03*
X212208892Y-33976392D03*
X212208892Y-35476392D03*
%TD*%
%TO.C,D210*%
X289908892Y-52676392D03*
X289908892Y-51176392D03*
X287208892Y-51176392D03*
X287208892Y-52676392D03*
%TD*%
%TO.C,D50*%
X249849999Y-199749999D03*
X249849999Y-198249999D03*
X247149999Y-198249999D03*
X247149999Y-199749999D03*
%TD*%
%TO.C,D58*%
X264908892Y-189676392D03*
X264908892Y-188176392D03*
X262208892Y-188176392D03*
X262208892Y-189676392D03*
%TD*%
%TO.C,D51*%
X251749999Y-195049999D03*
X251749999Y-193549999D03*
X249049999Y-193549999D03*
X249049999Y-195049999D03*
%TD*%
%TO.C,D67*%
X260949999Y-161149999D03*
X260949999Y-159649999D03*
X258249999Y-159649999D03*
X258249999Y-161149999D03*
%TD*%
%TO.C,D71*%
X250549999Y-156899999D03*
X250549999Y-155399999D03*
X247849999Y-155399999D03*
X247849999Y-156899999D03*
%TD*%
D12*
%TO.C,U3*%
X171362500Y-106450000D03*
X171362500Y-107400000D03*
X171362500Y-108350000D03*
X173637500Y-108350000D03*
X173637500Y-106450000D03*
%TD*%
D10*
%TO.C,D165*%
X203349999Y-37399999D03*
X203349999Y-35899999D03*
X200649999Y-35899999D03*
X200649999Y-37399999D03*
%TD*%
%TO.C,D84*%
X220399999Y-170499999D03*
X220399999Y-168999999D03*
X217699999Y-168999999D03*
X217699999Y-170499999D03*
%TD*%
%TO.C,D101*%
X255449999Y-151149999D03*
X255449999Y-149649999D03*
X252749999Y-149649999D03*
X252749999Y-151149999D03*
%TD*%
D13*
%TO.C,C2*%
X189875000Y-111500000D03*
X186925000Y-111500000D03*
%TD*%
D10*
%TO.C,D52*%
X254699999Y-201199999D03*
X254699999Y-199699999D03*
X251999999Y-199699999D03*
X251999999Y-201199999D03*
%TD*%
%TO.C,D46*%
X235149999Y-195249999D03*
X235149999Y-193749999D03*
X232449999Y-193749999D03*
X232449999Y-195249999D03*
%TD*%
%TO.C,D180*%
X252949999Y-12199999D03*
X252949999Y-10699999D03*
X250249999Y-10699999D03*
X250249999Y-12199999D03*
%TD*%
%TO.C,D247*%
X266849999Y-83076392D03*
X266849999Y-81576392D03*
X264149999Y-81576392D03*
X264149999Y-83076392D03*
%TD*%
%TO.C,D100*%
X251508892Y-146976392D03*
X251508892Y-145476392D03*
X248808892Y-145476392D03*
X248808892Y-146976392D03*
%TD*%
%TO.C,D60*%
X264608892Y-183076392D03*
X264608892Y-181576392D03*
X261908892Y-181576392D03*
X261908892Y-183076392D03*
%TD*%
%TO.C,D12*%
X198999999Y-138999999D03*
X198999999Y-137499999D03*
X196299999Y-137499999D03*
X196299999Y-138999999D03*
%TD*%
%TO.C,D109*%
X263749999Y-126049999D03*
X263749999Y-124549999D03*
X261049999Y-124549999D03*
X261049999Y-126049999D03*
%TD*%
%TO.C,D223*%
X250949999Y-53849999D03*
X250949999Y-52349999D03*
X248249999Y-52349999D03*
X248249999Y-53849999D03*
%TD*%
%TO.C,D221*%
X260449999Y-54949999D03*
X260449999Y-53449999D03*
X257749999Y-53449999D03*
X257749999Y-54949999D03*
%TD*%
%TO.C,D189*%
X310499999Y-8399999D03*
X310499999Y-6899999D03*
X307799999Y-6899999D03*
X307799999Y-8399999D03*
%TD*%
%TO.C,D94*%
X233708892Y-138076392D03*
X233708892Y-136576392D03*
X231008892Y-136576392D03*
X231008892Y-138076392D03*
%TD*%
%TO.C,D57*%
X268208892Y-193076392D03*
X268208892Y-191576392D03*
X265508892Y-191576392D03*
X265508892Y-193076392D03*
%TD*%
%TO.C,D156*%
X173349999Y-103799999D03*
X173349999Y-102299999D03*
X170649999Y-102299999D03*
X170649999Y-103799999D03*
%TD*%
%TO.C,D11*%
X193349999Y-140549999D03*
X193349999Y-139049999D03*
X190649999Y-139049999D03*
X190649999Y-140549999D03*
%TD*%
%TO.C,D62*%
X262949999Y-177049999D03*
X262949999Y-175549999D03*
X260249999Y-175549999D03*
X260249999Y-177049999D03*
%TD*%
%TO.C,D216*%
X280108892Y-60949999D03*
X280108892Y-59449999D03*
X277408892Y-59449999D03*
X277408892Y-60949999D03*
%TD*%
%TO.C,D229*%
X226049999Y-47849999D03*
X226049999Y-46349999D03*
X223349999Y-46349999D03*
X223349999Y-47849999D03*
%TD*%
%TO.C,D191*%
X314408892Y-16199999D03*
X314408892Y-14699999D03*
X311708892Y-14699999D03*
X311708892Y-16199999D03*
%TD*%
%TO.C,D215*%
X276249999Y-56249999D03*
X276249999Y-54749999D03*
X273549999Y-54749999D03*
X273549999Y-56249999D03*
%TD*%
%TO.C,D106*%
X267708892Y-137076392D03*
X267708892Y-135576392D03*
X265008892Y-135576392D03*
X265008892Y-137076392D03*
%TD*%
%TO.C,D122*%
X214249999Y-89249999D03*
X214249999Y-87749999D03*
X211549999Y-87749999D03*
X211549999Y-89249999D03*
%TD*%
%TO.C,D184*%
X263449999Y-4449999D03*
X263449999Y-2949999D03*
X260749999Y-2949999D03*
X260749999Y-4449999D03*
%TD*%
%TO.C,D172*%
X226249999Y-18549999D03*
X226249999Y-17049999D03*
X223549999Y-17049999D03*
X223549999Y-18549999D03*
%TD*%
%TO.C,D231*%
X216908892Y-41576392D03*
X216908892Y-40076392D03*
X214208892Y-40076392D03*
X214208892Y-41576392D03*
%TD*%
%TO.C,D22*%
X188508892Y-169676392D03*
X188508892Y-168176392D03*
X185808892Y-168176392D03*
X185808892Y-169676392D03*
%TD*%
%TO.C,D155*%
X174008892Y-98676392D03*
X174008892Y-97176392D03*
X171308892Y-97176392D03*
X171308892Y-98676392D03*
%TD*%
D14*
%TO.C,D129*%
X180484923Y-105975735D03*
X179424263Y-104915075D03*
X177515075Y-106824263D03*
X178575735Y-107884923D03*
%TD*%
D10*
%TO.C,D32*%
X194899999Y-183099999D03*
X194899999Y-181599999D03*
X192199999Y-181599999D03*
X192199999Y-183099999D03*
%TD*%
%TO.C,D79*%
X228099999Y-166299999D03*
X228099999Y-164799999D03*
X225399999Y-164799999D03*
X225399999Y-166299999D03*
%TD*%
%TO.C,D144*%
X203308892Y-60176392D03*
X203308892Y-58676392D03*
X200608892Y-58676392D03*
X200608892Y-60176392D03*
%TD*%
%TO.C,D34*%
X198749999Y-188349999D03*
X198749999Y-186849999D03*
X196049999Y-186849999D03*
X196049999Y-188349999D03*
%TD*%
%TO.C,D29*%
X186499999Y-174999999D03*
X186499999Y-173499999D03*
X183799999Y-173499999D03*
X183799999Y-174999999D03*
%TD*%
%TO.C,D113*%
X262649999Y-108376392D03*
X262649999Y-106876392D03*
X259949999Y-106876392D03*
X259949999Y-108376392D03*
%TD*%
%TO.C,D47*%
X239549999Y-193099999D03*
X239549999Y-191599999D03*
X236849999Y-191599999D03*
X236849999Y-193099999D03*
%TD*%
%TO.C,D213*%
X281508892Y-57176392D03*
X281508892Y-55676392D03*
X278808892Y-55676392D03*
X278808892Y-57176392D03*
%TD*%
%TO.C,D85*%
X218449999Y-166349999D03*
X218449999Y-164849999D03*
X215749999Y-164849999D03*
X215749999Y-166349999D03*
%TD*%
%TO.C,D8*%
X184408892Y-133376392D03*
X184408892Y-131876392D03*
X181708892Y-131876392D03*
X181708892Y-133376392D03*
%TD*%
%TO.C,D219*%
X270449999Y-57149999D03*
X270449999Y-55649999D03*
X267749999Y-55649999D03*
X267749999Y-57149999D03*
%TD*%
%TO.C,D194*%
X305899999Y-22299999D03*
X305899999Y-20799999D03*
X303199999Y-20799999D03*
X303199999Y-22299999D03*
%TD*%
%TO.C,D107*%
X268249999Y-133249999D03*
X268249999Y-131749999D03*
X265549999Y-131749999D03*
X265549999Y-133249999D03*
%TD*%
%TO.C,D145*%
X197949999Y-57849999D03*
X197949999Y-56349999D03*
X195249999Y-56349999D03*
X195249999Y-57849999D03*
%TD*%
%TO.C,D18*%
X209049999Y-167949999D03*
X209049999Y-166449999D03*
X206349999Y-166449999D03*
X206349999Y-167949999D03*
%TD*%
%TO.C,D133*%
X211308892Y-116876392D03*
X211308892Y-115376392D03*
X208608892Y-115376392D03*
X208608892Y-116876392D03*
%TD*%
%TO.C,D120*%
X221908892Y-88576392D03*
X221908892Y-87076392D03*
X219208892Y-87076392D03*
X219208892Y-88576392D03*
%TD*%
%TO.C,D187*%
X273049999Y-3249999D03*
X273049999Y-1749999D03*
X270349999Y-1749999D03*
X270349999Y-3249999D03*
%TD*%
%TO.C,D41*%
X220549999Y-199949999D03*
X220549999Y-198449999D03*
X217849999Y-198449999D03*
X217849999Y-199949999D03*
%TD*%
%TO.C,D256*%
X274299999Y-67199999D03*
X274299999Y-65699999D03*
X271599999Y-65699999D03*
X271599999Y-67199999D03*
%TD*%
%TO.C,D35*%
X196908892Y-192376392D03*
X196908892Y-190876392D03*
X194208892Y-190876392D03*
X194208892Y-192376392D03*
%TD*%
%TO.C,D196*%
X305199999Y-26699999D03*
X305199999Y-25199999D03*
X302499999Y-25199999D03*
X302499999Y-26699999D03*
%TD*%
%TO.C,D227*%
X231608892Y-55776392D03*
X231608892Y-54276392D03*
X228908892Y-54276392D03*
X228908892Y-55776392D03*
%TD*%
%TO.C,D232*%
X226208892Y-57076392D03*
X226208892Y-55576392D03*
X223508892Y-55576392D03*
X223508892Y-57076392D03*
%TD*%
%TO.C,D89*%
X206349999Y-125249999D03*
X206349999Y-123749999D03*
X203649999Y-123749999D03*
X203649999Y-125249999D03*
%TD*%
%TO.C,D212*%
X281708892Y-53676392D03*
X281708892Y-52176392D03*
X279008892Y-52176392D03*
X279008892Y-53676392D03*
%TD*%
%TO.C,D131*%
X184699999Y-113999999D03*
X184699999Y-112499999D03*
X181999999Y-112499999D03*
X181999999Y-113999999D03*
%TD*%
%TO.C,D68*%
X256449999Y-159249999D03*
X256449999Y-157749999D03*
X253749999Y-157749999D03*
X253749999Y-159249999D03*
%TD*%
%TO.C,D56*%
X267949999Y-198499999D03*
X267949999Y-196999999D03*
X265249999Y-196999999D03*
X265249999Y-198499999D03*
%TD*%
%TO.C,D90*%
X213008892Y-124676392D03*
X213008892Y-123176392D03*
X210308892Y-123176392D03*
X210308892Y-124676392D03*
%TD*%
%TO.C,D250*%
X277808892Y-79076392D03*
X277808892Y-77576392D03*
X275108892Y-77576392D03*
X275108892Y-79076392D03*
%TD*%
%TO.C,D86*%
X216649999Y-162549999D03*
X216649999Y-161049999D03*
X213949999Y-161049999D03*
X213949999Y-162549999D03*
%TD*%
D15*
%TO.C,C44*%
X266925000Y-85500000D03*
X269875000Y-85500000D03*
%TD*%
D10*
%TO.C,D198*%
X295399999Y-28799999D03*
X295399999Y-27299999D03*
X292699999Y-27299999D03*
X292699999Y-28799999D03*
%TD*%
D16*
%TO.C,C3*%
X279375000Y-5000000D03*
X277825000Y-5000000D03*
%TD*%
D10*
%TO.C,D75*%
X232008892Y-158476392D03*
X232008892Y-156976392D03*
X229308892Y-156976392D03*
X229308892Y-158476392D03*
%TD*%
%TO.C,D246*%
X271408892Y-83076392D03*
X271408892Y-81576392D03*
X268708892Y-81576392D03*
X268708892Y-83076392D03*
%TD*%
D15*
%TO.C,C40*%
X275225000Y-2600000D03*
X278175000Y-2600000D03*
%TD*%
D10*
%TO.C,D13*%
X202349999Y-143949999D03*
X202349999Y-142449999D03*
X199649999Y-142449999D03*
X199649999Y-143949999D03*
%TD*%
%TO.C,D78*%
X229249999Y-162149999D03*
X229249999Y-160649999D03*
X226549999Y-160649999D03*
X226549999Y-162149999D03*
%TD*%
%TO.C,D3*%
X173708892Y-122376392D03*
X173708892Y-120876392D03*
X171008892Y-120876392D03*
X171008892Y-122376392D03*
%TD*%
%TO.C,D24*%
X180908892Y-161476392D03*
X180908892Y-159976392D03*
X178208892Y-159976392D03*
X178208892Y-161476392D03*
%TD*%
%TO.C,D98*%
X242649999Y-137549999D03*
X242649999Y-136049999D03*
X239949999Y-136049999D03*
X239949999Y-137549999D03*
%TD*%
%TO.C,D96*%
X234349999Y-148749999D03*
X234349999Y-147249999D03*
X231649999Y-147249999D03*
X231649999Y-148749999D03*
%TD*%
%TO.C,D49*%
X242799999Y-197999999D03*
X242799999Y-196499999D03*
X240099999Y-196499999D03*
X240099999Y-197999999D03*
%TD*%
%TO.C,D143*%
X207308892Y-64476392D03*
X207308892Y-62976392D03*
X204608892Y-62976392D03*
X204608892Y-64476392D03*
%TD*%
%TO.C,D138*%
X195449999Y-81249999D03*
X195449999Y-79749999D03*
X192749999Y-79749999D03*
X192749999Y-81249999D03*
%TD*%
%TO.C,D181*%
X256899999Y-5599999D03*
X256899999Y-4099999D03*
X254199999Y-4099999D03*
X254199999Y-5599999D03*
%TD*%
%TO.C,D178*%
X246949999Y-14249999D03*
X246949999Y-12749999D03*
X244249999Y-12749999D03*
X244249999Y-14249999D03*
%TD*%
%TO.C,D207*%
X295999999Y-45499999D03*
X295999999Y-43999999D03*
X293299999Y-43999999D03*
X293299999Y-45499999D03*
%TD*%
%TO.C,D14*%
X206508892Y-148176392D03*
X206508892Y-146676392D03*
X203808892Y-146676392D03*
X203808892Y-148176392D03*
%TD*%
%TO.C,D82*%
X228099999Y-180399999D03*
X228099999Y-178899999D03*
X225399999Y-178899999D03*
X225399999Y-180399999D03*
%TD*%
%TO.C,D175*%
X238149999Y-11849999D03*
X238149999Y-10349999D03*
X235449999Y-10349999D03*
X235449999Y-11849999D03*
%TD*%
%TO.C,D44*%
X230108892Y-191376392D03*
X230108892Y-189876392D03*
X227408892Y-189876392D03*
X227408892Y-191376392D03*
%TD*%
%TO.C,D226*%
X237108892Y-55476392D03*
X237108892Y-53976392D03*
X234408892Y-53976392D03*
X234408892Y-55476392D03*
%TD*%
%TO.C,D137*%
X200408892Y-83076392D03*
X200408892Y-81576392D03*
X197708892Y-81576392D03*
X197708892Y-83076392D03*
%TD*%
%TO.C,D21*%
X194108892Y-170876392D03*
X194108892Y-169376392D03*
X191408892Y-169376392D03*
X191408892Y-170876392D03*
%TD*%
%TO.C,D123*%
X210908892Y-84976392D03*
X210908892Y-83476392D03*
X208208892Y-83476392D03*
X208208892Y-84976392D03*
%TD*%
%TO.C,D53*%
X256749999Y-196749999D03*
X256749999Y-195249999D03*
X254049999Y-195249999D03*
X254049999Y-196749999D03*
%TD*%
%TO.C,D190*%
X306208892Y-18276392D03*
X306208892Y-16776392D03*
X303508892Y-16776392D03*
X303508892Y-18276392D03*
%TD*%
%TO.C,D40*%
X218549999Y-196149999D03*
X218549999Y-194649999D03*
X215849999Y-194649999D03*
X215849999Y-196149999D03*
%TD*%
%TO.C,D121*%
X217899999Y-85099999D03*
X217899999Y-83599999D03*
X215199999Y-83599999D03*
X215199999Y-85099999D03*
%TD*%
%TO.C,D33*%
X192449999Y-186549999D03*
X192449999Y-185049999D03*
X189749999Y-185049999D03*
X189749999Y-186549999D03*
%TD*%
%TO.C,D10*%
X191349999Y-134749999D03*
X191349999Y-133249999D03*
X188649999Y-133249999D03*
X188649999Y-134749999D03*
%TD*%
%TO.C,D153*%
X176208892Y-88976392D03*
X176208892Y-87476392D03*
X173508892Y-87476392D03*
X173508892Y-88976392D03*
%TD*%
%TO.C,D182*%
X258649999Y-9949999D03*
X258649999Y-8449999D03*
X255949999Y-8449999D03*
X255949999Y-9949999D03*
%TD*%
%TO.C,D54*%
X262449999Y-201249999D03*
X262449999Y-199749999D03*
X259749999Y-199749999D03*
X259749999Y-201249999D03*
%TD*%
%TO.C,D45*%
X234699999Y-189299999D03*
X234699999Y-187799999D03*
X231999999Y-187799999D03*
X231999999Y-189299999D03*
%TD*%
%TO.C,D197*%
X296599999Y-24799999D03*
X296599999Y-23299999D03*
X293899999Y-23299999D03*
X293899999Y-24799999D03*
%TD*%
%TO.C,D2*%
X174449999Y-113149999D03*
X174449999Y-111649999D03*
X171749999Y-111649999D03*
X171749999Y-113149999D03*
%TD*%
%TO.C,D88*%
X200208892Y-126276392D03*
X200208892Y-124776392D03*
X197508892Y-124776392D03*
X197508892Y-126276392D03*
%TD*%
%TO.C,D162*%
X204549999Y-42349999D03*
X204549999Y-40849999D03*
X201849999Y-40849999D03*
X201849999Y-42349999D03*
%TD*%
D17*
%TO.C,U1*%
X273550000Y-8337500D03*
X275450000Y-8337500D03*
X274500000Y-6462500D03*
%TD*%
D10*
%TO.C,D176*%
X240149999Y-16649999D03*
X240149999Y-15149999D03*
X237449999Y-15149999D03*
X237449999Y-16649999D03*
%TD*%
%TO.C,D72*%
X245449999Y-155549999D03*
X245449999Y-154049999D03*
X242749999Y-154049999D03*
X242749999Y-155549999D03*
%TD*%
%TO.C,D108*%
X264549999Y-129749999D03*
X264549999Y-128249999D03*
X261849999Y-128249999D03*
X261849999Y-129749999D03*
%TD*%
%TO.C,D103*%
X267399999Y-149799999D03*
X267399999Y-148299999D03*
X264699999Y-148299999D03*
X264699999Y-149799999D03*
%TD*%
%TO.C,D63*%
X265649999Y-173149999D03*
X265649999Y-171649999D03*
X262949999Y-171649999D03*
X262949999Y-173149999D03*
%TD*%
%TO.C,D95*%
X233999999Y-142799999D03*
X233999999Y-141299999D03*
X231299999Y-141299999D03*
X231299999Y-142799999D03*
%TD*%
%TO.C,D170*%
X218899999Y-23699999D03*
X218899999Y-22199999D03*
X216199999Y-22199999D03*
X216199999Y-23699999D03*
%TD*%
%TO.C,D132*%
X206108892Y-113876392D03*
X206108892Y-112376392D03*
X203408892Y-112376392D03*
X203408892Y-113876392D03*
%TD*%
%TO.C,D30*%
X192149999Y-176649999D03*
X192149999Y-175149999D03*
X189449999Y-175149999D03*
X189449999Y-176649999D03*
%TD*%
%TO.C,D16*%
X211349999Y-158749999D03*
X211349999Y-157249999D03*
X208649999Y-157249999D03*
X208649999Y-158749999D03*
%TD*%
%TO.C,D19*%
X204549999Y-171149999D03*
X204549999Y-169649999D03*
X201849999Y-169649999D03*
X201849999Y-171149999D03*
%TD*%
%TO.C,D239*%
X244749999Y-90549999D03*
X244749999Y-89049999D03*
X242049999Y-89049999D03*
X242049999Y-90549999D03*
%TD*%
D16*
%TO.C,C42*%
X279375000Y-8400000D03*
X277825000Y-8400000D03*
%TD*%
D10*
%TO.C,D105*%
X270308892Y-141176392D03*
X270308892Y-139676392D03*
X267608892Y-139676392D03*
X267608892Y-141176392D03*
%TD*%
%TO.C,D111*%
X265249999Y-116749999D03*
X265249999Y-115249999D03*
X262549999Y-115249999D03*
X262549999Y-116749999D03*
%TD*%
%TO.C,D149*%
X182208892Y-70776392D03*
X182208892Y-69276392D03*
X179508892Y-69276392D03*
X179508892Y-70776392D03*
%TD*%
%TO.C,D174*%
X232899999Y-15899999D03*
X232899999Y-14399999D03*
X230199999Y-14399999D03*
X230199999Y-15899999D03*
%TD*%
D16*
%TO.C,C43*%
X279375000Y-6700000D03*
X277825000Y-6700000D03*
%TD*%
D10*
%TO.C,D28*%
X184108892Y-170076392D03*
X184108892Y-168576392D03*
X181408892Y-168576392D03*
X181408892Y-170076392D03*
%TD*%
%TO.C,D42*%
X224308892Y-195476392D03*
X224308892Y-193976392D03*
X221608892Y-193976392D03*
X221608892Y-195476392D03*
%TD*%
%TO.C,D38*%
X211249999Y-195449999D03*
X211249999Y-193949999D03*
X208549999Y-193949999D03*
X208549999Y-195449999D03*
%TD*%
D15*
%TO.C,C39*%
X221225000Y-21300000D03*
X224175000Y-21300000D03*
%TD*%
D10*
%TO.C,D48*%
X245649999Y-193349999D03*
X245649999Y-191849999D03*
X242949999Y-191849999D03*
X242949999Y-193349999D03*
%TD*%
%TO.C,D220*%
X265249999Y-56149999D03*
X265249999Y-54649999D03*
X262549999Y-54649999D03*
X262549999Y-56149999D03*
%TD*%
%TO.C,D104*%
X267108892Y-145276392D03*
X267108892Y-143776392D03*
X264408892Y-143776392D03*
X264408892Y-145276392D03*
%TD*%
%TO.C,D115*%
X256049999Y-100549999D03*
X256049999Y-99049999D03*
X253349999Y-99049999D03*
X253349999Y-100549999D03*
%TD*%
%TO.C,D214*%
X284249999Y-60149999D03*
X284249999Y-58649999D03*
X281549999Y-58649999D03*
X281549999Y-60149999D03*
%TD*%
%TO.C,D87*%
X194408892Y-128176392D03*
X194408892Y-126676392D03*
X191708892Y-126676392D03*
X191708892Y-128176392D03*
%TD*%
%TO.C,D93*%
X230708892Y-133676392D03*
X230708892Y-132176392D03*
X228008892Y-132176392D03*
X228008892Y-133676392D03*
%TD*%
%TO.C,D154*%
X175408892Y-93876392D03*
X175408892Y-92376392D03*
X172708892Y-92376392D03*
X172708892Y-93876392D03*
%TD*%
%TO.C,D252*%
X274308892Y-75376392D03*
X274308892Y-73876392D03*
X271608892Y-73876392D03*
X271608892Y-75376392D03*
%TD*%
%TO.C,D147*%
X186408892Y-62976392D03*
X186408892Y-61476392D03*
X183708892Y-61476392D03*
X183708892Y-62976392D03*
%TD*%
%TO.C,D69*%
X260599999Y-156599999D03*
X260599999Y-155099999D03*
X257899999Y-155099999D03*
X257899999Y-156599999D03*
%TD*%
%TO.C,D39*%
X213199999Y-199899999D03*
X213199999Y-198399999D03*
X210499999Y-198399999D03*
X210499999Y-199899999D03*
%TD*%
%TO.C,D255*%
X278199999Y-67899999D03*
X278199999Y-66399999D03*
X275499999Y-66399999D03*
X275499999Y-67899999D03*
%TD*%
%TO.C,D238*%
X242049999Y-85049999D03*
X242049999Y-83549999D03*
X239349999Y-83549999D03*
X239349999Y-85049999D03*
%TD*%
%TO.C,D117*%
X248649999Y-93749999D03*
X248649999Y-92249999D03*
X245949999Y-92249999D03*
X245949999Y-93749999D03*
%TD*%
%TO.C,D243*%
X260349999Y-88149999D03*
X260349999Y-86649999D03*
X257649999Y-86649999D03*
X257649999Y-88149999D03*
%TD*%
%TO.C,D91*%
X219249999Y-125349999D03*
X219249999Y-123849999D03*
X216549999Y-123849999D03*
X216549999Y-125349999D03*
%TD*%
%TO.C,D148*%
X186849999Y-67749999D03*
X186849999Y-66249999D03*
X184149999Y-66249999D03*
X184149999Y-67749999D03*
%TD*%
%TO.C,D17*%
X210899999Y-163199999D03*
X210899999Y-161699999D03*
X208199999Y-161699999D03*
X208199999Y-163199999D03*
%TD*%
%TO.C,D205*%
X295599999Y-40499999D03*
X295599999Y-38999999D03*
X292899999Y-38999999D03*
X292899999Y-40499999D03*
%TD*%
%TO.C,D25*%
X179008892Y-157276392D03*
X179008892Y-155776392D03*
X176308892Y-155776392D03*
X176308892Y-157276392D03*
%TD*%
%TO.C,D204*%
X289899999Y-41299999D03*
X289899999Y-39799999D03*
X287199999Y-39799999D03*
X287199999Y-41299999D03*
%TD*%
%TO.C,D185*%
X268349999Y-2849999D03*
X268349999Y-1349999D03*
X265649999Y-1349999D03*
X265649999Y-2849999D03*
%TD*%
%TO.C,D92*%
X226099999Y-128399999D03*
X226099999Y-126899999D03*
X223399999Y-126899999D03*
X223399999Y-128399999D03*
%TD*%
%TO.C,D183*%
X264708892Y-9176392D03*
X264708892Y-7676392D03*
X262008892Y-7676392D03*
X262008892Y-9176392D03*
%TD*%
%TO.C,D177*%
X244449999Y-9249999D03*
X244449999Y-7749999D03*
X241749999Y-7749999D03*
X241749999Y-9249999D03*
%TD*%
%TO.C,D230*%
X220549999Y-45449999D03*
X220549999Y-43949999D03*
X217849999Y-43949999D03*
X217849999Y-45449999D03*
%TD*%
%TO.C,D20*%
X199549999Y-171649999D03*
X199549999Y-170149999D03*
X196849999Y-170149999D03*
X196849999Y-171649999D03*
%TD*%
%TO.C,D142*%
X209149999Y-69399999D03*
X209149999Y-67899999D03*
X206449999Y-67899999D03*
X206449999Y-69399999D03*
%TD*%
D18*
%TO.C,J1*%
X195599999Y-106899999D03*
D19*
X196869999Y-106899999D03*
X195599999Y-108169999D03*
X196869999Y-108169999D03*
X195599999Y-109439999D03*
X196869999Y-109439999D03*
X195599999Y-110709999D03*
X196869999Y-110709999D03*
%TD*%
D10*
%TO.C,D192*%
X313799999Y-20199999D03*
X313799999Y-18699999D03*
X311099999Y-18699999D03*
X311099999Y-20199999D03*
%TD*%
%TO.C,D209*%
X287099999Y-49499999D03*
X287099999Y-47999999D03*
X284399999Y-47999999D03*
X284399999Y-49499999D03*
%TD*%
%TO.C,D70*%
X255499999Y-155199999D03*
X255499999Y-153699999D03*
X252799999Y-153699999D03*
X252799999Y-155199999D03*
%TD*%
%TO.C,D163*%
X210249999Y-43249999D03*
X210249999Y-41749999D03*
X207549999Y-41749999D03*
X207549999Y-43249999D03*
%TD*%
D15*
%TO.C,C41*%
X230325000Y-129500000D03*
X233275000Y-129500000D03*
%TD*%
D10*
%TO.C,D225*%
X241349999Y-55049999D03*
X241349999Y-53549999D03*
X238649999Y-53549999D03*
X238649999Y-55049999D03*
%TD*%
%TO.C,D83*%
X230608892Y-185776392D03*
X230608892Y-184276392D03*
X227908892Y-184276392D03*
X227908892Y-185776392D03*
%TD*%
%TO.C,D202*%
X301199999Y-38499999D03*
X301199999Y-36999999D03*
X298499999Y-36999999D03*
X298499999Y-38499999D03*
%TD*%
%TO.C,D112*%
X266708892Y-111876392D03*
X266708892Y-110376392D03*
X264008892Y-110376392D03*
X264008892Y-111876392D03*
%TD*%
%TO.C,D240*%
X247908892Y-84676392D03*
X247908892Y-83176392D03*
X245208892Y-83176392D03*
X245208892Y-84676392D03*
%TD*%
%TO.C,D244*%
X262008892Y-83876392D03*
X262008892Y-82376392D03*
X259308892Y-82376392D03*
X259308892Y-83876392D03*
%TD*%
%TO.C,D61*%
X267608892Y-179376392D03*
X267608892Y-177876392D03*
X264908892Y-177876392D03*
X264908892Y-179376392D03*
%TD*%
%TO.C,D241*%
X253508892Y-88476392D03*
X253508892Y-86976392D03*
X250808892Y-86976392D03*
X250808892Y-88476392D03*
%TD*%
%TO.C,D1*%
X173408892Y-117976392D03*
X173408892Y-116476392D03*
X170708892Y-116476392D03*
X170708892Y-117976392D03*
%TD*%
D20*
%TO.C,C38*%
X221500000Y-174800000D03*
X219414034Y-172714034D03*
%TD*%
D10*
%TO.C,D126*%
X199799999Y-94699999D03*
X199799999Y-93199999D03*
X197099999Y-93199999D03*
X197099999Y-94699999D03*
%TD*%
%TO.C,D124*%
X208708892Y-88576392D03*
X208708892Y-87076392D03*
X206008892Y-87076392D03*
X206008892Y-88576392D03*
%TD*%
%TO.C,D27*%
X183408892Y-150776392D03*
X183408892Y-149276392D03*
X180708892Y-149276392D03*
X180708892Y-150776392D03*
%TD*%
%TO.C,D161*%
X198608892Y-42976392D03*
X198608892Y-41476392D03*
X195908892Y-41476392D03*
X195908892Y-42976392D03*
%TD*%
%TO.C,D6*%
X179008892Y-129176392D03*
X179008892Y-127676392D03*
X176308892Y-127676392D03*
X176308892Y-129176392D03*
%TD*%
%TO.C,D118*%
X231899999Y-87899999D03*
X231899999Y-86399999D03*
X229199999Y-86399999D03*
X229199999Y-87899999D03*
%TD*%
%TO.C,D159*%
X195049999Y-48649999D03*
X195049999Y-47149999D03*
X192349999Y-47149999D03*
X192349999Y-48649999D03*
%TD*%
%TO.C,D224*%
X246249999Y-54549999D03*
X246249999Y-53049999D03*
X243549999Y-53049999D03*
X243549999Y-54549999D03*
%TD*%
%TO.C,D160*%
X202208892Y-46876392D03*
X202208892Y-45376392D03*
X199508892Y-45376392D03*
X199508892Y-46876392D03*
%TD*%
%TO.C,D80*%
X225999999Y-170699999D03*
X225999999Y-169199999D03*
X223299999Y-169199999D03*
X223299999Y-170699999D03*
%TD*%
%TO.C,D251*%
X278408892Y-75676392D03*
X278408892Y-74176392D03*
X275708892Y-74176392D03*
X275708892Y-75676392D03*
%TD*%
%TO.C,D65*%
X263599999Y-167299999D03*
X263599999Y-165799999D03*
X260899999Y-165799999D03*
X260899999Y-167299999D03*
%TD*%
%TO.C,D228*%
X226708892Y-51276392D03*
X226708892Y-49776392D03*
X224008892Y-49776392D03*
X224008892Y-51276392D03*
%TD*%
%TO.C,D97*%
X237249999Y-134249999D03*
X237249999Y-132749999D03*
X234549999Y-132749999D03*
X234549999Y-134249999D03*
%TD*%
%TO.C,D135*%
X196908892Y-103276392D03*
X196908892Y-101776392D03*
X194208892Y-101776392D03*
X194208892Y-103276392D03*
%TD*%
%TO.C,D74*%
X236049999Y-154849999D03*
X236049999Y-153349999D03*
X233349999Y-153349999D03*
X233349999Y-154849999D03*
%TD*%
%TO.C,D73*%
X240749999Y-155949999D03*
X240749999Y-154449999D03*
X238049999Y-154449999D03*
X238049999Y-155949999D03*
%TD*%
%TO.C,D201*%
X300899999Y-34399999D03*
X300899999Y-32899999D03*
X298199999Y-32899999D03*
X298199999Y-34399999D03*
%TD*%
%TO.C,D179*%
X249608892Y-6576392D03*
X249608892Y-5076392D03*
X246908892Y-5076392D03*
X246908892Y-6576392D03*
%TD*%
D21*
%TO.C,C1*%
X298820000Y-2500000D03*
X299780000Y-2500000D03*
%TD*%
D10*
%TO.C,D26*%
X177349999Y-152449999D03*
X177349999Y-150949999D03*
X174649999Y-150949999D03*
X174649999Y-152449999D03*
%TD*%
%TO.C,D102*%
X262049999Y-152049999D03*
X262049999Y-150549999D03*
X259349999Y-150549999D03*
X259349999Y-152049999D03*
%TD*%
%TO.C,D199*%
X293799999Y-32599999D03*
X293799999Y-31099999D03*
X291099999Y-31099999D03*
X291099999Y-32599999D03*
%TD*%
%TO.C,D217*%
X275749999Y-63049999D03*
X275749999Y-61549999D03*
X273049999Y-61549999D03*
X273049999Y-63049999D03*
%TD*%
%TO.C,D203*%
X291499999Y-36999999D03*
X291499999Y-35499999D03*
X288799999Y-35499999D03*
X288799999Y-36999999D03*
%TD*%
%TO.C,D127*%
X197549999Y-98649999D03*
X197549999Y-97149999D03*
X194849999Y-97149999D03*
X194849999Y-98649999D03*
%TD*%
%TO.C,D166*%
X208908892Y-33576392D03*
X208908892Y-32076392D03*
X206208892Y-32076392D03*
X206208892Y-33576392D03*
%TD*%
%TO.C,D119*%
X226249999Y-85349999D03*
X226249999Y-83849999D03*
X223549999Y-83849999D03*
X223549999Y-85349999D03*
%TD*%
%TO.C,D253*%
X274608892Y-71576392D03*
X274608892Y-70076392D03*
X271908892Y-70076392D03*
X271908892Y-71576392D03*
%TD*%
%TO.C,D245*%
X265249999Y-87149999D03*
X265249999Y-85649999D03*
X262549999Y-85649999D03*
X262549999Y-87149999D03*
%TD*%
%TO.C,D236*%
X236149999Y-85049999D03*
X236149999Y-83549999D03*
X233449999Y-83549999D03*
X233449999Y-85049999D03*
%TD*%
%TO.C,D4*%
X173108892Y-127176392D03*
X173108892Y-125676392D03*
X170408892Y-125676392D03*
X170408892Y-127176392D03*
%TD*%
%TO.C,D173*%
X232749999Y-20899999D03*
X232749999Y-19399999D03*
X230049999Y-19399999D03*
X230049999Y-20899999D03*
%TD*%
%TO.C,D188*%
X310008892Y-15176392D03*
X310008892Y-13676392D03*
X307308892Y-13676392D03*
X307308892Y-15176392D03*
%TD*%
%TO.C,D208*%
X288999999Y-46299999D03*
X288999999Y-44799999D03*
X286299999Y-44799999D03*
X286299999Y-46299999D03*
%TD*%
%TO.C,D211*%
X288908892Y-57476392D03*
X288908892Y-55976392D03*
X286208892Y-55976392D03*
X286208892Y-57476392D03*
%TD*%
%TO.C,D66*%
X259499999Y-164799999D03*
X259499999Y-163299999D03*
X256799999Y-163299999D03*
X256799999Y-164799999D03*
%TD*%
%TO.C,D128*%
X192849999Y-97149999D03*
X192849999Y-95649999D03*
X190149999Y-95649999D03*
X190149999Y-97149999D03*
%TD*%
%TO.C,D200*%
X300099999Y-30399999D03*
X300099999Y-28899999D03*
X297399999Y-28899999D03*
X297399999Y-30399999D03*
%TD*%
%TO.C,D234*%
X222849999Y-67349999D03*
X222849999Y-65849999D03*
X220149999Y-65849999D03*
X220149999Y-67349999D03*
%TD*%
%TO.C,D77*%
X224249999Y-153449999D03*
X224249999Y-151949999D03*
X221549999Y-151949999D03*
X221549999Y-153449999D03*
%TD*%
%TO.C,D116*%
X252999999Y-96899999D03*
X252999999Y-95399999D03*
X250299999Y-95399999D03*
X250299999Y-96899999D03*
%TD*%
%TO.C,D37*%
X205008892Y-196276392D03*
X205008892Y-194776392D03*
X202308892Y-194776392D03*
X202308892Y-196276392D03*
%TD*%
%TO.C,D125*%
X205149999Y-92549999D03*
X205149999Y-91049999D03*
X202449999Y-91049999D03*
X202449999Y-92549999D03*
%TD*%
%TO.C,D233*%
X224649999Y-62249999D03*
X224649999Y-60749999D03*
X221949999Y-60749999D03*
X221949999Y-62249999D03*
%TD*%
%TO.C,D242*%
X255708892Y-84476392D03*
X255708892Y-82976392D03*
X253008892Y-82976392D03*
X253008892Y-84476392D03*
%TD*%
%TO.C,D76*%
X230349999Y-154349999D03*
X230349999Y-152849999D03*
X227649999Y-152849999D03*
X227649999Y-154349999D03*
%TD*%
%TO.C,D5*%
X173308892Y-131876392D03*
X173308892Y-130376392D03*
X170608892Y-130376392D03*
X170608892Y-131876392D03*
%TD*%
%TO.C,D254*%
X278899999Y-71499999D03*
X278899999Y-69999999D03*
X276199999Y-69999999D03*
X276199999Y-71499999D03*
%TD*%
%TO.C,D110*%
X265749999Y-121649999D03*
X265749999Y-120149999D03*
X263049999Y-120149999D03*
X263049999Y-121649999D03*
%TD*%
%TO.C,D157*%
X191449999Y-54449999D03*
X191449999Y-52949999D03*
X188749999Y-52949999D03*
X188749999Y-54449999D03*
%TD*%
%TO.C,D139*%
X209549999Y-79649999D03*
X209549999Y-78149999D03*
X206849999Y-78149999D03*
X206849999Y-79649999D03*
%TD*%
%TO.C,D237*%
X239408892Y-90076392D03*
X239408892Y-88576392D03*
X236708892Y-88576392D03*
X236708892Y-90076392D03*
%TD*%
%TO.C,D140*%
X215649999Y-78749999D03*
X215649999Y-77249999D03*
X212949999Y-77249999D03*
X212949999Y-78749999D03*
%TD*%
%TO.C,D152*%
X179349999Y-84149999D03*
X179349999Y-82649999D03*
X176649999Y-82649999D03*
X176649999Y-84149999D03*
%TD*%
%TO.C,D43*%
X229949999Y-195949999D03*
X229949999Y-194449999D03*
X227249999Y-194449999D03*
X227249999Y-195949999D03*
%TD*%
%TO.C,D99*%
X247208892Y-142176392D03*
X247208892Y-140676392D03*
X244508892Y-140676392D03*
X244508892Y-142176392D03*
%TD*%
%TO.C,D169*%
X218908892Y-29476392D03*
X218908892Y-27976392D03*
X216208892Y-27976392D03*
X216208892Y-29476392D03*
%TD*%
D22*
%TO.C,U2*%
X304845000Y-4700000D03*
X303575000Y-4700000D03*
X302305000Y-4700000D03*
X301035000Y-4700000D03*
X299765000Y-4700000D03*
X298495000Y-4700000D03*
X297225000Y-4700000D03*
X295955000Y-4700000D03*
X295955000Y-9700000D03*
X297225000Y-9700000D03*
X298495000Y-9700000D03*
X299765000Y-9700000D03*
X301035000Y-9700000D03*
X302305000Y-9700000D03*
X303575000Y-9700000D03*
X304845000Y-9700000D03*
%TD*%
D10*
%TO.C,D171*%
X224899999Y-25199999D03*
X224899999Y-23699999D03*
X222199999Y-23699999D03*
X222199999Y-25199999D03*
%TD*%
%TO.C,D195*%
X301399999Y-22499999D03*
X301399999Y-20999999D03*
X298699999Y-20999999D03*
X298699999Y-22499999D03*
%TD*%
%TO.C,D235*%
X219699999Y-73299999D03*
X219699999Y-71799999D03*
X216999999Y-71799999D03*
X216999999Y-73299999D03*
%TD*%
%TO.C,D249*%
X275549999Y-82149999D03*
X275549999Y-80649999D03*
X272849999Y-80649999D03*
X272849999Y-82149999D03*
%TD*%
%TO.C,D130*%
X179108892Y-116076392D03*
X179108892Y-114576392D03*
X176408892Y-114576392D03*
X176408892Y-116076392D03*
%TD*%
%TO.C,D151*%
X178449999Y-79549999D03*
X178449999Y-78049999D03*
X175749999Y-78049999D03*
X175749999Y-79549999D03*
%TD*%
%TO.C,D168*%
X213499999Y-28299999D03*
X213499999Y-26799999D03*
X210799999Y-26799999D03*
X210799999Y-28299999D03*
%TD*%
%TO.C,D59*%
X268749999Y-185949999D03*
X268749999Y-184449999D03*
X266049999Y-184449999D03*
X266049999Y-185949999D03*
%TD*%
M02*
