%TF.GenerationSoftware,KiCad,Pcbnew,(6.99.0-3809-g2741d0eb4b)*%
%TF.CreationDate,2022-10-22T00:35:19-04:00*%
%TF.ProjectId,StarboardWing,53746172-626f-4617-9264-57696e672e6b,rev?*%
%TF.SameCoordinates,Original*%
%TF.FileFunction,Soldermask,Top*%
%TF.FilePolarity,Negative*%
%FSLAX46Y46*%
G04 Gerber Fmt 4.6, Leading zero omitted, Abs format (unit mm)*
G04 Created by KiCad (PCBNEW (6.99.0-3809-g2741d0eb4b)) date 2022-10-22 00:35:19*
%MOMM*%
%LPD*%
G01*
G04 APERTURE LIST*
G04 Aperture macros list*
%AMRoundRect*
0 Rectangle with rounded corners*
0 $1 Rounding radius*
0 $2 $3 $4 $5 $6 $7 $8 $9 X,Y pos of 4 corners*
0 Add a 4 corners polygon primitive as box body*
4,1,4,$2,$3,$4,$5,$6,$7,$8,$9,$2,$3,0*
0 Add four circle primitives for the rounded corners*
1,1,$1+$1,$2,$3*
1,1,$1+$1,$4,$5*
1,1,$1+$1,$6,$7*
1,1,$1+$1,$8,$9*
0 Add four rect primitives between the rounded corners*
20,1,$1+$1,$2,$3,$4,$5,0*
20,1,$1+$1,$4,$5,$6,$7,0*
20,1,$1+$1,$6,$7,$8,$9,0*
20,1,$1+$1,$8,$9,$2,$3,0*%
%AMRotRect*
0 Rectangle, with rotation*
0 The origin of the aperture is its center*
0 $1 length*
0 $2 width*
0 $3 Rotation angle, in degrees counterclockwise*
0 Add horizontal line*
21,1,$1,$2,0,0,$3*%
G04 Aperture macros list end*
%ADD10C,0.600000*%
%ADD11R,0.900000X0.750000*%
%ADD12R,1.000000X1.000000*%
%ADD13RoundRect,0.150000X-0.256326X-0.468458X0.468458X0.256326X0.256326X0.468458X-0.468458X-0.256326X0*%
%ADD14RoundRect,0.150000X-0.512500X-0.150000X0.512500X-0.150000X0.512500X0.150000X-0.512500X0.150000X0*%
%ADD15RoundRect,0.250000X0.325000X0.650000X-0.325000X0.650000X-0.325000X-0.650000X0.325000X-0.650000X0*%
%ADD16RotRect,1.000000X1.500000X45.000000*%
%ADD17RotRect,0.900000X0.750000X45.000000*%
%ADD18RoundRect,0.250000X-0.325000X-0.650000X0.325000X-0.650000X0.325000X0.650000X-0.325000X0.650000X0*%
%ADD19RoundRect,0.225000X0.225000X0.250000X-0.225000X0.250000X-0.225000X-0.250000X0.225000X-0.250000X0*%
%ADD20RoundRect,0.150000X0.150000X-0.587500X0.150000X0.587500X-0.150000X0.587500X-0.150000X-0.587500X0*%
%ADD21O,1.000000X1.000000*%
%ADD22R,0.750000X0.750000*%
%ADD23O,0.750000X0.750000*%
%ADD24O,1.727200X1.727200*%
%ADD25R,1.727200X1.727200*%
%ADD26C,1.727200*%
%ADD27RoundRect,0.250000X0.689429X0.229810X0.229810X0.689429X-0.689429X-0.229810X-0.229810X-0.689429X0*%
%ADD28R,1.600000X2.400000*%
%ADD29O,1.600000X2.400000*%
%ADD30RoundRect,0.140000X-0.140000X-0.170000X0.140000X-0.170000X0.140000X0.170000X-0.140000X0.170000X0*%
%ADD31RoundRect,0.150000X-0.150000X0.850000X-0.150000X-0.850000X0.150000X-0.850000X0.150000X0.850000X0*%
G04 APERTURE END LIST*
D10*
%TO.C,D136*%
X204750000Y-83450000D03*
D11*
X205449999Y-83449999D03*
X205449999Y-81949999D03*
X202749999Y-81949999D03*
D10*
X203400000Y-81950000D03*
D11*
X202749999Y-83449999D03*
%TD*%
D10*
%TO.C,D150*%
X181950000Y-75750000D03*
D11*
X182649999Y-75749999D03*
X182649999Y-74249999D03*
X179949999Y-74249999D03*
D10*
X180600000Y-74250000D03*
D11*
X179949999Y-75749999D03*
%TD*%
D10*
%TO.C,D23*%
X184008893Y-165576393D03*
D11*
X184708892Y-165576392D03*
X184708892Y-164076392D03*
X182008892Y-164076392D03*
D10*
X182658893Y-164076393D03*
D11*
X182008892Y-165576392D03*
%TD*%
D10*
%TO.C,D9*%
X188450000Y-129950000D03*
D11*
X189149999Y-129949999D03*
X189149999Y-128449999D03*
X186449999Y-128449999D03*
D10*
X187100000Y-128450000D03*
D11*
X186449999Y-129949999D03*
%TD*%
D10*
%TO.C,D134*%
X216508893Y-120776393D03*
D11*
X217208892Y-120776392D03*
X217208892Y-119276392D03*
X214508892Y-119276392D03*
D10*
X215158893Y-119276393D03*
D11*
X214508892Y-120776392D03*
%TD*%
D10*
%TO.C,D81*%
X225550000Y-175450000D03*
D11*
X226249999Y-175449999D03*
X226249999Y-173949999D03*
X223549999Y-173949999D03*
D10*
X224200000Y-173950000D03*
D11*
X223549999Y-175449999D03*
%TD*%
D10*
%TO.C,D7*%
X176850000Y-133350000D03*
D11*
X177549999Y-133349999D03*
X177549999Y-131849999D03*
X174849999Y-131849999D03*
D10*
X175500000Y-131850000D03*
D11*
X174849999Y-133349999D03*
%TD*%
%TO.C,D193*%
X311299999Y-24299999D03*
X311299999Y-22799999D03*
X308599999Y-22799999D03*
X308599999Y-24299999D03*
%TD*%
D10*
%TO.C,D158*%
X196750000Y-52650000D03*
D11*
X197449999Y-52649999D03*
X197449999Y-51149999D03*
X194749999Y-51149999D03*
D10*
X195400000Y-51150000D03*
D11*
X194749999Y-52649999D03*
%TD*%
%TO.C,D114*%
X261549999Y-104349999D03*
X261549999Y-102849999D03*
X258849999Y-102849999D03*
X258849999Y-104349999D03*
%TD*%
D10*
%TO.C,D36*%
X202608893Y-191776393D03*
D11*
X203308892Y-191776392D03*
X203308892Y-190276392D03*
X200608892Y-190276392D03*
D10*
X201258893Y-190276393D03*
D11*
X200608892Y-191776392D03*
%TD*%
%TO.C,D218*%
X271349999Y-60849999D03*
X271349999Y-59349999D03*
X268649999Y-59349999D03*
X268649999Y-60849999D03*
%TD*%
D10*
%TO.C,D248*%
X271508893Y-78976393D03*
D11*
X272208892Y-78976392D03*
X272208892Y-77476392D03*
X269508892Y-77476392D03*
D10*
X270158893Y-77476393D03*
D11*
X269508892Y-78976392D03*
%TD*%
D12*
%TO.C,J2*%
X258099999Y-99899999D03*
%TD*%
D10*
%TO.C,D55*%
X261750000Y-195650000D03*
D11*
X262449999Y-195649999D03*
X262449999Y-194149999D03*
X259749999Y-194149999D03*
D10*
X260400000Y-194150000D03*
D11*
X259749999Y-195649999D03*
%TD*%
D10*
%TO.C,D141*%
X209550000Y-74150000D03*
D11*
X210249999Y-74149999D03*
X210249999Y-72649999D03*
X207549999Y-72649999D03*
D10*
X208200000Y-72650000D03*
D11*
X207549999Y-74149999D03*
%TD*%
D10*
%TO.C,D222*%
X254750000Y-54450000D03*
D11*
X255449999Y-54449999D03*
X255449999Y-52949999D03*
X252749999Y-52949999D03*
D10*
X253400000Y-52950000D03*
D11*
X252749999Y-54449999D03*
%TD*%
D10*
%TO.C,D146*%
X191150000Y-59650000D03*
D11*
X191849999Y-59649999D03*
X191849999Y-58149999D03*
X189149999Y-58149999D03*
D10*
X189800000Y-58150000D03*
D11*
X189149999Y-59649999D03*
%TD*%
D10*
%TO.C,D186*%
X269650000Y-7950000D03*
D11*
X270349999Y-7949999D03*
X270349999Y-6449999D03*
X267649999Y-6449999D03*
D10*
X268300000Y-6450000D03*
D11*
X267649999Y-7949999D03*
%TD*%
D10*
%TO.C,D164*%
X209850000Y-39050000D03*
D11*
X210549999Y-39049999D03*
X210549999Y-37549999D03*
X207849999Y-37549999D03*
D10*
X208500000Y-37550000D03*
D11*
X207849999Y-39049999D03*
%TD*%
D10*
%TO.C,D64*%
X260408893Y-171176393D03*
D11*
X261108892Y-171176392D03*
X261108892Y-169676392D03*
X258408892Y-169676392D03*
D10*
X259058893Y-169676393D03*
D11*
X258408892Y-171176392D03*
%TD*%
D13*
%TO.C,U4*%
X182123915Y-102632583D03*
X182795666Y-103304334D03*
X183467417Y-103976085D03*
X185076085Y-102367417D03*
X183732583Y-101023915D03*
%TD*%
D11*
%TO.C,D206*%
X300099999Y-42599999D03*
X300099999Y-41099999D03*
X297399999Y-41099999D03*
X297399999Y-42599999D03*
%TD*%
D10*
%TO.C,D15*%
X210150000Y-153650000D03*
D11*
X210849999Y-153649999D03*
X210849999Y-152149999D03*
X208149999Y-152149999D03*
D10*
X208800000Y-152150000D03*
D11*
X208149999Y-153649999D03*
%TD*%
D10*
%TO.C,D31*%
X188250000Y-180550000D03*
D11*
X188949999Y-180549999D03*
X188949999Y-179049999D03*
X186249999Y-179049999D03*
D10*
X186900000Y-179050000D03*
D11*
X186249999Y-180549999D03*
%TD*%
D10*
%TO.C,D167*%
X214208893Y-35476393D03*
D11*
X214908892Y-35476392D03*
X214908892Y-33976392D03*
X212208892Y-33976392D03*
D10*
X212858893Y-33976393D03*
D11*
X212208892Y-35476392D03*
%TD*%
%TO.C,D210*%
X289908892Y-52676392D03*
X289908892Y-51176392D03*
X287208892Y-51176392D03*
X287208892Y-52676392D03*
%TD*%
D10*
%TO.C,D50*%
X249150000Y-199750000D03*
D11*
X249849999Y-199749999D03*
X249849999Y-198249999D03*
X247149999Y-198249999D03*
D10*
X247800000Y-198250000D03*
D11*
X247149999Y-199749999D03*
%TD*%
D10*
%TO.C,D58*%
X264208893Y-189676393D03*
D11*
X264908892Y-189676392D03*
X264908892Y-188176392D03*
X262208892Y-188176392D03*
D10*
X262858893Y-188176393D03*
D11*
X262208892Y-189676392D03*
%TD*%
D10*
%TO.C,D51*%
X251050000Y-195050000D03*
D11*
X251749999Y-195049999D03*
X251749999Y-193549999D03*
X249049999Y-193549999D03*
D10*
X249700000Y-193550000D03*
D11*
X249049999Y-195049999D03*
%TD*%
D10*
%TO.C,D67*%
X260250000Y-161150000D03*
D11*
X260949999Y-161149999D03*
X260949999Y-159649999D03*
X258249999Y-159649999D03*
D10*
X258900000Y-159650000D03*
D11*
X258249999Y-161149999D03*
%TD*%
D10*
%TO.C,D71*%
X249850000Y-156900000D03*
D11*
X250549999Y-156899999D03*
X250549999Y-155399999D03*
X247849999Y-155399999D03*
D10*
X248500000Y-155400000D03*
D11*
X247849999Y-156899999D03*
%TD*%
D14*
%TO.C,U3*%
X171362500Y-106450000D03*
X171362500Y-107400000D03*
X171362500Y-108350000D03*
X173637500Y-108350000D03*
X173637500Y-106450000D03*
%TD*%
D10*
%TO.C,D165*%
X202650000Y-37400000D03*
D11*
X203349999Y-37399999D03*
X203349999Y-35899999D03*
X200649999Y-35899999D03*
D10*
X201300000Y-35900000D03*
D11*
X200649999Y-37399999D03*
%TD*%
D10*
%TO.C,D84*%
X219700000Y-170500000D03*
D11*
X220399999Y-170499999D03*
X220399999Y-168999999D03*
X217699999Y-168999999D03*
D10*
X218350000Y-169000000D03*
D11*
X217699999Y-170499999D03*
%TD*%
D10*
%TO.C,D101*%
X254750000Y-151150000D03*
D11*
X255449999Y-151149999D03*
X255449999Y-149649999D03*
X252749999Y-149649999D03*
D10*
X253400000Y-149650000D03*
D11*
X252749999Y-151149999D03*
%TD*%
D15*
%TO.C,C2*%
X189875000Y-111500000D03*
X186925000Y-111500000D03*
%TD*%
D10*
%TO.C,D52*%
X254000000Y-201200000D03*
D11*
X254699999Y-201199999D03*
X254699999Y-199699999D03*
X251999999Y-199699999D03*
D10*
X252650000Y-199700000D03*
D11*
X251999999Y-201199999D03*
%TD*%
D10*
%TO.C,D46*%
X234450000Y-195250000D03*
D11*
X235149999Y-195249999D03*
X235149999Y-193749999D03*
X232449999Y-193749999D03*
D10*
X233100000Y-193750000D03*
D11*
X232449999Y-195249999D03*
%TD*%
D10*
%TO.C,D180*%
X252250000Y-12200000D03*
D11*
X252949999Y-12199999D03*
X252949999Y-10699999D03*
X250249999Y-10699999D03*
D10*
X250900000Y-10700000D03*
D11*
X250249999Y-12199999D03*
%TD*%
D10*
%TO.C,D247*%
X266150000Y-83076393D03*
D11*
X266849999Y-83076392D03*
X266849999Y-81576392D03*
X264149999Y-81576392D03*
D10*
X264800000Y-81576393D03*
D11*
X264149999Y-83076392D03*
%TD*%
D10*
%TO.C,D100*%
X250808893Y-146976393D03*
D11*
X251508892Y-146976392D03*
X251508892Y-145476392D03*
X248808892Y-145476392D03*
D10*
X249458893Y-145476393D03*
D11*
X248808892Y-146976392D03*
%TD*%
D10*
%TO.C,D60*%
X263908893Y-183076393D03*
D11*
X264608892Y-183076392D03*
X264608892Y-181576392D03*
X261908892Y-181576392D03*
D10*
X262558893Y-181576393D03*
D11*
X261908892Y-183076392D03*
%TD*%
D10*
%TO.C,D12*%
X198300000Y-139000000D03*
D11*
X198999999Y-138999999D03*
X198999999Y-137499999D03*
X196299999Y-137499999D03*
D10*
X196950000Y-137500000D03*
D11*
X196299999Y-138999999D03*
%TD*%
D10*
%TO.C,D109*%
X263050000Y-126050000D03*
D11*
X263749999Y-126049999D03*
X263749999Y-124549999D03*
X261049999Y-124549999D03*
D10*
X261700000Y-124550000D03*
D11*
X261049999Y-126049999D03*
%TD*%
D10*
%TO.C,D223*%
X250250000Y-53850000D03*
D11*
X250949999Y-53849999D03*
X250949999Y-52349999D03*
X248249999Y-52349999D03*
D10*
X248900000Y-52350000D03*
D11*
X248249999Y-53849999D03*
%TD*%
D10*
%TO.C,D221*%
X259750000Y-54950000D03*
D11*
X260449999Y-54949999D03*
X260449999Y-53449999D03*
X257749999Y-53449999D03*
D10*
X258400000Y-53450000D03*
D11*
X257749999Y-54949999D03*
%TD*%
%TO.C,D189*%
X310499999Y-8399999D03*
X310499999Y-6899999D03*
X307799999Y-6899999D03*
X307799999Y-8399999D03*
%TD*%
D10*
%TO.C,D94*%
X233008893Y-138076393D03*
D11*
X233708892Y-138076392D03*
X233708892Y-136576392D03*
X231008892Y-136576392D03*
D10*
X231658893Y-136576393D03*
D11*
X231008892Y-138076392D03*
%TD*%
D10*
%TO.C,D57*%
X267508893Y-193076393D03*
D11*
X268208892Y-193076392D03*
X268208892Y-191576392D03*
X265508892Y-191576392D03*
D10*
X266158893Y-191576393D03*
D11*
X265508892Y-193076392D03*
%TD*%
D10*
%TO.C,D156*%
X172650000Y-103800000D03*
D11*
X173349999Y-103799999D03*
X173349999Y-102299999D03*
X170649999Y-102299999D03*
D10*
X171300000Y-102300000D03*
D11*
X170649999Y-103799999D03*
%TD*%
D10*
%TO.C,D11*%
X192650000Y-140550000D03*
D11*
X193349999Y-140549999D03*
X193349999Y-139049999D03*
X190649999Y-139049999D03*
D10*
X191300000Y-139050000D03*
D11*
X190649999Y-140549999D03*
%TD*%
D10*
%TO.C,D62*%
X262250000Y-177050000D03*
D11*
X262949999Y-177049999D03*
X262949999Y-175549999D03*
X260249999Y-175549999D03*
D10*
X260900000Y-175550000D03*
D11*
X260249999Y-177049999D03*
%TD*%
%TO.C,D216*%
X280108892Y-60949999D03*
X280108892Y-59449999D03*
X277408892Y-59449999D03*
X277408892Y-60949999D03*
%TD*%
%TO.C,D229*%
X226049999Y-47849999D03*
X226049999Y-46349999D03*
X223349999Y-46349999D03*
X223349999Y-47849999D03*
%TD*%
%TO.C,D191*%
X314408892Y-16199999D03*
X314408892Y-14699999D03*
X311708892Y-14699999D03*
X311708892Y-16199999D03*
%TD*%
%TO.C,D215*%
X276249999Y-56249999D03*
X276249999Y-54749999D03*
X273549999Y-54749999D03*
X273549999Y-56249999D03*
%TD*%
D10*
%TO.C,D106*%
X267008893Y-137076393D03*
D11*
X267708892Y-137076392D03*
X267708892Y-135576392D03*
X265008892Y-135576392D03*
D10*
X265658893Y-135576393D03*
D11*
X265008892Y-137076392D03*
%TD*%
D10*
%TO.C,D122*%
X213550000Y-89250000D03*
D11*
X214249999Y-89249999D03*
X214249999Y-87749999D03*
X211549999Y-87749999D03*
D10*
X212200000Y-87750000D03*
D11*
X211549999Y-89249999D03*
%TD*%
D10*
%TO.C,D184*%
X262750000Y-4450000D03*
D11*
X263449999Y-4449999D03*
X263449999Y-2949999D03*
X260749999Y-2949999D03*
D10*
X261400000Y-2950000D03*
D11*
X260749999Y-4449999D03*
%TD*%
D10*
%TO.C,D172*%
X225550000Y-18550000D03*
D11*
X226249999Y-18549999D03*
X226249999Y-17049999D03*
X223549999Y-17049999D03*
D10*
X224200000Y-17050000D03*
D11*
X223549999Y-18549999D03*
%TD*%
%TO.C,D231*%
X216908892Y-41576392D03*
X216908892Y-40076392D03*
X214208892Y-40076392D03*
X214208892Y-41576392D03*
%TD*%
D10*
%TO.C,D22*%
X187808893Y-169676393D03*
D11*
X188508892Y-169676392D03*
X188508892Y-168176392D03*
X185808892Y-168176392D03*
D10*
X186458893Y-168176393D03*
D11*
X185808892Y-169676392D03*
%TD*%
D16*
%TO.C,JP1*%
X186180760Y-100219238D03*
X187099999Y-99299999D03*
X188019238Y-98380760D03*
%TD*%
D10*
%TO.C,D155*%
X173308893Y-98676393D03*
D11*
X174008892Y-98676392D03*
X174008892Y-97176392D03*
X171308892Y-97176392D03*
D10*
X171958893Y-97176393D03*
D11*
X171308892Y-98676392D03*
%TD*%
D10*
%TO.C,D129*%
X179989949Y-106470711D03*
D17*
X180484923Y-105975735D03*
X179424263Y-104915075D03*
X177515075Y-106824263D03*
D10*
X177974695Y-106364645D03*
D17*
X178575735Y-107884923D03*
%TD*%
D10*
%TO.C,D32*%
X194200000Y-183100000D03*
D11*
X194899999Y-183099999D03*
X194899999Y-181599999D03*
X192199999Y-181599999D03*
D10*
X192850000Y-181600000D03*
D11*
X192199999Y-183099999D03*
%TD*%
D10*
%TO.C,D79*%
X227400000Y-166300000D03*
D11*
X228099999Y-166299999D03*
X228099999Y-164799999D03*
X225399999Y-164799999D03*
D10*
X226050000Y-164800000D03*
D11*
X225399999Y-166299999D03*
%TD*%
D10*
%TO.C,D144*%
X202608893Y-60176393D03*
D11*
X203308892Y-60176392D03*
X203308892Y-58676392D03*
X200608892Y-58676392D03*
D10*
X201258893Y-58676393D03*
D11*
X200608892Y-60176392D03*
%TD*%
D10*
%TO.C,D34*%
X198050000Y-188350000D03*
D11*
X198749999Y-188349999D03*
X198749999Y-186849999D03*
X196049999Y-186849999D03*
D10*
X196700000Y-186850000D03*
D11*
X196049999Y-188349999D03*
%TD*%
D10*
%TO.C,D29*%
X185800000Y-175000000D03*
D11*
X186499999Y-174999999D03*
X186499999Y-173499999D03*
X183799999Y-173499999D03*
D10*
X184450000Y-173500000D03*
D11*
X183799999Y-174999999D03*
%TD*%
%TO.C,D113*%
X262649999Y-108376392D03*
X262649999Y-106876392D03*
X259949999Y-106876392D03*
X259949999Y-108376392D03*
%TD*%
D10*
%TO.C,D47*%
X238850000Y-193100000D03*
D11*
X239549999Y-193099999D03*
X239549999Y-191599999D03*
X236849999Y-191599999D03*
D10*
X237500000Y-191600000D03*
D11*
X236849999Y-193099999D03*
%TD*%
%TO.C,D213*%
X281508892Y-57176392D03*
X281508892Y-55676392D03*
X278808892Y-55676392D03*
X278808892Y-57176392D03*
%TD*%
D10*
%TO.C,D85*%
X217750000Y-166350000D03*
D11*
X218449999Y-166349999D03*
X218449999Y-164849999D03*
X215749999Y-164849999D03*
D10*
X216400000Y-164850000D03*
D11*
X215749999Y-166349999D03*
%TD*%
D10*
%TO.C,D8*%
X183708893Y-133376393D03*
D11*
X184408892Y-133376392D03*
X184408892Y-131876392D03*
X181708892Y-131876392D03*
D10*
X182358893Y-131876393D03*
D11*
X181708892Y-133376392D03*
%TD*%
%TO.C,D219*%
X270449999Y-57149999D03*
X270449999Y-55649999D03*
X267749999Y-55649999D03*
X267749999Y-57149999D03*
%TD*%
%TO.C,D194*%
X305899999Y-22299999D03*
X305899999Y-20799999D03*
X303199999Y-20799999D03*
X303199999Y-22299999D03*
%TD*%
D10*
%TO.C,D107*%
X267550000Y-133250000D03*
D11*
X268249999Y-133249999D03*
X268249999Y-131749999D03*
X265549999Y-131749999D03*
D10*
X266200000Y-131750000D03*
D11*
X265549999Y-133249999D03*
%TD*%
D10*
%TO.C,D145*%
X197250000Y-57850000D03*
D11*
X197949999Y-57849999D03*
X197949999Y-56349999D03*
X195249999Y-56349999D03*
D10*
X195900000Y-56350000D03*
D11*
X195249999Y-57849999D03*
%TD*%
D10*
%TO.C,D18*%
X208350000Y-167950000D03*
D11*
X209049999Y-167949999D03*
X209049999Y-166449999D03*
X206349999Y-166449999D03*
D10*
X207000000Y-166450000D03*
D11*
X206349999Y-167949999D03*
%TD*%
D10*
%TO.C,D133*%
X210608893Y-116876393D03*
D11*
X211308892Y-116876392D03*
X211308892Y-115376392D03*
X208608892Y-115376392D03*
D10*
X209258893Y-115376393D03*
D11*
X208608892Y-116876392D03*
%TD*%
D10*
%TO.C,D120*%
X221208893Y-88576393D03*
D11*
X221908892Y-88576392D03*
X221908892Y-87076392D03*
X219208892Y-87076392D03*
D10*
X219858893Y-87076393D03*
D11*
X219208892Y-88576392D03*
%TD*%
D10*
%TO.C,D187*%
X272350000Y-3250000D03*
D11*
X273049999Y-3249999D03*
X273049999Y-1749999D03*
X270349999Y-1749999D03*
D10*
X271000000Y-1750000D03*
D11*
X270349999Y-3249999D03*
%TD*%
D10*
%TO.C,D41*%
X219850000Y-199950000D03*
D11*
X220549999Y-199949999D03*
X220549999Y-198449999D03*
X217849999Y-198449999D03*
D10*
X218500000Y-198450000D03*
D11*
X217849999Y-199949999D03*
%TD*%
%TO.C,D256*%
X274299999Y-67199999D03*
X274299999Y-65699999D03*
X271599999Y-65699999D03*
X271599999Y-67199999D03*
%TD*%
D10*
%TO.C,D35*%
X196208893Y-192376393D03*
D11*
X196908892Y-192376392D03*
X196908892Y-190876392D03*
X194208892Y-190876392D03*
D10*
X194858893Y-190876393D03*
D11*
X194208892Y-192376392D03*
%TD*%
%TO.C,D196*%
X305199999Y-26699999D03*
X305199999Y-25199999D03*
X302499999Y-25199999D03*
X302499999Y-26699999D03*
%TD*%
D10*
%TO.C,D227*%
X230908893Y-55776393D03*
D11*
X231608892Y-55776392D03*
X231608892Y-54276392D03*
X228908892Y-54276392D03*
D10*
X229558893Y-54276393D03*
D11*
X228908892Y-55776392D03*
%TD*%
D10*
%TO.C,D232*%
X225508893Y-57076393D03*
D11*
X226208892Y-57076392D03*
X226208892Y-55576392D03*
X223508892Y-55576392D03*
D10*
X224158893Y-55576393D03*
D11*
X223508892Y-57076392D03*
%TD*%
D10*
%TO.C,D89*%
X205650000Y-125250000D03*
D11*
X206349999Y-125249999D03*
X206349999Y-123749999D03*
X203649999Y-123749999D03*
D10*
X204300000Y-123750000D03*
D11*
X203649999Y-125249999D03*
%TD*%
%TO.C,D212*%
X281708892Y-53676392D03*
X281708892Y-52176392D03*
X279008892Y-52176392D03*
X279008892Y-53676392D03*
%TD*%
D10*
%TO.C,D131*%
X184000000Y-114000000D03*
D11*
X184699999Y-113999999D03*
X184699999Y-112499999D03*
X181999999Y-112499999D03*
D10*
X182650000Y-112500000D03*
D11*
X181999999Y-113999999D03*
%TD*%
D10*
%TO.C,D68*%
X255750000Y-159250000D03*
D11*
X256449999Y-159249999D03*
X256449999Y-157749999D03*
X253749999Y-157749999D03*
D10*
X254400000Y-157750000D03*
D11*
X253749999Y-159249999D03*
%TD*%
D10*
%TO.C,D56*%
X267250000Y-198500000D03*
D11*
X267949999Y-198499999D03*
X267949999Y-196999999D03*
X265249999Y-196999999D03*
D10*
X265900000Y-197000000D03*
D11*
X265249999Y-198499999D03*
%TD*%
D10*
%TO.C,D90*%
X212308893Y-124676393D03*
D11*
X213008892Y-124676392D03*
X213008892Y-123176392D03*
X210308892Y-123176392D03*
D10*
X210958893Y-123176393D03*
D11*
X210308892Y-124676392D03*
%TD*%
D10*
%TO.C,D250*%
X277108893Y-79076393D03*
D11*
X277808892Y-79076392D03*
X277808892Y-77576392D03*
X275108892Y-77576392D03*
D10*
X275758893Y-77576393D03*
D11*
X275108892Y-79076392D03*
%TD*%
D10*
%TO.C,D86*%
X215950000Y-162550000D03*
D11*
X216649999Y-162549999D03*
X216649999Y-161049999D03*
X213949999Y-161049999D03*
D10*
X214600000Y-161050000D03*
D11*
X213949999Y-162549999D03*
%TD*%
D18*
%TO.C,C44*%
X266925000Y-85500000D03*
X269875000Y-85500000D03*
%TD*%
D11*
%TO.C,D198*%
X295399999Y-28799999D03*
X295399999Y-27299999D03*
X292699999Y-27299999D03*
X292699999Y-28799999D03*
%TD*%
D19*
%TO.C,C3*%
X279375000Y-5000000D03*
X277825000Y-5000000D03*
%TD*%
D10*
%TO.C,D75*%
X231308893Y-158476393D03*
D11*
X232008892Y-158476392D03*
X232008892Y-156976392D03*
X229308892Y-156976392D03*
D10*
X229958893Y-156976393D03*
D11*
X229308892Y-158476392D03*
%TD*%
%TO.C,D246*%
X271408892Y-83076392D03*
X271408892Y-81576392D03*
X268708892Y-81576392D03*
X268708892Y-83076392D03*
%TD*%
D18*
%TO.C,C40*%
X275225000Y-2600000D03*
X278175000Y-2600000D03*
%TD*%
D10*
%TO.C,D13*%
X201650000Y-143950000D03*
D11*
X202349999Y-143949999D03*
X202349999Y-142449999D03*
X199649999Y-142449999D03*
D10*
X200300000Y-142450000D03*
D11*
X199649999Y-143949999D03*
%TD*%
D10*
%TO.C,D78*%
X228550000Y-162150000D03*
D11*
X229249999Y-162149999D03*
X229249999Y-160649999D03*
X226549999Y-160649999D03*
D10*
X227200000Y-160650000D03*
D11*
X226549999Y-162149999D03*
%TD*%
D10*
%TO.C,D3*%
X173008893Y-122376393D03*
D11*
X173708892Y-122376392D03*
X173708892Y-120876392D03*
X171008892Y-120876392D03*
D10*
X171658893Y-120876393D03*
D11*
X171008892Y-122376392D03*
%TD*%
D10*
%TO.C,D24*%
X180208893Y-161476393D03*
D11*
X180908892Y-161476392D03*
X180908892Y-159976392D03*
X178208892Y-159976392D03*
D10*
X178858893Y-159976393D03*
D11*
X178208892Y-161476392D03*
%TD*%
D10*
%TO.C,D98*%
X241950000Y-137550000D03*
D11*
X242649999Y-137549999D03*
X242649999Y-136049999D03*
X239949999Y-136049999D03*
D10*
X240600000Y-136050000D03*
D11*
X239949999Y-137549999D03*
%TD*%
D10*
%TO.C,D96*%
X233650000Y-148750000D03*
D11*
X234349999Y-148749999D03*
X234349999Y-147249999D03*
X231649999Y-147249999D03*
D10*
X232300000Y-147250000D03*
D11*
X231649999Y-148749999D03*
%TD*%
D10*
%TO.C,D49*%
X242100000Y-198000000D03*
D11*
X242799999Y-197999999D03*
X242799999Y-196499999D03*
X240099999Y-196499999D03*
D10*
X240750000Y-196500000D03*
D11*
X240099999Y-197999999D03*
%TD*%
D10*
%TO.C,D143*%
X206608893Y-64476393D03*
D11*
X207308892Y-64476392D03*
X207308892Y-62976392D03*
X204608892Y-62976392D03*
D10*
X205258893Y-62976393D03*
D11*
X204608892Y-64476392D03*
%TD*%
%TO.C,D138*%
X195449999Y-81249999D03*
X195449999Y-79749999D03*
X192749999Y-79749999D03*
X192749999Y-81249999D03*
%TD*%
D10*
%TO.C,D181*%
X256200000Y-5600000D03*
D11*
X256899999Y-5599999D03*
X256899999Y-4099999D03*
X254199999Y-4099999D03*
D10*
X254850000Y-4100000D03*
D11*
X254199999Y-5599999D03*
%TD*%
D10*
%TO.C,D178*%
X246250000Y-14250000D03*
D11*
X246949999Y-14249999D03*
X246949999Y-12749999D03*
X244249999Y-12749999D03*
D10*
X244900000Y-12750000D03*
D11*
X244249999Y-14249999D03*
%TD*%
%TO.C,D207*%
X295999999Y-45499999D03*
X295999999Y-43999999D03*
X293299999Y-43999999D03*
X293299999Y-45499999D03*
%TD*%
D10*
%TO.C,D14*%
X205808893Y-148176393D03*
D11*
X206508892Y-148176392D03*
X206508892Y-146676392D03*
X203808892Y-146676392D03*
D10*
X204458893Y-146676393D03*
D11*
X203808892Y-148176392D03*
%TD*%
D10*
%TO.C,D82*%
X227400000Y-180400000D03*
D11*
X228099999Y-180399999D03*
X228099999Y-178899999D03*
X225399999Y-178899999D03*
D10*
X226050000Y-178900000D03*
D11*
X225399999Y-180399999D03*
%TD*%
D10*
%TO.C,D175*%
X237450000Y-11850000D03*
D11*
X238149999Y-11849999D03*
X238149999Y-10349999D03*
X235449999Y-10349999D03*
D10*
X236100000Y-10350000D03*
D11*
X235449999Y-11849999D03*
%TD*%
D10*
%TO.C,D44*%
X229408893Y-191376393D03*
D11*
X230108892Y-191376392D03*
X230108892Y-189876392D03*
X227408892Y-189876392D03*
D10*
X228058893Y-189876393D03*
D11*
X227408892Y-191376392D03*
%TD*%
D10*
%TO.C,D226*%
X236408893Y-55476393D03*
D11*
X237108892Y-55476392D03*
X237108892Y-53976392D03*
X234408892Y-53976392D03*
D10*
X235058893Y-53976393D03*
D11*
X234408892Y-55476392D03*
%TD*%
%TO.C,D137*%
X200408892Y-83076392D03*
X200408892Y-81576392D03*
X197708892Y-81576392D03*
X197708892Y-83076392D03*
%TD*%
D10*
%TO.C,D21*%
X193408893Y-170876393D03*
D11*
X194108892Y-170876392D03*
X194108892Y-169376392D03*
X191408892Y-169376392D03*
D10*
X192058893Y-169376393D03*
D11*
X191408892Y-170876392D03*
%TD*%
D10*
%TO.C,D123*%
X210208893Y-84976393D03*
D11*
X210908892Y-84976392D03*
X210908892Y-83476392D03*
X208208892Y-83476392D03*
D10*
X208858893Y-83476393D03*
D11*
X208208892Y-84976392D03*
%TD*%
D10*
%TO.C,D53*%
X256050000Y-196750000D03*
D11*
X256749999Y-196749999D03*
X256749999Y-195249999D03*
X254049999Y-195249999D03*
D10*
X254700000Y-195250000D03*
D11*
X254049999Y-196749999D03*
%TD*%
%TO.C,D190*%
X306208892Y-18276392D03*
X306208892Y-16776392D03*
X303508892Y-16776392D03*
X303508892Y-18276392D03*
%TD*%
D10*
%TO.C,D40*%
X217850000Y-196150000D03*
D11*
X218549999Y-196149999D03*
X218549999Y-194649999D03*
X215849999Y-194649999D03*
D10*
X216500000Y-194650000D03*
D11*
X215849999Y-196149999D03*
%TD*%
D10*
%TO.C,D121*%
X217200000Y-85100000D03*
D11*
X217899999Y-85099999D03*
X217899999Y-83599999D03*
X215199999Y-83599999D03*
D10*
X215850000Y-83600000D03*
D11*
X215199999Y-85099999D03*
%TD*%
D10*
%TO.C,D33*%
X191750000Y-186550000D03*
D11*
X192449999Y-186549999D03*
X192449999Y-185049999D03*
X189749999Y-185049999D03*
D10*
X190400000Y-185050000D03*
D11*
X189749999Y-186549999D03*
%TD*%
D10*
%TO.C,D10*%
X190650000Y-134750000D03*
D11*
X191349999Y-134749999D03*
X191349999Y-133249999D03*
X188649999Y-133249999D03*
D10*
X189300000Y-133250000D03*
D11*
X188649999Y-134749999D03*
%TD*%
D10*
%TO.C,D153*%
X175508893Y-88976393D03*
D11*
X176208892Y-88976392D03*
X176208892Y-87476392D03*
X173508892Y-87476392D03*
D10*
X174158893Y-87476393D03*
D11*
X173508892Y-88976392D03*
%TD*%
D10*
%TO.C,D182*%
X257950000Y-9950000D03*
D11*
X258649999Y-9949999D03*
X258649999Y-8449999D03*
X255949999Y-8449999D03*
D10*
X256600000Y-8450000D03*
D11*
X255949999Y-9949999D03*
%TD*%
D10*
%TO.C,D54*%
X261750000Y-201250000D03*
D11*
X262449999Y-201249999D03*
X262449999Y-199749999D03*
X259749999Y-199749999D03*
D10*
X260400000Y-199750000D03*
D11*
X259749999Y-201249999D03*
%TD*%
D10*
%TO.C,D45*%
X234000000Y-189300000D03*
D11*
X234699999Y-189299999D03*
X234699999Y-187799999D03*
X231999999Y-187799999D03*
D10*
X232650000Y-187800000D03*
D11*
X231999999Y-189299999D03*
%TD*%
%TO.C,D197*%
X296599999Y-24799999D03*
X296599999Y-23299999D03*
X293899999Y-23299999D03*
X293899999Y-24799999D03*
%TD*%
D10*
%TO.C,D2*%
X173750000Y-113150000D03*
D11*
X174449999Y-113149999D03*
X174449999Y-111649999D03*
X171749999Y-111649999D03*
D10*
X172400000Y-111650000D03*
D11*
X171749999Y-113149999D03*
%TD*%
D10*
%TO.C,D88*%
X199508893Y-126276393D03*
D11*
X200208892Y-126276392D03*
X200208892Y-124776392D03*
X197508892Y-124776392D03*
D10*
X198158893Y-124776393D03*
D11*
X197508892Y-126276392D03*
%TD*%
D10*
%TO.C,D162*%
X203850000Y-42350000D03*
D11*
X204549999Y-42349999D03*
X204549999Y-40849999D03*
X201849999Y-40849999D03*
D10*
X202500000Y-40850000D03*
D11*
X201849999Y-42349999D03*
%TD*%
D20*
%TO.C,U1*%
X273550000Y-8337500D03*
X275450000Y-8337500D03*
X274500000Y-6462500D03*
%TD*%
D10*
%TO.C,D176*%
X239450000Y-16650000D03*
D11*
X240149999Y-16649999D03*
X240149999Y-15149999D03*
X237449999Y-15149999D03*
D10*
X238100000Y-15150000D03*
D11*
X237449999Y-16649999D03*
%TD*%
D10*
%TO.C,D72*%
X244750000Y-155550000D03*
D11*
X245449999Y-155549999D03*
X245449999Y-154049999D03*
X242749999Y-154049999D03*
D10*
X243400000Y-154050000D03*
D11*
X242749999Y-155549999D03*
%TD*%
D10*
%TO.C,D108*%
X263850000Y-129750000D03*
D11*
X264549999Y-129749999D03*
X264549999Y-128249999D03*
X261849999Y-128249999D03*
D10*
X262500000Y-128250000D03*
D11*
X261849999Y-129749999D03*
%TD*%
D10*
%TO.C,D103*%
X266700000Y-149800000D03*
D11*
X267399999Y-149799999D03*
X267399999Y-148299999D03*
X264699999Y-148299999D03*
D10*
X265350000Y-148300000D03*
D11*
X264699999Y-149799999D03*
%TD*%
D10*
%TO.C,D63*%
X264950000Y-173150000D03*
D11*
X265649999Y-173149999D03*
X265649999Y-171649999D03*
X262949999Y-171649999D03*
D10*
X263600000Y-171650000D03*
D11*
X262949999Y-173149999D03*
%TD*%
D10*
%TO.C,D95*%
X233300000Y-142800000D03*
D11*
X233999999Y-142799999D03*
X233999999Y-141299999D03*
X231299999Y-141299999D03*
D10*
X231950000Y-141300000D03*
D11*
X231299999Y-142799999D03*
%TD*%
D10*
%TO.C,D170*%
X218200000Y-23700000D03*
D11*
X218899999Y-23699999D03*
X218899999Y-22199999D03*
X216199999Y-22199999D03*
D10*
X216850000Y-22200000D03*
D11*
X216199999Y-23699999D03*
%TD*%
D10*
%TO.C,D132*%
X205408893Y-113876393D03*
D11*
X206108892Y-113876392D03*
X206108892Y-112376392D03*
X203408892Y-112376392D03*
D10*
X204058893Y-112376393D03*
D11*
X203408892Y-113876392D03*
%TD*%
D10*
%TO.C,D30*%
X191450000Y-176650000D03*
D11*
X192149999Y-176649999D03*
X192149999Y-175149999D03*
X189449999Y-175149999D03*
D10*
X190100000Y-175150000D03*
D11*
X189449999Y-176649999D03*
%TD*%
D10*
%TO.C,D16*%
X210650000Y-158750000D03*
D11*
X211349999Y-158749999D03*
X211349999Y-157249999D03*
X208649999Y-157249999D03*
D10*
X209300000Y-157250000D03*
D11*
X208649999Y-158749999D03*
%TD*%
D10*
%TO.C,D19*%
X203850000Y-171150000D03*
D11*
X204549999Y-171149999D03*
X204549999Y-169649999D03*
X201849999Y-169649999D03*
D10*
X202500000Y-169650000D03*
D11*
X201849999Y-171149999D03*
%TD*%
D10*
%TO.C,D239*%
X244050000Y-90550000D03*
D11*
X244749999Y-90549999D03*
X244749999Y-89049999D03*
X242049999Y-89049999D03*
D10*
X242700000Y-89050000D03*
D11*
X242049999Y-90549999D03*
%TD*%
D19*
%TO.C,C42*%
X279375000Y-8400000D03*
X277825000Y-8400000D03*
%TD*%
D10*
%TO.C,D105*%
X269608893Y-141176393D03*
D11*
X270308892Y-141176392D03*
X270308892Y-139676392D03*
X267608892Y-139676392D03*
D10*
X268258893Y-139676393D03*
D11*
X267608892Y-141176392D03*
%TD*%
D10*
%TO.C,D111*%
X264550000Y-116750000D03*
D11*
X265249999Y-116749999D03*
X265249999Y-115249999D03*
X262549999Y-115249999D03*
D10*
X263200000Y-115250000D03*
D11*
X262549999Y-116749999D03*
%TD*%
D10*
%TO.C,D149*%
X181508893Y-70776393D03*
D11*
X182208892Y-70776392D03*
X182208892Y-69276392D03*
X179508892Y-69276392D03*
D10*
X180158893Y-69276393D03*
D11*
X179508892Y-70776392D03*
%TD*%
D10*
%TO.C,D174*%
X232200000Y-15900000D03*
D11*
X232899999Y-15899999D03*
X232899999Y-14399999D03*
X230199999Y-14399999D03*
D10*
X230850000Y-14400000D03*
D11*
X230199999Y-15899999D03*
%TD*%
D19*
%TO.C,C43*%
X279375000Y-6700000D03*
X277825000Y-6700000D03*
%TD*%
D10*
%TO.C,D28*%
X183408893Y-170076393D03*
D11*
X184108892Y-170076392D03*
X184108892Y-168576392D03*
X181408892Y-168576392D03*
D10*
X182058893Y-168576393D03*
D11*
X181408892Y-170076392D03*
%TD*%
D10*
%TO.C,D42*%
X223608893Y-195476393D03*
D11*
X224308892Y-195476392D03*
X224308892Y-193976392D03*
X221608892Y-193976392D03*
D10*
X222258893Y-193976393D03*
D11*
X221608892Y-195476392D03*
%TD*%
D10*
%TO.C,D38*%
X210550000Y-195450000D03*
D11*
X211249999Y-195449999D03*
X211249999Y-193949999D03*
X208549999Y-193949999D03*
D10*
X209200000Y-193950000D03*
D11*
X208549999Y-195449999D03*
%TD*%
D18*
%TO.C,C39*%
X221225000Y-21300000D03*
X224175000Y-21300000D03*
%TD*%
D10*
%TO.C,D48*%
X244950000Y-193350000D03*
D11*
X245649999Y-193349999D03*
X245649999Y-191849999D03*
X242949999Y-191849999D03*
D10*
X243600000Y-191850000D03*
D11*
X242949999Y-193349999D03*
%TD*%
%TO.C,D220*%
X265249999Y-56149999D03*
X265249999Y-54649999D03*
X262549999Y-54649999D03*
X262549999Y-56149999D03*
%TD*%
D10*
%TO.C,D104*%
X266408893Y-145276393D03*
D11*
X267108892Y-145276392D03*
X267108892Y-143776392D03*
X264408892Y-143776392D03*
D10*
X265058893Y-143776393D03*
D11*
X264408892Y-145276392D03*
%TD*%
%TO.C,D115*%
X256049999Y-100549999D03*
X256049999Y-99049999D03*
X253349999Y-99049999D03*
X253349999Y-100549999D03*
%TD*%
%TO.C,D214*%
X284249999Y-60149999D03*
X284249999Y-58649999D03*
X281549999Y-58649999D03*
X281549999Y-60149999D03*
%TD*%
D10*
%TO.C,D87*%
X193708893Y-128176393D03*
D11*
X194408892Y-128176392D03*
X194408892Y-126676392D03*
X191708892Y-126676392D03*
D10*
X192358893Y-126676393D03*
D11*
X191708892Y-128176392D03*
%TD*%
D10*
%TO.C,D93*%
X230008893Y-133676393D03*
D11*
X230708892Y-133676392D03*
X230708892Y-132176392D03*
X228008892Y-132176392D03*
D10*
X228658893Y-132176393D03*
D11*
X228008892Y-133676392D03*
%TD*%
D10*
%TO.C,D154*%
X174708893Y-93876393D03*
D11*
X175408892Y-93876392D03*
X175408892Y-92376392D03*
X172708892Y-92376392D03*
D10*
X173358893Y-92376393D03*
D11*
X172708892Y-93876392D03*
%TD*%
D10*
%TO.C,D252*%
X273608893Y-75376393D03*
D11*
X274308892Y-75376392D03*
X274308892Y-73876392D03*
X271608892Y-73876392D03*
D10*
X272258893Y-73876393D03*
D11*
X271608892Y-75376392D03*
%TD*%
D10*
%TO.C,D147*%
X185708893Y-62976393D03*
D11*
X186408892Y-62976392D03*
X186408892Y-61476392D03*
X183708892Y-61476392D03*
D10*
X184358893Y-61476393D03*
D11*
X183708892Y-62976392D03*
%TD*%
D10*
%TO.C,D69*%
X259900000Y-156600000D03*
D11*
X260599999Y-156599999D03*
X260599999Y-155099999D03*
X257899999Y-155099999D03*
D10*
X258550000Y-155100000D03*
D11*
X257899999Y-156599999D03*
%TD*%
D10*
%TO.C,D39*%
X212500000Y-199900000D03*
D11*
X213199999Y-199899999D03*
X213199999Y-198399999D03*
X210499999Y-198399999D03*
D10*
X211150000Y-198400000D03*
D11*
X210499999Y-199899999D03*
%TD*%
%TO.C,D255*%
X278199999Y-67899999D03*
X278199999Y-66399999D03*
X275499999Y-66399999D03*
X275499999Y-67899999D03*
%TD*%
D10*
%TO.C,D238*%
X241350000Y-85050000D03*
D11*
X242049999Y-85049999D03*
X242049999Y-83549999D03*
X239349999Y-83549999D03*
D10*
X240000000Y-83550000D03*
D11*
X239349999Y-85049999D03*
%TD*%
D12*
%TO.C,J10*%
X224699999Y-156199999D03*
%TD*%
D10*
%TO.C,D117*%
X247950000Y-93750000D03*
D11*
X248649999Y-93749999D03*
X248649999Y-92249999D03*
X245949999Y-92249999D03*
D10*
X246600000Y-92250000D03*
D11*
X245949999Y-93749999D03*
%TD*%
D10*
%TO.C,D243*%
X259650000Y-88150000D03*
D11*
X260349999Y-88149999D03*
X260349999Y-86649999D03*
X257649999Y-86649999D03*
D10*
X258300000Y-86650000D03*
D11*
X257649999Y-88149999D03*
%TD*%
D10*
%TO.C,D91*%
X218550000Y-125350000D03*
D11*
X219249999Y-125349999D03*
X219249999Y-123849999D03*
X216549999Y-123849999D03*
D10*
X217200000Y-123850000D03*
D11*
X216549999Y-125349999D03*
%TD*%
D10*
%TO.C,D148*%
X186150000Y-67750000D03*
D11*
X186849999Y-67749999D03*
X186849999Y-66249999D03*
X184149999Y-66249999D03*
D10*
X184800000Y-66250000D03*
D11*
X184149999Y-67749999D03*
%TD*%
D10*
%TO.C,D17*%
X210200000Y-163200000D03*
D11*
X210899999Y-163199999D03*
X210899999Y-161699999D03*
X208199999Y-161699999D03*
D10*
X208850000Y-161700000D03*
D11*
X208199999Y-163199999D03*
%TD*%
%TO.C,D205*%
X295599999Y-40499999D03*
X295599999Y-38999999D03*
X292899999Y-38999999D03*
X292899999Y-40499999D03*
%TD*%
D10*
%TO.C,D25*%
X178308893Y-157276393D03*
D11*
X179008892Y-157276392D03*
X179008892Y-155776392D03*
X176308892Y-155776392D03*
D10*
X176958893Y-155776393D03*
D11*
X176308892Y-157276392D03*
%TD*%
%TO.C,D204*%
X289899999Y-41299999D03*
X289899999Y-39799999D03*
X287199999Y-39799999D03*
X287199999Y-41299999D03*
%TD*%
D10*
%TO.C,D185*%
X267650000Y-2850000D03*
D11*
X268349999Y-2849999D03*
X268349999Y-1349999D03*
X265649999Y-1349999D03*
D10*
X266300000Y-1350000D03*
D11*
X265649999Y-2849999D03*
%TD*%
D10*
%TO.C,D92*%
X225400000Y-128400000D03*
D11*
X226099999Y-128399999D03*
X226099999Y-126899999D03*
X223399999Y-126899999D03*
D10*
X224050000Y-126900000D03*
D11*
X223399999Y-128399999D03*
%TD*%
D10*
%TO.C,D183*%
X264008893Y-9176393D03*
D11*
X264708892Y-9176392D03*
X264708892Y-7676392D03*
X262008892Y-7676392D03*
D10*
X262658893Y-7676393D03*
D11*
X262008892Y-9176392D03*
%TD*%
D10*
%TO.C,D177*%
X243750000Y-9250000D03*
D11*
X244449999Y-9249999D03*
X244449999Y-7749999D03*
X241749999Y-7749999D03*
D10*
X242400000Y-7750000D03*
D11*
X241749999Y-9249999D03*
%TD*%
%TO.C,D230*%
X220549999Y-45449999D03*
X220549999Y-43949999D03*
X217849999Y-43949999D03*
X217849999Y-45449999D03*
%TD*%
D10*
%TO.C,D20*%
X198850000Y-171650000D03*
D11*
X199549999Y-171649999D03*
X199549999Y-170149999D03*
X196849999Y-170149999D03*
D10*
X197500000Y-170150000D03*
D11*
X196849999Y-171649999D03*
%TD*%
D10*
%TO.C,D142*%
X208450000Y-69400000D03*
D11*
X209149999Y-69399999D03*
X209149999Y-67899999D03*
X206449999Y-67899999D03*
D10*
X207100000Y-67900000D03*
D11*
X206449999Y-69399999D03*
%TD*%
D21*
%TO.C,J1*%
X194329999Y-105629999D03*
X194329999Y-111979999D03*
X195599999Y-105629999D03*
X195599999Y-111979999D03*
X196869999Y-105629999D03*
X196869999Y-111979999D03*
X198139999Y-105629999D03*
X198139999Y-111979999D03*
D22*
X195599999Y-106899999D03*
D23*
X196869999Y-106899999D03*
X195599999Y-108169999D03*
X196869999Y-108169999D03*
X195599999Y-109439999D03*
X196869999Y-109439999D03*
X195599999Y-110709999D03*
X196869999Y-110709999D03*
%TD*%
D24*
%TO.C,X1*%
X284619999Y-4849999D03*
D25*
X284619999Y-7389999D03*
D24*
X287159999Y-4849999D03*
X287159999Y-7389999D03*
D26*
X289700000Y-4850000D03*
X289700000Y-7390000D03*
%TD*%
D11*
%TO.C,D192*%
X313799999Y-20199999D03*
X313799999Y-18699999D03*
X311099999Y-18699999D03*
X311099999Y-20199999D03*
%TD*%
%TO.C,D209*%
X287099999Y-49499999D03*
X287099999Y-47999999D03*
X284399999Y-47999999D03*
X284399999Y-49499999D03*
%TD*%
D10*
%TO.C,D70*%
X254800000Y-155200000D03*
D11*
X255499999Y-155199999D03*
X255499999Y-153699999D03*
X252799999Y-153699999D03*
D10*
X253450000Y-153700000D03*
D11*
X252799999Y-155199999D03*
%TD*%
D10*
%TO.C,D163*%
X209550000Y-43250000D03*
D11*
X210249999Y-43249999D03*
X210249999Y-41749999D03*
X207549999Y-41749999D03*
D10*
X208200000Y-41750000D03*
D11*
X207549999Y-43249999D03*
%TD*%
D18*
%TO.C,C41*%
X230325000Y-129500000D03*
X233275000Y-129500000D03*
%TD*%
D10*
%TO.C,D225*%
X240650000Y-55050000D03*
D11*
X241349999Y-55049999D03*
X241349999Y-53549999D03*
X238649999Y-53549999D03*
D10*
X239300000Y-53550000D03*
D11*
X238649999Y-55049999D03*
%TD*%
D10*
%TO.C,D83*%
X229908893Y-185776393D03*
D11*
X230608892Y-185776392D03*
X230608892Y-184276392D03*
X227908892Y-184276392D03*
D10*
X228558893Y-184276393D03*
D11*
X227908892Y-185776392D03*
%TD*%
%TO.C,D202*%
X301199999Y-38499999D03*
X301199999Y-36999999D03*
X298499999Y-36999999D03*
X298499999Y-38499999D03*
%TD*%
D10*
%TO.C,D112*%
X266008893Y-111876393D03*
D11*
X266708892Y-111876392D03*
X266708892Y-110376392D03*
X264008892Y-110376392D03*
D10*
X264658893Y-110376393D03*
D11*
X264008892Y-111876392D03*
%TD*%
D10*
%TO.C,D240*%
X247208893Y-84676393D03*
D11*
X247908892Y-84676392D03*
X247908892Y-83176392D03*
X245208892Y-83176392D03*
D10*
X245858893Y-83176393D03*
D11*
X245208892Y-84676392D03*
%TD*%
D10*
%TO.C,D244*%
X261308893Y-83876393D03*
D11*
X262008892Y-83876392D03*
X262008892Y-82376392D03*
X259308892Y-82376392D03*
D10*
X259958893Y-82376393D03*
D11*
X259308892Y-83876392D03*
%TD*%
D10*
%TO.C,D61*%
X266908893Y-179376393D03*
D11*
X267608892Y-179376392D03*
X267608892Y-177876392D03*
X264908892Y-177876392D03*
D10*
X265558893Y-177876393D03*
D11*
X264908892Y-179376392D03*
%TD*%
D10*
%TO.C,D241*%
X252808893Y-88476393D03*
D11*
X253508892Y-88476392D03*
X253508892Y-86976392D03*
X250808892Y-86976392D03*
D10*
X251458893Y-86976393D03*
D11*
X250808892Y-88476392D03*
%TD*%
D10*
%TO.C,D1*%
X172708893Y-117976393D03*
D11*
X173408892Y-117976392D03*
X173408892Y-116476392D03*
X170708892Y-116476392D03*
D10*
X171358893Y-116476393D03*
D11*
X170708892Y-117976392D03*
%TD*%
D27*
%TO.C,C38*%
X221500000Y-174800000D03*
X219414034Y-172714034D03*
%TD*%
D10*
%TO.C,D126*%
X199100000Y-94700000D03*
D11*
X199799999Y-94699999D03*
X199799999Y-93199999D03*
X197099999Y-93199999D03*
D10*
X197750000Y-93200000D03*
D11*
X197099999Y-94699999D03*
%TD*%
D10*
%TO.C,D124*%
X208008893Y-88576393D03*
D11*
X208708892Y-88576392D03*
X208708892Y-87076392D03*
X206008892Y-87076392D03*
D10*
X206658893Y-87076393D03*
D11*
X206008892Y-88576392D03*
%TD*%
D10*
%TO.C,D27*%
X182708893Y-150776393D03*
D11*
X183408892Y-150776392D03*
X183408892Y-149276392D03*
X180708892Y-149276392D03*
D10*
X181358893Y-149276393D03*
D11*
X180708892Y-150776392D03*
%TD*%
D10*
%TO.C,D161*%
X197908893Y-42976393D03*
D11*
X198608892Y-42976392D03*
X198608892Y-41476392D03*
X195908892Y-41476392D03*
D10*
X196558893Y-41476393D03*
D11*
X195908892Y-42976392D03*
%TD*%
D10*
%TO.C,D6*%
X178308893Y-129176393D03*
D11*
X179008892Y-129176392D03*
X179008892Y-127676392D03*
X176308892Y-127676392D03*
D10*
X176958893Y-127676393D03*
D11*
X176308892Y-129176392D03*
%TD*%
D10*
%TO.C,D118*%
X231200000Y-87900000D03*
D11*
X231899999Y-87899999D03*
X231899999Y-86399999D03*
X229199999Y-86399999D03*
D10*
X229850000Y-86400000D03*
D11*
X229199999Y-87899999D03*
%TD*%
D10*
%TO.C,D159*%
X194350000Y-48650000D03*
D11*
X195049999Y-48649999D03*
X195049999Y-47149999D03*
X192349999Y-47149999D03*
D10*
X193000000Y-47150000D03*
D11*
X192349999Y-48649999D03*
%TD*%
D10*
%TO.C,D224*%
X245550000Y-54550000D03*
D11*
X246249999Y-54549999D03*
X246249999Y-53049999D03*
X243549999Y-53049999D03*
D10*
X244200000Y-53050000D03*
D11*
X243549999Y-54549999D03*
%TD*%
D10*
%TO.C,D160*%
X201508893Y-46876393D03*
D11*
X202208892Y-46876392D03*
X202208892Y-45376392D03*
X199508892Y-45376392D03*
D10*
X200158893Y-45376393D03*
D11*
X199508892Y-46876392D03*
%TD*%
D10*
%TO.C,D80*%
X225300000Y-170700000D03*
D11*
X225999999Y-170699999D03*
X225999999Y-169199999D03*
X223299999Y-169199999D03*
D10*
X223950000Y-169200000D03*
D11*
X223299999Y-170699999D03*
%TD*%
D10*
%TO.C,D251*%
X277708893Y-75676393D03*
D11*
X278408892Y-75676392D03*
X278408892Y-74176392D03*
X275708892Y-74176392D03*
D10*
X276358893Y-74176393D03*
D11*
X275708892Y-75676392D03*
%TD*%
D10*
%TO.C,D65*%
X262900000Y-167300000D03*
D11*
X263599999Y-167299999D03*
X263599999Y-165799999D03*
X260899999Y-165799999D03*
D10*
X261550000Y-165800000D03*
D11*
X260899999Y-167299999D03*
%TD*%
%TO.C,D228*%
X226708892Y-51276392D03*
X226708892Y-49776392D03*
X224008892Y-49776392D03*
X224008892Y-51276392D03*
%TD*%
D10*
%TO.C,D97*%
X236550000Y-134250000D03*
D11*
X237249999Y-134249999D03*
X237249999Y-132749999D03*
X234549999Y-132749999D03*
D10*
X235200000Y-132750000D03*
D11*
X234549999Y-134249999D03*
%TD*%
D10*
%TO.C,D135*%
X196208893Y-103276393D03*
D11*
X196908892Y-103276392D03*
X196908892Y-101776392D03*
X194208892Y-101776392D03*
D10*
X194858893Y-101776393D03*
D11*
X194208892Y-103276392D03*
%TD*%
D10*
%TO.C,D74*%
X235350000Y-154850000D03*
D11*
X236049999Y-154849999D03*
X236049999Y-153349999D03*
X233349999Y-153349999D03*
D10*
X234000000Y-153350000D03*
D11*
X233349999Y-154849999D03*
%TD*%
D12*
%TO.C,J8*%
X222299999Y-42999999D03*
%TD*%
D10*
%TO.C,D73*%
X240050000Y-155950000D03*
D11*
X240749999Y-155949999D03*
X240749999Y-154449999D03*
X238049999Y-154449999D03*
D10*
X238700000Y-154450000D03*
D11*
X238049999Y-155949999D03*
%TD*%
D28*
%TO.C,J14*%
X172939999Y-146659999D03*
D29*
X175479999Y-146659999D03*
X178019999Y-146659999D03*
X180559999Y-146659999D03*
X183099999Y-146659999D03*
X185639999Y-146659999D03*
X185639999Y-136499999D03*
X183099999Y-136499999D03*
X180559999Y-136499999D03*
X178019999Y-136499999D03*
X175479999Y-136499999D03*
X172939999Y-136499999D03*
%TD*%
D11*
%TO.C,D201*%
X300899999Y-34399999D03*
X300899999Y-32899999D03*
X298199999Y-32899999D03*
X298199999Y-34399999D03*
%TD*%
D10*
%TO.C,D179*%
X248908893Y-6576393D03*
D11*
X249608892Y-6576392D03*
X249608892Y-5076392D03*
X246908892Y-5076392D03*
D10*
X247558893Y-5076393D03*
D11*
X246908892Y-6576392D03*
%TD*%
D30*
%TO.C,C1*%
X298820000Y-2500000D03*
X299780000Y-2500000D03*
%TD*%
D10*
%TO.C,D26*%
X176650000Y-152450000D03*
D11*
X177349999Y-152449999D03*
X177349999Y-150949999D03*
X174649999Y-150949999D03*
D10*
X175300000Y-150950000D03*
D11*
X174649999Y-152449999D03*
%TD*%
D10*
%TO.C,D102*%
X261350000Y-152050000D03*
D11*
X262049999Y-152049999D03*
X262049999Y-150549999D03*
X259349999Y-150549999D03*
D10*
X260000000Y-150550000D03*
D11*
X259349999Y-152049999D03*
%TD*%
%TO.C,D199*%
X293799999Y-32599999D03*
X293799999Y-31099999D03*
X291099999Y-31099999D03*
X291099999Y-32599999D03*
%TD*%
%TO.C,D217*%
X275749999Y-63049999D03*
X275749999Y-61549999D03*
X273049999Y-61549999D03*
X273049999Y-63049999D03*
%TD*%
%TO.C,D203*%
X291499999Y-36999999D03*
X291499999Y-35499999D03*
X288799999Y-35499999D03*
X288799999Y-36999999D03*
%TD*%
D10*
%TO.C,D127*%
X196850000Y-98650000D03*
D11*
X197549999Y-98649999D03*
X197549999Y-97149999D03*
X194849999Y-97149999D03*
D10*
X195500000Y-97150000D03*
D11*
X194849999Y-98649999D03*
%TD*%
D10*
%TO.C,D166*%
X208208893Y-33576393D03*
D11*
X208908892Y-33576392D03*
X208908892Y-32076392D03*
X206208892Y-32076392D03*
D10*
X206858893Y-32076393D03*
D11*
X206208892Y-33576392D03*
%TD*%
D10*
%TO.C,D119*%
X225550000Y-85350000D03*
D11*
X226249999Y-85349999D03*
X226249999Y-83849999D03*
X223549999Y-83849999D03*
D10*
X224200000Y-83850000D03*
D11*
X223549999Y-85349999D03*
%TD*%
D10*
%TO.C,D253*%
X273908893Y-71576393D03*
D11*
X274608892Y-71576392D03*
X274608892Y-70076392D03*
X271908892Y-70076392D03*
D10*
X272558893Y-70076393D03*
D11*
X271908892Y-71576392D03*
%TD*%
D10*
%TO.C,D245*%
X264550000Y-87150000D03*
D11*
X265249999Y-87149999D03*
X265249999Y-85649999D03*
X262549999Y-85649999D03*
D10*
X263200000Y-85650000D03*
D11*
X262549999Y-87149999D03*
%TD*%
D12*
%TO.C,J9*%
X197399999Y-79499999D03*
%TD*%
D10*
%TO.C,D236*%
X235450000Y-85050000D03*
D11*
X236149999Y-85049999D03*
X236149999Y-83549999D03*
X233449999Y-83549999D03*
D10*
X234100000Y-83550000D03*
D11*
X233449999Y-85049999D03*
%TD*%
D10*
%TO.C,D4*%
X172408893Y-127176393D03*
D11*
X173108892Y-127176392D03*
X173108892Y-125676392D03*
X170408892Y-125676392D03*
D10*
X171058893Y-125676393D03*
D11*
X170408892Y-127176392D03*
%TD*%
D10*
%TO.C,D173*%
X232050000Y-20900000D03*
D11*
X232749999Y-20899999D03*
X232749999Y-19399999D03*
X230049999Y-19399999D03*
D10*
X230700000Y-19400000D03*
D11*
X230049999Y-20899999D03*
%TD*%
%TO.C,D188*%
X310008892Y-15176392D03*
X310008892Y-13676392D03*
X307308892Y-13676392D03*
X307308892Y-15176392D03*
%TD*%
%TO.C,D208*%
X288999999Y-46299999D03*
X288999999Y-44799999D03*
X286299999Y-44799999D03*
X286299999Y-46299999D03*
%TD*%
%TO.C,D211*%
X288908892Y-57476392D03*
X288908892Y-55976392D03*
X286208892Y-55976392D03*
X286208892Y-57476392D03*
%TD*%
D10*
%TO.C,D66*%
X258800000Y-164800000D03*
D11*
X259499999Y-164799999D03*
X259499999Y-163299999D03*
X256799999Y-163299999D03*
D10*
X257450000Y-163300000D03*
D11*
X256799999Y-164799999D03*
%TD*%
D10*
%TO.C,D128*%
X192150000Y-97150000D03*
D11*
X192849999Y-97149999D03*
X192849999Y-95649999D03*
X190149999Y-95649999D03*
D10*
X190800000Y-95650000D03*
D11*
X190149999Y-97149999D03*
%TD*%
%TO.C,D200*%
X300099999Y-30399999D03*
X300099999Y-28899999D03*
X297399999Y-28899999D03*
X297399999Y-30399999D03*
%TD*%
D10*
%TO.C,D234*%
X222150000Y-67350000D03*
D11*
X222849999Y-67349999D03*
X222849999Y-65849999D03*
X220149999Y-65849999D03*
D10*
X220800000Y-65850000D03*
D11*
X220149999Y-67349999D03*
%TD*%
%TO.C,D77*%
X224249999Y-153449999D03*
X224249999Y-151949999D03*
X221549999Y-151949999D03*
X221549999Y-153449999D03*
%TD*%
%TO.C,D116*%
X252999999Y-96899999D03*
X252999999Y-95399999D03*
X250299999Y-95399999D03*
X250299999Y-96899999D03*
%TD*%
D10*
%TO.C,D37*%
X204308893Y-196276393D03*
D11*
X205008892Y-196276392D03*
X205008892Y-194776392D03*
X202308892Y-194776392D03*
D10*
X202958893Y-194776393D03*
D11*
X202308892Y-196276392D03*
%TD*%
D10*
%TO.C,D125*%
X204450000Y-92550000D03*
D11*
X205149999Y-92549999D03*
X205149999Y-91049999D03*
X202449999Y-91049999D03*
D10*
X203100000Y-91050000D03*
D11*
X202449999Y-92549999D03*
%TD*%
D10*
%TO.C,D233*%
X223950000Y-62250000D03*
D11*
X224649999Y-62249999D03*
X224649999Y-60749999D03*
X221949999Y-60749999D03*
D10*
X222600000Y-60750000D03*
D11*
X221949999Y-62249999D03*
%TD*%
D10*
%TO.C,D242*%
X255008893Y-84476393D03*
D11*
X255708892Y-84476392D03*
X255708892Y-82976392D03*
X253008892Y-82976392D03*
D10*
X253658893Y-82976393D03*
D11*
X253008892Y-84476392D03*
%TD*%
D10*
%TO.C,D76*%
X229650000Y-154350000D03*
D11*
X230349999Y-154349999D03*
X230349999Y-152849999D03*
X227649999Y-152849999D03*
D10*
X228300000Y-152850000D03*
D11*
X227649999Y-154349999D03*
%TD*%
D10*
%TO.C,D5*%
X172608893Y-131876393D03*
D11*
X173308892Y-131876392D03*
X173308892Y-130376392D03*
X170608892Y-130376392D03*
D10*
X171258893Y-130376393D03*
D11*
X170608892Y-131876392D03*
%TD*%
%TO.C,D254*%
X278899999Y-71499999D03*
X278899999Y-69999999D03*
X276199999Y-69999999D03*
X276199999Y-71499999D03*
%TD*%
D10*
%TO.C,D110*%
X265050000Y-121650000D03*
D11*
X265749999Y-121649999D03*
X265749999Y-120149999D03*
X263049999Y-120149999D03*
D10*
X263700000Y-120150000D03*
D11*
X263049999Y-121649999D03*
%TD*%
D10*
%TO.C,D157*%
X190750000Y-54450000D03*
D11*
X191449999Y-54449999D03*
X191449999Y-52949999D03*
X188749999Y-52949999D03*
D10*
X189400000Y-52950000D03*
D11*
X188749999Y-54449999D03*
%TD*%
D10*
%TO.C,D139*%
X208850000Y-79650000D03*
D11*
X209549999Y-79649999D03*
X209549999Y-78149999D03*
X206849999Y-78149999D03*
D10*
X207500000Y-78150000D03*
D11*
X206849999Y-79649999D03*
%TD*%
D10*
%TO.C,D237*%
X238708893Y-90076393D03*
D11*
X239408892Y-90076392D03*
X239408892Y-88576392D03*
X236708892Y-88576392D03*
D10*
X237358893Y-88576393D03*
D11*
X236708892Y-90076392D03*
%TD*%
D10*
%TO.C,D140*%
X214950000Y-78750000D03*
D11*
X215649999Y-78749999D03*
X215649999Y-77249999D03*
X212949999Y-77249999D03*
D10*
X213600000Y-77250000D03*
D11*
X212949999Y-78749999D03*
%TD*%
D10*
%TO.C,D152*%
X178650000Y-84150000D03*
D11*
X179349999Y-84149999D03*
X179349999Y-82649999D03*
X176649999Y-82649999D03*
D10*
X177300000Y-82650000D03*
D11*
X176649999Y-84149999D03*
%TD*%
D10*
%TO.C,D43*%
X229250000Y-195950000D03*
D11*
X229949999Y-195949999D03*
X229949999Y-194449999D03*
X227249999Y-194449999D03*
D10*
X227900000Y-194450000D03*
D11*
X227249999Y-195949999D03*
%TD*%
D10*
%TO.C,D99*%
X246508893Y-142176393D03*
D11*
X247208892Y-142176392D03*
X247208892Y-140676392D03*
X244508892Y-140676392D03*
D10*
X245158893Y-140676393D03*
D11*
X244508892Y-142176392D03*
%TD*%
D10*
%TO.C,D169*%
X218208893Y-29476393D03*
D11*
X218908892Y-29476392D03*
X218908892Y-27976392D03*
X216208892Y-27976392D03*
D10*
X216858893Y-27976393D03*
D11*
X216208892Y-29476392D03*
%TD*%
D31*
%TO.C,U2*%
X304845000Y-4700000D03*
X303575000Y-4700000D03*
X302305000Y-4700000D03*
X301035000Y-4700000D03*
X299765000Y-4700000D03*
X298495000Y-4700000D03*
X297225000Y-4700000D03*
X295955000Y-4700000D03*
X295955000Y-9700000D03*
X297225000Y-9700000D03*
X298495000Y-9700000D03*
X299765000Y-9700000D03*
X301035000Y-9700000D03*
X302305000Y-9700000D03*
X303575000Y-9700000D03*
X304845000Y-9700000D03*
%TD*%
D10*
%TO.C,D171*%
X224200000Y-25200000D03*
D11*
X224899999Y-25199999D03*
X224899999Y-23699999D03*
X222199999Y-23699999D03*
D10*
X222850000Y-23700000D03*
D11*
X222199999Y-25199999D03*
%TD*%
%TO.C,D195*%
X301399999Y-22499999D03*
X301399999Y-20999999D03*
X298699999Y-20999999D03*
X298699999Y-22499999D03*
%TD*%
D10*
%TO.C,D235*%
X219000000Y-73300000D03*
D11*
X219699999Y-73299999D03*
X219699999Y-71799999D03*
X216999999Y-71799999D03*
D10*
X217650000Y-71800000D03*
D11*
X216999999Y-73299999D03*
%TD*%
D10*
%TO.C,D249*%
X274850000Y-82150000D03*
D11*
X275549999Y-82149999D03*
X275549999Y-80649999D03*
X272849999Y-80649999D03*
D10*
X273500000Y-80650000D03*
D11*
X272849999Y-82149999D03*
%TD*%
D10*
%TO.C,D130*%
X178408893Y-116076393D03*
D11*
X179108892Y-116076392D03*
X179108892Y-114576392D03*
X176408892Y-114576392D03*
D10*
X177058893Y-114576393D03*
D11*
X176408892Y-116076392D03*
%TD*%
D10*
%TO.C,D151*%
X177750000Y-79550000D03*
D11*
X178449999Y-79549999D03*
X178449999Y-78049999D03*
X175749999Y-78049999D03*
D10*
X176400000Y-78050000D03*
D11*
X175749999Y-79549999D03*
%TD*%
D10*
%TO.C,D168*%
X212800000Y-28300000D03*
D11*
X213499999Y-28299999D03*
X213499999Y-26799999D03*
X210799999Y-26799999D03*
D10*
X211450000Y-26800000D03*
D11*
X210799999Y-28299999D03*
%TD*%
D10*
%TO.C,D59*%
X268050000Y-185950000D03*
D11*
X268749999Y-185949999D03*
X268749999Y-184449999D03*
X266049999Y-184449999D03*
D10*
X266700000Y-184450000D03*
D11*
X266049999Y-185949999D03*
%TD*%
M02*
