%TF.GenerationSoftware,KiCad,Pcbnew,(6.99.0-3809-g2741d0eb4b)*%
%TF.CreationDate,2022-10-22T00:35:25-04:00*%
%TF.ProjectId,StarboardWing,53746172-626f-4617-9264-57696e672e6b,rev?*%
%TF.SameCoordinates,Original*%
%TF.FileFunction,Plated,1,4,PTH,Drill*%
%TF.FilePolarity,Positive*%
%FSLAX46Y46*%
G04 Gerber Fmt 4.6, Leading zero omitted, Abs format (unit mm)*
G04 Created by KiCad (PCBNEW (6.99.0-3809-g2741d0eb4b)) date 2022-10-22 00:35:25*
%MOMM*%
%LPD*%
G01*
G04 APERTURE LIST*
%TA.AperFunction,ComponentDrill*%
%ADD10C,0.200000*%
%TD*%
%TA.AperFunction,ComponentDrill*%
%ADD11C,0.300000*%
%TD*%
%TA.AperFunction,ViaDrill*%
%ADD12C,0.400000*%
%TD*%
%TA.AperFunction,ComponentDrill*%
%ADD13C,0.500000*%
%TD*%
%TA.AperFunction,ComponentDrill*%
%ADD14C,0.650000*%
%TD*%
%TA.AperFunction,ComponentDrill*%
%ADD15C,0.800000*%
%TD*%
%TA.AperFunction,ComponentDrill*%
%ADD16C,1.016000*%
%TD*%
G04 APERTURE END LIST*
D10*
%TO.C,J17*%
X284200000Y-53500000D03*
%TO.C,J16*%
X291200000Y-43300000D03*
%TO.C,J15*%
X295400000Y-34600000D03*
%TO.C,J13*%
X300100000Y-25000000D03*
%TO.C,J12*%
X308000000Y-20600000D03*
%TO.C,J11*%
X311300000Y-11100000D03*
D11*
%TO.C,D4*%
X171058893Y-125676393D03*
%TO.C,D5*%
X171258893Y-130376393D03*
%TO.C,D156*%
X171300000Y-102300000D03*
%TO.C,D1*%
X171358893Y-116476393D03*
%TO.C,D3*%
X171658893Y-120876393D03*
%TO.C,D155*%
X171958893Y-97176393D03*
%TO.C,D2*%
X172400000Y-111650000D03*
%TO.C,D4*%
X172408893Y-127176393D03*
%TO.C,D5*%
X172608893Y-131876393D03*
%TO.C,D156*%
X172650000Y-103800000D03*
%TO.C,D1*%
X172708893Y-117976393D03*
%TO.C,D3*%
X173008893Y-122376393D03*
%TO.C,D155*%
X173308893Y-98676393D03*
%TO.C,D154*%
X173358893Y-92376393D03*
%TO.C,D2*%
X173750000Y-113150000D03*
%TO.C,D153*%
X174158893Y-87476393D03*
%TO.C,D154*%
X174708893Y-93876393D03*
%TO.C,D26*%
X175300000Y-150950000D03*
%TO.C,D7*%
X175500000Y-131850000D03*
%TO.C,D153*%
X175508893Y-88976393D03*
%TO.C,D151*%
X176400000Y-78050000D03*
%TO.C,D26*%
X176650000Y-152450000D03*
%TO.C,D7*%
X176850000Y-133350000D03*
%TO.C,D6*%
X176958893Y-127676393D03*
%TO.C,D25*%
X176958893Y-155776393D03*
%TO.C,D130*%
X177058893Y-114576393D03*
%TO.C,D152*%
X177300000Y-82650000D03*
%TO.C,D151*%
X177750000Y-79550000D03*
%TO.C,D129*%
X177974695Y-106364645D03*
%TO.C,D6*%
X178308893Y-129176393D03*
%TO.C,D25*%
X178308893Y-157276393D03*
%TO.C,D130*%
X178408893Y-116076393D03*
%TO.C,D152*%
X178650000Y-84150000D03*
%TO.C,D24*%
X178858893Y-159976393D03*
%TO.C,D129*%
X179989949Y-106470711D03*
%TO.C,D149*%
X180158893Y-69276393D03*
%TO.C,D24*%
X180208893Y-161476393D03*
%TO.C,D150*%
X180600000Y-74250000D03*
%TO.C,D27*%
X181358893Y-149276393D03*
%TO.C,D149*%
X181508893Y-70776393D03*
%TO.C,D150*%
X181950000Y-75750000D03*
%TO.C,D28*%
X182058893Y-168576393D03*
%TO.C,D8*%
X182358893Y-131876393D03*
%TO.C,D131*%
X182650000Y-112500000D03*
%TO.C,D23*%
X182658893Y-164076393D03*
%TO.C,D27*%
X182708893Y-150776393D03*
%TO.C,D28*%
X183408893Y-170076393D03*
%TO.C,D8*%
X183708893Y-133376393D03*
%TO.C,D131*%
X184000000Y-114000000D03*
%TO.C,D23*%
X184008893Y-165576393D03*
%TO.C,D147*%
X184358893Y-61476393D03*
%TO.C,D29*%
X184450000Y-173500000D03*
%TO.C,D148*%
X184800000Y-66250000D03*
%TO.C,D147*%
X185708893Y-62976393D03*
%TO.C,D29*%
X185800000Y-175000000D03*
%TO.C,D148*%
X186150000Y-67750000D03*
%TO.C,D22*%
X186458893Y-168176393D03*
%TO.C,D31*%
X186900000Y-179050000D03*
%TO.C,D9*%
X187100000Y-128450000D03*
%TO.C,D22*%
X187808893Y-169676393D03*
%TO.C,D31*%
X188250000Y-180550000D03*
%TO.C,D9*%
X188450000Y-129950000D03*
%TO.C,D10*%
X189300000Y-133250000D03*
%TO.C,D157*%
X189400000Y-52950000D03*
%TO.C,D146*%
X189800000Y-58150000D03*
%TO.C,D30*%
X190100000Y-175150000D03*
%TO.C,D33*%
X190400000Y-185050000D03*
%TO.C,D10*%
X190650000Y-134750000D03*
%TO.C,D157*%
X190750000Y-54450000D03*
%TO.C,D128*%
X190800000Y-95650000D03*
%TO.C,D146*%
X191150000Y-59650000D03*
%TO.C,D11*%
X191300000Y-139050000D03*
%TO.C,D30*%
X191450000Y-176650000D03*
%TO.C,D33*%
X191750000Y-186550000D03*
%TO.C,D21*%
X192058893Y-169376393D03*
%TO.C,D128*%
X192150000Y-97150000D03*
%TO.C,D87*%
X192358893Y-126676393D03*
%TO.C,D11*%
X192650000Y-140550000D03*
%TO.C,D32*%
X192850000Y-181600000D03*
%TO.C,D159*%
X193000000Y-47150000D03*
%TO.C,D21*%
X193408893Y-170876393D03*
%TO.C,D87*%
X193708893Y-128176393D03*
%TO.C,D32*%
X194200000Y-183100000D03*
%TO.C,D159*%
X194350000Y-48650000D03*
%TO.C,D135*%
X194858893Y-101776393D03*
%TO.C,D35*%
X194858893Y-190876393D03*
%TO.C,D158*%
X195400000Y-51150000D03*
%TO.C,D127*%
X195500000Y-97150000D03*
%TO.C,D145*%
X195900000Y-56350000D03*
%TO.C,D135*%
X196208893Y-103276393D03*
%TO.C,D35*%
X196208893Y-192376393D03*
%TO.C,D161*%
X196558893Y-41476393D03*
%TO.C,D34*%
X196700000Y-186850000D03*
%TO.C,D158*%
X196750000Y-52650000D03*
%TO.C,D127*%
X196850000Y-98650000D03*
%TO.C,D12*%
X196950000Y-137500000D03*
%TO.C,D145*%
X197250000Y-57850000D03*
%TO.C,D20*%
X197500000Y-170150000D03*
%TO.C,D126*%
X197750000Y-93200000D03*
%TO.C,D161*%
X197908893Y-42976393D03*
%TO.C,D34*%
X198050000Y-188350000D03*
%TO.C,D88*%
X198158893Y-124776393D03*
%TO.C,D12*%
X198300000Y-139000000D03*
%TO.C,D20*%
X198850000Y-171650000D03*
%TO.C,D126*%
X199100000Y-94700000D03*
%TO.C,D88*%
X199508893Y-126276393D03*
%TO.C,D160*%
X200158893Y-45376393D03*
%TO.C,D13*%
X200300000Y-142450000D03*
%TO.C,D144*%
X201258893Y-58676393D03*
%TO.C,D36*%
X201258893Y-190276393D03*
%TO.C,D165*%
X201300000Y-35900000D03*
%TO.C,D160*%
X201508893Y-46876393D03*
%TO.C,D13*%
X201650000Y-143950000D03*
%TO.C,D162*%
X202500000Y-40850000D03*
%TO.C,D19*%
X202500000Y-169650000D03*
%TO.C,D144*%
X202608893Y-60176393D03*
%TO.C,D36*%
X202608893Y-191776393D03*
%TO.C,D165*%
X202650000Y-37400000D03*
%TO.C,D37*%
X202958893Y-194776393D03*
%TO.C,D125*%
X203100000Y-91050000D03*
%TO.C,D136*%
X203400000Y-81950000D03*
%TO.C,D162*%
X203850000Y-42350000D03*
%TO.C,D19*%
X203850000Y-171150000D03*
%TO.C,D132*%
X204058893Y-112376393D03*
%TO.C,D89*%
X204300000Y-123750000D03*
%TO.C,D37*%
X204308893Y-196276393D03*
%TO.C,D125*%
X204450000Y-92550000D03*
%TO.C,D14*%
X204458893Y-146676393D03*
%TO.C,D136*%
X204750000Y-83450000D03*
%TO.C,D143*%
X205258893Y-62976393D03*
%TO.C,D132*%
X205408893Y-113876393D03*
%TO.C,D89*%
X205650000Y-125250000D03*
%TO.C,D14*%
X205808893Y-148176393D03*
%TO.C,D143*%
X206608893Y-64476393D03*
%TO.C,D124*%
X206658893Y-87076393D03*
%TO.C,D166*%
X206858893Y-32076393D03*
%TO.C,D18*%
X207000000Y-166450000D03*
%TO.C,D142*%
X207100000Y-67900000D03*
%TO.C,D139*%
X207500000Y-78150000D03*
%TO.C,D124*%
X208008893Y-88576393D03*
%TO.C,D163*%
X208200000Y-41750000D03*
%TO.C,D141*%
X208200000Y-72650000D03*
%TO.C,D166*%
X208208893Y-33576393D03*
%TO.C,D18*%
X208350000Y-167950000D03*
%TO.C,D142*%
X208450000Y-69400000D03*
%TO.C,D164*%
X208500000Y-37550000D03*
%TO.C,D15*%
X208800000Y-152150000D03*
%TO.C,D139*%
X208850000Y-79650000D03*
%TO.C,D17*%
X208850000Y-161700000D03*
%TO.C,D123*%
X208858893Y-83476393D03*
%TO.C,D38*%
X209200000Y-193950000D03*
%TO.C,D133*%
X209258893Y-115376393D03*
%TO.C,D16*%
X209300000Y-157250000D03*
%TO.C,D163*%
X209550000Y-43250000D03*
%TO.C,D141*%
X209550000Y-74150000D03*
%TO.C,D164*%
X209850000Y-39050000D03*
%TO.C,D15*%
X210150000Y-153650000D03*
%TO.C,D17*%
X210200000Y-163200000D03*
%TO.C,D123*%
X210208893Y-84976393D03*
%TO.C,D38*%
X210550000Y-195450000D03*
%TO.C,D133*%
X210608893Y-116876393D03*
%TO.C,D16*%
X210650000Y-158750000D03*
%TO.C,D90*%
X210958893Y-123176393D03*
%TO.C,D39*%
X211150000Y-198400000D03*
%TO.C,D168*%
X211450000Y-26800000D03*
%TO.C,D122*%
X212200000Y-87750000D03*
%TO.C,D90*%
X212308893Y-124676393D03*
%TO.C,D39*%
X212500000Y-199900000D03*
%TO.C,D168*%
X212800000Y-28300000D03*
%TO.C,D167*%
X212858893Y-33976393D03*
%TO.C,D122*%
X213550000Y-89250000D03*
%TO.C,D140*%
X213600000Y-77250000D03*
%TO.C,D167*%
X214208893Y-35476393D03*
%TO.C,D86*%
X214600000Y-161050000D03*
%TO.C,D140*%
X214950000Y-78750000D03*
%TO.C,D134*%
X215158893Y-119276393D03*
%TO.C,D121*%
X215850000Y-83600000D03*
%TO.C,D86*%
X215950000Y-162550000D03*
%TO.C,D85*%
X216400000Y-164850000D03*
%TO.C,D40*%
X216500000Y-194650000D03*
%TO.C,D134*%
X216508893Y-120776393D03*
%TO.C,D170*%
X216850000Y-22200000D03*
%TO.C,D169*%
X216858893Y-27976393D03*
%TO.C,D121*%
X217200000Y-85100000D03*
%TO.C,D91*%
X217200000Y-123850000D03*
%TO.C,D235*%
X217650000Y-71800000D03*
%TO.C,D85*%
X217750000Y-166350000D03*
%TO.C,D40*%
X217850000Y-196150000D03*
%TO.C,D170*%
X218200000Y-23700000D03*
%TO.C,D169*%
X218208893Y-29476393D03*
%TO.C,D84*%
X218350000Y-169000000D03*
%TO.C,D41*%
X218500000Y-198450000D03*
%TO.C,D91*%
X218550000Y-125350000D03*
%TO.C,D235*%
X219000000Y-73300000D03*
%TO.C,D84*%
X219700000Y-170500000D03*
%TO.C,D41*%
X219850000Y-199950000D03*
%TO.C,D120*%
X219858893Y-87076393D03*
%TO.C,D234*%
X220800000Y-65850000D03*
%TO.C,D120*%
X221208893Y-88576393D03*
%TO.C,D234*%
X222150000Y-67350000D03*
%TO.C,D42*%
X222258893Y-193976393D03*
%TO.C,D233*%
X222600000Y-60750000D03*
%TO.C,D171*%
X222850000Y-23700000D03*
%TO.C,D42*%
X223608893Y-195476393D03*
%TO.C,D233*%
X223950000Y-62250000D03*
%TO.C,D80*%
X223950000Y-169200000D03*
%TO.C,D92*%
X224050000Y-126900000D03*
%TO.C,D232*%
X224158893Y-55576393D03*
%TO.C,D172*%
X224200000Y-17050000D03*
%TO.C,D171*%
X224200000Y-25200000D03*
%TO.C,D119*%
X224200000Y-83850000D03*
%TO.C,D81*%
X224200000Y-173950000D03*
%TO.C,D80*%
X225300000Y-170700000D03*
%TO.C,D92*%
X225400000Y-128400000D03*
%TO.C,D232*%
X225508893Y-57076393D03*
%TO.C,D172*%
X225550000Y-18550000D03*
%TO.C,D119*%
X225550000Y-85350000D03*
%TO.C,D81*%
X225550000Y-175450000D03*
%TO.C,D79*%
X226050000Y-164800000D03*
%TO.C,D82*%
X226050000Y-178900000D03*
%TO.C,D78*%
X227200000Y-160650000D03*
%TO.C,D79*%
X227400000Y-166300000D03*
%TO.C,D82*%
X227400000Y-180400000D03*
%TO.C,D43*%
X227900000Y-194450000D03*
%TO.C,D44*%
X228058893Y-189876393D03*
%TO.C,D76*%
X228300000Y-152850000D03*
%TO.C,D78*%
X228550000Y-162150000D03*
%TO.C,D83*%
X228558893Y-184276393D03*
%TO.C,D93*%
X228658893Y-132176393D03*
%TO.C,D43*%
X229250000Y-195950000D03*
%TO.C,D44*%
X229408893Y-191376393D03*
%TO.C,D227*%
X229558893Y-54276393D03*
%TO.C,D76*%
X229650000Y-154350000D03*
%TO.C,D118*%
X229850000Y-86400000D03*
%TO.C,D83*%
X229908893Y-185776393D03*
%TO.C,D75*%
X229958893Y-156976393D03*
%TO.C,D93*%
X230008893Y-133676393D03*
%TO.C,D173*%
X230700000Y-19400000D03*
%TO.C,D174*%
X230850000Y-14400000D03*
%TO.C,D227*%
X230908893Y-55776393D03*
%TO.C,D118*%
X231200000Y-87900000D03*
%TO.C,D75*%
X231308893Y-158476393D03*
%TO.C,D94*%
X231658893Y-136576393D03*
%TO.C,D95*%
X231950000Y-141300000D03*
%TO.C,D173*%
X232050000Y-20900000D03*
%TO.C,D174*%
X232200000Y-15900000D03*
%TO.C,D96*%
X232300000Y-147250000D03*
%TO.C,D45*%
X232650000Y-187800000D03*
%TO.C,D94*%
X233008893Y-138076393D03*
%TO.C,D46*%
X233100000Y-193750000D03*
%TO.C,D95*%
X233300000Y-142800000D03*
%TO.C,D96*%
X233650000Y-148750000D03*
%TO.C,D74*%
X234000000Y-153350000D03*
%TO.C,D45*%
X234000000Y-189300000D03*
%TO.C,D236*%
X234100000Y-83550000D03*
%TO.C,D46*%
X234450000Y-195250000D03*
%TO.C,D226*%
X235058893Y-53976393D03*
%TO.C,D97*%
X235200000Y-132750000D03*
%TO.C,D74*%
X235350000Y-154850000D03*
%TO.C,D236*%
X235450000Y-85050000D03*
%TO.C,D175*%
X236100000Y-10350000D03*
%TO.C,D226*%
X236408893Y-55476393D03*
%TO.C,D97*%
X236550000Y-134250000D03*
%TO.C,D237*%
X237358893Y-88576393D03*
%TO.C,D175*%
X237450000Y-11850000D03*
%TO.C,D47*%
X237500000Y-191600000D03*
%TO.C,D176*%
X238100000Y-15150000D03*
%TO.C,D73*%
X238700000Y-154450000D03*
%TO.C,D237*%
X238708893Y-90076393D03*
%TO.C,D47*%
X238850000Y-193100000D03*
%TO.C,D225*%
X239300000Y-53550000D03*
%TO.C,D176*%
X239450000Y-16650000D03*
%TO.C,D238*%
X240000000Y-83550000D03*
%TO.C,D73*%
X240050000Y-155950000D03*
%TO.C,D98*%
X240600000Y-136050000D03*
%TO.C,D225*%
X240650000Y-55050000D03*
%TO.C,D49*%
X240750000Y-196500000D03*
%TO.C,D238*%
X241350000Y-85050000D03*
%TO.C,D98*%
X241950000Y-137550000D03*
%TO.C,D49*%
X242100000Y-198000000D03*
%TO.C,D177*%
X242400000Y-7750000D03*
%TO.C,D239*%
X242700000Y-89050000D03*
%TO.C,D72*%
X243400000Y-154050000D03*
%TO.C,D48*%
X243600000Y-191850000D03*
%TO.C,D177*%
X243750000Y-9250000D03*
%TO.C,D239*%
X244050000Y-90550000D03*
%TO.C,D224*%
X244200000Y-53050000D03*
%TO.C,D72*%
X244750000Y-155550000D03*
%TO.C,D178*%
X244900000Y-12750000D03*
%TO.C,D48*%
X244950000Y-193350000D03*
%TO.C,D99*%
X245158893Y-140676393D03*
%TO.C,D224*%
X245550000Y-54550000D03*
%TO.C,D240*%
X245858893Y-83176393D03*
%TO.C,D178*%
X246250000Y-14250000D03*
%TO.C,D99*%
X246508893Y-142176393D03*
%TO.C,D117*%
X246600000Y-92250000D03*
%TO.C,D240*%
X247208893Y-84676393D03*
%TO.C,D179*%
X247558893Y-5076393D03*
%TO.C,D50*%
X247800000Y-198250000D03*
%TO.C,D117*%
X247950000Y-93750000D03*
%TO.C,D71*%
X248500000Y-155400000D03*
%TO.C,D223*%
X248900000Y-52350000D03*
%TO.C,D179*%
X248908893Y-6576393D03*
%TO.C,D50*%
X249150000Y-199750000D03*
%TO.C,D100*%
X249458893Y-145476393D03*
%TO.C,D51*%
X249700000Y-193550000D03*
%TO.C,D71*%
X249850000Y-156900000D03*
%TO.C,D223*%
X250250000Y-53850000D03*
%TO.C,D100*%
X250808893Y-146976393D03*
%TO.C,D180*%
X250900000Y-10700000D03*
%TO.C,D51*%
X251050000Y-195050000D03*
%TO.C,D241*%
X251458893Y-86976393D03*
%TO.C,D180*%
X252250000Y-12200000D03*
%TO.C,D52*%
X252650000Y-199700000D03*
%TO.C,D241*%
X252808893Y-88476393D03*
%TO.C,D222*%
X253400000Y-52950000D03*
%TO.C,D101*%
X253400000Y-149650000D03*
%TO.C,D70*%
X253450000Y-153700000D03*
%TO.C,D242*%
X253658893Y-82976393D03*
%TO.C,D52*%
X254000000Y-201200000D03*
%TO.C,D68*%
X254400000Y-157750000D03*
%TO.C,D53*%
X254700000Y-195250000D03*
%TO.C,D222*%
X254750000Y-54450000D03*
%TO.C,D101*%
X254750000Y-151150000D03*
%TO.C,D70*%
X254800000Y-155200000D03*
%TO.C,D181*%
X254850000Y-4100000D03*
%TO.C,D242*%
X255008893Y-84476393D03*
%TO.C,D68*%
X255750000Y-159250000D03*
%TO.C,D53*%
X256050000Y-196750000D03*
%TO.C,D181*%
X256200000Y-5600000D03*
%TO.C,D182*%
X256600000Y-8450000D03*
%TO.C,D66*%
X257450000Y-163300000D03*
%TO.C,D182*%
X257950000Y-9950000D03*
%TO.C,D243*%
X258300000Y-86650000D03*
%TO.C,D221*%
X258400000Y-53450000D03*
%TO.C,D69*%
X258550000Y-155100000D03*
%TO.C,D66*%
X258800000Y-164800000D03*
%TO.C,D67*%
X258900000Y-159650000D03*
%TO.C,D64*%
X259058893Y-169676393D03*
%TO.C,D243*%
X259650000Y-88150000D03*
%TO.C,D221*%
X259750000Y-54950000D03*
%TO.C,D69*%
X259900000Y-156600000D03*
%TO.C,D244*%
X259958893Y-82376393D03*
%TO.C,D102*%
X260000000Y-150550000D03*
%TO.C,D67*%
X260250000Y-161150000D03*
%TO.C,D55*%
X260400000Y-194150000D03*
%TO.C,D54*%
X260400000Y-199750000D03*
%TO.C,D64*%
X260408893Y-171176393D03*
%TO.C,D62*%
X260900000Y-175550000D03*
%TO.C,D244*%
X261308893Y-83876393D03*
%TO.C,D102*%
X261350000Y-152050000D03*
%TO.C,D184*%
X261400000Y-2950000D03*
%TO.C,D65*%
X261550000Y-165800000D03*
%TO.C,D109*%
X261700000Y-124550000D03*
%TO.C,D55*%
X261750000Y-195650000D03*
%TO.C,D54*%
X261750000Y-201250000D03*
%TO.C,D62*%
X262250000Y-177050000D03*
%TO.C,D108*%
X262500000Y-128250000D03*
%TO.C,D60*%
X262558893Y-181576393D03*
%TO.C,D183*%
X262658893Y-7676393D03*
%TO.C,D184*%
X262750000Y-4450000D03*
%TO.C,D58*%
X262858893Y-188176393D03*
%TO.C,D65*%
X262900000Y-167300000D03*
%TO.C,D109*%
X263050000Y-126050000D03*
%TO.C,D245*%
X263200000Y-85650000D03*
%TO.C,D111*%
X263200000Y-115250000D03*
%TO.C,D63*%
X263600000Y-171650000D03*
%TO.C,D110*%
X263700000Y-120150000D03*
%TO.C,D108*%
X263850000Y-129750000D03*
%TO.C,D60*%
X263908893Y-183076393D03*
%TO.C,D183*%
X264008893Y-9176393D03*
%TO.C,D58*%
X264208893Y-189676393D03*
%TO.C,D245*%
X264550000Y-87150000D03*
%TO.C,D111*%
X264550000Y-116750000D03*
%TO.C,D112*%
X264658893Y-110376393D03*
%TO.C,D247*%
X264800000Y-81576393D03*
%TO.C,D63*%
X264950000Y-173150000D03*
%TO.C,D110*%
X265050000Y-121650000D03*
%TO.C,D104*%
X265058893Y-143776393D03*
%TO.C,D103*%
X265350000Y-148300000D03*
%TO.C,D61*%
X265558893Y-177876393D03*
%TO.C,D106*%
X265658893Y-135576393D03*
%TO.C,D56*%
X265900000Y-197000000D03*
%TO.C,D112*%
X266008893Y-111876393D03*
%TO.C,D247*%
X266150000Y-83076393D03*
%TO.C,D57*%
X266158893Y-191576393D03*
%TO.C,D107*%
X266200000Y-131750000D03*
%TO.C,D185*%
X266300000Y-1350000D03*
%TO.C,D104*%
X266408893Y-145276393D03*
%TO.C,D103*%
X266700000Y-149800000D03*
%TO.C,D59*%
X266700000Y-184450000D03*
%TO.C,D61*%
X266908893Y-179376393D03*
%TO.C,D106*%
X267008893Y-137076393D03*
%TO.C,D56*%
X267250000Y-198500000D03*
%TO.C,D57*%
X267508893Y-193076393D03*
%TO.C,D107*%
X267550000Y-133250000D03*
%TO.C,D185*%
X267650000Y-2850000D03*
%TO.C,D59*%
X268050000Y-185950000D03*
%TO.C,D105*%
X268258893Y-139676393D03*
%TO.C,D186*%
X268300000Y-6450000D03*
%TO.C,D105*%
X269608893Y-141176393D03*
%TO.C,D186*%
X269650000Y-7950000D03*
%TO.C,D248*%
X270158893Y-77476393D03*
%TO.C,D187*%
X271000000Y-1750000D03*
%TO.C,D248*%
X271508893Y-78976393D03*
%TO.C,D252*%
X272258893Y-73876393D03*
%TO.C,D187*%
X272350000Y-3250000D03*
%TO.C,D253*%
X272558893Y-70076393D03*
%TO.C,D249*%
X273500000Y-80650000D03*
%TO.C,D252*%
X273608893Y-75376393D03*
%TO.C,D253*%
X273908893Y-71576393D03*
%TO.C,D249*%
X274850000Y-82150000D03*
%TO.C,J18*%
X275000000Y-58900000D03*
%TO.C,D250*%
X275758893Y-77576393D03*
%TO.C,D251*%
X276358893Y-74176393D03*
%TO.C,D250*%
X277108893Y-79076393D03*
%TO.C,D251*%
X277708893Y-75676393D03*
%TD*%
D12*
X170700000Y-108700000D03*
X172300000Y-114600000D03*
X172600000Y-107400000D03*
X173000000Y-119100000D03*
X174800000Y-106800000D03*
X182900000Y-101200000D03*
X184000000Y-103300000D03*
X184500000Y-99700000D03*
X187038477Y-112319944D03*
X189600000Y-111624500D03*
X193587225Y-110485340D03*
X194463428Y-109491143D03*
X194475000Y-106900000D03*
X194661114Y-108499424D03*
X195500000Y-103975500D03*
X196063472Y-100198835D03*
X197925999Y-107037049D03*
X198069581Y-108333681D03*
X198286339Y-109311339D03*
X198599502Y-97300000D03*
X199500000Y-111300000D03*
X200224500Y-106300000D03*
X203500000Y-56100000D03*
X204100000Y-90000000D03*
X204700000Y-80000000D03*
X206000000Y-57900000D03*
X207500000Y-59600000D03*
X211245569Y-81720971D03*
X214300000Y-39000000D03*
X215000000Y-42600000D03*
X217000000Y-41924000D03*
X218062904Y-41224500D03*
X220500000Y-21300000D03*
X225912299Y-22712299D03*
X229500000Y-129800000D03*
X234300000Y-129700000D03*
X250400000Y-93700000D03*
X260000000Y-127300000D03*
X261300000Y-80000000D03*
X263800000Y-135500000D03*
X264050000Y-109150000D03*
X264300000Y-105700000D03*
X265200000Y-57300000D03*
X266505387Y-54899500D03*
X267200000Y-86600000D03*
X269600000Y-81600000D03*
X270000000Y-73900000D03*
X270000000Y-74900000D03*
X270110377Y-75893389D03*
X270600000Y-4200000D03*
X271400000Y-83900000D03*
X272931161Y-9149500D03*
X274800000Y-5000000D03*
X276100000Y-69500000D03*
X277400000Y-70300000D03*
X277825000Y-3925000D03*
X278500000Y-72000000D03*
X289500000Y-1600000D03*
X291600000Y-1700000D03*
X294600000Y-1500000D03*
X296100000Y-11100000D03*
X297235446Y-10359822D03*
X298200000Y-11100000D03*
X299800000Y-10800000D03*
X300000000Y-6100000D03*
X300300000Y-2100000D03*
X300900000Y-11100000D03*
X301000000Y-6000000D03*
X302200000Y-11100000D03*
X302300000Y-6200000D03*
X303500000Y-6100000D03*
X303500000Y-11100000D03*
X304900000Y-11500000D03*
X306600000Y-4400000D03*
D13*
%TO.C,J9*%
X197400000Y-79500000D03*
%TO.C,J8*%
X222300000Y-43000000D03*
%TO.C,J10*%
X224700000Y-156200000D03*
%TO.C,J2*%
X258100000Y-99900000D03*
D14*
%TO.C,J1*%
X194330000Y-105630000D03*
X194330000Y-111980000D03*
X195600000Y-105630000D03*
X195600000Y-111980000D03*
X196870000Y-105630000D03*
X196870000Y-111980000D03*
X198140000Y-105630000D03*
X198140000Y-111980000D03*
D15*
%TO.C,J14*%
X172940000Y-136500000D03*
X172940000Y-146660000D03*
X175480000Y-136500000D03*
X175480000Y-146660000D03*
X178020000Y-136500000D03*
X178020000Y-146660000D03*
X180560000Y-136500000D03*
X180560000Y-146660000D03*
X183100000Y-136500000D03*
X183100000Y-146660000D03*
X185640000Y-136500000D03*
X185640000Y-146660000D03*
D16*
%TO.C,X1*%
X284620000Y-4850000D03*
X284620000Y-7390000D03*
X287160000Y-4850000D03*
X287160000Y-7390000D03*
X289700000Y-4850000D03*
X289700000Y-7390000D03*
M02*
