%TF.GenerationSoftware,KiCad,Pcbnew,(6.99.0-3809-g2741d0eb4b)*%
%TF.CreationDate,2022-10-22T00:25:52-04:00*%
%TF.ProjectId,StarboardWing,53746172-626f-4617-9264-57696e672e6b,rev?*%
%TF.SameCoordinates,Original*%
%TF.FileFunction,Copper,L1,Top*%
%TF.FilePolarity,Positive*%
%FSLAX46Y46*%
G04 Gerber Fmt 4.6, Leading zero omitted, Abs format (unit mm)*
G04 Created by KiCad (PCBNEW (6.99.0-3809-g2741d0eb4b)) date 2022-10-22 00:25:52*
%MOMM*%
%LPD*%
G01*
G04 APERTURE LIST*
G04 Aperture macros list*
%AMRoundRect*
0 Rectangle with rounded corners*
0 $1 Rounding radius*
0 $2 $3 $4 $5 $6 $7 $8 $9 X,Y pos of 4 corners*
0 Add a 4 corners polygon primitive as box body*
4,1,4,$2,$3,$4,$5,$6,$7,$8,$9,$2,$3,0*
0 Add four circle primitives for the rounded corners*
1,1,$1+$1,$2,$3*
1,1,$1+$1,$4,$5*
1,1,$1+$1,$6,$7*
1,1,$1+$1,$8,$9*
0 Add four rect primitives between the rounded corners*
20,1,$1+$1,$2,$3,$4,$5,0*
20,1,$1+$1,$4,$5,$6,$7,0*
20,1,$1+$1,$6,$7,$8,$9,0*
20,1,$1+$1,$8,$9,$2,$3,0*%
%AMRotRect*
0 Rectangle, with rotation*
0 The origin of the aperture is its center*
0 $1 length*
0 $2 width*
0 $3 Rotation angle, in degrees counterclockwise*
0 Add horizontal line*
21,1,$1,$2,0,0,$3*%
G04 Aperture macros list end*
%TA.AperFunction,ComponentPad*%
%ADD10C,0.600000*%
%TD*%
%TA.AperFunction,SMDPad,CuDef*%
%ADD11R,0.900000X0.750000*%
%TD*%
%TA.AperFunction,ComponentPad*%
%ADD12R,0.500000X0.500000*%
%TD*%
%TA.AperFunction,ComponentPad*%
%ADD13R,1.000000X1.000000*%
%TD*%
%TA.AperFunction,SMDPad,CuDef*%
%ADD14RoundRect,0.150000X-0.256326X-0.468458X0.468458X0.256326X0.256326X0.468458X-0.468458X-0.256326X0*%
%TD*%
%TA.AperFunction,SMDPad,CuDef*%
%ADD15RoundRect,0.150000X-0.512500X-0.150000X0.512500X-0.150000X0.512500X0.150000X-0.512500X0.150000X0*%
%TD*%
%TA.AperFunction,SMDPad,CuDef*%
%ADD16RoundRect,0.250000X0.325000X0.650000X-0.325000X0.650000X-0.325000X-0.650000X0.325000X-0.650000X0*%
%TD*%
%TA.AperFunction,SMDPad,CuDef*%
%ADD17RotRect,1.000000X1.500000X45.000000*%
%TD*%
%TA.AperFunction,SMDPad,CuDef*%
%ADD18RotRect,0.900000X0.750000X45.000000*%
%TD*%
%TA.AperFunction,SMDPad,CuDef*%
%ADD19RoundRect,0.250000X-0.325000X-0.650000X0.325000X-0.650000X0.325000X0.650000X-0.325000X0.650000X0*%
%TD*%
%TA.AperFunction,SMDPad,CuDef*%
%ADD20RoundRect,0.225000X0.225000X0.250000X-0.225000X0.250000X-0.225000X-0.250000X0.225000X-0.250000X0*%
%TD*%
%TA.AperFunction,SMDPad,CuDef*%
%ADD21RoundRect,0.150000X0.150000X-0.587500X0.150000X0.587500X-0.150000X0.587500X-0.150000X-0.587500X0*%
%TD*%
%TA.AperFunction,ComponentPad*%
%ADD22O,1.000000X1.000000*%
%TD*%
%TA.AperFunction,SMDPad,CuDef*%
%ADD23R,0.750000X0.750000*%
%TD*%
%TA.AperFunction,SMDPad,CuDef*%
%ADD24O,0.750000X0.750000*%
%TD*%
%TA.AperFunction,ComponentPad*%
%ADD25O,1.727200X1.727200*%
%TD*%
%TA.AperFunction,ComponentPad*%
%ADD26R,1.727200X1.727200*%
%TD*%
%TA.AperFunction,ComponentPad*%
%ADD27C,1.727200*%
%TD*%
%TA.AperFunction,SMDPad,CuDef*%
%ADD28RoundRect,0.250000X0.689429X0.229810X0.229810X0.689429X-0.689429X-0.229810X-0.229810X-0.689429X0*%
%TD*%
%TA.AperFunction,ComponentPad*%
%ADD29R,1.600000X2.400000*%
%TD*%
%TA.AperFunction,ComponentPad*%
%ADD30O,1.600000X2.400000*%
%TD*%
%TA.AperFunction,SMDPad,CuDef*%
%ADD31RoundRect,0.140000X-0.140000X-0.170000X0.140000X-0.170000X0.140000X0.170000X-0.140000X0.170000X0*%
%TD*%
%TA.AperFunction,SMDPad,CuDef*%
%ADD32RoundRect,0.150000X-0.150000X0.850000X-0.150000X-0.850000X0.150000X-0.850000X0.150000X0.850000X0*%
%TD*%
%TA.AperFunction,ViaPad*%
%ADD33C,0.800000*%
%TD*%
%TA.AperFunction,Conductor*%
%ADD34C,0.400000*%
%TD*%
%TA.AperFunction,Conductor*%
%ADD35C,0.100000*%
%TD*%
%TA.AperFunction,Conductor*%
%ADD36C,0.200000*%
%TD*%
%TA.AperFunction,Conductor*%
%ADD37C,0.250000*%
%TD*%
%TA.AperFunction,Conductor*%
%ADD38C,0.300000*%
%TD*%
G04 APERTURE END LIST*
%TO.C,JP1*%
G36*
X187029289Y-99794975D02*
G01*
X186675736Y-100148528D01*
X186251472Y-99724264D01*
X186605025Y-99370711D01*
X187029289Y-99794975D01*
G37*
%TD*%
D10*
%TO.P,D136,1,VSS*%
%TO.N,/GND*%
X204750000Y-83450000D03*
D11*
X205449999Y-83449999D03*
%TO.P,D136,2,DIN*%
%TO.N,Net-(D135-DOUT)*%
X205449999Y-81949999D03*
%TO.P,D136,3,VDD*%
%TO.N,/5V*%
X202749999Y-81949999D03*
D10*
X203400000Y-81950000D03*
D11*
%TO.P,D136,4,DOUT*%
%TO.N,Net-(D136-DOUT)*%
X202749999Y-83449999D03*
%TD*%
D10*
%TO.P,D150,1,VSS*%
%TO.N,/GND*%
X181950000Y-75750000D03*
D11*
X182649999Y-75749999D03*
%TO.P,D150,2,DIN*%
%TO.N,Net-(D149-DOUT)*%
X182649999Y-74249999D03*
%TO.P,D150,3,VDD*%
%TO.N,/5V*%
X179949999Y-74249999D03*
D10*
X180600000Y-74250000D03*
D11*
%TO.P,D150,4,DOUT*%
%TO.N,Net-(D150-DOUT)*%
X179949999Y-75749999D03*
%TD*%
D12*
%TO.P,J17,1,Pin_1*%
%TO.N,Net-(U2-CH5)*%
X284199999Y-53499999D03*
%TD*%
D10*
%TO.P,D23,1,VSS*%
%TO.N,/GND*%
X184008893Y-165576393D03*
D11*
X184708892Y-165576392D03*
%TO.P,D23,2,DIN*%
%TO.N,Net-(D22-DOUT)*%
X184708892Y-164076392D03*
%TO.P,D23,3,VDD*%
%TO.N,/5V*%
X182008892Y-164076392D03*
D10*
X182658893Y-164076393D03*
D11*
%TO.P,D23,4,DOUT*%
%TO.N,Net-(D23-DOUT)*%
X182008892Y-165576392D03*
%TD*%
D10*
%TO.P,D9,1,VSS*%
%TO.N,/GND*%
X188450000Y-129950000D03*
D11*
X189149999Y-129949999D03*
%TO.P,D9,2,DIN*%
%TO.N,Net-(D8-DOUT)*%
X189149999Y-128449999D03*
%TO.P,D9,3,VDD*%
%TO.N,/5V*%
X186449999Y-128449999D03*
D10*
X187100000Y-128450000D03*
D11*
%TO.P,D9,4,DOUT*%
%TO.N,Net-(D10-DIN)*%
X186449999Y-129949999D03*
%TD*%
D10*
%TO.P,D134,1,VSS*%
%TO.N,/GND*%
X216508893Y-120776393D03*
D11*
X217208892Y-120776392D03*
%TO.P,D134,2,DIN*%
%TO.N,Net-(D133-DOUT)*%
X217208892Y-119276392D03*
%TO.P,D134,3,VDD*%
%TO.N,/5V*%
X214508892Y-119276392D03*
D10*
X215158893Y-119276393D03*
D11*
%TO.P,D134,4,DOUT*%
%TO.N,Net-(D134-DOUT)*%
X214508892Y-120776392D03*
%TD*%
D10*
%TO.P,D81,1,VSS*%
%TO.N,/GND*%
X225550000Y-175450000D03*
D11*
X226249999Y-175449999D03*
%TO.P,D81,2,DIN*%
%TO.N,Net-(D80-DOUT)*%
X226249999Y-173949999D03*
%TO.P,D81,3,VDD*%
%TO.N,/5V*%
X223549999Y-173949999D03*
D10*
X224200000Y-173950000D03*
D11*
%TO.P,D81,4,DOUT*%
%TO.N,Net-(D81-DOUT)*%
X223549999Y-175449999D03*
%TD*%
D10*
%TO.P,D7,1,VSS*%
%TO.N,/GND*%
X176850000Y-133350000D03*
D11*
X177549999Y-133349999D03*
%TO.P,D7,2,DIN*%
%TO.N,Net-(D6-DOUT)*%
X177549999Y-131849999D03*
%TO.P,D7,3,VDD*%
%TO.N,/5V*%
X174849999Y-131849999D03*
D10*
X175500000Y-131850000D03*
D11*
%TO.P,D7,4,DOUT*%
%TO.N,Net-(D7-DOUT)*%
X174849999Y-133349999D03*
%TD*%
%TO.P,D193,1,VSS*%
%TO.N,/GND*%
X311299999Y-24299999D03*
%TO.P,D193,2,DIN*%
%TO.N,Net-(D192-DOUT)*%
X311299999Y-22799999D03*
%TO.P,D193,3,VDD*%
%TO.N,/5V*%
X308599999Y-22799999D03*
%TO.P,D193,4,DOUT*%
%TO.N,Net-(D193-DOUT)*%
X308599999Y-24299999D03*
%TD*%
D10*
%TO.P,D158,1,VSS*%
%TO.N,/GND*%
X196750000Y-52650000D03*
D11*
X197449999Y-52649999D03*
%TO.P,D158,2,DIN*%
%TO.N,Net-(D157-DOUT)*%
X197449999Y-51149999D03*
%TO.P,D158,3,VDD*%
%TO.N,/5V*%
X194749999Y-51149999D03*
D10*
X195400000Y-51150000D03*
D11*
%TO.P,D158,4,DOUT*%
%TO.N,Net-(D158-DOUT)*%
X194749999Y-52649999D03*
%TD*%
%TO.P,D114,1,VSS*%
%TO.N,/GND*%
X261549999Y-104349999D03*
%TO.P,D114,2,DIN*%
%TO.N,Net-(D113-DOUT)*%
X261549999Y-102849999D03*
%TO.P,D114,3,VDD*%
%TO.N,/5V*%
X258849999Y-102849999D03*
%TO.P,D114,4,DOUT*%
%TO.N,Net-(D114-DOUT)*%
X258849999Y-104349999D03*
%TD*%
D10*
%TO.P,D36,1,VSS*%
%TO.N,/GND*%
X202608893Y-191776393D03*
D11*
X203308892Y-191776392D03*
%TO.P,D36,2,DIN*%
%TO.N,Net-(D35-DOUT)*%
X203308892Y-190276392D03*
%TO.P,D36,3,VDD*%
%TO.N,/5V*%
X200608892Y-190276392D03*
D10*
X201258893Y-190276393D03*
D11*
%TO.P,D36,4,DOUT*%
%TO.N,Net-(D36-DOUT)*%
X200608892Y-191776392D03*
%TD*%
%TO.P,D218,1,VSS*%
%TO.N,/GND*%
X271349999Y-60849999D03*
%TO.P,D218,2,DIN*%
%TO.N,Net-(D217-DOUT)*%
X271349999Y-59349999D03*
%TO.P,D218,3,VDD*%
%TO.N,/5V*%
X268649999Y-59349999D03*
%TO.P,D218,4,DOUT*%
%TO.N,Net-(D218-DOUT)*%
X268649999Y-60849999D03*
%TD*%
D10*
%TO.P,D248,1,VSS*%
%TO.N,/GND*%
X271508893Y-78976393D03*
D11*
X272208892Y-78976392D03*
%TO.P,D248,2,DIN*%
%TO.N,Net-(D247-DOUT)*%
X272208892Y-77476392D03*
%TO.P,D248,3,VDD*%
%TO.N,/5V*%
X269508892Y-77476392D03*
D10*
X270158893Y-77476393D03*
D11*
%TO.P,D248,4,DOUT*%
%TO.N,Net-(D248-DOUT)*%
X269508892Y-78976392D03*
%TD*%
D13*
%TO.P,J2,1,Pin_1*%
%TO.N,Net-(U2-CH3)*%
X258099999Y-99899999D03*
%TD*%
D10*
%TO.P,D55,1,VSS*%
%TO.N,/GND*%
X261750000Y-195650000D03*
D11*
X262449999Y-195649999D03*
%TO.P,D55,2,DIN*%
%TO.N,Net-(D54-DOUT)*%
X262449999Y-194149999D03*
%TO.P,D55,3,VDD*%
%TO.N,/5V*%
X259749999Y-194149999D03*
D10*
X260400000Y-194150000D03*
D11*
%TO.P,D55,4,DOUT*%
%TO.N,Net-(D55-DOUT)*%
X259749999Y-195649999D03*
%TD*%
D10*
%TO.P,D141,1,VSS*%
%TO.N,/GND*%
X209550000Y-74150000D03*
D11*
X210249999Y-74149999D03*
%TO.P,D141,2,DIN*%
%TO.N,Net-(D140-DOUT)*%
X210249999Y-72649999D03*
%TO.P,D141,3,VDD*%
%TO.N,/5V*%
X207549999Y-72649999D03*
D10*
X208200000Y-72650000D03*
D11*
%TO.P,D141,4,DOUT*%
%TO.N,Net-(D141-DOUT)*%
X207549999Y-74149999D03*
%TD*%
D10*
%TO.P,D222,1,VSS*%
%TO.N,/GND*%
X254750000Y-54450000D03*
D11*
X255449999Y-54449999D03*
%TO.P,D222,2,DIN*%
%TO.N,Net-(D221-DOUT)*%
X255449999Y-52949999D03*
%TO.P,D222,3,VDD*%
%TO.N,/5V*%
X252749999Y-52949999D03*
D10*
X253400000Y-52950000D03*
D11*
%TO.P,D222,4,DOUT*%
%TO.N,Net-(D222-DOUT)*%
X252749999Y-54449999D03*
%TD*%
D10*
%TO.P,D146,1,VSS*%
%TO.N,/GND*%
X191150000Y-59650000D03*
D11*
X191849999Y-59649999D03*
%TO.P,D146,2,DIN*%
%TO.N,Net-(D145-DOUT)*%
X191849999Y-58149999D03*
%TO.P,D146,3,VDD*%
%TO.N,/5V*%
X189149999Y-58149999D03*
D10*
X189800000Y-58150000D03*
D11*
%TO.P,D146,4,DOUT*%
%TO.N,Net-(D146-DOUT)*%
X189149999Y-59649999D03*
%TD*%
D10*
%TO.P,D186,1,VSS*%
%TO.N,/GND*%
X269650000Y-7950000D03*
D11*
X270349999Y-7949999D03*
%TO.P,D186,2,DIN*%
%TO.N,Net-(D185-DOUT)*%
X270349999Y-6449999D03*
%TO.P,D186,3,VDD*%
%TO.N,/5V*%
X267649999Y-6449999D03*
D10*
X268300000Y-6450000D03*
D11*
%TO.P,D186,4,DOUT*%
%TO.N,Net-(D186-DOUT)*%
X267649999Y-7949999D03*
%TD*%
D10*
%TO.P,D164,1,VSS*%
%TO.N,/GND*%
X209850000Y-39050000D03*
D11*
X210549999Y-39049999D03*
%TO.P,D164,2,DIN*%
%TO.N,Net-(D163-DOUT)*%
X210549999Y-37549999D03*
%TO.P,D164,3,VDD*%
%TO.N,/5V*%
X207849999Y-37549999D03*
D10*
X208500000Y-37550000D03*
D11*
%TO.P,D164,4,DOUT*%
%TO.N,Net-(D164-DOUT)*%
X207849999Y-39049999D03*
%TD*%
D10*
%TO.P,D64,1,VSS*%
%TO.N,/GND*%
X260408893Y-171176393D03*
D11*
X261108892Y-171176392D03*
%TO.P,D64,2,DIN*%
%TO.N,Net-(D63-DOUT)*%
X261108892Y-169676392D03*
%TO.P,D64,3,VDD*%
%TO.N,/5V*%
X258408892Y-169676392D03*
D10*
X259058893Y-169676393D03*
D11*
%TO.P,D64,4,DOUT*%
%TO.N,Net-(D64-DOUT)*%
X258408892Y-171176392D03*
%TD*%
D14*
%TO.P,U4,1,NC*%
%TO.N,unconnected-(U4-NC)*%
X182123915Y-102632583D03*
%TO.P,U4,2,A*%
%TO.N,/STBD_LED_2*%
X182795666Y-103304334D03*
%TO.P,U4,3,GND*%
%TO.N,/GND*%
X183467417Y-103976085D03*
%TO.P,U4,4,Y*%
%TO.N,Net-(U4-Y)*%
X185076085Y-102367417D03*
%TO.P,U4,5,VCC*%
%TO.N,/5V*%
X183732583Y-101023915D03*
%TD*%
D11*
%TO.P,D206,1,VSS*%
%TO.N,/GND*%
X300099999Y-42599999D03*
%TO.P,D206,2,DIN*%
%TO.N,Net-(D205-DOUT)*%
X300099999Y-41099999D03*
%TO.P,D206,3,VDD*%
%TO.N,/5V*%
X297399999Y-41099999D03*
%TO.P,D206,4,DOUT*%
%TO.N,Net-(D206-DOUT)*%
X297399999Y-42599999D03*
%TD*%
D10*
%TO.P,D15,1,VSS*%
%TO.N,/GND*%
X210150000Y-153650000D03*
D11*
X210849999Y-153649999D03*
%TO.P,D15,2,DIN*%
%TO.N,Net-(D14-DOUT)*%
X210849999Y-152149999D03*
%TO.P,D15,3,VDD*%
%TO.N,/5V*%
X208149999Y-152149999D03*
D10*
X208800000Y-152150000D03*
D11*
%TO.P,D15,4,DOUT*%
%TO.N,Net-(D15-DOUT)*%
X208149999Y-153649999D03*
%TD*%
D10*
%TO.P,D31,1,VSS*%
%TO.N,/GND*%
X188250000Y-180550000D03*
D11*
X188949999Y-180549999D03*
%TO.P,D31,2,DIN*%
%TO.N,Net-(D30-DOUT)*%
X188949999Y-179049999D03*
%TO.P,D31,3,VDD*%
%TO.N,/5V*%
X186249999Y-179049999D03*
D10*
X186900000Y-179050000D03*
D11*
%TO.P,D31,4,DOUT*%
%TO.N,Net-(D31-DOUT)*%
X186249999Y-180549999D03*
%TD*%
D10*
%TO.P,D167,1,VSS*%
%TO.N,/GND*%
X214208893Y-35476393D03*
D11*
X214908892Y-35476392D03*
%TO.P,D167,2,DIN*%
%TO.N,Net-(D166-DOUT)*%
X214908892Y-33976392D03*
%TO.P,D167,3,VDD*%
%TO.N,/5V*%
X212208892Y-33976392D03*
D10*
X212858893Y-33976393D03*
D11*
%TO.P,D167,4,DOUT*%
%TO.N,Net-(D167-DOUT)*%
X212208892Y-35476392D03*
%TD*%
%TO.P,D210,1,VSS*%
%TO.N,/GND*%
X289908892Y-52676392D03*
%TO.P,D210,2,DIN*%
%TO.N,Net-(D209-DOUT)*%
X289908892Y-51176392D03*
%TO.P,D210,3,VDD*%
%TO.N,/5V*%
X287208892Y-51176392D03*
%TO.P,D210,4,DOUT*%
%TO.N,Net-(D210-DOUT)*%
X287208892Y-52676392D03*
%TD*%
D10*
%TO.P,D50,1,VSS*%
%TO.N,/GND*%
X249150000Y-199750000D03*
D11*
X249849999Y-199749999D03*
%TO.P,D50,2,DIN*%
%TO.N,Net-(D49-DOUT)*%
X249849999Y-198249999D03*
%TO.P,D50,3,VDD*%
%TO.N,/5V*%
X247149999Y-198249999D03*
D10*
X247800000Y-198250000D03*
D11*
%TO.P,D50,4,DOUT*%
%TO.N,Net-(D50-DOUT)*%
X247149999Y-199749999D03*
%TD*%
D10*
%TO.P,D58,1,VSS*%
%TO.N,/GND*%
X264208893Y-189676393D03*
D11*
X264908892Y-189676392D03*
%TO.P,D58,2,DIN*%
%TO.N,Net-(D57-DOUT)*%
X264908892Y-188176392D03*
%TO.P,D58,3,VDD*%
%TO.N,/5V*%
X262208892Y-188176392D03*
D10*
X262858893Y-188176393D03*
D11*
%TO.P,D58,4,DOUT*%
%TO.N,Net-(D58-DOUT)*%
X262208892Y-189676392D03*
%TD*%
D10*
%TO.P,D51,1,VSS*%
%TO.N,/GND*%
X251050000Y-195050000D03*
D11*
X251749999Y-195049999D03*
%TO.P,D51,2,DIN*%
%TO.N,Net-(D50-DOUT)*%
X251749999Y-193549999D03*
%TO.P,D51,3,VDD*%
%TO.N,/5V*%
X249049999Y-193549999D03*
D10*
X249700000Y-193550000D03*
D11*
%TO.P,D51,4,DOUT*%
%TO.N,Net-(D51-DOUT)*%
X249049999Y-195049999D03*
%TD*%
D10*
%TO.P,D67,1,VSS*%
%TO.N,/GND*%
X260250000Y-161150000D03*
D11*
X260949999Y-161149999D03*
%TO.P,D67,2,DIN*%
%TO.N,Net-(D66-DOUT)*%
X260949999Y-159649999D03*
%TO.P,D67,3,VDD*%
%TO.N,/5V*%
X258249999Y-159649999D03*
D10*
X258900000Y-159650000D03*
D11*
%TO.P,D67,4,DOUT*%
%TO.N,Net-(D67-DOUT)*%
X258249999Y-161149999D03*
%TD*%
D10*
%TO.P,D71,1,VSS*%
%TO.N,/GND*%
X249850000Y-156900000D03*
D11*
X250549999Y-156899999D03*
%TO.P,D71,2,DIN*%
%TO.N,Net-(D70-DOUT)*%
X250549999Y-155399999D03*
%TO.P,D71,3,VDD*%
%TO.N,/5V*%
X247849999Y-155399999D03*
D10*
X248500000Y-155400000D03*
D11*
%TO.P,D71,4,DOUT*%
%TO.N,Net-(D71-DOUT)*%
X247849999Y-156899999D03*
%TD*%
D15*
%TO.P,U3,1,NC*%
%TO.N,unconnected-(U3-NC)*%
X171362500Y-106450000D03*
%TO.P,U3,2,A*%
%TO.N,/STBD_LED_1*%
X171362500Y-107400000D03*
%TO.P,U3,3,GND*%
%TO.N,/GND*%
X171362500Y-108350000D03*
%TO.P,U3,4,Y*%
%TO.N,Net-(D1-DIN)*%
X173637500Y-108350000D03*
%TO.P,U3,5,VCC*%
%TO.N,/5V*%
X173637500Y-106450000D03*
%TD*%
D10*
%TO.P,D165,1,VSS*%
%TO.N,/GND*%
X202650000Y-37400000D03*
D11*
X203349999Y-37399999D03*
%TO.P,D165,2,DIN*%
%TO.N,Net-(D164-DOUT)*%
X203349999Y-35899999D03*
%TO.P,D165,3,VDD*%
%TO.N,/5V*%
X200649999Y-35899999D03*
D10*
X201300000Y-35900000D03*
D11*
%TO.P,D165,4,DOUT*%
%TO.N,Net-(D165-DOUT)*%
X200649999Y-37399999D03*
%TD*%
D10*
%TO.P,D84,1,VSS*%
%TO.N,/GND*%
X219700000Y-170500000D03*
D11*
X220399999Y-170499999D03*
%TO.P,D84,2,DIN*%
%TO.N,Net-(D83-DOUT)*%
X220399999Y-168999999D03*
%TO.P,D84,3,VDD*%
%TO.N,/5V*%
X217699999Y-168999999D03*
D10*
X218350000Y-169000000D03*
D11*
%TO.P,D84,4,DOUT*%
%TO.N,Net-(D84-DOUT)*%
X217699999Y-170499999D03*
%TD*%
D10*
%TO.P,D101,1,VSS*%
%TO.N,/GND*%
X254750000Y-151150000D03*
D11*
X255449999Y-151149999D03*
%TO.P,D101,2,DIN*%
%TO.N,Net-(D100-DOUT)*%
X255449999Y-149649999D03*
%TO.P,D101,3,VDD*%
%TO.N,/5V*%
X252749999Y-149649999D03*
D10*
X253400000Y-149650000D03*
D11*
%TO.P,D101,4,DOUT*%
%TO.N,Net-(D101-DOUT)*%
X252749999Y-151149999D03*
%TD*%
D16*
%TO.P,C2,1*%
%TO.N,/5V*%
X189875000Y-111500000D03*
%TO.P,C2,2*%
%TO.N,/GND*%
X186925000Y-111500000D03*
%TD*%
D10*
%TO.P,D52,1,VSS*%
%TO.N,/GND*%
X254000000Y-201200000D03*
D11*
X254699999Y-201199999D03*
%TO.P,D52,2,DIN*%
%TO.N,Net-(D51-DOUT)*%
X254699999Y-199699999D03*
%TO.P,D52,3,VDD*%
%TO.N,/5V*%
X251999999Y-199699999D03*
D10*
X252650000Y-199700000D03*
D11*
%TO.P,D52,4,DOUT*%
%TO.N,Net-(D52-DOUT)*%
X251999999Y-201199999D03*
%TD*%
D10*
%TO.P,D46,1,VSS*%
%TO.N,/GND*%
X234450000Y-195250000D03*
D11*
X235149999Y-195249999D03*
%TO.P,D46,2,DIN*%
%TO.N,Net-(D45-DOUT)*%
X235149999Y-193749999D03*
%TO.P,D46,3,VDD*%
%TO.N,/5V*%
X232449999Y-193749999D03*
D10*
X233100000Y-193750000D03*
D11*
%TO.P,D46,4,DOUT*%
%TO.N,Net-(D46-DOUT)*%
X232449999Y-195249999D03*
%TD*%
D10*
%TO.P,D180,1,VSS*%
%TO.N,/GND*%
X252250000Y-12200000D03*
D11*
X252949999Y-12199999D03*
%TO.P,D180,2,DIN*%
%TO.N,Net-(D179-DOUT)*%
X252949999Y-10699999D03*
%TO.P,D180,3,VDD*%
%TO.N,/5V*%
X250249999Y-10699999D03*
D10*
X250900000Y-10700000D03*
D11*
%TO.P,D180,4,DOUT*%
%TO.N,Net-(D180-DOUT)*%
X250249999Y-12199999D03*
%TD*%
D10*
%TO.P,D247,1,VSS*%
%TO.N,/GND*%
X266150000Y-83076393D03*
D11*
X266849999Y-83076392D03*
%TO.P,D247,2,DIN*%
%TO.N,Net-(D246-DOUT)*%
X266849999Y-81576392D03*
%TO.P,D247,3,VDD*%
%TO.N,/5V*%
X264149999Y-81576392D03*
D10*
X264800000Y-81576393D03*
D11*
%TO.P,D247,4,DOUT*%
%TO.N,Net-(D247-DOUT)*%
X264149999Y-83076392D03*
%TD*%
D12*
%TO.P,J11,1,Pin_1*%
%TO.N,Net-(U2-CH9)*%
X311299999Y-11099999D03*
%TD*%
D10*
%TO.P,D100,1,VSS*%
%TO.N,/GND*%
X250808893Y-146976393D03*
D11*
X251508892Y-146976392D03*
%TO.P,D100,2,DIN*%
%TO.N,Net-(D100-DIN)*%
X251508892Y-145476392D03*
%TO.P,D100,3,VDD*%
%TO.N,/5V*%
X248808892Y-145476392D03*
D10*
X249458893Y-145476393D03*
D11*
%TO.P,D100,4,DOUT*%
%TO.N,Net-(D100-DOUT)*%
X248808892Y-146976392D03*
%TD*%
D10*
%TO.P,D60,1,VSS*%
%TO.N,/GND*%
X263908893Y-183076393D03*
D11*
X264608892Y-183076392D03*
%TO.P,D60,2,DIN*%
%TO.N,Net-(D59-DOUT)*%
X264608892Y-181576392D03*
%TO.P,D60,3,VDD*%
%TO.N,/5V*%
X261908892Y-181576392D03*
D10*
X262558893Y-181576393D03*
D11*
%TO.P,D60,4,DOUT*%
%TO.N,Net-(D60-DOUT)*%
X261908892Y-183076392D03*
%TD*%
D10*
%TO.P,D12,1,VSS*%
%TO.N,/GND*%
X198300000Y-139000000D03*
D11*
X198999999Y-138999999D03*
%TO.P,D12,2,DIN*%
%TO.N,Net-(D11-DOUT)*%
X198999999Y-137499999D03*
%TO.P,D12,3,VDD*%
%TO.N,/5V*%
X196299999Y-137499999D03*
D10*
X196950000Y-137500000D03*
D11*
%TO.P,D12,4,DOUT*%
%TO.N,Net-(D12-DOUT)*%
X196299999Y-138999999D03*
%TD*%
D10*
%TO.P,D109,1,VSS*%
%TO.N,/GND*%
X263050000Y-126050000D03*
D11*
X263749999Y-126049999D03*
%TO.P,D109,2,DIN*%
%TO.N,Net-(D108-DOUT)*%
X263749999Y-124549999D03*
%TO.P,D109,3,VDD*%
%TO.N,/5V*%
X261049999Y-124549999D03*
D10*
X261700000Y-124550000D03*
D11*
%TO.P,D109,4,DOUT*%
%TO.N,Net-(D109-DOUT)*%
X261049999Y-126049999D03*
%TD*%
D10*
%TO.P,D223,1,VSS*%
%TO.N,/GND*%
X250250000Y-53850000D03*
D11*
X250949999Y-53849999D03*
%TO.P,D223,2,DIN*%
%TO.N,Net-(D222-DOUT)*%
X250949999Y-52349999D03*
%TO.P,D223,3,VDD*%
%TO.N,/5V*%
X248249999Y-52349999D03*
D10*
X248900000Y-52350000D03*
D11*
%TO.P,D223,4,DOUT*%
%TO.N,Net-(D223-DOUT)*%
X248249999Y-53849999D03*
%TD*%
D10*
%TO.P,D221,1,VSS*%
%TO.N,/GND*%
X259750000Y-54950000D03*
D11*
X260449999Y-54949999D03*
%TO.P,D221,2,DIN*%
%TO.N,Net-(D220-DOUT)*%
X260449999Y-53449999D03*
%TO.P,D221,3,VDD*%
%TO.N,/5V*%
X257749999Y-53449999D03*
D10*
X258400000Y-53450000D03*
D11*
%TO.P,D221,4,DOUT*%
%TO.N,Net-(D221-DOUT)*%
X257749999Y-54949999D03*
%TD*%
%TO.P,D189,1,VSS*%
%TO.N,/GND*%
X310499999Y-8399999D03*
%TO.P,D189,2,DIN*%
%TO.N,Net-(D188-DOUT)*%
X310499999Y-6899999D03*
%TO.P,D189,3,VDD*%
%TO.N,/5V*%
X307799999Y-6899999D03*
%TO.P,D189,4,DOUT*%
%TO.N,Net-(D189-DOUT)*%
X307799999Y-8399999D03*
%TD*%
D10*
%TO.P,D94,1,VSS*%
%TO.N,/GND*%
X233008893Y-138076393D03*
D11*
X233708892Y-138076392D03*
%TO.P,D94,2,DIN*%
%TO.N,Net-(D93-DOUT)*%
X233708892Y-136576392D03*
%TO.P,D94,3,VDD*%
%TO.N,/5V*%
X231008892Y-136576392D03*
D10*
X231658893Y-136576393D03*
D11*
%TO.P,D94,4,DOUT*%
%TO.N,Net-(D94-DOUT)*%
X231008892Y-138076392D03*
%TD*%
D10*
%TO.P,D57,1,VSS*%
%TO.N,/GND*%
X267508893Y-193076393D03*
D11*
X268208892Y-193076392D03*
%TO.P,D57,2,DIN*%
%TO.N,Net-(D56-DOUT)*%
X268208892Y-191576392D03*
%TO.P,D57,3,VDD*%
%TO.N,/5V*%
X265508892Y-191576392D03*
D10*
X266158893Y-191576393D03*
D11*
%TO.P,D57,4,DOUT*%
%TO.N,Net-(D57-DOUT)*%
X265508892Y-193076392D03*
%TD*%
D10*
%TO.P,D156,1,VSS*%
%TO.N,/GND*%
X172650000Y-103800000D03*
D11*
X173349999Y-103799999D03*
%TO.P,D156,2,DIN*%
%TO.N,Net-(D155-DOUT)*%
X173349999Y-102299999D03*
%TO.P,D156,3,VDD*%
%TO.N,/5V*%
X170649999Y-102299999D03*
D10*
X171300000Y-102300000D03*
D11*
%TO.P,D156,4,DOUT*%
%TO.N,Net-(D156-DOUT)*%
X170649999Y-103799999D03*
%TD*%
D10*
%TO.P,D11,1,VSS*%
%TO.N,/GND*%
X192650000Y-140550000D03*
D11*
X193349999Y-140549999D03*
%TO.P,D11,2,DIN*%
%TO.N,Net-(D10-DOUT)*%
X193349999Y-139049999D03*
%TO.P,D11,3,VDD*%
%TO.N,/5V*%
X190649999Y-139049999D03*
D10*
X191300000Y-139050000D03*
D11*
%TO.P,D11,4,DOUT*%
%TO.N,Net-(D11-DOUT)*%
X190649999Y-140549999D03*
%TD*%
D10*
%TO.P,D62,1,VSS*%
%TO.N,/GND*%
X262250000Y-177050000D03*
D11*
X262949999Y-177049999D03*
%TO.P,D62,2,DIN*%
%TO.N,Net-(D61-DOUT)*%
X262949999Y-175549999D03*
%TO.P,D62,3,VDD*%
%TO.N,/5V*%
X260249999Y-175549999D03*
D10*
X260900000Y-175550000D03*
D11*
%TO.P,D62,4,DOUT*%
%TO.N,Net-(D62-DOUT)*%
X260249999Y-177049999D03*
%TD*%
%TO.P,D216,1,VSS*%
%TO.N,/GND*%
X280108892Y-60949999D03*
%TO.P,D216,2,DIN*%
%TO.N,Net-(D215-DOUT)*%
X280108892Y-59449999D03*
%TO.P,D216,3,VDD*%
%TO.N,/5V*%
X277408892Y-59449999D03*
%TO.P,D216,4,DOUT*%
%TO.N,Net-(D216-DOUT)*%
X277408892Y-60949999D03*
%TD*%
%TO.P,D229,1,VSS*%
%TO.N,/GND*%
X226049999Y-47849999D03*
%TO.P,D229,2,DIN*%
%TO.N,Net-(D228-DOUT)*%
X226049999Y-46349999D03*
%TO.P,D229,3,VDD*%
%TO.N,/5V*%
X223349999Y-46349999D03*
%TO.P,D229,4,DOUT*%
%TO.N,Net-(D229-DOUT)*%
X223349999Y-47849999D03*
%TD*%
%TO.P,D191,1,VSS*%
%TO.N,/GND*%
X314408892Y-16199999D03*
%TO.P,D191,2,DIN*%
%TO.N,Net-(D190-DOUT)*%
X314408892Y-14699999D03*
%TO.P,D191,3,VDD*%
%TO.N,/5V*%
X311708892Y-14699999D03*
%TO.P,D191,4,DOUT*%
%TO.N,Net-(D191-DOUT)*%
X311708892Y-16199999D03*
%TD*%
%TO.P,D215,1,VSS*%
%TO.N,/GND*%
X276249999Y-56249999D03*
%TO.P,D215,2,DIN*%
%TO.N,Net-(D214-DOUT)*%
X276249999Y-54749999D03*
%TO.P,D215,3,VDD*%
%TO.N,/5V*%
X273549999Y-54749999D03*
%TO.P,D215,4,DOUT*%
%TO.N,Net-(D215-DOUT)*%
X273549999Y-56249999D03*
%TD*%
D10*
%TO.P,D106,1,VSS*%
%TO.N,/GND*%
X267008893Y-137076393D03*
D11*
X267708892Y-137076392D03*
%TO.P,D106,2,DIN*%
%TO.N,Net-(D105-DOUT)*%
X267708892Y-135576392D03*
%TO.P,D106,3,VDD*%
%TO.N,/5V*%
X265008892Y-135576392D03*
D10*
X265658893Y-135576393D03*
D11*
%TO.P,D106,4,DOUT*%
%TO.N,Net-(D106-DOUT)*%
X265008892Y-137076392D03*
%TD*%
D10*
%TO.P,D122,1,VSS*%
%TO.N,/GND*%
X213550000Y-89250000D03*
D11*
X214249999Y-89249999D03*
%TO.P,D122,2,DIN*%
%TO.N,Net-(D121-DOUT)*%
X214249999Y-87749999D03*
%TO.P,D122,3,VDD*%
%TO.N,/5V*%
X211549999Y-87749999D03*
D10*
X212200000Y-87750000D03*
D11*
%TO.P,D122,4,DOUT*%
%TO.N,Net-(D122-DOUT)*%
X211549999Y-89249999D03*
%TD*%
D10*
%TO.P,D184,1,VSS*%
%TO.N,/GND*%
X262750000Y-4450000D03*
D11*
X263449999Y-4449999D03*
%TO.P,D184,2,DIN*%
%TO.N,Net-(D183-DOUT)*%
X263449999Y-2949999D03*
%TO.P,D184,3,VDD*%
%TO.N,/5V*%
X260749999Y-2949999D03*
D10*
X261400000Y-2950000D03*
D11*
%TO.P,D184,4,DOUT*%
%TO.N,Net-(D184-DOUT)*%
X260749999Y-4449999D03*
%TD*%
D10*
%TO.P,D172,1,VSS*%
%TO.N,/GND*%
X225550000Y-18550000D03*
D11*
X226249999Y-18549999D03*
%TO.P,D172,2,DIN*%
%TO.N,Net-(D171-DOUT)*%
X226249999Y-17049999D03*
%TO.P,D172,3,VDD*%
%TO.N,/5V*%
X223549999Y-17049999D03*
D10*
X224200000Y-17050000D03*
D11*
%TO.P,D172,4,DOUT*%
%TO.N,Net-(D172-DOUT)*%
X223549999Y-18549999D03*
%TD*%
%TO.P,D231,1,VSS*%
%TO.N,/GND*%
X216908892Y-41576392D03*
%TO.P,D231,2,DIN*%
%TO.N,Net-(D230-DOUT)*%
X216908892Y-40076392D03*
%TO.P,D231,3,VDD*%
%TO.N,/5V*%
X214208892Y-40076392D03*
%TO.P,D231,4,DOUT*%
%TO.N,Net-(D231-DOUT)*%
X214208892Y-41576392D03*
%TD*%
D10*
%TO.P,D22,1,VSS*%
%TO.N,/GND*%
X187808893Y-169676393D03*
D11*
X188508892Y-169676392D03*
%TO.P,D22,2,DIN*%
%TO.N,Net-(D21-DOUT)*%
X188508892Y-168176392D03*
%TO.P,D22,3,VDD*%
%TO.N,/5V*%
X185808892Y-168176392D03*
D10*
X186458893Y-168176393D03*
D11*
%TO.P,D22,4,DOUT*%
%TO.N,Net-(D22-DOUT)*%
X185808892Y-169676392D03*
%TD*%
D17*
%TO.P,JP1,1,A*%
%TO.N,Net-(U4-Y)*%
X186180760Y-100219238D03*
%TO.P,JP1,2,C*%
%TO.N,Net-(JP1-C)*%
X187099999Y-99299999D03*
%TO.P,JP1,3,B*%
%TO.N,/STBD_LED_1_OUT*%
X188019238Y-98380760D03*
%TD*%
D10*
%TO.P,D155,1,VSS*%
%TO.N,/GND*%
X173308893Y-98676393D03*
D11*
X174008892Y-98676392D03*
%TO.P,D155,2,DIN*%
%TO.N,Net-(D154-DOUT)*%
X174008892Y-97176392D03*
%TO.P,D155,3,VDD*%
%TO.N,/5V*%
X171308892Y-97176392D03*
D10*
X171958893Y-97176393D03*
D11*
%TO.P,D155,4,DOUT*%
%TO.N,Net-(D155-DOUT)*%
X171308892Y-98676392D03*
%TD*%
D10*
%TO.P,D129,1,VSS*%
%TO.N,/GND*%
X179989949Y-106470711D03*
D18*
X180484923Y-105975735D03*
%TO.P,D129,2,DIN*%
%TO.N,Net-(JP1-C)*%
X179424263Y-104915075D03*
%TO.P,D129,3,VDD*%
%TO.N,/5V*%
X177515075Y-106824263D03*
D10*
X177974695Y-106364645D03*
D18*
%TO.P,D129,4,DOUT*%
%TO.N,Net-(D129-DOUT)*%
X178575735Y-107884923D03*
%TD*%
D10*
%TO.P,D32,1,VSS*%
%TO.N,/GND*%
X194200000Y-183100000D03*
D11*
X194899999Y-183099999D03*
%TO.P,D32,2,DIN*%
%TO.N,Net-(D31-DOUT)*%
X194899999Y-181599999D03*
%TO.P,D32,3,VDD*%
%TO.N,/5V*%
X192199999Y-181599999D03*
D10*
X192850000Y-181600000D03*
D11*
%TO.P,D32,4,DOUT*%
%TO.N,Net-(D32-DOUT)*%
X192199999Y-183099999D03*
%TD*%
D10*
%TO.P,D79,1,VSS*%
%TO.N,/GND*%
X227400000Y-166300000D03*
D11*
X228099999Y-166299999D03*
%TO.P,D79,2,DIN*%
%TO.N,Net-(D78-DOUT)*%
X228099999Y-164799999D03*
%TO.P,D79,3,VDD*%
%TO.N,/5V*%
X225399999Y-164799999D03*
D10*
X226050000Y-164800000D03*
D11*
%TO.P,D79,4,DOUT*%
%TO.N,Net-(D79-DOUT)*%
X225399999Y-166299999D03*
%TD*%
D10*
%TO.P,D144,1,VSS*%
%TO.N,/GND*%
X202608893Y-60176393D03*
D11*
X203308892Y-60176392D03*
%TO.P,D144,2,DIN*%
%TO.N,Net-(D143-DOUT)*%
X203308892Y-58676392D03*
%TO.P,D144,3,VDD*%
%TO.N,/5V*%
X200608892Y-58676392D03*
D10*
X201258893Y-58676393D03*
D11*
%TO.P,D144,4,DOUT*%
%TO.N,Net-(D144-DOUT)*%
X200608892Y-60176392D03*
%TD*%
D10*
%TO.P,D34,1,VSS*%
%TO.N,/GND*%
X198050000Y-188350000D03*
D11*
X198749999Y-188349999D03*
%TO.P,D34,2,DIN*%
%TO.N,Net-(D33-DOUT)*%
X198749999Y-186849999D03*
%TO.P,D34,3,VDD*%
%TO.N,/5V*%
X196049999Y-186849999D03*
D10*
X196700000Y-186850000D03*
D11*
%TO.P,D34,4,DOUT*%
%TO.N,Net-(D34-DOUT)*%
X196049999Y-188349999D03*
%TD*%
D10*
%TO.P,D29,1,VSS*%
%TO.N,/GND*%
X185800000Y-175000000D03*
D11*
X186499999Y-174999999D03*
%TO.P,D29,2,DIN*%
%TO.N,Net-(D28-DOUT)*%
X186499999Y-173499999D03*
%TO.P,D29,3,VDD*%
%TO.N,/5V*%
X183799999Y-173499999D03*
D10*
X184450000Y-173500000D03*
D11*
%TO.P,D29,4,DOUT*%
%TO.N,Net-(D29-DOUT)*%
X183799999Y-174999999D03*
%TD*%
%TO.P,D113,1,VSS*%
%TO.N,/GND*%
X262649999Y-108376392D03*
%TO.P,D113,2,DIN*%
%TO.N,Net-(D112-DOUT)*%
X262649999Y-106876392D03*
%TO.P,D113,3,VDD*%
%TO.N,/5V*%
X259949999Y-106876392D03*
%TO.P,D113,4,DOUT*%
%TO.N,Net-(D113-DOUT)*%
X259949999Y-108376392D03*
%TD*%
D10*
%TO.P,D47,1,VSS*%
%TO.N,/GND*%
X238850000Y-193100000D03*
D11*
X239549999Y-193099999D03*
%TO.P,D47,2,DIN*%
%TO.N,Net-(D46-DOUT)*%
X239549999Y-191599999D03*
%TO.P,D47,3,VDD*%
%TO.N,/5V*%
X236849999Y-191599999D03*
D10*
X237500000Y-191600000D03*
D11*
%TO.P,D47,4,DOUT*%
%TO.N,Net-(D47-DOUT)*%
X236849999Y-193099999D03*
%TD*%
%TO.P,D213,1,VSS*%
%TO.N,/GND*%
X281508892Y-57176392D03*
%TO.P,D213,2,DIN*%
%TO.N,Net-(D212-DOUT)*%
X281508892Y-55676392D03*
%TO.P,D213,3,VDD*%
%TO.N,/5V*%
X278808892Y-55676392D03*
%TO.P,D213,4,DOUT*%
%TO.N,Net-(D213-DOUT)*%
X278808892Y-57176392D03*
%TD*%
D10*
%TO.P,D85,1,VSS*%
%TO.N,/GND*%
X217750000Y-166350000D03*
D11*
X218449999Y-166349999D03*
%TO.P,D85,2,DIN*%
%TO.N,Net-(D84-DOUT)*%
X218449999Y-164849999D03*
%TO.P,D85,3,VDD*%
%TO.N,/5V*%
X215749999Y-164849999D03*
D10*
X216400000Y-164850000D03*
D11*
%TO.P,D85,4,DOUT*%
%TO.N,Net-(D85-DOUT)*%
X215749999Y-166349999D03*
%TD*%
D10*
%TO.P,D8,1,VSS*%
%TO.N,/GND*%
X183708893Y-133376393D03*
D11*
X184408892Y-133376392D03*
%TO.P,D8,2,DIN*%
%TO.N,Net-(D7-DOUT)*%
X184408892Y-131876392D03*
%TO.P,D8,3,VDD*%
%TO.N,/5V*%
X181708892Y-131876392D03*
D10*
X182358893Y-131876393D03*
D11*
%TO.P,D8,4,DOUT*%
%TO.N,Net-(D8-DOUT)*%
X181708892Y-133376392D03*
%TD*%
%TO.P,D219,1,VSS*%
%TO.N,/GND*%
X270449999Y-57149999D03*
%TO.P,D219,2,DIN*%
%TO.N,Net-(D218-DOUT)*%
X270449999Y-55649999D03*
%TO.P,D219,3,VDD*%
%TO.N,/5V*%
X267749999Y-55649999D03*
%TO.P,D219,4,DOUT*%
%TO.N,Net-(D219-DOUT)*%
X267749999Y-57149999D03*
%TD*%
%TO.P,D194,1,VSS*%
%TO.N,/GND*%
X305899999Y-22299999D03*
%TO.P,D194,2,DIN*%
%TO.N,Net-(D193-DOUT)*%
X305899999Y-20799999D03*
%TO.P,D194,3,VDD*%
%TO.N,/5V*%
X303199999Y-20799999D03*
%TO.P,D194,4,DOUT*%
%TO.N,Net-(D194-DOUT)*%
X303199999Y-22299999D03*
%TD*%
D10*
%TO.P,D107,1,VSS*%
%TO.N,/GND*%
X267550000Y-133250000D03*
D11*
X268249999Y-133249999D03*
%TO.P,D107,2,DIN*%
%TO.N,Net-(D106-DOUT)*%
X268249999Y-131749999D03*
%TO.P,D107,3,VDD*%
%TO.N,/5V*%
X265549999Y-131749999D03*
D10*
X266200000Y-131750000D03*
D11*
%TO.P,D107,4,DOUT*%
%TO.N,Net-(D107-DOUT)*%
X265549999Y-133249999D03*
%TD*%
D10*
%TO.P,D145,1,VSS*%
%TO.N,/GND*%
X197250000Y-57850000D03*
D11*
X197949999Y-57849999D03*
%TO.P,D145,2,DIN*%
%TO.N,Net-(D144-DOUT)*%
X197949999Y-56349999D03*
%TO.P,D145,3,VDD*%
%TO.N,/5V*%
X195249999Y-56349999D03*
D10*
X195900000Y-56350000D03*
D11*
%TO.P,D145,4,DOUT*%
%TO.N,Net-(D145-DOUT)*%
X195249999Y-57849999D03*
%TD*%
D10*
%TO.P,D18,1,VSS*%
%TO.N,/GND*%
X208350000Y-167950000D03*
D11*
X209049999Y-167949999D03*
%TO.P,D18,2,DIN*%
%TO.N,Net-(D17-DOUT)*%
X209049999Y-166449999D03*
%TO.P,D18,3,VDD*%
%TO.N,/5V*%
X206349999Y-166449999D03*
D10*
X207000000Y-166450000D03*
D11*
%TO.P,D18,4,DOUT*%
%TO.N,Net-(D18-DOUT)*%
X206349999Y-167949999D03*
%TD*%
D10*
%TO.P,D133,1,VSS*%
%TO.N,/GND*%
X210608893Y-116876393D03*
D11*
X211308892Y-116876392D03*
%TO.P,D133,2,DIN*%
%TO.N,Net-(D132-DOUT)*%
X211308892Y-115376392D03*
%TO.P,D133,3,VDD*%
%TO.N,/5V*%
X208608892Y-115376392D03*
D10*
X209258893Y-115376393D03*
D11*
%TO.P,D133,4,DOUT*%
%TO.N,Net-(D133-DOUT)*%
X208608892Y-116876392D03*
%TD*%
D10*
%TO.P,D120,1,VSS*%
%TO.N,/GND*%
X221208893Y-88576393D03*
D11*
X221908892Y-88576392D03*
%TO.P,D120,2,DIN*%
%TO.N,Net-(D119-DOUT)*%
X221908892Y-87076392D03*
%TO.P,D120,3,VDD*%
%TO.N,/5V*%
X219208892Y-87076392D03*
D10*
X219858893Y-87076393D03*
D11*
%TO.P,D120,4,DOUT*%
%TO.N,Net-(D120-DOUT)*%
X219208892Y-88576392D03*
%TD*%
D10*
%TO.P,D187,1,VSS*%
%TO.N,/GND*%
X272350000Y-3250000D03*
D11*
X273049999Y-3249999D03*
%TO.P,D187,2,DIN*%
%TO.N,Net-(D186-DOUT)*%
X273049999Y-1749999D03*
%TO.P,D187,3,VDD*%
%TO.N,/5V*%
X270349999Y-1749999D03*
D10*
X271000000Y-1750000D03*
D11*
%TO.P,D187,4,DOUT*%
%TO.N,Net-(D187-DOUT)*%
X270349999Y-3249999D03*
%TD*%
D10*
%TO.P,D41,1,VSS*%
%TO.N,/GND*%
X219850000Y-199950000D03*
D11*
X220549999Y-199949999D03*
%TO.P,D41,2,DIN*%
%TO.N,Net-(D40-DOUT)*%
X220549999Y-198449999D03*
%TO.P,D41,3,VDD*%
%TO.N,/5V*%
X217849999Y-198449999D03*
D10*
X218500000Y-198450000D03*
D11*
%TO.P,D41,4,DOUT*%
%TO.N,Net-(D41-DOUT)*%
X217849999Y-199949999D03*
%TD*%
%TO.P,D256,1,VSS*%
%TO.N,/GND*%
X274299999Y-67199999D03*
%TO.P,D256,2,DIN*%
%TO.N,Net-(D255-DOUT)*%
X274299999Y-65699999D03*
%TO.P,D256,3,VDD*%
%TO.N,/5V*%
X271599999Y-65699999D03*
%TO.P,D256,4,DOUT*%
%TO.N,unconnected-(D256-DOUT)*%
X271599999Y-67199999D03*
%TD*%
D10*
%TO.P,D35,1,VSS*%
%TO.N,/GND*%
X196208893Y-192376393D03*
D11*
X196908892Y-192376392D03*
%TO.P,D35,2,DIN*%
%TO.N,Net-(D34-DOUT)*%
X196908892Y-190876392D03*
%TO.P,D35,3,VDD*%
%TO.N,/5V*%
X194208892Y-190876392D03*
D10*
X194858893Y-190876393D03*
D11*
%TO.P,D35,4,DOUT*%
%TO.N,Net-(D35-DOUT)*%
X194208892Y-192376392D03*
%TD*%
%TO.P,D196,1,VSS*%
%TO.N,/GND*%
X305199999Y-26699999D03*
%TO.P,D196,2,DIN*%
%TO.N,Net-(D195-DOUT)*%
X305199999Y-25199999D03*
%TO.P,D196,3,VDD*%
%TO.N,/5V*%
X302499999Y-25199999D03*
%TO.P,D196,4,DOUT*%
%TO.N,Net-(D196-DOUT)*%
X302499999Y-26699999D03*
%TD*%
D10*
%TO.P,D227,1,VSS*%
%TO.N,/GND*%
X230908893Y-55776393D03*
D11*
X231608892Y-55776392D03*
%TO.P,D227,2,DIN*%
%TO.N,Net-(D226-DOUT)*%
X231608892Y-54276392D03*
%TO.P,D227,3,VDD*%
%TO.N,/5V*%
X228908892Y-54276392D03*
D10*
X229558893Y-54276393D03*
D11*
%TO.P,D227,4,DOUT*%
%TO.N,Net-(D227-DOUT)*%
X228908892Y-55776392D03*
%TD*%
D12*
%TO.P,J15,1,Pin_1*%
%TO.N,Net-(U2-CH7)*%
X295399999Y-34599999D03*
%TD*%
D10*
%TO.P,D232,1,VSS*%
%TO.N,/GND*%
X225508893Y-57076393D03*
D11*
X226208892Y-57076392D03*
%TO.P,D232,2,DIN*%
%TO.N,Net-(D231-DOUT)*%
X226208892Y-55576392D03*
%TO.P,D232,3,VDD*%
%TO.N,/5V*%
X223508892Y-55576392D03*
D10*
X224158893Y-55576393D03*
D11*
%TO.P,D232,4,DOUT*%
%TO.N,Net-(D232-DOUT)*%
X223508892Y-57076392D03*
%TD*%
D10*
%TO.P,D89,1,VSS*%
%TO.N,/GND*%
X205650000Y-125250000D03*
D11*
X206349999Y-125249999D03*
%TO.P,D89,2,DIN*%
%TO.N,Net-(D88-DOUT)*%
X206349999Y-123749999D03*
%TO.P,D89,3,VDD*%
%TO.N,/5V*%
X203649999Y-123749999D03*
D10*
X204300000Y-123750000D03*
D11*
%TO.P,D89,4,DOUT*%
%TO.N,Net-(D89-DOUT)*%
X203649999Y-125249999D03*
%TD*%
%TO.P,D212,1,VSS*%
%TO.N,/GND*%
X281708892Y-53676392D03*
%TO.P,D212,2,DIN*%
%TO.N,Net-(D211-DOUT)*%
X281708892Y-52176392D03*
%TO.P,D212,3,VDD*%
%TO.N,/5V*%
X279008892Y-52176392D03*
%TO.P,D212,4,DOUT*%
%TO.N,Net-(D212-DOUT)*%
X279008892Y-53676392D03*
%TD*%
D10*
%TO.P,D131,1,VSS*%
%TO.N,/GND*%
X184000000Y-114000000D03*
D11*
X184699999Y-113999999D03*
%TO.P,D131,2,DIN*%
%TO.N,Net-(D130-DOUT)*%
X184699999Y-112499999D03*
%TO.P,D131,3,VDD*%
%TO.N,/5V*%
X181999999Y-112499999D03*
D10*
X182650000Y-112500000D03*
D11*
%TO.P,D131,4,DOUT*%
%TO.N,Net-(D131-DOUT)*%
X181999999Y-113999999D03*
%TD*%
D10*
%TO.P,D68,1,VSS*%
%TO.N,/GND*%
X255750000Y-159250000D03*
D11*
X256449999Y-159249999D03*
%TO.P,D68,2,DIN*%
%TO.N,Net-(D67-DOUT)*%
X256449999Y-157749999D03*
%TO.P,D68,3,VDD*%
%TO.N,/5V*%
X253749999Y-157749999D03*
D10*
X254400000Y-157750000D03*
D11*
%TO.P,D68,4,DOUT*%
%TO.N,Net-(D68-DOUT)*%
X253749999Y-159249999D03*
%TD*%
D10*
%TO.P,D56,1,VSS*%
%TO.N,/GND*%
X267250000Y-198500000D03*
D11*
X267949999Y-198499999D03*
%TO.P,D56,2,DIN*%
%TO.N,Net-(D55-DOUT)*%
X267949999Y-196999999D03*
%TO.P,D56,3,VDD*%
%TO.N,/5V*%
X265249999Y-196999999D03*
D10*
X265900000Y-197000000D03*
D11*
%TO.P,D56,4,DOUT*%
%TO.N,Net-(D56-DOUT)*%
X265249999Y-198499999D03*
%TD*%
D10*
%TO.P,D90,1,VSS*%
%TO.N,/GND*%
X212308893Y-124676393D03*
D11*
X213008892Y-124676392D03*
%TO.P,D90,2,DIN*%
%TO.N,Net-(D89-DOUT)*%
X213008892Y-123176392D03*
%TO.P,D90,3,VDD*%
%TO.N,/5V*%
X210308892Y-123176392D03*
D10*
X210958893Y-123176393D03*
D11*
%TO.P,D90,4,DOUT*%
%TO.N,Net-(D90-DOUT)*%
X210308892Y-124676392D03*
%TD*%
D10*
%TO.P,D250,1,VSS*%
%TO.N,/GND*%
X277108893Y-79076393D03*
D11*
X277808892Y-79076392D03*
%TO.P,D250,2,DIN*%
%TO.N,Net-(D249-DOUT)*%
X277808892Y-77576392D03*
%TO.P,D250,3,VDD*%
%TO.N,/5V*%
X275108892Y-77576392D03*
D10*
X275758893Y-77576393D03*
D11*
%TO.P,D250,4,DOUT*%
%TO.N,Net-(D250-DOUT)*%
X275108892Y-79076392D03*
%TD*%
D10*
%TO.P,D86,1,VSS*%
%TO.N,/GND*%
X215950000Y-162550000D03*
D11*
X216649999Y-162549999D03*
%TO.P,D86,2,DIN*%
%TO.N,Net-(D85-DOUT)*%
X216649999Y-161049999D03*
%TO.P,D86,3,VDD*%
%TO.N,/5V*%
X213949999Y-161049999D03*
D10*
X214600000Y-161050000D03*
D11*
%TO.P,D86,4,DOUT*%
%TO.N,Net-(D86-DOUT)*%
X213949999Y-162549999D03*
%TD*%
D19*
%TO.P,C44,1*%
%TO.N,/5V*%
X266925000Y-85500000D03*
%TO.P,C44,2*%
%TO.N,/GND*%
X269875000Y-85500000D03*
%TD*%
D11*
%TO.P,D198,1,VSS*%
%TO.N,/GND*%
X295399999Y-28799999D03*
%TO.P,D198,2,DIN*%
%TO.N,Net-(D197-DOUT)*%
X295399999Y-27299999D03*
%TO.P,D198,3,VDD*%
%TO.N,/5V*%
X292699999Y-27299999D03*
%TO.P,D198,4,DOUT*%
%TO.N,Net-(D198-DOUT)*%
X292699999Y-28799999D03*
%TD*%
D20*
%TO.P,C3,1*%
%TO.N,/3V3*%
X279375000Y-5000000D03*
%TO.P,C3,2*%
%TO.N,/GND*%
X277825000Y-5000000D03*
%TD*%
D10*
%TO.P,D75,1,VSS*%
%TO.N,/GND*%
X231308893Y-158476393D03*
D11*
X232008892Y-158476392D03*
%TO.P,D75,2,DIN*%
%TO.N,Net-(D74-DOUT)*%
X232008892Y-156976392D03*
%TO.P,D75,3,VDD*%
%TO.N,/5V*%
X229308892Y-156976392D03*
D10*
X229958893Y-156976393D03*
D11*
%TO.P,D75,4,DOUT*%
%TO.N,Net-(D75-DOUT)*%
X229308892Y-158476392D03*
%TD*%
%TO.P,D246,1,VSS*%
%TO.N,/GND*%
X271408892Y-83076392D03*
%TO.P,D246,2,DIN*%
%TO.N,Net-(D245-DOUT)*%
X271408892Y-81576392D03*
%TO.P,D246,3,VDD*%
%TO.N,/5V*%
X268708892Y-81576392D03*
%TO.P,D246,4,DOUT*%
%TO.N,Net-(D246-DOUT)*%
X268708892Y-83076392D03*
%TD*%
D19*
%TO.P,C40,1*%
%TO.N,/5V*%
X275225000Y-2600000D03*
%TO.P,C40,2*%
%TO.N,/GND*%
X278175000Y-2600000D03*
%TD*%
D10*
%TO.P,D13,1,VSS*%
%TO.N,/GND*%
X201650000Y-143950000D03*
D11*
X202349999Y-143949999D03*
%TO.P,D13,2,DIN*%
%TO.N,Net-(D12-DOUT)*%
X202349999Y-142449999D03*
%TO.P,D13,3,VDD*%
%TO.N,/5V*%
X199649999Y-142449999D03*
D10*
X200300000Y-142450000D03*
D11*
%TO.P,D13,4,DOUT*%
%TO.N,Net-(D13-DOUT)*%
X199649999Y-143949999D03*
%TD*%
D10*
%TO.P,D78,1,VSS*%
%TO.N,/GND*%
X228550000Y-162150000D03*
D11*
X229249999Y-162149999D03*
%TO.P,D78,2,DIN*%
%TO.N,Net-(D77-DOUT)*%
X229249999Y-160649999D03*
%TO.P,D78,3,VDD*%
%TO.N,/5V*%
X226549999Y-160649999D03*
D10*
X227200000Y-160650000D03*
D11*
%TO.P,D78,4,DOUT*%
%TO.N,Net-(D78-DOUT)*%
X226549999Y-162149999D03*
%TD*%
D10*
%TO.P,D3,1,VSS*%
%TO.N,/GND*%
X173008893Y-122376393D03*
D11*
X173708892Y-122376392D03*
%TO.P,D3,2,DIN*%
%TO.N,Net-(D2-DOUT)*%
X173708892Y-120876392D03*
%TO.P,D3,3,VDD*%
%TO.N,/5V*%
X171008892Y-120876392D03*
D10*
X171658893Y-120876393D03*
D11*
%TO.P,D3,4,DOUT*%
%TO.N,Net-(D3-DOUT)*%
X171008892Y-122376392D03*
%TD*%
D10*
%TO.P,D24,1,VSS*%
%TO.N,/GND*%
X180208893Y-161476393D03*
D11*
X180908892Y-161476392D03*
%TO.P,D24,2,DIN*%
%TO.N,Net-(D23-DOUT)*%
X180908892Y-159976392D03*
%TO.P,D24,3,VDD*%
%TO.N,/5V*%
X178208892Y-159976392D03*
D10*
X178858893Y-159976393D03*
D11*
%TO.P,D24,4,DOUT*%
%TO.N,Net-(D24-DOUT)*%
X178208892Y-161476392D03*
%TD*%
D10*
%TO.P,D98,1,VSS*%
%TO.N,/GND*%
X241950000Y-137550000D03*
D11*
X242649999Y-137549999D03*
%TO.P,D98,2,DIN*%
%TO.N,Net-(D97-DOUT)*%
X242649999Y-136049999D03*
%TO.P,D98,3,VDD*%
%TO.N,/5V*%
X239949999Y-136049999D03*
D10*
X240600000Y-136050000D03*
D11*
%TO.P,D98,4,DOUT*%
%TO.N,Net-(D98-DOUT)*%
X239949999Y-137549999D03*
%TD*%
D10*
%TO.P,D96,1,VSS*%
%TO.N,/GND*%
X233650000Y-148750000D03*
D11*
X234349999Y-148749999D03*
%TO.P,D96,2,DIN*%
%TO.N,Net-(D95-DOUT)*%
X234349999Y-147249999D03*
%TO.P,D96,3,VDD*%
%TO.N,/5V*%
X231649999Y-147249999D03*
D10*
X232300000Y-147250000D03*
D11*
%TO.P,D96,4,DOUT*%
%TO.N,Net-(D96-DOUT)*%
X231649999Y-148749999D03*
%TD*%
D10*
%TO.P,D49,1,VSS*%
%TO.N,/GND*%
X242100000Y-198000000D03*
D11*
X242799999Y-197999999D03*
%TO.P,D49,2,DIN*%
%TO.N,Net-(D48-DOUT)*%
X242799999Y-196499999D03*
%TO.P,D49,3,VDD*%
%TO.N,/5V*%
X240099999Y-196499999D03*
D10*
X240750000Y-196500000D03*
D11*
%TO.P,D49,4,DOUT*%
%TO.N,Net-(D49-DOUT)*%
X240099999Y-197999999D03*
%TD*%
D10*
%TO.P,D143,1,VSS*%
%TO.N,/GND*%
X206608893Y-64476393D03*
D11*
X207308892Y-64476392D03*
%TO.P,D143,2,DIN*%
%TO.N,Net-(D142-DOUT)*%
X207308892Y-62976392D03*
%TO.P,D143,3,VDD*%
%TO.N,/5V*%
X204608892Y-62976392D03*
D10*
X205258893Y-62976393D03*
D11*
%TO.P,D143,4,DOUT*%
%TO.N,Net-(D143-DOUT)*%
X204608892Y-64476392D03*
%TD*%
%TO.P,D138,1,VSS*%
%TO.N,/GND*%
X195449999Y-81249999D03*
%TO.P,D138,2,DIN*%
%TO.N,Net-(D137-DOUT)*%
X195449999Y-79749999D03*
%TO.P,D138,3,VDD*%
%TO.N,/5V*%
X192749999Y-79749999D03*
%TO.P,D138,4,DOUT*%
%TO.N,Net-(D138-DOUT)*%
X192749999Y-81249999D03*
%TD*%
D10*
%TO.P,D181,1,VSS*%
%TO.N,/GND*%
X256200000Y-5600000D03*
D11*
X256899999Y-5599999D03*
%TO.P,D181,2,DIN*%
%TO.N,Net-(D180-DOUT)*%
X256899999Y-4099999D03*
%TO.P,D181,3,VDD*%
%TO.N,/5V*%
X254199999Y-4099999D03*
D10*
X254850000Y-4100000D03*
D11*
%TO.P,D181,4,DOUT*%
%TO.N,Net-(D181-DOUT)*%
X254199999Y-5599999D03*
%TD*%
D10*
%TO.P,D178,1,VSS*%
%TO.N,/GND*%
X246250000Y-14250000D03*
D11*
X246949999Y-14249999D03*
%TO.P,D178,2,DIN*%
%TO.N,Net-(D177-DOUT)*%
X246949999Y-12749999D03*
%TO.P,D178,3,VDD*%
%TO.N,/5V*%
X244249999Y-12749999D03*
D10*
X244900000Y-12750000D03*
D11*
%TO.P,D178,4,DOUT*%
%TO.N,Net-(D178-DOUT)*%
X244249999Y-14249999D03*
%TD*%
%TO.P,D207,1,VSS*%
%TO.N,/GND*%
X295999999Y-45499999D03*
%TO.P,D207,2,DIN*%
%TO.N,Net-(D206-DOUT)*%
X295999999Y-43999999D03*
%TO.P,D207,3,VDD*%
%TO.N,/5V*%
X293299999Y-43999999D03*
%TO.P,D207,4,DOUT*%
%TO.N,Net-(D207-DOUT)*%
X293299999Y-45499999D03*
%TD*%
D10*
%TO.P,D14,1,VSS*%
%TO.N,/GND*%
X205808893Y-148176393D03*
D11*
X206508892Y-148176392D03*
%TO.P,D14,2,DIN*%
%TO.N,Net-(D13-DOUT)*%
X206508892Y-146676392D03*
%TO.P,D14,3,VDD*%
%TO.N,/5V*%
X203808892Y-146676392D03*
D10*
X204458893Y-146676393D03*
D11*
%TO.P,D14,4,DOUT*%
%TO.N,Net-(D14-DOUT)*%
X203808892Y-148176392D03*
%TD*%
D10*
%TO.P,D82,1,VSS*%
%TO.N,/GND*%
X227400000Y-180400000D03*
D11*
X228099999Y-180399999D03*
%TO.P,D82,2,DIN*%
%TO.N,Net-(D81-DOUT)*%
X228099999Y-178899999D03*
%TO.P,D82,3,VDD*%
%TO.N,/5V*%
X225399999Y-178899999D03*
D10*
X226050000Y-178900000D03*
D11*
%TO.P,D82,4,DOUT*%
%TO.N,Net-(D82-DOUT)*%
X225399999Y-180399999D03*
%TD*%
D10*
%TO.P,D175,1,VSS*%
%TO.N,/GND*%
X237450000Y-11850000D03*
D11*
X238149999Y-11849999D03*
%TO.P,D175,2,DIN*%
%TO.N,Net-(D174-DOUT)*%
X238149999Y-10349999D03*
%TO.P,D175,3,VDD*%
%TO.N,/5V*%
X235449999Y-10349999D03*
D10*
X236100000Y-10350000D03*
D11*
%TO.P,D175,4,DOUT*%
%TO.N,Net-(D175-DOUT)*%
X235449999Y-11849999D03*
%TD*%
D10*
%TO.P,D44,1,VSS*%
%TO.N,/GND*%
X229408893Y-191376393D03*
D11*
X230108892Y-191376392D03*
%TO.P,D44,2,DIN*%
%TO.N,Net-(D43-DOUT)*%
X230108892Y-189876392D03*
%TO.P,D44,3,VDD*%
%TO.N,/5V*%
X227408892Y-189876392D03*
D10*
X228058893Y-189876393D03*
D11*
%TO.P,D44,4,DOUT*%
%TO.N,Net-(D44-DOUT)*%
X227408892Y-191376392D03*
%TD*%
D10*
%TO.P,D226,1,VSS*%
%TO.N,/GND*%
X236408893Y-55476393D03*
D11*
X237108892Y-55476392D03*
%TO.P,D226,2,DIN*%
%TO.N,Net-(D225-DOUT)*%
X237108892Y-53976392D03*
%TO.P,D226,3,VDD*%
%TO.N,/5V*%
X234408892Y-53976392D03*
D10*
X235058893Y-53976393D03*
D11*
%TO.P,D226,4,DOUT*%
%TO.N,Net-(D226-DOUT)*%
X234408892Y-55476392D03*
%TD*%
%TO.P,D137,1,VSS*%
%TO.N,/GND*%
X200408892Y-83076392D03*
%TO.P,D137,2,DIN*%
%TO.N,Net-(D136-DOUT)*%
X200408892Y-81576392D03*
%TO.P,D137,3,VDD*%
%TO.N,/5V*%
X197708892Y-81576392D03*
%TO.P,D137,4,DOUT*%
%TO.N,Net-(D137-DOUT)*%
X197708892Y-83076392D03*
%TD*%
D10*
%TO.P,D21,1,VSS*%
%TO.N,/GND*%
X193408893Y-170876393D03*
D11*
X194108892Y-170876392D03*
%TO.P,D21,2,DIN*%
%TO.N,Net-(D20-DOUT)*%
X194108892Y-169376392D03*
%TO.P,D21,3,VDD*%
%TO.N,/5V*%
X191408892Y-169376392D03*
D10*
X192058893Y-169376393D03*
D11*
%TO.P,D21,4,DOUT*%
%TO.N,Net-(D21-DOUT)*%
X191408892Y-170876392D03*
%TD*%
D10*
%TO.P,D123,1,VSS*%
%TO.N,/GND*%
X210208893Y-84976393D03*
D11*
X210908892Y-84976392D03*
%TO.P,D123,2,DIN*%
%TO.N,Net-(D122-DOUT)*%
X210908892Y-83476392D03*
%TO.P,D123,3,VDD*%
%TO.N,/5V*%
X208208892Y-83476392D03*
D10*
X208858893Y-83476393D03*
D11*
%TO.P,D123,4,DOUT*%
%TO.N,Net-(D123-DOUT)*%
X208208892Y-84976392D03*
%TD*%
D10*
%TO.P,D53,1,VSS*%
%TO.N,/GND*%
X256050000Y-196750000D03*
D11*
X256749999Y-196749999D03*
%TO.P,D53,2,DIN*%
%TO.N,Net-(D52-DOUT)*%
X256749999Y-195249999D03*
%TO.P,D53,3,VDD*%
%TO.N,/5V*%
X254049999Y-195249999D03*
D10*
X254700000Y-195250000D03*
D11*
%TO.P,D53,4,DOUT*%
%TO.N,Net-(D53-DOUT)*%
X254049999Y-196749999D03*
%TD*%
%TO.P,D190,1,VSS*%
%TO.N,/GND*%
X306208892Y-18276392D03*
%TO.P,D190,2,DIN*%
%TO.N,Net-(D189-DOUT)*%
X306208892Y-16776392D03*
%TO.P,D190,3,VDD*%
%TO.N,/5V*%
X303508892Y-16776392D03*
%TO.P,D190,4,DOUT*%
%TO.N,Net-(D190-DOUT)*%
X303508892Y-18276392D03*
%TD*%
D10*
%TO.P,D40,1,VSS*%
%TO.N,/GND*%
X217850000Y-196150000D03*
D11*
X218549999Y-196149999D03*
%TO.P,D40,2,DIN*%
%TO.N,Net-(D39-DOUT)*%
X218549999Y-194649999D03*
%TO.P,D40,3,VDD*%
%TO.N,/5V*%
X215849999Y-194649999D03*
D10*
X216500000Y-194650000D03*
D11*
%TO.P,D40,4,DOUT*%
%TO.N,Net-(D40-DOUT)*%
X215849999Y-196149999D03*
%TD*%
D10*
%TO.P,D121,1,VSS*%
%TO.N,/GND*%
X217200000Y-85100000D03*
D11*
X217899999Y-85099999D03*
%TO.P,D121,2,DIN*%
%TO.N,Net-(D120-DOUT)*%
X217899999Y-83599999D03*
%TO.P,D121,3,VDD*%
%TO.N,/5V*%
X215199999Y-83599999D03*
D10*
X215850000Y-83600000D03*
D11*
%TO.P,D121,4,DOUT*%
%TO.N,Net-(D121-DOUT)*%
X215199999Y-85099999D03*
%TD*%
D10*
%TO.P,D33,1,VSS*%
%TO.N,/GND*%
X191750000Y-186550000D03*
D11*
X192449999Y-186549999D03*
%TO.P,D33,2,DIN*%
%TO.N,Net-(D32-DOUT)*%
X192449999Y-185049999D03*
%TO.P,D33,3,VDD*%
%TO.N,/5V*%
X189749999Y-185049999D03*
D10*
X190400000Y-185050000D03*
D11*
%TO.P,D33,4,DOUT*%
%TO.N,Net-(D33-DOUT)*%
X189749999Y-186549999D03*
%TD*%
D10*
%TO.P,D10,1,VSS*%
%TO.N,/GND*%
X190650000Y-134750000D03*
D11*
X191349999Y-134749999D03*
%TO.P,D10,2,DIN*%
%TO.N,Net-(D10-DIN)*%
X191349999Y-133249999D03*
%TO.P,D10,3,VDD*%
%TO.N,/5V*%
X188649999Y-133249999D03*
D10*
X189300000Y-133250000D03*
D11*
%TO.P,D10,4,DOUT*%
%TO.N,Net-(D10-DOUT)*%
X188649999Y-134749999D03*
%TD*%
D10*
%TO.P,D153,1,VSS*%
%TO.N,/GND*%
X175508893Y-88976393D03*
D11*
X176208892Y-88976392D03*
%TO.P,D153,2,DIN*%
%TO.N,Net-(D152-DOUT)*%
X176208892Y-87476392D03*
%TO.P,D153,3,VDD*%
%TO.N,/5V*%
X173508892Y-87476392D03*
D10*
X174158893Y-87476393D03*
D11*
%TO.P,D153,4,DOUT*%
%TO.N,Net-(D153-DOUT)*%
X173508892Y-88976392D03*
%TD*%
D10*
%TO.P,D182,1,VSS*%
%TO.N,/GND*%
X257950000Y-9950000D03*
D11*
X258649999Y-9949999D03*
%TO.P,D182,2,DIN*%
%TO.N,Net-(D181-DOUT)*%
X258649999Y-8449999D03*
%TO.P,D182,3,VDD*%
%TO.N,/5V*%
X255949999Y-8449999D03*
D10*
X256600000Y-8450000D03*
D11*
%TO.P,D182,4,DOUT*%
%TO.N,Net-(D182-DOUT)*%
X255949999Y-9949999D03*
%TD*%
D10*
%TO.P,D54,1,VSS*%
%TO.N,/GND*%
X261750000Y-201250000D03*
D11*
X262449999Y-201249999D03*
%TO.P,D54,2,DIN*%
%TO.N,Net-(D53-DOUT)*%
X262449999Y-199749999D03*
%TO.P,D54,3,VDD*%
%TO.N,/5V*%
X259749999Y-199749999D03*
D10*
X260400000Y-199750000D03*
D11*
%TO.P,D54,4,DOUT*%
%TO.N,Net-(D54-DOUT)*%
X259749999Y-201249999D03*
%TD*%
D10*
%TO.P,D45,1,VSS*%
%TO.N,/GND*%
X234000000Y-189300000D03*
D11*
X234699999Y-189299999D03*
%TO.P,D45,2,DIN*%
%TO.N,Net-(D44-DOUT)*%
X234699999Y-187799999D03*
%TO.P,D45,3,VDD*%
%TO.N,/5V*%
X231999999Y-187799999D03*
D10*
X232650000Y-187800000D03*
D11*
%TO.P,D45,4,DOUT*%
%TO.N,Net-(D45-DOUT)*%
X231999999Y-189299999D03*
%TD*%
%TO.P,D197,1,VSS*%
%TO.N,/GND*%
X296599999Y-24799999D03*
%TO.P,D197,2,DIN*%
%TO.N,Net-(D196-DOUT)*%
X296599999Y-23299999D03*
%TO.P,D197,3,VDD*%
%TO.N,/5V*%
X293899999Y-23299999D03*
%TO.P,D197,4,DOUT*%
%TO.N,Net-(D197-DOUT)*%
X293899999Y-24799999D03*
%TD*%
D10*
%TO.P,D2,1,VSS*%
%TO.N,/GND*%
X173750000Y-113150000D03*
D11*
X174449999Y-113149999D03*
%TO.P,D2,2,DIN*%
%TO.N,Net-(D1-DOUT)*%
X174449999Y-111649999D03*
%TO.P,D2,3,VDD*%
%TO.N,/5V*%
X171749999Y-111649999D03*
D10*
X172400000Y-111650000D03*
D11*
%TO.P,D2,4,DOUT*%
%TO.N,Net-(D2-DOUT)*%
X171749999Y-113149999D03*
%TD*%
D10*
%TO.P,D88,1,VSS*%
%TO.N,/GND*%
X199508893Y-126276393D03*
D11*
X200208892Y-126276392D03*
%TO.P,D88,2,DIN*%
%TO.N,Net-(D87-DOUT)*%
X200208892Y-124776392D03*
%TO.P,D88,3,VDD*%
%TO.N,/5V*%
X197508892Y-124776392D03*
D10*
X198158893Y-124776393D03*
D11*
%TO.P,D88,4,DOUT*%
%TO.N,Net-(D88-DOUT)*%
X197508892Y-126276392D03*
%TD*%
D10*
%TO.P,D162,1,VSS*%
%TO.N,/GND*%
X203850000Y-42350000D03*
D11*
X204549999Y-42349999D03*
%TO.P,D162,2,DIN*%
%TO.N,Net-(D161-DOUT)*%
X204549999Y-40849999D03*
%TO.P,D162,3,VDD*%
%TO.N,/5V*%
X201849999Y-40849999D03*
D10*
X202500000Y-40850000D03*
D11*
%TO.P,D162,4,DOUT*%
%TO.N,Net-(D162-DOUT)*%
X201849999Y-42349999D03*
%TD*%
D21*
%TO.P,U1,1,GND*%
%TO.N,/GND*%
X273550000Y-8337500D03*
%TO.P,U1,2,VO*%
%TO.N,/3V3*%
X275450000Y-8337500D03*
%TO.P,U1,3,VI*%
%TO.N,/5V*%
X274500000Y-6462500D03*
%TD*%
D10*
%TO.P,D176,1,VSS*%
%TO.N,/GND*%
X239450000Y-16650000D03*
D11*
X240149999Y-16649999D03*
%TO.P,D176,2,DIN*%
%TO.N,Net-(D175-DOUT)*%
X240149999Y-15149999D03*
%TO.P,D176,3,VDD*%
%TO.N,/5V*%
X237449999Y-15149999D03*
D10*
X238100000Y-15150000D03*
D11*
%TO.P,D176,4,DOUT*%
%TO.N,Net-(D176-DOUT)*%
X237449999Y-16649999D03*
%TD*%
D10*
%TO.P,D72,1,VSS*%
%TO.N,/GND*%
X244750000Y-155550000D03*
D11*
X245449999Y-155549999D03*
%TO.P,D72,2,DIN*%
%TO.N,Net-(D71-DOUT)*%
X245449999Y-154049999D03*
%TO.P,D72,3,VDD*%
%TO.N,/5V*%
X242749999Y-154049999D03*
D10*
X243400000Y-154050000D03*
D11*
%TO.P,D72,4,DOUT*%
%TO.N,Net-(D72-DOUT)*%
X242749999Y-155549999D03*
%TD*%
D10*
%TO.P,D108,1,VSS*%
%TO.N,/GND*%
X263850000Y-129750000D03*
D11*
X264549999Y-129749999D03*
%TO.P,D108,2,DIN*%
%TO.N,Net-(D107-DOUT)*%
X264549999Y-128249999D03*
%TO.P,D108,3,VDD*%
%TO.N,/5V*%
X261849999Y-128249999D03*
D10*
X262500000Y-128250000D03*
D11*
%TO.P,D108,4,DOUT*%
%TO.N,Net-(D108-DOUT)*%
X261849999Y-129749999D03*
%TD*%
D10*
%TO.P,D103,1,VSS*%
%TO.N,/GND*%
X266700000Y-149800000D03*
D11*
X267399999Y-149799999D03*
%TO.P,D103,2,DIN*%
%TO.N,Net-(D102-DOUT)*%
X267399999Y-148299999D03*
%TO.P,D103,3,VDD*%
%TO.N,/5V*%
X264699999Y-148299999D03*
D10*
X265350000Y-148300000D03*
D11*
%TO.P,D103,4,DOUT*%
%TO.N,Net-(D103-DOUT)*%
X264699999Y-149799999D03*
%TD*%
D10*
%TO.P,D63,1,VSS*%
%TO.N,/GND*%
X264950000Y-173150000D03*
D11*
X265649999Y-173149999D03*
%TO.P,D63,2,DIN*%
%TO.N,Net-(D62-DOUT)*%
X265649999Y-171649999D03*
%TO.P,D63,3,VDD*%
%TO.N,/5V*%
X262949999Y-171649999D03*
D10*
X263600000Y-171650000D03*
D11*
%TO.P,D63,4,DOUT*%
%TO.N,Net-(D63-DOUT)*%
X262949999Y-173149999D03*
%TD*%
D10*
%TO.P,D95,1,VSS*%
%TO.N,/GND*%
X233300000Y-142800000D03*
D11*
X233999999Y-142799999D03*
%TO.P,D95,2,DIN*%
%TO.N,Net-(D94-DOUT)*%
X233999999Y-141299999D03*
%TO.P,D95,3,VDD*%
%TO.N,/5V*%
X231299999Y-141299999D03*
D10*
X231950000Y-141300000D03*
D11*
%TO.P,D95,4,DOUT*%
%TO.N,Net-(D95-DOUT)*%
X231299999Y-142799999D03*
%TD*%
D10*
%TO.P,D170,1,VSS*%
%TO.N,/GND*%
X218200000Y-23700000D03*
D11*
X218899999Y-23699999D03*
%TO.P,D170,2,DIN*%
%TO.N,Net-(D169-DOUT)*%
X218899999Y-22199999D03*
%TO.P,D170,3,VDD*%
%TO.N,/5V*%
X216199999Y-22199999D03*
D10*
X216850000Y-22200000D03*
D11*
%TO.P,D170,4,DOUT*%
%TO.N,Net-(D170-DOUT)*%
X216199999Y-23699999D03*
%TD*%
D10*
%TO.P,D132,1,VSS*%
%TO.N,/GND*%
X205408893Y-113876393D03*
D11*
X206108892Y-113876392D03*
%TO.P,D132,2,DIN*%
%TO.N,Net-(D131-DOUT)*%
X206108892Y-112376392D03*
%TO.P,D132,3,VDD*%
%TO.N,/5V*%
X203408892Y-112376392D03*
D10*
X204058893Y-112376393D03*
D11*
%TO.P,D132,4,DOUT*%
%TO.N,Net-(D132-DOUT)*%
X203408892Y-113876392D03*
%TD*%
D10*
%TO.P,D30,1,VSS*%
%TO.N,/GND*%
X191450000Y-176650000D03*
D11*
X192149999Y-176649999D03*
%TO.P,D30,2,DIN*%
%TO.N,Net-(D29-DOUT)*%
X192149999Y-175149999D03*
%TO.P,D30,3,VDD*%
%TO.N,/5V*%
X189449999Y-175149999D03*
D10*
X190100000Y-175150000D03*
D11*
%TO.P,D30,4,DOUT*%
%TO.N,Net-(D30-DOUT)*%
X189449999Y-176649999D03*
%TD*%
D10*
%TO.P,D16,1,VSS*%
%TO.N,/GND*%
X210650000Y-158750000D03*
D11*
X211349999Y-158749999D03*
%TO.P,D16,2,DIN*%
%TO.N,Net-(D15-DOUT)*%
X211349999Y-157249999D03*
%TO.P,D16,3,VDD*%
%TO.N,/5V*%
X208649999Y-157249999D03*
D10*
X209300000Y-157250000D03*
D11*
%TO.P,D16,4,DOUT*%
%TO.N,Net-(D16-DOUT)*%
X208649999Y-158749999D03*
%TD*%
D10*
%TO.P,D19,1,VSS*%
%TO.N,/GND*%
X203850000Y-171150000D03*
D11*
X204549999Y-171149999D03*
%TO.P,D19,2,DIN*%
%TO.N,Net-(D18-DOUT)*%
X204549999Y-169649999D03*
%TO.P,D19,3,VDD*%
%TO.N,/5V*%
X201849999Y-169649999D03*
D10*
X202500000Y-169650000D03*
D11*
%TO.P,D19,4,DOUT*%
%TO.N,Net-(D19-DOUT)*%
X201849999Y-171149999D03*
%TD*%
D10*
%TO.P,D239,1,VSS*%
%TO.N,/GND*%
X244050000Y-90550000D03*
D11*
X244749999Y-90549999D03*
%TO.P,D239,2,DIN*%
%TO.N,Net-(D238-DOUT)*%
X244749999Y-89049999D03*
%TO.P,D239,3,VDD*%
%TO.N,/5V*%
X242049999Y-89049999D03*
D10*
X242700000Y-89050000D03*
D11*
%TO.P,D239,4,DOUT*%
%TO.N,Net-(D239-DOUT)*%
X242049999Y-90549999D03*
%TD*%
D20*
%TO.P,C42,1*%
%TO.N,/3V3*%
X279375000Y-8400000D03*
%TO.P,C42,2*%
%TO.N,/GND*%
X277825000Y-8400000D03*
%TD*%
D10*
%TO.P,D105,1,VSS*%
%TO.N,/GND*%
X269608893Y-141176393D03*
D11*
X270308892Y-141176392D03*
%TO.P,D105,2,DIN*%
%TO.N,Net-(D104-DOUT)*%
X270308892Y-139676392D03*
%TO.P,D105,3,VDD*%
%TO.N,/5V*%
X267608892Y-139676392D03*
D10*
X268258893Y-139676393D03*
D11*
%TO.P,D105,4,DOUT*%
%TO.N,Net-(D105-DOUT)*%
X267608892Y-141176392D03*
%TD*%
D10*
%TO.P,D111,1,VSS*%
%TO.N,/GND*%
X264550000Y-116750000D03*
D11*
X265249999Y-116749999D03*
%TO.P,D111,2,DIN*%
%TO.N,Net-(D110-DOUT)*%
X265249999Y-115249999D03*
%TO.P,D111,3,VDD*%
%TO.N,/5V*%
X262549999Y-115249999D03*
D10*
X263200000Y-115250000D03*
D11*
%TO.P,D111,4,DOUT*%
%TO.N,Net-(D111-DOUT)*%
X262549999Y-116749999D03*
%TD*%
D10*
%TO.P,D149,1,VSS*%
%TO.N,/GND*%
X181508893Y-70776393D03*
D11*
X182208892Y-70776392D03*
%TO.P,D149,2,DIN*%
%TO.N,Net-(D148-DOUT)*%
X182208892Y-69276392D03*
%TO.P,D149,3,VDD*%
%TO.N,/5V*%
X179508892Y-69276392D03*
D10*
X180158893Y-69276393D03*
D11*
%TO.P,D149,4,DOUT*%
%TO.N,Net-(D149-DOUT)*%
X179508892Y-70776392D03*
%TD*%
D10*
%TO.P,D174,1,VSS*%
%TO.N,/GND*%
X232200000Y-15900000D03*
D11*
X232899999Y-15899999D03*
%TO.P,D174,2,DIN*%
%TO.N,Net-(D173-DOUT)*%
X232899999Y-14399999D03*
%TO.P,D174,3,VDD*%
%TO.N,/5V*%
X230199999Y-14399999D03*
D10*
X230850000Y-14400000D03*
D11*
%TO.P,D174,4,DOUT*%
%TO.N,Net-(D174-DOUT)*%
X230199999Y-15899999D03*
%TD*%
D20*
%TO.P,C43,1*%
%TO.N,/3V3*%
X279375000Y-6700000D03*
%TO.P,C43,2*%
%TO.N,/GND*%
X277825000Y-6700000D03*
%TD*%
D10*
%TO.P,D28,1,VSS*%
%TO.N,/GND*%
X183408893Y-170076393D03*
D11*
X184108892Y-170076392D03*
%TO.P,D28,2,DIN*%
%TO.N,Net-(D27-DOUT)*%
X184108892Y-168576392D03*
%TO.P,D28,3,VDD*%
%TO.N,/5V*%
X181408892Y-168576392D03*
D10*
X182058893Y-168576393D03*
D11*
%TO.P,D28,4,DOUT*%
%TO.N,Net-(D28-DOUT)*%
X181408892Y-170076392D03*
%TD*%
D10*
%TO.P,D42,1,VSS*%
%TO.N,/GND*%
X223608893Y-195476393D03*
D11*
X224308892Y-195476392D03*
%TO.P,D42,2,DIN*%
%TO.N,Net-(D41-DOUT)*%
X224308892Y-193976392D03*
%TO.P,D42,3,VDD*%
%TO.N,/5V*%
X221608892Y-193976392D03*
D10*
X222258893Y-193976393D03*
D11*
%TO.P,D42,4,DOUT*%
%TO.N,Net-(D42-DOUT)*%
X221608892Y-195476392D03*
%TD*%
D10*
%TO.P,D38,1,VSS*%
%TO.N,/GND*%
X210550000Y-195450000D03*
D11*
X211249999Y-195449999D03*
%TO.P,D38,2,DIN*%
%TO.N,Net-(D37-DOUT)*%
X211249999Y-193949999D03*
%TO.P,D38,3,VDD*%
%TO.N,/5V*%
X208549999Y-193949999D03*
D10*
X209200000Y-193950000D03*
D11*
%TO.P,D38,4,DOUT*%
%TO.N,Net-(D38-DOUT)*%
X208549999Y-195449999D03*
%TD*%
D19*
%TO.P,C39,1*%
%TO.N,/5V*%
X221225000Y-21300000D03*
%TO.P,C39,2*%
%TO.N,/GND*%
X224175000Y-21300000D03*
%TD*%
D10*
%TO.P,D48,1,VSS*%
%TO.N,/GND*%
X244950000Y-193350000D03*
D11*
X245649999Y-193349999D03*
%TO.P,D48,2,DIN*%
%TO.N,Net-(D47-DOUT)*%
X245649999Y-191849999D03*
%TO.P,D48,3,VDD*%
%TO.N,/5V*%
X242949999Y-191849999D03*
D10*
X243600000Y-191850000D03*
D11*
%TO.P,D48,4,DOUT*%
%TO.N,Net-(D48-DOUT)*%
X242949999Y-193349999D03*
%TD*%
%TO.P,D220,1,VSS*%
%TO.N,/GND*%
X265249999Y-56149999D03*
%TO.P,D220,2,DIN*%
%TO.N,Net-(D219-DOUT)*%
X265249999Y-54649999D03*
%TO.P,D220,3,VDD*%
%TO.N,/5V*%
X262549999Y-54649999D03*
%TO.P,D220,4,DOUT*%
%TO.N,Net-(D220-DOUT)*%
X262549999Y-56149999D03*
%TD*%
D10*
%TO.P,D104,1,VSS*%
%TO.N,/GND*%
X266408893Y-145276393D03*
D11*
X267108892Y-145276392D03*
%TO.P,D104,2,DIN*%
%TO.N,Net-(D103-DOUT)*%
X267108892Y-143776392D03*
%TO.P,D104,3,VDD*%
%TO.N,/5V*%
X264408892Y-143776392D03*
D10*
X265058893Y-143776393D03*
D11*
%TO.P,D104,4,DOUT*%
%TO.N,Net-(D104-DOUT)*%
X264408892Y-145276392D03*
%TD*%
%TO.P,D115,1,VSS*%
%TO.N,/GND*%
X256049999Y-100549999D03*
%TO.P,D115,2,DIN*%
%TO.N,Net-(D114-DOUT)*%
X256049999Y-99049999D03*
%TO.P,D115,3,VDD*%
%TO.N,/5V*%
X253349999Y-99049999D03*
%TO.P,D115,4,DOUT*%
%TO.N,Net-(D115-DOUT)*%
X253349999Y-100549999D03*
%TD*%
%TO.P,D214,1,VSS*%
%TO.N,/GND*%
X284249999Y-60149999D03*
%TO.P,D214,2,DIN*%
%TO.N,Net-(D213-DOUT)*%
X284249999Y-58649999D03*
%TO.P,D214,3,VDD*%
%TO.N,/5V*%
X281549999Y-58649999D03*
%TO.P,D214,4,DOUT*%
%TO.N,Net-(D214-DOUT)*%
X281549999Y-60149999D03*
%TD*%
D10*
%TO.P,D87,1,VSS*%
%TO.N,/GND*%
X193708893Y-128176393D03*
D11*
X194408892Y-128176392D03*
%TO.P,D87,2,DIN*%
%TO.N,Net-(D86-DOUT)*%
X194408892Y-126676392D03*
%TO.P,D87,3,VDD*%
%TO.N,/5V*%
X191708892Y-126676392D03*
D10*
X192358893Y-126676393D03*
D11*
%TO.P,D87,4,DOUT*%
%TO.N,Net-(D87-DOUT)*%
X191708892Y-128176392D03*
%TD*%
D10*
%TO.P,D93,1,VSS*%
%TO.N,/GND*%
X230008893Y-133676393D03*
D11*
X230708892Y-133676392D03*
%TO.P,D93,2,DIN*%
%TO.N,Net-(D92-DOUT)*%
X230708892Y-132176392D03*
%TO.P,D93,3,VDD*%
%TO.N,/5V*%
X228008892Y-132176392D03*
D10*
X228658893Y-132176393D03*
D11*
%TO.P,D93,4,DOUT*%
%TO.N,Net-(D93-DOUT)*%
X228008892Y-133676392D03*
%TD*%
D10*
%TO.P,D154,1,VSS*%
%TO.N,/GND*%
X174708893Y-93876393D03*
D11*
X175408892Y-93876392D03*
%TO.P,D154,2,DIN*%
%TO.N,Net-(D153-DOUT)*%
X175408892Y-92376392D03*
%TO.P,D154,3,VDD*%
%TO.N,/5V*%
X172708892Y-92376392D03*
D10*
X173358893Y-92376393D03*
D11*
%TO.P,D154,4,DOUT*%
%TO.N,Net-(D154-DOUT)*%
X172708892Y-93876392D03*
%TD*%
D10*
%TO.P,D252,1,VSS*%
%TO.N,/GND*%
X273608893Y-75376393D03*
D11*
X274308892Y-75376392D03*
%TO.P,D252,2,DIN*%
%TO.N,Net-(D251-DOUT)*%
X274308892Y-73876392D03*
%TO.P,D252,3,VDD*%
%TO.N,/5V*%
X271608892Y-73876392D03*
D10*
X272258893Y-73876393D03*
D11*
%TO.P,D252,4,DOUT*%
%TO.N,Net-(D252-DOUT)*%
X271608892Y-75376392D03*
%TD*%
D10*
%TO.P,D147,1,VSS*%
%TO.N,/GND*%
X185708893Y-62976393D03*
D11*
X186408892Y-62976392D03*
%TO.P,D147,2,DIN*%
%TO.N,Net-(D146-DOUT)*%
X186408892Y-61476392D03*
%TO.P,D147,3,VDD*%
%TO.N,/5V*%
X183708892Y-61476392D03*
D10*
X184358893Y-61476393D03*
D11*
%TO.P,D147,4,DOUT*%
%TO.N,Net-(D147-DOUT)*%
X183708892Y-62976392D03*
%TD*%
D10*
%TO.P,D69,1,VSS*%
%TO.N,/GND*%
X259900000Y-156600000D03*
D11*
X260599999Y-156599999D03*
%TO.P,D69,2,DIN*%
%TO.N,Net-(D68-DOUT)*%
X260599999Y-155099999D03*
%TO.P,D69,3,VDD*%
%TO.N,/5V*%
X257899999Y-155099999D03*
D10*
X258550000Y-155100000D03*
D11*
%TO.P,D69,4,DOUT*%
%TO.N,Net-(D69-DOUT)*%
X257899999Y-156599999D03*
%TD*%
D10*
%TO.P,D39,1,VSS*%
%TO.N,/GND*%
X212500000Y-199900000D03*
D11*
X213199999Y-199899999D03*
%TO.P,D39,2,DIN*%
%TO.N,Net-(D38-DOUT)*%
X213199999Y-198399999D03*
%TO.P,D39,3,VDD*%
%TO.N,/5V*%
X210499999Y-198399999D03*
D10*
X211150000Y-198400000D03*
D11*
%TO.P,D39,4,DOUT*%
%TO.N,Net-(D39-DOUT)*%
X210499999Y-199899999D03*
%TD*%
%TO.P,D255,1,VSS*%
%TO.N,/GND*%
X278199999Y-67899999D03*
%TO.P,D255,2,DIN*%
%TO.N,Net-(D254-DOUT)*%
X278199999Y-66399999D03*
%TO.P,D255,3,VDD*%
%TO.N,/5V*%
X275499999Y-66399999D03*
%TO.P,D255,4,DOUT*%
%TO.N,Net-(D255-DOUT)*%
X275499999Y-67899999D03*
%TD*%
D10*
%TO.P,D238,1,VSS*%
%TO.N,/GND*%
X241350000Y-85050000D03*
D11*
X242049999Y-85049999D03*
%TO.P,D238,2,DIN*%
%TO.N,Net-(D237-DOUT)*%
X242049999Y-83549999D03*
%TO.P,D238,3,VDD*%
%TO.N,/5V*%
X239349999Y-83549999D03*
D10*
X240000000Y-83550000D03*
D11*
%TO.P,D238,4,DOUT*%
%TO.N,Net-(D238-DOUT)*%
X239349999Y-85049999D03*
%TD*%
D13*
%TO.P,J10,1,Pin_1*%
%TO.N,Net-(U2-CH2)*%
X224699999Y-156199999D03*
%TD*%
D10*
%TO.P,D117,1,VSS*%
%TO.N,/GND*%
X247950000Y-93750000D03*
D11*
X248649999Y-93749999D03*
%TO.P,D117,2,DIN*%
%TO.N,Net-(D116-DOUT)*%
X248649999Y-92249999D03*
%TO.P,D117,3,VDD*%
%TO.N,/5V*%
X245949999Y-92249999D03*
D10*
X246600000Y-92250000D03*
D11*
%TO.P,D117,4,DOUT*%
%TO.N,Net-(D117-DOUT)*%
X245949999Y-93749999D03*
%TD*%
D10*
%TO.P,D243,1,VSS*%
%TO.N,/GND*%
X259650000Y-88150000D03*
D11*
X260349999Y-88149999D03*
%TO.P,D243,2,DIN*%
%TO.N,Net-(D242-DOUT)*%
X260349999Y-86649999D03*
%TO.P,D243,3,VDD*%
%TO.N,/5V*%
X257649999Y-86649999D03*
D10*
X258300000Y-86650000D03*
D11*
%TO.P,D243,4,DOUT*%
%TO.N,Net-(D243-DOUT)*%
X257649999Y-88149999D03*
%TD*%
D10*
%TO.P,D91,1,VSS*%
%TO.N,/GND*%
X218550000Y-125350000D03*
D11*
X219249999Y-125349999D03*
%TO.P,D91,2,DIN*%
%TO.N,Net-(D90-DOUT)*%
X219249999Y-123849999D03*
%TO.P,D91,3,VDD*%
%TO.N,/5V*%
X216549999Y-123849999D03*
D10*
X217200000Y-123850000D03*
D11*
%TO.P,D91,4,DOUT*%
%TO.N,Net-(D91-DOUT)*%
X216549999Y-125349999D03*
%TD*%
D10*
%TO.P,D148,1,VSS*%
%TO.N,/GND*%
X186150000Y-67750000D03*
D11*
X186849999Y-67749999D03*
%TO.P,D148,2,DIN*%
%TO.N,Net-(D147-DOUT)*%
X186849999Y-66249999D03*
%TO.P,D148,3,VDD*%
%TO.N,/5V*%
X184149999Y-66249999D03*
D10*
X184800000Y-66250000D03*
D11*
%TO.P,D148,4,DOUT*%
%TO.N,Net-(D148-DOUT)*%
X184149999Y-67749999D03*
%TD*%
D10*
%TO.P,D17,1,VSS*%
%TO.N,/GND*%
X210200000Y-163200000D03*
D11*
X210899999Y-163199999D03*
%TO.P,D17,2,DIN*%
%TO.N,Net-(D16-DOUT)*%
X210899999Y-161699999D03*
%TO.P,D17,3,VDD*%
%TO.N,/5V*%
X208199999Y-161699999D03*
D10*
X208850000Y-161700000D03*
D11*
%TO.P,D17,4,DOUT*%
%TO.N,Net-(D17-DOUT)*%
X208199999Y-163199999D03*
%TD*%
%TO.P,D205,1,VSS*%
%TO.N,/GND*%
X295599999Y-40499999D03*
%TO.P,D205,2,DIN*%
%TO.N,Net-(D204-DOUT)*%
X295599999Y-38999999D03*
%TO.P,D205,3,VDD*%
%TO.N,/5V*%
X292899999Y-38999999D03*
%TO.P,D205,4,DOUT*%
%TO.N,Net-(D205-DOUT)*%
X292899999Y-40499999D03*
%TD*%
D10*
%TO.P,D25,1,VSS*%
%TO.N,/GND*%
X178308893Y-157276393D03*
D11*
X179008892Y-157276392D03*
%TO.P,D25,2,DIN*%
%TO.N,Net-(D24-DOUT)*%
X179008892Y-155776392D03*
%TO.P,D25,3,VDD*%
%TO.N,/5V*%
X176308892Y-155776392D03*
D10*
X176958893Y-155776393D03*
D11*
%TO.P,D25,4,DOUT*%
%TO.N,Net-(D25-DOUT)*%
X176308892Y-157276392D03*
%TD*%
%TO.P,D204,1,VSS*%
%TO.N,/GND*%
X289899999Y-41299999D03*
%TO.P,D204,2,DIN*%
%TO.N,Net-(D203-DOUT)*%
X289899999Y-39799999D03*
%TO.P,D204,3,VDD*%
%TO.N,/5V*%
X287199999Y-39799999D03*
%TO.P,D204,4,DOUT*%
%TO.N,Net-(D204-DOUT)*%
X287199999Y-41299999D03*
%TD*%
D10*
%TO.P,D185,1,VSS*%
%TO.N,/GND*%
X267650000Y-2850000D03*
D11*
X268349999Y-2849999D03*
%TO.P,D185,2,DIN*%
%TO.N,Net-(D184-DOUT)*%
X268349999Y-1349999D03*
%TO.P,D185,3,VDD*%
%TO.N,/5V*%
X265649999Y-1349999D03*
D10*
X266300000Y-1350000D03*
D11*
%TO.P,D185,4,DOUT*%
%TO.N,Net-(D185-DOUT)*%
X265649999Y-2849999D03*
%TD*%
D10*
%TO.P,D92,1,VSS*%
%TO.N,/GND*%
X225400000Y-128400000D03*
D11*
X226099999Y-128399999D03*
%TO.P,D92,2,DIN*%
%TO.N,Net-(D91-DOUT)*%
X226099999Y-126899999D03*
%TO.P,D92,3,VDD*%
%TO.N,/5V*%
X223399999Y-126899999D03*
D10*
X224050000Y-126900000D03*
D11*
%TO.P,D92,4,DOUT*%
%TO.N,Net-(D92-DOUT)*%
X223399999Y-128399999D03*
%TD*%
D10*
%TO.P,D183,1,VSS*%
%TO.N,/GND*%
X264008893Y-9176393D03*
D11*
X264708892Y-9176392D03*
%TO.P,D183,2,DIN*%
%TO.N,Net-(D182-DOUT)*%
X264708892Y-7676392D03*
%TO.P,D183,3,VDD*%
%TO.N,/5V*%
X262008892Y-7676392D03*
D10*
X262658893Y-7676393D03*
D11*
%TO.P,D183,4,DOUT*%
%TO.N,Net-(D183-DOUT)*%
X262008892Y-9176392D03*
%TD*%
D10*
%TO.P,D177,1,VSS*%
%TO.N,/GND*%
X243750000Y-9250000D03*
D11*
X244449999Y-9249999D03*
%TO.P,D177,2,DIN*%
%TO.N,Net-(D176-DOUT)*%
X244449999Y-7749999D03*
%TO.P,D177,3,VDD*%
%TO.N,/5V*%
X241749999Y-7749999D03*
D10*
X242400000Y-7750000D03*
D11*
%TO.P,D177,4,DOUT*%
%TO.N,Net-(D177-DOUT)*%
X241749999Y-9249999D03*
%TD*%
%TO.P,D230,1,VSS*%
%TO.N,/GND*%
X220549999Y-45449999D03*
%TO.P,D230,2,DIN*%
%TO.N,Net-(D229-DOUT)*%
X220549999Y-43949999D03*
%TO.P,D230,3,VDD*%
%TO.N,/5V*%
X217849999Y-43949999D03*
%TO.P,D230,4,DOUT*%
%TO.N,Net-(D230-DOUT)*%
X217849999Y-45449999D03*
%TD*%
D10*
%TO.P,D20,1,VSS*%
%TO.N,/GND*%
X198850000Y-171650000D03*
D11*
X199549999Y-171649999D03*
%TO.P,D20,2,DIN*%
%TO.N,Net-(D19-DOUT)*%
X199549999Y-170149999D03*
%TO.P,D20,3,VDD*%
%TO.N,/5V*%
X196849999Y-170149999D03*
D10*
X197500000Y-170150000D03*
D11*
%TO.P,D20,4,DOUT*%
%TO.N,Net-(D20-DOUT)*%
X196849999Y-171649999D03*
%TD*%
D10*
%TO.P,D142,1,VSS*%
%TO.N,/GND*%
X208450000Y-69400000D03*
D11*
X209149999Y-69399999D03*
%TO.P,D142,2,DIN*%
%TO.N,Net-(D141-DOUT)*%
X209149999Y-67899999D03*
%TO.P,D142,3,VDD*%
%TO.N,/5V*%
X206449999Y-67899999D03*
D10*
X207100000Y-67900000D03*
D11*
%TO.P,D142,4,DOUT*%
%TO.N,Net-(D142-DOUT)*%
X206449999Y-69399999D03*
%TD*%
D22*
%TO.P,J1,*%
%TO.N,*%
X194329999Y-105629999D03*
X194329999Y-111979999D03*
X195599999Y-105629999D03*
X195599999Y-111979999D03*
X196869999Y-105629999D03*
X196869999Y-111979999D03*
X198139999Y-105629999D03*
X198139999Y-111979999D03*
D23*
%TO.P,J1,1,Pin_1*%
%TO.N,/5V*%
X195599999Y-106899999D03*
D24*
%TO.P,J1,2,Pin_2*%
%TO.N,/STBD_LED_1*%
X196869999Y-106899999D03*
%TO.P,J1,3,Pin_3*%
%TO.N,/GND*%
X195599999Y-108169999D03*
%TO.P,J1,4,Pin_4*%
%TO.N,/STBD_LED_2*%
X196869999Y-108169999D03*
%TO.P,J1,5,Pin_5*%
%TO.N,/SCL*%
X195599999Y-109439999D03*
%TO.P,J1,6,Pin_6*%
%TO.N,/STBD_GP0*%
X196869999Y-109439999D03*
%TO.P,J1,7,Pin_7*%
%TO.N,/SDA*%
X195599999Y-110709999D03*
%TO.P,J1,8,Pin_8*%
%TO.N,/STBD_GP1*%
X196869999Y-110709999D03*
%TD*%
D25*
%TO.P,X1,1,VCC*%
%TO.N,/3V3*%
X284619999Y-4849999D03*
D26*
%TO.P,X1,2,GND*%
%TO.N,/GND*%
X284619999Y-7389999D03*
D25*
%TO.P,X1,3,SDA*%
%TO.N,/SDA*%
X287159999Y-4849999D03*
%TO.P,X1,4,SCL*%
%TO.N,/SCL*%
X287159999Y-7389999D03*
D27*
%TO.P,X1,5,GPIO1*%
%TO.N,/STBD_GP0*%
X289700000Y-4850000D03*
%TO.P,X1,6,GPIO2*%
%TO.N,/STBD_GP1*%
X289700000Y-7390000D03*
%TD*%
D11*
%TO.P,D192,1,VSS*%
%TO.N,/GND*%
X313799999Y-20199999D03*
%TO.P,D192,2,DIN*%
%TO.N,Net-(D191-DOUT)*%
X313799999Y-18699999D03*
%TO.P,D192,3,VDD*%
%TO.N,/5V*%
X311099999Y-18699999D03*
%TO.P,D192,4,DOUT*%
%TO.N,Net-(D192-DOUT)*%
X311099999Y-20199999D03*
%TD*%
%TO.P,D209,1,VSS*%
%TO.N,/GND*%
X287099999Y-49499999D03*
%TO.P,D209,2,DIN*%
%TO.N,Net-(D208-DOUT)*%
X287099999Y-47999999D03*
%TO.P,D209,3,VDD*%
%TO.N,/5V*%
X284399999Y-47999999D03*
%TO.P,D209,4,DOUT*%
%TO.N,Net-(D209-DOUT)*%
X284399999Y-49499999D03*
%TD*%
D10*
%TO.P,D70,1,VSS*%
%TO.N,/GND*%
X254800000Y-155200000D03*
D11*
X255499999Y-155199999D03*
%TO.P,D70,2,DIN*%
%TO.N,Net-(D69-DOUT)*%
X255499999Y-153699999D03*
%TO.P,D70,3,VDD*%
%TO.N,/5V*%
X252799999Y-153699999D03*
D10*
X253450000Y-153700000D03*
D11*
%TO.P,D70,4,DOUT*%
%TO.N,Net-(D70-DOUT)*%
X252799999Y-155199999D03*
%TD*%
D10*
%TO.P,D163,1,VSS*%
%TO.N,/GND*%
X209550000Y-43250000D03*
D11*
X210249999Y-43249999D03*
%TO.P,D163,2,DIN*%
%TO.N,Net-(D162-DOUT)*%
X210249999Y-41749999D03*
%TO.P,D163,3,VDD*%
%TO.N,/5V*%
X207549999Y-41749999D03*
D10*
X208200000Y-41750000D03*
D11*
%TO.P,D163,4,DOUT*%
%TO.N,Net-(D163-DOUT)*%
X207549999Y-43249999D03*
%TD*%
D19*
%TO.P,C41,1*%
%TO.N,/5V*%
X230325000Y-129500000D03*
%TO.P,C41,2*%
%TO.N,/GND*%
X233275000Y-129500000D03*
%TD*%
D10*
%TO.P,D225,1,VSS*%
%TO.N,/GND*%
X240650000Y-55050000D03*
D11*
X241349999Y-55049999D03*
%TO.P,D225,2,DIN*%
%TO.N,Net-(D224-DOUT)*%
X241349999Y-53549999D03*
%TO.P,D225,3,VDD*%
%TO.N,/5V*%
X238649999Y-53549999D03*
D10*
X239300000Y-53550000D03*
D11*
%TO.P,D225,4,DOUT*%
%TO.N,Net-(D225-DOUT)*%
X238649999Y-55049999D03*
%TD*%
D12*
%TO.P,J13,1,Pin_1*%
%TO.N,Net-(U2-CH11)*%
X300099999Y-24999999D03*
%TD*%
D10*
%TO.P,D83,1,VSS*%
%TO.N,/GND*%
X229908893Y-185776393D03*
D11*
X230608892Y-185776392D03*
%TO.P,D83,2,DIN*%
%TO.N,Net-(D82-DOUT)*%
X230608892Y-184276392D03*
%TO.P,D83,3,VDD*%
%TO.N,/5V*%
X227908892Y-184276392D03*
D10*
X228558893Y-184276393D03*
D11*
%TO.P,D83,4,DOUT*%
%TO.N,Net-(D83-DOUT)*%
X227908892Y-185776392D03*
%TD*%
%TO.P,D202,1,VSS*%
%TO.N,/GND*%
X301199999Y-38499999D03*
%TO.P,D202,2,DIN*%
%TO.N,Net-(D201-DOUT)*%
X301199999Y-36999999D03*
%TO.P,D202,3,VDD*%
%TO.N,/5V*%
X298499999Y-36999999D03*
%TO.P,D202,4,DOUT*%
%TO.N,Net-(D202-DOUT)*%
X298499999Y-38499999D03*
%TD*%
D10*
%TO.P,D112,1,VSS*%
%TO.N,/GND*%
X266008893Y-111876393D03*
D11*
X266708892Y-111876392D03*
%TO.P,D112,2,DIN*%
%TO.N,Net-(D111-DOUT)*%
X266708892Y-110376392D03*
%TO.P,D112,3,VDD*%
%TO.N,/5V*%
X264008892Y-110376392D03*
D10*
X264658893Y-110376393D03*
D11*
%TO.P,D112,4,DOUT*%
%TO.N,Net-(D112-DOUT)*%
X264008892Y-111876392D03*
%TD*%
D10*
%TO.P,D240,1,VSS*%
%TO.N,/GND*%
X247208893Y-84676393D03*
D11*
X247908892Y-84676392D03*
%TO.P,D240,2,DIN*%
%TO.N,Net-(D239-DOUT)*%
X247908892Y-83176392D03*
%TO.P,D240,3,VDD*%
%TO.N,/5V*%
X245208892Y-83176392D03*
D10*
X245858893Y-83176393D03*
D11*
%TO.P,D240,4,DOUT*%
%TO.N,Net-(D240-DOUT)*%
X245208892Y-84676392D03*
%TD*%
D10*
%TO.P,D244,1,VSS*%
%TO.N,/GND*%
X261308893Y-83876393D03*
D11*
X262008892Y-83876392D03*
%TO.P,D244,2,DIN*%
%TO.N,Net-(D243-DOUT)*%
X262008892Y-82376392D03*
%TO.P,D244,3,VDD*%
%TO.N,/5V*%
X259308892Y-82376392D03*
D10*
X259958893Y-82376393D03*
D11*
%TO.P,D244,4,DOUT*%
%TO.N,Net-(D244-DOUT)*%
X259308892Y-83876392D03*
%TD*%
D10*
%TO.P,D61,1,VSS*%
%TO.N,/GND*%
X266908893Y-179376393D03*
D11*
X267608892Y-179376392D03*
%TO.P,D61,2,DIN*%
%TO.N,Net-(D60-DOUT)*%
X267608892Y-177876392D03*
%TO.P,D61,3,VDD*%
%TO.N,/5V*%
X264908892Y-177876392D03*
D10*
X265558893Y-177876393D03*
D11*
%TO.P,D61,4,DOUT*%
%TO.N,Net-(D61-DOUT)*%
X264908892Y-179376392D03*
%TD*%
D10*
%TO.P,D241,1,VSS*%
%TO.N,/GND*%
X252808893Y-88476393D03*
D11*
X253508892Y-88476392D03*
%TO.P,D241,2,DIN*%
%TO.N,Net-(D240-DOUT)*%
X253508892Y-86976392D03*
%TO.P,D241,3,VDD*%
%TO.N,/5V*%
X250808892Y-86976392D03*
D10*
X251458893Y-86976393D03*
D11*
%TO.P,D241,4,DOUT*%
%TO.N,Net-(D241-DOUT)*%
X250808892Y-88476392D03*
%TD*%
D10*
%TO.P,D1,1,VSS*%
%TO.N,/GND*%
X172708893Y-117976393D03*
D11*
X173408892Y-117976392D03*
%TO.P,D1,2,DIN*%
%TO.N,Net-(D1-DIN)*%
X173408892Y-116476392D03*
%TO.P,D1,3,VDD*%
%TO.N,/5V*%
X170708892Y-116476392D03*
D10*
X171358893Y-116476393D03*
D11*
%TO.P,D1,4,DOUT*%
%TO.N,Net-(D1-DOUT)*%
X170708892Y-117976392D03*
%TD*%
D28*
%TO.P,C38,1*%
%TO.N,/5V*%
X221500000Y-174800000D03*
%TO.P,C38,2*%
%TO.N,/GND*%
X219414034Y-172714034D03*
%TD*%
D10*
%TO.P,D126,1,VSS*%
%TO.N,/GND*%
X199100000Y-94700000D03*
D11*
X199799999Y-94699999D03*
%TO.P,D126,2,DIN*%
%TO.N,Net-(D125-DOUT)*%
X199799999Y-93199999D03*
%TO.P,D126,3,VDD*%
%TO.N,/5V*%
X197099999Y-93199999D03*
D10*
X197750000Y-93200000D03*
D11*
%TO.P,D126,4,DOUT*%
%TO.N,Net-(D126-DOUT)*%
X197099999Y-94699999D03*
%TD*%
D10*
%TO.P,D124,1,VSS*%
%TO.N,/GND*%
X208008893Y-88576393D03*
D11*
X208708892Y-88576392D03*
%TO.P,D124,2,DIN*%
%TO.N,Net-(D123-DOUT)*%
X208708892Y-87076392D03*
%TO.P,D124,3,VDD*%
%TO.N,/5V*%
X206008892Y-87076392D03*
D10*
X206658893Y-87076393D03*
D11*
%TO.P,D124,4,DOUT*%
%TO.N,Net-(D124-DOUT)*%
X206008892Y-88576392D03*
%TD*%
D10*
%TO.P,D27,1,VSS*%
%TO.N,/GND*%
X182708893Y-150776393D03*
D11*
X183408892Y-150776392D03*
%TO.P,D27,2,DIN*%
%TO.N,Net-(D26-DOUT)*%
X183408892Y-149276392D03*
%TO.P,D27,3,VDD*%
%TO.N,/5V*%
X180708892Y-149276392D03*
D10*
X181358893Y-149276393D03*
D11*
%TO.P,D27,4,DOUT*%
%TO.N,Net-(D27-DOUT)*%
X180708892Y-150776392D03*
%TD*%
D12*
%TO.P,J18,1,Pin_1*%
%TO.N,Net-(U2-CH4)*%
X274999999Y-58899999D03*
%TD*%
D10*
%TO.P,D161,1,VSS*%
%TO.N,/GND*%
X197908893Y-42976393D03*
D11*
X198608892Y-42976392D03*
%TO.P,D161,2,DIN*%
%TO.N,Net-(D160-DOUT)*%
X198608892Y-41476392D03*
%TO.P,D161,3,VDD*%
%TO.N,/5V*%
X195908892Y-41476392D03*
D10*
X196558893Y-41476393D03*
D11*
%TO.P,D161,4,DOUT*%
%TO.N,Net-(D161-DOUT)*%
X195908892Y-42976392D03*
%TD*%
D10*
%TO.P,D6,1,VSS*%
%TO.N,/GND*%
X178308893Y-129176393D03*
D11*
X179008892Y-129176392D03*
%TO.P,D6,2,DIN*%
%TO.N,Net-(D5-DOUT)*%
X179008892Y-127676392D03*
%TO.P,D6,3,VDD*%
%TO.N,/5V*%
X176308892Y-127676392D03*
D10*
X176958893Y-127676393D03*
D11*
%TO.P,D6,4,DOUT*%
%TO.N,Net-(D6-DOUT)*%
X176308892Y-129176392D03*
%TD*%
D10*
%TO.P,D118,1,VSS*%
%TO.N,/GND*%
X231200000Y-87900000D03*
D11*
X231899999Y-87899999D03*
%TO.P,D118,2,DIN*%
%TO.N,Net-(D117-DOUT)*%
X231899999Y-86399999D03*
%TO.P,D118,3,VDD*%
%TO.N,/5V*%
X229199999Y-86399999D03*
D10*
X229850000Y-86400000D03*
D11*
%TO.P,D118,4,DOUT*%
%TO.N,Net-(D118-DOUT)*%
X229199999Y-87899999D03*
%TD*%
D10*
%TO.P,D159,1,VSS*%
%TO.N,/GND*%
X194350000Y-48650000D03*
D11*
X195049999Y-48649999D03*
%TO.P,D159,2,DIN*%
%TO.N,Net-(D158-DOUT)*%
X195049999Y-47149999D03*
%TO.P,D159,3,VDD*%
%TO.N,/5V*%
X192349999Y-47149999D03*
D10*
X193000000Y-47150000D03*
D11*
%TO.P,D159,4,DOUT*%
%TO.N,Net-(D159-DOUT)*%
X192349999Y-48649999D03*
%TD*%
D10*
%TO.P,D224,1,VSS*%
%TO.N,/GND*%
X245550000Y-54550000D03*
D11*
X246249999Y-54549999D03*
%TO.P,D224,2,DIN*%
%TO.N,Net-(D223-DOUT)*%
X246249999Y-53049999D03*
%TO.P,D224,3,VDD*%
%TO.N,/5V*%
X243549999Y-53049999D03*
D10*
X244200000Y-53050000D03*
D11*
%TO.P,D224,4,DOUT*%
%TO.N,Net-(D224-DOUT)*%
X243549999Y-54549999D03*
%TD*%
D10*
%TO.P,D160,1,VSS*%
%TO.N,/GND*%
X201508893Y-46876393D03*
D11*
X202208892Y-46876392D03*
%TO.P,D160,2,DIN*%
%TO.N,Net-(D159-DOUT)*%
X202208892Y-45376392D03*
%TO.P,D160,3,VDD*%
%TO.N,/5V*%
X199508892Y-45376392D03*
D10*
X200158893Y-45376393D03*
D11*
%TO.P,D160,4,DOUT*%
%TO.N,Net-(D160-DOUT)*%
X199508892Y-46876392D03*
%TD*%
D10*
%TO.P,D80,1,VSS*%
%TO.N,/GND*%
X225300000Y-170700000D03*
D11*
X225999999Y-170699999D03*
%TO.P,D80,2,DIN*%
%TO.N,Net-(D79-DOUT)*%
X225999999Y-169199999D03*
%TO.P,D80,3,VDD*%
%TO.N,/5V*%
X223299999Y-169199999D03*
D10*
X223950000Y-169200000D03*
D11*
%TO.P,D80,4,DOUT*%
%TO.N,Net-(D80-DOUT)*%
X223299999Y-170699999D03*
%TD*%
D10*
%TO.P,D251,1,VSS*%
%TO.N,/GND*%
X277708893Y-75676393D03*
D11*
X278408892Y-75676392D03*
%TO.P,D251,2,DIN*%
%TO.N,Net-(D250-DOUT)*%
X278408892Y-74176392D03*
%TO.P,D251,3,VDD*%
%TO.N,/5V*%
X275708892Y-74176392D03*
D10*
X276358893Y-74176393D03*
D11*
%TO.P,D251,4,DOUT*%
%TO.N,Net-(D251-DOUT)*%
X275708892Y-75676392D03*
%TD*%
D10*
%TO.P,D65,1,VSS*%
%TO.N,/GND*%
X262900000Y-167300000D03*
D11*
X263599999Y-167299999D03*
%TO.P,D65,2,DIN*%
%TO.N,Net-(D64-DOUT)*%
X263599999Y-165799999D03*
%TO.P,D65,3,VDD*%
%TO.N,/5V*%
X260899999Y-165799999D03*
D10*
X261550000Y-165800000D03*
D11*
%TO.P,D65,4,DOUT*%
%TO.N,Net-(D65-DOUT)*%
X260899999Y-167299999D03*
%TD*%
%TO.P,D228,1,VSS*%
%TO.N,/GND*%
X226708892Y-51276392D03*
%TO.P,D228,2,DIN*%
%TO.N,Net-(D227-DOUT)*%
X226708892Y-49776392D03*
%TO.P,D228,3,VDD*%
%TO.N,/5V*%
X224008892Y-49776392D03*
%TO.P,D228,4,DOUT*%
%TO.N,Net-(D228-DOUT)*%
X224008892Y-51276392D03*
%TD*%
D10*
%TO.P,D97,1,VSS*%
%TO.N,/GND*%
X236550000Y-134250000D03*
D11*
X237249999Y-134249999D03*
%TO.P,D97,2,DIN*%
%TO.N,Net-(D96-DOUT)*%
X237249999Y-132749999D03*
%TO.P,D97,3,VDD*%
%TO.N,/5V*%
X234549999Y-132749999D03*
D10*
X235200000Y-132750000D03*
D11*
%TO.P,D97,4,DOUT*%
%TO.N,Net-(D97-DOUT)*%
X234549999Y-134249999D03*
%TD*%
D10*
%TO.P,D135,1,VSS*%
%TO.N,/GND*%
X196208893Y-103276393D03*
D11*
X196908892Y-103276392D03*
%TO.P,D135,2,DIN*%
%TO.N,Net-(D134-DOUT)*%
X196908892Y-101776392D03*
%TO.P,D135,3,VDD*%
%TO.N,/5V*%
X194208892Y-101776392D03*
D10*
X194858893Y-101776393D03*
D11*
%TO.P,D135,4,DOUT*%
%TO.N,Net-(D135-DOUT)*%
X194208892Y-103276392D03*
%TD*%
D10*
%TO.P,D74,1,VSS*%
%TO.N,/GND*%
X235350000Y-154850000D03*
D11*
X236049999Y-154849999D03*
%TO.P,D74,2,DIN*%
%TO.N,Net-(D73-DOUT)*%
X236049999Y-153349999D03*
%TO.P,D74,3,VDD*%
%TO.N,/5V*%
X233349999Y-153349999D03*
D10*
X234000000Y-153350000D03*
D11*
%TO.P,D74,4,DOUT*%
%TO.N,Net-(D74-DOUT)*%
X233349999Y-154849999D03*
%TD*%
D13*
%TO.P,J8,1,Pin_1*%
%TO.N,Net-(U2-CH0)*%
X222299999Y-42999999D03*
%TD*%
D10*
%TO.P,D73,1,VSS*%
%TO.N,/GND*%
X240050000Y-155950000D03*
D11*
X240749999Y-155949999D03*
%TO.P,D73,2,DIN*%
%TO.N,Net-(D72-DOUT)*%
X240749999Y-154449999D03*
%TO.P,D73,3,VDD*%
%TO.N,/5V*%
X238049999Y-154449999D03*
D10*
X238700000Y-154450000D03*
D11*
%TO.P,D73,4,DOUT*%
%TO.N,Net-(D73-DOUT)*%
X238049999Y-155949999D03*
%TD*%
D29*
%TO.P,J14,1,Pin_1*%
%TO.N,unconnected-(J14-Pin_1)*%
X172939999Y-146659999D03*
D30*
%TO.P,J14,2,Pin_2*%
%TO.N,unconnected-(J14-Pin_2)*%
X175479999Y-146659999D03*
%TO.P,J14,3,Pin_3*%
%TO.N,unconnected-(J14-Pin_3)*%
X178019999Y-146659999D03*
%TO.P,J14,4,Pin_4*%
%TO.N,unconnected-(J14-Pin_4)*%
X180559999Y-146659999D03*
%TO.P,J14,5,Pin_5*%
%TO.N,unconnected-(J14-Pin_5)*%
X183099999Y-146659999D03*
%TO.P,J14,6,Pin_6*%
%TO.N,unconnected-(J14-Pin_6)*%
X185639999Y-146659999D03*
%TO.P,J14,7,Pin_7*%
%TO.N,unconnected-(J14-Pin_7)*%
X185639999Y-136499999D03*
%TO.P,J14,8,Pin_8*%
%TO.N,unconnected-(J14-Pin_8)*%
X183099999Y-136499999D03*
%TO.P,J14,9,Pin_9*%
%TO.N,unconnected-(J14-Pin_9)*%
X180559999Y-136499999D03*
%TO.P,J14,10,Pin_10*%
%TO.N,unconnected-(J14-Pin_10)*%
X178019999Y-136499999D03*
%TO.P,J14,11,Pin_11*%
%TO.N,unconnected-(J14-Pin_11)*%
X175479999Y-136499999D03*
%TO.P,J14,12,Pin_12*%
%TO.N,unconnected-(J14-Pin_12)*%
X172939999Y-136499999D03*
%TD*%
D12*
%TO.P,J16,1,Pin_1*%
%TO.N,Net-(U2-CH6)*%
X291199999Y-43299999D03*
%TD*%
D11*
%TO.P,D201,1,VSS*%
%TO.N,/GND*%
X300899999Y-34399999D03*
%TO.P,D201,2,DIN*%
%TO.N,Net-(D200-DOUT)*%
X300899999Y-32899999D03*
%TO.P,D201,3,VDD*%
%TO.N,/5V*%
X298199999Y-32899999D03*
%TO.P,D201,4,DOUT*%
%TO.N,Net-(D201-DOUT)*%
X298199999Y-34399999D03*
%TD*%
D10*
%TO.P,D179,1,VSS*%
%TO.N,/GND*%
X248908893Y-6576393D03*
D11*
X249608892Y-6576392D03*
%TO.P,D179,2,DIN*%
%TO.N,Net-(D178-DOUT)*%
X249608892Y-5076392D03*
%TO.P,D179,3,VDD*%
%TO.N,/5V*%
X246908892Y-5076392D03*
D10*
X247558893Y-5076393D03*
D11*
%TO.P,D179,4,DOUT*%
%TO.N,Net-(D179-DOUT)*%
X246908892Y-6576392D03*
%TD*%
D31*
%TO.P,C1,1*%
%TO.N,/3V3*%
X298820000Y-2500000D03*
%TO.P,C1,2*%
%TO.N,/GND*%
X299780000Y-2500000D03*
%TD*%
D10*
%TO.P,D26,1,VSS*%
%TO.N,/GND*%
X176650000Y-152450000D03*
D11*
X177349999Y-152449999D03*
%TO.P,D26,2,DIN*%
%TO.N,Net-(D25-DOUT)*%
X177349999Y-150949999D03*
%TO.P,D26,3,VDD*%
%TO.N,/5V*%
X174649999Y-150949999D03*
D10*
X175300000Y-150950000D03*
D11*
%TO.P,D26,4,DOUT*%
%TO.N,Net-(D26-DOUT)*%
X174649999Y-152449999D03*
%TD*%
D10*
%TO.P,D102,1,VSS*%
%TO.N,/GND*%
X261350000Y-152050000D03*
D11*
X262049999Y-152049999D03*
%TO.P,D102,2,DIN*%
%TO.N,Net-(D101-DOUT)*%
X262049999Y-150549999D03*
%TO.P,D102,3,VDD*%
%TO.N,/5V*%
X259349999Y-150549999D03*
D10*
X260000000Y-150550000D03*
D11*
%TO.P,D102,4,DOUT*%
%TO.N,Net-(D102-DOUT)*%
X259349999Y-152049999D03*
%TD*%
%TO.P,D199,1,VSS*%
%TO.N,/GND*%
X293799999Y-32599999D03*
%TO.P,D199,2,DIN*%
%TO.N,Net-(D198-DOUT)*%
X293799999Y-31099999D03*
%TO.P,D199,3,VDD*%
%TO.N,/5V*%
X291099999Y-31099999D03*
%TO.P,D199,4,DOUT*%
%TO.N,Net-(D199-DOUT)*%
X291099999Y-32599999D03*
%TD*%
%TO.P,D217,1,VSS*%
%TO.N,/GND*%
X275749999Y-63049999D03*
%TO.P,D217,2,DIN*%
%TO.N,Net-(D216-DOUT)*%
X275749999Y-61549999D03*
%TO.P,D217,3,VDD*%
%TO.N,/5V*%
X273049999Y-61549999D03*
%TO.P,D217,4,DOUT*%
%TO.N,Net-(D217-DOUT)*%
X273049999Y-63049999D03*
%TD*%
%TO.P,D203,1,VSS*%
%TO.N,/GND*%
X291499999Y-36999999D03*
%TO.P,D203,2,DIN*%
%TO.N,Net-(D202-DOUT)*%
X291499999Y-35499999D03*
%TO.P,D203,3,VDD*%
%TO.N,/5V*%
X288799999Y-35499999D03*
%TO.P,D203,4,DOUT*%
%TO.N,Net-(D203-DOUT)*%
X288799999Y-36999999D03*
%TD*%
D10*
%TO.P,D127,1,VSS*%
%TO.N,/GND*%
X196850000Y-98650000D03*
D11*
X197549999Y-98649999D03*
%TO.P,D127,2,DIN*%
%TO.N,Net-(D126-DOUT)*%
X197549999Y-97149999D03*
%TO.P,D127,3,VDD*%
%TO.N,/5V*%
X194849999Y-97149999D03*
D10*
X195500000Y-97150000D03*
D11*
%TO.P,D127,4,DOUT*%
%TO.N,Net-(D127-DOUT)*%
X194849999Y-98649999D03*
%TD*%
D10*
%TO.P,D166,1,VSS*%
%TO.N,/GND*%
X208208893Y-33576393D03*
D11*
X208908892Y-33576392D03*
%TO.P,D166,2,DIN*%
%TO.N,Net-(D165-DOUT)*%
X208908892Y-32076392D03*
%TO.P,D166,3,VDD*%
%TO.N,/5V*%
X206208892Y-32076392D03*
D10*
X206858893Y-32076393D03*
D11*
%TO.P,D166,4,DOUT*%
%TO.N,Net-(D166-DOUT)*%
X206208892Y-33576392D03*
%TD*%
D10*
%TO.P,D119,1,VSS*%
%TO.N,/GND*%
X225550000Y-85350000D03*
D11*
X226249999Y-85349999D03*
%TO.P,D119,2,DIN*%
%TO.N,Net-(D118-DOUT)*%
X226249999Y-83849999D03*
%TO.P,D119,3,VDD*%
%TO.N,/5V*%
X223549999Y-83849999D03*
D10*
X224200000Y-83850000D03*
D11*
%TO.P,D119,4,DOUT*%
%TO.N,Net-(D119-DOUT)*%
X223549999Y-85349999D03*
%TD*%
D10*
%TO.P,D253,1,VSS*%
%TO.N,/GND*%
X273908893Y-71576393D03*
D11*
X274608892Y-71576392D03*
%TO.P,D253,2,DIN*%
%TO.N,Net-(D252-DOUT)*%
X274608892Y-70076392D03*
%TO.P,D253,3,VDD*%
%TO.N,/5V*%
X271908892Y-70076392D03*
D10*
X272558893Y-70076393D03*
D11*
%TO.P,D253,4,DOUT*%
%TO.N,Net-(D253-DOUT)*%
X271908892Y-71576392D03*
%TD*%
D10*
%TO.P,D245,1,VSS*%
%TO.N,/GND*%
X264550000Y-87150000D03*
D11*
X265249999Y-87149999D03*
%TO.P,D245,2,DIN*%
%TO.N,Net-(D244-DOUT)*%
X265249999Y-85649999D03*
%TO.P,D245,3,VDD*%
%TO.N,/5V*%
X262549999Y-85649999D03*
D10*
X263200000Y-85650000D03*
D11*
%TO.P,D245,4,DOUT*%
%TO.N,Net-(D245-DOUT)*%
X262549999Y-87149999D03*
%TD*%
D13*
%TO.P,J9,1,Pin_1*%
%TO.N,Net-(U2-CH1)*%
X197399999Y-79499999D03*
%TD*%
D10*
%TO.P,D236,1,VSS*%
%TO.N,/GND*%
X235450000Y-85050000D03*
D11*
X236149999Y-85049999D03*
%TO.P,D236,2,DIN*%
%TO.N,Net-(D235-DOUT)*%
X236149999Y-83549999D03*
%TO.P,D236,3,VDD*%
%TO.N,/5V*%
X233449999Y-83549999D03*
D10*
X234100000Y-83550000D03*
D11*
%TO.P,D236,4,DOUT*%
%TO.N,Net-(D236-DOUT)*%
X233449999Y-85049999D03*
%TD*%
D10*
%TO.P,D4,1,VSS*%
%TO.N,/GND*%
X172408893Y-127176393D03*
D11*
X173108892Y-127176392D03*
%TO.P,D4,2,DIN*%
%TO.N,Net-(D3-DOUT)*%
X173108892Y-125676392D03*
%TO.P,D4,3,VDD*%
%TO.N,/5V*%
X170408892Y-125676392D03*
D10*
X171058893Y-125676393D03*
D11*
%TO.P,D4,4,DOUT*%
%TO.N,Net-(D4-DOUT)*%
X170408892Y-127176392D03*
%TD*%
D10*
%TO.P,D173,1,VSS*%
%TO.N,/GND*%
X232050000Y-20900000D03*
D11*
X232749999Y-20899999D03*
%TO.P,D173,2,DIN*%
%TO.N,Net-(D172-DOUT)*%
X232749999Y-19399999D03*
%TO.P,D173,3,VDD*%
%TO.N,/5V*%
X230049999Y-19399999D03*
D10*
X230700000Y-19400000D03*
D11*
%TO.P,D173,4,DOUT*%
%TO.N,Net-(D173-DOUT)*%
X230049999Y-20899999D03*
%TD*%
%TO.P,D188,1,VSS*%
%TO.N,/GND*%
X310008892Y-15176392D03*
%TO.P,D188,2,DIN*%
%TO.N,Net-(D187-DOUT)*%
X310008892Y-13676392D03*
%TO.P,D188,3,VDD*%
%TO.N,/5V*%
X307308892Y-13676392D03*
%TO.P,D188,4,DOUT*%
%TO.N,Net-(D188-DOUT)*%
X307308892Y-15176392D03*
%TD*%
%TO.P,D208,1,VSS*%
%TO.N,/GND*%
X288999999Y-46299999D03*
%TO.P,D208,2,DIN*%
%TO.N,Net-(D207-DOUT)*%
X288999999Y-44799999D03*
%TO.P,D208,3,VDD*%
%TO.N,/5V*%
X286299999Y-44799999D03*
%TO.P,D208,4,DOUT*%
%TO.N,Net-(D208-DOUT)*%
X286299999Y-46299999D03*
%TD*%
%TO.P,D211,1,VSS*%
%TO.N,/GND*%
X288908892Y-57476392D03*
%TO.P,D211,2,DIN*%
%TO.N,Net-(D210-DOUT)*%
X288908892Y-55976392D03*
%TO.P,D211,3,VDD*%
%TO.N,/5V*%
X286208892Y-55976392D03*
%TO.P,D211,4,DOUT*%
%TO.N,Net-(D211-DOUT)*%
X286208892Y-57476392D03*
%TD*%
D10*
%TO.P,D66,1,VSS*%
%TO.N,/GND*%
X258800000Y-164800000D03*
D11*
X259499999Y-164799999D03*
%TO.P,D66,2,DIN*%
%TO.N,Net-(D65-DOUT)*%
X259499999Y-163299999D03*
%TO.P,D66,3,VDD*%
%TO.N,/5V*%
X256799999Y-163299999D03*
D10*
X257450000Y-163300000D03*
D11*
%TO.P,D66,4,DOUT*%
%TO.N,Net-(D66-DOUT)*%
X256799999Y-164799999D03*
%TD*%
D10*
%TO.P,D128,1,VSS*%
%TO.N,/GND*%
X192150000Y-97150000D03*
D11*
X192849999Y-97149999D03*
%TO.P,D128,2,DIN*%
%TO.N,Net-(D127-DOUT)*%
X192849999Y-95649999D03*
%TO.P,D128,3,VDD*%
%TO.N,/5V*%
X190149999Y-95649999D03*
D10*
X190800000Y-95650000D03*
D11*
%TO.P,D128,4,DOUT*%
%TO.N,/STBD_LED_1_OUT*%
X190149999Y-97149999D03*
%TD*%
%TO.P,D200,1,VSS*%
%TO.N,/GND*%
X300099999Y-30399999D03*
%TO.P,D200,2,DIN*%
%TO.N,Net-(D199-DOUT)*%
X300099999Y-28899999D03*
%TO.P,D200,3,VDD*%
%TO.N,/5V*%
X297399999Y-28899999D03*
%TO.P,D200,4,DOUT*%
%TO.N,Net-(D200-DOUT)*%
X297399999Y-30399999D03*
%TD*%
D10*
%TO.P,D234,1,VSS*%
%TO.N,/GND*%
X222150000Y-67350000D03*
D11*
X222849999Y-67349999D03*
%TO.P,D234,2,DIN*%
%TO.N,Net-(D233-DOUT)*%
X222849999Y-65849999D03*
%TO.P,D234,3,VDD*%
%TO.N,/5V*%
X220149999Y-65849999D03*
D10*
X220800000Y-65850000D03*
D11*
%TO.P,D234,4,DOUT*%
%TO.N,Net-(D234-DOUT)*%
X220149999Y-67349999D03*
%TD*%
%TO.P,D77,1,VSS*%
%TO.N,/GND*%
X224249999Y-153449999D03*
%TO.P,D77,2,DIN*%
%TO.N,Net-(D76-DOUT)*%
X224249999Y-151949999D03*
%TO.P,D77,3,VDD*%
%TO.N,/5V*%
X221549999Y-151949999D03*
%TO.P,D77,4,DOUT*%
%TO.N,Net-(D77-DOUT)*%
X221549999Y-153449999D03*
%TD*%
%TO.P,D116,1,VSS*%
%TO.N,/GND*%
X252999999Y-96899999D03*
%TO.P,D116,2,DIN*%
%TO.N,Net-(D115-DOUT)*%
X252999999Y-95399999D03*
%TO.P,D116,3,VDD*%
%TO.N,/5V*%
X250299999Y-95399999D03*
%TO.P,D116,4,DOUT*%
%TO.N,Net-(D116-DOUT)*%
X250299999Y-96899999D03*
%TD*%
D10*
%TO.P,D37,1,VSS*%
%TO.N,/GND*%
X204308893Y-196276393D03*
D11*
X205008892Y-196276392D03*
%TO.P,D37,2,DIN*%
%TO.N,Net-(D36-DOUT)*%
X205008892Y-194776392D03*
%TO.P,D37,3,VDD*%
%TO.N,/5V*%
X202308892Y-194776392D03*
D10*
X202958893Y-194776393D03*
D11*
%TO.P,D37,4,DOUT*%
%TO.N,Net-(D37-DOUT)*%
X202308892Y-196276392D03*
%TD*%
D10*
%TO.P,D125,1,VSS*%
%TO.N,/GND*%
X204450000Y-92550000D03*
D11*
X205149999Y-92549999D03*
%TO.P,D125,2,DIN*%
%TO.N,Net-(D124-DOUT)*%
X205149999Y-91049999D03*
%TO.P,D125,3,VDD*%
%TO.N,/5V*%
X202449999Y-91049999D03*
D10*
X203100000Y-91050000D03*
D11*
%TO.P,D125,4,DOUT*%
%TO.N,Net-(D125-DOUT)*%
X202449999Y-92549999D03*
%TD*%
D10*
%TO.P,D233,1,VSS*%
%TO.N,/GND*%
X223950000Y-62250000D03*
D11*
X224649999Y-62249999D03*
%TO.P,D233,2,DIN*%
%TO.N,Net-(D232-DOUT)*%
X224649999Y-60749999D03*
%TO.P,D233,3,VDD*%
%TO.N,/5V*%
X221949999Y-60749999D03*
D10*
X222600000Y-60750000D03*
D11*
%TO.P,D233,4,DOUT*%
%TO.N,Net-(D233-DOUT)*%
X221949999Y-62249999D03*
%TD*%
D10*
%TO.P,D242,1,VSS*%
%TO.N,/GND*%
X255008893Y-84476393D03*
D11*
X255708892Y-84476392D03*
%TO.P,D242,2,DIN*%
%TO.N,Net-(D241-DOUT)*%
X255708892Y-82976392D03*
%TO.P,D242,3,VDD*%
%TO.N,/5V*%
X253008892Y-82976392D03*
D10*
X253658893Y-82976393D03*
D11*
%TO.P,D242,4,DOUT*%
%TO.N,Net-(D242-DOUT)*%
X253008892Y-84476392D03*
%TD*%
D10*
%TO.P,D76,1,VSS*%
%TO.N,/GND*%
X229650000Y-154350000D03*
D11*
X230349999Y-154349999D03*
%TO.P,D76,2,DIN*%
%TO.N,Net-(D75-DOUT)*%
X230349999Y-152849999D03*
%TO.P,D76,3,VDD*%
%TO.N,/5V*%
X227649999Y-152849999D03*
D10*
X228300000Y-152850000D03*
D11*
%TO.P,D76,4,DOUT*%
%TO.N,Net-(D76-DOUT)*%
X227649999Y-154349999D03*
%TD*%
D10*
%TO.P,D5,1,VSS*%
%TO.N,/GND*%
X172608893Y-131876393D03*
D11*
X173308892Y-131876392D03*
%TO.P,D5,2,DIN*%
%TO.N,Net-(D4-DOUT)*%
X173308892Y-130376392D03*
%TO.P,D5,3,VDD*%
%TO.N,/5V*%
X170608892Y-130376392D03*
D10*
X171258893Y-130376393D03*
D11*
%TO.P,D5,4,DOUT*%
%TO.N,Net-(D5-DOUT)*%
X170608892Y-131876392D03*
%TD*%
%TO.P,D254,1,VSS*%
%TO.N,/GND*%
X278899999Y-71499999D03*
%TO.P,D254,2,DIN*%
%TO.N,Net-(D253-DOUT)*%
X278899999Y-69999999D03*
%TO.P,D254,3,VDD*%
%TO.N,/5V*%
X276199999Y-69999999D03*
%TO.P,D254,4,DOUT*%
%TO.N,Net-(D254-DOUT)*%
X276199999Y-71499999D03*
%TD*%
D10*
%TO.P,D110,1,VSS*%
%TO.N,/GND*%
X265050000Y-121650000D03*
D11*
X265749999Y-121649999D03*
%TO.P,D110,2,DIN*%
%TO.N,Net-(D109-DOUT)*%
X265749999Y-120149999D03*
%TO.P,D110,3,VDD*%
%TO.N,/5V*%
X263049999Y-120149999D03*
D10*
X263700000Y-120150000D03*
D11*
%TO.P,D110,4,DOUT*%
%TO.N,Net-(D110-DOUT)*%
X263049999Y-121649999D03*
%TD*%
D10*
%TO.P,D157,1,VSS*%
%TO.N,/GND*%
X190750000Y-54450000D03*
D11*
X191449999Y-54449999D03*
%TO.P,D157,2,DIN*%
%TO.N,Net-(D156-DOUT)*%
X191449999Y-52949999D03*
%TO.P,D157,3,VDD*%
%TO.N,/5V*%
X188749999Y-52949999D03*
D10*
X189400000Y-52950000D03*
D11*
%TO.P,D157,4,DOUT*%
%TO.N,Net-(D157-DOUT)*%
X188749999Y-54449999D03*
%TD*%
D10*
%TO.P,D139,1,VSS*%
%TO.N,/GND*%
X208850000Y-79650000D03*
D11*
X209549999Y-79649999D03*
%TO.P,D139,2,DIN*%
%TO.N,Net-(D138-DOUT)*%
X209549999Y-78149999D03*
%TO.P,D139,3,VDD*%
%TO.N,/5V*%
X206849999Y-78149999D03*
D10*
X207500000Y-78150000D03*
D11*
%TO.P,D139,4,DOUT*%
%TO.N,Net-(D139-DOUT)*%
X206849999Y-79649999D03*
%TD*%
D10*
%TO.P,D237,1,VSS*%
%TO.N,/GND*%
X238708893Y-90076393D03*
D11*
X239408892Y-90076392D03*
%TO.P,D237,2,DIN*%
%TO.N,Net-(D236-DOUT)*%
X239408892Y-88576392D03*
%TO.P,D237,3,VDD*%
%TO.N,/5V*%
X236708892Y-88576392D03*
D10*
X237358893Y-88576393D03*
D11*
%TO.P,D237,4,DOUT*%
%TO.N,Net-(D237-DOUT)*%
X236708892Y-90076392D03*
%TD*%
D10*
%TO.P,D140,1,VSS*%
%TO.N,/GND*%
X214950000Y-78750000D03*
D11*
X215649999Y-78749999D03*
%TO.P,D140,2,DIN*%
%TO.N,Net-(D139-DOUT)*%
X215649999Y-77249999D03*
%TO.P,D140,3,VDD*%
%TO.N,/5V*%
X212949999Y-77249999D03*
D10*
X213600000Y-77250000D03*
D11*
%TO.P,D140,4,DOUT*%
%TO.N,Net-(D140-DOUT)*%
X212949999Y-78749999D03*
%TD*%
D10*
%TO.P,D152,1,VSS*%
%TO.N,/GND*%
X178650000Y-84150000D03*
D11*
X179349999Y-84149999D03*
%TO.P,D152,2,DIN*%
%TO.N,Net-(D151-DOUT)*%
X179349999Y-82649999D03*
%TO.P,D152,3,VDD*%
%TO.N,/5V*%
X176649999Y-82649999D03*
D10*
X177300000Y-82650000D03*
D11*
%TO.P,D152,4,DOUT*%
%TO.N,Net-(D152-DOUT)*%
X176649999Y-84149999D03*
%TD*%
D10*
%TO.P,D43,1,VSS*%
%TO.N,/GND*%
X229250000Y-195950000D03*
D11*
X229949999Y-195949999D03*
%TO.P,D43,2,DIN*%
%TO.N,Net-(D42-DOUT)*%
X229949999Y-194449999D03*
%TO.P,D43,3,VDD*%
%TO.N,/5V*%
X227249999Y-194449999D03*
D10*
X227900000Y-194450000D03*
D11*
%TO.P,D43,4,DOUT*%
%TO.N,Net-(D43-DOUT)*%
X227249999Y-195949999D03*
%TD*%
D10*
%TO.P,D99,1,VSS*%
%TO.N,/GND*%
X246508893Y-142176393D03*
D11*
X247208892Y-142176392D03*
%TO.P,D99,2,DIN*%
%TO.N,Net-(D98-DOUT)*%
X247208892Y-140676392D03*
%TO.P,D99,3,VDD*%
%TO.N,/5V*%
X244508892Y-140676392D03*
D10*
X245158893Y-140676393D03*
D11*
%TO.P,D99,4,DOUT*%
%TO.N,Net-(D100-DIN)*%
X244508892Y-142176392D03*
%TD*%
D10*
%TO.P,D169,1,VSS*%
%TO.N,/GND*%
X218208893Y-29476393D03*
D11*
X218908892Y-29476392D03*
%TO.P,D169,2,DIN*%
%TO.N,Net-(D168-DOUT)*%
X218908892Y-27976392D03*
%TO.P,D169,3,VDD*%
%TO.N,/5V*%
X216208892Y-27976392D03*
D10*
X216858893Y-27976393D03*
D11*
%TO.P,D169,4,DOUT*%
%TO.N,Net-(D169-DOUT)*%
X216208892Y-29476392D03*
%TD*%
D32*
%TO.P,U2,1,CH8*%
%TO.N,unconnected-(U2-CH8)*%
X304845000Y-4700000D03*
%TO.P,U2,2,CH9*%
%TO.N,Net-(U2-CH9)*%
X303575000Y-4700000D03*
%TO.P,U2,3,CH10*%
%TO.N,Net-(U2-CH10)*%
X302305000Y-4700000D03*
%TO.P,U2,4,CH11*%
%TO.N,Net-(U2-CH11)*%
X301035000Y-4700000D03*
%TO.P,U2,5,GND*%
%TO.N,/GND*%
X299765000Y-4700000D03*
%TO.P,U2,6,VDD*%
%TO.N,/3V3*%
X298495000Y-4700000D03*
%TO.P,U2,7,SDA*%
%TO.N,/SDA*%
X297225000Y-4700000D03*
%TO.P,U2,8,SCL/PDB*%
%TO.N,/SCL*%
X295955000Y-4700000D03*
%TO.P,U2,9,CH0*%
%TO.N,Net-(U2-CH0)*%
X295955000Y-9700000D03*
%TO.P,U2,10,CH1*%
%TO.N,Net-(U2-CH1)*%
X297225000Y-9700000D03*
%TO.P,U2,11,CH2*%
%TO.N,Net-(U2-CH2)*%
X298495000Y-9700000D03*
%TO.P,U2,12,CH3*%
%TO.N,Net-(U2-CH3)*%
X299765000Y-9700000D03*
%TO.P,U2,13,CH4*%
%TO.N,Net-(U2-CH4)*%
X301035000Y-9700000D03*
%TO.P,U2,14,CH5*%
%TO.N,Net-(U2-CH5)*%
X302305000Y-9700000D03*
%TO.P,U2,15,CH6*%
%TO.N,Net-(U2-CH6)*%
X303575000Y-9700000D03*
%TO.P,U2,16,CH7*%
%TO.N,Net-(U2-CH7)*%
X304845000Y-9700000D03*
%TD*%
D10*
%TO.P,D171,1,VSS*%
%TO.N,/GND*%
X224200000Y-25200000D03*
D11*
X224899999Y-25199999D03*
%TO.P,D171,2,DIN*%
%TO.N,Net-(D170-DOUT)*%
X224899999Y-23699999D03*
%TO.P,D171,3,VDD*%
%TO.N,/5V*%
X222199999Y-23699999D03*
D10*
X222850000Y-23700000D03*
D11*
%TO.P,D171,4,DOUT*%
%TO.N,Net-(D171-DOUT)*%
X222199999Y-25199999D03*
%TD*%
%TO.P,D195,1,VSS*%
%TO.N,/GND*%
X301399999Y-22499999D03*
%TO.P,D195,2,DIN*%
%TO.N,Net-(D194-DOUT)*%
X301399999Y-20999999D03*
%TO.P,D195,3,VDD*%
%TO.N,/5V*%
X298699999Y-20999999D03*
%TO.P,D195,4,DOUT*%
%TO.N,Net-(D195-DOUT)*%
X298699999Y-22499999D03*
%TD*%
D10*
%TO.P,D235,1,VSS*%
%TO.N,/GND*%
X219000000Y-73300000D03*
D11*
X219699999Y-73299999D03*
%TO.P,D235,2,DIN*%
%TO.N,Net-(D234-DOUT)*%
X219699999Y-71799999D03*
%TO.P,D235,3,VDD*%
%TO.N,/5V*%
X216999999Y-71799999D03*
D10*
X217650000Y-71800000D03*
D11*
%TO.P,D235,4,DOUT*%
%TO.N,Net-(D235-DOUT)*%
X216999999Y-73299999D03*
%TD*%
D10*
%TO.P,D249,1,VSS*%
%TO.N,/GND*%
X274850000Y-82150000D03*
D11*
X275549999Y-82149999D03*
%TO.P,D249,2,DIN*%
%TO.N,Net-(D248-DOUT)*%
X275549999Y-80649999D03*
%TO.P,D249,3,VDD*%
%TO.N,/5V*%
X272849999Y-80649999D03*
D10*
X273500000Y-80650000D03*
D11*
%TO.P,D249,4,DOUT*%
%TO.N,Net-(D249-DOUT)*%
X272849999Y-82149999D03*
%TD*%
D10*
%TO.P,D130,1,VSS*%
%TO.N,/GND*%
X178408893Y-116076393D03*
D11*
X179108892Y-116076392D03*
%TO.P,D130,2,DIN*%
%TO.N,Net-(D129-DOUT)*%
X179108892Y-114576392D03*
%TO.P,D130,3,VDD*%
%TO.N,/5V*%
X176408892Y-114576392D03*
D10*
X177058893Y-114576393D03*
D11*
%TO.P,D130,4,DOUT*%
%TO.N,Net-(D130-DOUT)*%
X176408892Y-116076392D03*
%TD*%
D10*
%TO.P,D151,1,VSS*%
%TO.N,/GND*%
X177750000Y-79550000D03*
D11*
X178449999Y-79549999D03*
%TO.P,D151,2,DIN*%
%TO.N,Net-(D150-DOUT)*%
X178449999Y-78049999D03*
%TO.P,D151,3,VDD*%
%TO.N,/5V*%
X175749999Y-78049999D03*
D10*
X176400000Y-78050000D03*
D11*
%TO.P,D151,4,DOUT*%
%TO.N,Net-(D151-DOUT)*%
X175749999Y-79549999D03*
%TD*%
D12*
%TO.P,J12,1,Pin_1*%
%TO.N,Net-(U2-CH10)*%
X307999999Y-20599999D03*
%TD*%
D10*
%TO.P,D168,1,VSS*%
%TO.N,/GND*%
X212800000Y-28300000D03*
D11*
X213499999Y-28299999D03*
%TO.P,D168,2,DIN*%
%TO.N,Net-(D167-DOUT)*%
X213499999Y-26799999D03*
%TO.P,D168,3,VDD*%
%TO.N,/5V*%
X210799999Y-26799999D03*
D10*
X211450000Y-26800000D03*
D11*
%TO.P,D168,4,DOUT*%
%TO.N,Net-(D168-DOUT)*%
X210799999Y-28299999D03*
%TD*%
D10*
%TO.P,D59,1,VSS*%
%TO.N,/GND*%
X268050000Y-185950000D03*
D11*
X268749999Y-185949999D03*
%TO.P,D59,2,DIN*%
%TO.N,Net-(D58-DOUT)*%
X268749999Y-184449999D03*
%TO.P,D59,3,VDD*%
%TO.N,/5V*%
X266049999Y-184449999D03*
D10*
X266700000Y-184450000D03*
D11*
%TO.P,D59,4,DOUT*%
%TO.N,Net-(D59-DOUT)*%
X266049999Y-185949999D03*
%TD*%
D33*
%TO.N,/5V*%
X267200000Y-86600000D03*
X220500000Y-21300000D03*
X276100000Y-69500000D03*
X182900000Y-101200000D03*
X269600000Y-81600000D03*
X214300000Y-39000000D03*
X274800000Y-5000000D03*
X189600000Y-111624500D03*
X174800000Y-106800000D03*
X229500000Y-129800000D03*
X218062904Y-41224500D03*
X194475000Y-106900000D03*
%TO.N,/GND*%
X277400000Y-70300000D03*
X217000000Y-41924000D03*
X278500000Y-72000000D03*
X206000000Y-57900000D03*
X225912299Y-22712299D03*
X260000000Y-127300000D03*
X271400000Y-83900000D03*
X234300000Y-129700000D03*
X261300000Y-80000000D03*
X203500000Y-56100000D03*
X277825000Y-3925000D03*
X265200000Y-57300000D03*
X263800000Y-135500000D03*
X187038477Y-112319944D03*
X300300000Y-2100000D03*
X215000000Y-42600000D03*
X294600000Y-1500000D03*
X264050000Y-109150000D03*
X170700000Y-108700000D03*
X194661114Y-108499424D03*
X272931161Y-9149500D03*
X207500000Y-59600000D03*
X300000000Y-6100000D03*
X184000000Y-103300000D03*
%TO.N,/STBD_LED_1*%
X172600000Y-107400000D03*
X197925999Y-107037049D03*
%TO.N,/STBD_LED_2*%
X198069581Y-108333681D03*
X184500000Y-99700000D03*
%TO.N,/SCL*%
X198599502Y-97300000D03*
X194463428Y-109491143D03*
%TO.N,/STBD_GP0*%
X289500000Y-1600000D03*
X198286339Y-109311339D03*
%TO.N,/SDA*%
X193587225Y-110485340D03*
X204100000Y-90000000D03*
X199500000Y-111300000D03*
%TO.N,/STBD_GP1*%
X196063472Y-100198835D03*
X291600000Y-1700000D03*
%TO.N,Net-(D2-DOUT)*%
X173000000Y-119100000D03*
X172300000Y-114600000D03*
%TO.N,Net-(D134-DOUT)*%
X200224500Y-106300000D03*
X195500000Y-103975500D03*
%TO.N,Net-(D187-DOUT)*%
X306600000Y-4400000D03*
X270600000Y-4200000D03*
%TO.N,Net-(U2-CH3)*%
X270110377Y-75893389D03*
X299800000Y-10800000D03*
%TO.N,Net-(U2-CH0)*%
X296100000Y-11100000D03*
X266505387Y-54899500D03*
%TO.N,Net-(U2-CH1)*%
X270000000Y-73900000D03*
X297235446Y-10359822D03*
X204700000Y-80000000D03*
X211245569Y-81720971D03*
%TO.N,Net-(U2-CH2)*%
X264300000Y-105700000D03*
X298200000Y-11100000D03*
X270000000Y-74900000D03*
X250400000Y-93700000D03*
%TO.N,Net-(U2-CH9)*%
X303500000Y-6100000D03*
%TO.N,Net-(U2-CH10)*%
X302300000Y-6200000D03*
%TO.N,Net-(U2-CH11)*%
X301000000Y-6000000D03*
%TO.N,Net-(U2-CH7)*%
X304900000Y-11500000D03*
%TO.N,Net-(U2-CH6)*%
X303500000Y-11100000D03*
%TO.N,Net-(U2-CH5)*%
X302200000Y-11100000D03*
%TO.N,Net-(U2-CH4)*%
X300900000Y-11100000D03*
%TD*%
D34*
%TO.N,/5V*%
X301500000Y-16400000D02*
X301500000Y-17800000D01*
D35*
X296700000Y-28900000D02*
X296100000Y-29500000D01*
D34*
X271700000Y-54800000D02*
X268000000Y-54800000D01*
D35*
X311460335Y-14700000D02*
X310709392Y-15450943D01*
D36*
X254475000Y-103100000D02*
X251687500Y-100312500D01*
D35*
X275500000Y-53700000D02*
X275400000Y-53600000D01*
X262550000Y-54650000D02*
X262550000Y-54050000D01*
X173637500Y-106450000D02*
X174011764Y-106824264D01*
D36*
X213734787Y-40550499D02*
X214208893Y-40076393D01*
X224008893Y-49776393D02*
X224008893Y-49791107D01*
D35*
X271600000Y-65700000D02*
X271525000Y-65700000D01*
D34*
X297200000Y-20800000D02*
X296700000Y-21300000D01*
D36*
X260525000Y-110376393D02*
X264658893Y-110376393D01*
X256200000Y-104400000D02*
X258676393Y-106876393D01*
D35*
X310500000Y-16200000D02*
X307007500Y-16200000D01*
D34*
X290800000Y-24473351D02*
X290800000Y-27000000D01*
D35*
X302500000Y-24400000D02*
X301700000Y-23600000D01*
D36*
X247394468Y-96019468D02*
X247340981Y-96019468D01*
D34*
X293973351Y-21300000D02*
X290800000Y-24473351D01*
D35*
X293300000Y-44000000D02*
X293300000Y-42200000D01*
X268650000Y-59350000D02*
X268650000Y-56550000D01*
X271525000Y-65700000D02*
X267655232Y-61830232D01*
X267655232Y-61830232D02*
X267655232Y-61649502D01*
X293400000Y-27000000D02*
X290800000Y-27000000D01*
X279008893Y-52176393D02*
X279008893Y-51508893D01*
D34*
X285700000Y-42200000D02*
X285700000Y-44500000D01*
D36*
X223200000Y-50600000D02*
X223200000Y-51892500D01*
D35*
X267450499Y-61444768D02*
X267450499Y-59955232D01*
X277500000Y-54367500D02*
X277500000Y-51500000D01*
X297400000Y-41100000D02*
X296300000Y-42200000D01*
D34*
X290800000Y-27000000D02*
X290800000Y-29200000D01*
D36*
X192750000Y-79750000D02*
X193950000Y-79750000D01*
D35*
X275400000Y-55300000D02*
X275400000Y-54400000D01*
D36*
X224008893Y-49791107D02*
X223200000Y-50600000D01*
X258676393Y-106876393D02*
X259808893Y-106876393D01*
D35*
X279008893Y-51508893D02*
X278900000Y-51400000D01*
X285500000Y-49467500D02*
X285500000Y-49000000D01*
D34*
X274800000Y-3025000D02*
X275225000Y-2600000D01*
D35*
X294000000Y-27600000D02*
X293400000Y-27000000D01*
X282700000Y-49400000D02*
X281800000Y-49400000D01*
D36*
X217850000Y-43950000D02*
X217850000Y-41437404D01*
D34*
X298900000Y-19800000D02*
X298600000Y-19800000D01*
D35*
X273550000Y-54750000D02*
X273550000Y-53650000D01*
D36*
X252950000Y-99050000D02*
X251687500Y-100312500D01*
X214208893Y-39091107D02*
X214300000Y-39000000D01*
D34*
X294300000Y-21300000D02*
X296700000Y-21300000D01*
D36*
X199085286Y-80200000D02*
X197708893Y-81576393D01*
D34*
X275400000Y-53600000D02*
X273600000Y-53600000D01*
D35*
X307308893Y-13091107D02*
X308700000Y-11700000D01*
X284500000Y-48000000D02*
X284400000Y-48000000D01*
X310709392Y-15990608D02*
X310500000Y-16200000D01*
D34*
X268000000Y-55400000D02*
X267750000Y-55650000D01*
D36*
X217750000Y-21300000D02*
X216850000Y-22200000D01*
D34*
X306300000Y-7800000D02*
X306300000Y-11200000D01*
X282900000Y-48300000D02*
X281800000Y-49400000D01*
D35*
X271600000Y-65700000D02*
X271300000Y-65700000D01*
X290700000Y-40600000D02*
X289400000Y-40600000D01*
D34*
X285700000Y-34300000D02*
X285700000Y-35600000D01*
D35*
X272300000Y-66400000D02*
X271600000Y-65700000D01*
X285500000Y-49000000D02*
X284500000Y-48000000D01*
X275500000Y-66400000D02*
X272300000Y-66400000D01*
X298475000Y-23600000D02*
X297200000Y-22325000D01*
X287208893Y-51176393D02*
X285500000Y-49467500D01*
D36*
X202750000Y-80250000D02*
X202750000Y-81950000D01*
X222350000Y-173950000D02*
X223550000Y-173950000D01*
D34*
X266300000Y-54100000D02*
X266075000Y-53875000D01*
X298200000Y-19800000D02*
X297200000Y-20800000D01*
D35*
X311708893Y-14700000D02*
X311460335Y-14700000D01*
D36*
X219799501Y-40034521D02*
X218465479Y-38700499D01*
D35*
X276200000Y-70000000D02*
X276200000Y-69600000D01*
D34*
X288500000Y-31500000D02*
X285700000Y-34300000D01*
D35*
X294300000Y-33700000D02*
X289900000Y-33700000D01*
X288200000Y-41800000D02*
X288200000Y-42200000D01*
D34*
X260945996Y-52145996D02*
X259145996Y-52145996D01*
D35*
X297100000Y-32900000D02*
X295100000Y-32900000D01*
X306400000Y-15592500D02*
X306400000Y-14585286D01*
D34*
X277500000Y-51500000D02*
X276300000Y-52700000D01*
D35*
X288500000Y-32300000D02*
X288500000Y-31500000D01*
D36*
X220500000Y-21300000D02*
X217750000Y-21300000D01*
D35*
X275400000Y-54400000D02*
X275500000Y-54300000D01*
D37*
X194475000Y-106900000D02*
X189875000Y-111500000D01*
D36*
X259200000Y-107485286D02*
X259200000Y-109051393D01*
D34*
X272000000Y-54500000D02*
X271850000Y-54650000D01*
D35*
X289900000Y-33700000D02*
X288500000Y-32300000D01*
D34*
X299500000Y-19800000D02*
X298900000Y-19800000D01*
D36*
X259808893Y-106876393D02*
X259200000Y-107485286D01*
D35*
X308600000Y-21475000D02*
X311100000Y-18975000D01*
D34*
X285700000Y-37300000D02*
X285700000Y-39800000D01*
D35*
X277000000Y-57116058D02*
X277000000Y-55600000D01*
X291100000Y-31100000D02*
X291100000Y-29500000D01*
X308700000Y-7800000D02*
X307800000Y-6900000D01*
X272800000Y-55600000D02*
X271850000Y-54650000D01*
X298200000Y-32900000D02*
X297100000Y-32900000D01*
D36*
X258850000Y-102850000D02*
X257750000Y-102850000D01*
D34*
X289200000Y-30800000D02*
X288500000Y-31500000D01*
D35*
X281550000Y-58650000D02*
X281000894Y-58100894D01*
D34*
X285700000Y-39800000D02*
X285700000Y-42200000D01*
D35*
X296100000Y-29500000D02*
X294400000Y-29500000D01*
D34*
X276300000Y-52700000D02*
X275400000Y-53600000D01*
D35*
X294000000Y-29100000D02*
X294000000Y-27600000D01*
X275500000Y-54300000D02*
X275500000Y-53700000D01*
X218465479Y-38700499D02*
X214599501Y-38700499D01*
X267450499Y-59955232D02*
X268055730Y-59350000D01*
D34*
X271850000Y-54650000D02*
X271700000Y-54800000D01*
X272900000Y-53600000D02*
X272000000Y-54500000D01*
D35*
X308600000Y-22800000D02*
X308600000Y-21475000D01*
X288200000Y-42200000D02*
X285700000Y-42200000D01*
D36*
X217850000Y-41437404D02*
X218062904Y-41224500D01*
X209399501Y-40550499D02*
X213734787Y-40550499D01*
D35*
X183076085Y-101023915D02*
X182900000Y-101200000D01*
D34*
X306300000Y-11200000D02*
X306400000Y-11300000D01*
D35*
X273550000Y-53650000D02*
X273600000Y-53600000D01*
X310709392Y-15450943D02*
X310709392Y-15990608D01*
X297400000Y-28900000D02*
X296700000Y-28900000D01*
D36*
X257750000Y-102850000D02*
X256200000Y-104400000D01*
X227650000Y-152850000D02*
X226550000Y-152850000D01*
D34*
X298600000Y-19800000D02*
X298200000Y-19800000D01*
D35*
X196600000Y-81200000D02*
X196600000Y-83200000D01*
X301700000Y-23600000D02*
X298475000Y-23600000D01*
X198176393Y-81576393D02*
X197708893Y-81576393D01*
D36*
X193950000Y-79750000D02*
X194600000Y-80400000D01*
D34*
X272900000Y-53600000D02*
X273600000Y-53600000D01*
D35*
X273050000Y-60150000D02*
X273150000Y-60050000D01*
D36*
X246900000Y-92550000D02*
X246600000Y-92250000D01*
D34*
X278300000Y-51400000D02*
X277600000Y-51400000D01*
X294300000Y-21300000D02*
X293973351Y-21300000D01*
D36*
X268708893Y-81576393D02*
X269576393Y-81576393D01*
D34*
X302300000Y-15600000D02*
X306400000Y-11500000D01*
D35*
X194600000Y-80400000D02*
X194800000Y-80600000D01*
X286208893Y-55976393D02*
X286208893Y-52908893D01*
X268650000Y-56550000D02*
X267750000Y-55650000D01*
X286000000Y-44800000D02*
X285700000Y-44500000D01*
X277000000Y-55600000D02*
X275700000Y-55600000D01*
X295100000Y-32900000D02*
X294300000Y-33700000D01*
X308700000Y-11700000D02*
X308700000Y-7800000D01*
D36*
X203300000Y-80200000D02*
X202800000Y-80200000D01*
X222850000Y-22925000D02*
X222850000Y-23700000D01*
D35*
X297200000Y-22325000D02*
X297200000Y-20800000D01*
D36*
X246900000Y-95578487D02*
X246900000Y-92550000D01*
X251687500Y-100312500D02*
X248387500Y-97012500D01*
D35*
X272800000Y-59700000D02*
X272800000Y-55600000D01*
D36*
X224100000Y-47100000D02*
X223350000Y-46350000D01*
D35*
X293300000Y-42200000D02*
X288200000Y-42200000D01*
D34*
X284400000Y-45800000D02*
X285700000Y-44500000D01*
D36*
X230325000Y-129500000D02*
X229800000Y-129500000D01*
D35*
X277408893Y-59176393D02*
X276485286Y-60100000D01*
D36*
X247340981Y-96019468D02*
X246900000Y-95578487D01*
D35*
X270900000Y-68417500D02*
X272558893Y-70076393D01*
D36*
X224008893Y-49776393D02*
X224100000Y-49685286D01*
X214208893Y-40076393D02*
X214208893Y-39091107D01*
D34*
X290800000Y-29200000D02*
X289200000Y-30800000D01*
D35*
X278808893Y-55676393D02*
X277500000Y-54367500D01*
X276485286Y-60100000D02*
X273200000Y-60100000D01*
D34*
X262700000Y-53900000D02*
X260945996Y-52145996D01*
D35*
X268055730Y-59350000D02*
X268650000Y-59350000D01*
X288800000Y-35500000D02*
X285800000Y-35500000D01*
X305900000Y-19800000D02*
X303100000Y-19800000D01*
D34*
X267074136Y-54100000D02*
X266300000Y-54100000D01*
D35*
X286208893Y-52908893D02*
X282700000Y-49400000D01*
D36*
X253350000Y-99050000D02*
X252950000Y-99050000D01*
X220934521Y-40034521D02*
X219799501Y-40034521D01*
D34*
X267800000Y-54800000D02*
X267137223Y-54137223D01*
D35*
X285800000Y-35500000D02*
X285700000Y-35600000D01*
X302500000Y-25200000D02*
X302500000Y-24400000D01*
D34*
X279800000Y-51400000D02*
X278900000Y-51400000D01*
X266075000Y-53875000D02*
X263725000Y-53875000D01*
D35*
X174011764Y-106824264D02*
X177515076Y-106824264D01*
X278224057Y-58100499D02*
X277984441Y-58100499D01*
X298500000Y-37000000D02*
X297100000Y-35600000D01*
X271300000Y-65700000D02*
X270900000Y-66100000D01*
X311100000Y-18975000D02*
X311100000Y-18700000D01*
X273200000Y-60100000D02*
X273150000Y-60050000D01*
D36*
X208200000Y-41750000D02*
X209399501Y-40550499D01*
D34*
X285700000Y-35600000D02*
X285700000Y-37300000D01*
D35*
X294400000Y-29500000D02*
X294000000Y-29100000D01*
D34*
X284400000Y-46600000D02*
X284400000Y-46800000D01*
X307200000Y-6900000D02*
X306300000Y-7800000D01*
D36*
X269576393Y-81576393D02*
X269600000Y-81600000D01*
X222383893Y-151201393D02*
X221708893Y-151876393D01*
D35*
X286300000Y-44800000D02*
X286000000Y-44800000D01*
D36*
X229800000Y-129500000D02*
X229500000Y-129800000D01*
D34*
X301300000Y-18000000D02*
X299500000Y-19800000D01*
X301500000Y-17800000D02*
X301300000Y-18000000D01*
X284400000Y-46800000D02*
X282900000Y-48300000D01*
D35*
X289400000Y-40600000D02*
X288200000Y-41800000D01*
X275700000Y-55600000D02*
X275400000Y-55300000D01*
X298700000Y-20000000D02*
X298900000Y-19800000D01*
D37*
X195600000Y-106900000D02*
X194475000Y-106900000D01*
D36*
X254900000Y-103100000D02*
X254475000Y-103100000D01*
D35*
X298700000Y-21000000D02*
X298700000Y-20000000D01*
D34*
X268000000Y-54800000D02*
X267800000Y-54800000D01*
D35*
X303200000Y-19900000D02*
X303100000Y-19800000D01*
D34*
X278900000Y-51400000D02*
X278300000Y-51400000D01*
X263725000Y-53875000D02*
X263700000Y-53900000D01*
D36*
X221500000Y-174800000D02*
X222350000Y-173950000D01*
D34*
X267137223Y-54137223D02*
X267074136Y-54100000D01*
D35*
X292300000Y-39000000D02*
X290700000Y-40600000D01*
D34*
X277600000Y-51400000D02*
X277500000Y-51500000D01*
D35*
X293900000Y-21700000D02*
X294300000Y-21300000D01*
D34*
X258400000Y-52800000D02*
X258400000Y-53450000D01*
D36*
X259200000Y-109051393D02*
X260525000Y-110376393D01*
X223200000Y-51892500D02*
X225207500Y-53900000D01*
D35*
X262550000Y-54050000D02*
X262700000Y-53900000D01*
D34*
X274500000Y-5300000D02*
X274800000Y-5000000D01*
D35*
X303200000Y-20800000D02*
X303200000Y-19900000D01*
D34*
X274800000Y-5000000D02*
X274800000Y-3025000D01*
D35*
X296300000Y-42200000D02*
X293300000Y-42200000D01*
X198900000Y-83200000D02*
X198900000Y-82300000D01*
D34*
X281800000Y-49400000D02*
X279800000Y-51400000D01*
D36*
X221225000Y-21300000D02*
X220500000Y-21300000D01*
D34*
X274500000Y-6462500D02*
X274500000Y-5300000D01*
D36*
X224100000Y-49685286D02*
X224100000Y-47100000D01*
D35*
X303100000Y-19800000D02*
X301300000Y-18000000D01*
D37*
X189875000Y-111500000D02*
X189724500Y-111500000D01*
D36*
X202800000Y-80200000D02*
X199085286Y-80200000D01*
D35*
X267655232Y-61649502D02*
X267450499Y-61444768D01*
D37*
X189724500Y-111500000D02*
X189600000Y-111624500D01*
D35*
X273050000Y-61550000D02*
X273050000Y-60150000D01*
D34*
X263700000Y-53900000D02*
X262700000Y-53900000D01*
D35*
X303508893Y-16776393D02*
X303476393Y-16776393D01*
D36*
X250300000Y-95400000D02*
X250000000Y-95400000D01*
D34*
X259145996Y-52145996D02*
X259100000Y-52100000D01*
D35*
X273150000Y-60050000D02*
X272800000Y-59700000D01*
D34*
X306400000Y-11300000D02*
X306400000Y-11500000D01*
D35*
X293900000Y-23300000D02*
X293900000Y-21700000D01*
D36*
X205350000Y-78150000D02*
X203300000Y-80200000D01*
D35*
X278224452Y-58100894D02*
X278224057Y-58100499D01*
X292900000Y-39000000D02*
X292300000Y-39000000D01*
X196000000Y-80600000D02*
X196600000Y-81200000D01*
D34*
X268000000Y-54800000D02*
X268000000Y-55400000D01*
D35*
X276200000Y-69600000D02*
X276100000Y-69500000D01*
D36*
X214599501Y-38700499D02*
X214300000Y-39000000D01*
D34*
X284400000Y-45800000D02*
X284400000Y-46600000D01*
D35*
X196600000Y-83200000D02*
X197200000Y-83800000D01*
D36*
X206850000Y-78150000D02*
X205350000Y-78150000D01*
D35*
X198300000Y-83800000D02*
X198900000Y-83200000D01*
X303476393Y-16776393D02*
X302300000Y-15600000D01*
X307007500Y-16200000D02*
X306400000Y-15592500D01*
D36*
X223350000Y-42450000D02*
X220934521Y-40034521D01*
D35*
X174450000Y-106450000D02*
X174800000Y-106800000D01*
X306400000Y-14585286D02*
X307308893Y-13676393D01*
X284400000Y-48000000D02*
X284400000Y-46800000D01*
D36*
X248387500Y-97012500D02*
X247394468Y-96019468D01*
X250000000Y-95400000D02*
X248387500Y-97012500D01*
X224901393Y-151201393D02*
X222383893Y-151201393D01*
D35*
X173637500Y-106450000D02*
X174450000Y-106450000D01*
X281000894Y-58100894D02*
X278224452Y-58100894D01*
D34*
X259100000Y-52100000D02*
X258400000Y-52800000D01*
D35*
X270900000Y-66100000D02*
X270900000Y-68417500D01*
X307308893Y-13676393D02*
X307308893Y-13091107D01*
X287200000Y-39800000D02*
X285700000Y-39800000D01*
D36*
X226550000Y-152850000D02*
X224901393Y-151201393D01*
X256200000Y-104400000D02*
X254900000Y-103100000D01*
D35*
X198900000Y-82300000D02*
X198176393Y-81576393D01*
X197200000Y-83800000D02*
X198300000Y-83800000D01*
D36*
X202800000Y-80200000D02*
X202750000Y-80250000D01*
D34*
X307800000Y-6900000D02*
X307200000Y-6900000D01*
D36*
X225207500Y-53900000D02*
X228600000Y-53900000D01*
D35*
X311100000Y-18700000D02*
X307000000Y-18700000D01*
X297100000Y-35600000D02*
X297100000Y-32900000D01*
X277984441Y-58100499D02*
X277000000Y-57116058D01*
D36*
X223350000Y-46350000D02*
X223350000Y-42450000D01*
X221225000Y-21300000D02*
X222850000Y-22925000D01*
D34*
X302300000Y-15600000D02*
X301500000Y-16400000D01*
D35*
X194800000Y-80600000D02*
X196000000Y-80600000D01*
X307000000Y-18700000D02*
X305900000Y-19800000D01*
X183732583Y-101023915D02*
X183076085Y-101023915D01*
X291100000Y-29500000D02*
X290800000Y-29200000D01*
D36*
%TO.N,/GND*%
X277523607Y-75676393D02*
X277708893Y-75676393D01*
D38*
X281049454Y-61649454D02*
X281000000Y-61600000D01*
D35*
X295600000Y-40500000D02*
X294600000Y-41500000D01*
D34*
X302300000Y-34500000D02*
X302300000Y-37700000D01*
X304600000Y-26700000D02*
X303800000Y-27500000D01*
D35*
X216908893Y-41576393D02*
X217000000Y-41667500D01*
X281708893Y-54608893D02*
X285900000Y-58800000D01*
X278900000Y-71600000D02*
X278500000Y-72000000D01*
X213560286Y-40900000D02*
X215000000Y-40900000D01*
X287100000Y-49500000D02*
X290000000Y-49500000D01*
D34*
X290100000Y-47700000D02*
X290100000Y-49600000D01*
D36*
X261758893Y-107626393D02*
X261758893Y-106141107D01*
X255008544Y-94900000D02*
X254500000Y-94900000D01*
D38*
X271400000Y-83085286D02*
X271408893Y-83076393D01*
D34*
X302300000Y-32500000D02*
X302300000Y-34500000D01*
D35*
X291500000Y-37000000D02*
X294400000Y-37000000D01*
X299765000Y-4700000D02*
X299765000Y-2515000D01*
D36*
X195450000Y-81250000D02*
X195450000Y-82544269D01*
X219500000Y-44400000D02*
X219500000Y-40400000D01*
D35*
X294200000Y-41300000D02*
X289900000Y-41300000D01*
D36*
X219700000Y-170500000D02*
X219700000Y-172428068D01*
D34*
X298200000Y-45600000D02*
X300650000Y-43150000D01*
X301400000Y-28300000D02*
X301400000Y-30600000D01*
D36*
X252250000Y-94550000D02*
X252600000Y-94200000D01*
D35*
X313800000Y-20200000D02*
X315300000Y-20200000D01*
D38*
X278200000Y-64600000D02*
X278200000Y-65300000D01*
D35*
X301400000Y-22500000D02*
X301825000Y-22925000D01*
D34*
X307429232Y-27000000D02*
X306400000Y-27000000D01*
D36*
X225958893Y-49101393D02*
X225958893Y-49358893D01*
X253125000Y-94725000D02*
X252600000Y-94200000D01*
D34*
X309429232Y-25000000D02*
X307429232Y-27000000D01*
D35*
X295600000Y-40500000D02*
X295625000Y-40475000D01*
X295625000Y-40475000D02*
X297975000Y-40475000D01*
X289908893Y-52676393D02*
X290676393Y-52676393D01*
D38*
X269875000Y-85500000D02*
X269875000Y-85425000D01*
D35*
X186925000Y-111500000D02*
X186925000Y-112206467D01*
D36*
X277408893Y-73091107D02*
X277550000Y-72950000D01*
D35*
X290000000Y-49500000D02*
X290100000Y-49600000D01*
D34*
X315300000Y-16100000D02*
X315300000Y-12400000D01*
D38*
X277696774Y-70003226D02*
X276293548Y-68600000D01*
X276200000Y-68600000D02*
X276369239Y-68600000D01*
D35*
X300100000Y-30400000D02*
X301200000Y-30400000D01*
D36*
X225650000Y-24450000D02*
X224900000Y-25200000D01*
D35*
X213900000Y-42600000D02*
X215000000Y-42600000D01*
D36*
X290700000Y-51300000D02*
X290700000Y-50500000D01*
D35*
X281508893Y-57176393D02*
X282176393Y-57176393D01*
X272700000Y-64600000D02*
X278200000Y-64600000D01*
D36*
X225960286Y-49100000D02*
X225958893Y-49101393D01*
D34*
X303800000Y-27500000D02*
X302200000Y-27500000D01*
D35*
X301825000Y-22925000D02*
X305275000Y-22925000D01*
X278900000Y-71500000D02*
X278900000Y-71600000D01*
D38*
X280200000Y-61600000D02*
X279900000Y-61600000D01*
D35*
X171050000Y-108350000D02*
X170700000Y-108700000D01*
X306410286Y-18075000D02*
X311675000Y-18075000D01*
D38*
X277500000Y-69800000D02*
X277800000Y-70100000D01*
D34*
X302300000Y-38400000D02*
X302300000Y-41500000D01*
X278175000Y-2600000D02*
X278175000Y-3575000D01*
D35*
X313585286Y-11600000D02*
X314500000Y-11600000D01*
D36*
X256050000Y-100550000D02*
X256395728Y-100895728D01*
D35*
X295600000Y-28800000D02*
X297700000Y-26700000D01*
D36*
X276848607Y-76351393D02*
X277523607Y-75676393D01*
X217175000Y-44700000D02*
X218525000Y-44700000D01*
D34*
X306400000Y-27000000D02*
X305700000Y-27000000D01*
X291100000Y-46700000D02*
X294092155Y-46700000D01*
D35*
X216014125Y-39051892D02*
X215000000Y-40066017D01*
D36*
X233275000Y-129500000D02*
X234100000Y-129500000D01*
D34*
X302180991Y-27500000D02*
X301690495Y-27990495D01*
D35*
X279600000Y-69300000D02*
X279600000Y-70800000D01*
X215000000Y-40066017D02*
X215000000Y-40900000D01*
D34*
X313700000Y-11600000D02*
X314500000Y-11600000D01*
D36*
X262508893Y-108376393D02*
X261758893Y-107626393D01*
D35*
X276250000Y-56250000D02*
X276250000Y-57050000D01*
X280850000Y-58950000D02*
X280850000Y-61550000D01*
X299765000Y-4700000D02*
X299765000Y-5865000D01*
D34*
X296200000Y-45600000D02*
X295900000Y-45900000D01*
D38*
X276900000Y-67900000D02*
X276200000Y-68600000D01*
D36*
X216908893Y-41576393D02*
X216908893Y-44433893D01*
D35*
X218200000Y-39100000D02*
X218151892Y-39051892D01*
D36*
X195450000Y-82544269D02*
X197055232Y-84149501D01*
D35*
X301200000Y-38500000D02*
X302200000Y-38500000D01*
X299000000Y-31800000D02*
X299900000Y-32700000D01*
D34*
X302300000Y-37700000D02*
X302300000Y-38400000D01*
D35*
X271350000Y-61598558D02*
X272100000Y-62348558D01*
D36*
X218525000Y-44700000D02*
X218600000Y-44775000D01*
D35*
X306208893Y-18276393D02*
X306410286Y-18075000D01*
X279600000Y-70800000D02*
X278900000Y-71500000D01*
D38*
X289550000Y-58350000D02*
X290800000Y-57100000D01*
D35*
X226208893Y-57076393D02*
X229608893Y-57076393D01*
D34*
X294892155Y-45900000D02*
X294092155Y-46700000D01*
D36*
X234100000Y-129500000D02*
X234300000Y-129700000D01*
D35*
X285900000Y-58800000D02*
X285900000Y-60000000D01*
D36*
X219700000Y-172428068D02*
X219414034Y-172714034D01*
D35*
X284350000Y-60150000D02*
X285050000Y-60850000D01*
D34*
X290200000Y-47600000D02*
X290100000Y-47700000D01*
X296200000Y-45600000D02*
X298200000Y-45600000D01*
D36*
X200500000Y-84100000D02*
X202000000Y-84100000D01*
X262300000Y-104400000D02*
X262300000Y-102191456D01*
X220550000Y-45450000D02*
X219500000Y-44400000D01*
D35*
X300100000Y-42600000D02*
X300650000Y-43150000D01*
D34*
X272931161Y-8956339D02*
X272931161Y-9149500D01*
D35*
X265250000Y-57250000D02*
X265200000Y-57300000D01*
X295100000Y-37700000D02*
X295800000Y-37700000D01*
D36*
X227600000Y-49898995D02*
X227600000Y-49242500D01*
X274308893Y-75376393D02*
X274308893Y-75908893D01*
D35*
X288908893Y-57476393D02*
X288908893Y-57708893D01*
X280400000Y-58500000D02*
X280850000Y-58950000D01*
D36*
X253000000Y-96900000D02*
X252250000Y-96150000D01*
X290800000Y-52800000D02*
X290800000Y-51400000D01*
D35*
X301200000Y-30400000D02*
X301400000Y-30600000D01*
X311675000Y-18075000D02*
X313800000Y-20200000D01*
D36*
X274308893Y-75908893D02*
X274751393Y-76351393D01*
D38*
X276900000Y-66175000D02*
X276900000Y-67900000D01*
D36*
X277408893Y-75376393D02*
X277408893Y-73091107D01*
X252250000Y-96150000D02*
X252250000Y-94550000D01*
D35*
X277950000Y-63050000D02*
X278200000Y-63300000D01*
D34*
X301400000Y-28280991D02*
X301400000Y-28300000D01*
D36*
X228900000Y-155100000D02*
X229650000Y-154350000D01*
X262300000Y-102191456D02*
X261004272Y-100895728D01*
D35*
X277700000Y-58500000D02*
X280400000Y-58500000D01*
D36*
X218600000Y-46200000D02*
X222300000Y-49900000D01*
D38*
X278200000Y-63300000D02*
X278200000Y-64600000D01*
X277696774Y-70003226D02*
X277400000Y-70300000D01*
D35*
X305275000Y-22925000D02*
X305900000Y-22300000D01*
X213560286Y-40900000D02*
X213300000Y-41160286D01*
D36*
X225958893Y-47941107D02*
X225958893Y-49358893D01*
X219500000Y-40400000D02*
X218200000Y-39100000D01*
D35*
X295800000Y-37700000D02*
X297225000Y-39125000D01*
D36*
X269200000Y-60100000D02*
X267800000Y-60100000D01*
D35*
X299765000Y-2515000D02*
X299780000Y-2500000D01*
D34*
X315300000Y-12400000D02*
X314500000Y-11600000D01*
D36*
X222300000Y-52700000D02*
X225208893Y-55608893D01*
D35*
X298990495Y-27990495D02*
X301690495Y-27990495D01*
D34*
X301400000Y-31600000D02*
X302300000Y-32500000D01*
D35*
X296900000Y-32600000D02*
X297700000Y-31800000D01*
D34*
X311400000Y-25000000D02*
X309429232Y-25000000D01*
D38*
X276293548Y-68600000D02*
X276200000Y-68600000D01*
D35*
X305900000Y-22300000D02*
X305900000Y-26500000D01*
D34*
X273550000Y-8337500D02*
X272931161Y-8956339D01*
D38*
X271400000Y-83900000D02*
X271400000Y-83085286D01*
X290708893Y-52708893D02*
X290800000Y-52800000D01*
D35*
X290700000Y-46300000D02*
X291100000Y-46700000D01*
D36*
X252600000Y-94200000D02*
X251100000Y-92700000D01*
X267800000Y-60100000D02*
X267800000Y-61300000D01*
X227457500Y-49100000D02*
X225960286Y-49100000D01*
D35*
X271350000Y-60850000D02*
X271350000Y-61598558D01*
D34*
X305200000Y-26700000D02*
X304600000Y-26700000D01*
D35*
X294600000Y-41500000D02*
X294400000Y-41500000D01*
D34*
X311400000Y-24500000D02*
X311400000Y-25000000D01*
D35*
X280108893Y-60950000D02*
X280108893Y-61508893D01*
D36*
X226232500Y-155200000D02*
X228900000Y-155200000D01*
D35*
X280108893Y-61508893D02*
X280200000Y-61600000D01*
X282176393Y-57176393D02*
X283550000Y-58550000D01*
D36*
X268200000Y-61700000D02*
X270500000Y-61700000D01*
D38*
X281000000Y-61600000D02*
X280800000Y-61600000D01*
D36*
X224408893Y-153376393D02*
X226232500Y-155200000D01*
D38*
X285900000Y-60000000D02*
X285200000Y-60700000D01*
D36*
X274751393Y-76351393D02*
X276848607Y-76351393D01*
X270450000Y-57150000D02*
X269400000Y-58200000D01*
D34*
X295900000Y-45900000D02*
X294892155Y-45900000D01*
D38*
X285050000Y-60850000D02*
X284250546Y-61649454D01*
D36*
X262508893Y-108376393D02*
X263276393Y-108376393D01*
D38*
X278200000Y-63300000D02*
X279900000Y-61600000D01*
D35*
X294400000Y-41500000D02*
X294200000Y-41300000D01*
X283550000Y-58550000D02*
X283550000Y-59450000D01*
D38*
X277775000Y-65300000D02*
X276900000Y-66175000D01*
D35*
X302200000Y-38500000D02*
X302300000Y-38400000D01*
D36*
X290700000Y-50500000D02*
X290100000Y-49900000D01*
D35*
X297700000Y-26700000D02*
X298990495Y-27990495D01*
D37*
X273908893Y-71576393D02*
X275409392Y-73076892D01*
D35*
X300575000Y-39125000D02*
X301200000Y-38500000D01*
D36*
X202100000Y-84200000D02*
X204700000Y-84200000D01*
X263276393Y-108376393D02*
X264050000Y-109150000D01*
D35*
X288908893Y-57708893D02*
X289550000Y-58350000D01*
D37*
X194990538Y-108170000D02*
X194661114Y-108499424D01*
D36*
X269400000Y-59900000D02*
X269200000Y-60100000D01*
X216908893Y-44433893D02*
X217175000Y-44700000D01*
D34*
X302300000Y-41500000D02*
X300650000Y-43150000D01*
D38*
X285900000Y-60000000D02*
X287900000Y-60000000D01*
X280800000Y-61600000D02*
X280200000Y-61600000D01*
D37*
X277423108Y-73076892D02*
X277550000Y-72950000D01*
D35*
X299900000Y-32700000D02*
X299900000Y-34200000D01*
D38*
X276049500Y-68750500D02*
X274825500Y-68750500D01*
D36*
X224500000Y-21300000D02*
X225912299Y-22712299D01*
D34*
X301690495Y-27990495D02*
X301400000Y-28280991D01*
D38*
X277800000Y-70100000D02*
X277696774Y-70003226D01*
X278200000Y-65300000D02*
X277775000Y-65300000D01*
D36*
X225208893Y-55608893D02*
X225208893Y-56776393D01*
X200408893Y-84008893D02*
X200500000Y-84100000D01*
X202000000Y-84100000D02*
X202100000Y-84200000D01*
X204700000Y-84200000D02*
X205450000Y-83450000D01*
X262300000Y-105600000D02*
X262300000Y-104400000D01*
X228900000Y-155200000D02*
X228900000Y-155100000D01*
D34*
X302200000Y-27500000D02*
X302180991Y-27500000D01*
D36*
X270500000Y-61700000D02*
X271350000Y-60850000D01*
D37*
X275409392Y-73076892D02*
X277423108Y-73076892D01*
D38*
X285200000Y-60700000D02*
X285050000Y-60850000D01*
D35*
X275750000Y-63050000D02*
X277950000Y-63050000D01*
D36*
X197055232Y-84149501D02*
X200450499Y-84149501D01*
D35*
X265250000Y-56150000D02*
X265250000Y-57250000D01*
D36*
X227600000Y-49242500D02*
X227457500Y-49100000D01*
D38*
X269875000Y-85425000D02*
X271400000Y-83900000D01*
D35*
X283550000Y-59450000D02*
X284250000Y-60150000D01*
X213300000Y-42000000D02*
X213900000Y-42600000D01*
X276250000Y-57050000D02*
X277700000Y-58500000D01*
D34*
X301400000Y-30600000D02*
X301400000Y-31600000D01*
D35*
X213300000Y-41160286D02*
X213300000Y-42000000D01*
D36*
X261004272Y-100895728D02*
X255008544Y-94900000D01*
D35*
X296600000Y-24800000D02*
X296600000Y-25600000D01*
D36*
X251100000Y-92700000D02*
X249700000Y-92700000D01*
D35*
X297700000Y-31800000D02*
X299000000Y-31800000D01*
D34*
X278175000Y-3575000D02*
X277825000Y-3925000D01*
D36*
X267800000Y-61300000D02*
X268200000Y-61700000D01*
X200408893Y-83076393D02*
X200408893Y-84008893D01*
D37*
X195600000Y-108170000D02*
X194990538Y-108170000D01*
D35*
X293800000Y-32600000D02*
X296900000Y-32600000D01*
D36*
X225958893Y-49358893D02*
X225958893Y-50526393D01*
D35*
X300200000Y-34500000D02*
X302300000Y-34500000D01*
D36*
X249700000Y-92700000D02*
X248650000Y-93750000D01*
D35*
X278200000Y-67900000D02*
X279600000Y-69300000D01*
X299900000Y-34200000D02*
X300200000Y-34500000D01*
X281708893Y-53676393D02*
X281708893Y-54608893D01*
D34*
X290100000Y-49600000D02*
X290100000Y-49900000D01*
D35*
X186925000Y-112206467D02*
X187038477Y-112319944D01*
X171362500Y-108350000D02*
X171050000Y-108350000D01*
X290676393Y-52676393D02*
X290800000Y-52800000D01*
D36*
X261550000Y-104350000D02*
X262250000Y-104350000D01*
D34*
X315300000Y-20200000D02*
X315300000Y-20600000D01*
D35*
X310008893Y-15176393D02*
X313585286Y-11600000D01*
D36*
X222300000Y-49900000D02*
X222300000Y-52700000D01*
X225208893Y-56776393D02*
X225508893Y-57076393D01*
D35*
X272100000Y-62348558D02*
X272100000Y-64000000D01*
D36*
X269400000Y-58200000D02*
X269400000Y-59900000D01*
X224175000Y-21300000D02*
X225650000Y-22775000D01*
X200450499Y-84149501D02*
X200500000Y-84100000D01*
D35*
X297225000Y-39125000D02*
X300575000Y-39125000D01*
D36*
X225958893Y-50526393D02*
X226708893Y-51276393D01*
D35*
X296600000Y-25600000D02*
X297700000Y-26700000D01*
X295400000Y-28800000D02*
X295600000Y-28800000D01*
D34*
X310500000Y-8400000D02*
X313700000Y-11600000D01*
D35*
X294400000Y-37000000D02*
X295100000Y-37700000D01*
D34*
X315300000Y-20600000D02*
X311400000Y-24500000D01*
D38*
X277500000Y-69730761D02*
X277500000Y-69800000D01*
D34*
X291100000Y-46700000D02*
X290200000Y-47600000D01*
D36*
X277708893Y-75676393D02*
X277408893Y-75376393D01*
X230700000Y-52998995D02*
X227600000Y-49898995D01*
X225650000Y-22775000D02*
X225650000Y-24450000D01*
D34*
X277825000Y-8400000D02*
X277825000Y-3925000D01*
D36*
X230908893Y-55776393D02*
X230700000Y-55567500D01*
D38*
X290800000Y-52800000D02*
X290800000Y-57100000D01*
D35*
X289000000Y-46300000D02*
X290700000Y-46300000D01*
D36*
X226050000Y-47850000D02*
X225958893Y-47941107D01*
X261758893Y-106141107D02*
X262300000Y-105600000D01*
D38*
X274825500Y-68750500D02*
X274300000Y-68225000D01*
D36*
X262250000Y-104350000D02*
X262300000Y-104400000D01*
D35*
X314408893Y-16200000D02*
X315200000Y-16200000D01*
D36*
X277550000Y-72950000D02*
X278500000Y-72000000D01*
D35*
X218151892Y-39051892D02*
X216014125Y-39051892D01*
D36*
X290800000Y-51400000D02*
X290700000Y-51300000D01*
D38*
X289550000Y-58350000D02*
X287900000Y-60000000D01*
D35*
X305900000Y-26500000D02*
X306400000Y-27000000D01*
X280850000Y-61550000D02*
X280800000Y-61600000D01*
X183467417Y-103976085D02*
X183467417Y-103832583D01*
D36*
X224175000Y-21300000D02*
X224500000Y-21300000D01*
D35*
X315200000Y-16200000D02*
X315300000Y-16100000D01*
D38*
X274300000Y-68225000D02*
X274300000Y-67200000D01*
D36*
X218600000Y-44775000D02*
X218600000Y-46200000D01*
D35*
X297975000Y-40475000D02*
X300100000Y-42600000D01*
D36*
X254325000Y-94725000D02*
X253125000Y-94725000D01*
D35*
X229608893Y-57076393D02*
X230908893Y-55776393D01*
X299765000Y-5865000D02*
X300000000Y-6100000D01*
D36*
X254500000Y-94900000D02*
X254325000Y-94725000D01*
D35*
X217000000Y-41667500D02*
X217000000Y-41924000D01*
D36*
X230700000Y-55567500D02*
X230700000Y-52998995D01*
X256395728Y-100895728D02*
X261004272Y-100895728D01*
D35*
X284250000Y-60150000D02*
X284350000Y-60150000D01*
X183467417Y-103832583D02*
X184000000Y-103300000D01*
D38*
X284250546Y-61649454D02*
X281049454Y-61649454D01*
X276369239Y-68600000D02*
X277500000Y-69730761D01*
D34*
X315300000Y-16100000D02*
X315300000Y-20200000D01*
D38*
X276200000Y-68600000D02*
X276049500Y-68750500D01*
D35*
X272100000Y-64000000D02*
X272700000Y-64600000D01*
D38*
%TO.N,/3V3*%
X278375000Y-9400000D02*
X279375000Y-8400000D01*
X276200000Y-9400000D02*
X278375000Y-9400000D01*
D35*
X298495000Y-2825000D02*
X298820000Y-2500000D01*
D34*
X279525000Y-4850000D02*
X284620000Y-4850000D01*
D35*
X286970000Y-2500000D02*
X284620000Y-4850000D01*
X298495000Y-4700000D02*
X298495000Y-2825000D01*
D38*
X275450000Y-8650000D02*
X276200000Y-9400000D01*
D34*
X279375000Y-8400000D02*
X279375000Y-5000000D01*
X279375000Y-5000000D02*
X279525000Y-4850000D01*
D35*
X298820000Y-2500000D02*
X286970000Y-2500000D01*
D38*
X275450000Y-8337500D02*
X275450000Y-8650000D01*
D37*
%TO.N,/STBD_LED_1*%
X172600000Y-107400000D02*
X171362500Y-107400000D01*
X196870000Y-106900000D02*
X197788950Y-106900000D01*
X197788950Y-106900000D02*
X197925999Y-107037049D01*
D36*
%TO.N,/STBD_LED_2*%
X182795666Y-103304334D02*
X184651041Y-101448959D01*
X184651041Y-101448959D02*
X184651041Y-99851041D01*
D37*
X196870000Y-108170000D02*
X197905900Y-108170000D01*
D36*
X184651041Y-99851041D02*
X184500000Y-99700000D01*
D37*
X197905900Y-108170000D02*
X198069581Y-108333681D01*
D35*
%TO.N,/SCL*%
X295955000Y-4700000D02*
X295955000Y-6345000D01*
X293796400Y-8503600D02*
X288273600Y-8503600D01*
X288273600Y-8503600D02*
X287160000Y-7390000D01*
D37*
X194514571Y-109440000D02*
X194463428Y-109491143D01*
X195600000Y-109440000D02*
X194514571Y-109440000D01*
D35*
X295955000Y-6345000D02*
X293796400Y-8503600D01*
D37*
%TO.N,/STBD_GP0*%
X198157678Y-109440000D02*
X198286339Y-109311339D01*
X196870000Y-109440000D02*
X198157678Y-109440000D01*
D35*
%TO.N,/SDA*%
X294218532Y-3200000D02*
X296020685Y-3200000D01*
D37*
X198300000Y-103900000D02*
X199500000Y-105100000D01*
X201600000Y-91800000D02*
X203600000Y-91800000D01*
X198300000Y-101400000D02*
X198133394Y-101233394D01*
X196125000Y-99175000D02*
X196125000Y-92700000D01*
X196100000Y-99200000D02*
X196125000Y-99175000D01*
X196125000Y-92700000D02*
X196725000Y-92100000D01*
X199500000Y-111300000D02*
X199500000Y-105100000D01*
X195600000Y-110710000D02*
X193811885Y-110710000D01*
D35*
X293469032Y-3949500D02*
X294218532Y-3200000D01*
X288440968Y-3569032D02*
X292550500Y-3569032D01*
D37*
X198133394Y-101233394D02*
X198133394Y-100890204D01*
X204100000Y-91300000D02*
X204100000Y-90000000D01*
X203600000Y-91800000D02*
X204100000Y-91300000D01*
X196725000Y-92100000D02*
X201300000Y-92100000D01*
D35*
X292550500Y-3569032D02*
X292930968Y-3949500D01*
D37*
X197870082Y-100626892D02*
X197526892Y-100626892D01*
X198300000Y-103900000D02*
X198300000Y-101400000D01*
D35*
X296020685Y-3200000D02*
X297225000Y-4404315D01*
X297225000Y-4404315D02*
X297225000Y-4700000D01*
D37*
X197526892Y-100626892D02*
X196100000Y-99200000D01*
X193811885Y-110710000D02*
X193587225Y-110485340D01*
D35*
X292930968Y-3949500D02*
X293469032Y-3949500D01*
D37*
X201300000Y-92100000D02*
X201600000Y-91800000D01*
D35*
X287160000Y-4850000D02*
X288440968Y-3569032D01*
D37*
X198133394Y-100890204D02*
X197870082Y-100626892D01*
%TO.N,/STBD_GP1*%
X197770621Y-104006311D02*
X197770621Y-101506311D01*
X197683893Y-101076393D02*
X197340703Y-101076393D01*
X196870000Y-110710000D02*
X197913134Y-110710000D01*
X196463145Y-100198835D02*
X196063472Y-100198835D01*
X197770621Y-101506311D02*
X197683893Y-101419583D01*
X199011339Y-105247029D02*
X197770621Y-104006311D01*
X199011339Y-109611795D02*
X199011339Y-105247029D01*
X197683893Y-101419583D02*
X197683893Y-101076393D01*
X197340703Y-101076393D02*
X196463145Y-100198835D01*
X197913134Y-110710000D02*
X199011339Y-109611795D01*
D35*
%TO.N,Net-(D1-DIN)*%
X173637500Y-108350000D02*
X173637500Y-108862500D01*
X172200000Y-110300000D02*
X171775000Y-110300000D01*
X172858893Y-116476393D02*
X173408893Y-116476393D01*
X171775000Y-110300000D02*
X170800000Y-111275000D01*
X170800000Y-114417500D02*
X172858893Y-116476393D01*
X173637500Y-108862500D02*
X172200000Y-110300000D01*
X170800000Y-111275000D02*
X170800000Y-114417500D01*
%TO.N,Net-(D1-DOUT)*%
X173000000Y-114500000D02*
X174200000Y-115700000D01*
X174450000Y-111650000D02*
X174150000Y-111650000D01*
X171385286Y-117300000D02*
X170708893Y-117976393D01*
X174100000Y-117300000D02*
X171385286Y-117300000D01*
X174150000Y-111650000D02*
X173000000Y-112800000D01*
X174200000Y-117200000D02*
X174100000Y-117300000D01*
X174200000Y-115700000D02*
X174200000Y-117200000D01*
X173000000Y-112800000D02*
X173000000Y-114500000D01*
%TO.N,Net-(D2-DOUT)*%
X173000000Y-119100000D02*
X173708893Y-119808893D01*
X171750000Y-114050000D02*
X172300000Y-114600000D01*
X171750000Y-113150000D02*
X171750000Y-114050000D01*
X173708893Y-119808893D02*
X173708893Y-120876393D01*
D36*
%TO.N,Net-(D3-DOUT)*%
X173108893Y-124476393D02*
X171008893Y-122376393D01*
X173108893Y-125676393D02*
X173108893Y-124476393D01*
%TO.N,Net-(D4-DOUT)*%
X173308893Y-130076393D02*
X170408893Y-127176393D01*
X173308893Y-130376393D02*
X173308893Y-130076393D01*
%TO.N,Net-(D5-DOUT)*%
X171385286Y-131100000D02*
X170608893Y-131876393D01*
X174010286Y-131100000D02*
X171385286Y-131100000D01*
X174200000Y-129860286D02*
X174200000Y-130910286D01*
X174200000Y-130910286D02*
X174010286Y-131100000D01*
X178185286Y-128500000D02*
X175560286Y-128500000D01*
X179008893Y-127676393D02*
X178185286Y-128500000D01*
X175560286Y-128500000D02*
X174200000Y-129860286D01*
%TO.N,Net-(D6-DOUT)*%
X177550000Y-131850000D02*
X177550000Y-130417500D01*
X177550000Y-130417500D02*
X176308893Y-129176393D01*
%TO.N,Net-(D7-DOUT)*%
X182458893Y-134051393D02*
X182310286Y-134200000D01*
X184333893Y-131876393D02*
X182458893Y-133751393D01*
X184408893Y-131876393D02*
X184333893Y-131876393D01*
X182310286Y-134200000D02*
X175700000Y-134200000D01*
X182458893Y-133751393D02*
X182458893Y-134051393D01*
X175700000Y-134200000D02*
X174850000Y-133350000D01*
%TO.N,Net-(D8-DOUT)*%
X184700000Y-129200000D02*
X182958893Y-130941107D01*
X182958893Y-130941107D02*
X182958893Y-132126393D01*
X188250000Y-128450000D02*
X187500000Y-129200000D01*
X189150000Y-128450000D02*
X188250000Y-128450000D01*
X182958893Y-132126393D02*
X181708893Y-133376393D01*
X187500000Y-129200000D02*
X184700000Y-129200000D01*
%TO.N,Net-(D10-DIN)*%
X187400000Y-129950000D02*
X186450000Y-129950000D01*
X190700000Y-133250000D02*
X187400000Y-129950000D01*
X191350000Y-133250000D02*
X190700000Y-133250000D01*
%TO.N,Net-(D10-DOUT)*%
X193350000Y-139050000D02*
X192950000Y-139050000D01*
X192950000Y-139050000D02*
X188650000Y-134750000D01*
%TO.N,Net-(D11-DOUT)*%
X199000000Y-137500000D02*
X198200000Y-138300000D01*
X195525000Y-138300000D02*
X194025000Y-139800000D01*
X198200000Y-138300000D02*
X195525000Y-138300000D01*
X191400000Y-139800000D02*
X190650000Y-140550000D01*
X194025000Y-139800000D02*
X191400000Y-139800000D01*
D38*
%TO.N,Net-(D12-DOUT)*%
X199025000Y-141725000D02*
X196300000Y-139000000D01*
X201625000Y-141725000D02*
X199025000Y-141725000D01*
X202350000Y-142450000D02*
X201625000Y-141725000D01*
%TO.N,Net-(D13-DOUT)*%
X204632500Y-144800000D02*
X200500000Y-144800000D01*
X200500000Y-144800000D02*
X199650000Y-143950000D01*
X206508893Y-146676393D02*
X204632500Y-144800000D01*
D35*
%TO.N,Net-(D14-DOUT)*%
X207501393Y-148801393D02*
X210850000Y-152150000D01*
X203808893Y-148176393D02*
X204433893Y-148801393D01*
X204433893Y-148801393D02*
X207501393Y-148801393D01*
%TO.N,Net-(D15-DOUT)*%
X208150000Y-153650000D02*
X211350000Y-156850000D01*
X211350000Y-156850000D02*
X211350000Y-157250000D01*
D36*
%TO.N,Net-(D17-DOUT)*%
X209050000Y-164050000D02*
X208200000Y-163200000D01*
X209050000Y-166450000D02*
X209050000Y-164050000D01*
%TO.N,Net-(D18-DOUT)*%
X204550000Y-169650000D02*
X204650000Y-169650000D01*
X204650000Y-169650000D02*
X206350000Y-167950000D01*
%TO.N,Net-(D19-DOUT)*%
X200850000Y-170150000D02*
X201850000Y-171150000D01*
X199550000Y-170150000D02*
X200850000Y-170150000D01*
%TO.N,Net-(D20-DOUT)*%
X194108893Y-169376393D02*
X194576393Y-169376393D01*
X194576393Y-169376393D02*
X196850000Y-171650000D01*
%TO.N,Net-(D21-DOUT)*%
X191208893Y-170876393D02*
X188508893Y-168176393D01*
X191408893Y-170876393D02*
X191208893Y-170876393D01*
%TO.N,Net-(D22-DOUT)*%
X185458893Y-164826393D02*
X184708893Y-164076393D01*
X185458893Y-166251393D02*
X185458893Y-164826393D01*
X185808893Y-169676393D02*
X185058893Y-168926393D01*
X185058893Y-168926393D02*
X185058893Y-166651393D01*
X185058893Y-166651393D02*
X185458893Y-166251393D01*
%TO.N,Net-(D23-DOUT)*%
X182008893Y-165991107D02*
X182008893Y-165576393D01*
X182000000Y-166000000D02*
X182008893Y-165991107D01*
X180900000Y-163900000D02*
X180900000Y-164900000D01*
X180908893Y-159976393D02*
X181658893Y-160726393D01*
X181658893Y-160726393D02*
X181658893Y-163141107D01*
X180900000Y-164900000D02*
X182000000Y-166000000D01*
X181658893Y-163141107D02*
X180900000Y-163900000D01*
%TO.N,Net-(D24-DOUT)*%
X177458893Y-160726393D02*
X178208893Y-161476393D01*
X179008893Y-155776393D02*
X178933893Y-155776393D01*
X177458893Y-157251393D02*
X177458893Y-160726393D01*
X178933893Y-155776393D02*
X177458893Y-157251393D01*
%TO.N,Net-(D25-DOUT)*%
X178100000Y-151700000D02*
X178100000Y-155485286D01*
X177350000Y-150950000D02*
X178100000Y-151700000D01*
X178100000Y-155485286D02*
X176308893Y-157276393D01*
%TO.N,Net-(D26-DOUT)*%
X176600000Y-150275000D02*
X176600000Y-150500000D01*
X182685286Y-150000000D02*
X176875000Y-150000000D01*
X176600000Y-150500000D02*
X174650000Y-152450000D01*
X183408893Y-149276393D02*
X182685286Y-150000000D01*
X176875000Y-150000000D02*
X176600000Y-150275000D01*
%TO.N,Net-(D27-DOUT)*%
X183258893Y-162858893D02*
X183100000Y-162700000D01*
X183100000Y-160400000D02*
X180708893Y-158008893D01*
X184108893Y-166808893D02*
X183200000Y-165900000D01*
X183100000Y-162700000D02*
X183100000Y-160400000D01*
X184108893Y-168576393D02*
X184108893Y-166808893D01*
X180708893Y-158008893D02*
X180708893Y-150776393D01*
X183258893Y-165841107D02*
X183258893Y-162858893D01*
X183200000Y-165900000D02*
X183258893Y-165841107D01*
%TO.N,Net-(D28-DOUT)*%
X181408893Y-170076393D02*
X182058893Y-170076393D01*
X185482500Y-173500000D02*
X186500000Y-173500000D01*
X182058893Y-170076393D02*
X185482500Y-173500000D01*
%TO.N,Net-(D29-DOUT)*%
X184775000Y-175975000D02*
X191325000Y-175975000D01*
X183800000Y-175000000D02*
X184775000Y-175975000D01*
X191325000Y-175975000D02*
X192150000Y-175150000D01*
%TO.N,Net-(D30-DOUT)*%
X188950000Y-179050000D02*
X188950000Y-177150000D01*
X188950000Y-177150000D02*
X189450000Y-176650000D01*
%TO.N,Net-(D31-DOUT)*%
X194900000Y-181600000D02*
X193800000Y-180500000D01*
X193800000Y-180500000D02*
X190425000Y-180500000D01*
X186925000Y-181225000D02*
X186250000Y-180550000D01*
X190425000Y-180500000D02*
X189700000Y-181225000D01*
X189700000Y-181225000D02*
X186925000Y-181225000D01*
%TO.N,Net-(D33-DOUT)*%
X198750000Y-186850000D02*
X198701471Y-186850000D01*
X195025000Y-187525000D02*
X195000000Y-187500000D01*
X190700000Y-187500000D02*
X189750000Y-186550000D01*
X198026471Y-187525000D02*
X195025000Y-187525000D01*
X198701471Y-186850000D02*
X198026471Y-187525000D01*
X195000000Y-187500000D02*
X190700000Y-187500000D01*
%TO.N,Net-(D34-DOUT)*%
X196908893Y-189208893D02*
X196050000Y-188350000D01*
X196908893Y-190876393D02*
X196908893Y-189208893D01*
%TO.N,Net-(D35-DOUT)*%
X202485286Y-191100000D02*
X199860286Y-191100000D01*
X197900000Y-193400000D02*
X195232500Y-193400000D01*
X195232500Y-193400000D02*
X194208893Y-192376393D01*
X197900000Y-193060286D02*
X197900000Y-193400000D01*
X203308893Y-190276393D02*
X202485286Y-191100000D01*
X199860286Y-191100000D02*
X197900000Y-193060286D01*
%TO.N,Net-(D36-DOUT)*%
X205008893Y-194776393D02*
X204358893Y-194776393D01*
X204358893Y-194776393D02*
X201358893Y-191776393D01*
X201358893Y-191776393D02*
X200608893Y-191776393D01*
%TO.N,Net-(D37-DOUT)*%
X211250000Y-193950000D02*
X210500000Y-194700000D01*
X210500000Y-194700000D02*
X208010286Y-194700000D01*
X205758893Y-196951393D02*
X202983893Y-196951393D01*
X208010286Y-194700000D02*
X205758893Y-196951393D01*
X202983893Y-196951393D02*
X202308893Y-196276393D01*
%TO.N,Net-(D38-DOUT)*%
X212550000Y-198400000D02*
X209600000Y-195450000D01*
X213200000Y-198400000D02*
X212550000Y-198400000D01*
X209600000Y-195450000D02*
X208550000Y-195450000D01*
%TO.N,Net-(D39-DOUT)*%
X213925000Y-199100000D02*
X211300000Y-199100000D01*
X211300000Y-199100000D02*
X210500000Y-199900000D01*
X215175000Y-195400000D02*
X214300000Y-196275000D01*
X218550000Y-194650000D02*
X217800000Y-195400000D01*
X214300000Y-196275000D02*
X214300000Y-198725000D01*
X217800000Y-195400000D02*
X215175000Y-195400000D01*
X214300000Y-198725000D02*
X213925000Y-199100000D01*
%TO.N,Net-(D40-DOUT)*%
X220550000Y-198450000D02*
X219875000Y-197775000D01*
X217475000Y-197775000D02*
X215850000Y-196150000D01*
X219875000Y-197775000D02*
X217475000Y-197775000D01*
%TO.N,Net-(D41-DOUT)*%
X218600000Y-199200000D02*
X217850000Y-199950000D01*
X224308893Y-193976393D02*
X223585286Y-194700000D01*
X221400000Y-197000000D02*
X221400000Y-199025000D01*
X223585286Y-194700000D02*
X220960286Y-194700000D01*
X221225000Y-199200000D02*
X218600000Y-199200000D01*
X220960286Y-194700000D02*
X220858893Y-194801393D01*
X220858893Y-196458893D02*
X221400000Y-197000000D01*
X221400000Y-199025000D02*
X221225000Y-199200000D01*
X220858893Y-194801393D02*
X220858893Y-196458893D01*
%TO.N,Net-(D42-DOUT)*%
X225623607Y-196151393D02*
X222283893Y-196151393D01*
X228750000Y-194450000D02*
X228000000Y-195200000D01*
X222283893Y-196151393D02*
X221608893Y-195476393D01*
X228000000Y-195200000D02*
X226575000Y-195200000D01*
X229950000Y-194450000D02*
X228750000Y-194450000D01*
X226575000Y-195200000D02*
X225623607Y-196151393D01*
%TO.N,Net-(D43-DOUT)*%
X230033893Y-189876393D02*
X228808893Y-191101393D01*
X228808893Y-191101393D02*
X228808893Y-191908893D01*
X227900000Y-195950000D02*
X227250000Y-195950000D01*
X228650000Y-195200000D02*
X227900000Y-195950000D01*
X230108893Y-189876393D02*
X230033893Y-189876393D01*
X230625000Y-195200000D02*
X228650000Y-195200000D01*
X228808893Y-191908893D02*
X231100000Y-194200000D01*
X231100000Y-194725000D02*
X230625000Y-195200000D01*
X231100000Y-194200000D02*
X231100000Y-194725000D01*
%TO.N,Net-(D44-DOUT)*%
X234700000Y-187800000D02*
X233900000Y-188600000D01*
X228658893Y-190126393D02*
X227408893Y-191376393D01*
X233900000Y-188600000D02*
X229960286Y-188600000D01*
X229960286Y-188600000D02*
X228658893Y-189901393D01*
X228658893Y-189901393D02*
X228658893Y-190126393D01*
%TO.N,Net-(D45-DOUT)*%
X232000000Y-190600000D02*
X235150000Y-193750000D01*
X232000000Y-189300000D02*
X232000000Y-190600000D01*
%TO.N,Net-(D46-DOUT)*%
X236325000Y-192275000D02*
X238875000Y-192275000D01*
X236100000Y-192500000D02*
X236325000Y-192275000D01*
X238875000Y-192275000D02*
X239550000Y-191600000D01*
X233275000Y-194425000D02*
X235875000Y-194425000D01*
X235875000Y-194425000D02*
X236100000Y-194200000D01*
X232450000Y-195250000D02*
X233275000Y-194425000D01*
X236100000Y-194200000D02*
X236100000Y-192500000D01*
%TO.N,Net-(D47-DOUT)*%
X236850000Y-193100000D02*
X237525000Y-193775000D01*
X244900000Y-192600000D02*
X245650000Y-191850000D01*
X237525000Y-193775000D02*
X241100000Y-193775000D01*
X241100000Y-193775000D02*
X242275000Y-192600000D01*
X242275000Y-192600000D02*
X244900000Y-192600000D01*
%TO.N,Net-(D49-DOUT)*%
X246400000Y-200425000D02*
X246575000Y-200600000D01*
X249775000Y-198250000D02*
X249850000Y-198250000D01*
X243500000Y-197300000D02*
X246400000Y-200200000D01*
X247900000Y-200125000D02*
X249775000Y-198250000D01*
X240800000Y-197300000D02*
X243500000Y-197300000D01*
X246400000Y-200200000D02*
X246400000Y-200425000D01*
X247900000Y-200600000D02*
X247900000Y-200125000D01*
X246575000Y-200600000D02*
X247900000Y-200600000D01*
X240100000Y-198000000D02*
X240800000Y-197300000D01*
%TO.N,Net-(D50-DOUT)*%
X251075000Y-194225000D02*
X251750000Y-193550000D01*
X246400000Y-196275000D02*
X248450000Y-194225000D01*
X247150000Y-199750000D02*
X246400000Y-199000000D01*
X246400000Y-199000000D02*
X246400000Y-196275000D01*
X248450000Y-194225000D02*
X251075000Y-194225000D01*
%TO.N,Net-(D51-DOUT)*%
X249050000Y-195050000D02*
X250050000Y-195050000D01*
X250050000Y-195050000D02*
X254700000Y-199700000D01*
%TO.N,Net-(D52-DOUT)*%
X252000000Y-201200000D02*
X252400000Y-201200000D01*
X255325000Y-200500000D02*
X255600000Y-200225000D01*
X253375000Y-196000000D02*
X256000000Y-196000000D01*
X253575000Y-197700000D02*
X253300000Y-197425000D01*
X256000000Y-196000000D02*
X256750000Y-195250000D01*
X255600000Y-199175000D02*
X254125000Y-197700000D01*
X255600000Y-200225000D02*
X255600000Y-199175000D01*
X254125000Y-197700000D02*
X253575000Y-197700000D01*
X253100000Y-200500000D02*
X255325000Y-200500000D01*
X252400000Y-201200000D02*
X253100000Y-200500000D01*
X253300000Y-196075000D02*
X253375000Y-196000000D01*
X253300000Y-197425000D02*
X253300000Y-196075000D01*
%TO.N,Net-(D53-DOUT)*%
X260125000Y-202300000D02*
X261150000Y-201275000D01*
X254050000Y-196750000D02*
X255999501Y-198699501D01*
X261150000Y-200975000D02*
X262375000Y-199750000D01*
X259025000Y-202300000D02*
X260125000Y-202300000D01*
X262375000Y-199750000D02*
X262450000Y-199750000D01*
X255999501Y-198699501D02*
X255999501Y-199274501D01*
X261150000Y-201275000D02*
X261150000Y-200975000D01*
X255999501Y-199274501D02*
X259025000Y-202300000D01*
%TO.N,Net-(D54-DOUT)*%
X261000000Y-198800000D02*
X258800000Y-196600000D01*
X259100000Y-194900000D02*
X261700000Y-194900000D01*
X261700000Y-194900000D02*
X262450000Y-194150000D01*
X258800000Y-196600000D02*
X258800000Y-195200000D01*
X258800000Y-195200000D02*
X259100000Y-194900000D01*
X259750000Y-201250000D02*
X261000000Y-200000000D01*
X261000000Y-200000000D02*
X261000000Y-198800000D01*
%TO.N,Net-(D55-DOUT)*%
X259750000Y-195650000D02*
X263400000Y-199300000D01*
X263400000Y-199300000D02*
X266200000Y-199300000D01*
X266200000Y-198675000D02*
X267875000Y-197000000D01*
X266200000Y-199300000D02*
X266200000Y-198675000D01*
X267875000Y-197000000D02*
X267950000Y-197000000D01*
%TO.N,Net-(D56-DOUT)*%
X265250000Y-198500000D02*
X264100000Y-197350000D01*
X264100000Y-196700000D02*
X266500000Y-194300000D01*
X269100000Y-193610286D02*
X269100000Y-192467500D01*
X266500000Y-194300000D02*
X268410286Y-194300000D01*
X269100000Y-192467500D02*
X268208893Y-191576393D01*
X264100000Y-197350000D02*
X264100000Y-196700000D01*
X268410286Y-194300000D02*
X269100000Y-193610286D01*
%TO.N,Net-(D57-DOUT)*%
X263608893Y-189401393D02*
X264833893Y-188176393D01*
X264833893Y-188176393D02*
X264908893Y-188176393D01*
X263608893Y-191176393D02*
X263608893Y-189401393D01*
X265508893Y-193076393D02*
X263608893Y-191176393D01*
%TO.N,Net-(D58-DOUT)*%
X267100000Y-186051471D02*
X268701471Y-184450000D01*
X268701471Y-184450000D02*
X268750000Y-184450000D01*
X266700000Y-187200000D02*
X267100000Y-186800000D01*
X267100000Y-186800000D02*
X267100000Y-186051471D01*
X264460286Y-187200000D02*
X266700000Y-187200000D01*
X264158893Y-187501393D02*
X264460286Y-187200000D01*
X262208893Y-189676393D02*
X264158893Y-187726393D01*
X264158893Y-187726393D02*
X264158893Y-187501393D01*
%TO.N,Net-(D59-DOUT)*%
X264533893Y-181576393D02*
X264608893Y-181576393D01*
X263308893Y-182801393D02*
X264533893Y-181576393D01*
X266050000Y-185950000D02*
X265400000Y-185950000D01*
X263308893Y-183858893D02*
X263308893Y-182801393D01*
X265400000Y-185950000D02*
X263308893Y-183858893D01*
%TO.N,Net-(D60-DOUT)*%
X266308893Y-178991107D02*
X267423607Y-177876393D01*
X265548607Y-180051393D02*
X266308893Y-179291107D01*
X266308893Y-179291107D02*
X266308893Y-178991107D01*
X263158893Y-181601393D02*
X264708893Y-180051393D01*
X263158893Y-181826393D02*
X263158893Y-181601393D01*
X264708893Y-180051393D02*
X265548607Y-180051393D01*
X261908893Y-183076393D02*
X263158893Y-181826393D01*
X267423607Y-177876393D02*
X267608893Y-177876393D01*
%TO.N,Net-(D61-DOUT)*%
X263700000Y-178167500D02*
X263700000Y-175800000D01*
X263450000Y-175550000D02*
X262950000Y-175550000D01*
X263700000Y-175800000D02*
X263450000Y-175550000D01*
X264908893Y-179376393D02*
X263700000Y-178167500D01*
%TO.N,Net-(D62-DOUT)*%
X260250000Y-176850000D02*
X260950500Y-176149500D01*
X261800000Y-175700000D02*
X261800000Y-175300000D01*
X263700000Y-173525000D02*
X265575000Y-171650000D01*
X263700000Y-173825000D02*
X263700000Y-173525000D01*
X261350500Y-176149500D02*
X261800000Y-175700000D01*
X263225000Y-174300000D02*
X263700000Y-173825000D01*
X261800000Y-175300000D02*
X262800000Y-174300000D01*
X265575000Y-171650000D02*
X265650000Y-171650000D01*
X262800000Y-174300000D02*
X263225000Y-174300000D01*
X260950500Y-176149500D02*
X261350500Y-176149500D01*
X260250000Y-177050000D02*
X260250000Y-176850000D01*
%TO.N,Net-(D63-DOUT)*%
X262100000Y-170300000D02*
X261476393Y-169676393D01*
X262950000Y-173150000D02*
X262100000Y-172300000D01*
X262100000Y-172300000D02*
X262100000Y-170300000D01*
X261476393Y-169676393D02*
X261108893Y-169676393D01*
%TO.N,Net-(D65-DOUT)*%
X259425000Y-163300000D02*
X259500000Y-163300000D01*
X260900000Y-167300000D02*
X260250000Y-167300000D01*
X258200000Y-164525000D02*
X259425000Y-163300000D01*
X260250000Y-167300000D02*
X258200000Y-165250000D01*
X258200000Y-165250000D02*
X258200000Y-164525000D01*
%TO.N,Net-(D66-DOUT)*%
X260875000Y-159650000D02*
X260950000Y-159650000D01*
X258750000Y-162075000D02*
X259650000Y-161175000D01*
X259650000Y-160875000D02*
X260875000Y-159650000D01*
X259650000Y-161175000D02*
X259650000Y-160875000D01*
X256800000Y-164800000D02*
X258750000Y-162850000D01*
X258750000Y-162850000D02*
X258750000Y-162075000D01*
%TO.N,Net-(D67-DOUT)*%
X258250000Y-161150000D02*
X257400000Y-160300000D01*
X256450000Y-157750000D02*
X256750000Y-157750000D01*
X257100000Y-158100000D02*
X256900000Y-158100000D01*
X257400000Y-160300000D02*
X257400000Y-158100000D01*
X256750000Y-157750000D02*
X257100000Y-158100000D01*
X257400000Y-158100000D02*
X257100000Y-158100000D01*
%TO.N,Net-(D68-DOUT)*%
X260300000Y-155100000D02*
X260600000Y-155100000D01*
X255700000Y-157200000D02*
X256000000Y-156900000D01*
X259300000Y-156500000D02*
X259300000Y-156100000D01*
X257700000Y-157700000D02*
X258100000Y-157700000D01*
X256900000Y-156900000D02*
X257700000Y-157700000D01*
X255700000Y-157300000D02*
X255700000Y-157200000D01*
X258100000Y-157700000D02*
X259300000Y-156500000D01*
X259300000Y-156100000D02*
X260300000Y-155100000D01*
X253750000Y-159250000D02*
X255700000Y-157300000D01*
X256000000Y-156900000D02*
X256900000Y-156900000D01*
%TO.N,Net-(D69-DOUT)*%
X257150000Y-155350000D02*
X255500000Y-153700000D01*
X257150000Y-155850000D02*
X257150000Y-155350000D01*
X257900000Y-156600000D02*
X257150000Y-155850000D01*
%TO.N,Net-(D70-DOUT)*%
X250750000Y-155200000D02*
X250550000Y-155400000D01*
X252800000Y-155200000D02*
X250750000Y-155200000D01*
%TO.N,Net-(D71-DOUT)*%
X246200000Y-154800000D02*
X245450000Y-154050000D01*
X247850000Y-156900000D02*
X246200000Y-155250000D01*
X246200000Y-155250000D02*
X246200000Y-154800000D01*
%TO.N,Net-(D72-DOUT)*%
X241850000Y-155550000D02*
X240750000Y-154450000D01*
X242750000Y-155550000D02*
X241850000Y-155550000D01*
%TO.N,Net-(D73-DOUT)*%
X236800000Y-154000000D02*
X236150000Y-153350000D01*
X236150000Y-153350000D02*
X236050000Y-153350000D01*
X236800000Y-154700000D02*
X236800000Y-154000000D01*
X238050000Y-155950000D02*
X236800000Y-154700000D01*
%TO.N,Net-(D74-DOUT)*%
X233350000Y-155635286D02*
X232008893Y-156976393D01*
X233350000Y-154850000D02*
X233350000Y-155635286D01*
%TO.N,Net-(D75-DOUT)*%
X231200000Y-156585286D02*
X229308893Y-158476393D01*
X231200000Y-153700000D02*
X231200000Y-156585286D01*
X230350000Y-152850000D02*
X231200000Y-153700000D01*
%TO.N,Net-(D78-DOUT)*%
X226550000Y-163250000D02*
X228100000Y-164800000D01*
X226550000Y-162150000D02*
X226550000Y-163250000D01*
%TO.N,Net-(D79-DOUT)*%
X225400000Y-168600000D02*
X226000000Y-169200000D01*
X225400000Y-166300000D02*
X225400000Y-168600000D01*
%TO.N,Net-(D81-DOUT)*%
X223550000Y-175450000D02*
X224650000Y-175450000D01*
X224650000Y-175450000D02*
X228100000Y-178900000D01*
%TO.N,Net-(D82-DOUT)*%
X226050000Y-180400000D02*
X229926393Y-184276393D01*
X225400000Y-180400000D02*
X226050000Y-180400000D01*
X229926393Y-184276393D02*
X230608893Y-184276393D01*
%TO.N,Net-(D83-DOUT)*%
X221300000Y-172800000D02*
X221300000Y-169900000D01*
X221300000Y-169900000D02*
X220400000Y-169000000D01*
X224650000Y-182517500D02*
X224650000Y-180550000D01*
X227908893Y-185776393D02*
X224650000Y-182517500D01*
X220260571Y-176160571D02*
X220260571Y-173839429D01*
X224650000Y-180550000D02*
X220260571Y-176160571D01*
X220260571Y-173839429D02*
X221300000Y-172800000D01*
%TO.N,Net-(D84-DOUT)*%
X216500000Y-169300000D02*
X217700000Y-170500000D01*
X218150000Y-164850000D02*
X216500000Y-166500000D01*
X216500000Y-166500000D02*
X216500000Y-169300000D01*
X218450000Y-164850000D02*
X218150000Y-164850000D01*
%TO.N,Net-(D85-DOUT)*%
X214900000Y-165500000D02*
X215750000Y-166350000D01*
X214900000Y-162500000D02*
X214900000Y-165500000D01*
X216650000Y-161050000D02*
X216350000Y-161050000D01*
X216350000Y-161050000D02*
X214900000Y-162500000D01*
D38*
%TO.N,Net-(D86-DOUT)*%
X199675000Y-136775000D02*
X200400000Y-137500000D01*
X213150000Y-157628203D02*
X213150000Y-161750000D01*
X212046797Y-156525000D02*
X213150000Y-157628203D01*
X207308893Y-145308893D02*
X207308893Y-146308893D01*
X213150000Y-161750000D02*
X213950000Y-162550000D01*
X192800000Y-128100000D02*
X192800000Y-131400000D01*
D35*
X194223607Y-126676393D02*
X192800000Y-128100000D01*
D38*
X200400000Y-138400000D02*
X207308893Y-145308893D01*
X212046797Y-151046797D02*
X212046797Y-156525000D01*
D35*
X194408893Y-126676393D02*
X194223607Y-126676393D01*
D38*
X198175000Y-136775000D02*
X199675000Y-136775000D01*
X200400000Y-137500000D02*
X200400000Y-138400000D01*
X207308893Y-146308893D02*
X212046797Y-151046797D01*
X192800000Y-131400000D02*
X198175000Y-136775000D01*
D35*
%TO.N,Net-(D87-DOUT)*%
X199807517Y-124776393D02*
X200208893Y-124776393D01*
X194385286Y-125500000D02*
X199083910Y-125500000D01*
X199083910Y-125500000D02*
X199807517Y-124776393D01*
X191708893Y-128176393D02*
X194385286Y-125500000D01*
%TO.N,Net-(D88-DOUT)*%
X206350000Y-123750000D02*
X205800000Y-124300000D01*
X204100000Y-124600000D02*
X203100000Y-124600000D01*
X203100000Y-124600000D02*
X202075943Y-125624057D01*
X198731075Y-126276393D02*
X197508893Y-126276393D01*
X199383411Y-125624057D02*
X198731075Y-126276393D01*
X202075943Y-125624057D02*
X199383411Y-125624057D01*
X204400000Y-124300000D02*
X204100000Y-124600000D01*
X205800000Y-124300000D02*
X204400000Y-124300000D01*
%TO.N,Net-(D89-DOUT)*%
X207248607Y-124051393D02*
X206700000Y-124600000D01*
X213008893Y-123176393D02*
X212133893Y-124051393D01*
X206700000Y-124600000D02*
X204850000Y-124600000D01*
X204850000Y-124600000D02*
X204200000Y-125250000D01*
X204200000Y-125250000D02*
X203650000Y-125250000D01*
X212133893Y-124051393D02*
X207248607Y-124051393D01*
D36*
%TO.N,Net-(D90-DOUT)*%
X213800000Y-125400000D02*
X211032500Y-125400000D01*
X211032500Y-125400000D02*
X210308893Y-124676393D01*
X219250000Y-123850000D02*
X218500000Y-124600000D01*
X218500000Y-124600000D02*
X214600000Y-124600000D01*
X214600000Y-124600000D02*
X213800000Y-125400000D01*
%TO.N,Net-(D91-DOUT)*%
X224700000Y-125500000D02*
X221600000Y-125500000D01*
X221600000Y-125500000D02*
X220800000Y-126300000D01*
X226100000Y-126900000D02*
X224700000Y-125500000D01*
X220800000Y-126300000D02*
X217500000Y-126300000D01*
X217500000Y-126300000D02*
X216550000Y-125350000D01*
%TO.N,Net-(D92-DOUT)*%
X224100000Y-128400000D02*
X223400000Y-128400000D01*
X226300000Y-130600000D02*
X224100000Y-128400000D01*
X229132500Y-130600000D02*
X226300000Y-130600000D01*
X230708893Y-132176393D02*
X229132500Y-130600000D01*
%TO.N,Net-(D93-DOUT)*%
X230400000Y-137300000D02*
X232985286Y-137300000D01*
X228008893Y-134908893D02*
X230400000Y-137300000D01*
X232985286Y-137300000D02*
X233708893Y-136576393D01*
X228008893Y-133676393D02*
X228008893Y-134908893D01*
%TO.N,Net-(D94-DOUT)*%
X231008893Y-138308893D02*
X234000000Y-141300000D01*
X231008893Y-138076393D02*
X231008893Y-138308893D01*
%TO.N,Net-(D95-DOUT)*%
X234350000Y-145850000D02*
X231300000Y-142800000D01*
X234350000Y-147250000D02*
X234350000Y-145850000D01*
%TO.N,Net-(D97-DOUT)*%
X241975000Y-135375000D02*
X237325000Y-135375000D01*
X242650000Y-136050000D02*
X241975000Y-135375000D01*
X237300000Y-135400000D02*
X235700000Y-135400000D01*
X235700000Y-135400000D02*
X234550000Y-134250000D01*
X237325000Y-135375000D02*
X237300000Y-135400000D01*
%TO.N,Net-(D98-DOUT)*%
X239950000Y-137550000D02*
X242401393Y-140001393D01*
X246533893Y-140001393D02*
X247208893Y-140676393D01*
X242401393Y-140001393D02*
X246533893Y-140001393D01*
%TO.N,Net-(D16-DOUT)*%
X210900000Y-161000000D02*
X208650000Y-158750000D01*
X210900000Y-161700000D02*
X210900000Y-161000000D01*
%TO.N,Net-(D100-DOUT)*%
X254775000Y-148975000D02*
X255450000Y-149650000D01*
X248808893Y-146976393D02*
X250807500Y-148975000D01*
X250807500Y-148975000D02*
X254775000Y-148975000D01*
%TO.N,Net-(D101-DOUT)*%
X260075000Y-153025000D02*
X260300000Y-152800000D01*
X254625000Y-153025000D02*
X260075000Y-153025000D01*
X261975000Y-150550000D02*
X262050000Y-150550000D01*
X260300000Y-152225000D02*
X261975000Y-150550000D01*
X252750000Y-151150000D02*
X254625000Y-153025000D01*
X260300000Y-152800000D02*
X260300000Y-152225000D01*
%TO.N,Net-(D102-DOUT)*%
X259350000Y-152050000D02*
X261100000Y-150300000D01*
X265450000Y-150175000D02*
X267325000Y-148300000D01*
X261425000Y-149875000D02*
X262675000Y-149875000D01*
X267325000Y-148300000D02*
X267400000Y-148300000D01*
X262675000Y-149875000D02*
X263900000Y-151100000D01*
X263900000Y-151100000D02*
X264900000Y-151100000D01*
X261100000Y-150200000D02*
X261425000Y-149875000D01*
X261100000Y-150300000D02*
X261100000Y-150200000D01*
X264900000Y-151100000D02*
X265450000Y-150550000D01*
X265450000Y-150550000D02*
X265450000Y-150175000D01*
%TO.N,Net-(D103-DOUT)*%
X264700000Y-149800000D02*
X265950000Y-148550000D01*
X265950000Y-148051471D02*
X265600000Y-147701471D01*
X267033893Y-143776393D02*
X267108893Y-143776393D01*
X265600000Y-145210286D02*
X267033893Y-143776393D01*
X265600000Y-147701471D02*
X265600000Y-145210286D01*
X265950000Y-148550000D02*
X265950000Y-148051471D01*
%TO.N,Net-(D104-DOUT)*%
X264408893Y-145276393D02*
X265658893Y-144026393D01*
X267200000Y-142300000D02*
X268500000Y-142300000D01*
X265658893Y-144026393D02*
X265658893Y-143841107D01*
X269523607Y-139676393D02*
X270308893Y-139676393D01*
X265658893Y-143841107D02*
X267200000Y-142300000D01*
X268500000Y-142300000D02*
X268500000Y-140700000D01*
X268500000Y-140700000D02*
X269523607Y-139676393D01*
%TO.N,Net-(D105-DOUT)*%
X266408893Y-136801393D02*
X267633893Y-135576393D01*
X267633893Y-135576393D02*
X267708893Y-135576393D01*
X266408893Y-139976393D02*
X266408893Y-136801393D01*
X267608893Y-141176393D02*
X266408893Y-139976393D01*
%TO.N,Net-(D106-DOUT)*%
X266950000Y-135135286D02*
X266950000Y-132975000D01*
X265008893Y-137076393D02*
X266950000Y-135135286D01*
X268175000Y-131750000D02*
X268250000Y-131750000D01*
X266950000Y-132975000D02*
X268175000Y-131750000D01*
%TO.N,Net-(D107-DOUT)*%
X265300000Y-129000000D02*
X264550000Y-128250000D01*
X265300000Y-130425000D02*
X265300000Y-129000000D01*
X264800000Y-130925000D02*
X265300000Y-130425000D01*
X265550000Y-133250000D02*
X264800000Y-132500000D01*
X264800000Y-132500000D02*
X264800000Y-130925000D01*
%TO.N,Net-(D108-DOUT)*%
X264500000Y-126725000D02*
X264500000Y-125300000D01*
X261850000Y-129750000D02*
X263800000Y-127800000D01*
X263800000Y-127425000D02*
X264500000Y-126725000D01*
X263800000Y-127800000D02*
X263800000Y-127425000D01*
X264500000Y-125300000D02*
X263750000Y-124550000D01*
%TO.N,Net-(D109-DOUT)*%
X263800000Y-122325000D02*
X263800000Y-122025000D01*
X263800000Y-122025000D02*
X265675000Y-120150000D01*
X265675000Y-120150000D02*
X265750000Y-120150000D01*
X261050000Y-126050000D02*
X263000000Y-124100000D01*
X263000000Y-124100000D02*
X263000000Y-123125000D01*
X263000000Y-123125000D02*
X263800000Y-122325000D01*
%TO.N,Net-(D110-DOUT)*%
X263050000Y-121650000D02*
X264800000Y-119900000D01*
X266000000Y-118300000D02*
X266000000Y-116000000D01*
X264800000Y-119500000D02*
X266000000Y-118300000D01*
X266000000Y-116000000D02*
X265250000Y-115250000D01*
X264800000Y-119900000D02*
X264800000Y-119500000D01*
%TO.N,Net-(D111-DOUT)*%
X265408893Y-112091107D02*
X265408893Y-111601393D01*
X266633893Y-110376393D02*
X266708893Y-110376393D01*
X262550000Y-116750000D02*
X264500000Y-114800000D01*
X264500000Y-114800000D02*
X264500000Y-113000000D01*
X265408893Y-111601393D02*
X266633893Y-110376393D01*
X264500000Y-113000000D02*
X265408893Y-112091107D01*
%TO.N,Net-(D113-DOUT)*%
X260800000Y-107385286D02*
X260800000Y-103600000D01*
X260800000Y-103600000D02*
X261550000Y-102850000D01*
X259808893Y-108376393D02*
X260800000Y-107385286D01*
%TO.N,Net-(D114-DOUT)*%
X255775000Y-101700000D02*
X255000000Y-100925000D01*
X259200000Y-101700000D02*
X255775000Y-101700000D01*
X259600000Y-103600000D02*
X259600000Y-102100000D01*
X255000000Y-99900000D02*
X255850000Y-99050000D01*
X258850000Y-104350000D02*
X259600000Y-103600000D01*
X255850000Y-99050000D02*
X256050000Y-99050000D01*
X259600000Y-102100000D02*
X259200000Y-101700000D01*
X255000000Y-100925000D02*
X255000000Y-99900000D01*
%TO.N,Net-(D115-DOUT)*%
X254100000Y-99800000D02*
X254100000Y-96500000D01*
X254100000Y-96500000D02*
X253000000Y-95400000D01*
X253350000Y-100550000D02*
X254100000Y-99800000D01*
%TO.N,Net-(D116-DOUT)*%
X247300000Y-94000000D02*
X247300000Y-93525000D01*
X250300000Y-96900000D02*
X251050000Y-96150000D01*
X248575000Y-92250000D02*
X248650000Y-92250000D01*
X250925000Y-94725000D02*
X248975000Y-94725000D01*
X248975000Y-94725000D02*
X248800000Y-94900000D01*
X248800000Y-94900000D02*
X248200000Y-94900000D01*
X251050000Y-94850000D02*
X250925000Y-94725000D01*
X247300000Y-93525000D02*
X248575000Y-92250000D01*
X251050000Y-96150000D02*
X251050000Y-94850000D01*
X248200000Y-94900000D02*
X247300000Y-94000000D01*
%TO.N,Net-(D117-DOUT)*%
X243850000Y-93750000D02*
X245950000Y-93750000D01*
X235846717Y-90751393D02*
X240851393Y-90751393D01*
X231900000Y-86400000D02*
X235795324Y-90295324D01*
X235795324Y-90295324D02*
X235795324Y-90700000D01*
X240851393Y-90751393D02*
X243850000Y-93750000D01*
X235795324Y-90700000D02*
X235846717Y-90751393D01*
%TO.N,Net-(D118-DOUT)*%
X229200000Y-87900000D02*
X227000000Y-85700000D01*
X227000000Y-84600000D02*
X226250000Y-83850000D01*
X227000000Y-85700000D02*
X227000000Y-84600000D01*
%TO.N,Net-(D119-DOUT)*%
X223550000Y-85435286D02*
X221908893Y-87076393D01*
X223550000Y-85350000D02*
X223550000Y-85435286D01*
%TO.N,Net-(D120-DOUT)*%
X218400000Y-85900000D02*
X219200000Y-85100000D01*
X219200000Y-84900000D02*
X217900000Y-83600000D01*
X219200000Y-85100000D02*
X219200000Y-84900000D01*
X218400000Y-87767500D02*
X218400000Y-85900000D01*
X219208893Y-88576393D02*
X218400000Y-87767500D01*
%TO.N,Net-(D121-DOUT)*%
X215200000Y-85100000D02*
X215200000Y-86800000D01*
X215200000Y-86800000D02*
X214250000Y-87750000D01*
%TO.N,Net-(D122-DOUT)*%
X213100000Y-87700000D02*
X211550000Y-89250000D01*
X213100000Y-85667500D02*
X213100000Y-87700000D01*
X210908893Y-83476393D02*
X213100000Y-85667500D01*
%TO.N,Net-(D123-DOUT)*%
X208708893Y-87076393D02*
X208708893Y-85476393D01*
X208708893Y-85476393D02*
X208208893Y-84976393D01*
%TO.N,Net-(D124-DOUT)*%
X205150000Y-91050000D02*
X205150000Y-89435286D01*
X205150000Y-89435286D02*
X206008893Y-88576393D01*
%TO.N,Net-(D125-DOUT)*%
X201800000Y-93200000D02*
X202450000Y-92550000D01*
X199800000Y-93200000D02*
X201800000Y-93200000D01*
%TO.N,Net-(D126-DOUT)*%
X197550000Y-95150000D02*
X197100000Y-94700000D01*
X197550000Y-97150000D02*
X197550000Y-95150000D01*
%TO.N,Net-(D127-DOUT)*%
X194850000Y-98650000D02*
X194100000Y-97900000D01*
X194100000Y-97900000D02*
X194100000Y-96800000D01*
X192950000Y-95650000D02*
X192850000Y-95650000D01*
X194100000Y-96800000D02*
X192950000Y-95650000D01*
D35*
%TO.N,Net-(D129-DOUT)*%
X177660660Y-108800000D02*
X178575736Y-107884924D01*
X176500000Y-113000000D02*
X176500000Y-109700000D01*
X178076393Y-114576393D02*
X176500000Y-113000000D01*
X179108893Y-114576393D02*
X178076393Y-114576393D01*
X176500000Y-109700000D02*
X177400000Y-108800000D01*
X177400000Y-108800000D02*
X177660660Y-108800000D01*
%TO.N,Net-(D130-DOUT)*%
X182300000Y-115000000D02*
X182300000Y-114922182D01*
X178200000Y-117200000D02*
X180100000Y-117200000D01*
X177076393Y-116076393D02*
X178200000Y-117200000D01*
X182300000Y-114922182D02*
X184700000Y-112522182D01*
X184700000Y-112522182D02*
X184700000Y-112500000D01*
X176408893Y-116076393D02*
X177076393Y-116076393D01*
X180100000Y-117200000D02*
X182300000Y-115000000D01*
%TO.N,Net-(D131-DOUT)*%
X185500000Y-111757107D02*
X186392893Y-112650000D01*
X190800000Y-113100000D02*
X191100000Y-112800000D01*
X184300000Y-111700000D02*
X185500000Y-111700000D01*
X186450000Y-112650000D02*
X186700000Y-112900000D01*
X186700000Y-112900000D02*
X186700000Y-113100000D01*
X205483893Y-113001393D02*
X206108893Y-112376393D01*
X185500000Y-111700000D02*
X185500000Y-111757107D01*
X182000000Y-114000000D02*
X184300000Y-111700000D01*
X191100000Y-112800000D02*
X198300000Y-112800000D01*
X198501393Y-113001393D02*
X205483893Y-113001393D01*
X186700000Y-113100000D02*
X190800000Y-113100000D01*
X198300000Y-112800000D02*
X198501393Y-113001393D01*
X186392893Y-112650000D02*
X186450000Y-112650000D01*
%TO.N,Net-(D132-DOUT)*%
X204033893Y-114501393D02*
X210433893Y-114501393D01*
X203408893Y-113876393D02*
X204033893Y-114501393D01*
X210433893Y-114501393D02*
X211308893Y-115376393D01*
%TO.N,Net-(D133-DOUT)*%
X213400000Y-119300000D02*
X213400000Y-120992500D01*
X208608893Y-116876393D02*
X208683893Y-116876393D01*
X212200000Y-118100000D02*
X213400000Y-119300000D01*
X208683893Y-116876393D02*
X209907500Y-118100000D01*
X214685286Y-121800000D02*
X217208893Y-119276393D01*
X214207500Y-121800000D02*
X214685286Y-121800000D01*
X213400000Y-120992500D02*
X214207500Y-121800000D01*
X209907500Y-118100000D02*
X212200000Y-118100000D01*
%TO.N,Net-(D134-DOUT)*%
X214000000Y-116100000D02*
X213300000Y-116100000D01*
X214583893Y-120776393D02*
X215708893Y-119651393D01*
X215708893Y-119651393D02*
X215708893Y-117808893D01*
X196908893Y-101776393D02*
X196833893Y-101776393D01*
X211400000Y-114200000D02*
X209100000Y-114200000D01*
X215708893Y-117808893D02*
X214000000Y-116100000D01*
X196833893Y-101776393D02*
X195400000Y-103210286D01*
X206808893Y-111908893D02*
X206808893Y-111751393D01*
X206808893Y-111751393D02*
X206657500Y-111600000D01*
X195400000Y-103875500D02*
X195500000Y-103975500D01*
X214508893Y-120776393D02*
X214583893Y-120776393D01*
X206657500Y-111600000D02*
X205500000Y-111600000D01*
X213300000Y-116100000D02*
X211400000Y-114200000D01*
X195400000Y-103210286D02*
X195400000Y-103875500D01*
X205500000Y-111600000D02*
X200224500Y-106324500D01*
X209100000Y-114200000D02*
X206808893Y-111908893D01*
X200224500Y-106324500D02*
X200224500Y-106300000D01*
D36*
%TO.N,Net-(D135-DOUT)*%
X205450000Y-81950000D02*
X206400000Y-82900000D01*
X192400000Y-98800000D02*
X192800000Y-98800000D01*
X197200000Y-91000000D02*
X195400000Y-92800000D01*
X194200000Y-92800000D02*
X191550000Y-95450000D01*
X191550000Y-95450000D02*
X191550000Y-97950000D01*
X193100000Y-99100000D02*
X193100000Y-102167500D01*
X193100000Y-102167500D02*
X194208893Y-103276393D01*
X191550000Y-97950000D02*
X192400000Y-98800000D01*
X192800000Y-98800000D02*
X193100000Y-99100000D01*
X195400000Y-92800000D02*
X194200000Y-92800000D01*
X206400000Y-85100000D02*
X200500000Y-91000000D01*
X200500000Y-91000000D02*
X197200000Y-91000000D01*
X206400000Y-82900000D02*
X206400000Y-85100000D01*
%TO.N,Net-(D137-DOUT)*%
X196949501Y-82317001D02*
X197708893Y-83076393D01*
X195644270Y-79750000D02*
X196949501Y-81055232D01*
X196949501Y-81055232D02*
X196949501Y-82317001D01*
X195450000Y-79750000D02*
X195644270Y-79750000D01*
%TO.N,Net-(D139-DOUT)*%
X215250000Y-77250000D02*
X214000000Y-78500000D01*
X210625000Y-79425000D02*
X210100000Y-78900000D01*
X215650000Y-77250000D02*
X215250000Y-77250000D01*
X210100000Y-78900000D02*
X207600000Y-78900000D01*
X214000000Y-79125000D02*
X213700000Y-79425000D01*
X213700000Y-79425000D02*
X210625000Y-79425000D01*
X207600000Y-78900000D02*
X206850000Y-79650000D01*
X214000000Y-78500000D02*
X214000000Y-79125000D01*
%TO.N,Net-(D140-DOUT)*%
X211600000Y-77400000D02*
X212950000Y-78750000D01*
X211600000Y-74000000D02*
X211600000Y-77400000D01*
X210250000Y-72650000D02*
X211600000Y-74000000D01*
%TO.N,Net-(D141-DOUT)*%
X209150000Y-67900000D02*
X209900000Y-68650000D01*
X209900000Y-71575000D02*
X209500000Y-71975000D01*
X209500000Y-72200000D02*
X207550000Y-74150000D01*
X209900000Y-68650000D02*
X209900000Y-71575000D01*
X209500000Y-71975000D02*
X209500000Y-72200000D01*
%TO.N,Net-(D142-DOUT)*%
X207308893Y-62976393D02*
X208058893Y-63726393D01*
X208058893Y-63726393D02*
X208058893Y-67791107D01*
X208058893Y-67791107D02*
X206450000Y-69400000D01*
%TO.N,Net-(D143-DOUT)*%
X203308893Y-58676393D02*
X205858893Y-61226393D01*
X205858893Y-63226393D02*
X204608893Y-64476393D01*
X205858893Y-61226393D02*
X205858893Y-63226393D01*
%TO.N,Net-(D145-DOUT)*%
X194950000Y-58150000D02*
X195250000Y-57850000D01*
X191850000Y-58150000D02*
X194950000Y-58150000D01*
%TO.N,Net-(D146-DOUT)*%
X187323607Y-61476393D02*
X189150000Y-59650000D01*
X186408893Y-61476393D02*
X187323607Y-61476393D01*
D35*
%TO.N,Net-(D147-DOUT)*%
X183708893Y-62976393D02*
X183708893Y-63108893D01*
X183708893Y-63108893D02*
X186850000Y-66250000D01*
%TO.N,Net-(D148-DOUT)*%
X182623607Y-69276393D02*
X184150000Y-67750000D01*
X182208893Y-69276393D02*
X182623607Y-69276393D01*
%TO.N,Net-(D149-DOUT)*%
X179508893Y-71108893D02*
X182650000Y-74250000D01*
X179508893Y-70776393D02*
X179508893Y-71108893D01*
%TO.N,Net-(D150-DOUT)*%
X178450000Y-78050000D02*
X178450000Y-77250000D01*
X178450000Y-77250000D02*
X179950000Y-75750000D01*
%TO.N,Net-(D151-DOUT)*%
X178450000Y-82650000D02*
X175350000Y-79550000D01*
X179350000Y-82650000D02*
X178450000Y-82650000D01*
%TO.N,Net-(D152-DOUT)*%
X176208893Y-84591107D02*
X176650000Y-84150000D01*
X176208893Y-87476393D02*
X176208893Y-84591107D01*
%TO.N,Net-(D153-DOUT)*%
X175408893Y-92376393D02*
X175408893Y-90876393D01*
X175408893Y-90876393D02*
X173508893Y-88976393D01*
%TO.N,Net-(D154-DOUT)*%
X174008893Y-95176393D02*
X172708893Y-93876393D01*
X174008893Y-97176393D02*
X174008893Y-95176393D01*
%TO.N,Net-(D155-DOUT)*%
X171308893Y-98676393D02*
X171308893Y-100258893D01*
X171308893Y-100258893D02*
X173350000Y-102300000D01*
D36*
%TO.N,Net-(D156-DOUT)*%
X180900000Y-69600000D02*
X180900000Y-67900000D01*
X171700000Y-92100000D02*
X172400000Y-91400000D01*
X171300000Y-95760286D02*
X171300000Y-93900000D01*
X171700000Y-93500000D02*
X171700000Y-92100000D01*
X173965119Y-80634881D02*
X174600000Y-80000000D01*
X176498529Y-78800000D02*
X177700000Y-77598529D01*
X180900000Y-67900000D02*
X182200000Y-66600000D01*
X183900000Y-59100000D02*
X184000000Y-59100000D01*
X180400000Y-70100000D02*
X180900000Y-69600000D01*
X174675000Y-78800000D02*
X176498529Y-78800000D01*
X170558893Y-97341107D02*
X170558893Y-96501393D01*
X174600000Y-80000000D02*
X174600000Y-78875000D01*
X190775000Y-52275000D02*
X191450000Y-52950000D01*
X170650000Y-103800000D02*
X169900000Y-103050000D01*
X172400000Y-86800000D02*
X173965119Y-85234881D01*
X177700000Y-77598529D02*
X177700000Y-76300000D01*
X186500000Y-56600000D02*
X186500000Y-53775000D01*
X188000000Y-52275000D02*
X190775000Y-52275000D01*
X171300000Y-93900000D02*
X171700000Y-93500000D01*
X170400000Y-97500000D02*
X170558893Y-97341107D01*
X172400000Y-91400000D02*
X172400000Y-86800000D01*
X174600000Y-78875000D02*
X174675000Y-78800000D01*
X169900000Y-103050000D02*
X169900000Y-101625000D01*
X178700000Y-70160286D02*
X178760286Y-70100000D01*
X178760286Y-70100000D02*
X180400000Y-70100000D01*
X169900000Y-101625000D02*
X170400000Y-101125000D01*
X177700000Y-76300000D02*
X178700000Y-75300000D01*
X182200000Y-66600000D02*
X182200000Y-60800000D01*
X182200000Y-60800000D02*
X183900000Y-59100000D01*
X178700000Y-75300000D02*
X178700000Y-70160286D01*
X184000000Y-59100000D02*
X186500000Y-56600000D01*
X186500000Y-53775000D02*
X188000000Y-52275000D01*
X170400000Y-101125000D02*
X170400000Y-97500000D01*
X173965119Y-85234881D02*
X173965119Y-80634881D01*
X170558893Y-96501393D02*
X171300000Y-95760286D01*
%TO.N,Net-(D157-DOUT)*%
X197450000Y-51150000D02*
X197250000Y-51150000D01*
X195050000Y-53775000D02*
X189425000Y-53775000D01*
X197250000Y-51150000D02*
X195900000Y-52500000D01*
X195900000Y-52500000D02*
X195900000Y-52925000D01*
X195900000Y-52925000D02*
X195050000Y-53775000D01*
X189425000Y-53775000D02*
X188750000Y-54450000D01*
%TO.N,Net-(D158-DOUT)*%
X191675000Y-46400000D02*
X191400000Y-46675000D01*
X191400000Y-46675000D02*
X191400000Y-49300000D01*
X194300000Y-46400000D02*
X191675000Y-46400000D01*
X191400000Y-49300000D02*
X194750000Y-52650000D01*
X195050000Y-47150000D02*
X194300000Y-46400000D01*
%TO.N,Net-(D159-DOUT)*%
X200908893Y-46901393D02*
X199610286Y-48200000D01*
X193625000Y-47975000D02*
X192950000Y-48650000D01*
X200908893Y-46601393D02*
X200908893Y-46901393D01*
X199175000Y-47975000D02*
X193625000Y-47975000D01*
X202133893Y-45376393D02*
X200908893Y-46601393D01*
X202208893Y-45376393D02*
X202133893Y-45376393D01*
X199610286Y-48200000D02*
X199400000Y-48200000D01*
X199400000Y-48200000D02*
X199175000Y-47975000D01*
X192950000Y-48650000D02*
X192350000Y-48650000D01*
%TO.N,Net-(D161-DOUT)*%
X195923607Y-42976393D02*
X195908893Y-42976393D01*
X198625000Y-40175000D02*
X197200000Y-41600000D01*
X197200000Y-41600000D02*
X197200000Y-41700000D01*
X204550000Y-40850000D02*
X203875000Y-40175000D01*
X197200000Y-41700000D02*
X195923607Y-42976393D01*
X203875000Y-40175000D02*
X198625000Y-40175000D01*
%TO.N,Net-(D162-DOUT)*%
X208500000Y-43600000D02*
X208000000Y-44100000D01*
X203600000Y-44100000D02*
X201850000Y-42350000D01*
X210175000Y-41750000D02*
X208500000Y-43425000D01*
X208000000Y-44100000D02*
X203600000Y-44100000D01*
X210250000Y-41750000D02*
X210175000Y-41750000D01*
X208500000Y-43425000D02*
X208500000Y-43600000D01*
%TO.N,Net-(D163-DOUT)*%
X211300000Y-38300000D02*
X211300000Y-39725000D01*
X206800000Y-41075000D02*
X206800000Y-42500000D01*
X206800000Y-42500000D02*
X207550000Y-43250000D01*
X207775000Y-40100000D02*
X206800000Y-41075000D01*
X211300000Y-39725000D02*
X210925000Y-40100000D01*
X210550000Y-37550000D02*
X211300000Y-38300000D01*
X210925000Y-40100000D02*
X207775000Y-40100000D01*
%TO.N,Net-(D164-DOUT)*%
X203350000Y-35900000D02*
X204700000Y-35900000D01*
X204700000Y-35900000D02*
X207850000Y-39050000D01*
%TO.N,Net-(D165-DOUT)*%
X205025000Y-32800000D02*
X202000000Y-35825000D01*
X208908893Y-32076393D02*
X208185286Y-32800000D01*
X202000000Y-35825000D02*
X202000000Y-36050000D01*
X208185286Y-32800000D02*
X205025000Y-32800000D01*
X202000000Y-36050000D02*
X200650000Y-37400000D01*
%TO.N,Net-(D166-DOUT)*%
X214833893Y-33976393D02*
X212958893Y-35851393D01*
X212958893Y-36151393D02*
X212710286Y-36400000D01*
X209032500Y-36400000D02*
X206208893Y-33576393D01*
X212710286Y-36400000D02*
X209032500Y-36400000D01*
X214908893Y-33976393D02*
X214833893Y-33976393D01*
X212958893Y-35851393D02*
X212958893Y-36151393D01*
%TO.N,Net-(D167-DOUT)*%
X211550000Y-28675000D02*
X211550000Y-33350000D01*
X211400000Y-35000000D02*
X211876393Y-35476393D01*
X211550000Y-33350000D02*
X211400000Y-33500000D01*
X211876393Y-35476393D02*
X212208893Y-35476393D01*
X213425000Y-26800000D02*
X211550000Y-28675000D01*
X213500000Y-26800000D02*
X213425000Y-26800000D01*
X211400000Y-33500000D02*
X211400000Y-35000000D01*
%TO.N,Net-(D168-DOUT)*%
X214300000Y-25700000D02*
X213200000Y-25700000D01*
X212300000Y-26800000D02*
X210800000Y-28300000D01*
X214249500Y-25750500D02*
X214300000Y-25700000D01*
X214249500Y-28942000D02*
X214249500Y-25750500D01*
X213200000Y-25700000D02*
X212300000Y-26600000D01*
X216958893Y-30241107D02*
X216900000Y-30300000D01*
X216958893Y-29851393D02*
X216958893Y-30241107D01*
X218908893Y-27976393D02*
X218833893Y-27976393D01*
X216900000Y-30300000D02*
X215607500Y-30300000D01*
X218833893Y-27976393D02*
X216958893Y-29851393D01*
X215607500Y-30300000D02*
X214249500Y-28942000D01*
X212300000Y-26600000D02*
X212300000Y-26800000D01*
%TO.N,Net-(D169-DOUT)*%
X218900000Y-22200000D02*
X218100000Y-23000000D01*
X215475000Y-23000000D02*
X214800000Y-23675000D01*
X218100000Y-23000000D02*
X215475000Y-23000000D01*
X214800000Y-28067500D02*
X216208893Y-29476393D01*
X214800000Y-23675000D02*
X214800000Y-28067500D01*
%TO.N,Net-(D170-DOUT)*%
X222950000Y-25875000D02*
X222725000Y-26100000D01*
X218600000Y-26100000D02*
X216200000Y-23700000D01*
X224900000Y-23700000D02*
X224825000Y-23700000D01*
X222725000Y-26100000D02*
X218600000Y-26100000D01*
X222950000Y-25575000D02*
X222950000Y-25875000D01*
X224825000Y-23700000D02*
X222950000Y-25575000D01*
%TO.N,Net-(D171-DOUT)*%
X225200000Y-16000000D02*
X223200000Y-16000000D01*
X222300000Y-16900000D02*
X222300000Y-21300000D01*
X223450000Y-22450000D02*
X223450000Y-24025000D01*
X222275000Y-25200000D02*
X222200000Y-25200000D01*
X223450000Y-24025000D02*
X222275000Y-25200000D01*
X226250000Y-17050000D02*
X225200000Y-16000000D01*
X223200000Y-16000000D02*
X222300000Y-16900000D01*
X222300000Y-21300000D02*
X223450000Y-22450000D01*
%TO.N,Net-(D172-DOUT)*%
X230800000Y-21575000D02*
X230675000Y-21700000D01*
X230675000Y-21700000D02*
X226700000Y-21700000D01*
X232700000Y-19400000D02*
X230800000Y-21300000D01*
X232750000Y-19400000D02*
X232700000Y-19400000D01*
X230800000Y-21300000D02*
X230800000Y-21575000D01*
X226700000Y-21700000D02*
X223550000Y-18550000D01*
%TO.N,Net-(D173-DOUT)*%
X232900000Y-14400000D02*
X232825000Y-14400000D01*
X231600000Y-18900000D02*
X231450000Y-19050000D01*
X231450000Y-19500000D02*
X230050000Y-20900000D01*
X231600000Y-15625000D02*
X231600000Y-18900000D01*
X232825000Y-14400000D02*
X231600000Y-15625000D01*
X231450000Y-19050000D02*
X231450000Y-19500000D01*
%TO.N,Net-(D174-DOUT)*%
X231500000Y-14600000D02*
X230200000Y-15900000D01*
X234775000Y-11100000D02*
X231500000Y-14375000D01*
X237400000Y-11100000D02*
X234775000Y-11100000D01*
X231500000Y-14375000D02*
X231500000Y-14600000D01*
X238150000Y-10350000D02*
X237400000Y-11100000D01*
%TO.N,Net-(D175-DOUT)*%
X238300000Y-17200000D02*
X238175000Y-17325000D01*
X238300000Y-16925000D02*
X238300000Y-17200000D01*
X238175000Y-17325000D02*
X236700000Y-17325000D01*
X240150000Y-15150000D02*
X240075000Y-15150000D01*
X240075000Y-15150000D02*
X238300000Y-16925000D01*
X235450000Y-16075000D02*
X235450000Y-11850000D01*
X236700000Y-17325000D02*
X235450000Y-16075000D01*
%TO.N,Net-(D177-DOUT)*%
X241800000Y-9300000D02*
X241750000Y-9250000D01*
X241800000Y-13225000D02*
X241800000Y-9300000D01*
X246550000Y-12750000D02*
X245100000Y-14200000D01*
X245100000Y-14825000D02*
X245000000Y-14925000D01*
X243500000Y-14925000D02*
X241800000Y-13225000D01*
X245100000Y-14200000D02*
X245100000Y-14825000D01*
X245000000Y-14925000D02*
X243500000Y-14925000D01*
X246950000Y-12750000D02*
X246550000Y-12750000D01*
%TO.N,Net-(D178-DOUT)*%
X246260286Y-5800000D02*
X245800000Y-6260286D01*
X245800000Y-12700000D02*
X244250000Y-14250000D01*
X248885286Y-5800000D02*
X246260286Y-5800000D01*
X249608893Y-5076393D02*
X248885286Y-5800000D01*
X245800000Y-6260286D02*
X245800000Y-12700000D01*
D38*
%TO.N,Net-(D179-DOUT)*%
X252113261Y-10700000D02*
X247989654Y-6576393D01*
X247989654Y-6576393D02*
X246908893Y-6576393D01*
X252950000Y-10700000D02*
X252113261Y-10700000D01*
D36*
%TO.N,Net-(D180-DOUT)*%
X251050000Y-11400000D02*
X253800000Y-11400000D01*
X253450000Y-6275000D02*
X253450000Y-5050000D01*
X253800000Y-11400000D02*
X253800000Y-6275000D01*
X253725000Y-4775000D02*
X256225000Y-4775000D01*
X253450000Y-5050000D02*
X253725000Y-4775000D01*
X256225000Y-4775000D02*
X256900000Y-4100000D01*
X250250000Y-12200000D02*
X251050000Y-11400000D01*
X253800000Y-6275000D02*
X253450000Y-6275000D01*
D38*
%TO.N,Net-(D181-DOUT)*%
X257900000Y-8450000D02*
X255050000Y-5600000D01*
X255050000Y-5600000D02*
X254200000Y-5600000D01*
X258650000Y-8450000D02*
X257900000Y-8450000D01*
%TO.N,Net-(D182-DOUT)*%
X256675000Y-10675000D02*
X265225000Y-10675000D01*
X265225000Y-10675000D02*
X265800000Y-10100000D01*
X265800000Y-8767500D02*
X264708893Y-7676393D01*
X265800000Y-10100000D02*
X265800000Y-8767500D01*
X256675000Y-10675000D02*
X255950000Y-9950000D01*
%TO.N,Net-(D183-DOUT)*%
X260976393Y-9176393D02*
X262008893Y-9176393D01*
X260800000Y-9000000D02*
X260976393Y-9176393D01*
X264250000Y-5150000D02*
X264250000Y-3750000D01*
X262500000Y-5800000D02*
X263600000Y-5800000D01*
X260800000Y-7500000D02*
X262500000Y-5800000D01*
X263450000Y-2950000D02*
X264250000Y-3750000D01*
X263600000Y-5800000D02*
X264250000Y-5150000D01*
X260800000Y-7500000D02*
X260800000Y-9000000D01*
%TO.N,Net-(D184-DOUT)*%
X263600000Y-1500000D02*
X264700000Y-400000D01*
X264700000Y-400000D02*
X267400000Y-400000D01*
X259800000Y-1800000D02*
X260100000Y-1500000D01*
X260750000Y-4450000D02*
X259800000Y-3500000D01*
X267400000Y-400000D02*
X268350000Y-1350000D01*
X259800000Y-3500000D02*
X259800000Y-1800000D01*
X260100000Y-1500000D02*
X263600000Y-1500000D01*
D35*
%TO.N,Net-(D185-DOUT)*%
X269750000Y-6450000D02*
X266150000Y-2850000D01*
X270350000Y-6450000D02*
X269750000Y-6450000D01*
X266150000Y-2850000D02*
X265650000Y-2850000D01*
D38*
%TO.N,Net-(D186-DOUT)*%
X269100000Y-9400000D02*
X270300000Y-9400000D01*
X270300000Y-9400000D02*
X273850000Y-5850000D01*
X273850000Y-2550000D02*
X273050000Y-1750000D01*
X267650000Y-7950000D02*
X269100000Y-9400000D01*
X273850000Y-5850000D02*
X273850000Y-2550000D01*
D35*
%TO.N,Net-(D187-DOUT)*%
X309800000Y-7600000D02*
X311125000Y-7600000D01*
X309500000Y-13167500D02*
X309500000Y-7900000D01*
X308400000Y-6200000D02*
X306600000Y-4400000D01*
X310008893Y-13676393D02*
X309500000Y-13167500D01*
X311400000Y-7325000D02*
X311400000Y-6475000D01*
X270350000Y-3950000D02*
X270350000Y-3250000D01*
X309500000Y-7900000D02*
X309800000Y-7600000D01*
X308400000Y-6200000D02*
X311125000Y-6200000D01*
X311125000Y-7600000D02*
X311400000Y-7325000D01*
X311400000Y-6475000D02*
X311125000Y-6200000D01*
X270600000Y-4200000D02*
X270350000Y-3950000D01*
%TO.N,Net-(D188-DOUT)*%
X309750000Y-6900000D02*
X310500000Y-6900000D01*
X309100499Y-7549501D02*
X309750000Y-6900000D01*
X309100499Y-13384787D02*
X309100499Y-7549501D01*
X307308893Y-15176393D02*
X309100499Y-13384787D01*
%TO.N,Net-(D193-DOUT)*%
X306800000Y-22500000D02*
X308600000Y-24300000D01*
X306800000Y-21800000D02*
X306800000Y-22500000D01*
X305900000Y-20900000D02*
X306800000Y-21800000D01*
X305900000Y-20800000D02*
X305900000Y-20900000D01*
%TO.N,Net-(D194-DOUT)*%
X303200000Y-22300000D02*
X302700000Y-22300000D01*
X302700000Y-22300000D02*
X301400000Y-21000000D01*
%TO.N,Net-(D195-DOUT)*%
X303225499Y-23300499D02*
X305125000Y-25200000D01*
X298700000Y-22500000D02*
X299500499Y-23300499D01*
X299500499Y-23300499D02*
X303225499Y-23300499D01*
X305125000Y-25200000D02*
X305200000Y-25200000D01*
%TO.N,Net-(D196-DOUT)*%
X297900000Y-24200000D02*
X297000000Y-23300000D01*
X297900000Y-25500000D02*
X297900000Y-24200000D01*
X302500000Y-26700000D02*
X299100000Y-26700000D01*
X297000000Y-23300000D02*
X296600000Y-23300000D01*
X299100000Y-26700000D02*
X297900000Y-25500000D01*
%TO.N,Net-(D197-DOUT)*%
X293900000Y-24800000D02*
X293900000Y-25800000D01*
X293900000Y-25800000D02*
X295400000Y-27300000D01*
%TO.N,Net-(D198-DOUT)*%
X292700000Y-28800000D02*
X292700000Y-30000000D01*
X292700000Y-30000000D02*
X293800000Y-31100000D01*
%TO.N,Net-(D199-DOUT)*%
X300025000Y-28900000D02*
X299225000Y-29700000D01*
X296100000Y-31625000D02*
X295825000Y-31900000D01*
X296100000Y-29923558D02*
X296100000Y-31625000D01*
X291800000Y-31900000D02*
X291100000Y-32600000D01*
X300100000Y-28900000D02*
X300025000Y-28900000D01*
X299225000Y-29700000D02*
X296323558Y-29700000D01*
X296323558Y-29700000D02*
X296100000Y-29923558D01*
X295825000Y-31900000D02*
X291800000Y-31900000D01*
%TO.N,Net-(D200-DOUT)*%
X298400000Y-30400000D02*
X297400000Y-30400000D01*
X300900000Y-32900000D02*
X298400000Y-30400000D01*
%TO.N,Net-(D204-DOUT)*%
X288000000Y-36600000D02*
X288000000Y-40500000D01*
X289325000Y-36200000D02*
X288400000Y-36200000D01*
X288400000Y-36200000D02*
X288000000Y-36600000D01*
X295600000Y-39000000D02*
X295300000Y-39000000D01*
X288000000Y-40500000D02*
X287200000Y-41300000D01*
X290900000Y-38000000D02*
X290000000Y-37100000D01*
X294300000Y-38000000D02*
X290900000Y-38000000D01*
X290000000Y-37100000D02*
X290000000Y-36875000D01*
X290000000Y-36875000D02*
X289325000Y-36200000D01*
X295300000Y-39000000D02*
X294300000Y-38000000D01*
%TO.N,Net-(D205-DOUT)*%
X298000000Y-39800000D02*
X294500000Y-39800000D01*
X294500000Y-39800000D02*
X293800000Y-40500000D01*
X293800000Y-40500000D02*
X292900000Y-40500000D01*
X299300000Y-41100000D02*
X298000000Y-39800000D01*
X300100000Y-41100000D02*
X299300000Y-41100000D01*
%TO.N,Net-(D207-DOUT)*%
X293300000Y-45500000D02*
X289700000Y-45500000D01*
X289700000Y-45500000D02*
X289000000Y-44800000D01*
%TO.N,Net-(D209-DOUT)*%
X289185286Y-51900000D02*
X289908893Y-51176393D01*
X284400000Y-50300000D02*
X286000000Y-51900000D01*
X284400000Y-49500000D02*
X284400000Y-50300000D01*
X286000000Y-51900000D02*
X289185286Y-51900000D01*
%TO.N,Net-(D210-DOUT)*%
X287208893Y-52676393D02*
X287208893Y-54276393D01*
X287208893Y-54276393D02*
X288908893Y-55976393D01*
%TO.N,Net-(D211-DOUT)*%
X286208893Y-57476393D02*
X285176393Y-57476393D01*
X282600000Y-53067500D02*
X281708893Y-52176393D01*
X285176393Y-57476393D02*
X282600000Y-54900000D01*
X282600000Y-54900000D02*
X282600000Y-53067500D01*
%TO.N,Net-(D212-DOUT)*%
X279008893Y-53676393D02*
X279508893Y-53676393D01*
X279508893Y-53676393D02*
X281508893Y-55676393D01*
%TO.N,Net-(D213-DOUT)*%
X281000000Y-56400000D02*
X282000000Y-56400000D01*
X282000000Y-56400000D02*
X284250000Y-58650000D01*
X280223607Y-57176393D02*
X281000000Y-56400000D01*
X278808893Y-57176393D02*
X280223607Y-57176393D01*
%TO.N,Net-(D214-DOUT)*%
X281550000Y-60150000D02*
X282250000Y-59450000D01*
X282025998Y-57800998D02*
X278200998Y-57800998D01*
X282250000Y-59450000D02*
X282250000Y-58025000D01*
X278200998Y-57800998D02*
X277299501Y-56899501D01*
X282250000Y-58025000D02*
X282025998Y-57800998D01*
X277299501Y-55475943D02*
X277124057Y-55300499D01*
X277299501Y-56899501D02*
X277299501Y-55475943D01*
X276325000Y-54750000D02*
X276250000Y-54750000D01*
X277124057Y-55300499D02*
X276875499Y-55300499D01*
X276875499Y-55300499D02*
X276325000Y-54750000D01*
%TO.N,Net-(D215-DOUT)*%
X278099501Y-58799501D02*
X276649501Y-58799501D01*
X280108893Y-59176393D02*
X278476393Y-59176393D01*
X278476393Y-59176393D02*
X278099501Y-58799501D01*
X276649501Y-58799501D02*
X274100000Y-56250000D01*
X274100000Y-56250000D02*
X273550000Y-56250000D01*
%TO.N,Net-(D216-DOUT)*%
X276623607Y-60676393D02*
X275750000Y-61550000D01*
X277408893Y-60676393D02*
X276623607Y-60676393D01*
%TO.N,Net-(D217-DOUT)*%
X272350000Y-62175000D02*
X272350000Y-60350000D01*
X273050000Y-63050000D02*
X273050000Y-62875000D01*
X272350000Y-60350000D02*
X271350000Y-59350000D01*
X273050000Y-62875000D02*
X272350000Y-62175000D01*
%TO.N,Net-(D218-DOUT)*%
X268650000Y-60850000D02*
X269200000Y-60850000D01*
X271150000Y-58350000D02*
X271150000Y-56350000D01*
X271150000Y-56350000D02*
X270450000Y-55650000D01*
X269749501Y-59750499D02*
X271150000Y-58350000D01*
X269749501Y-60300499D02*
X269749501Y-59750499D01*
X269200000Y-60850000D02*
X269749501Y-60300499D01*
%TO.N,Net-(D219-DOUT)*%
X267750000Y-57150000D02*
X265250000Y-54650000D01*
%TO.N,Net-(D221-DOUT)*%
X257750000Y-54950000D02*
X257450000Y-54950000D01*
X257450000Y-54950000D02*
X255450000Y-52950000D01*
%TO.N,Net-(D222-DOUT)*%
X252750000Y-54450000D02*
X252750000Y-54150000D01*
X252750000Y-54150000D02*
X250950000Y-52350000D01*
%TO.N,Net-(D223-DOUT)*%
X248250000Y-53850000D02*
X247050000Y-53850000D01*
X247050000Y-53850000D02*
X246250000Y-53050000D01*
%TO.N,Net-(D225-DOUT)*%
X238182500Y-55050000D02*
X237108893Y-53976393D01*
X238650000Y-55050000D02*
X238182500Y-55050000D01*
%TO.N,Net-(D226-DOUT)*%
X231608893Y-54276393D02*
X233208893Y-54276393D01*
X234408893Y-55476393D02*
X233208893Y-54276393D01*
D36*
%TO.N,Net-(D228-DOUT)*%
X224123607Y-51276393D02*
X224008893Y-51276393D01*
X226050000Y-46350000D02*
X225000000Y-47400000D01*
X225000000Y-47400000D02*
X225000000Y-50400000D01*
X225000000Y-50400000D02*
X224123607Y-51276393D01*
%TO.N,Net-(D229-DOUT)*%
X222600000Y-46000000D02*
X222600000Y-47100000D01*
X222600000Y-47100000D02*
X223350000Y-47850000D01*
X220550000Y-43950000D02*
X222600000Y-46000000D01*
%TO.N,Net-(D230-DOUT)*%
X216158893Y-40826393D02*
X216158893Y-44626393D01*
X216158893Y-44626393D02*
X216982500Y-45450000D01*
X216908893Y-40076393D02*
X216158893Y-40826393D01*
X216982500Y-45450000D02*
X217850000Y-45450000D01*
%TO.N,Net-(D232-DOUT)*%
X224650000Y-60750000D02*
X224650000Y-58217500D01*
X224650000Y-58217500D02*
X223508893Y-57076393D01*
%TO.N,Net-(D233-DOUT)*%
X221950000Y-62250000D02*
X221950000Y-64950000D01*
X221950000Y-64950000D02*
X222850000Y-65850000D01*
%TO.N,Net-(D234-DOUT)*%
X219700000Y-67800000D02*
X220150000Y-67350000D01*
X219700000Y-71800000D02*
X219700000Y-67800000D01*
%TO.N,Net-(D235-DOUT)*%
X217000000Y-78500000D02*
X217000000Y-73300000D01*
X234850000Y-85075000D02*
X234200000Y-85725000D01*
X236150000Y-83550000D02*
X236075000Y-83550000D01*
X216399500Y-79599500D02*
X216399500Y-79100500D01*
X223800000Y-88900000D02*
X223300000Y-89400000D01*
X234850000Y-84775000D02*
X234850000Y-85075000D01*
X234200000Y-85725000D02*
X232325000Y-85725000D01*
X216399500Y-79100500D02*
X217000000Y-78500000D01*
X232300000Y-85700000D02*
X231300000Y-85700000D01*
X236075000Y-83550000D02*
X234850000Y-84775000D01*
X216600000Y-81223761D02*
X216400000Y-81023761D01*
X216400000Y-81023761D02*
X216400000Y-79600000D01*
X216400000Y-79600000D02*
X216399500Y-79599500D01*
X218700000Y-89400000D02*
X216600000Y-87300000D01*
X232325000Y-85725000D02*
X232300000Y-85700000D01*
X231300000Y-85700000D02*
X230600000Y-86400000D01*
X223300000Y-89400000D02*
X218700000Y-89400000D01*
X229600000Y-88900000D02*
X223800000Y-88900000D01*
X216600000Y-87300000D02*
X216600000Y-81223761D01*
X230600000Y-86400000D02*
X230600000Y-87900000D01*
X230600000Y-87900000D02*
X229600000Y-88900000D01*
%TO.N,Net-(D236-DOUT)*%
X233450000Y-85050000D02*
X235400000Y-83100000D01*
X237400000Y-82800000D02*
X237400000Y-86567500D01*
X237400000Y-86567500D02*
X239408893Y-88576393D01*
X235475000Y-82800000D02*
X237400000Y-82800000D01*
X235400000Y-82875000D02*
X235475000Y-82800000D01*
X235400000Y-83100000D02*
X235400000Y-82875000D01*
%TO.N,Net-(D237-DOUT)*%
X238500000Y-84300000D02*
X241300000Y-84300000D01*
X241300000Y-84300000D02*
X242050000Y-83550000D01*
X240158893Y-87758893D02*
X238300000Y-85900000D01*
X238500000Y-89300000D02*
X240110286Y-89300000D01*
X240158893Y-89251393D02*
X240158893Y-87758893D01*
X236708893Y-90076393D02*
X237723607Y-90076393D01*
X238300000Y-84500000D02*
X238500000Y-84300000D01*
X240110286Y-89300000D02*
X240158893Y-89251393D01*
X237723607Y-90076393D02*
X238500000Y-89300000D01*
X238300000Y-85900000D02*
X238300000Y-84500000D01*
%TO.N,Net-(D238-DOUT)*%
X240000000Y-85050000D02*
X244000000Y-89050000D01*
X244000000Y-89050000D02*
X244750000Y-89050000D01*
X239350000Y-85050000D02*
X240000000Y-85050000D01*
%TO.N,Net-(D239-DOUT)*%
X243800000Y-84900000D02*
X243800000Y-84660286D01*
X245500000Y-86600000D02*
X243800000Y-84900000D01*
X242800000Y-89800000D02*
X245425000Y-89800000D01*
X244608893Y-83851393D02*
X247233893Y-83851393D01*
X247233893Y-83851393D02*
X247908893Y-83176393D01*
X242050000Y-90550000D02*
X242800000Y-89800000D01*
X243800000Y-84660286D02*
X244608893Y-83851393D01*
X245500000Y-89725000D02*
X245500000Y-86600000D01*
X245425000Y-89800000D02*
X245500000Y-89725000D01*
%TO.N,Net-(D32-DOUT)*%
X192450000Y-183350000D02*
X192200000Y-183100000D01*
X192450000Y-185050000D02*
X192450000Y-183350000D01*
%TO.N,Net-(D48-DOUT)*%
X242950000Y-196350000D02*
X242800000Y-196500000D01*
X242950000Y-193350000D02*
X242950000Y-196350000D01*
%TO.N,Net-(D64-DOUT)*%
X262300000Y-167325000D02*
X262300000Y-167025000D01*
X260200000Y-168900000D02*
X260600000Y-168500000D01*
X261125000Y-168500000D02*
X262300000Y-167325000D01*
X263525000Y-165800000D02*
X263600000Y-165800000D01*
X262300000Y-167025000D02*
X263525000Y-165800000D01*
X260600000Y-168500000D02*
X261125000Y-168500000D01*
X260200000Y-169385286D02*
X260200000Y-168900000D01*
X258408893Y-171176393D02*
X260200000Y-169385286D01*
%TO.N,Net-(D80-DOUT)*%
X223300000Y-171000000D02*
X226250000Y-173950000D01*
X223300000Y-170700000D02*
X223300000Y-171000000D01*
%TO.N,Net-(D96-DOUT)*%
X235400000Y-136600000D02*
X235400000Y-149125000D01*
X233800000Y-133575000D02*
X233800000Y-135000000D01*
X232600000Y-149700000D02*
X231650000Y-148750000D01*
X233875000Y-133500000D02*
X233800000Y-133575000D01*
X235400000Y-149125000D02*
X234825000Y-149700000D01*
X234825000Y-149700000D02*
X232600000Y-149700000D01*
X236500000Y-133500000D02*
X233875000Y-133500000D01*
X237250000Y-132750000D02*
X236500000Y-133500000D01*
X233800000Y-135000000D02*
X235400000Y-136600000D01*
%TO.N,Net-(D100-DIN)*%
X247133893Y-144801393D02*
X250833893Y-144801393D01*
X250833893Y-144801393D02*
X251508893Y-145476393D01*
X244508893Y-142176393D02*
X247133893Y-144801393D01*
%TO.N,Net-(D112-DOUT)*%
X264008893Y-111876393D02*
X265258893Y-110626393D01*
X265258893Y-110626393D02*
X265258893Y-108976393D01*
X265258893Y-108976393D02*
X263158893Y-106876393D01*
X263158893Y-106876393D02*
X262508893Y-106876393D01*
%TO.N,Net-(D77-DOUT)*%
X221708893Y-153376393D02*
X222632500Y-154300000D01*
X224500000Y-154300000D02*
X228558893Y-158358893D01*
X222632500Y-154300000D02*
X224500000Y-154300000D01*
X228558893Y-159958893D02*
X229250000Y-160650000D01*
X228558893Y-158358893D02*
X228558893Y-159958893D01*
%TO.N,Net-(D144-DOUT)*%
X199858893Y-58258893D02*
X199858893Y-59426393D01*
X199858893Y-59426393D02*
X200608893Y-60176393D01*
X197950000Y-56350000D02*
X199858893Y-58258893D01*
%TO.N,Net-(D160-DOUT)*%
X197200000Y-42500000D02*
X198223607Y-41476393D01*
X199508893Y-46876393D02*
X197200000Y-44567500D01*
X197200000Y-44567500D02*
X197200000Y-42500000D01*
X198223607Y-41476393D02*
X198608893Y-41476393D01*
%TO.N,Net-(D176-DOUT)*%
X241100000Y-8500000D02*
X239400000Y-10200000D01*
X239400000Y-14700000D02*
X237450000Y-16650000D01*
X244450000Y-7750000D02*
X243700000Y-8500000D01*
X243700000Y-8500000D02*
X241100000Y-8500000D01*
X239400000Y-10200000D02*
X239400000Y-14700000D01*
D35*
%TO.N,Net-(D224-DOUT)*%
X243550000Y-54550000D02*
X242350000Y-54550000D01*
X242350000Y-54550000D02*
X241350000Y-53550000D01*
D36*
%TO.N,Net-(D240-DOUT)*%
X252208893Y-88491107D02*
X252208893Y-87991107D01*
X245208893Y-84676393D02*
X249683893Y-89151393D01*
X252208893Y-87991107D02*
X253223607Y-86976393D01*
X251548607Y-89151393D02*
X252208893Y-88491107D01*
X249683893Y-89151393D02*
X251548607Y-89151393D01*
X253223607Y-86976393D02*
X253508893Y-86976393D01*
%TO.N,Net-(D241-DOUT)*%
X252058893Y-87226393D02*
X252058893Y-84001393D01*
X252360286Y-83700000D02*
X254985286Y-83700000D01*
X250808893Y-88476393D02*
X252058893Y-87226393D01*
X252058893Y-84001393D02*
X252360286Y-83700000D01*
X254985286Y-83700000D02*
X255708893Y-82976393D01*
%TO.N,Net-(D242-DOUT)*%
X253008893Y-85051393D02*
X256957500Y-89000000D01*
X260275000Y-86650000D02*
X260350000Y-86650000D01*
X258225000Y-89000000D02*
X258400000Y-88825000D01*
X258400000Y-88825000D02*
X258400000Y-88525000D01*
X258400000Y-88525000D02*
X260275000Y-86650000D01*
X253008893Y-84476393D02*
X253008893Y-85051393D01*
X256957500Y-89000000D02*
X258225000Y-89000000D01*
%TO.N,Net-(D243-DOUT)*%
X258100000Y-83800000D02*
X258848607Y-83051393D01*
X258900000Y-86401471D02*
X258100000Y-85601471D01*
X258100000Y-85601471D02*
X258100000Y-83800000D01*
X261333893Y-83051393D02*
X262008893Y-82376393D01*
X258900000Y-86900000D02*
X258900000Y-86401471D01*
X258848607Y-83051393D02*
X261333893Y-83051393D01*
X257650000Y-88150000D02*
X258900000Y-86900000D01*
%TO.N,Net-(D244-DOUT)*%
X259308893Y-83876393D02*
X261800000Y-86367500D01*
X261800000Y-87825000D02*
X262075000Y-88100000D01*
X262075000Y-88100000D02*
X263025000Y-88100000D01*
X263025000Y-88100000D02*
X263900000Y-87225000D01*
X263900000Y-87225000D02*
X263900000Y-86800000D01*
X265050000Y-85650000D02*
X265250000Y-85650000D01*
X263900000Y-86800000D02*
X265050000Y-85650000D01*
X261800000Y-86367500D02*
X261800000Y-87825000D01*
D38*
%TO.N,Net-(D247-DOUT)*%
X265700000Y-82300000D02*
X265700000Y-80900000D01*
X266200000Y-80400000D02*
X269600000Y-80400000D01*
X269600000Y-80400000D02*
X270800000Y-79200000D01*
X271923607Y-77476393D02*
X272208893Y-77476393D01*
X270800000Y-79200000D02*
X270800000Y-78600000D01*
X265700000Y-80900000D02*
X266200000Y-80400000D01*
X264150000Y-83076393D02*
X264923607Y-83076393D01*
X264923607Y-83076393D02*
X265700000Y-82300000D01*
X270800000Y-78600000D02*
X271923607Y-77476393D01*
D37*
%TO.N,/STBD_LED_1_OUT*%
X189250000Y-97150000D02*
X188019239Y-98380761D01*
X190150000Y-97150000D02*
X189250000Y-97150000D01*
D35*
%TO.N,Net-(JP1-C)*%
X179424264Y-104915076D02*
X183306244Y-104915076D01*
D36*
X187800000Y-100000000D02*
X187800000Y-101300000D01*
D35*
X183306244Y-104915076D02*
X185076085Y-103145235D01*
D36*
X185900000Y-103200000D02*
X185100000Y-103200000D01*
X187800000Y-101300000D02*
X185900000Y-103200000D01*
X187100000Y-99300000D02*
X187800000Y-100000000D01*
D35*
%TO.N,Net-(D136-DOUT)*%
X200876393Y-81576393D02*
X202750000Y-83450000D01*
X200408893Y-81576393D02*
X200876393Y-81576393D01*
D36*
%TO.N,Net-(D76-DOUT)*%
X227650000Y-154350000D02*
X226882500Y-154350000D01*
X226882500Y-154350000D02*
X224408893Y-151876393D01*
%TO.N,Net-(D138-DOUT)*%
X196400000Y-79940750D02*
X196793771Y-80334521D01*
X205435020Y-77000000D02*
X208400000Y-77000000D01*
X196400000Y-79400000D02*
X196400000Y-79940750D01*
X202634521Y-79800499D02*
X205435020Y-77000000D01*
X198385785Y-80334521D02*
X198919807Y-79800499D01*
X192750000Y-81250000D02*
X192675000Y-81250000D01*
X196793771Y-80334521D02*
X198385785Y-80334521D01*
X191800000Y-78600000D02*
X195600000Y-78600000D01*
X195600000Y-78600000D02*
X196400000Y-79400000D01*
X191400000Y-79000000D02*
X191800000Y-78600000D01*
X191400000Y-79975000D02*
X191400000Y-79000000D01*
X198919807Y-79800499D02*
X202634521Y-79800499D01*
X208400000Y-77000000D02*
X209550000Y-78150000D01*
X192675000Y-81250000D02*
X191400000Y-79975000D01*
D35*
%TO.N,Net-(D189-DOUT)*%
X307800000Y-11028619D02*
X306100499Y-12728120D01*
X306100499Y-16667999D02*
X306208893Y-16776393D01*
X306100499Y-12728120D02*
X306100499Y-16667999D01*
X307800000Y-8400000D02*
X307800000Y-11028619D01*
%TO.N,Net-(D191-DOUT)*%
X313800000Y-18700000D02*
X313800000Y-18291107D01*
X313800000Y-18291107D02*
X311708893Y-16200000D01*
%TO.N,Net-(D220-DOUT)*%
X262550000Y-56150000D02*
X261150000Y-54750000D01*
X261150000Y-54150000D02*
X260450000Y-53450000D01*
X261150000Y-54750000D02*
X261150000Y-54150000D01*
%TO.N,Net-(D190-DOUT)*%
X311008893Y-15714665D02*
X311008893Y-16114665D01*
X311008893Y-16114665D02*
X309523558Y-17600000D01*
X313608893Y-15500000D02*
X311223558Y-15500000D01*
X311223558Y-15500000D02*
X311008893Y-15714665D01*
X309523558Y-17600000D02*
X304185286Y-17600000D01*
X304185286Y-17600000D02*
X303508893Y-18276393D01*
X314408893Y-14700000D02*
X313608893Y-15500000D01*
D36*
%TO.N,Net-(D231-DOUT)*%
X222699501Y-52142001D02*
X222699501Y-49734521D01*
X216158893Y-39401393D02*
X216158893Y-40235376D01*
X216158893Y-40235376D02*
X214817876Y-41576393D01*
X226208893Y-55576393D02*
X226133893Y-55576393D01*
X219000000Y-46035020D02*
X219000000Y-40464980D01*
X217936413Y-39401393D02*
X216158893Y-39401393D01*
X214817876Y-41576393D02*
X214208893Y-41576393D01*
X219000000Y-40464980D02*
X217936413Y-39401393D01*
X222699501Y-49734521D02*
X219000000Y-46035020D01*
X226133893Y-55576393D02*
X222699501Y-52142001D01*
D35*
%TO.N,Net-(D192-DOUT)*%
X311100000Y-22600000D02*
X311300000Y-22800000D01*
X311100000Y-20200000D02*
X311100000Y-22600000D01*
%TO.N,Net-(D201-DOUT)*%
X298200000Y-34400000D02*
X298600000Y-34400000D01*
X298600000Y-34400000D02*
X301200000Y-37000000D01*
%TO.N,Net-(D202-DOUT)*%
X292000000Y-35500000D02*
X291500000Y-35500000D01*
X297200000Y-38500000D02*
X294900000Y-36200000D01*
X292700000Y-36200000D02*
X292000000Y-35500000D01*
X298500000Y-38500000D02*
X297200000Y-38500000D01*
X294900000Y-36200000D02*
X292700000Y-36200000D01*
%TO.N,Net-(D203-DOUT)*%
X288800000Y-38700000D02*
X289900000Y-39800000D01*
X288800000Y-37000000D02*
X288800000Y-38700000D01*
%TO.N,Net-(D206-DOUT)*%
X296000000Y-44000000D02*
X297400000Y-42600000D01*
%TO.N,Net-(D208-DOUT)*%
X286300000Y-47200000D02*
X287100000Y-48000000D01*
X286300000Y-46300000D02*
X286300000Y-47200000D01*
D36*
%TO.N,Net-(D248-DOUT)*%
X271600000Y-76600000D02*
X272900000Y-76600000D01*
X271458893Y-76741107D02*
X271600000Y-76600000D01*
X274900000Y-80650000D02*
X275550000Y-80650000D01*
X273100000Y-78850000D02*
X274900000Y-80650000D01*
X271458893Y-77101393D02*
X271458893Y-76741107D01*
X272900000Y-76600000D02*
X273100000Y-76800000D01*
X269583893Y-78976393D02*
X271458893Y-77101393D01*
X269508893Y-78976393D02*
X269583893Y-78976393D01*
X273100000Y-76800000D02*
X273100000Y-78850000D01*
%TO.N,Net-(D227-DOUT)*%
X229643679Y-52507654D02*
X229892346Y-52756321D01*
X226708893Y-49776393D02*
X226783893Y-49776393D01*
X229892346Y-53057326D02*
X230300499Y-53465479D01*
X229892346Y-52756321D02*
X229892346Y-53057326D01*
X230300499Y-53465479D02*
X230300499Y-54384787D01*
X226783893Y-49776393D02*
X229515154Y-52507654D01*
X230300499Y-54384787D02*
X228908893Y-55776393D01*
X229515154Y-52507654D02*
X229643679Y-52507654D01*
%TO.N,Net-(D249-DOUT)*%
X276600000Y-81700000D02*
X278558893Y-79741107D01*
X273700000Y-83000000D02*
X276125000Y-83000000D01*
X272850000Y-82150000D02*
X273700000Y-83000000D01*
X276125000Y-83000000D02*
X276600000Y-82525000D01*
X276600000Y-82525000D02*
X276600000Y-81700000D01*
X278558893Y-79741107D02*
X278558893Y-78326393D01*
X278558893Y-78326393D02*
X277808893Y-77576393D01*
%TO.N,Net-(D245-DOUT)*%
X263800000Y-84500000D02*
X265500000Y-84500000D01*
X263800000Y-85900000D02*
X263800000Y-84500000D01*
X269110286Y-84100000D02*
X271408893Y-81801393D01*
X262550000Y-87150000D02*
X263800000Y-85900000D01*
X271408893Y-81801393D02*
X271408893Y-81576393D01*
X265900000Y-84100000D02*
X269110286Y-84100000D01*
X265500000Y-84500000D02*
X265900000Y-84100000D01*
D38*
%TO.N,Net-(D246-DOUT)*%
X267208893Y-81576393D02*
X268708893Y-83076393D01*
X266850000Y-81576393D02*
X267208893Y-81576393D01*
D36*
%TO.N,Net-(D250-DOUT)*%
X277200000Y-76600000D02*
X278900000Y-76600000D01*
X278900000Y-76600000D02*
X279500000Y-76000000D01*
X279500000Y-75267500D02*
X278408893Y-74176393D01*
X279500000Y-76000000D02*
X279500000Y-75267500D01*
X275108893Y-79076393D02*
X277058893Y-77126393D01*
X277058893Y-77126393D02*
X277058893Y-76741107D01*
X277058893Y-76741107D02*
X277200000Y-76600000D01*
%TO.N,Net-(D251-DOUT)*%
X276532422Y-73501393D02*
X276958893Y-73927864D01*
X274683893Y-73501393D02*
X276532422Y-73501393D01*
X276958893Y-73927864D02*
X276958893Y-74426393D01*
X274308893Y-73876393D02*
X274683893Y-73501393D01*
X276958893Y-74426393D02*
X275708893Y-75676393D01*
D35*
%TO.N,Net-(D252-DOUT)*%
X273923607Y-70076393D02*
X273100000Y-70900000D01*
X273100000Y-73885286D02*
X271608893Y-75376393D01*
X274608893Y-70076393D02*
X273923607Y-70076393D01*
X273100000Y-70900000D02*
X273100000Y-73885286D01*
%TO.N,Net-(D253-DOUT)*%
X271908893Y-71576393D02*
X273700000Y-69785286D01*
X275400000Y-69600000D02*
X275400000Y-72025000D01*
X275775000Y-72400000D02*
X276723558Y-72400000D01*
X278900000Y-70223558D02*
X278900000Y-70000000D01*
X275400000Y-72025000D02*
X275775000Y-72400000D01*
X273848607Y-69451393D02*
X275251393Y-69451393D01*
X276723558Y-72400000D02*
X278900000Y-70223558D01*
X275251393Y-69451393D02*
X275400000Y-69600000D01*
X273700000Y-69785286D02*
X273700000Y-69600000D01*
X273700000Y-69600000D02*
X273848607Y-69451393D01*
%TO.N,Net-(D254-DOUT)*%
X277499501Y-69034521D02*
X278199501Y-69734521D01*
X278199501Y-70500499D02*
X277200000Y-71500000D01*
X277200000Y-71500000D02*
X276200000Y-71500000D01*
X277499501Y-67100499D02*
X277499501Y-69034521D01*
X278200000Y-66400000D02*
X277499501Y-67100499D01*
X278199501Y-69734521D02*
X278199501Y-70500499D01*
%TO.N,Net-(D255-DOUT)*%
X275575000Y-67900000D02*
X276500499Y-66974501D01*
X276200000Y-65700000D02*
X274300000Y-65700000D01*
X276500499Y-66974501D02*
X276500499Y-66000499D01*
X276500499Y-66000499D02*
X276200000Y-65700000D01*
X275500000Y-67900000D02*
X275575000Y-67900000D01*
D36*
%TO.N,Net-(U4-Y)*%
X186180761Y-101262741D02*
X186180761Y-100219239D01*
X185076085Y-102367417D02*
X186180761Y-101262741D01*
D35*
%TO.N,Net-(U2-CH3)*%
X299765000Y-9700000D02*
X299765000Y-10765000D01*
X299765000Y-10765000D02*
X299800000Y-10800000D01*
D36*
%TO.N,Net-(U2-CH0)*%
X295955000Y-9700000D02*
X295955000Y-10955000D01*
X295955000Y-10955000D02*
X296100000Y-11100000D01*
D35*
%TO.N,Net-(U2-CH1)*%
X210966540Y-82000000D02*
X211245569Y-81720971D01*
X206700000Y-82000000D02*
X210966540Y-82000000D01*
X297225000Y-10349376D02*
X297235446Y-10359822D01*
X297225000Y-9700000D02*
X297225000Y-10349376D01*
X204700000Y-80000000D02*
X206700000Y-82000000D01*
%TO.N,Net-(U2-CH2)*%
X298495000Y-10805000D02*
X298200000Y-11100000D01*
X298495000Y-9700000D02*
X298495000Y-10805000D01*
%TO.N,Net-(U2-CH9)*%
X303575000Y-6025000D02*
X303500000Y-6100000D01*
X303575000Y-4700000D02*
X303575000Y-6025000D01*
%TO.N,Net-(U2-CH10)*%
X302300000Y-6200000D02*
X302300000Y-4705000D01*
X302300000Y-4705000D02*
X302305000Y-4700000D01*
%TO.N,Net-(U2-CH11)*%
X301035000Y-5965000D02*
X301000000Y-6000000D01*
X301035000Y-4700000D02*
X301035000Y-5965000D01*
%TO.N,Net-(U2-CH7)*%
X304845000Y-11445000D02*
X304900000Y-11500000D01*
X304845000Y-9700000D02*
X304845000Y-11445000D01*
%TO.N,Net-(U2-CH6)*%
X303575000Y-9700000D02*
X303500000Y-9775000D01*
X303500000Y-9775000D02*
X303500000Y-11100000D01*
%TO.N,Net-(U2-CH5)*%
X302305000Y-10995000D02*
X302305000Y-9700000D01*
X302200000Y-11100000D02*
X302305000Y-10995000D01*
%TO.N,Net-(U2-CH4)*%
X301035000Y-9700000D02*
X300900000Y-9835000D01*
X300900000Y-9835000D02*
X300900000Y-11100000D01*
%TD*%
M02*
