%TF.GenerationSoftware,KiCad,Pcbnew,(6.99.0-3809-g2741d0eb4b)*%
%TF.CreationDate,2022-10-14T18:55:28-04:00*%
%TF.ProjectId,ButterflyBadge,42757474-6572-4666-9c79-42616467652e,rev?*%
%TF.SameCoordinates,Original*%
%TF.FileFunction,Plated,1,4,PTH,Mixed*%
%TF.FilePolarity,Positive*%
%FSLAX46Y46*%
G04 Gerber Fmt 4.6, Leading zero omitted, Abs format (unit mm)*
G04 Created by KiCad (PCBNEW (6.99.0-3809-g2741d0eb4b)) date 2022-10-14 18:55:28*
%MOMM*%
%LPD*%
G01*
G04 APERTURE LIST*
%TA.AperFunction,ComponentDrill*%
%ADD10C,0.200000*%
%TD*%
%TA.AperFunction,ViaDrill*%
%ADD11C,0.210000*%
%TD*%
%TA.AperFunction,ComponentDrill*%
%ADD12C,0.300000*%
%TD*%
%TA.AperFunction,ViaDrill*%
%ADD13C,0.500000*%
%TD*%
G04 aperture for slot hole*
%TA.AperFunction,ComponentDrill*%
%ADD14O,0.600000X1.200000*%
%TD*%
G04 aperture for slot hole*
%TA.AperFunction,ComponentDrill*%
%ADD15O,0.600000X1.700000*%
%TD*%
%TA.AperFunction,ComponentDrill*%
%ADD16C,0.650000*%
%TD*%
%TA.AperFunction,ComponentDrill*%
%ADD17C,0.890000*%
%TD*%
%TA.AperFunction,ComponentDrill*%
%ADD18C,1.000000*%
%TD*%
%TA.AperFunction,ComponentDrill*%
%ADD19C,2.000000*%
%TD*%
G04 APERTURE END LIST*
D10*
%TO.C,U4*%
X199375000Y-123300000D03*
X199375000Y-124700000D03*
X200575000Y-123300000D03*
X200575000Y-124700000D03*
X201775000Y-123300000D03*
X201775000Y-124700000D03*
%TD*%
D11*
X184500000Y-73700000D03*
X184600000Y-74400000D03*
X184600000Y-83100000D03*
X184879001Y-75038742D03*
X185318470Y-75461070D03*
X186000000Y-70700000D03*
X186100000Y-78000000D03*
X186400000Y-68600000D03*
X186500000Y-63000000D03*
X186911051Y-75448000D03*
X187030854Y-76450946D03*
X187100000Y-63300000D03*
X187300000Y-59500000D03*
X187400000Y-75900000D03*
X187400000Y-77100000D03*
X187432658Y-90767342D03*
X187436997Y-68753844D03*
X187642594Y-62342594D03*
X187645984Y-79994266D03*
X187700000Y-84000000D03*
X187803000Y-122495000D03*
X187900000Y-117300000D03*
X187994649Y-77397631D03*
X188200000Y-103400000D03*
X188257233Y-79965999D03*
X188287573Y-79357114D03*
X188300000Y-63900000D03*
X188424500Y-107400000D03*
X188500000Y-100800000D03*
X188500000Y-128300000D03*
X188600000Y-65500000D03*
X189111361Y-77451592D03*
X189285500Y-84500000D03*
X189300000Y-117200000D03*
X189400000Y-75000000D03*
X189686498Y-77249824D03*
X189700000Y-69300000D03*
X189737500Y-86650000D03*
X189900000Y-124300000D03*
X189945500Y-82946017D03*
X190000000Y-70700000D03*
X190000000Y-108700000D03*
X190200000Y-85400000D03*
X190352000Y-80800000D03*
X190400000Y-87700000D03*
X190500000Y-72400000D03*
X190590498Y-77199707D03*
X190600000Y-107600000D03*
X190859500Y-106983776D03*
X191100000Y-103600000D03*
X191200000Y-61700000D03*
X191200000Y-72400000D03*
X191200000Y-77200000D03*
X191290497Y-107600000D03*
X191291905Y-83009788D03*
X191300000Y-81297000D03*
X191500000Y-83600000D03*
X191680240Y-82540013D03*
X191700000Y-122800000D03*
X191768350Y-107001593D03*
X191900000Y-89000000D03*
X191900000Y-96400000D03*
X191900000Y-107600000D03*
X192000000Y-55800000D03*
X192072143Y-72272143D03*
X192096329Y-132710743D03*
X192100000Y-74900000D03*
X192100000Y-77400000D03*
X192100000Y-85800000D03*
X192300000Y-73900000D03*
X192401499Y-82622047D03*
X192612951Y-81668665D03*
X192700000Y-127500000D03*
X192751673Y-78948000D03*
X192752000Y-106988949D03*
X192815500Y-112719956D03*
X193000000Y-62000000D03*
X193200000Y-61200000D03*
X193200000Y-126800000D03*
X193506537Y-103889335D03*
X193565001Y-71700000D03*
X193600000Y-83500000D03*
X193615500Y-98681965D03*
X193690000Y-89110000D03*
X193700000Y-78900000D03*
X193900000Y-50284500D03*
X194000000Y-82300000D03*
X194000000Y-103400000D03*
X194000000Y-107100000D03*
X194000000Y-126800000D03*
X194014388Y-79479486D03*
X194017198Y-70989523D03*
X194100000Y-55900000D03*
X194100000Y-73900000D03*
X194200000Y-83900000D03*
X194392422Y-79001382D03*
X194661913Y-74201138D03*
X194700000Y-49800000D03*
X194700000Y-76700000D03*
X194800000Y-57200000D03*
X194826694Y-78573712D03*
X195000000Y-56100000D03*
X195800000Y-49800000D03*
X195800000Y-70100000D03*
X195900000Y-101600000D03*
X196000000Y-56000000D03*
X196000000Y-78300000D03*
X196100000Y-125800000D03*
X196500000Y-105895498D03*
X196506416Y-65324699D03*
X196510718Y-74652000D03*
X196800000Y-58200000D03*
X196800000Y-116100000D03*
X196900000Y-72200000D03*
X197100000Y-55800000D03*
X197100000Y-89200000D03*
X197100000Y-126700000D03*
X197200000Y-83800000D03*
X197400000Y-77700000D03*
X197600000Y-82900000D03*
X197900000Y-121500000D03*
X197980387Y-82280387D03*
X198000000Y-58200000D03*
X198000000Y-70700000D03*
X198600000Y-111900000D03*
X198900000Y-130200000D03*
X199300000Y-105300000D03*
X199600000Y-82900000D03*
X199800000Y-132300000D03*
X199940000Y-127460000D03*
X200039068Y-55123153D03*
X200200000Y-79000000D03*
X200700000Y-72100000D03*
X200700000Y-76800000D03*
X200900000Y-130700000D03*
X201100000Y-52800000D03*
X201600000Y-58700000D03*
X202100000Y-62000000D03*
X202100000Y-80500000D03*
X202300000Y-48900000D03*
X202400000Y-107100000D03*
X202800000Y-67500000D03*
X203100000Y-77700000D03*
X203400000Y-52300000D03*
X203600000Y-50800000D03*
X203669330Y-55700000D03*
X203700000Y-60100000D03*
X203900000Y-54052000D03*
X205005502Y-56057603D03*
X205700000Y-53400000D03*
X205800000Y-54100000D03*
X205800000Y-83300000D03*
X206500000Y-52500000D03*
X207600000Y-54100000D03*
D12*
%TO.C,AE1*%
X195885313Y-98295688D03*
%TD*%
D13*
X190000000Y-110100000D03*
X198600000Y-56500000D03*
D14*
%TO.C,J1*%
X190979999Y-49549999D03*
D15*
X190979999Y-53729999D03*
D14*
X199619999Y-49549999D03*
D15*
X199619999Y-53729999D03*
D16*
%TO.C,J4*%
X193495000Y-80220000D03*
X193495000Y-90380000D03*
X194765000Y-80220000D03*
X194765000Y-90380000D03*
X196035000Y-80220000D03*
X196035000Y-90380000D03*
X197305000Y-80220000D03*
X197305000Y-90380000D03*
D17*
%TO.C,SW3*%
X192720000Y-135210000D03*
X192720000Y-140290000D03*
X195260000Y-135210000D03*
X197800000Y-135210000D03*
X197800000Y-140290000D03*
D18*
%TO.C,M1*%
X190250000Y-94525000D03*
X192750000Y-94525000D03*
D19*
%TO.C,BT1*%
X195300000Y-60000000D03*
X195300000Y-132000000D03*
M02*
