%TF.GenerationSoftware,KiCad,Pcbnew,(6.99.0-3809-g2741d0eb4b)*%
%TF.CreationDate,2022-10-14T22:06:07-04:00*%
%TF.ProjectId,ButterflyBadge,42757474-6572-4666-9c79-42616467652e,rev?*%
%TF.SameCoordinates,Original*%
%TF.FileFunction,Profile,NP*%
%FSLAX46Y46*%
G04 Gerber Fmt 4.6, Leading zero omitted, Abs format (unit mm)*
G04 Created by KiCad (PCBNEW (6.99.0-3809-g2741d0eb4b)) date 2022-10-14 22:06:07*
%MOMM*%
%LPD*%
G01*
G04 APERTURE LIST*
%TA.AperFunction,Profile*%
%ADD10C,0.384999*%
%TD*%
G04 APERTURE END LIST*
D10*
X186443001Y-57429936D02*
X187095424Y-57704578D01*
X185841357Y-57153020D02*
X186443001Y-57429936D01*
X185289021Y-56874176D02*
X185841357Y-57153020D01*
X184784525Y-56593751D02*
X185289021Y-56874176D01*
X184326398Y-56312093D02*
X184784525Y-56593751D01*
X183913171Y-56029549D02*
X184326398Y-56312093D01*
X183543374Y-55746465D02*
X183913171Y-56029549D01*
X183215537Y-55463190D02*
X183543374Y-55746465D01*
X182928191Y-55180070D02*
X183215537Y-55463190D01*
X182679866Y-54897453D02*
X182928191Y-55180070D01*
X182469091Y-54615685D02*
X182679866Y-54897453D01*
X182294398Y-54335115D02*
X182469091Y-54615685D01*
X182154317Y-54056089D02*
X182294398Y-54335115D01*
X182047377Y-53778954D02*
X182154317Y-54056089D01*
X181972110Y-53504057D02*
X182047377Y-53778954D01*
X181927045Y-53231747D02*
X181972110Y-53504057D01*
X181910713Y-52962369D02*
X181927045Y-53231747D01*
X181921644Y-52696271D02*
X181910713Y-52962369D01*
X181958368Y-52433801D02*
X181921644Y-52696271D01*
X182019415Y-52175305D02*
X181958368Y-52433801D01*
X182103317Y-51921131D02*
X182019415Y-52175305D01*
X182208602Y-51671626D02*
X182103317Y-51921131D01*
X182333802Y-51427137D02*
X182208602Y-51671626D01*
X182477447Y-51188012D02*
X182333802Y-51427137D01*
X182638066Y-50954597D02*
X182477447Y-51188012D01*
X182814191Y-50727240D02*
X182638066Y-50954597D01*
X183004351Y-50506287D02*
X182814191Y-50727240D01*
X183207076Y-50292087D02*
X183004351Y-50506287D01*
X183420898Y-50084986D02*
X183207076Y-50292087D01*
X183644346Y-49885332D02*
X183420898Y-50084986D01*
X184114242Y-49509751D02*
X183644346Y-49885332D01*
X184114242Y-49509751D02*
X184114242Y-49509751D01*
X184606829Y-49167313D02*
X184114242Y-49509751D01*
X185119460Y-48856742D02*
X184606829Y-49167313D01*
X185651314Y-48575957D02*
X185119460Y-48856742D01*
X186201566Y-48322871D02*
X185651314Y-48575957D01*
X186769395Y-48095401D02*
X186201566Y-48322871D01*
X187353975Y-47891463D02*
X186769395Y-48095401D01*
X187954485Y-47708973D02*
X187353975Y-47891463D01*
X188570101Y-47545846D02*
X187954485Y-47708973D01*
X189200000Y-47400000D02*
X188570101Y-47545846D01*
X189843358Y-47269348D02*
X189200000Y-47400000D01*
X191167162Y-47045296D02*
X189843358Y-47269348D01*
X192534927Y-46857017D02*
X191167162Y-47045296D01*
X193940067Y-46687837D02*
X192534927Y-46857017D01*
X193940067Y-46687837D02*
X193940067Y-46687837D01*
X193940067Y-46254285D02*
X193940067Y-46687837D01*
X193940067Y-46254285D02*
X193940067Y-46254285D01*
X195380750Y-46254285D02*
X193940067Y-46254285D01*
X195380750Y-46254285D02*
X195380750Y-46254285D01*
X196821431Y-46254285D02*
X195380750Y-46254285D01*
X196821431Y-46254285D02*
X196821431Y-46254285D01*
X196821431Y-46687837D02*
X196821431Y-46254285D01*
X196821431Y-46687837D02*
X196821431Y-46687837D01*
X198226571Y-46857017D02*
X196821431Y-46687837D01*
X199594336Y-47045296D02*
X198226571Y-46857017D01*
X200262145Y-47151809D02*
X199594336Y-47045296D01*
X200918140Y-47269348D02*
X200262145Y-47151809D01*
X201561498Y-47400000D02*
X200918140Y-47269348D01*
X202191397Y-47545846D02*
X201561498Y-47400000D01*
X202807013Y-47708973D02*
X202191397Y-47545846D01*
X203407523Y-47891463D02*
X202807013Y-47708973D01*
X203992104Y-48095401D02*
X203407523Y-47891463D01*
X204559932Y-48322871D02*
X203992104Y-48095401D01*
X205110184Y-48575957D02*
X204559932Y-48322871D01*
X205642038Y-48856742D02*
X205110184Y-48575957D01*
X206154669Y-49167313D02*
X205642038Y-48856742D01*
X206647256Y-49509751D02*
X206154669Y-49167313D01*
X206647256Y-49509751D02*
X206647256Y-49509751D01*
X207117152Y-49885332D02*
X206647256Y-49509751D01*
X207554422Y-50292087D02*
X207117152Y-49885332D01*
X207947307Y-50727240D02*
X207554422Y-50292087D01*
X208123432Y-50954597D02*
X207947307Y-50727240D01*
X208284052Y-51188012D02*
X208123432Y-50954597D01*
X208427696Y-51427137D02*
X208284052Y-51188012D01*
X208552896Y-51671626D02*
X208427696Y-51427137D01*
X208658182Y-51921131D02*
X208552896Y-51671626D01*
X208742083Y-52175305D02*
X208658182Y-51921131D01*
X208803131Y-52433801D02*
X208742083Y-52175305D01*
X208839855Y-52696271D02*
X208803131Y-52433801D01*
X208850786Y-52962369D02*
X208839855Y-52696271D01*
X208834454Y-53231747D02*
X208850786Y-52962369D01*
X208789389Y-53504057D02*
X208834454Y-53231747D01*
X208714121Y-53778954D02*
X208789389Y-53504057D01*
X208607182Y-54056089D02*
X208714121Y-53778954D01*
X208467101Y-54335115D02*
X208607182Y-54056089D01*
X208292408Y-54615685D02*
X208467101Y-54335115D01*
X208081633Y-54897453D02*
X208292408Y-54615685D01*
X207833308Y-55180070D02*
X208081633Y-54897453D01*
X207545961Y-55463190D02*
X207833308Y-55180070D01*
X207218124Y-55746465D02*
X207545961Y-55463190D01*
X206848327Y-56029549D02*
X207218124Y-55746465D01*
X206435100Y-56312093D02*
X206848327Y-56029549D01*
X205976973Y-56593751D02*
X206435100Y-56312093D01*
X205472477Y-56874176D02*
X205976973Y-56593751D01*
X204920142Y-57153020D02*
X205472477Y-56874176D01*
X204318497Y-57429936D02*
X204920142Y-57153020D01*
X203666074Y-57704578D02*
X204318497Y-57429936D01*
X203666074Y-57704578D02*
X203666074Y-57704578D01*
X204161051Y-58746976D02*
X203666074Y-57704578D01*
X204610957Y-59770623D02*
X204161051Y-58746976D01*
X205018237Y-60780457D02*
X204610957Y-59770623D01*
X205385335Y-61781416D02*
X205018237Y-60780457D01*
X205714697Y-62778441D02*
X205385335Y-61781416D01*
X206008766Y-63776470D02*
X205714697Y-62778441D01*
X206269988Y-64780443D02*
X206008766Y-63776470D01*
X206500808Y-65795299D02*
X206269988Y-64780443D01*
X206703670Y-66825976D02*
X206500808Y-65795299D01*
X206881019Y-67877415D02*
X206703670Y-66825976D01*
X207035300Y-68954554D02*
X206881019Y-67877415D01*
X207168957Y-70062332D02*
X207035300Y-68954554D01*
X207384180Y-72389564D02*
X207168957Y-70062332D01*
X207546245Y-74898623D02*
X207384180Y-72389564D01*
X207546245Y-74898623D02*
X207546245Y-74898623D01*
X208849370Y-74898623D02*
X207546245Y-74898623D01*
X208849370Y-74898623D02*
X208849370Y-74898623D01*
X208849370Y-79642167D02*
X208849370Y-74898623D01*
X208849370Y-79642167D02*
X208849370Y-79642167D01*
X207307319Y-79642167D02*
X208849370Y-79642167D01*
X207307319Y-79642167D02*
X207307319Y-79642167D01*
X207251807Y-80640987D02*
X207307319Y-79642167D01*
X207176296Y-81618274D02*
X207251807Y-80640987D01*
X207082177Y-82573358D02*
X207176296Y-81618274D01*
X206970838Y-83505569D02*
X207082177Y-82573358D01*
X206843669Y-84414238D02*
X206970838Y-83505569D01*
X206702061Y-85298695D02*
X206843669Y-84414238D01*
X206547403Y-86158270D02*
X206702061Y-85298695D01*
X206381085Y-86992292D02*
X206547403Y-86158270D01*
X206204496Y-87800093D02*
X206381085Y-86992292D01*
X206019027Y-88581002D02*
X206204496Y-87800093D01*
X205627007Y-90059466D02*
X206019027Y-88581002D01*
X205216143Y-91422325D02*
X205627007Y-90059466D01*
X204797553Y-92664220D02*
X205216143Y-91422325D01*
X204382356Y-93779793D02*
X204797553Y-92664220D01*
X203981670Y-94763684D02*
X204382356Y-93779793D01*
X203606614Y-95610536D02*
X203981670Y-94763684D01*
X203268305Y-96314989D02*
X203606614Y-95610536D01*
X202977863Y-96871684D02*
X203268305Y-96314989D01*
X202746406Y-97275263D02*
X202977863Y-96871684D01*
X202585052Y-97520366D02*
X202746406Y-97275263D01*
X202504919Y-97601636D02*
X202585052Y-97520366D01*
X202504919Y-97601636D02*
X202504919Y-97601636D01*
X202679387Y-98312502D02*
X202504919Y-97601636D01*
X202841886Y-99035530D02*
X202679387Y-98312502D01*
X203132868Y-100503757D02*
X202841886Y-99035530D01*
X203381657Y-101977680D02*
X203132868Y-100503757D01*
X203592040Y-103428664D02*
X203381657Y-101977680D01*
X203767809Y-104828075D02*
X203592040Y-103428664D01*
X203912752Y-106147278D02*
X203767809Y-104828075D01*
X204125319Y-108430516D02*
X203912752Y-106147278D01*
X204125319Y-108430516D02*
X204125319Y-108430516D01*
X204200297Y-109347235D02*
X204125319Y-108430516D01*
X204258250Y-110128920D02*
X204200297Y-109347235D01*
X204301610Y-110806653D02*
X204258250Y-110128920D01*
X204332810Y-111411516D02*
X204301610Y-110806653D01*
X204354281Y-111974588D02*
X204332810Y-111411516D01*
X204368456Y-112526953D02*
X204354281Y-111974588D01*
X204384645Y-113723880D02*
X204368456Y-112526953D01*
X204384645Y-113723880D02*
X204384645Y-113723880D01*
X208849370Y-113723880D02*
X204384645Y-113723880D01*
X208849370Y-113723880D02*
X208849370Y-113723880D01*
X208849370Y-117075443D02*
X208849370Y-113723880D01*
X208849370Y-117075443D02*
X208849370Y-117075443D01*
X204400187Y-117075443D02*
X208849370Y-117075443D01*
X204400187Y-117075443D02*
X204400187Y-117075443D01*
X204267324Y-119369925D02*
X204400187Y-117075443D01*
X204110286Y-121509333D02*
X204267324Y-119369925D01*
X203930850Y-123500113D02*
X204110286Y-121509333D01*
X203730795Y-125348710D02*
X203930850Y-123500113D01*
X203511896Y-127061569D02*
X203730795Y-125348710D01*
X203275932Y-128645135D02*
X203511896Y-127061569D01*
X203024681Y-130105855D02*
X203275932Y-128645135D01*
X202759920Y-131450173D02*
X203024681Y-130105855D01*
X202483426Y-132684535D02*
X202759920Y-131450173D01*
X202196978Y-133815387D02*
X202483426Y-132684535D01*
X201902351Y-134849173D02*
X202196978Y-133815387D01*
X201601325Y-135792339D02*
X201902351Y-134849173D01*
X201295677Y-136651330D02*
X201601325Y-135792339D01*
X200987183Y-137432593D02*
X201295677Y-136651330D01*
X200677623Y-138142571D02*
X200987183Y-137432593D01*
X200368772Y-138787711D02*
X200677623Y-138142571D01*
X200368772Y-138787711D02*
X200368772Y-138787711D01*
X200215154Y-139087908D02*
X200368772Y-138787711D01*
X200062289Y-139373875D02*
X200215154Y-139087908D01*
X199910309Y-139645980D02*
X200062289Y-139373875D01*
X199759346Y-139904590D02*
X199910309Y-139645980D01*
X199609532Y-140150075D02*
X199759346Y-139904590D01*
X199460997Y-140382801D02*
X199609532Y-140150075D01*
X199313875Y-140603137D02*
X199460997Y-140382801D01*
X199168296Y-140811452D02*
X199313875Y-140603137D01*
X199024392Y-141008113D02*
X199168296Y-140811452D01*
X198882295Y-141193488D02*
X199024392Y-141008113D01*
X198742136Y-141367945D02*
X198882295Y-141193488D01*
X198604048Y-141531852D02*
X198742136Y-141367945D01*
X198468161Y-141685578D02*
X198604048Y-141531852D01*
X198334607Y-141829490D02*
X198468161Y-141685578D01*
X198203519Y-141963957D02*
X198334607Y-141829490D01*
X198075027Y-142089346D02*
X198203519Y-141963957D01*
X197826360Y-142314364D02*
X198075027Y-142089346D01*
X197589659Y-142507489D02*
X197826360Y-142314364D01*
X197365978Y-142671665D02*
X197589659Y-142507489D01*
X197156370Y-142809837D02*
X197365978Y-142671665D01*
X196961888Y-142924948D02*
X197156370Y-142809837D01*
X196783585Y-143019945D02*
X196961888Y-142924948D01*
X196622515Y-143097770D02*
X196783585Y-143019945D01*
X196479730Y-143161368D02*
X196622515Y-143097770D01*
X196479730Y-143161368D02*
X196479730Y-143161368D01*
X196479730Y-143702027D02*
X196479730Y-143161368D01*
X196479730Y-143702027D02*
X196479730Y-143702027D01*
X195380750Y-143702027D02*
X196479730Y-143702027D01*
X195380750Y-143702027D02*
X195380750Y-143702027D01*
X194281768Y-143702027D02*
X195380750Y-143702027D01*
X194281768Y-143702027D02*
X194281768Y-143702027D01*
X194281768Y-143161368D02*
X194281768Y-143702027D01*
X194281768Y-143161368D02*
X194281768Y-143161368D01*
X193977913Y-143019945D02*
X194281768Y-143161368D01*
X193799610Y-142924948D02*
X193977913Y-143019945D01*
X193605128Y-142809837D02*
X193799610Y-142924948D01*
X193395520Y-142671665D02*
X193605128Y-142809837D01*
X193171839Y-142507489D02*
X193395520Y-142671665D01*
X192935139Y-142314364D02*
X193171839Y-142507489D01*
X192686471Y-142089346D02*
X192935139Y-142314364D01*
X192426891Y-141829490D02*
X192686471Y-142089346D01*
X192157451Y-141531852D02*
X192426891Y-141829490D01*
X191879203Y-141193488D02*
X192157451Y-141531852D01*
X191593202Y-140811452D02*
X191879203Y-141193488D01*
X191300501Y-140382801D02*
X191593202Y-140811452D01*
X191002152Y-139904590D02*
X191300501Y-140382801D01*
X190699209Y-139373875D02*
X191002152Y-139904590D01*
X190392726Y-138787711D02*
X190699209Y-139373875D01*
X190392726Y-138787711D02*
X190392726Y-138787711D01*
X189774314Y-137432593D02*
X190392726Y-138787711D01*
X189160172Y-135792339D02*
X189774314Y-137432593D01*
X188564520Y-133815387D02*
X189160172Y-135792339D01*
X188001578Y-131450173D02*
X188564520Y-133815387D01*
X187485565Y-128645135D02*
X188001578Y-131450173D01*
X187030704Y-125348710D02*
X187485565Y-128645135D01*
X186651212Y-121509333D02*
X187030704Y-125348710D01*
X186361312Y-117075443D02*
X186651212Y-121509333D01*
X186361312Y-117075443D02*
X186361312Y-117075443D01*
X181912128Y-117075443D02*
X186361312Y-117075443D01*
X181912128Y-117075443D02*
X181912128Y-117075443D01*
X181912128Y-113723880D02*
X181912128Y-117075443D01*
X181912128Y-113723880D02*
X181912128Y-113723880D01*
X186376852Y-113723880D02*
X181912128Y-113723880D01*
X186376852Y-113723880D02*
X186376852Y-113723880D01*
X186393042Y-112526953D02*
X186376852Y-113723880D01*
X186428688Y-111411516D02*
X186393042Y-112526953D01*
X186459888Y-110806653D02*
X186428688Y-111411516D01*
X186503248Y-110128920D02*
X186459888Y-110806653D01*
X186636178Y-108430516D02*
X186503248Y-110128920D01*
X186636178Y-108430516D02*
X186636178Y-108430516D01*
X186848746Y-106147278D02*
X186636178Y-108430516D01*
X186993689Y-104828075D02*
X186848746Y-106147278D01*
X187169458Y-103428664D02*
X186993689Y-104828075D01*
X187379841Y-101977680D02*
X187169458Y-103428664D01*
X187628629Y-100503757D02*
X187379841Y-101977680D01*
X187919612Y-99035530D02*
X187628629Y-100503757D01*
X188256579Y-97601636D02*
X187919612Y-99035530D01*
X188256579Y-97601636D02*
X188256579Y-97601636D01*
X188015092Y-97275263D02*
X188256579Y-97601636D01*
X187493193Y-96314989D02*
X188015092Y-97275263D01*
X186779828Y-94763684D02*
X187493193Y-96314989D01*
X185963945Y-92664220D02*
X186779828Y-94763684D01*
X185545355Y-91422325D02*
X185963945Y-92664220D01*
X185134491Y-90059466D02*
X185545355Y-91422325D01*
X184742471Y-88581002D02*
X185134491Y-90059466D01*
X184380414Y-86992292D02*
X184742471Y-88581002D01*
X184059438Y-85298695D02*
X184380414Y-86992292D01*
X183790661Y-83505569D02*
X184059438Y-85298695D01*
X183585202Y-81618274D02*
X183790661Y-83505569D01*
X183454180Y-79642167D02*
X183585202Y-81618274D01*
X183454180Y-79642167D02*
X183454180Y-79642167D01*
X181912128Y-79642167D02*
X183454180Y-79642167D01*
X181912128Y-79642167D02*
X181912128Y-79642167D01*
X181912128Y-74898623D02*
X181912128Y-79642167D01*
X181912128Y-74898623D02*
X181912128Y-74898623D01*
X183215253Y-74898623D02*
X181912128Y-74898623D01*
X183215253Y-74898623D02*
X183215253Y-74898623D01*
X183377318Y-72389564D02*
X183215253Y-74898623D01*
X183592541Y-70062332D02*
X183377318Y-72389564D01*
X183726198Y-68954554D02*
X183592541Y-70062332D01*
X183880479Y-67877415D02*
X183726198Y-68954554D01*
X184057828Y-66825976D02*
X183880479Y-67877415D01*
X184260690Y-65795299D02*
X184057828Y-66825976D01*
X184491510Y-64780443D02*
X184260690Y-65795299D01*
X184752732Y-63776470D02*
X184491510Y-64780443D01*
X185046802Y-62778441D02*
X184752732Y-63776470D01*
X185376163Y-61781416D02*
X185046802Y-62778441D01*
X185743262Y-60780457D02*
X185376163Y-61781416D01*
X186150542Y-59770623D02*
X185743262Y-60780457D01*
X186600447Y-58746976D02*
X186150542Y-59770623D01*
X187095424Y-57704578D02*
X186600447Y-58746976D01*
M02*
