%TF.GenerationSoftware,KiCad,Pcbnew,(6.99.0-3809-g2741d0eb4b)*%
%TF.CreationDate,2022-10-14T18:55:23-04:00*%
%TF.ProjectId,ButterflyBadge,42757474-6572-4666-9c79-42616467652e,rev?*%
%TF.SameCoordinates,Original*%
%TF.FileFunction,Paste,Top*%
%TF.FilePolarity,Positive*%
%FSLAX46Y46*%
G04 Gerber Fmt 4.6, Leading zero omitted, Abs format (unit mm)*
G04 Created by KiCad (PCBNEW (6.99.0-3809-g2741d0eb4b)) date 2022-10-14 18:55:23*
%MOMM*%
%LPD*%
G01*
G04 APERTURE LIST*
G04 Aperture macros list*
%AMRoundRect*
0 Rectangle with rounded corners*
0 $1 Rounding radius*
0 $2 $3 $4 $5 $6 $7 $8 $9 X,Y pos of 4 corners*
0 Add a 4 corners polygon primitive as box body*
4,1,4,$2,$3,$4,$5,$6,$7,$8,$9,$2,$3,0*
0 Add four circle primitives for the rounded corners*
1,1,$1+$1,$2,$3*
1,1,$1+$1,$4,$5*
1,1,$1+$1,$6,$7*
1,1,$1+$1,$8,$9*
0 Add four rect primitives between the rounded corners*
20,1,$1+$1,$2,$3,$4,$5,0*
20,1,$1+$1,$4,$5,$6,$7,0*
20,1,$1+$1,$6,$7,$8,$9,0*
20,1,$1+$1,$8,$9,$2,$3,0*%
G04 Aperture macros list end*
%ADD10RoundRect,0.140000X0.140000X0.170000X-0.140000X0.170000X-0.140000X-0.170000X0.140000X-0.170000X0*%
%ADD11RoundRect,0.250000X0.440000X-0.255000X0.440000X0.255000X-0.440000X0.255000X-0.440000X-0.255000X0*%
%ADD12RoundRect,0.150000X0.150000X-0.825000X0.150000X0.825000X-0.150000X0.825000X-0.150000X-0.825000X0*%
%ADD13RoundRect,0.140000X-0.140000X-0.170000X0.140000X-0.170000X0.140000X0.170000X-0.140000X0.170000X0*%
%ADD14RoundRect,0.135000X-0.185000X0.135000X-0.185000X-0.135000X0.185000X-0.135000X0.185000X0.135000X0*%
%ADD15RoundRect,0.140000X-0.170000X0.140000X-0.170000X-0.140000X0.170000X-0.140000X0.170000X0.140000X0*%
%ADD16R,1.800000X2.500000*%
%ADD17RoundRect,0.225000X0.250000X-0.225000X0.250000X0.225000X-0.250000X0.225000X-0.250000X-0.225000X0*%
%ADD18R,0.700000X1.400000*%
%ADD19R,2.000000X1.500000*%
%ADD20R,2.000000X3.800000*%
%ADD21RoundRect,0.135000X0.185000X-0.135000X0.185000X0.135000X-0.185000X0.135000X-0.185000X-0.135000X0*%
%ADD22RoundRect,0.225000X-0.225000X-0.250000X0.225000X-0.250000X0.225000X0.250000X-0.225000X0.250000X0*%
%ADD23RoundRect,0.177500X-0.177500X0.822500X-0.177500X-0.822500X0.177500X-0.822500X0.177500X0.822500X0*%
%ADD24RoundRect,0.150000X-0.150000X0.675000X-0.150000X-0.675000X0.150000X-0.675000X0.150000X0.675000X0*%
%ADD25RoundRect,0.250000X-0.650000X0.325000X-0.650000X-0.325000X0.650000X-0.325000X0.650000X0.325000X0*%
%ADD26RoundRect,0.140000X0.170000X-0.140000X0.170000X0.140000X-0.170000X0.140000X-0.170000X-0.140000X0*%
%ADD27RoundRect,0.150000X-0.150000X0.650000X-0.150000X-0.650000X0.150000X-0.650000X0.150000X0.650000X0*%
%ADD28RoundRect,0.250000X0.255000X-0.255000X0.255000X0.255000X-0.255000X0.255000X-0.255000X-0.255000X0*%
%ADD29RoundRect,0.062500X0.062500X-0.350000X0.062500X0.350000X-0.062500X0.350000X-0.062500X-0.350000X0*%
%ADD30RoundRect,0.062500X0.350000X-0.062500X0.350000X0.062500X-0.350000X0.062500X-0.350000X-0.062500X0*%
%ADD31RoundRect,0.147500X0.147500X0.172500X-0.147500X0.172500X-0.147500X-0.172500X0.147500X-0.172500X0*%
%ADD32RoundRect,0.225000X-0.250000X0.225000X-0.250000X-0.225000X0.250000X-0.225000X0.250000X0.225000X0*%
%ADD33RoundRect,0.250000X-0.325000X-0.650000X0.325000X-0.650000X0.325000X0.650000X-0.325000X0.650000X0*%
%ADD34RoundRect,0.218750X0.256250X-0.218750X0.256250X0.218750X-0.256250X0.218750X-0.256250X-0.218750X0*%
%ADD35RoundRect,0.150000X0.587500X0.150000X-0.587500X0.150000X-0.587500X-0.150000X0.587500X-0.150000X0*%
%ADD36R,2.500000X1.800000*%
%ADD37RoundRect,0.249999X-0.395001X-0.395001X0.395001X-0.395001X0.395001X0.395001X-0.395001X0.395001X0*%
%ADD38RoundRect,0.050000X-0.387500X-0.050000X0.387500X-0.050000X0.387500X0.050000X-0.387500X0.050000X0*%
%ADD39RoundRect,0.050000X-0.050000X-0.387500X0.050000X-0.387500X0.050000X0.387500X-0.050000X0.387500X0*%
%ADD40RoundRect,0.147500X-0.147500X-0.172500X0.147500X-0.172500X0.147500X0.172500X-0.147500X0.172500X0*%
%ADD41R,1.400000X1.200000*%
%ADD42RoundRect,0.135000X-0.135000X-0.185000X0.135000X-0.185000X0.135000X0.185000X-0.135000X0.185000X0*%
%ADD43RoundRect,0.150000X0.150000X-0.587500X0.150000X0.587500X-0.150000X0.587500X-0.150000X-0.587500X0*%
%ADD44C,0.700000*%
%ADD45RoundRect,0.250000X0.650000X-0.325000X0.650000X0.325000X-0.650000X0.325000X-0.650000X-0.325000X0*%
%ADD46R,0.750000X0.750000*%
%ADD47O,0.750000X0.750000*%
%ADD48RoundRect,0.218750X-0.218750X-0.256250X0.218750X-0.256250X0.218750X0.256250X-0.218750X0.256250X0*%
%ADD49RoundRect,0.250000X0.325000X0.650000X-0.325000X0.650000X-0.325000X-0.650000X0.325000X-0.650000X0*%
%ADD50RoundRect,0.150000X0.512500X0.150000X-0.512500X0.150000X-0.512500X-0.150000X0.512500X-0.150000X0*%
%ADD51R,1.000000X2.750000*%
%ADD52R,1.200000X1.400000*%
%ADD53RoundRect,0.450000X1.250000X-0.450000X1.250000X0.450000X-1.250000X0.450000X-1.250000X-0.450000X0*%
G04 APERTURE END LIST*
D10*
%TO.C,R21*%
X190280000Y-128500000D03*
X189320000Y-128500000D03*
%TD*%
%TO.C,R20*%
X190380000Y-114100000D03*
X189420000Y-114100000D03*
%TD*%
D11*
%TO.C,U4*%
X199750000Y-124600000D03*
X201400000Y-124600000D03*
X199750000Y-123400000D03*
X201400000Y-123400000D03*
D12*
X198670000Y-126475000D03*
X199940000Y-126475000D03*
X201210000Y-126475000D03*
X202480000Y-126475000D03*
X202480000Y-121525000D03*
X201210000Y-121525000D03*
X199940000Y-121525000D03*
X198670000Y-121525000D03*
%TD*%
D13*
%TO.C,C1*%
X194720000Y-70700000D03*
X195680000Y-70700000D03*
%TD*%
D14*
%TO.C,R19*%
X194800000Y-102090000D03*
X194800000Y-103110000D03*
%TD*%
D15*
%TO.C,C9*%
X190300000Y-79620000D03*
X190300000Y-80580000D03*
%TD*%
D16*
%TO.C,D2*%
X195199999Y-115999999D03*
X195199999Y-119999999D03*
%TD*%
D17*
%TO.C,C42*%
X197000000Y-73175000D03*
X197000000Y-71625000D03*
%TD*%
D18*
%TO.C,U7*%
X192049999Y-51099999D03*
X192999999Y-51099999D03*
X193949999Y-51099999D03*
X194899999Y-51099999D03*
X195849999Y-51099999D03*
X196799999Y-51099999D03*
X197749999Y-51099999D03*
X198699999Y-51099999D03*
%TD*%
D19*
%TO.C,U5*%
X199349999Y-72099999D03*
X199349999Y-74399999D03*
D20*
X205649999Y-74399999D03*
D19*
X199349999Y-76699999D03*
%TD*%
D21*
%TO.C,R2*%
X201500000Y-69210000D03*
X201500000Y-68190000D03*
%TD*%
D22*
%TO.C,C45*%
X188125000Y-123400000D03*
X189675000Y-123400000D03*
%TD*%
D13*
%TO.C,C46*%
X188620000Y-100100000D03*
X189580000Y-100100000D03*
%TD*%
D14*
%TO.C,R15*%
X187700000Y-106390000D03*
X187700000Y-107410000D03*
%TD*%
D23*
%TO.C,BZ1*%
X189450000Y-49600000D03*
X186150000Y-49600000D03*
X186150000Y-56400000D03*
%TD*%
D24*
%TO.C,U2*%
X191705000Y-116075000D03*
X190435000Y-116075000D03*
X189165000Y-116075000D03*
X187895000Y-116075000D03*
X187895000Y-121325000D03*
X189165000Y-121325000D03*
X190435000Y-121325000D03*
X191705000Y-121325000D03*
%TD*%
D25*
%TO.C,C44*%
X190500000Y-131549999D03*
X190500000Y-134499999D03*
%TD*%
D13*
%TO.C,C18*%
X188920000Y-106500000D03*
X189880000Y-106500000D03*
%TD*%
D10*
%TO.C,C31*%
X189479999Y-90000000D03*
X188519999Y-90000000D03*
%TD*%
D14*
%TO.C,R3*%
X191300000Y-79580000D03*
X191300000Y-80600000D03*
%TD*%
D26*
%TO.C,C29*%
X185600000Y-87380000D03*
X185600000Y-86420000D03*
%TD*%
D27*
%TO.C,U1*%
X191705000Y-59900000D03*
X190435000Y-59900000D03*
X189165000Y-59900000D03*
X187895000Y-59900000D03*
X187895000Y-67100000D03*
X189165000Y-67100000D03*
X190435000Y-67100000D03*
X191705000Y-67100000D03*
%TD*%
D28*
%TO.C,U6*%
X190350000Y-103975000D03*
X191600000Y-103975000D03*
X190350000Y-102725000D03*
X191600000Y-102725000D03*
D29*
X189975000Y-105287500D03*
X190475000Y-105287500D03*
X190975000Y-105287500D03*
X191475000Y-105287500D03*
X191975000Y-105287500D03*
D30*
X192912500Y-104350000D03*
X192912500Y-103850000D03*
X192912500Y-103350000D03*
X192912500Y-102850000D03*
X192912500Y-102350000D03*
D29*
X191975000Y-101412500D03*
X191475000Y-101412500D03*
X190975000Y-101412500D03*
X190475000Y-101412500D03*
X189975000Y-101412500D03*
D30*
X189037500Y-102350000D03*
X189037500Y-102850000D03*
X189037500Y-103350000D03*
X189037500Y-103850000D03*
X189037500Y-104350000D03*
%TD*%
D21*
%TO.C,R18*%
X195400000Y-53510000D03*
X195400000Y-52490000D03*
%TD*%
D14*
%TO.C,R7*%
X196100000Y-56490000D03*
X196100000Y-57510000D03*
%TD*%
D31*
%TO.C,L3*%
X191585000Y-99000000D03*
X190615000Y-99000000D03*
%TD*%
D32*
%TO.C,C26*%
X196700000Y-52825000D03*
X196700000Y-54375000D03*
%TD*%
D26*
%TO.C,C41*%
X196700000Y-101980000D03*
X196700000Y-101020000D03*
%TD*%
D14*
%TO.C,R6*%
X195100000Y-56490000D03*
X195100000Y-57510000D03*
%TD*%
D33*
%TO.C,C15*%
X203025000Y-79300000D03*
X205975000Y-79300000D03*
%TD*%
%TO.C,C22*%
X202925000Y-81800000D03*
X205875000Y-81800000D03*
%TD*%
D21*
%TO.C,R23*%
X184100000Y-52919999D03*
X184100000Y-51899999D03*
%TD*%
D34*
%TO.C,D516*%
X189100000Y-126987500D03*
X189100000Y-125412500D03*
%TD*%
D26*
%TO.C,C16*%
X192700000Y-133180000D03*
X192700000Y-132220000D03*
%TD*%
D10*
%TO.C,C20*%
X205180000Y-53100000D03*
X204220000Y-53100000D03*
%TD*%
D13*
%TO.C,C47*%
X194520000Y-99900000D03*
X195480000Y-99900000D03*
%TD*%
D35*
%TO.C,U8*%
X194837500Y-128950000D03*
X194837500Y-127050000D03*
X192962500Y-128000000D03*
%TD*%
D10*
%TO.C,C6*%
X190980000Y-68800000D03*
X190020000Y-68800000D03*
%TD*%
D36*
%TO.C,D1*%
X192299999Y-109799999D03*
X188299999Y-109799999D03*
%TD*%
D37*
%TO.C,U3*%
X188800000Y-74100000D03*
X188800000Y-75700000D03*
X190400000Y-74100000D03*
X190400000Y-75700000D03*
D38*
X186162500Y-72300000D03*
X186162500Y-72700000D03*
X186162500Y-73100000D03*
X186162500Y-73500000D03*
X186162500Y-73900000D03*
X186162500Y-74300000D03*
X186162500Y-74700000D03*
X186162500Y-75100000D03*
X186162500Y-75500000D03*
X186162500Y-75900000D03*
X186162500Y-76300000D03*
X186162500Y-76700000D03*
X186162500Y-77100000D03*
X186162500Y-77500000D03*
D39*
X187000000Y-78337500D03*
X187400000Y-78337500D03*
X187800000Y-78337500D03*
X188200000Y-78337500D03*
X188600000Y-78337500D03*
X189000000Y-78337500D03*
X189400000Y-78337500D03*
X189800000Y-78337500D03*
X190200000Y-78337500D03*
X190600000Y-78337500D03*
X191000000Y-78337500D03*
X191400000Y-78337500D03*
X191800000Y-78337500D03*
X192200000Y-78337500D03*
D38*
X193037500Y-77500000D03*
X193037500Y-77100000D03*
X193037500Y-76700000D03*
X193037500Y-76300000D03*
X193037500Y-75900000D03*
X193037500Y-75500000D03*
X193037500Y-75100000D03*
X193037500Y-74700000D03*
X193037500Y-74300000D03*
X193037500Y-73900000D03*
X193037500Y-73500000D03*
X193037500Y-73100000D03*
X193037500Y-72700000D03*
X193037500Y-72300000D03*
D39*
X192200000Y-71462500D03*
X191800000Y-71462500D03*
X191400000Y-71462500D03*
X191000000Y-71462500D03*
X190600000Y-71462500D03*
X190200000Y-71462500D03*
X189800000Y-71462500D03*
X189400000Y-71462500D03*
X189000000Y-71462500D03*
X188600000Y-71462500D03*
X188200000Y-71462500D03*
X187800000Y-71462500D03*
X187400000Y-71462500D03*
X187000000Y-71462500D03*
%TD*%
D10*
%TO.C,C30*%
X191480000Y-90000000D03*
X190520000Y-90000000D03*
%TD*%
%TO.C,C13*%
X199280000Y-57600000D03*
X198320000Y-57600000D03*
%TD*%
D40*
%TO.C,L4*%
X190215000Y-97600000D03*
X191185000Y-97600000D03*
%TD*%
D10*
%TO.C,C2*%
X186080000Y-81300000D03*
X185120000Y-81300000D03*
%TD*%
D34*
%TO.C,D517*%
X190700000Y-126987500D03*
X190700000Y-125412500D03*
%TD*%
D26*
%TO.C,C10*%
X186100000Y-70080000D03*
X186100000Y-69120000D03*
%TD*%
D15*
%TO.C,C33*%
X204200000Y-51020000D03*
X204200000Y-51980000D03*
%TD*%
%TO.C,C43*%
X202200000Y-128620000D03*
X202200000Y-129580000D03*
%TD*%
D14*
%TO.C,R4*%
X194000000Y-56490000D03*
X194000000Y-57510000D03*
%TD*%
D33*
%TO.C,C25*%
X198125000Y-132500000D03*
X201075000Y-132500000D03*
%TD*%
D41*
%TO.C,Y1*%
X185799999Y-84549999D03*
X187999999Y-84549999D03*
X187999999Y-82849999D03*
X185799999Y-82849999D03*
%TD*%
D14*
%TO.C,R16*%
X205300000Y-50990000D03*
X205300000Y-52010000D03*
%TD*%
D42*
%TO.C,Q1*%
X204190000Y-50000000D03*
X205210000Y-50000000D03*
%TD*%
D43*
%TO.C,Q2*%
X190150000Y-57737500D03*
X192050000Y-57737500D03*
X191100000Y-55862500D03*
%TD*%
D13*
%TO.C,C24*%
X195820000Y-103100000D03*
X196780000Y-103100000D03*
%TD*%
D44*
%TO.C,U25*%
X203075000Y-50170000D03*
X203075000Y-52830000D03*
X201925000Y-52830000D03*
X201925000Y-50170000D03*
%TD*%
D45*
%TO.C,C35*%
X201100000Y-106975000D03*
X201100000Y-104025000D03*
%TD*%
D13*
%TO.C,R22*%
X194820000Y-65000000D03*
X195780000Y-65000000D03*
%TD*%
D21*
%TO.C,R17*%
X193400000Y-53500000D03*
X193400000Y-52480000D03*
%TD*%
D15*
%TO.C,C34*%
X200700000Y-50820000D03*
X200700000Y-51780000D03*
%TD*%
D10*
%TO.C,C32*%
X187480000Y-90000000D03*
X186520000Y-90000000D03*
%TD*%
%TO.C,C23*%
X195480000Y-100900000D03*
X194520000Y-100900000D03*
%TD*%
D46*
%TO.C,J4*%
X194764999Y-81489999D03*
D47*
X196034999Y-81489999D03*
X194764999Y-82759999D03*
X196034999Y-82759999D03*
X194764999Y-84029999D03*
X196034999Y-84029999D03*
X194764999Y-85299999D03*
X196034999Y-85299999D03*
X194764999Y-86569999D03*
X196034999Y-86569999D03*
X194764999Y-87839999D03*
X196034999Y-87839999D03*
X194764999Y-89109999D03*
X196034999Y-89109999D03*
%TD*%
D13*
%TO.C,C11*%
X191920000Y-68800000D03*
X192880000Y-68800000D03*
%TD*%
D21*
%TO.C,R12*%
X200100000Y-129600001D03*
X200100000Y-128580001D03*
%TD*%
D13*
%TO.C,C27*%
X192240000Y-97600000D03*
X193200000Y-97600000D03*
%TD*%
D14*
%TO.C,R5*%
X197200000Y-56490000D03*
X197200000Y-57510000D03*
%TD*%
D42*
%TO.C,R1*%
X199290000Y-69200000D03*
X200310000Y-69200000D03*
%TD*%
D48*
%TO.C,D518*%
X194612500Y-63500000D03*
X196187500Y-63500000D03*
%TD*%
D49*
%TO.C,C21*%
X196375000Y-112900000D03*
X193425000Y-112900000D03*
%TD*%
D50*
%TO.C,U9*%
X189737500Y-88550000D03*
X189737500Y-87600000D03*
X189737500Y-86650000D03*
X187462500Y-86650000D03*
X187462500Y-87600000D03*
X187462500Y-88550000D03*
%TD*%
D13*
%TO.C,C17*%
X188920000Y-107500000D03*
X189880000Y-107500000D03*
%TD*%
D51*
%TO.C,SW1*%
X202599999Y-60119999D03*
X202599999Y-65879999D03*
X198599999Y-60119999D03*
X198599999Y-65879999D03*
%TD*%
D14*
%TO.C,R24*%
X188200000Y-57190000D03*
X188200000Y-58210000D03*
%TD*%
D52*
%TO.C,Y2*%
X196649999Y-106999999D03*
X196649999Y-104799999D03*
X194949999Y-104799999D03*
X194949999Y-106999999D03*
%TD*%
D21*
%TO.C,R10*%
X195500000Y-77610000D03*
X195500000Y-76590000D03*
%TD*%
D14*
%TO.C,R9*%
X198900000Y-128590000D03*
X198900000Y-129610000D03*
%TD*%
D26*
%TO.C,C28*%
X194200000Y-98580000D03*
X194200000Y-97620000D03*
%TD*%
D14*
%TO.C,R11*%
X196700000Y-76590000D03*
X196700000Y-77610000D03*
%TD*%
D13*
%TO.C,C4*%
X187440000Y-81400000D03*
X188400000Y-81400000D03*
%TD*%
D53*
%TO.C,L1*%
X200400000Y-111950000D03*
X200400000Y-117450000D03*
%TD*%
D31*
%TO.C,L2*%
X192485000Y-100100000D03*
X191515000Y-100100000D03*
%TD*%
D21*
%TO.C,R8*%
X197800000Y-129610000D03*
X197800000Y-128590000D03*
%TD*%
D10*
%TO.C,C5*%
X190980000Y-69900000D03*
X190020000Y-69900000D03*
%TD*%
D14*
%TO.C,R14*%
X206400000Y-50990000D03*
X206400000Y-52010000D03*
%TD*%
%TO.C,R13*%
X201100000Y-128590000D03*
X201100000Y-129610000D03*
%TD*%
M02*
