%TF.GenerationSoftware,KiCad,Pcbnew,(6.99.0-3809-g2741d0eb4b)*%
%TF.CreationDate,2022-10-14T18:55:23-04:00*%
%TF.ProjectId,ButterflyBadge,42757474-6572-4666-9c79-42616467652e,rev?*%
%TF.SameCoordinates,Original*%
%TF.FileFunction,Profile,NP*%
%FSLAX46Y46*%
G04 Gerber Fmt 4.6, Leading zero omitted, Abs format (unit mm)*
G04 Created by KiCad (PCBNEW (6.99.0-3809-g2741d0eb4b)) date 2022-10-14 18:55:23*
%MOMM*%
%LPD*%
G01*
G04 APERTURE LIST*
%TA.AperFunction,Profile*%
%ADD10C,0.110000*%
%TD*%
G04 APERTURE END LIST*
D10*
X181973226Y-53064832D02*
X181996609Y-53297487D01*
X201992398Y-133928746D02*
X202526561Y-131837970D01*
X184287895Y-67078506D02*
X184066028Y-68409989D01*
X207965954Y-54882772D02*
X208123831Y-54662725D01*
X183930342Y-83922326D02*
X184129696Y-85277012D01*
X201061725Y-136790504D02*
X201387282Y-135881119D01*
X194927281Y-143361542D02*
X195334502Y-143390877D01*
X189607280Y-136790504D02*
X189943045Y-137641219D01*
X184618780Y-56520243D02*
X184937272Y-56705744D01*
X183633727Y-81138211D02*
X183764782Y-82541780D01*
X207381830Y-55524976D02*
X207594783Y-55314153D01*
X206738662Y-83922278D02*
X206904223Y-82541732D01*
X191200246Y-47161865D02*
X190232664Y-47323176D01*
X205043954Y-57061154D02*
X205731739Y-56705744D01*
X182102383Y-53759431D02*
X182184432Y-53988211D01*
X187825114Y-96777724D02*
X188349170Y-97660789D01*
X202989350Y-129625980D02*
X203380347Y-127309965D01*
X192133895Y-141513438D02*
X192522062Y-141953463D01*
X186741103Y-48280492D02*
X185982045Y-48591638D01*
X187549522Y-47996832D02*
X186741103Y-48280492D01*
X199294429Y-140457378D02*
X199664222Y-139841343D01*
X207607853Y-50516265D02*
X207389239Y-50298693D01*
X183766964Y-55935617D02*
X184033455Y-56134926D01*
X182080371Y-52128934D02*
X182023141Y-52363190D01*
X189943045Y-137641219D02*
X190288338Y-138433263D01*
X186550613Y-119909673D02*
X186723717Y-122434625D01*
X204071914Y-109629057D02*
X203873474Y-107099654D01*
X206635554Y-56134926D02*
X206902045Y-55935617D01*
X206381110Y-67078460D02*
X206126411Y-65775398D01*
X189281723Y-135881119D02*
X189607280Y-136790504D01*
X201387282Y-135881119D02*
X201992398Y-133928746D01*
X207214218Y-76827134D02*
X207200775Y-75388326D01*
X206050230Y-56520243D02*
X206351559Y-56329886D01*
X186855584Y-94843266D02*
X187327015Y-95837604D01*
X200026528Y-139166638D02*
X200380667Y-138433263D01*
X208629287Y-53529105D02*
X208672396Y-53297487D01*
X184923391Y-89157558D02*
X185250793Y-90380449D01*
X184937272Y-56705744D02*
X185272754Y-56886132D01*
X208682684Y-52597429D02*
X208645864Y-52363190D01*
X186597091Y-109629076D02*
X186473799Y-112191965D01*
X205839425Y-64503763D02*
X205520695Y-63266566D01*
X196400000Y-46885022D02*
X195334502Y-46865904D01*
X207990356Y-50966288D02*
X207808385Y-50738848D01*
X185625058Y-57061154D02*
X185994011Y-57230555D01*
X186379443Y-57394079D02*
X186781183Y-57551473D01*
X200380667Y-138433263D02*
X200725960Y-137641219D01*
X207131113Y-79714406D02*
X207191018Y-78273298D01*
X198535110Y-141513438D02*
X198917832Y-141014743D01*
X182376228Y-51428600D02*
X182256744Y-51661384D01*
X208699266Y-52831394D02*
X208682684Y-52597429D01*
X183061151Y-50516265D02*
X182678648Y-50966288D01*
X206946036Y-71146128D02*
X206791466Y-69766835D01*
X197754013Y-142334818D02*
X198146943Y-141953463D01*
X195334502Y-143390877D02*
X195741724Y-143361542D01*
X205170766Y-62066815D02*
X204790182Y-60907520D01*
X185994011Y-57230555D02*
X186379443Y-57394079D01*
X198470956Y-47034243D02*
X197446760Y-46941548D01*
X188403473Y-47741899D02*
X187549522Y-47996832D01*
X187327015Y-95837604D02*
X187825114Y-96777724D01*
X186795531Y-107099676D02*
X186597091Y-109629076D01*
X206041680Y-49291431D02*
X205392828Y-48929031D01*
X203599466Y-104620930D02*
X203249472Y-102210073D01*
X206306875Y-86602956D02*
X206539309Y-85276965D01*
X186450979Y-117349453D02*
X186550613Y-119909673D01*
X205745615Y-89157510D02*
X206042073Y-87897417D01*
X182405999Y-54440112D02*
X182545176Y-54662725D01*
X187679655Y-129625983D02*
X188142444Y-131837971D01*
X185276176Y-48929031D02*
X184627324Y-49291431D01*
X198917832Y-141014743D02*
X199294429Y-140457378D01*
X204379488Y-59791689D02*
X203939227Y-58722332D01*
X184039317Y-49677596D02*
X183515984Y-50086288D01*
X206899677Y-49879204D02*
X206629687Y-49677596D01*
X183074224Y-55314153D02*
X183287177Y-55524976D01*
X204118392Y-119909663D02*
X204218026Y-117349440D01*
X183517770Y-73959931D02*
X183468229Y-75388374D01*
X191374575Y-140457378D02*
X191751173Y-141014743D01*
X208672396Y-53297487D02*
X208695779Y-53064832D01*
X183287177Y-55524976D02*
X183518148Y-55732216D01*
X184066028Y-68409989D02*
X183877538Y-69766882D01*
X203249472Y-102210073D02*
X202823072Y-99884273D01*
X207150861Y-55732216D02*
X207381830Y-55524976D01*
X182879459Y-55100000D02*
X183074224Y-55314153D01*
X182158182Y-51894913D02*
X182080371Y-52128934D01*
X187069538Y-104620953D02*
X186795531Y-107099676D01*
X208645864Y-52363190D02*
X208588634Y-52128934D01*
X207200775Y-75388326D02*
X207151234Y-73959883D01*
X208383311Y-54215190D02*
X208484573Y-53988211D01*
X202526561Y-131837970D02*
X202989350Y-129625980D01*
X202823072Y-99884273D02*
X202319847Y-97660718D01*
X204289571Y-57394079D02*
X205043954Y-57061154D01*
X183602865Y-72544862D02*
X183517770Y-73959931D01*
X201387282Y-135881119D02*
X201387282Y-135881119D01*
X188142444Y-131837971D02*
X188676607Y-133928747D01*
X183877538Y-69766882D02*
X183722969Y-71146176D01*
X204673432Y-92703230D02*
X205060582Y-91563253D01*
X193712422Y-142921517D02*
X194115560Y-143126862D01*
X207789548Y-55100000D02*
X207965954Y-54882772D01*
X207389239Y-50298693D02*
X207153020Y-50086288D01*
X208123831Y-54662725D02*
X208263007Y-54440112D01*
X190642477Y-139166638D02*
X191004783Y-139841343D01*
X189299130Y-47516934D02*
X188403473Y-47741899D01*
X184627324Y-49291431D02*
X184039317Y-49677596D01*
X207151234Y-73959883D02*
X207066140Y-72544814D01*
X187288658Y-127309969D02*
X187679655Y-129625983D01*
X194269005Y-46885022D02*
X193222245Y-46941548D01*
X206602976Y-68409942D02*
X206381110Y-67078460D01*
X184129696Y-85277012D02*
X184362130Y-86603004D01*
X181969739Y-52831394D02*
X181973226Y-53064832D01*
X204790182Y-60907520D02*
X204379488Y-59791689D01*
X202843900Y-96777677D02*
X203341998Y-95837557D01*
X203119483Y-47996832D02*
X202265531Y-47741899D01*
X206791466Y-69766835D02*
X206602976Y-68409942D01*
X206629687Y-49677596D02*
X206041680Y-49291431D01*
X183468229Y-75388374D02*
X183454786Y-76827182D01*
X204243771Y-114771139D02*
X204195206Y-112191948D01*
X182516806Y-51196816D02*
X182376228Y-51428600D01*
X195334502Y-46865904D02*
X194269005Y-46885022D01*
X207191018Y-78273298D02*
X207214218Y-76827134D01*
X206126411Y-65775398D02*
X205839425Y-64503763D01*
X203873474Y-107099654D02*
X203599466Y-104620930D01*
X197357000Y-142657502D02*
X197754013Y-142334818D01*
X185995577Y-92703279D02*
X186411533Y-93797545D01*
X189281723Y-135881119D02*
X189281723Y-135881119D01*
X185608426Y-91563301D02*
X185995577Y-92703279D01*
X192522062Y-141953463D02*
X192914992Y-142334818D01*
X203945288Y-122434617D02*
X204118392Y-119909663D01*
X186289518Y-59791721D02*
X185878823Y-60907555D01*
X201369875Y-47516934D02*
X200436341Y-47323176D01*
X197446760Y-46941548D02*
X196400000Y-46885022D01*
X187845932Y-99884298D02*
X187419532Y-102210097D01*
X182678648Y-50966288D02*
X182678648Y-50966288D01*
X184829580Y-64503805D02*
X184542594Y-65775441D01*
X208510823Y-51894913D02*
X208412261Y-51661384D01*
X186969872Y-124907120D02*
X187288658Y-127309969D01*
X183454786Y-76827182D02*
X183477986Y-78273346D01*
X182023141Y-52363190D02*
X181986321Y-52597429D01*
X206351559Y-56329886D02*
X206635554Y-56134926D01*
X204218026Y-117349440D02*
X204243771Y-114771139D01*
X203380347Y-127309965D02*
X203699133Y-124907115D01*
X183477986Y-78273346D02*
X183537891Y-79714454D01*
X208566622Y-53759431D02*
X208629287Y-53529105D01*
X202265531Y-47741899D02*
X201369875Y-47516934D01*
X203341998Y-95837557D02*
X203813427Y-94843218D01*
X192914992Y-142334818D02*
X193312005Y-142657502D01*
X195741724Y-143361542D02*
X196148265Y-143273537D01*
X206904223Y-82541732D02*
X207035277Y-81138163D01*
X182703052Y-54882772D02*
X182879459Y-55100000D01*
X184033455Y-56134926D02*
X184317451Y-56329886D01*
X185878823Y-60907555D02*
X185498239Y-62066853D01*
X207191018Y-78273298D02*
X207191018Y-78273298D01*
X198146943Y-141953463D02*
X198535110Y-141513438D01*
X205731739Y-56705744D02*
X206050230Y-56520243D01*
X183518148Y-55732216D02*
X183766964Y-55935617D01*
X199664222Y-139841343D02*
X200026528Y-139166638D01*
X196553445Y-143126862D02*
X196956583Y-142921517D01*
X203939227Y-58722332D02*
X203469945Y-57702458D01*
X186411533Y-93797545D02*
X186855584Y-94843266D01*
X207066140Y-72544814D02*
X206946036Y-71146128D01*
X182678648Y-50966288D02*
X182516806Y-51196816D01*
X208484573Y-53988211D02*
X208566622Y-53759431D01*
X183515984Y-50086288D02*
X183061151Y-50516265D01*
X184542594Y-65775441D02*
X184287895Y-67078506D01*
X194115560Y-143126862D02*
X194520740Y-143273537D01*
X203699133Y-124907115D02*
X203945288Y-122434617D01*
X183764782Y-82541780D02*
X183930342Y-83922326D01*
X183722969Y-71146176D02*
X183602865Y-72544862D01*
X188349157Y-97660743D02*
X187845932Y-99884298D01*
X204257476Y-93797497D02*
X204673432Y-92703230D01*
X182039719Y-53529105D02*
X182102383Y-53759431D01*
X196148265Y-143273537D02*
X196553445Y-143126862D01*
X206539309Y-85276965D02*
X206738662Y-83922278D01*
X190288338Y-138433263D02*
X190642477Y-139166638D01*
X200725960Y-137641219D02*
X201061725Y-136790504D01*
X194520740Y-143273537D02*
X194927281Y-143361542D01*
X186723717Y-122434625D02*
X186969872Y-124907120D01*
X207808385Y-50738848D02*
X207607853Y-50516265D01*
X207990356Y-50966288D02*
X207990356Y-50966288D01*
X207153020Y-50086288D02*
X206899677Y-49879204D01*
X182545176Y-54662725D02*
X182703052Y-54882772D01*
X196956583Y-142921517D02*
X197357000Y-142657502D01*
X187419532Y-102210097D02*
X187069538Y-104620953D01*
X192198049Y-47034243D02*
X191200246Y-47161865D01*
X202319847Y-97660743D02*
X202843900Y-96777677D01*
X205060582Y-91563253D02*
X205418214Y-90380401D01*
X206902045Y-55935617D02*
X207150861Y-55732216D01*
X205392828Y-48929031D02*
X204686960Y-48591638D01*
X204195206Y-112191948D02*
X204071914Y-109629057D01*
X183537891Y-79714454D02*
X183633727Y-81138211D01*
X181996609Y-53297487D02*
X182039719Y-53529105D01*
X191004783Y-139841343D02*
X191374575Y-140457378D01*
X193312005Y-142657502D02*
X193712422Y-142921517D01*
X185982045Y-48591638D02*
X185276176Y-48929031D01*
X203469955Y-57702482D02*
X204289571Y-57394079D01*
X208412261Y-51661384D02*
X208292776Y-51428600D01*
X187199060Y-57702482D02*
X186729778Y-58722361D01*
X207594783Y-55314153D02*
X207789548Y-55100000D01*
X208695779Y-53064832D02*
X208699266Y-52831394D01*
X208152198Y-51196816D02*
X207990356Y-50966288D01*
X190232664Y-47323176D02*
X189299130Y-47516934D01*
X183477986Y-78273346D02*
X183477986Y-78273346D01*
X185148310Y-63266606D02*
X184829580Y-64503805D01*
X191751173Y-141014743D02*
X192133895Y-141513438D01*
X208292776Y-51428600D02*
X208152198Y-51196816D01*
X186781183Y-57551473D02*
X187199060Y-57702482D01*
X203813427Y-94843218D02*
X204257476Y-93797497D01*
X203927902Y-48280492D02*
X203119483Y-47996832D01*
X182256744Y-51661384D02*
X182158182Y-51894913D01*
X195334502Y-46865904D02*
X195334502Y-46865904D01*
X200436341Y-47323176D02*
X199468759Y-47161865D01*
X182184432Y-53988211D02*
X182285695Y-54215190D01*
X181986321Y-52597429D02*
X181969739Y-52831394D01*
X186425234Y-114771154D02*
X186450979Y-117349453D01*
X205418214Y-90380401D02*
X205745615Y-89157510D01*
X182285695Y-54215190D02*
X182405999Y-54440112D01*
X208263007Y-54440112D02*
X208383311Y-54215190D01*
X188676607Y-133928747D02*
X189281723Y-135881119D01*
X193222245Y-46941548D02*
X192198049Y-47034243D01*
X185498239Y-62066853D02*
X185148310Y-63266606D01*
X186473799Y-112191965D02*
X186425234Y-114771154D01*
X208588634Y-52128934D02*
X208510823Y-51894913D01*
X205520695Y-63266566D02*
X205170766Y-62066815D01*
X185272754Y-56886132D02*
X185625058Y-57061154D01*
X186729778Y-58722361D02*
X186289518Y-59791721D01*
X185250793Y-90380449D02*
X185608426Y-91563301D01*
X207035277Y-81138163D02*
X207131113Y-79714406D01*
X206042073Y-87897417D02*
X206306875Y-86602956D01*
X204686960Y-48591638D02*
X203927902Y-48280492D01*
X184626933Y-87897465D02*
X184923391Y-89157558D01*
X184362130Y-86603004D02*
X184626933Y-87897465D01*
X199468759Y-47161865D02*
X198470956Y-47034243D01*
X184317451Y-56329886D02*
X184618780Y-56520243D01*
M02*
