%TF.GenerationSoftware,KiCad,Pcbnew,(6.99.0-3809-g2741d0eb4b)*%
%TF.CreationDate,2022-10-14T22:06:41-04:00*%
%TF.ProjectId,ButterflyBadge,42757474-6572-4666-9c79-42616467652e,rev?*%
%TF.SameCoordinates,Original*%
%TF.FileFunction,Drillmap*%
%TF.FilePolarity,Positive*%
%FSLAX45Y45*%
G04 Gerber Fmt 4.5, Leading zero omitted, Abs format (unit mm)*
G04 Created by KiCad (PCBNEW (6.99.0-3809-g2741d0eb4b)) date 2022-10-14 22:06:41*
%MOMM*%
%LPD*%
G01*
G04 APERTURE LIST*
%ADD10C,0.384999*%
%ADD11C,0.200000*%
%ADD12C,0.065000*%
%ADD13C,0.099060*%
%ADD14C,0.120000*%
%ADD15C,0.320000*%
G04 APERTURE END LIST*
D10*
X18644300Y-5742994D02*
X18709542Y-5770458D01*
X18584136Y-5715302D02*
X18644300Y-5742994D01*
X18528902Y-5687418D02*
X18584136Y-5715302D01*
X18478453Y-5659375D02*
X18528902Y-5687418D01*
X18432640Y-5631209D02*
X18478453Y-5659375D01*
X18391317Y-5602955D02*
X18432640Y-5631209D01*
X18354337Y-5574647D02*
X18391317Y-5602955D01*
X18321554Y-5546319D02*
X18354337Y-5574647D01*
X18292819Y-5518007D02*
X18321554Y-5546319D01*
X18267987Y-5489745D02*
X18292819Y-5518007D01*
X18246909Y-5461569D02*
X18267987Y-5489745D01*
X18229440Y-5433512D02*
X18246909Y-5461569D01*
X18215432Y-5405609D02*
X18229440Y-5433512D01*
X18204738Y-5377895D02*
X18215432Y-5405609D01*
X18197211Y-5350406D02*
X18204738Y-5377895D01*
X18192705Y-5323175D02*
X18197211Y-5350406D01*
X18191071Y-5296237D02*
X18192705Y-5323175D01*
X18192164Y-5269627D02*
X18191071Y-5296237D01*
X18195837Y-5243380D02*
X18192164Y-5269627D01*
X18201942Y-5217531D02*
X18195837Y-5243380D01*
X18210332Y-5192113D02*
X18201942Y-5217531D01*
X18220860Y-5167163D02*
X18210332Y-5192113D01*
X18233380Y-5142714D02*
X18220860Y-5167163D01*
X18247745Y-5118801D02*
X18233380Y-5142714D01*
X18263807Y-5095460D02*
X18247745Y-5118801D01*
X18281419Y-5072724D02*
X18263807Y-5095460D01*
X18300435Y-5050629D02*
X18281419Y-5072724D01*
X18320708Y-5029209D02*
X18300435Y-5050629D01*
X18342090Y-5008499D02*
X18320708Y-5029209D01*
X18364435Y-4988533D02*
X18342090Y-5008499D01*
X18411424Y-4950975D02*
X18364435Y-4988533D01*
X18411424Y-4950975D02*
X18411424Y-4950975D01*
X18460683Y-4916731D02*
X18411424Y-4950975D01*
X18511946Y-4885674D02*
X18460683Y-4916731D01*
X18565131Y-4857596D02*
X18511946Y-4885674D01*
X18620157Y-4832287D02*
X18565131Y-4857596D01*
X18676940Y-4809540D02*
X18620157Y-4832287D01*
X18735398Y-4789146D02*
X18676940Y-4809540D01*
X18795449Y-4770897D02*
X18735398Y-4789146D01*
X18857010Y-4754585D02*
X18795449Y-4770897D01*
X18920000Y-4740000D02*
X18857010Y-4754585D01*
X18984336Y-4726935D02*
X18920000Y-4740000D01*
X19116716Y-4704530D02*
X18984336Y-4726935D01*
X19253493Y-4685702D02*
X19116716Y-4704530D01*
X19394007Y-4668784D02*
X19253493Y-4685702D01*
X19394007Y-4668784D02*
X19394007Y-4668784D01*
X19394007Y-4625429D02*
X19394007Y-4668784D01*
X19394007Y-4625429D02*
X19394007Y-4625429D01*
X19538075Y-4625429D02*
X19394007Y-4625429D01*
X19538075Y-4625429D02*
X19538075Y-4625429D01*
X19682143Y-4625429D02*
X19538075Y-4625429D01*
X19682143Y-4625429D02*
X19682143Y-4625429D01*
X19682143Y-4668784D02*
X19682143Y-4625429D01*
X19682143Y-4668784D02*
X19682143Y-4668784D01*
X19822657Y-4685702D02*
X19682143Y-4668784D01*
X19959434Y-4704530D02*
X19822657Y-4685702D01*
X20026215Y-4715181D02*
X19959434Y-4704530D01*
X20091814Y-4726935D02*
X20026215Y-4715181D01*
X20156150Y-4740000D02*
X20091814Y-4726935D01*
X20219140Y-4754585D02*
X20156150Y-4740000D01*
X20280701Y-4770897D02*
X20219140Y-4754585D01*
X20340752Y-4789146D02*
X20280701Y-4770897D01*
X20399210Y-4809540D02*
X20340752Y-4789146D01*
X20455993Y-4832287D02*
X20399210Y-4809540D01*
X20511018Y-4857596D02*
X20455993Y-4832287D01*
X20564204Y-4885674D02*
X20511018Y-4857596D01*
X20615467Y-4916731D02*
X20564204Y-4885674D01*
X20664726Y-4950975D02*
X20615467Y-4916731D01*
X20664726Y-4950975D02*
X20664726Y-4950975D01*
X20711715Y-4988533D02*
X20664726Y-4950975D01*
X20755442Y-5029209D02*
X20711715Y-4988533D01*
X20794731Y-5072724D02*
X20755442Y-5029209D01*
X20812343Y-5095460D02*
X20794731Y-5072724D01*
X20828405Y-5118801D02*
X20812343Y-5095460D01*
X20842770Y-5142714D02*
X20828405Y-5118801D01*
X20855290Y-5167163D02*
X20842770Y-5142714D01*
X20865818Y-5192113D02*
X20855290Y-5167163D01*
X20874208Y-5217531D02*
X20865818Y-5192113D01*
X20880313Y-5243380D02*
X20874208Y-5217531D01*
X20883986Y-5269627D02*
X20880313Y-5243380D01*
X20885079Y-5296237D02*
X20883986Y-5269627D01*
X20883445Y-5323175D02*
X20885079Y-5296237D01*
X20878939Y-5350406D02*
X20883445Y-5323175D01*
X20871412Y-5377895D02*
X20878939Y-5350406D01*
X20860718Y-5405609D02*
X20871412Y-5377895D01*
X20846710Y-5433512D02*
X20860718Y-5405609D01*
X20829241Y-5461569D02*
X20846710Y-5433512D01*
X20808163Y-5489745D02*
X20829241Y-5461569D01*
X20783331Y-5518007D02*
X20808163Y-5489745D01*
X20754596Y-5546319D02*
X20783331Y-5518007D01*
X20721812Y-5574647D02*
X20754596Y-5546319D01*
X20684833Y-5602955D02*
X20721812Y-5574647D01*
X20643510Y-5631209D02*
X20684833Y-5602955D01*
X20597697Y-5659375D02*
X20643510Y-5631209D01*
X20547248Y-5687418D02*
X20597697Y-5659375D01*
X20492014Y-5715302D02*
X20547248Y-5687418D01*
X20431850Y-5742994D02*
X20492014Y-5715302D01*
X20366607Y-5770458D02*
X20431850Y-5742994D01*
X20366607Y-5770458D02*
X20366607Y-5770458D01*
X20416105Y-5874698D02*
X20366607Y-5770458D01*
X20461096Y-5977062D02*
X20416105Y-5874698D01*
X20501824Y-6078046D02*
X20461096Y-5977062D01*
X20538534Y-6178142D02*
X20501824Y-6078046D01*
X20571470Y-6277844D02*
X20538534Y-6178142D01*
X20600877Y-6377647D02*
X20571470Y-6277844D01*
X20626999Y-6478044D02*
X20600877Y-6377647D01*
X20650081Y-6579530D02*
X20626999Y-6478044D01*
X20670367Y-6682598D02*
X20650081Y-6579530D01*
X20688102Y-6787741D02*
X20670367Y-6682598D01*
X20703530Y-6895455D02*
X20688102Y-6787741D01*
X20716896Y-7006233D02*
X20703530Y-6895455D01*
X20738418Y-7238956D02*
X20716896Y-7006233D01*
X20754625Y-7489862D02*
X20738418Y-7238956D01*
X20754625Y-7489862D02*
X20754625Y-7489862D01*
X20884937Y-7489862D02*
X20754625Y-7489862D01*
X20884937Y-7489862D02*
X20884937Y-7489862D01*
X20884937Y-7964217D02*
X20884937Y-7489862D01*
X20884937Y-7964217D02*
X20884937Y-7964217D01*
X20730732Y-7964217D02*
X20884937Y-7964217D01*
X20730732Y-7964217D02*
X20730732Y-7964217D01*
X20725181Y-8064099D02*
X20730732Y-7964217D01*
X20717630Y-8161827D02*
X20725181Y-8064099D01*
X20708218Y-8257336D02*
X20717630Y-8161827D01*
X20697084Y-8350557D02*
X20708218Y-8257336D01*
X20684367Y-8441424D02*
X20697084Y-8350557D01*
X20670206Y-8529870D02*
X20684367Y-8441424D01*
X20654740Y-8615827D02*
X20670206Y-8529870D01*
X20638109Y-8699229D02*
X20654740Y-8615827D01*
X20620450Y-8780009D02*
X20638109Y-8699229D01*
X20601903Y-8858100D02*
X20620450Y-8780009D01*
X20562701Y-9005947D02*
X20601903Y-8858100D01*
X20521614Y-9142233D02*
X20562701Y-9005947D01*
X20479755Y-9266422D02*
X20521614Y-9142233D01*
X20438236Y-9377979D02*
X20479755Y-9266422D01*
X20398167Y-9476368D02*
X20438236Y-9377979D01*
X20360661Y-9561054D02*
X20398167Y-9476368D01*
X20326831Y-9631499D02*
X20360661Y-9561054D01*
X20297786Y-9687168D02*
X20326831Y-9631499D01*
X20274641Y-9727526D02*
X20297786Y-9687168D01*
X20258505Y-9752037D02*
X20274641Y-9727526D01*
X20250492Y-9760164D02*
X20258505Y-9752037D01*
X20250492Y-9760164D02*
X20250492Y-9760164D01*
X20267939Y-9831250D02*
X20250492Y-9760164D01*
X20284189Y-9903553D02*
X20267939Y-9831250D01*
X20313287Y-10050376D02*
X20284189Y-9903553D01*
X20338166Y-10197768D02*
X20313287Y-10050376D01*
X20359204Y-10342866D02*
X20338166Y-10197768D01*
X20376781Y-10482808D02*
X20359204Y-10342866D01*
X20391275Y-10614728D02*
X20376781Y-10482808D01*
X20412532Y-10843052D02*
X20391275Y-10614728D01*
X20412532Y-10843052D02*
X20412532Y-10843052D01*
X20420030Y-10934724D02*
X20412532Y-10843052D01*
X20425825Y-11012892D02*
X20420030Y-10934724D01*
X20430161Y-11080665D02*
X20425825Y-11012892D01*
X20433281Y-11141152D02*
X20430161Y-11080665D01*
X20435428Y-11197459D02*
X20433281Y-11141152D01*
X20436846Y-11252695D02*
X20435428Y-11197459D01*
X20438465Y-11372388D02*
X20436846Y-11252695D01*
X20438465Y-11372388D02*
X20438465Y-11372388D01*
X20884937Y-11372388D02*
X20438465Y-11372388D01*
X20884937Y-11372388D02*
X20884937Y-11372388D01*
X20884937Y-11707544D02*
X20884937Y-11372388D01*
X20884937Y-11707544D02*
X20884937Y-11707544D01*
X20440019Y-11707544D02*
X20884937Y-11707544D01*
X20440019Y-11707544D02*
X20440019Y-11707544D01*
X20426732Y-11936992D02*
X20440019Y-11707544D01*
X20411029Y-12150933D02*
X20426732Y-11936992D01*
X20393085Y-12350011D02*
X20411029Y-12150933D01*
X20373080Y-12534871D02*
X20393085Y-12350011D01*
X20351190Y-12706157D02*
X20373080Y-12534871D01*
X20327593Y-12864513D02*
X20351190Y-12706157D01*
X20302468Y-13010585D02*
X20327593Y-12864513D01*
X20275992Y-13145017D02*
X20302468Y-13010585D01*
X20248343Y-13268453D02*
X20275992Y-13145017D01*
X20219698Y-13381539D02*
X20248343Y-13268453D01*
X20190235Y-13484917D02*
X20219698Y-13381539D01*
X20160133Y-13579234D02*
X20190235Y-13484917D01*
X20129568Y-13665133D02*
X20160133Y-13579234D01*
X20098718Y-13743259D02*
X20129568Y-13665133D01*
X20067762Y-13814257D02*
X20098718Y-13743259D01*
X20036877Y-13878771D02*
X20067762Y-13814257D01*
X20036877Y-13878771D02*
X20036877Y-13878771D01*
X20021515Y-13908791D02*
X20036877Y-13878771D01*
X20006229Y-13937387D02*
X20021515Y-13908791D01*
X19991031Y-13964598D02*
X20006229Y-13937387D01*
X19975935Y-13990459D02*
X19991031Y-13964598D01*
X19960953Y-14015007D02*
X19975935Y-13990459D01*
X19946100Y-14038280D02*
X19960953Y-14015007D01*
X19931388Y-14060314D02*
X19946100Y-14038280D01*
X19916830Y-14081145D02*
X19931388Y-14060314D01*
X19902439Y-14100811D02*
X19916830Y-14081145D01*
X19888230Y-14119349D02*
X19902439Y-14100811D01*
X19874214Y-14136794D02*
X19888230Y-14119349D01*
X19860405Y-14153185D02*
X19874214Y-14136794D01*
X19846816Y-14168558D02*
X19860405Y-14153185D01*
X19833461Y-14182949D02*
X19846816Y-14168558D01*
X19820352Y-14196396D02*
X19833461Y-14182949D01*
X19807503Y-14208935D02*
X19820352Y-14196396D01*
X19782636Y-14231436D02*
X19807503Y-14208935D01*
X19758966Y-14250749D02*
X19782636Y-14231436D01*
X19736598Y-14267166D02*
X19758966Y-14250749D01*
X19715637Y-14280984D02*
X19736598Y-14267166D01*
X19696189Y-14292495D02*
X19715637Y-14280984D01*
X19678359Y-14301994D02*
X19696189Y-14292495D01*
X19662252Y-14309777D02*
X19678359Y-14301994D01*
X19647973Y-14316137D02*
X19662252Y-14309777D01*
X19647973Y-14316137D02*
X19647973Y-14316137D01*
X19647973Y-14370203D02*
X19647973Y-14316137D01*
X19647973Y-14370203D02*
X19647973Y-14370203D01*
X19538075Y-14370203D02*
X19647973Y-14370203D01*
X19538075Y-14370203D02*
X19538075Y-14370203D01*
X19428177Y-14370203D02*
X19538075Y-14370203D01*
X19428177Y-14370203D02*
X19428177Y-14370203D01*
X19428177Y-14316137D02*
X19428177Y-14370203D01*
X19428177Y-14316137D02*
X19428177Y-14316137D01*
X19397791Y-14301994D02*
X19428177Y-14316137D01*
X19379961Y-14292495D02*
X19397791Y-14301994D01*
X19360513Y-14280984D02*
X19379961Y-14292495D01*
X19339552Y-14267166D02*
X19360513Y-14280984D01*
X19317184Y-14250749D02*
X19339552Y-14267166D01*
X19293514Y-14231436D02*
X19317184Y-14250749D01*
X19268647Y-14208935D02*
X19293514Y-14231436D01*
X19242689Y-14182949D02*
X19268647Y-14208935D01*
X19215745Y-14153185D02*
X19242689Y-14182949D01*
X19187920Y-14119349D02*
X19215745Y-14153185D01*
X19159320Y-14081145D02*
X19187920Y-14119349D01*
X19130050Y-14038280D02*
X19159320Y-14081145D01*
X19100215Y-13990459D02*
X19130050Y-14038280D01*
X19069921Y-13937387D02*
X19100215Y-13990459D01*
X19039273Y-13878771D02*
X19069921Y-13937387D01*
X19039273Y-13878771D02*
X19039273Y-13878771D01*
X18977431Y-13743259D02*
X19039273Y-13878771D01*
X18916017Y-13579234D02*
X18977431Y-13743259D01*
X18856452Y-13381539D02*
X18916017Y-13579234D01*
X18800158Y-13145017D02*
X18856452Y-13381539D01*
X18748557Y-12864513D02*
X18800158Y-13145017D01*
X18703070Y-12534871D02*
X18748557Y-12864513D01*
X18665121Y-12150933D02*
X18703070Y-12534871D01*
X18636131Y-11707544D02*
X18665121Y-12150933D01*
X18636131Y-11707544D02*
X18636131Y-11707544D01*
X18191213Y-11707544D02*
X18636131Y-11707544D01*
X18191213Y-11707544D02*
X18191213Y-11707544D01*
X18191213Y-11372388D02*
X18191213Y-11707544D01*
X18191213Y-11372388D02*
X18191213Y-11372388D01*
X18637685Y-11372388D02*
X18191213Y-11372388D01*
X18637685Y-11372388D02*
X18637685Y-11372388D01*
X18639304Y-11252695D02*
X18637685Y-11372388D01*
X18642869Y-11141152D02*
X18639304Y-11252695D01*
X18645989Y-11080665D02*
X18642869Y-11141152D01*
X18650325Y-11012892D02*
X18645989Y-11080665D01*
X18663618Y-10843052D02*
X18650325Y-11012892D01*
X18663618Y-10843052D02*
X18663618Y-10843052D01*
X18684875Y-10614728D02*
X18663618Y-10843052D01*
X18699369Y-10482808D02*
X18684875Y-10614728D01*
X18716946Y-10342866D02*
X18699369Y-10482808D01*
X18737984Y-10197768D02*
X18716946Y-10342866D01*
X18762863Y-10050376D02*
X18737984Y-10197768D01*
X18791961Y-9903553D02*
X18762863Y-10050376D01*
X18825658Y-9760164D02*
X18791961Y-9903553D01*
X18825658Y-9760164D02*
X18825658Y-9760164D01*
X18801509Y-9727526D02*
X18825658Y-9760164D01*
X18749319Y-9631499D02*
X18801509Y-9727526D01*
X18677983Y-9476368D02*
X18749319Y-9631499D01*
X18596395Y-9266422D02*
X18677983Y-9476368D01*
X18554536Y-9142233D02*
X18596395Y-9266422D01*
X18513449Y-9005947D02*
X18554536Y-9142233D01*
X18474247Y-8858100D02*
X18513449Y-9005947D01*
X18438041Y-8699229D02*
X18474247Y-8858100D01*
X18405944Y-8529870D02*
X18438041Y-8699229D01*
X18379066Y-8350557D02*
X18405944Y-8529870D01*
X18358520Y-8161827D02*
X18379066Y-8350557D01*
X18345418Y-7964217D02*
X18358520Y-8161827D01*
X18345418Y-7964217D02*
X18345418Y-7964217D01*
X18191213Y-7964217D02*
X18345418Y-7964217D01*
X18191213Y-7964217D02*
X18191213Y-7964217D01*
X18191213Y-7489862D02*
X18191213Y-7964217D01*
X18191213Y-7489862D02*
X18191213Y-7489862D01*
X18321525Y-7489862D02*
X18191213Y-7489862D01*
X18321525Y-7489862D02*
X18321525Y-7489862D01*
X18337732Y-7238956D02*
X18321525Y-7489862D01*
X18359254Y-7006233D02*
X18337732Y-7238956D01*
X18372620Y-6895455D02*
X18359254Y-7006233D01*
X18388048Y-6787741D02*
X18372620Y-6895455D01*
X18405783Y-6682598D02*
X18388048Y-6787741D01*
X18426069Y-6579530D02*
X18405783Y-6682598D01*
X18449151Y-6478044D02*
X18426069Y-6579530D01*
X18475273Y-6377647D02*
X18449151Y-6478044D01*
X18504680Y-6277844D02*
X18475273Y-6377647D01*
X18537616Y-6178142D02*
X18504680Y-6277844D01*
X18574326Y-6078046D02*
X18537616Y-6178142D01*
X18615054Y-5977062D02*
X18574326Y-6078046D01*
X18660045Y-5874698D02*
X18615054Y-5977062D01*
X18709542Y-5770458D02*
X18660045Y-5874698D01*
D11*
D12*
X19208500Y-5287500D02*
X19273500Y-5352500D01*
X19273500Y-5287500D02*
X19208500Y-5352500D01*
X19786500Y-5287500D02*
X19851500Y-5352500D01*
X19851500Y-5287500D02*
X19786500Y-5352500D01*
D13*
X20185530Y-5418400D02*
G75*
G03*
X20185530Y-5418400I-49530J0D01*
G01*
X20185530Y-5621600D02*
G75*
G03*
X20185530Y-5621600I-49530J0D01*
G01*
X20693530Y-5520000D02*
G75*
G03*
X20693530Y-5520000I-49530J0D01*
G01*
D14*
X19435000Y-9192500D02*
X19435000Y-9312500D01*
X19375000Y-9252500D02*
X19495000Y-9252500D01*
D15*
X19643138Y-6887638D02*
X19643138Y-6661362D01*
X19416862Y-6661362D01*
X19416862Y-6887638D01*
X19643138Y-6887638D01*
X19643138Y-12448638D02*
X19643138Y-12222362D01*
X19416862Y-12222362D01*
X19416862Y-12448638D01*
X19643138Y-12448638D01*
D11*
X18419440Y-14682929D02*
X18419440Y-14482929D01*
X18419440Y-14482929D02*
X18467059Y-14482929D01*
X18467059Y-14482929D02*
X18495631Y-14492453D01*
X18495631Y-14492453D02*
X18514679Y-14511500D01*
X18514679Y-14511500D02*
X18524202Y-14530548D01*
X18524202Y-14530548D02*
X18533726Y-14568643D01*
X18533726Y-14568643D02*
X18533726Y-14597214D01*
X18533726Y-14597214D02*
X18524202Y-14635310D01*
X18524202Y-14635310D02*
X18514679Y-14654357D01*
X18514679Y-14654357D02*
X18495631Y-14673405D01*
X18495631Y-14673405D02*
X18467059Y-14682929D01*
X18467059Y-14682929D02*
X18419440Y-14682929D01*
X18619440Y-14682929D02*
X18619440Y-14549595D01*
X18619440Y-14587691D02*
X18628964Y-14568643D01*
X18628964Y-14568643D02*
X18638488Y-14559119D01*
X18638488Y-14559119D02*
X18657536Y-14549595D01*
X18657536Y-14549595D02*
X18676583Y-14549595D01*
X18743250Y-14682929D02*
X18743250Y-14549595D01*
X18743250Y-14482929D02*
X18733726Y-14492453D01*
X18733726Y-14492453D02*
X18743250Y-14501976D01*
X18743250Y-14501976D02*
X18752774Y-14492453D01*
X18752774Y-14492453D02*
X18743250Y-14482929D01*
X18743250Y-14482929D02*
X18743250Y-14501976D01*
X18867059Y-14682929D02*
X18848012Y-14673405D01*
X18848012Y-14673405D02*
X18838488Y-14654357D01*
X18838488Y-14654357D02*
X18838488Y-14482929D01*
X18971821Y-14682929D02*
X18952774Y-14673405D01*
X18952774Y-14673405D02*
X18943250Y-14654357D01*
X18943250Y-14654357D02*
X18943250Y-14482929D01*
X19168012Y-14682929D02*
X19168012Y-14482929D01*
X19168012Y-14482929D02*
X19234679Y-14625786D01*
X19234679Y-14625786D02*
X19301345Y-14482929D01*
X19301345Y-14482929D02*
X19301345Y-14682929D01*
X19482298Y-14682929D02*
X19482298Y-14578167D01*
X19482298Y-14578167D02*
X19472774Y-14559119D01*
X19472774Y-14559119D02*
X19453726Y-14549595D01*
X19453726Y-14549595D02*
X19415631Y-14549595D01*
X19415631Y-14549595D02*
X19396583Y-14559119D01*
X19482298Y-14673405D02*
X19463250Y-14682929D01*
X19463250Y-14682929D02*
X19415631Y-14682929D01*
X19415631Y-14682929D02*
X19396583Y-14673405D01*
X19396583Y-14673405D02*
X19387059Y-14654357D01*
X19387059Y-14654357D02*
X19387059Y-14635310D01*
X19387059Y-14635310D02*
X19396583Y-14616262D01*
X19396583Y-14616262D02*
X19415631Y-14606738D01*
X19415631Y-14606738D02*
X19463250Y-14606738D01*
X19463250Y-14606738D02*
X19482298Y-14597214D01*
X19577536Y-14549595D02*
X19577536Y-14749595D01*
X19577536Y-14559119D02*
X19596583Y-14549595D01*
X19596583Y-14549595D02*
X19634679Y-14549595D01*
X19634679Y-14549595D02*
X19653726Y-14559119D01*
X19653726Y-14559119D02*
X19663250Y-14568643D01*
X19663250Y-14568643D02*
X19672774Y-14587691D01*
X19672774Y-14587691D02*
X19672774Y-14644833D01*
X19672774Y-14644833D02*
X19663250Y-14663881D01*
X19663250Y-14663881D02*
X19653726Y-14673405D01*
X19653726Y-14673405D02*
X19634679Y-14682929D01*
X19634679Y-14682929D02*
X19596583Y-14682929D01*
X19596583Y-14682929D02*
X19577536Y-14673405D01*
X19758488Y-14663881D02*
X19768012Y-14673405D01*
X19768012Y-14673405D02*
X19758488Y-14682929D01*
X19758488Y-14682929D02*
X19748964Y-14673405D01*
X19748964Y-14673405D02*
X19758488Y-14663881D01*
X19758488Y-14663881D02*
X19758488Y-14682929D01*
X19758488Y-14559119D02*
X19768012Y-14568643D01*
X19768012Y-14568643D02*
X19758488Y-14578167D01*
X19758488Y-14578167D02*
X19748964Y-14568643D01*
X19748964Y-14568643D02*
X19758488Y-14559119D01*
X19758488Y-14559119D02*
X19758488Y-14578167D01*
D12*
X18106821Y-14996953D02*
X18171821Y-15061953D01*
X18171821Y-14996953D02*
X18106821Y-15061953D01*
D11*
X18457536Y-14902929D02*
X18476583Y-14902929D01*
X18476583Y-14902929D02*
X18495631Y-14912453D01*
X18495631Y-14912453D02*
X18505155Y-14921976D01*
X18505155Y-14921976D02*
X18514679Y-14941024D01*
X18514679Y-14941024D02*
X18524202Y-14979119D01*
X18524202Y-14979119D02*
X18524202Y-15026738D01*
X18524202Y-15026738D02*
X18514679Y-15064833D01*
X18514679Y-15064833D02*
X18505155Y-15083881D01*
X18505155Y-15083881D02*
X18495631Y-15093405D01*
X18495631Y-15093405D02*
X18476583Y-15102929D01*
X18476583Y-15102929D02*
X18457536Y-15102929D01*
X18457536Y-15102929D02*
X18438488Y-15093405D01*
X18438488Y-15093405D02*
X18428964Y-15083881D01*
X18428964Y-15083881D02*
X18419440Y-15064833D01*
X18419440Y-15064833D02*
X18409917Y-15026738D01*
X18409917Y-15026738D02*
X18409917Y-14979119D01*
X18409917Y-14979119D02*
X18419440Y-14941024D01*
X18419440Y-14941024D02*
X18428964Y-14921976D01*
X18428964Y-14921976D02*
X18438488Y-14912453D01*
X18438488Y-14912453D02*
X18457536Y-14902929D01*
X18609917Y-15083881D02*
X18619440Y-15093405D01*
X18619440Y-15093405D02*
X18609917Y-15102929D01*
X18609917Y-15102929D02*
X18600393Y-15093405D01*
X18600393Y-15093405D02*
X18609917Y-15083881D01*
X18609917Y-15083881D02*
X18609917Y-15102929D01*
X18790869Y-14902929D02*
X18752774Y-14902929D01*
X18752774Y-14902929D02*
X18733726Y-14912453D01*
X18733726Y-14912453D02*
X18724202Y-14921976D01*
X18724202Y-14921976D02*
X18705155Y-14950548D01*
X18705155Y-14950548D02*
X18695631Y-14988643D01*
X18695631Y-14988643D02*
X18695631Y-15064833D01*
X18695631Y-15064833D02*
X18705155Y-15083881D01*
X18705155Y-15083881D02*
X18714679Y-15093405D01*
X18714679Y-15093405D02*
X18733726Y-15102929D01*
X18733726Y-15102929D02*
X18771821Y-15102929D01*
X18771821Y-15102929D02*
X18790869Y-15093405D01*
X18790869Y-15093405D02*
X18800393Y-15083881D01*
X18800393Y-15083881D02*
X18809917Y-15064833D01*
X18809917Y-15064833D02*
X18809917Y-15017214D01*
X18809917Y-15017214D02*
X18800393Y-14998167D01*
X18800393Y-14998167D02*
X18790869Y-14988643D01*
X18790869Y-14988643D02*
X18771821Y-14979119D01*
X18771821Y-14979119D02*
X18733726Y-14979119D01*
X18733726Y-14979119D02*
X18714679Y-14988643D01*
X18714679Y-14988643D02*
X18705155Y-14998167D01*
X18705155Y-14998167D02*
X18695631Y-15017214D01*
X18990869Y-14902929D02*
X18895631Y-14902929D01*
X18895631Y-14902929D02*
X18886107Y-14998167D01*
X18886107Y-14998167D02*
X18895631Y-14988643D01*
X18895631Y-14988643D02*
X18914679Y-14979119D01*
X18914679Y-14979119D02*
X18962298Y-14979119D01*
X18962298Y-14979119D02*
X18981345Y-14988643D01*
X18981345Y-14988643D02*
X18990869Y-14998167D01*
X18990869Y-14998167D02*
X19000393Y-15017214D01*
X19000393Y-15017214D02*
X19000393Y-15064833D01*
X19000393Y-15064833D02*
X18990869Y-15083881D01*
X18990869Y-15083881D02*
X18981345Y-15093405D01*
X18981345Y-15093405D02*
X18962298Y-15102929D01*
X18962298Y-15102929D02*
X18914679Y-15102929D01*
X18914679Y-15102929D02*
X18895631Y-15093405D01*
X18895631Y-15093405D02*
X18886107Y-15083881D01*
X19124202Y-14902929D02*
X19143250Y-14902929D01*
X19143250Y-14902929D02*
X19162298Y-14912453D01*
X19162298Y-14912453D02*
X19171821Y-14921976D01*
X19171821Y-14921976D02*
X19181345Y-14941024D01*
X19181345Y-14941024D02*
X19190869Y-14979119D01*
X19190869Y-14979119D02*
X19190869Y-15026738D01*
X19190869Y-15026738D02*
X19181345Y-15064833D01*
X19181345Y-15064833D02*
X19171821Y-15083881D01*
X19171821Y-15083881D02*
X19162298Y-15093405D01*
X19162298Y-15093405D02*
X19143250Y-15102929D01*
X19143250Y-15102929D02*
X19124202Y-15102929D01*
X19124202Y-15102929D02*
X19105155Y-15093405D01*
X19105155Y-15093405D02*
X19095631Y-15083881D01*
X19095631Y-15083881D02*
X19086107Y-15064833D01*
X19086107Y-15064833D02*
X19076583Y-15026738D01*
X19076583Y-15026738D02*
X19076583Y-14979119D01*
X19076583Y-14979119D02*
X19086107Y-14941024D01*
X19086107Y-14941024D02*
X19095631Y-14921976D01*
X19095631Y-14921976D02*
X19105155Y-14912453D01*
X19105155Y-14912453D02*
X19124202Y-14902929D01*
X19276583Y-15102929D02*
X19276583Y-14969595D01*
X19276583Y-14988643D02*
X19286107Y-14979119D01*
X19286107Y-14979119D02*
X19305155Y-14969595D01*
X19305155Y-14969595D02*
X19333726Y-14969595D01*
X19333726Y-14969595D02*
X19352774Y-14979119D01*
X19352774Y-14979119D02*
X19362298Y-14998167D01*
X19362298Y-14998167D02*
X19362298Y-15102929D01*
X19362298Y-14998167D02*
X19371821Y-14979119D01*
X19371821Y-14979119D02*
X19390869Y-14969595D01*
X19390869Y-14969595D02*
X19419440Y-14969595D01*
X19419440Y-14969595D02*
X19438488Y-14979119D01*
X19438488Y-14979119D02*
X19448012Y-14998167D01*
X19448012Y-14998167D02*
X19448012Y-15102929D01*
X19543250Y-15102929D02*
X19543250Y-14969595D01*
X19543250Y-14988643D02*
X19552774Y-14979119D01*
X19552774Y-14979119D02*
X19571821Y-14969595D01*
X19571821Y-14969595D02*
X19600393Y-14969595D01*
X19600393Y-14969595D02*
X19619441Y-14979119D01*
X19619441Y-14979119D02*
X19628964Y-14998167D01*
X19628964Y-14998167D02*
X19628964Y-15102929D01*
X19628964Y-14998167D02*
X19638488Y-14979119D01*
X19638488Y-14979119D02*
X19657536Y-14969595D01*
X19657536Y-14969595D02*
X19686107Y-14969595D01*
X19686107Y-14969595D02*
X19705155Y-14979119D01*
X19705155Y-14979119D02*
X19714679Y-14998167D01*
X19714679Y-14998167D02*
X19714679Y-15102929D01*
X20072774Y-14893405D02*
X19901345Y-15150548D01*
X20297536Y-14902929D02*
X20316583Y-14902929D01*
X20316583Y-14902929D02*
X20335631Y-14912453D01*
X20335631Y-14912453D02*
X20345155Y-14921976D01*
X20345155Y-14921976D02*
X20354679Y-14941024D01*
X20354679Y-14941024D02*
X20364202Y-14979119D01*
X20364202Y-14979119D02*
X20364202Y-15026738D01*
X20364202Y-15026738D02*
X20354679Y-15064833D01*
X20354679Y-15064833D02*
X20345155Y-15083881D01*
X20345155Y-15083881D02*
X20335631Y-15093405D01*
X20335631Y-15093405D02*
X20316583Y-15102929D01*
X20316583Y-15102929D02*
X20297536Y-15102929D01*
X20297536Y-15102929D02*
X20278488Y-15093405D01*
X20278488Y-15093405D02*
X20268964Y-15083881D01*
X20268964Y-15083881D02*
X20259441Y-15064833D01*
X20259441Y-15064833D02*
X20249917Y-15026738D01*
X20249917Y-15026738D02*
X20249917Y-14979119D01*
X20249917Y-14979119D02*
X20259441Y-14941024D01*
X20259441Y-14941024D02*
X20268964Y-14921976D01*
X20268964Y-14921976D02*
X20278488Y-14912453D01*
X20278488Y-14912453D02*
X20297536Y-14902929D01*
X20449917Y-15083881D02*
X20459441Y-15093405D01*
X20459441Y-15093405D02*
X20449917Y-15102929D01*
X20449917Y-15102929D02*
X20440393Y-15093405D01*
X20440393Y-15093405D02*
X20449917Y-15083881D01*
X20449917Y-15083881D02*
X20449917Y-15102929D01*
X20583250Y-14902929D02*
X20602298Y-14902929D01*
X20602298Y-14902929D02*
X20621345Y-14912453D01*
X20621345Y-14912453D02*
X20630869Y-14921976D01*
X20630869Y-14921976D02*
X20640393Y-14941024D01*
X20640393Y-14941024D02*
X20649917Y-14979119D01*
X20649917Y-14979119D02*
X20649917Y-15026738D01*
X20649917Y-15026738D02*
X20640393Y-15064833D01*
X20640393Y-15064833D02*
X20630869Y-15083881D01*
X20630869Y-15083881D02*
X20621345Y-15093405D01*
X20621345Y-15093405D02*
X20602298Y-15102929D01*
X20602298Y-15102929D02*
X20583250Y-15102929D01*
X20583250Y-15102929D02*
X20564202Y-15093405D01*
X20564202Y-15093405D02*
X20554679Y-15083881D01*
X20554679Y-15083881D02*
X20545155Y-15064833D01*
X20545155Y-15064833D02*
X20535631Y-15026738D01*
X20535631Y-15026738D02*
X20535631Y-14979119D01*
X20535631Y-14979119D02*
X20545155Y-14941024D01*
X20545155Y-14941024D02*
X20554679Y-14921976D01*
X20554679Y-14921976D02*
X20564202Y-14912453D01*
X20564202Y-14912453D02*
X20583250Y-14902929D01*
X20726107Y-14921976D02*
X20735631Y-14912453D01*
X20735631Y-14912453D02*
X20754679Y-14902929D01*
X20754679Y-14902929D02*
X20802298Y-14902929D01*
X20802298Y-14902929D02*
X20821345Y-14912453D01*
X20821345Y-14912453D02*
X20830869Y-14921976D01*
X20830869Y-14921976D02*
X20840393Y-14941024D01*
X20840393Y-14941024D02*
X20840393Y-14960072D01*
X20840393Y-14960072D02*
X20830869Y-14988643D01*
X20830869Y-14988643D02*
X20716583Y-15102929D01*
X20716583Y-15102929D02*
X20840393Y-15102929D01*
X21021345Y-14902929D02*
X20926107Y-14902929D01*
X20926107Y-14902929D02*
X20916583Y-14998167D01*
X20916583Y-14998167D02*
X20926107Y-14988643D01*
X20926107Y-14988643D02*
X20945155Y-14979119D01*
X20945155Y-14979119D02*
X20992774Y-14979119D01*
X20992774Y-14979119D02*
X21011822Y-14988643D01*
X21011822Y-14988643D02*
X21021345Y-14998167D01*
X21021345Y-14998167D02*
X21030869Y-15017214D01*
X21030869Y-15017214D02*
X21030869Y-15064833D01*
X21030869Y-15064833D02*
X21021345Y-15083881D01*
X21021345Y-15083881D02*
X21011822Y-15093405D01*
X21011822Y-15093405D02*
X20992774Y-15102929D01*
X20992774Y-15102929D02*
X20945155Y-15102929D01*
X20945155Y-15102929D02*
X20926107Y-15093405D01*
X20926107Y-15093405D02*
X20916583Y-15083881D01*
X21202298Y-14902929D02*
X21164202Y-14902929D01*
X21164202Y-14902929D02*
X21145155Y-14912453D01*
X21145155Y-14912453D02*
X21135631Y-14921976D01*
X21135631Y-14921976D02*
X21116583Y-14950548D01*
X21116583Y-14950548D02*
X21107060Y-14988643D01*
X21107060Y-14988643D02*
X21107060Y-15064833D01*
X21107060Y-15064833D02*
X21116583Y-15083881D01*
X21116583Y-15083881D02*
X21126107Y-15093405D01*
X21126107Y-15093405D02*
X21145155Y-15102929D01*
X21145155Y-15102929D02*
X21183250Y-15102929D01*
X21183250Y-15102929D02*
X21202298Y-15093405D01*
X21202298Y-15093405D02*
X21211822Y-15083881D01*
X21211822Y-15083881D02*
X21221345Y-15064833D01*
X21221345Y-15064833D02*
X21221345Y-15017214D01*
X21221345Y-15017214D02*
X21211822Y-14998167D01*
X21211822Y-14998167D02*
X21202298Y-14988643D01*
X21202298Y-14988643D02*
X21183250Y-14979119D01*
X21183250Y-14979119D02*
X21145155Y-14979119D01*
X21145155Y-14979119D02*
X21126107Y-14988643D01*
X21126107Y-14988643D02*
X21116583Y-14998167D01*
X21116583Y-14998167D02*
X21107060Y-15017214D01*
X21297536Y-14902929D02*
X21297536Y-14941024D01*
X21373726Y-14902929D02*
X21373726Y-14941024D01*
X21636584Y-15179119D02*
X21627060Y-15169595D01*
X21627060Y-15169595D02*
X21608012Y-15141024D01*
X21608012Y-15141024D02*
X21598488Y-15121976D01*
X21598488Y-15121976D02*
X21588964Y-15093405D01*
X21588964Y-15093405D02*
X21579441Y-15045786D01*
X21579441Y-15045786D02*
X21579441Y-15007691D01*
X21579441Y-15007691D02*
X21588964Y-14960072D01*
X21588964Y-14960072D02*
X21598488Y-14931500D01*
X21598488Y-14931500D02*
X21608012Y-14912453D01*
X21608012Y-14912453D02*
X21627060Y-14883881D01*
X21627060Y-14883881D02*
X21636584Y-14874357D01*
X21703250Y-14921976D02*
X21712774Y-14912453D01*
X21712774Y-14912453D02*
X21731822Y-14902929D01*
X21731822Y-14902929D02*
X21779441Y-14902929D01*
X21779441Y-14902929D02*
X21798488Y-14912453D01*
X21798488Y-14912453D02*
X21808012Y-14921976D01*
X21808012Y-14921976D02*
X21817536Y-14941024D01*
X21817536Y-14941024D02*
X21817536Y-14960072D01*
X21817536Y-14960072D02*
X21808012Y-14988643D01*
X21808012Y-14988643D02*
X21693726Y-15102929D01*
X21693726Y-15102929D02*
X21817536Y-15102929D01*
X22023250Y-15102929D02*
X22023250Y-14902929D01*
X22108964Y-15102929D02*
X22108964Y-14998167D01*
X22108964Y-14998167D02*
X22099441Y-14979119D01*
X22099441Y-14979119D02*
X22080393Y-14969595D01*
X22080393Y-14969595D02*
X22051822Y-14969595D01*
X22051822Y-14969595D02*
X22032774Y-14979119D01*
X22032774Y-14979119D02*
X22023250Y-14988643D01*
X22232774Y-15102929D02*
X22213726Y-15093405D01*
X22213726Y-15093405D02*
X22204203Y-15083881D01*
X22204203Y-15083881D02*
X22194679Y-15064833D01*
X22194679Y-15064833D02*
X22194679Y-15007691D01*
X22194679Y-15007691D02*
X22204203Y-14988643D01*
X22204203Y-14988643D02*
X22213726Y-14979119D01*
X22213726Y-14979119D02*
X22232774Y-14969595D01*
X22232774Y-14969595D02*
X22261345Y-14969595D01*
X22261345Y-14969595D02*
X22280393Y-14979119D01*
X22280393Y-14979119D02*
X22289917Y-14988643D01*
X22289917Y-14988643D02*
X22299441Y-15007691D01*
X22299441Y-15007691D02*
X22299441Y-15064833D01*
X22299441Y-15064833D02*
X22289917Y-15083881D01*
X22289917Y-15083881D02*
X22280393Y-15093405D01*
X22280393Y-15093405D02*
X22261345Y-15102929D01*
X22261345Y-15102929D02*
X22232774Y-15102929D01*
X22413726Y-15102929D02*
X22394679Y-15093405D01*
X22394679Y-15093405D02*
X22385155Y-15074357D01*
X22385155Y-15074357D02*
X22385155Y-14902929D01*
X22566107Y-15093405D02*
X22547060Y-15102929D01*
X22547060Y-15102929D02*
X22508964Y-15102929D01*
X22508964Y-15102929D02*
X22489917Y-15093405D01*
X22489917Y-15093405D02*
X22480393Y-15074357D01*
X22480393Y-15074357D02*
X22480393Y-14998167D01*
X22480393Y-14998167D02*
X22489917Y-14979119D01*
X22489917Y-14979119D02*
X22508964Y-14969595D01*
X22508964Y-14969595D02*
X22547060Y-14969595D01*
X22547060Y-14969595D02*
X22566107Y-14979119D01*
X22566107Y-14979119D02*
X22575631Y-14998167D01*
X22575631Y-14998167D02*
X22575631Y-15017214D01*
X22575631Y-15017214D02*
X22480393Y-15036262D01*
X22651822Y-15093405D02*
X22670869Y-15102929D01*
X22670869Y-15102929D02*
X22708964Y-15102929D01*
X22708964Y-15102929D02*
X22728012Y-15093405D01*
X22728012Y-15093405D02*
X22737536Y-15074357D01*
X22737536Y-15074357D02*
X22737536Y-15064833D01*
X22737536Y-15064833D02*
X22728012Y-15045786D01*
X22728012Y-15045786D02*
X22708964Y-15036262D01*
X22708964Y-15036262D02*
X22680393Y-15036262D01*
X22680393Y-15036262D02*
X22661345Y-15026738D01*
X22661345Y-15026738D02*
X22651822Y-15007691D01*
X22651822Y-15007691D02*
X22651822Y-14998167D01*
X22651822Y-14998167D02*
X22661345Y-14979119D01*
X22661345Y-14979119D02*
X22680393Y-14969595D01*
X22680393Y-14969595D02*
X22708964Y-14969595D01*
X22708964Y-14969595D02*
X22728012Y-14979119D01*
X22804203Y-15179119D02*
X22813726Y-15169595D01*
X22813726Y-15169595D02*
X22832774Y-15141024D01*
X22832774Y-15141024D02*
X22842298Y-15121976D01*
X22842298Y-15121976D02*
X22851822Y-15093405D01*
X22851822Y-15093405D02*
X22861345Y-15045786D01*
X22861345Y-15045786D02*
X22861345Y-15007691D01*
X22861345Y-15007691D02*
X22851822Y-14960072D01*
X22851822Y-14960072D02*
X22842298Y-14931500D01*
X22842298Y-14931500D02*
X22832774Y-14912453D01*
X22832774Y-14912453D02*
X22813726Y-14883881D01*
X22813726Y-14883881D02*
X22804203Y-14874357D01*
X23133726Y-15179119D02*
X23124202Y-15169595D01*
X23124202Y-15169595D02*
X23105155Y-15141024D01*
X23105155Y-15141024D02*
X23095631Y-15121976D01*
X23095631Y-15121976D02*
X23086107Y-15093405D01*
X23086107Y-15093405D02*
X23076583Y-15045786D01*
X23076583Y-15045786D02*
X23076583Y-15007691D01*
X23076583Y-15007691D02*
X23086107Y-14960072D01*
X23086107Y-14960072D02*
X23095631Y-14931500D01*
X23095631Y-14931500D02*
X23105155Y-14912453D01*
X23105155Y-14912453D02*
X23124202Y-14883881D01*
X23124202Y-14883881D02*
X23133726Y-14874357D01*
X23209917Y-14969595D02*
X23209917Y-15102929D01*
X23209917Y-14988643D02*
X23219441Y-14979119D01*
X23219441Y-14979119D02*
X23238488Y-14969595D01*
X23238488Y-14969595D02*
X23267060Y-14969595D01*
X23267060Y-14969595D02*
X23286107Y-14979119D01*
X23286107Y-14979119D02*
X23295631Y-14998167D01*
X23295631Y-14998167D02*
X23295631Y-15102929D01*
X23419441Y-15102929D02*
X23400393Y-15093405D01*
X23400393Y-15093405D02*
X23390869Y-15083881D01*
X23390869Y-15083881D02*
X23381345Y-15064833D01*
X23381345Y-15064833D02*
X23381345Y-15007691D01*
X23381345Y-15007691D02*
X23390869Y-14988643D01*
X23390869Y-14988643D02*
X23400393Y-14979119D01*
X23400393Y-14979119D02*
X23419441Y-14969595D01*
X23419441Y-14969595D02*
X23448012Y-14969595D01*
X23448012Y-14969595D02*
X23467060Y-14979119D01*
X23467060Y-14979119D02*
X23476583Y-14988643D01*
X23476583Y-14988643D02*
X23486107Y-15007691D01*
X23486107Y-15007691D02*
X23486107Y-15064833D01*
X23486107Y-15064833D02*
X23476583Y-15083881D01*
X23476583Y-15083881D02*
X23467060Y-15093405D01*
X23467060Y-15093405D02*
X23448012Y-15102929D01*
X23448012Y-15102929D02*
X23419441Y-15102929D01*
X23543250Y-14969595D02*
X23619441Y-14969595D01*
X23571822Y-14902929D02*
X23571822Y-15074357D01*
X23571822Y-15074357D02*
X23581345Y-15093405D01*
X23581345Y-15093405D02*
X23600393Y-15102929D01*
X23600393Y-15102929D02*
X23619441Y-15102929D01*
X23806107Y-14969595D02*
X23806107Y-15169595D01*
X23806107Y-14979119D02*
X23825155Y-14969595D01*
X23825155Y-14969595D02*
X23863250Y-14969595D01*
X23863250Y-14969595D02*
X23882298Y-14979119D01*
X23882298Y-14979119D02*
X23891822Y-14988643D01*
X23891822Y-14988643D02*
X23901345Y-15007691D01*
X23901345Y-15007691D02*
X23901345Y-15064833D01*
X23901345Y-15064833D02*
X23891822Y-15083881D01*
X23891822Y-15083881D02*
X23882298Y-15093405D01*
X23882298Y-15093405D02*
X23863250Y-15102929D01*
X23863250Y-15102929D02*
X23825155Y-15102929D01*
X23825155Y-15102929D02*
X23806107Y-15093405D01*
X24015631Y-15102929D02*
X23996583Y-15093405D01*
X23996583Y-15093405D02*
X23987060Y-15074357D01*
X23987060Y-15074357D02*
X23987060Y-14902929D01*
X24177536Y-15102929D02*
X24177536Y-14998167D01*
X24177536Y-14998167D02*
X24168012Y-14979119D01*
X24168012Y-14979119D02*
X24148964Y-14969595D01*
X24148964Y-14969595D02*
X24110869Y-14969595D01*
X24110869Y-14969595D02*
X24091822Y-14979119D01*
X24177536Y-15093405D02*
X24158488Y-15102929D01*
X24158488Y-15102929D02*
X24110869Y-15102929D01*
X24110869Y-15102929D02*
X24091822Y-15093405D01*
X24091822Y-15093405D02*
X24082298Y-15074357D01*
X24082298Y-15074357D02*
X24082298Y-15055310D01*
X24082298Y-15055310D02*
X24091822Y-15036262D01*
X24091822Y-15036262D02*
X24110869Y-15026738D01*
X24110869Y-15026738D02*
X24158488Y-15026738D01*
X24158488Y-15026738D02*
X24177536Y-15017214D01*
X24244203Y-14969595D02*
X24320393Y-14969595D01*
X24272774Y-14902929D02*
X24272774Y-15074357D01*
X24272774Y-15074357D02*
X24282298Y-15093405D01*
X24282298Y-15093405D02*
X24301345Y-15102929D01*
X24301345Y-15102929D02*
X24320393Y-15102929D01*
X24463250Y-15093405D02*
X24444203Y-15102929D01*
X24444203Y-15102929D02*
X24406107Y-15102929D01*
X24406107Y-15102929D02*
X24387060Y-15093405D01*
X24387060Y-15093405D02*
X24377536Y-15074357D01*
X24377536Y-15074357D02*
X24377536Y-14998167D01*
X24377536Y-14998167D02*
X24387060Y-14979119D01*
X24387060Y-14979119D02*
X24406107Y-14969595D01*
X24406107Y-14969595D02*
X24444203Y-14969595D01*
X24444203Y-14969595D02*
X24463250Y-14979119D01*
X24463250Y-14979119D02*
X24472774Y-14998167D01*
X24472774Y-14998167D02*
X24472774Y-15017214D01*
X24472774Y-15017214D02*
X24377536Y-15036262D01*
X24644203Y-15102929D02*
X24644203Y-14902929D01*
X24644203Y-15093405D02*
X24625155Y-15102929D01*
X24625155Y-15102929D02*
X24587060Y-15102929D01*
X24587060Y-15102929D02*
X24568012Y-15093405D01*
X24568012Y-15093405D02*
X24558488Y-15083881D01*
X24558488Y-15083881D02*
X24548964Y-15064833D01*
X24548964Y-15064833D02*
X24548964Y-15007691D01*
X24548964Y-15007691D02*
X24558488Y-14988643D01*
X24558488Y-14988643D02*
X24568012Y-14979119D01*
X24568012Y-14979119D02*
X24587060Y-14969595D01*
X24587060Y-14969595D02*
X24625155Y-14969595D01*
X24625155Y-14969595D02*
X24644203Y-14979119D01*
X24720393Y-15179119D02*
X24729917Y-15169595D01*
X24729917Y-15169595D02*
X24748964Y-15141024D01*
X24748964Y-15141024D02*
X24758488Y-15121976D01*
X24758488Y-15121976D02*
X24768012Y-15093405D01*
X24768012Y-15093405D02*
X24777536Y-15045786D01*
X24777536Y-15045786D02*
X24777536Y-15007691D01*
X24777536Y-15007691D02*
X24768012Y-14960072D01*
X24768012Y-14960072D02*
X24758488Y-14931500D01*
X24758488Y-14931500D02*
X24748964Y-14912453D01*
X24748964Y-14912453D02*
X24729917Y-14883881D01*
X24729917Y-14883881D02*
X24720393Y-14874357D01*
D13*
X18171821Y-15293453D02*
G75*
G03*
X18171821Y-15293453I-49530J0D01*
G01*
D11*
X18457536Y-15166929D02*
X18476583Y-15166929D01*
X18476583Y-15166929D02*
X18495631Y-15176453D01*
X18495631Y-15176453D02*
X18505155Y-15185976D01*
X18505155Y-15185976D02*
X18514679Y-15205024D01*
X18514679Y-15205024D02*
X18524202Y-15243119D01*
X18524202Y-15243119D02*
X18524202Y-15290738D01*
X18524202Y-15290738D02*
X18514679Y-15328833D01*
X18514679Y-15328833D02*
X18505155Y-15347881D01*
X18505155Y-15347881D02*
X18495631Y-15357405D01*
X18495631Y-15357405D02*
X18476583Y-15366929D01*
X18476583Y-15366929D02*
X18457536Y-15366929D01*
X18457536Y-15366929D02*
X18438488Y-15357405D01*
X18438488Y-15357405D02*
X18428964Y-15347881D01*
X18428964Y-15347881D02*
X18419440Y-15328833D01*
X18419440Y-15328833D02*
X18409917Y-15290738D01*
X18409917Y-15290738D02*
X18409917Y-15243119D01*
X18409917Y-15243119D02*
X18419440Y-15205024D01*
X18419440Y-15205024D02*
X18428964Y-15185976D01*
X18428964Y-15185976D02*
X18438488Y-15176453D01*
X18438488Y-15176453D02*
X18457536Y-15166929D01*
X18609917Y-15347881D02*
X18619440Y-15357405D01*
X18619440Y-15357405D02*
X18609917Y-15366929D01*
X18609917Y-15366929D02*
X18600393Y-15357405D01*
X18600393Y-15357405D02*
X18609917Y-15347881D01*
X18609917Y-15347881D02*
X18609917Y-15366929D01*
X18714679Y-15366929D02*
X18752774Y-15366929D01*
X18752774Y-15366929D02*
X18771821Y-15357405D01*
X18771821Y-15357405D02*
X18781345Y-15347881D01*
X18781345Y-15347881D02*
X18800393Y-15319310D01*
X18800393Y-15319310D02*
X18809917Y-15281214D01*
X18809917Y-15281214D02*
X18809917Y-15205024D01*
X18809917Y-15205024D02*
X18800393Y-15185976D01*
X18800393Y-15185976D02*
X18790869Y-15176453D01*
X18790869Y-15176453D02*
X18771821Y-15166929D01*
X18771821Y-15166929D02*
X18733726Y-15166929D01*
X18733726Y-15166929D02*
X18714679Y-15176453D01*
X18714679Y-15176453D02*
X18705155Y-15185976D01*
X18705155Y-15185976D02*
X18695631Y-15205024D01*
X18695631Y-15205024D02*
X18695631Y-15252643D01*
X18695631Y-15252643D02*
X18705155Y-15271691D01*
X18705155Y-15271691D02*
X18714679Y-15281214D01*
X18714679Y-15281214D02*
X18733726Y-15290738D01*
X18733726Y-15290738D02*
X18771821Y-15290738D01*
X18771821Y-15290738D02*
X18790869Y-15281214D01*
X18790869Y-15281214D02*
X18800393Y-15271691D01*
X18800393Y-15271691D02*
X18809917Y-15252643D01*
X18905155Y-15366929D02*
X18943250Y-15366929D01*
X18943250Y-15366929D02*
X18962298Y-15357405D01*
X18962298Y-15357405D02*
X18971821Y-15347881D01*
X18971821Y-15347881D02*
X18990869Y-15319310D01*
X18990869Y-15319310D02*
X19000393Y-15281214D01*
X19000393Y-15281214D02*
X19000393Y-15205024D01*
X19000393Y-15205024D02*
X18990869Y-15185976D01*
X18990869Y-15185976D02*
X18981345Y-15176453D01*
X18981345Y-15176453D02*
X18962298Y-15166929D01*
X18962298Y-15166929D02*
X18924202Y-15166929D01*
X18924202Y-15166929D02*
X18905155Y-15176453D01*
X18905155Y-15176453D02*
X18895631Y-15185976D01*
X18895631Y-15185976D02*
X18886107Y-15205024D01*
X18886107Y-15205024D02*
X18886107Y-15252643D01*
X18886107Y-15252643D02*
X18895631Y-15271691D01*
X18895631Y-15271691D02*
X18905155Y-15281214D01*
X18905155Y-15281214D02*
X18924202Y-15290738D01*
X18924202Y-15290738D02*
X18962298Y-15290738D01*
X18962298Y-15290738D02*
X18981345Y-15281214D01*
X18981345Y-15281214D02*
X18990869Y-15271691D01*
X18990869Y-15271691D02*
X19000393Y-15252643D01*
X19190869Y-15366929D02*
X19076583Y-15366929D01*
X19133726Y-15366929D02*
X19133726Y-15166929D01*
X19133726Y-15166929D02*
X19114679Y-15195500D01*
X19114679Y-15195500D02*
X19095631Y-15214548D01*
X19095631Y-15214548D02*
X19076583Y-15224072D01*
X19276583Y-15366929D02*
X19276583Y-15233595D01*
X19276583Y-15252643D02*
X19286107Y-15243119D01*
X19286107Y-15243119D02*
X19305155Y-15233595D01*
X19305155Y-15233595D02*
X19333726Y-15233595D01*
X19333726Y-15233595D02*
X19352774Y-15243119D01*
X19352774Y-15243119D02*
X19362298Y-15262167D01*
X19362298Y-15262167D02*
X19362298Y-15366929D01*
X19362298Y-15262167D02*
X19371821Y-15243119D01*
X19371821Y-15243119D02*
X19390869Y-15233595D01*
X19390869Y-15233595D02*
X19419440Y-15233595D01*
X19419440Y-15233595D02*
X19438488Y-15243119D01*
X19438488Y-15243119D02*
X19448012Y-15262167D01*
X19448012Y-15262167D02*
X19448012Y-15366929D01*
X19543250Y-15366929D02*
X19543250Y-15233595D01*
X19543250Y-15252643D02*
X19552774Y-15243119D01*
X19552774Y-15243119D02*
X19571821Y-15233595D01*
X19571821Y-15233595D02*
X19600393Y-15233595D01*
X19600393Y-15233595D02*
X19619441Y-15243119D01*
X19619441Y-15243119D02*
X19628964Y-15262167D01*
X19628964Y-15262167D02*
X19628964Y-15366929D01*
X19628964Y-15262167D02*
X19638488Y-15243119D01*
X19638488Y-15243119D02*
X19657536Y-15233595D01*
X19657536Y-15233595D02*
X19686107Y-15233595D01*
X19686107Y-15233595D02*
X19705155Y-15243119D01*
X19705155Y-15243119D02*
X19714679Y-15262167D01*
X19714679Y-15262167D02*
X19714679Y-15366929D01*
X20072774Y-15157405D02*
X19901345Y-15414548D01*
X20297536Y-15166929D02*
X20316583Y-15166929D01*
X20316583Y-15166929D02*
X20335631Y-15176453D01*
X20335631Y-15176453D02*
X20345155Y-15185976D01*
X20345155Y-15185976D02*
X20354679Y-15205024D01*
X20354679Y-15205024D02*
X20364202Y-15243119D01*
X20364202Y-15243119D02*
X20364202Y-15290738D01*
X20364202Y-15290738D02*
X20354679Y-15328833D01*
X20354679Y-15328833D02*
X20345155Y-15347881D01*
X20345155Y-15347881D02*
X20335631Y-15357405D01*
X20335631Y-15357405D02*
X20316583Y-15366929D01*
X20316583Y-15366929D02*
X20297536Y-15366929D01*
X20297536Y-15366929D02*
X20278488Y-15357405D01*
X20278488Y-15357405D02*
X20268964Y-15347881D01*
X20268964Y-15347881D02*
X20259441Y-15328833D01*
X20259441Y-15328833D02*
X20249917Y-15290738D01*
X20249917Y-15290738D02*
X20249917Y-15243119D01*
X20249917Y-15243119D02*
X20259441Y-15205024D01*
X20259441Y-15205024D02*
X20268964Y-15185976D01*
X20268964Y-15185976D02*
X20278488Y-15176453D01*
X20278488Y-15176453D02*
X20297536Y-15166929D01*
X20449917Y-15347881D02*
X20459441Y-15357405D01*
X20459441Y-15357405D02*
X20449917Y-15366929D01*
X20449917Y-15366929D02*
X20440393Y-15357405D01*
X20440393Y-15357405D02*
X20449917Y-15347881D01*
X20449917Y-15347881D02*
X20449917Y-15366929D01*
X20583250Y-15166929D02*
X20602298Y-15166929D01*
X20602298Y-15166929D02*
X20621345Y-15176453D01*
X20621345Y-15176453D02*
X20630869Y-15185976D01*
X20630869Y-15185976D02*
X20640393Y-15205024D01*
X20640393Y-15205024D02*
X20649917Y-15243119D01*
X20649917Y-15243119D02*
X20649917Y-15290738D01*
X20649917Y-15290738D02*
X20640393Y-15328833D01*
X20640393Y-15328833D02*
X20630869Y-15347881D01*
X20630869Y-15347881D02*
X20621345Y-15357405D01*
X20621345Y-15357405D02*
X20602298Y-15366929D01*
X20602298Y-15366929D02*
X20583250Y-15366929D01*
X20583250Y-15366929D02*
X20564202Y-15357405D01*
X20564202Y-15357405D02*
X20554679Y-15347881D01*
X20554679Y-15347881D02*
X20545155Y-15328833D01*
X20545155Y-15328833D02*
X20535631Y-15290738D01*
X20535631Y-15290738D02*
X20535631Y-15243119D01*
X20535631Y-15243119D02*
X20545155Y-15205024D01*
X20545155Y-15205024D02*
X20554679Y-15185976D01*
X20554679Y-15185976D02*
X20564202Y-15176453D01*
X20564202Y-15176453D02*
X20583250Y-15166929D01*
X20716583Y-15166929D02*
X20840393Y-15166929D01*
X20840393Y-15166929D02*
X20773726Y-15243119D01*
X20773726Y-15243119D02*
X20802298Y-15243119D01*
X20802298Y-15243119D02*
X20821345Y-15252643D01*
X20821345Y-15252643D02*
X20830869Y-15262167D01*
X20830869Y-15262167D02*
X20840393Y-15281214D01*
X20840393Y-15281214D02*
X20840393Y-15328833D01*
X20840393Y-15328833D02*
X20830869Y-15347881D01*
X20830869Y-15347881D02*
X20821345Y-15357405D01*
X20821345Y-15357405D02*
X20802298Y-15366929D01*
X20802298Y-15366929D02*
X20745155Y-15366929D01*
X20745155Y-15366929D02*
X20726107Y-15357405D01*
X20726107Y-15357405D02*
X20716583Y-15347881D01*
X20935631Y-15366929D02*
X20973726Y-15366929D01*
X20973726Y-15366929D02*
X20992774Y-15357405D01*
X20992774Y-15357405D02*
X21002298Y-15347881D01*
X21002298Y-15347881D02*
X21021345Y-15319310D01*
X21021345Y-15319310D02*
X21030869Y-15281214D01*
X21030869Y-15281214D02*
X21030869Y-15205024D01*
X21030869Y-15205024D02*
X21021345Y-15185976D01*
X21021345Y-15185976D02*
X21011822Y-15176453D01*
X21011822Y-15176453D02*
X20992774Y-15166929D01*
X20992774Y-15166929D02*
X20954679Y-15166929D01*
X20954679Y-15166929D02*
X20935631Y-15176453D01*
X20935631Y-15176453D02*
X20926107Y-15185976D01*
X20926107Y-15185976D02*
X20916583Y-15205024D01*
X20916583Y-15205024D02*
X20916583Y-15252643D01*
X20916583Y-15252643D02*
X20926107Y-15271691D01*
X20926107Y-15271691D02*
X20935631Y-15281214D01*
X20935631Y-15281214D02*
X20954679Y-15290738D01*
X20954679Y-15290738D02*
X20992774Y-15290738D01*
X20992774Y-15290738D02*
X21011822Y-15281214D01*
X21011822Y-15281214D02*
X21021345Y-15271691D01*
X21021345Y-15271691D02*
X21030869Y-15252643D01*
X21154679Y-15166929D02*
X21173726Y-15166929D01*
X21173726Y-15166929D02*
X21192774Y-15176453D01*
X21192774Y-15176453D02*
X21202298Y-15185976D01*
X21202298Y-15185976D02*
X21211822Y-15205024D01*
X21211822Y-15205024D02*
X21221345Y-15243119D01*
X21221345Y-15243119D02*
X21221345Y-15290738D01*
X21221345Y-15290738D02*
X21211822Y-15328833D01*
X21211822Y-15328833D02*
X21202298Y-15347881D01*
X21202298Y-15347881D02*
X21192774Y-15357405D01*
X21192774Y-15357405D02*
X21173726Y-15366929D01*
X21173726Y-15366929D02*
X21154679Y-15366929D01*
X21154679Y-15366929D02*
X21135631Y-15357405D01*
X21135631Y-15357405D02*
X21126107Y-15347881D01*
X21126107Y-15347881D02*
X21116583Y-15328833D01*
X21116583Y-15328833D02*
X21107060Y-15290738D01*
X21107060Y-15290738D02*
X21107060Y-15243119D01*
X21107060Y-15243119D02*
X21116583Y-15205024D01*
X21116583Y-15205024D02*
X21126107Y-15185976D01*
X21126107Y-15185976D02*
X21135631Y-15176453D01*
X21135631Y-15176453D02*
X21154679Y-15166929D01*
X21297536Y-15166929D02*
X21297536Y-15205024D01*
X21373726Y-15166929D02*
X21373726Y-15205024D01*
X21636584Y-15443119D02*
X21627060Y-15433595D01*
X21627060Y-15433595D02*
X21608012Y-15405024D01*
X21608012Y-15405024D02*
X21598488Y-15385976D01*
X21598488Y-15385976D02*
X21588964Y-15357405D01*
X21588964Y-15357405D02*
X21579441Y-15309786D01*
X21579441Y-15309786D02*
X21579441Y-15271691D01*
X21579441Y-15271691D02*
X21588964Y-15224072D01*
X21588964Y-15224072D02*
X21598488Y-15195500D01*
X21598488Y-15195500D02*
X21608012Y-15176453D01*
X21608012Y-15176453D02*
X21627060Y-15147881D01*
X21627060Y-15147881D02*
X21636584Y-15138357D01*
X21693726Y-15166929D02*
X21817536Y-15166929D01*
X21817536Y-15166929D02*
X21750869Y-15243119D01*
X21750869Y-15243119D02*
X21779441Y-15243119D01*
X21779441Y-15243119D02*
X21798488Y-15252643D01*
X21798488Y-15252643D02*
X21808012Y-15262167D01*
X21808012Y-15262167D02*
X21817536Y-15281214D01*
X21817536Y-15281214D02*
X21817536Y-15328833D01*
X21817536Y-15328833D02*
X21808012Y-15347881D01*
X21808012Y-15347881D02*
X21798488Y-15357405D01*
X21798488Y-15357405D02*
X21779441Y-15366929D01*
X21779441Y-15366929D02*
X21722298Y-15366929D01*
X21722298Y-15366929D02*
X21703250Y-15357405D01*
X21703250Y-15357405D02*
X21693726Y-15347881D01*
X22023250Y-15366929D02*
X22023250Y-15166929D01*
X22108964Y-15366929D02*
X22108964Y-15262167D01*
X22108964Y-15262167D02*
X22099441Y-15243119D01*
X22099441Y-15243119D02*
X22080393Y-15233595D01*
X22080393Y-15233595D02*
X22051822Y-15233595D01*
X22051822Y-15233595D02*
X22032774Y-15243119D01*
X22032774Y-15243119D02*
X22023250Y-15252643D01*
X22232774Y-15366929D02*
X22213726Y-15357405D01*
X22213726Y-15357405D02*
X22204203Y-15347881D01*
X22204203Y-15347881D02*
X22194679Y-15328833D01*
X22194679Y-15328833D02*
X22194679Y-15271691D01*
X22194679Y-15271691D02*
X22204203Y-15252643D01*
X22204203Y-15252643D02*
X22213726Y-15243119D01*
X22213726Y-15243119D02*
X22232774Y-15233595D01*
X22232774Y-15233595D02*
X22261345Y-15233595D01*
X22261345Y-15233595D02*
X22280393Y-15243119D01*
X22280393Y-15243119D02*
X22289917Y-15252643D01*
X22289917Y-15252643D02*
X22299441Y-15271691D01*
X22299441Y-15271691D02*
X22299441Y-15328833D01*
X22299441Y-15328833D02*
X22289917Y-15347881D01*
X22289917Y-15347881D02*
X22280393Y-15357405D01*
X22280393Y-15357405D02*
X22261345Y-15366929D01*
X22261345Y-15366929D02*
X22232774Y-15366929D01*
X22413726Y-15366929D02*
X22394679Y-15357405D01*
X22394679Y-15357405D02*
X22385155Y-15338357D01*
X22385155Y-15338357D02*
X22385155Y-15166929D01*
X22566107Y-15357405D02*
X22547060Y-15366929D01*
X22547060Y-15366929D02*
X22508964Y-15366929D01*
X22508964Y-15366929D02*
X22489917Y-15357405D01*
X22489917Y-15357405D02*
X22480393Y-15338357D01*
X22480393Y-15338357D02*
X22480393Y-15262167D01*
X22480393Y-15262167D02*
X22489917Y-15243119D01*
X22489917Y-15243119D02*
X22508964Y-15233595D01*
X22508964Y-15233595D02*
X22547060Y-15233595D01*
X22547060Y-15233595D02*
X22566107Y-15243119D01*
X22566107Y-15243119D02*
X22575631Y-15262167D01*
X22575631Y-15262167D02*
X22575631Y-15281214D01*
X22575631Y-15281214D02*
X22480393Y-15300262D01*
X22651822Y-15357405D02*
X22670869Y-15366929D01*
X22670869Y-15366929D02*
X22708964Y-15366929D01*
X22708964Y-15366929D02*
X22728012Y-15357405D01*
X22728012Y-15357405D02*
X22737536Y-15338357D01*
X22737536Y-15338357D02*
X22737536Y-15328833D01*
X22737536Y-15328833D02*
X22728012Y-15309786D01*
X22728012Y-15309786D02*
X22708964Y-15300262D01*
X22708964Y-15300262D02*
X22680393Y-15300262D01*
X22680393Y-15300262D02*
X22661345Y-15290738D01*
X22661345Y-15290738D02*
X22651822Y-15271691D01*
X22651822Y-15271691D02*
X22651822Y-15262167D01*
X22651822Y-15262167D02*
X22661345Y-15243119D01*
X22661345Y-15243119D02*
X22680393Y-15233595D01*
X22680393Y-15233595D02*
X22708964Y-15233595D01*
X22708964Y-15233595D02*
X22728012Y-15243119D01*
X22804203Y-15443119D02*
X22813726Y-15433595D01*
X22813726Y-15433595D02*
X22832774Y-15405024D01*
X22832774Y-15405024D02*
X22842298Y-15385976D01*
X22842298Y-15385976D02*
X22851822Y-15357405D01*
X22851822Y-15357405D02*
X22861345Y-15309786D01*
X22861345Y-15309786D02*
X22861345Y-15271691D01*
X22861345Y-15271691D02*
X22851822Y-15224072D01*
X22851822Y-15224072D02*
X22842298Y-15195500D01*
X22842298Y-15195500D02*
X22832774Y-15176453D01*
X22832774Y-15176453D02*
X22813726Y-15147881D01*
X22813726Y-15147881D02*
X22804203Y-15138357D01*
X23133726Y-15443119D02*
X23124202Y-15433595D01*
X23124202Y-15433595D02*
X23105155Y-15405024D01*
X23105155Y-15405024D02*
X23095631Y-15385976D01*
X23095631Y-15385976D02*
X23086107Y-15357405D01*
X23086107Y-15357405D02*
X23076583Y-15309786D01*
X23076583Y-15309786D02*
X23076583Y-15271691D01*
X23076583Y-15271691D02*
X23086107Y-15224072D01*
X23086107Y-15224072D02*
X23095631Y-15195500D01*
X23095631Y-15195500D02*
X23105155Y-15176453D01*
X23105155Y-15176453D02*
X23124202Y-15147881D01*
X23124202Y-15147881D02*
X23133726Y-15138357D01*
X23209917Y-15233595D02*
X23209917Y-15366929D01*
X23209917Y-15252643D02*
X23219441Y-15243119D01*
X23219441Y-15243119D02*
X23238488Y-15233595D01*
X23238488Y-15233595D02*
X23267060Y-15233595D01*
X23267060Y-15233595D02*
X23286107Y-15243119D01*
X23286107Y-15243119D02*
X23295631Y-15262167D01*
X23295631Y-15262167D02*
X23295631Y-15366929D01*
X23419441Y-15366929D02*
X23400393Y-15357405D01*
X23400393Y-15357405D02*
X23390869Y-15347881D01*
X23390869Y-15347881D02*
X23381345Y-15328833D01*
X23381345Y-15328833D02*
X23381345Y-15271691D01*
X23381345Y-15271691D02*
X23390869Y-15252643D01*
X23390869Y-15252643D02*
X23400393Y-15243119D01*
X23400393Y-15243119D02*
X23419441Y-15233595D01*
X23419441Y-15233595D02*
X23448012Y-15233595D01*
X23448012Y-15233595D02*
X23467060Y-15243119D01*
X23467060Y-15243119D02*
X23476583Y-15252643D01*
X23476583Y-15252643D02*
X23486107Y-15271691D01*
X23486107Y-15271691D02*
X23486107Y-15328833D01*
X23486107Y-15328833D02*
X23476583Y-15347881D01*
X23476583Y-15347881D02*
X23467060Y-15357405D01*
X23467060Y-15357405D02*
X23448012Y-15366929D01*
X23448012Y-15366929D02*
X23419441Y-15366929D01*
X23543250Y-15233595D02*
X23619441Y-15233595D01*
X23571822Y-15166929D02*
X23571822Y-15338357D01*
X23571822Y-15338357D02*
X23581345Y-15357405D01*
X23581345Y-15357405D02*
X23600393Y-15366929D01*
X23600393Y-15366929D02*
X23619441Y-15366929D01*
X23806107Y-15233595D02*
X23806107Y-15433595D01*
X23806107Y-15243119D02*
X23825155Y-15233595D01*
X23825155Y-15233595D02*
X23863250Y-15233595D01*
X23863250Y-15233595D02*
X23882298Y-15243119D01*
X23882298Y-15243119D02*
X23891822Y-15252643D01*
X23891822Y-15252643D02*
X23901345Y-15271691D01*
X23901345Y-15271691D02*
X23901345Y-15328833D01*
X23901345Y-15328833D02*
X23891822Y-15347881D01*
X23891822Y-15347881D02*
X23882298Y-15357405D01*
X23882298Y-15357405D02*
X23863250Y-15366929D01*
X23863250Y-15366929D02*
X23825155Y-15366929D01*
X23825155Y-15366929D02*
X23806107Y-15357405D01*
X24015631Y-15366929D02*
X23996583Y-15357405D01*
X23996583Y-15357405D02*
X23987060Y-15338357D01*
X23987060Y-15338357D02*
X23987060Y-15166929D01*
X24177536Y-15366929D02*
X24177536Y-15262167D01*
X24177536Y-15262167D02*
X24168012Y-15243119D01*
X24168012Y-15243119D02*
X24148964Y-15233595D01*
X24148964Y-15233595D02*
X24110869Y-15233595D01*
X24110869Y-15233595D02*
X24091822Y-15243119D01*
X24177536Y-15357405D02*
X24158488Y-15366929D01*
X24158488Y-15366929D02*
X24110869Y-15366929D01*
X24110869Y-15366929D02*
X24091822Y-15357405D01*
X24091822Y-15357405D02*
X24082298Y-15338357D01*
X24082298Y-15338357D02*
X24082298Y-15319310D01*
X24082298Y-15319310D02*
X24091822Y-15300262D01*
X24091822Y-15300262D02*
X24110869Y-15290738D01*
X24110869Y-15290738D02*
X24158488Y-15290738D01*
X24158488Y-15290738D02*
X24177536Y-15281214D01*
X24244203Y-15233595D02*
X24320393Y-15233595D01*
X24272774Y-15166929D02*
X24272774Y-15338357D01*
X24272774Y-15338357D02*
X24282298Y-15357405D01*
X24282298Y-15357405D02*
X24301345Y-15366929D01*
X24301345Y-15366929D02*
X24320393Y-15366929D01*
X24463250Y-15357405D02*
X24444203Y-15366929D01*
X24444203Y-15366929D02*
X24406107Y-15366929D01*
X24406107Y-15366929D02*
X24387060Y-15357405D01*
X24387060Y-15357405D02*
X24377536Y-15338357D01*
X24377536Y-15338357D02*
X24377536Y-15262167D01*
X24377536Y-15262167D02*
X24387060Y-15243119D01*
X24387060Y-15243119D02*
X24406107Y-15233595D01*
X24406107Y-15233595D02*
X24444203Y-15233595D01*
X24444203Y-15233595D02*
X24463250Y-15243119D01*
X24463250Y-15243119D02*
X24472774Y-15262167D01*
X24472774Y-15262167D02*
X24472774Y-15281214D01*
X24472774Y-15281214D02*
X24377536Y-15300262D01*
X24644203Y-15366929D02*
X24644203Y-15166929D01*
X24644203Y-15357405D02*
X24625155Y-15366929D01*
X24625155Y-15366929D02*
X24587060Y-15366929D01*
X24587060Y-15366929D02*
X24568012Y-15357405D01*
X24568012Y-15357405D02*
X24558488Y-15347881D01*
X24558488Y-15347881D02*
X24548964Y-15328833D01*
X24548964Y-15328833D02*
X24548964Y-15271691D01*
X24548964Y-15271691D02*
X24558488Y-15252643D01*
X24558488Y-15252643D02*
X24568012Y-15243119D01*
X24568012Y-15243119D02*
X24587060Y-15233595D01*
X24587060Y-15233595D02*
X24625155Y-15233595D01*
X24625155Y-15233595D02*
X24644203Y-15243119D01*
X24720393Y-15443119D02*
X24729917Y-15433595D01*
X24729917Y-15433595D02*
X24748964Y-15405024D01*
X24748964Y-15405024D02*
X24758488Y-15385976D01*
X24758488Y-15385976D02*
X24768012Y-15357405D01*
X24768012Y-15357405D02*
X24777536Y-15309786D01*
X24777536Y-15309786D02*
X24777536Y-15271691D01*
X24777536Y-15271691D02*
X24768012Y-15224072D01*
X24768012Y-15224072D02*
X24758488Y-15195500D01*
X24758488Y-15195500D02*
X24748964Y-15176453D01*
X24748964Y-15176453D02*
X24729917Y-15147881D01*
X24729917Y-15147881D02*
X24720393Y-15138357D01*
D14*
X18111821Y-15497453D02*
X18111821Y-15617453D01*
X18051821Y-15557453D02*
X18171821Y-15557453D01*
D11*
X18524202Y-15630929D02*
X18409917Y-15630929D01*
X18467059Y-15630929D02*
X18467059Y-15430929D01*
X18467059Y-15430929D02*
X18448012Y-15459500D01*
X18448012Y-15459500D02*
X18428964Y-15478548D01*
X18428964Y-15478548D02*
X18409917Y-15488072D01*
X18609917Y-15611881D02*
X18619440Y-15621405D01*
X18619440Y-15621405D02*
X18609917Y-15630929D01*
X18609917Y-15630929D02*
X18600393Y-15621405D01*
X18600393Y-15621405D02*
X18609917Y-15611881D01*
X18609917Y-15611881D02*
X18609917Y-15630929D01*
X18695631Y-15449976D02*
X18705155Y-15440453D01*
X18705155Y-15440453D02*
X18724202Y-15430929D01*
X18724202Y-15430929D02*
X18771821Y-15430929D01*
X18771821Y-15430929D02*
X18790869Y-15440453D01*
X18790869Y-15440453D02*
X18800393Y-15449976D01*
X18800393Y-15449976D02*
X18809917Y-15469024D01*
X18809917Y-15469024D02*
X18809917Y-15488072D01*
X18809917Y-15488072D02*
X18800393Y-15516643D01*
X18800393Y-15516643D02*
X18686107Y-15630929D01*
X18686107Y-15630929D02*
X18809917Y-15630929D01*
X18933726Y-15430929D02*
X18952774Y-15430929D01*
X18952774Y-15430929D02*
X18971821Y-15440453D01*
X18971821Y-15440453D02*
X18981345Y-15449976D01*
X18981345Y-15449976D02*
X18990869Y-15469024D01*
X18990869Y-15469024D02*
X19000393Y-15507119D01*
X19000393Y-15507119D02*
X19000393Y-15554738D01*
X19000393Y-15554738D02*
X18990869Y-15592833D01*
X18990869Y-15592833D02*
X18981345Y-15611881D01*
X18981345Y-15611881D02*
X18971821Y-15621405D01*
X18971821Y-15621405D02*
X18952774Y-15630929D01*
X18952774Y-15630929D02*
X18933726Y-15630929D01*
X18933726Y-15630929D02*
X18914679Y-15621405D01*
X18914679Y-15621405D02*
X18905155Y-15611881D01*
X18905155Y-15611881D02*
X18895631Y-15592833D01*
X18895631Y-15592833D02*
X18886107Y-15554738D01*
X18886107Y-15554738D02*
X18886107Y-15507119D01*
X18886107Y-15507119D02*
X18895631Y-15469024D01*
X18895631Y-15469024D02*
X18905155Y-15449976D01*
X18905155Y-15449976D02*
X18914679Y-15440453D01*
X18914679Y-15440453D02*
X18933726Y-15430929D01*
X19124202Y-15430929D02*
X19143250Y-15430929D01*
X19143250Y-15430929D02*
X19162298Y-15440453D01*
X19162298Y-15440453D02*
X19171821Y-15449976D01*
X19171821Y-15449976D02*
X19181345Y-15469024D01*
X19181345Y-15469024D02*
X19190869Y-15507119D01*
X19190869Y-15507119D02*
X19190869Y-15554738D01*
X19190869Y-15554738D02*
X19181345Y-15592833D01*
X19181345Y-15592833D02*
X19171821Y-15611881D01*
X19171821Y-15611881D02*
X19162298Y-15621405D01*
X19162298Y-15621405D02*
X19143250Y-15630929D01*
X19143250Y-15630929D02*
X19124202Y-15630929D01*
X19124202Y-15630929D02*
X19105155Y-15621405D01*
X19105155Y-15621405D02*
X19095631Y-15611881D01*
X19095631Y-15611881D02*
X19086107Y-15592833D01*
X19086107Y-15592833D02*
X19076583Y-15554738D01*
X19076583Y-15554738D02*
X19076583Y-15507119D01*
X19076583Y-15507119D02*
X19086107Y-15469024D01*
X19086107Y-15469024D02*
X19095631Y-15449976D01*
X19095631Y-15449976D02*
X19105155Y-15440453D01*
X19105155Y-15440453D02*
X19124202Y-15430929D01*
X19276583Y-15630929D02*
X19276583Y-15497595D01*
X19276583Y-15516643D02*
X19286107Y-15507119D01*
X19286107Y-15507119D02*
X19305155Y-15497595D01*
X19305155Y-15497595D02*
X19333726Y-15497595D01*
X19333726Y-15497595D02*
X19352774Y-15507119D01*
X19352774Y-15507119D02*
X19362298Y-15526167D01*
X19362298Y-15526167D02*
X19362298Y-15630929D01*
X19362298Y-15526167D02*
X19371821Y-15507119D01*
X19371821Y-15507119D02*
X19390869Y-15497595D01*
X19390869Y-15497595D02*
X19419440Y-15497595D01*
X19419440Y-15497595D02*
X19438488Y-15507119D01*
X19438488Y-15507119D02*
X19448012Y-15526167D01*
X19448012Y-15526167D02*
X19448012Y-15630929D01*
X19543250Y-15630929D02*
X19543250Y-15497595D01*
X19543250Y-15516643D02*
X19552774Y-15507119D01*
X19552774Y-15507119D02*
X19571821Y-15497595D01*
X19571821Y-15497595D02*
X19600393Y-15497595D01*
X19600393Y-15497595D02*
X19619441Y-15507119D01*
X19619441Y-15507119D02*
X19628964Y-15526167D01*
X19628964Y-15526167D02*
X19628964Y-15630929D01*
X19628964Y-15526167D02*
X19638488Y-15507119D01*
X19638488Y-15507119D02*
X19657536Y-15497595D01*
X19657536Y-15497595D02*
X19686107Y-15497595D01*
X19686107Y-15497595D02*
X19705155Y-15507119D01*
X19705155Y-15507119D02*
X19714679Y-15526167D01*
X19714679Y-15526167D02*
X19714679Y-15630929D01*
X20072774Y-15421405D02*
X19901345Y-15678548D01*
X20297536Y-15430929D02*
X20316583Y-15430929D01*
X20316583Y-15430929D02*
X20335631Y-15440453D01*
X20335631Y-15440453D02*
X20345155Y-15449976D01*
X20345155Y-15449976D02*
X20354679Y-15469024D01*
X20354679Y-15469024D02*
X20364202Y-15507119D01*
X20364202Y-15507119D02*
X20364202Y-15554738D01*
X20364202Y-15554738D02*
X20354679Y-15592833D01*
X20354679Y-15592833D02*
X20345155Y-15611881D01*
X20345155Y-15611881D02*
X20335631Y-15621405D01*
X20335631Y-15621405D02*
X20316583Y-15630929D01*
X20316583Y-15630929D02*
X20297536Y-15630929D01*
X20297536Y-15630929D02*
X20278488Y-15621405D01*
X20278488Y-15621405D02*
X20268964Y-15611881D01*
X20268964Y-15611881D02*
X20259441Y-15592833D01*
X20259441Y-15592833D02*
X20249917Y-15554738D01*
X20249917Y-15554738D02*
X20249917Y-15507119D01*
X20249917Y-15507119D02*
X20259441Y-15469024D01*
X20259441Y-15469024D02*
X20268964Y-15449976D01*
X20268964Y-15449976D02*
X20278488Y-15440453D01*
X20278488Y-15440453D02*
X20297536Y-15430929D01*
X20449917Y-15611881D02*
X20459441Y-15621405D01*
X20459441Y-15621405D02*
X20449917Y-15630929D01*
X20449917Y-15630929D02*
X20440393Y-15621405D01*
X20440393Y-15621405D02*
X20449917Y-15611881D01*
X20449917Y-15611881D02*
X20449917Y-15630929D01*
X20583250Y-15430929D02*
X20602298Y-15430929D01*
X20602298Y-15430929D02*
X20621345Y-15440453D01*
X20621345Y-15440453D02*
X20630869Y-15449976D01*
X20630869Y-15449976D02*
X20640393Y-15469024D01*
X20640393Y-15469024D02*
X20649917Y-15507119D01*
X20649917Y-15507119D02*
X20649917Y-15554738D01*
X20649917Y-15554738D02*
X20640393Y-15592833D01*
X20640393Y-15592833D02*
X20630869Y-15611881D01*
X20630869Y-15611881D02*
X20621345Y-15621405D01*
X20621345Y-15621405D02*
X20602298Y-15630929D01*
X20602298Y-15630929D02*
X20583250Y-15630929D01*
X20583250Y-15630929D02*
X20564202Y-15621405D01*
X20564202Y-15621405D02*
X20554679Y-15611881D01*
X20554679Y-15611881D02*
X20545155Y-15592833D01*
X20545155Y-15592833D02*
X20535631Y-15554738D01*
X20535631Y-15554738D02*
X20535631Y-15507119D01*
X20535631Y-15507119D02*
X20545155Y-15469024D01*
X20545155Y-15469024D02*
X20554679Y-15449976D01*
X20554679Y-15449976D02*
X20564202Y-15440453D01*
X20564202Y-15440453D02*
X20583250Y-15430929D01*
X20821345Y-15497595D02*
X20821345Y-15630929D01*
X20773726Y-15421405D02*
X20726107Y-15564262D01*
X20726107Y-15564262D02*
X20849917Y-15564262D01*
X20907060Y-15430929D02*
X21040393Y-15430929D01*
X21040393Y-15430929D02*
X20954679Y-15630929D01*
X21107060Y-15449976D02*
X21116583Y-15440453D01*
X21116583Y-15440453D02*
X21135631Y-15430929D01*
X21135631Y-15430929D02*
X21183250Y-15430929D01*
X21183250Y-15430929D02*
X21202298Y-15440453D01*
X21202298Y-15440453D02*
X21211822Y-15449976D01*
X21211822Y-15449976D02*
X21221345Y-15469024D01*
X21221345Y-15469024D02*
X21221345Y-15488072D01*
X21221345Y-15488072D02*
X21211822Y-15516643D01*
X21211822Y-15516643D02*
X21097536Y-15630929D01*
X21097536Y-15630929D02*
X21221345Y-15630929D01*
X21297536Y-15430929D02*
X21297536Y-15469024D01*
X21373726Y-15430929D02*
X21373726Y-15469024D01*
X21636584Y-15707119D02*
X21627060Y-15697595D01*
X21627060Y-15697595D02*
X21608012Y-15669024D01*
X21608012Y-15669024D02*
X21598488Y-15649976D01*
X21598488Y-15649976D02*
X21588964Y-15621405D01*
X21588964Y-15621405D02*
X21579441Y-15573786D01*
X21579441Y-15573786D02*
X21579441Y-15535691D01*
X21579441Y-15535691D02*
X21588964Y-15488072D01*
X21588964Y-15488072D02*
X21598488Y-15459500D01*
X21598488Y-15459500D02*
X21608012Y-15440453D01*
X21608012Y-15440453D02*
X21627060Y-15411881D01*
X21627060Y-15411881D02*
X21636584Y-15402357D01*
X21817536Y-15630929D02*
X21703250Y-15630929D01*
X21760393Y-15630929D02*
X21760393Y-15430929D01*
X21760393Y-15430929D02*
X21741345Y-15459500D01*
X21741345Y-15459500D02*
X21722298Y-15478548D01*
X21722298Y-15478548D02*
X21703250Y-15488072D01*
X22023250Y-15630929D02*
X22023250Y-15430929D01*
X22108964Y-15630929D02*
X22108964Y-15526167D01*
X22108964Y-15526167D02*
X22099441Y-15507119D01*
X22099441Y-15507119D02*
X22080393Y-15497595D01*
X22080393Y-15497595D02*
X22051822Y-15497595D01*
X22051822Y-15497595D02*
X22032774Y-15507119D01*
X22032774Y-15507119D02*
X22023250Y-15516643D01*
X22232774Y-15630929D02*
X22213726Y-15621405D01*
X22213726Y-15621405D02*
X22204203Y-15611881D01*
X22204203Y-15611881D02*
X22194679Y-15592833D01*
X22194679Y-15592833D02*
X22194679Y-15535691D01*
X22194679Y-15535691D02*
X22204203Y-15516643D01*
X22204203Y-15516643D02*
X22213726Y-15507119D01*
X22213726Y-15507119D02*
X22232774Y-15497595D01*
X22232774Y-15497595D02*
X22261345Y-15497595D01*
X22261345Y-15497595D02*
X22280393Y-15507119D01*
X22280393Y-15507119D02*
X22289917Y-15516643D01*
X22289917Y-15516643D02*
X22299441Y-15535691D01*
X22299441Y-15535691D02*
X22299441Y-15592833D01*
X22299441Y-15592833D02*
X22289917Y-15611881D01*
X22289917Y-15611881D02*
X22280393Y-15621405D01*
X22280393Y-15621405D02*
X22261345Y-15630929D01*
X22261345Y-15630929D02*
X22232774Y-15630929D01*
X22413726Y-15630929D02*
X22394679Y-15621405D01*
X22394679Y-15621405D02*
X22385155Y-15602357D01*
X22385155Y-15602357D02*
X22385155Y-15430929D01*
X22566107Y-15621405D02*
X22547060Y-15630929D01*
X22547060Y-15630929D02*
X22508964Y-15630929D01*
X22508964Y-15630929D02*
X22489917Y-15621405D01*
X22489917Y-15621405D02*
X22480393Y-15602357D01*
X22480393Y-15602357D02*
X22480393Y-15526167D01*
X22480393Y-15526167D02*
X22489917Y-15507119D01*
X22489917Y-15507119D02*
X22508964Y-15497595D01*
X22508964Y-15497595D02*
X22547060Y-15497595D01*
X22547060Y-15497595D02*
X22566107Y-15507119D01*
X22566107Y-15507119D02*
X22575631Y-15526167D01*
X22575631Y-15526167D02*
X22575631Y-15545214D01*
X22575631Y-15545214D02*
X22480393Y-15564262D01*
X22642298Y-15707119D02*
X22651822Y-15697595D01*
X22651822Y-15697595D02*
X22670869Y-15669024D01*
X22670869Y-15669024D02*
X22680393Y-15649976D01*
X22680393Y-15649976D02*
X22689917Y-15621405D01*
X22689917Y-15621405D02*
X22699441Y-15573786D01*
X22699441Y-15573786D02*
X22699441Y-15535691D01*
X22699441Y-15535691D02*
X22689917Y-15488072D01*
X22689917Y-15488072D02*
X22680393Y-15459500D01*
X22680393Y-15459500D02*
X22670869Y-15440453D01*
X22670869Y-15440453D02*
X22651822Y-15411881D01*
X22651822Y-15411881D02*
X22642298Y-15402357D01*
X22971822Y-15707119D02*
X22962298Y-15697595D01*
X22962298Y-15697595D02*
X22943250Y-15669024D01*
X22943250Y-15669024D02*
X22933726Y-15649976D01*
X22933726Y-15649976D02*
X22924202Y-15621405D01*
X22924202Y-15621405D02*
X22914679Y-15573786D01*
X22914679Y-15573786D02*
X22914679Y-15535691D01*
X22914679Y-15535691D02*
X22924202Y-15488072D01*
X22924202Y-15488072D02*
X22933726Y-15459500D01*
X22933726Y-15459500D02*
X22943250Y-15440453D01*
X22943250Y-15440453D02*
X22962298Y-15411881D01*
X22962298Y-15411881D02*
X22971822Y-15402357D01*
X23048012Y-15497595D02*
X23048012Y-15630929D01*
X23048012Y-15516643D02*
X23057536Y-15507119D01*
X23057536Y-15507119D02*
X23076583Y-15497595D01*
X23076583Y-15497595D02*
X23105155Y-15497595D01*
X23105155Y-15497595D02*
X23124202Y-15507119D01*
X23124202Y-15507119D02*
X23133726Y-15526167D01*
X23133726Y-15526167D02*
X23133726Y-15630929D01*
X23257536Y-15630929D02*
X23238488Y-15621405D01*
X23238488Y-15621405D02*
X23228964Y-15611881D01*
X23228964Y-15611881D02*
X23219441Y-15592833D01*
X23219441Y-15592833D02*
X23219441Y-15535691D01*
X23219441Y-15535691D02*
X23228964Y-15516643D01*
X23228964Y-15516643D02*
X23238488Y-15507119D01*
X23238488Y-15507119D02*
X23257536Y-15497595D01*
X23257536Y-15497595D02*
X23286107Y-15497595D01*
X23286107Y-15497595D02*
X23305155Y-15507119D01*
X23305155Y-15507119D02*
X23314679Y-15516643D01*
X23314679Y-15516643D02*
X23324202Y-15535691D01*
X23324202Y-15535691D02*
X23324202Y-15592833D01*
X23324202Y-15592833D02*
X23314679Y-15611881D01*
X23314679Y-15611881D02*
X23305155Y-15621405D01*
X23305155Y-15621405D02*
X23286107Y-15630929D01*
X23286107Y-15630929D02*
X23257536Y-15630929D01*
X23381345Y-15497595D02*
X23457536Y-15497595D01*
X23409917Y-15430929D02*
X23409917Y-15602357D01*
X23409917Y-15602357D02*
X23419441Y-15621405D01*
X23419441Y-15621405D02*
X23438488Y-15630929D01*
X23438488Y-15630929D02*
X23457536Y-15630929D01*
X23644202Y-15497595D02*
X23644202Y-15697595D01*
X23644202Y-15507119D02*
X23663250Y-15497595D01*
X23663250Y-15497595D02*
X23701345Y-15497595D01*
X23701345Y-15497595D02*
X23720393Y-15507119D01*
X23720393Y-15507119D02*
X23729917Y-15516643D01*
X23729917Y-15516643D02*
X23739441Y-15535691D01*
X23739441Y-15535691D02*
X23739441Y-15592833D01*
X23739441Y-15592833D02*
X23729917Y-15611881D01*
X23729917Y-15611881D02*
X23720393Y-15621405D01*
X23720393Y-15621405D02*
X23701345Y-15630929D01*
X23701345Y-15630929D02*
X23663250Y-15630929D01*
X23663250Y-15630929D02*
X23644202Y-15621405D01*
X23853726Y-15630929D02*
X23834679Y-15621405D01*
X23834679Y-15621405D02*
X23825155Y-15602357D01*
X23825155Y-15602357D02*
X23825155Y-15430929D01*
X24015631Y-15630929D02*
X24015631Y-15526167D01*
X24015631Y-15526167D02*
X24006107Y-15507119D01*
X24006107Y-15507119D02*
X23987060Y-15497595D01*
X23987060Y-15497595D02*
X23948964Y-15497595D01*
X23948964Y-15497595D02*
X23929917Y-15507119D01*
X24015631Y-15621405D02*
X23996583Y-15630929D01*
X23996583Y-15630929D02*
X23948964Y-15630929D01*
X23948964Y-15630929D02*
X23929917Y-15621405D01*
X23929917Y-15621405D02*
X23920393Y-15602357D01*
X23920393Y-15602357D02*
X23920393Y-15583310D01*
X23920393Y-15583310D02*
X23929917Y-15564262D01*
X23929917Y-15564262D02*
X23948964Y-15554738D01*
X23948964Y-15554738D02*
X23996583Y-15554738D01*
X23996583Y-15554738D02*
X24015631Y-15545214D01*
X24082298Y-15497595D02*
X24158488Y-15497595D01*
X24110869Y-15430929D02*
X24110869Y-15602357D01*
X24110869Y-15602357D02*
X24120393Y-15621405D01*
X24120393Y-15621405D02*
X24139441Y-15630929D01*
X24139441Y-15630929D02*
X24158488Y-15630929D01*
X24301345Y-15621405D02*
X24282298Y-15630929D01*
X24282298Y-15630929D02*
X24244202Y-15630929D01*
X24244202Y-15630929D02*
X24225155Y-15621405D01*
X24225155Y-15621405D02*
X24215631Y-15602357D01*
X24215631Y-15602357D02*
X24215631Y-15526167D01*
X24215631Y-15526167D02*
X24225155Y-15507119D01*
X24225155Y-15507119D02*
X24244202Y-15497595D01*
X24244202Y-15497595D02*
X24282298Y-15497595D01*
X24282298Y-15497595D02*
X24301345Y-15507119D01*
X24301345Y-15507119D02*
X24310869Y-15526167D01*
X24310869Y-15526167D02*
X24310869Y-15545214D01*
X24310869Y-15545214D02*
X24215631Y-15564262D01*
X24482298Y-15630929D02*
X24482298Y-15430929D01*
X24482298Y-15621405D02*
X24463250Y-15630929D01*
X24463250Y-15630929D02*
X24425155Y-15630929D01*
X24425155Y-15630929D02*
X24406107Y-15621405D01*
X24406107Y-15621405D02*
X24396583Y-15611881D01*
X24396583Y-15611881D02*
X24387060Y-15592833D01*
X24387060Y-15592833D02*
X24387060Y-15535691D01*
X24387060Y-15535691D02*
X24396583Y-15516643D01*
X24396583Y-15516643D02*
X24406107Y-15507119D01*
X24406107Y-15507119D02*
X24425155Y-15497595D01*
X24425155Y-15497595D02*
X24463250Y-15497595D01*
X24463250Y-15497595D02*
X24482298Y-15507119D01*
X24558488Y-15707119D02*
X24568012Y-15697595D01*
X24568012Y-15697595D02*
X24587060Y-15669024D01*
X24587060Y-15669024D02*
X24596583Y-15649976D01*
X24596583Y-15649976D02*
X24606107Y-15621405D01*
X24606107Y-15621405D02*
X24615631Y-15573786D01*
X24615631Y-15573786D02*
X24615631Y-15535691D01*
X24615631Y-15535691D02*
X24606107Y-15488072D01*
X24606107Y-15488072D02*
X24596583Y-15459500D01*
X24596583Y-15459500D02*
X24587060Y-15440453D01*
X24587060Y-15440453D02*
X24568012Y-15411881D01*
X24568012Y-15411881D02*
X24558488Y-15402357D01*
X18142533Y-15892164D02*
X18142533Y-15750741D01*
X18001110Y-15750741D01*
X18001110Y-15892164D01*
X18142533Y-15892164D01*
X18400393Y-15694929D02*
X18524202Y-15694929D01*
X18524202Y-15694929D02*
X18457536Y-15771119D01*
X18457536Y-15771119D02*
X18486107Y-15771119D01*
X18486107Y-15771119D02*
X18505155Y-15780643D01*
X18505155Y-15780643D02*
X18514679Y-15790167D01*
X18514679Y-15790167D02*
X18524202Y-15809214D01*
X18524202Y-15809214D02*
X18524202Y-15856833D01*
X18524202Y-15856833D02*
X18514679Y-15875881D01*
X18514679Y-15875881D02*
X18505155Y-15885405D01*
X18505155Y-15885405D02*
X18486107Y-15894929D01*
X18486107Y-15894929D02*
X18428964Y-15894929D01*
X18428964Y-15894929D02*
X18409917Y-15885405D01*
X18409917Y-15885405D02*
X18400393Y-15875881D01*
X18609917Y-15875881D02*
X18619440Y-15885405D01*
X18619440Y-15885405D02*
X18609917Y-15894929D01*
X18609917Y-15894929D02*
X18600393Y-15885405D01*
X18600393Y-15885405D02*
X18609917Y-15875881D01*
X18609917Y-15875881D02*
X18609917Y-15894929D01*
X18695631Y-15713976D02*
X18705155Y-15704453D01*
X18705155Y-15704453D02*
X18724202Y-15694929D01*
X18724202Y-15694929D02*
X18771821Y-15694929D01*
X18771821Y-15694929D02*
X18790869Y-15704453D01*
X18790869Y-15704453D02*
X18800393Y-15713976D01*
X18800393Y-15713976D02*
X18809917Y-15733024D01*
X18809917Y-15733024D02*
X18809917Y-15752072D01*
X18809917Y-15752072D02*
X18800393Y-15780643D01*
X18800393Y-15780643D02*
X18686107Y-15894929D01*
X18686107Y-15894929D02*
X18809917Y-15894929D01*
X18933726Y-15694929D02*
X18952774Y-15694929D01*
X18952774Y-15694929D02*
X18971821Y-15704453D01*
X18971821Y-15704453D02*
X18981345Y-15713976D01*
X18981345Y-15713976D02*
X18990869Y-15733024D01*
X18990869Y-15733024D02*
X19000393Y-15771119D01*
X19000393Y-15771119D02*
X19000393Y-15818738D01*
X19000393Y-15818738D02*
X18990869Y-15856833D01*
X18990869Y-15856833D02*
X18981345Y-15875881D01*
X18981345Y-15875881D02*
X18971821Y-15885405D01*
X18971821Y-15885405D02*
X18952774Y-15894929D01*
X18952774Y-15894929D02*
X18933726Y-15894929D01*
X18933726Y-15894929D02*
X18914679Y-15885405D01*
X18914679Y-15885405D02*
X18905155Y-15875881D01*
X18905155Y-15875881D02*
X18895631Y-15856833D01*
X18895631Y-15856833D02*
X18886107Y-15818738D01*
X18886107Y-15818738D02*
X18886107Y-15771119D01*
X18886107Y-15771119D02*
X18895631Y-15733024D01*
X18895631Y-15733024D02*
X18905155Y-15713976D01*
X18905155Y-15713976D02*
X18914679Y-15704453D01*
X18914679Y-15704453D02*
X18933726Y-15694929D01*
X19124202Y-15694929D02*
X19143250Y-15694929D01*
X19143250Y-15694929D02*
X19162298Y-15704453D01*
X19162298Y-15704453D02*
X19171821Y-15713976D01*
X19171821Y-15713976D02*
X19181345Y-15733024D01*
X19181345Y-15733024D02*
X19190869Y-15771119D01*
X19190869Y-15771119D02*
X19190869Y-15818738D01*
X19190869Y-15818738D02*
X19181345Y-15856833D01*
X19181345Y-15856833D02*
X19171821Y-15875881D01*
X19171821Y-15875881D02*
X19162298Y-15885405D01*
X19162298Y-15885405D02*
X19143250Y-15894929D01*
X19143250Y-15894929D02*
X19124202Y-15894929D01*
X19124202Y-15894929D02*
X19105155Y-15885405D01*
X19105155Y-15885405D02*
X19095631Y-15875881D01*
X19095631Y-15875881D02*
X19086107Y-15856833D01*
X19086107Y-15856833D02*
X19076583Y-15818738D01*
X19076583Y-15818738D02*
X19076583Y-15771119D01*
X19076583Y-15771119D02*
X19086107Y-15733024D01*
X19086107Y-15733024D02*
X19095631Y-15713976D01*
X19095631Y-15713976D02*
X19105155Y-15704453D01*
X19105155Y-15704453D02*
X19124202Y-15694929D01*
X19276583Y-15894929D02*
X19276583Y-15761595D01*
X19276583Y-15780643D02*
X19286107Y-15771119D01*
X19286107Y-15771119D02*
X19305155Y-15761595D01*
X19305155Y-15761595D02*
X19333726Y-15761595D01*
X19333726Y-15761595D02*
X19352774Y-15771119D01*
X19352774Y-15771119D02*
X19362298Y-15790167D01*
X19362298Y-15790167D02*
X19362298Y-15894929D01*
X19362298Y-15790167D02*
X19371821Y-15771119D01*
X19371821Y-15771119D02*
X19390869Y-15761595D01*
X19390869Y-15761595D02*
X19419440Y-15761595D01*
X19419440Y-15761595D02*
X19438488Y-15771119D01*
X19438488Y-15771119D02*
X19448012Y-15790167D01*
X19448012Y-15790167D02*
X19448012Y-15894929D01*
X19543250Y-15894929D02*
X19543250Y-15761595D01*
X19543250Y-15780643D02*
X19552774Y-15771119D01*
X19552774Y-15771119D02*
X19571821Y-15761595D01*
X19571821Y-15761595D02*
X19600393Y-15761595D01*
X19600393Y-15761595D02*
X19619441Y-15771119D01*
X19619441Y-15771119D02*
X19628964Y-15790167D01*
X19628964Y-15790167D02*
X19628964Y-15894929D01*
X19628964Y-15790167D02*
X19638488Y-15771119D01*
X19638488Y-15771119D02*
X19657536Y-15761595D01*
X19657536Y-15761595D02*
X19686107Y-15761595D01*
X19686107Y-15761595D02*
X19705155Y-15771119D01*
X19705155Y-15771119D02*
X19714679Y-15790167D01*
X19714679Y-15790167D02*
X19714679Y-15894929D01*
X20072774Y-15685405D02*
X19901345Y-15942548D01*
X20297536Y-15694929D02*
X20316583Y-15694929D01*
X20316583Y-15694929D02*
X20335631Y-15704453D01*
X20335631Y-15704453D02*
X20345155Y-15713976D01*
X20345155Y-15713976D02*
X20354679Y-15733024D01*
X20354679Y-15733024D02*
X20364202Y-15771119D01*
X20364202Y-15771119D02*
X20364202Y-15818738D01*
X20364202Y-15818738D02*
X20354679Y-15856833D01*
X20354679Y-15856833D02*
X20345155Y-15875881D01*
X20345155Y-15875881D02*
X20335631Y-15885405D01*
X20335631Y-15885405D02*
X20316583Y-15894929D01*
X20316583Y-15894929D02*
X20297536Y-15894929D01*
X20297536Y-15894929D02*
X20278488Y-15885405D01*
X20278488Y-15885405D02*
X20268964Y-15875881D01*
X20268964Y-15875881D02*
X20259441Y-15856833D01*
X20259441Y-15856833D02*
X20249917Y-15818738D01*
X20249917Y-15818738D02*
X20249917Y-15771119D01*
X20249917Y-15771119D02*
X20259441Y-15733024D01*
X20259441Y-15733024D02*
X20268964Y-15713976D01*
X20268964Y-15713976D02*
X20278488Y-15704453D01*
X20278488Y-15704453D02*
X20297536Y-15694929D01*
X20449917Y-15875881D02*
X20459441Y-15885405D01*
X20459441Y-15885405D02*
X20449917Y-15894929D01*
X20449917Y-15894929D02*
X20440393Y-15885405D01*
X20440393Y-15885405D02*
X20449917Y-15875881D01*
X20449917Y-15875881D02*
X20449917Y-15894929D01*
X20649917Y-15894929D02*
X20535631Y-15894929D01*
X20592774Y-15894929D02*
X20592774Y-15694929D01*
X20592774Y-15694929D02*
X20573726Y-15723500D01*
X20573726Y-15723500D02*
X20554679Y-15742548D01*
X20554679Y-15742548D02*
X20535631Y-15752072D01*
X20726107Y-15713976D02*
X20735631Y-15704453D01*
X20735631Y-15704453D02*
X20754679Y-15694929D01*
X20754679Y-15694929D02*
X20802298Y-15694929D01*
X20802298Y-15694929D02*
X20821345Y-15704453D01*
X20821345Y-15704453D02*
X20830869Y-15713976D01*
X20830869Y-15713976D02*
X20840393Y-15733024D01*
X20840393Y-15733024D02*
X20840393Y-15752072D01*
X20840393Y-15752072D02*
X20830869Y-15780643D01*
X20830869Y-15780643D02*
X20716583Y-15894929D01*
X20716583Y-15894929D02*
X20840393Y-15894929D01*
X21011822Y-15694929D02*
X20973726Y-15694929D01*
X20973726Y-15694929D02*
X20954679Y-15704453D01*
X20954679Y-15704453D02*
X20945155Y-15713976D01*
X20945155Y-15713976D02*
X20926107Y-15742548D01*
X20926107Y-15742548D02*
X20916583Y-15780643D01*
X20916583Y-15780643D02*
X20916583Y-15856833D01*
X20916583Y-15856833D02*
X20926107Y-15875881D01*
X20926107Y-15875881D02*
X20935631Y-15885405D01*
X20935631Y-15885405D02*
X20954679Y-15894929D01*
X20954679Y-15894929D02*
X20992774Y-15894929D01*
X20992774Y-15894929D02*
X21011822Y-15885405D01*
X21011822Y-15885405D02*
X21021345Y-15875881D01*
X21021345Y-15875881D02*
X21030869Y-15856833D01*
X21030869Y-15856833D02*
X21030869Y-15809214D01*
X21030869Y-15809214D02*
X21021345Y-15790167D01*
X21021345Y-15790167D02*
X21011822Y-15780643D01*
X21011822Y-15780643D02*
X20992774Y-15771119D01*
X20992774Y-15771119D02*
X20954679Y-15771119D01*
X20954679Y-15771119D02*
X20935631Y-15780643D01*
X20935631Y-15780643D02*
X20926107Y-15790167D01*
X20926107Y-15790167D02*
X20916583Y-15809214D01*
X21154679Y-15694929D02*
X21173726Y-15694929D01*
X21173726Y-15694929D02*
X21192774Y-15704453D01*
X21192774Y-15704453D02*
X21202298Y-15713976D01*
X21202298Y-15713976D02*
X21211822Y-15733024D01*
X21211822Y-15733024D02*
X21221345Y-15771119D01*
X21221345Y-15771119D02*
X21221345Y-15818738D01*
X21221345Y-15818738D02*
X21211822Y-15856833D01*
X21211822Y-15856833D02*
X21202298Y-15875881D01*
X21202298Y-15875881D02*
X21192774Y-15885405D01*
X21192774Y-15885405D02*
X21173726Y-15894929D01*
X21173726Y-15894929D02*
X21154679Y-15894929D01*
X21154679Y-15894929D02*
X21135631Y-15885405D01*
X21135631Y-15885405D02*
X21126107Y-15875881D01*
X21126107Y-15875881D02*
X21116583Y-15856833D01*
X21116583Y-15856833D02*
X21107060Y-15818738D01*
X21107060Y-15818738D02*
X21107060Y-15771119D01*
X21107060Y-15771119D02*
X21116583Y-15733024D01*
X21116583Y-15733024D02*
X21126107Y-15713976D01*
X21126107Y-15713976D02*
X21135631Y-15704453D01*
X21135631Y-15704453D02*
X21154679Y-15694929D01*
X21297536Y-15694929D02*
X21297536Y-15733024D01*
X21373726Y-15694929D02*
X21373726Y-15733024D01*
X21636584Y-15971119D02*
X21627060Y-15961595D01*
X21627060Y-15961595D02*
X21608012Y-15933024D01*
X21608012Y-15933024D02*
X21598488Y-15913976D01*
X21598488Y-15913976D02*
X21588964Y-15885405D01*
X21588964Y-15885405D02*
X21579441Y-15837786D01*
X21579441Y-15837786D02*
X21579441Y-15799691D01*
X21579441Y-15799691D02*
X21588964Y-15752072D01*
X21588964Y-15752072D02*
X21598488Y-15723500D01*
X21598488Y-15723500D02*
X21608012Y-15704453D01*
X21608012Y-15704453D02*
X21627060Y-15675881D01*
X21627060Y-15675881D02*
X21636584Y-15666357D01*
X21703250Y-15713976D02*
X21712774Y-15704453D01*
X21712774Y-15704453D02*
X21731822Y-15694929D01*
X21731822Y-15694929D02*
X21779441Y-15694929D01*
X21779441Y-15694929D02*
X21798488Y-15704453D01*
X21798488Y-15704453D02*
X21808012Y-15713976D01*
X21808012Y-15713976D02*
X21817536Y-15733024D01*
X21817536Y-15733024D02*
X21817536Y-15752072D01*
X21817536Y-15752072D02*
X21808012Y-15780643D01*
X21808012Y-15780643D02*
X21693726Y-15894929D01*
X21693726Y-15894929D02*
X21817536Y-15894929D01*
X22023250Y-15894929D02*
X22023250Y-15694929D01*
X22108964Y-15894929D02*
X22108964Y-15790167D01*
X22108964Y-15790167D02*
X22099441Y-15771119D01*
X22099441Y-15771119D02*
X22080393Y-15761595D01*
X22080393Y-15761595D02*
X22051822Y-15761595D01*
X22051822Y-15761595D02*
X22032774Y-15771119D01*
X22032774Y-15771119D02*
X22023250Y-15780643D01*
X22232774Y-15894929D02*
X22213726Y-15885405D01*
X22213726Y-15885405D02*
X22204203Y-15875881D01*
X22204203Y-15875881D02*
X22194679Y-15856833D01*
X22194679Y-15856833D02*
X22194679Y-15799691D01*
X22194679Y-15799691D02*
X22204203Y-15780643D01*
X22204203Y-15780643D02*
X22213726Y-15771119D01*
X22213726Y-15771119D02*
X22232774Y-15761595D01*
X22232774Y-15761595D02*
X22261345Y-15761595D01*
X22261345Y-15761595D02*
X22280393Y-15771119D01*
X22280393Y-15771119D02*
X22289917Y-15780643D01*
X22289917Y-15780643D02*
X22299441Y-15799691D01*
X22299441Y-15799691D02*
X22299441Y-15856833D01*
X22299441Y-15856833D02*
X22289917Y-15875881D01*
X22289917Y-15875881D02*
X22280393Y-15885405D01*
X22280393Y-15885405D02*
X22261345Y-15894929D01*
X22261345Y-15894929D02*
X22232774Y-15894929D01*
X22413726Y-15894929D02*
X22394679Y-15885405D01*
X22394679Y-15885405D02*
X22385155Y-15866357D01*
X22385155Y-15866357D02*
X22385155Y-15694929D01*
X22566107Y-15885405D02*
X22547060Y-15894929D01*
X22547060Y-15894929D02*
X22508964Y-15894929D01*
X22508964Y-15894929D02*
X22489917Y-15885405D01*
X22489917Y-15885405D02*
X22480393Y-15866357D01*
X22480393Y-15866357D02*
X22480393Y-15790167D01*
X22480393Y-15790167D02*
X22489917Y-15771119D01*
X22489917Y-15771119D02*
X22508964Y-15761595D01*
X22508964Y-15761595D02*
X22547060Y-15761595D01*
X22547060Y-15761595D02*
X22566107Y-15771119D01*
X22566107Y-15771119D02*
X22575631Y-15790167D01*
X22575631Y-15790167D02*
X22575631Y-15809214D01*
X22575631Y-15809214D02*
X22480393Y-15828262D01*
X22651822Y-15885405D02*
X22670869Y-15894929D01*
X22670869Y-15894929D02*
X22708964Y-15894929D01*
X22708964Y-15894929D02*
X22728012Y-15885405D01*
X22728012Y-15885405D02*
X22737536Y-15866357D01*
X22737536Y-15866357D02*
X22737536Y-15856833D01*
X22737536Y-15856833D02*
X22728012Y-15837786D01*
X22728012Y-15837786D02*
X22708964Y-15828262D01*
X22708964Y-15828262D02*
X22680393Y-15828262D01*
X22680393Y-15828262D02*
X22661345Y-15818738D01*
X22661345Y-15818738D02*
X22651822Y-15799691D01*
X22651822Y-15799691D02*
X22651822Y-15790167D01*
X22651822Y-15790167D02*
X22661345Y-15771119D01*
X22661345Y-15771119D02*
X22680393Y-15761595D01*
X22680393Y-15761595D02*
X22708964Y-15761595D01*
X22708964Y-15761595D02*
X22728012Y-15771119D01*
X22804203Y-15971119D02*
X22813726Y-15961595D01*
X22813726Y-15961595D02*
X22832774Y-15933024D01*
X22832774Y-15933024D02*
X22842298Y-15913976D01*
X22842298Y-15913976D02*
X22851822Y-15885405D01*
X22851822Y-15885405D02*
X22861345Y-15837786D01*
X22861345Y-15837786D02*
X22861345Y-15799691D01*
X22861345Y-15799691D02*
X22851822Y-15752072D01*
X22851822Y-15752072D02*
X22842298Y-15723500D01*
X22842298Y-15723500D02*
X22832774Y-15704453D01*
X22832774Y-15704453D02*
X22813726Y-15675881D01*
X22813726Y-15675881D02*
X22804203Y-15666357D01*
X23133726Y-15971119D02*
X23124202Y-15961595D01*
X23124202Y-15961595D02*
X23105155Y-15933024D01*
X23105155Y-15933024D02*
X23095631Y-15913976D01*
X23095631Y-15913976D02*
X23086107Y-15885405D01*
X23086107Y-15885405D02*
X23076583Y-15837786D01*
X23076583Y-15837786D02*
X23076583Y-15799691D01*
X23076583Y-15799691D02*
X23086107Y-15752072D01*
X23086107Y-15752072D02*
X23095631Y-15723500D01*
X23095631Y-15723500D02*
X23105155Y-15704453D01*
X23105155Y-15704453D02*
X23124202Y-15675881D01*
X23124202Y-15675881D02*
X23133726Y-15666357D01*
X23209917Y-15761595D02*
X23209917Y-15894929D01*
X23209917Y-15780643D02*
X23219441Y-15771119D01*
X23219441Y-15771119D02*
X23238488Y-15761595D01*
X23238488Y-15761595D02*
X23267060Y-15761595D01*
X23267060Y-15761595D02*
X23286107Y-15771119D01*
X23286107Y-15771119D02*
X23295631Y-15790167D01*
X23295631Y-15790167D02*
X23295631Y-15894929D01*
X23419441Y-15894929D02*
X23400393Y-15885405D01*
X23400393Y-15885405D02*
X23390869Y-15875881D01*
X23390869Y-15875881D02*
X23381345Y-15856833D01*
X23381345Y-15856833D02*
X23381345Y-15799691D01*
X23381345Y-15799691D02*
X23390869Y-15780643D01*
X23390869Y-15780643D02*
X23400393Y-15771119D01*
X23400393Y-15771119D02*
X23419441Y-15761595D01*
X23419441Y-15761595D02*
X23448012Y-15761595D01*
X23448012Y-15761595D02*
X23467060Y-15771119D01*
X23467060Y-15771119D02*
X23476583Y-15780643D01*
X23476583Y-15780643D02*
X23486107Y-15799691D01*
X23486107Y-15799691D02*
X23486107Y-15856833D01*
X23486107Y-15856833D02*
X23476583Y-15875881D01*
X23476583Y-15875881D02*
X23467060Y-15885405D01*
X23467060Y-15885405D02*
X23448012Y-15894929D01*
X23448012Y-15894929D02*
X23419441Y-15894929D01*
X23543250Y-15761595D02*
X23619441Y-15761595D01*
X23571822Y-15694929D02*
X23571822Y-15866357D01*
X23571822Y-15866357D02*
X23581345Y-15885405D01*
X23581345Y-15885405D02*
X23600393Y-15894929D01*
X23600393Y-15894929D02*
X23619441Y-15894929D01*
X23806107Y-15761595D02*
X23806107Y-15961595D01*
X23806107Y-15771119D02*
X23825155Y-15761595D01*
X23825155Y-15761595D02*
X23863250Y-15761595D01*
X23863250Y-15761595D02*
X23882298Y-15771119D01*
X23882298Y-15771119D02*
X23891822Y-15780643D01*
X23891822Y-15780643D02*
X23901345Y-15799691D01*
X23901345Y-15799691D02*
X23901345Y-15856833D01*
X23901345Y-15856833D02*
X23891822Y-15875881D01*
X23891822Y-15875881D02*
X23882298Y-15885405D01*
X23882298Y-15885405D02*
X23863250Y-15894929D01*
X23863250Y-15894929D02*
X23825155Y-15894929D01*
X23825155Y-15894929D02*
X23806107Y-15885405D01*
X24015631Y-15894929D02*
X23996583Y-15885405D01*
X23996583Y-15885405D02*
X23987060Y-15866357D01*
X23987060Y-15866357D02*
X23987060Y-15694929D01*
X24177536Y-15894929D02*
X24177536Y-15790167D01*
X24177536Y-15790167D02*
X24168012Y-15771119D01*
X24168012Y-15771119D02*
X24148964Y-15761595D01*
X24148964Y-15761595D02*
X24110869Y-15761595D01*
X24110869Y-15761595D02*
X24091822Y-15771119D01*
X24177536Y-15885405D02*
X24158488Y-15894929D01*
X24158488Y-15894929D02*
X24110869Y-15894929D01*
X24110869Y-15894929D02*
X24091822Y-15885405D01*
X24091822Y-15885405D02*
X24082298Y-15866357D01*
X24082298Y-15866357D02*
X24082298Y-15847310D01*
X24082298Y-15847310D02*
X24091822Y-15828262D01*
X24091822Y-15828262D02*
X24110869Y-15818738D01*
X24110869Y-15818738D02*
X24158488Y-15818738D01*
X24158488Y-15818738D02*
X24177536Y-15809214D01*
X24244203Y-15761595D02*
X24320393Y-15761595D01*
X24272774Y-15694929D02*
X24272774Y-15866357D01*
X24272774Y-15866357D02*
X24282298Y-15885405D01*
X24282298Y-15885405D02*
X24301345Y-15894929D01*
X24301345Y-15894929D02*
X24320393Y-15894929D01*
X24463250Y-15885405D02*
X24444203Y-15894929D01*
X24444203Y-15894929D02*
X24406107Y-15894929D01*
X24406107Y-15894929D02*
X24387060Y-15885405D01*
X24387060Y-15885405D02*
X24377536Y-15866357D01*
X24377536Y-15866357D02*
X24377536Y-15790167D01*
X24377536Y-15790167D02*
X24387060Y-15771119D01*
X24387060Y-15771119D02*
X24406107Y-15761595D01*
X24406107Y-15761595D02*
X24444203Y-15761595D01*
X24444203Y-15761595D02*
X24463250Y-15771119D01*
X24463250Y-15771119D02*
X24472774Y-15790167D01*
X24472774Y-15790167D02*
X24472774Y-15809214D01*
X24472774Y-15809214D02*
X24377536Y-15828262D01*
X24644203Y-15894929D02*
X24644203Y-15694929D01*
X24644203Y-15885405D02*
X24625155Y-15894929D01*
X24625155Y-15894929D02*
X24587060Y-15894929D01*
X24587060Y-15894929D02*
X24568012Y-15885405D01*
X24568012Y-15885405D02*
X24558488Y-15875881D01*
X24558488Y-15875881D02*
X24548964Y-15856833D01*
X24548964Y-15856833D02*
X24548964Y-15799691D01*
X24548964Y-15799691D02*
X24558488Y-15780643D01*
X24558488Y-15780643D02*
X24568012Y-15771119D01*
X24568012Y-15771119D02*
X24587060Y-15761595D01*
X24587060Y-15761595D02*
X24625155Y-15761595D01*
X24625155Y-15761595D02*
X24644203Y-15771119D01*
X24720393Y-15971119D02*
X24729917Y-15961595D01*
X24729917Y-15961595D02*
X24748964Y-15933024D01*
X24748964Y-15933024D02*
X24758488Y-15913976D01*
X24758488Y-15913976D02*
X24768012Y-15885405D01*
X24768012Y-15885405D02*
X24777536Y-15837786D01*
X24777536Y-15837786D02*
X24777536Y-15799691D01*
X24777536Y-15799691D02*
X24768012Y-15752072D01*
X24768012Y-15752072D02*
X24758488Y-15723500D01*
X24758488Y-15723500D02*
X24748964Y-15704453D01*
X24748964Y-15704453D02*
X24729917Y-15675881D01*
X24729917Y-15675881D02*
X24720393Y-15666357D01*
M02*
