<?xml version="1.0" encoding="UTF-8" standalone="no"?>
<svg
   xmlns:dc="http://purl.org/dc/elements/1.1/"
   xmlns:cc="http://creativecommons.org/ns#"
   xmlns:rdf="http://www.w3.org/1999/02/22-rdf-syntax-ns#"
   xmlns:svg="http://www.w3.org/2000/svg"
   xmlns="http://www.w3.org/2000/svg"
   xmlns:sodipodi="http://sodipodi.sourceforge.net/DTD/sodipodi-0.dtd"
   xmlns:inkscape="http://www.inkscape.org/namespaces/inkscape"
   version="1.0"
   width="900pt"
   height="600pt"
   viewBox="0 0 900 600"
   preserveAspectRatio="xMidYMid meet"
   id="svg8"
   sodipodi:docname="butterfly.svg"
   inkscape:version="1.0.1 (3bc2e813f5, 2020-09-07)">
  <defs
     id="defs12" />
  <sodipodi:namedview
     pagecolor="#ffffff"
     bordercolor="#666666"
     borderopacity="1"
     objecttolerance="10"
     gridtolerance="10"
     guidetolerance="10"
     inkscape:pageopacity="0"
     inkscape:pageshadow="2"
     inkscape:window-width="2438"
     inkscape:window-height="1271"
     id="namedview10"
     showgrid="false"
     fit-margin-top="0"
     fit-margin-left="0"
     fit-margin-right="0"
     fit-margin-bottom="0"
     inkscape:zoom="0.61938202"
     inkscape:cx="787.80046"
     inkscape:cy="488.10071"
     inkscape:window-x="481"
     inkscape:window-y="218"
     inkscape:window-maximized="0"
     inkscape:current-layer="svg8" />
  <metadata
     id="metadata2">
Created by potrace 1.15, written by Peter Selinger 2001-2017
<rdf:RDF>
  <cc:Work
     rdf:about="">
    <dc:format>image/svg+xml</dc:format>
    <dc:type
       rdf:resource="http://purl.org/dc/dcmitype/StillImage" />
    <dc:title></dc:title>
  </cc:Work>
</rdf:RDF>
</metadata>
  <g
     transform="matrix(0.07660863,0,0,-0.08092581,-58.988645,658.3293)"
     fill="#000000"
     stroke="none"
     id="g6">
    <path
       d="m 10680,8130 c -25,-5 -73,-9 -107,-9 -34,-1 -64,-5 -67,-10 -3,-4 -31,-11 -63,-13 -60,-6 -226,-39 -323,-65 -83,-22 -193,-54 -215,-63 -11,-4 -42,-15 -70,-25 -27,-9 -59,-20 -70,-25 -11,-4 -49,-18 -85,-31 -36,-12 -83,-30 -105,-40 -234,-102 -230,-100 -340,-166 -11,-7 -29,-16 -40,-21 -46,-22 -275,-158 -335,-200 -36,-26 -85,-60 -110,-77 -202,-135 -526,-428 -662,-596 -29,-37 -92,-114 -139,-171 -48,-58 -92,-116 -99,-128 -7,-13 -38,-60 -70,-104 -58,-82 -102,-156 -177,-294 l -41,-77 -80,-3 c -55,-2 -84,-7 -92,-17 -7,-8 -21,-15 -31,-15 -27,0 -141,-53 -158,-73 -7,-9 -18,-17 -24,-17 -21,0 -133,-117 -178,-185 -107,-162 -193,-442 -214,-693 -4,-45 -10,-84 -14,-86 -3,-2 -15,0 -26,4 -17,6 -23,23 -34,86 -7,44 -19,102 -26,129 -8,28 -19,77 -26,110 -18,93 -56,200 -112,315 -43,87 -65,120 -135,192 -94,98 -167,144 -279,177 -40,12 -75,26 -78,31 -3,6 -37,10 -75,10 -70,0 -100,6 -100,20 0,7 -40,80 -70,125 -59,91 -119,177 -150,215 -20,25 -43,56 -52,70 -30,47 -230,275 -331,378 -379,384 -815,676 -1367,915 -126,55 -477,174 -540,183 -25,4 -52,10 -61,15 -9,4 -43,13 -75,18 -32,6 -77,15 -99,20 -236,53 -372,64 -795,64 -375,0 -517,-6 -555,-22 -11,-5 -69,-14 -130,-21 -118,-13 -214,-30 -310,-55 -33,-9 -76,-20 -95,-25 -19,-5 -62,-16 -95,-24 -144,-34 -207,-70 -298,-172 -69,-76 -87,-135 -87,-277 0,-138 14,-184 74,-247 23,-25 55,-62 70,-84 30,-40 112,-86 154,-86 13,0 32,-5 43,-10 11,-6 63,-12 117,-13 94,-2 97,-3 100,-26 2,-13 -3,-40 -11,-60 -27,-65 -40,-156 -35,-258 6,-114 18,-143 92,-219 63,-64 94,-74 249,-81 105,-5 121,-8 143,-28 21,-20 23,-26 13,-51 -6,-16 -13,-69 -16,-119 -9,-153 30,-231 145,-283 59,-27 191,-52 276,-52 8,0 28,-12 45,-26 27,-22 31,-33 31,-72 0,-26 -7,-60 -16,-77 -24,-44 -36,-99 -41,-190 -8,-140 19,-203 145,-345 39,-43 91,-75 217,-131 152,-67 417,-103 708,-98 97,2 177,1 177,-2 0,-9 -138,-109 -189,-138 -85,-47 -155,-106 -272,-227 -191,-200 -239,-302 -239,-513 0,-122 10,-174 47,-233 13,-21 23,-41 23,-45 0,-5 12,-25 26,-46 29,-43 27,-56 -20,-124 -18,-27 -39,-61 -48,-78 -9,-16 -30,-57 -47,-89 -17,-33 -31,-65 -31,-71 0,-6 -11,-33 -23,-61 -41,-86 -52,-142 -52,-269 0,-132 1,-136 77,-247 55,-80 117,-131 196,-163 37,-14 76,-32 87,-39 11,-8 35,-17 53,-20 21,-5 32,-14 32,-24 -1,-23 -74,-239 -101,-297 -40,-87 -130,-391 -164,-558 -29,-139 -33,-314 -11,-444 26,-147 110,-255 222,-288 49,-14 86,-16 219,-12 201,7 354,40 671,144 l 111,36 94,-75 c 52,-42 117,-88 144,-103 28,-15 57,-33 65,-40 28,-23 109,-55 207,-81 90,-24 108,-26 257,-21 140,4 171,7 237,30 242,84 470,241 612,423 106,136 247,350 247,376 0,6 6,19 14,27 49,56 276,564 331,741 9,30 23,69 30,85 7,17 21,55 31,85 9,30 22,60 29,66 6,6 26,67 45,135 52,193 97,232 133,118 21,-64 21,-98 1,-191 -13,-63 -15,-124 -9,-428 4,-195 10,-361 15,-370 5,-9 12,-45 16,-80 13,-118 116,-359 184,-429 57,-58 95,-76 132,-60 94,39 199,224 212,374 3,39 12,108 21,155 29,169 11,765 -30,935 -21,90 -2,154 46,155 23,0 89,-81 89,-111 0,-6 6,-25 14,-42 8,-18 28,-70 46,-117 47,-125 92,-234 102,-245 4,-5 8,-16 8,-26 0,-9 14,-41 30,-72 17,-31 30,-63 30,-70 0,-8 10,-29 23,-48 12,-19 28,-52 36,-74 7,-22 19,-47 26,-55 7,-8 27,-44 44,-80 18,-36 57,-103 87,-150 29,-47 57,-92 60,-100 4,-8 12,-21 18,-28 5,-8 11,-23 13,-33 2,-11 24,-51 50,-89 27,-39 57,-84 68,-101 11,-16 44,-58 73,-93 28,-35 52,-67 52,-72 0,-19 149,-161 219,-209 123,-85 243,-154 316,-181 39,-15 79,-30 90,-34 69,-27 131,-35 285,-35 h 165 l 109,38 c 60,21 121,47 135,56 14,10 52,35 85,55 32,21 96,72 143,113 l 84,75 52,-5 c 29,-3 131,-26 227,-52 181,-49 214,-56 390,-80 233,-33 376,-9 461,75 78,78 91,127 97,368 5,196 1,243 -28,347 -44,160 -73,247 -127,390 -19,50 -46,114 -59,143 -13,29 -24,59 -24,68 0,8 -9,32 -20,52 -10,20 -29,58 -41,85 -22,46 -22,47 -3,62 10,8 39,21 64,29 60,18 115,51 175,104 70,63 101,113 109,179 3,30 12,67 20,81 7,15 17,70 21,123 6,91 5,101 -24,188 -35,103 -105,242 -157,311 -18,25 -43,62 -54,82 l -20,37 31,78 c 73,183 77,453 9,540 -11,14 -20,30 -20,34 0,36 -208,262 -318,346 -13,10 -48,37 -77,61 -30,23 -57,42 -60,42 -3,0 -21,11 -38,24 -18,14 -63,43 -102,65 l -70,41 h 100 c 136,0 432,19 475,30 19,5 62,14 95,20 55,11 146,43 252,91 23,11 46,19 52,19 5,0 45,35 88,78 90,90 105,124 124,272 15,125 6,219 -26,274 -31,54 -33,113 -4,150 17,21 29,26 67,26 104,0 261,56 320,113 19,18 40,47 48,66 21,50 18,176 -7,256 -11,36 -18,72 -16,78 2,7 27,12 63,12 95,1 194,23 271,61 83,40 116,78 119,138 1,23 7,54 13,69 20,51 13,171 -14,252 -24,71 -42,154 -34,156 2,0 54,4 114,8 154,11 225,42 321,136 80,79 77,71 95,270 11,129 11,131 -14,188 -14,31 -38,72 -52,91 -43,57 -131,126 -183,144 -26,10 -60,27 -75,38 -16,13 -50,25 -83,29 -32,4 -64,10 -73,15 -26,13 -250,55 -431,80 -89,12 -864,21 -920,10 z m 600,-390 c 19,-6 91,-13 160,-16 175,-7 382,-55 449,-103 22,-17 51,-78 51,-112 0,-16 -85,-79 -106,-79 -31,0 -220,-72 -241,-92 -48,-45 -64,-90 -57,-164 l 7,-67 -62,7 c -35,4 -72,11 -84,15 -68,26 -82,29 -375,76 -188,31 -561,39 -701,14 -30,-5 -75,-9 -100,-9 -61,0 -142,-16 -291,-57 -69,-19 -154,-43 -190,-53 -54,-14 -146,-49 -265,-99 -11,-5 -44,-19 -74,-31 -30,-12 -90,-39 -135,-61 -83,-40 -110,-46 -121,-29 -13,21 -150,70 -243,87 l -44,8 94,70 c 85,65 292,205 302,205 2,0 40,21 83,47 90,53 336,173 355,173 8,0 18,4 23,9 6,5 85,34 177,65 154,52 403,112 558,135 36,6 108,18 160,27 205,35 599,55 670,34 z M 2630,7594 c 622,-68 987,-171 1430,-400 80,-42 152,-82 161,-90 8,-8 20,-14 25,-14 13,0 267,-174 271,-186 2,-5 -25,-16 -59,-22 -58,-12 -92,-24 -160,-59 -37,-18 -78,-16 -134,8 -27,11 -59,25 -71,30 -13,5 -33,13 -45,19 -104,44 -391,140 -498,166 -36,8 -92,22 -125,30 -262,64 -738,73 -1036,20 -158,-28 -305,-59 -324,-66 -11,-5 -60,-21 -110,-35 -49,-14 -100,-31 -113,-36 -13,-5 -32,-9 -42,-9 -22,0 -24,12 -10,100 11,72 -4,123 -46,160 -33,28 -88,50 -129,50 -40,0 -185,56 -221,86 -32,26 -36,34 -30,58 4,16 17,37 29,48 55,49 253,112 437,139 203,30 546,31 800,3 z m 8161,-759 c 57,-8 120,-19 139,-24 19,-5 46,-13 60,-16 119,-32 256,-89 319,-135 22,-15 31,-30 31,-49 0,-78 -63,-171 -144,-213 -46,-24 -303,-47 -340,-31 -22,11 -63,25 -136,51 -25,8 -54,19 -65,23 -11,4 -31,10 -45,13 -14,2 -43,10 -65,16 -22,6 -65,17 -95,24 -30,7 -62,15 -70,18 -8,3 -61,12 -117,19 -116,14 -433,7 -498,-12 -22,-6 -60,-13 -85,-16 -25,-3 -49,-9 -55,-14 -5,-5 -23,-9 -40,-9 -16,0 -67,-9 -113,-19 l -84,-18 -7,21 c -5,12 -11,44 -14,73 -6,50 -5,53 25,75 35,24 152,68 183,68 12,0 26,5 32,11 17,17 264,77 472,114 46,9 88,18 94,22 11,7 235,18 413,21 55,1 147,-5 205,-13 z M 3315,6703 c 88,-13 178,-27 200,-32 22,-6 74,-17 115,-26 41,-9 89,-20 105,-25 17,-5 73,-21 125,-34 52,-14 115,-31 140,-38 50,-16 49,-11 28,-126 -11,-57 -14,-63 -32,-58 -12,4 -55,11 -96,17 -41,6 -91,15 -110,20 -123,32 -402,41 -600,19 -177,-19 -375,-73 -575,-156 -89,-37 -92,-38 -225,-38 -84,0 -146,5 -164,12 -56,24 -137,85 -153,116 -18,32 -53,125 -53,138 0,10 94,79 145,106 92,49 211,85 340,103 44,6 87,15 95,19 8,5 136,8 285,7 215,-2 303,-7 430,-24 z m 5405,-164 c 103,-23 218,-101 251,-170 9,-19 22,-47 30,-63 9,-20 14,-64 13,-135 -1,-90 -5,-116 -27,-174 -35,-89 -73,-164 -103,-204 -13,-17 -24,-35 -24,-38 0,-6 -33,-49 -94,-121 -15,-19 -32,-32 -36,-29 -4,3 -11,60 -15,127 -4,68 -13,138 -21,157 -8,18 -14,41 -14,51 0,36 -66,146 -128,211 -76,82 -149,126 -252,155 -46,13 -76,27 -78,36 -3,18 128,112 218,156 37,18 93,36 130,41 89,12 99,12 150,0 z m -3789,-78 c 89,-24 243,-114 276,-160 16,-23 11,-26 -44,-36 -23,-3 -47,-13 -54,-21 -6,-7 -15,-12 -19,-9 -17,11 -115,-52 -175,-111 -70,-70 -103,-124 -139,-227 -31,-89 -46,-180 -46,-275 0,-49 -4,-71 -11,-67 -5,4 -46,50 -90,103 -78,95 -154,226 -198,342 -35,92 -25,224 23,317 29,56 136,137 206,154 54,14 205,8 271,-10 z m 5555,-378 c 202,-92 325,-234 337,-388 7,-91 -17,-140 -109,-224 -80,-73 -145,-112 -235,-139 -80,-25 -256,-46 -313,-39 -84,11 -168,28 -184,37 -9,5 -39,19 -65,32 -65,30 -160,132 -181,194 -36,106 -10,204 74,276 59,51 104,68 159,61 50,-7 70,-27 53,-54 -17,-26 -15,-155 3,-215 8,-28 28,-62 44,-78 26,-25 37,-28 98,-30 93,-1 176,33 215,89 56,80 76,350 34,447 -29,68 -20,72 70,31 z m -916,-43 c -17,-29 -37,-59 -46,-67 -22,-23 -69,-122 -83,-178 -33,-131 -6,-346 59,-476 17,-32 30,-61 30,-63 0,-3 -116,-5 -257,-5 -142,0 -294,-4 -337,-10 -44,-6 -82,-8 -85,-5 -3,3 5,15 19,25 115,90 277,264 319,341 12,24 31,59 41,78 10,19 25,51 33,70 8,19 24,56 35,81 22,49 55,146 66,190 6,30 31,42 116,58 54,11 112,18 118,15 2,-1 -11,-25 -28,-54 z m -1415,-43 c 69,-34 151,-104 185,-157 45,-70 73,-164 65,-218 -8,-56 -36,-73 -125,-80 -71,-5 -87,-1 -187,44 -110,51 -201,15 -260,-101 -22,-43 -25,-58 -21,-122 4,-62 9,-79 34,-110 57,-70 166,-104 386,-119 113,-7 108,-23 -23,-69 -158,-55 -181,-64 -284,-117 -190,-96 -310,-186 -530,-399 -80,-78 -147,-140 -150,-138 -17,18 92,422 145,534 5,11 23,54 39,95 16,41 45,110 65,153 20,42 36,80 36,84 0,3 13,27 29,52 16,25 34,65 40,88 7,23 16,45 21,48 6,4 18,23 29,43 102,206 294,503 331,513 39,11 131,-1 175,-24 z m -5095,4 c 0,-4 -12,-26 -26,-47 -39,-56 -45,-86 -44,-205 1,-164 37,-256 122,-316 37,-25 49,-28 124,-28 80,0 84,1 117,33 19,18 39,50 46,71 14,49 14,149 0,207 -9,34 -9,47 1,59 15,18 86,20 144,3 56,-17 146,-107 170,-172 17,-45 18,-56 6,-115 -17,-87 -40,-129 -104,-189 -74,-70 -133,-97 -264,-123 -86,-16 -276,-6 -367,21 -149,43 -281,136 -359,254 -30,46 -36,63 -36,109 0,158 145,327 358,418 67,28 112,37 112,20 z m 920,-18 c 77,-17 110,-39 110,-74 0,-11 4,-27 10,-37 13,-24 90,-193 90,-199 0,-10 94,-160 124,-198 18,-22 39,-52 48,-66 9,-15 74,-75 143,-135 143,-123 143,-125 -7,-105 -87,12 -307,7 -466,-11 -56,-6 -105,-9 -107,-6 -3,3 6,27 20,54 35,69 55,169 62,310 5,111 3,129 -21,215 -15,52 -34,101 -42,110 -7,8 -14,23 -14,33 0,9 -7,19 -15,22 -8,4 -15,13 -15,21 0,8 -16,29 -35,46 -61,54 -51,56 115,20 z m 1482,-2 c 29,-11 116,-123 223,-289 110,-168 111,-170 145,-235 17,-31 45,-81 63,-110 26,-40 175,-344 228,-462 59,-133 133,-385 127,-433 -3,-27 -3,-27 -48,19 -120,124 -286,258 -462,373 -89,58 -198,116 -218,116 -7,0 -26,7 -43,15 -43,19 -203,71 -247,80 -59,11 -70,16 -70,31 0,11 16,14 74,14 41,0 117,9 170,19 77,16 108,28 154,59 50,34 59,45 70,88 37,143 22,227 -51,289 -57,49 -112,55 -180,22 -152,-73 -280,-77 -341,-9 -25,28 -18,95 19,183 33,77 61,116 120,165 69,56 204,89 267,65 z m 763,-368 c 36,-18 135,-112 135,-129 0,-6 9,-19 21,-30 46,-41 121,-232 163,-414 43,-187 44,-169 -18,-241 -33,-37 -60,-80 -68,-106 -16,-56 -43,-59 -57,-5 -6,20 -11,43 -11,50 0,7 -6,34 -14,60 -7,26 -19,67 -25,92 -34,128 -47,169 -126,390 -15,41 -40,95 -111,244 -31,65 -30,78 9,98 33,17 52,15 102,-9 z m 1080,17 c 3,-5 15,-10 26,-10 26,0 26,-44 -1,-77 -11,-14 -20,-34 -20,-44 0,-10 -10,-40 -21,-66 -54,-123 -85,-219 -134,-428 -20,-82 -40,-163 -45,-180 -5,-16 -12,-56 -16,-87 -5,-39 -11,-58 -20,-58 -8,0 -14,7 -14,15 0,30 -103,165 -127,165 -34,0 -35,71 -2,158 5,13 9,35 9,50 0,14 6,44 14,67 8,22 22,69 31,105 10,36 26,84 36,107 11,24 19,48 19,54 0,13 100,146 132,175 27,25 97,64 115,64 6,0 15,-4 18,-10 z m 2010,-755 c 181,-18 215,-25 305,-68 110,-53 142,-75 258,-182 81,-74 119,-115 105,-115 -4,0 -24,5 -43,11 -39,12 -187,35 -325,50 -348,38 -503,38 -769,4 -191,-24 -312,-49 -330,-66 -6,-5 -17,-9 -26,-9 -14,0 -19,18 -27,94 -6,58 -16,104 -26,118 -9,13 -24,33 -33,45 -16,22 -15,22 68,46 144,43 270,69 363,77 143,11 328,10 480,-5 z m -4520,-75 c 28,-5 75,-13 105,-19 53,-9 192,-41 198,-46 2,-2 -11,-22 -27,-46 -37,-53 -62,-145 -54,-195 l 6,-37 -34,6 c -19,3 -65,12 -104,21 -126,28 -383,44 -580,35 -198,-8 -279,-15 -340,-30 -22,-5 -56,-11 -75,-13 -60,-7 -213,-36 -265,-50 -27,-8 -70,-17 -94,-21 l -45,-7 65,72 c 137,156 300,266 438,297 147,33 379,52 571,47 102,-2 208,-9 235,-14 z m 1998,-165 c 60,-25 76,-88 35,-132 -17,-18 -32,-23 -74,-23 -124,0 -156,114 -44,159 34,14 42,13 83,-4 z m 1125,-51 c -19,-32 -23,-53 -23,-121 v -82 l -40,-7 c -21,-3 -46,-10 -55,-14 -8,-5 -37,-15 -65,-23 -136,-42 -209,-76 -268,-124 -27,-21 -104,-49 -113,-40 -5,5 160,158 261,243 95,80 312,221 323,210 1,-2 -7,-21 -20,-42 z M 5782,4459 c 14,-11 29,-19 32,-19 14,0 348,-271 377,-306 13,-15 12,-16 -11,-9 -14,4 -52,20 -85,35 -184,84 -246,110 -305,129 -36,12 -74,26 -85,31 -11,5 -38,11 -60,12 l -40,3 -7,97 c -4,53 -12,106 -17,117 -6,11 -11,22 -11,25 0,6 174,-89 212,-115 z m 3738,-294 c 151,-25 251,-54 333,-96 9,-5 41,-18 70,-29 28,-11 75,-36 102,-55 28,-20 66,-46 85,-59 43,-29 154,-146 197,-209 18,-25 51,-85 73,-131 33,-69 43,-103 52,-180 11,-88 10,-98 -12,-157 -12,-35 -32,-77 -43,-94 -30,-44 -79,-95 -92,-95 -7,0 -41,39 -77,88 -98,130 -113,148 -225,258 -57,56 -129,117 -159,135 -31,19 -75,48 -99,65 -47,35 -166,94 -265,131 -36,14 -78,30 -95,37 -46,20 -168,56 -187,56 -11,0 -23,13 -32,33 -22,51 -147,187 -234,255 -41,32 -33,37 72,51 45,6 92,13 106,15 52,9 339,-4 430,-19 z m -4934,-81 53,-7 -92,-91 c -51,-50 -113,-123 -138,-161 -43,-65 -51,-71 -105,-89 -33,-11 -77,-27 -99,-37 -242,-105 -262,-115 -405,-208 -142,-91 -348,-312 -455,-485 -11,-18 -30,-45 -43,-61 l -22,-28 -23,21 c -13,12 -27,22 -33,22 -17,1 -86,100 -105,153 -27,75 -33,139 -19,210 33,168 124,324 259,447 43,39 93,80 112,92 258,158 594,243 918,232 80,-2 168,-7 197,-10 z m 3779,-58 c 103,-30 167,-59 243,-107 l 74,-46 -134,-11 c -73,-6 -169,-14 -213,-17 -50,-3 -134,-20 -220,-45 -150,-43 -205,-63 -373,-135 -49,-21 -63,-19 -278,41 -28,8 -86,14 -129,14 -94,0 -93,2 43,94 148,99 313,173 472,210 94,22 108,23 290,21 125,-1 179,-5 225,-19 z m -2635,-61 c 118,-32 258,-83 320,-117 87,-47 141,-82 179,-115 40,-34 42,-37 23,-44 -11,-4 -49,-11 -84,-14 -35,-4 -95,-18 -135,-31 -39,-13 -79,-24 -89,-24 -10,0 -32,-5 -50,-12 -29,-10 -44,-7 -141,29 -122,46 -184,65 -263,83 -30,7 -73,18 -95,25 -45,14 -147,23 -372,34 -83,3 -154,9 -158,13 -7,7 58,51 142,96 75,40 164,69 263,87 96,18 380,11 460,-10 z m 3027,-479 c 146,-31 265,-95 360,-194 76,-77 102,-133 110,-232 8,-100 -1,-108 -95,-90 -133,25 -145,24 -181,-5 -56,-48 -76,-117 -52,-177 5,-13 12,-35 15,-50 10,-45 194,-177 249,-178 9,0 17,-2 17,-4 0,-2 -20,-39 -45,-82 -25,-44 -45,-87 -45,-96 0,-10 -4,-18 -9,-18 -9,0 -82,88 -191,230 -54,70 -262,302 -395,440 -67,69 -135,142 -152,162 -31,37 -31,37 -19,90 17,73 39,111 83,145 91,69 207,89 350,59 z m -3684,-93 c 69,-19 149,-88 161,-138 27,-111 26,-116 -30,-175 -54,-57 -68,-74 -274,-317 -117,-138 -190,-230 -250,-318 -73,-105 -164,-225 -172,-225 -8,0 -12,16 -23,81 -3,20 -21,57 -40,82 -19,25 -35,49 -35,54 0,4 31,22 68,38 97,43 171,121 195,202 9,34 17,70 17,80 0,24 -37,94 -58,111 -19,15 -96,16 -123,2 -27,-15 -141,-23 -158,-12 -19,13 -26,101 -11,148 31,104 104,205 191,268 55,41 217,117 274,129 53,12 212,6 268,-10 z m 2329,-44 c 9,-5 27,-9 41,-9 50,0 211,-65 352,-143 96,-52 333,-237 414,-321 48,-49 114,-117 149,-149 55,-54 79,-97 52,-97 -5,0 -13,-12 -16,-27 -4,-16 -15,-41 -24,-58 -15,-26 -17,-42 -10,-110 4,-44 11,-93 15,-110 6,-27 3,-32 -29,-49 -32,-17 -51,-18 -213,-13 -98,4 -221,15 -274,24 l -96,18 -50,55 c -27,30 -63,75 -79,100 -38,56 -94,150 -94,157 0,3 -19,44 -41,91 -51,107 -52,109 -84,207 -14,44 -30,89 -35,100 -5,11 -11,45 -14,75 -3,47 -34,177 -60,258 -7,22 -6,22 36,16 24,-4 51,-11 60,-15 z m -1155,-71 c -27,-230 -112,-537 -200,-717 -50,-101 -143,-245 -184,-282 -15,-15 -44,-29 -63,-33 -294,-50 -362,-58 -455,-52 -50,3 -95,12 -102,19 -9,9 -9,32 -2,97 13,108 -1,181 -43,226 l -30,32 119,133 c 285,323 530,504 793,587 36,12 79,25 95,31 17,5 41,10 54,10 23,1 23,-1 18,-51 z m 3509,-156 c 54,-49 130,-124 169,-168 38,-43 93,-105 122,-136 74,-79 67,-101 -17,-58 -122,62 -325,88 -425,54 -69,-23 -75,-19 -59,41 19,70 19,326 0,387 l -15,46 63,-39 c 34,-21 107,-79 162,-127 z m -5743,11 c -28,-104 -28,-211 1,-324 14,-55 26,-101 26,-102 0,-1 -61,-1 -137,1 -75,2 -166,-2 -202,-8 -84,-15 -184,-63 -233,-114 -26,-27 -38,-35 -38,-24 0,9 5,20 10,23 6,3 29,34 52,68 71,107 182,239 282,336 91,90 227,201 246,201 4,0 1,-26 -7,-57 z m 5849,-807 c 54,-14 125,-39 159,-57 152,-81 291,-287 276,-409 -22,-180 -166,-270 -432,-270 -67,0 -151,7 -190,15 -38,8 -84,15 -102,15 -26,0 -37,7 -62,46 -17,25 -31,50 -31,56 0,12 -106,226 -121,245 -23,27 44,198 105,269 18,22 58,53 87,69 94,51 169,56 311,21 z M 4067,2184 c 100,-47 168,-136 202,-264 11,-43 10,-48 -23,-118 -20,-40 -36,-74 -36,-76 0,-3 -10,-26 -22,-53 -12,-26 -34,-77 -48,-113 -27,-65 -28,-65 -81,-78 -220,-55 -477,-56 -579,-2 -40,21 -100,76 -127,115 -46,67 -47,215 -2,289 10,17 24,42 30,56 31,74 156,180 259,223 185,76 300,82 427,21 z m 4773,-95 c 56,-87 176,-299 196,-346 8,-18 39,-73 69,-124 30,-50 55,-96 55,-101 0,-18 -41,-62 -78,-85 -20,-12 -71,-39 -112,-60 -70,-35 -82,-37 -182,-41 -89,-4 -117,-1 -174,18 -168,54 -308,153 -474,335 -66,72 -180,236 -173,248 3,5 22,6 42,3 315,-52 512,-10 658,142 35,35 63,69 63,75 0,6 8,19 17,30 21,22 14,29 93,-94 z m -3926,-63 c 83,-84 173,-135 280,-160 95,-22 259,-20 375,4 52,11 98,20 103,20 15,0 8,-25 -16,-61 -14,-20 -37,-58 -51,-85 -15,-27 -39,-60 -54,-74 -15,-14 -41,-45 -58,-70 -37,-54 -157,-171 -234,-227 -64,-47 -161,-98 -238,-124 -75,-26 -246,-26 -316,-1 -100,37 -235,123 -235,149 0,4 31,71 69,148 38,77 91,185 118,240 26,55 62,124 80,153 18,29 33,55 33,58 0,8 62,104 67,104 2,0 37,-33 77,-74 z"
       id="path4" />
  </g>
</svg>
